<?xml version="1.0" encoding="UTF-8" standalone="no"?>
<svg
   xmlns:dc="http://purl.org/dc/elements/1.1/"
   xmlns:cc="http://creativecommons.org/ns#"
   xmlns:rdf="http://www.w3.org/1999/02/22-rdf-syntax-ns#"
   xmlns:svg="http://www.w3.org/2000/svg"
   xmlns="http://www.w3.org/2000/svg"
   viewBox="0 0 351.69333 190.65334"
   height="190.65334"
   width="351.69333"
   xml:space="preserve"
   id="svg2"
   version="1.1"><metadata
     id="metadata8"><rdf:RDF><cc:Work
         rdf:about=""><dc:format>image/svg+xml</dc:format><dc:type
           rdf:resource="http://purl.org/dc/dcmitype/StillImage" /></cc:Work></rdf:RDF></metadata><defs
     id="defs6"><clipPath
       id="clipPath20"
       clipPathUnits="userSpaceOnUse"><path
         id="path18"
         d="M 0,1429.86 V 0 h 2637.73 v 1429.86 z" /></clipPath></defs><g
     transform="matrix(1.3333333,0,0,-1.3333333,0,190.65333)"
     id="g10"><g
       transform="scale(0.1)"
       id="g12"><g
         id="g14"><g
           clip-path="url(#clipPath20)"
           id="g16"><path
             id="path22"
             style="fill:#231f20;fill-opacity:1;fill-rule:nonzero;stroke:none"
             d="m 269.117,1261.24 c -17.152,-10.23 -39.785,-15.33 -59.859,-15.33 -53.653,0 -89.789,33.94 -89.789,89.06 0,58.4 40.519,94.89 94.172,94.89 17.519,0 34.672,-3.65 46.718,-10.59 v -31.02 c -12.773,8.04 -27.742,12.05 -42.707,12.05 -37.593,0 -59.492,-28.48 -59.492,-63.14 0,-37.23 22.266,-61.7 55.113,-61.7 19.344,0 33.946,5.84 44.899,12.79 l 10.945,-27.01" /><path
             id="path24"
             style="fill:#231f20;fill-opacity:1;fill-rule:nonzero;stroke:none"
             d="m 414.02,1337.89 c 0,37.59 -19.344,62.41 -50,62.41 -30.665,0 -50.372,-24.82 -50.372,-62.41 0,-37.6 19.707,-62.43 50.372,-62.43 30.656,0 50,24.83 50,62.43 z m -139.063,0 c 0,54.01 35.406,91.97 89.063,91.97 53.652,0 88.691,-37.96 88.691,-91.97 0,-54.39 -35.039,-91.98 -88.691,-91.98 -53.657,0 -89.063,37.59 -89.063,91.98" /><path
             id="path26"
             style="fill:#231f20;fill-opacity:1;fill-rule:nonzero;stroke:none"
             d="m 478.258,1324.01 h 94.5313 v 32.1172 H 478.258 Z" /><path
             id="path28"
             style="fill:#231f20;fill-opacity:1;fill-rule:nonzero;stroke:none"
             d="m 735.211,1337.89 c 0,37.59 -19.344,62.41 -50,62.41 -30.664,0 -50.371,-24.82 -50.371,-62.41 0,-37.6 19.707,-62.43 50.371,-62.43 30.656,0 50,24.83 50,62.43 z m -139.063,0 c 0,54.01 35.407,91.97 89.063,91.97 53.652,0 88.691,-37.96 88.691,-91.97 0,-54.39 -35.039,-91.98 -88.691,-91.98 -53.656,0 -89.063,37.59 -89.063,91.98" /><path
             id="path30"
             style="fill:#231f20;fill-opacity:1;fill-rule:nonzero;stroke:none"
             d="m 852.375,1337.89 c 21.531,0 30.66,12.4 30.66,29.92 0,17.16 -8.398,29.57 -29.933,29.57 h -14.961 v -59.49 z m -51.832,89.05 h 53.652 c 43.071,0 66.434,-22.63 66.434,-58.76 0,-34.68 -22.996,-59.86 -68.621,-59.86 h -13.867 v -58.76 h -37.598 v 177.38" /><path
             id="path32"
             style="fill:#231f20;fill-opacity:1;fill-rule:nonzero;stroke:none"
             d="m 946.906,1426.94 h 110.954 l -10.58,-29.56 H 984.5 v -43.44 h 62.78 v -29.2 H 984.5 v -45.62 h 70.44 v -29.56 H 946.906 v 177.38" /><path
             id="path34"
             style="fill:#231f20;fill-opacity:1;fill-rule:nonzero;stroke:none"
             d="m 1148.39,1344.09 c 17.89,0 28.1,10.95 28.1,27.01 0,14.6 -8.76,26.64 -28.83,26.64 h -19.34 v -53.65 z m -57.67,82.85 h 58.76 c 48.55,0 64.61,-26.64 64.61,-51.83 0,-21.17 -10.95,-38.69 -33.58,-46.35 v -0.74 c 4.01,-2.91 11.31,-11.68 20.44,-26.27 l 31.75,-52.19 h -40.51 l -27.01,44.16 c -7.3,12.05 -13.87,19.71 -18.25,21.17 h -18.61 v -65.33 h -37.6 v 177.38" /><path
             id="path36"
             style="fill:#231f20;fill-opacity:1;fill-rule:nonzero;stroke:none"
             d="m 1352.05,1317.08 -13.5,36.86 c -2.92,7.31 -6.57,17.16 -8.76,24.45 h -0.73 c -2.19,-7.29 -5.47,-16.78 -8.39,-24.45 l -13.51,-36.86 z m -36.13,110.59 h 27.01 l 74.09,-178.11 h -39.05 l -15.7,39.41 h -64.96 l -15.34,-39.41 h -39.05 l 73,178.11" /><path
             id="path38"
             style="fill:#231f20;fill-opacity:1;fill-rule:nonzero;stroke:none"
             d="m 1448.41,1397.01 h -53.29 v 29.93 h 149.28 l -8.39,-29.93 h -50 v -147.45 h -37.6 v 147.45" /><path
             id="path40"
             style="fill:#231f20;fill-opacity:1;fill-rule:nonzero;stroke:none"
             d="m 1564.48,1249.56 h 37.5977 v 177.383 H 1564.48 Z" /><path
             id="path42"
             style="fill:#231f20;fill-opacity:1;fill-rule:nonzero;stroke:none"
             d="m 1626.53,1426.94 h 39.41 l 38.33,-97.81 c 4.38,-11.68 8.03,-23 10.95,-32.85 h 0.73 c 3.28,10.21 7.3,21.53 11.68,32.85 l 38.32,97.81 h 39.79 l -76.65,-178.48 h -27.37 l -75.19,178.48" /><path
             id="path44"
             style="fill:#231f20;fill-opacity:1;fill-rule:nonzero;stroke:none"
             d="m 1821.06,1426.94 h 110.96 l -10.59,-29.56 h -62.77 v -43.44 h 62.77 v -29.2 h -62.77 v -45.62 h 70.44 v -29.56 h -108.04 v 177.38" /><path
             id="path46"
             style="fill:#231f20;fill-opacity:1;fill-rule:nonzero;stroke:none"
             d="m 1963.78,1287.88 c 11.68,-6.58 26.28,-12.42 41.61,-12.42 14.23,0 29.2,6.22 29.2,21.91 0,35.4 -77.02,25.18 -77.02,83.21 0,28.11 21.54,49.28 59.86,49.28 19.34,0 35.4,-4.01 46.36,-8.76 v -32.48 c -16.07,8.39 -30.3,11.68 -44.17,11.68 -11.68,0 -24.09,-4.75 -24.09,-18.25 0,-32.85 77.02,-21.91 77.02,-82.49 0,-33.95 -28.47,-53.65 -65.34,-53.65 -22.99,0 -40.15,5.47 -56.21,14.23 l 12.78,27.74" /><path
             id="path48"
             style="fill:#231f20;fill-opacity:1;fill-rule:nonzero;stroke:none"
             d="m 2316.34,1317.08 c 0,-50 -32.84,-71.17 -77.73,-71.17 -44.17,0 -76.29,21.17 -76.29,70.8 v 110.23 h 37.6 v -107.67 c 0,-28.83 15.33,-42.34 39.41,-42.34 23.73,0 39.07,13.51 39.07,42.34 v 107.67 h 37.94 v -109.86" /><path
             id="path50"
             style="fill:#231f20;fill-opacity:1;fill-rule:nonzero;stroke:none"
             d="m 2352.49,1426.94 h 37.59 v -77.01 h 0.74 l 59.85,77.01 h 41.24 l -71.17,-89.42 77.01,-87.96 h -44.52 l -62.41,73.36 h -0.74 v -73.36 h -37.59 v 177.38" /><path
             id="path52"
             style="fill:#231f20;fill-opacity:1;fill-rule:nonzero;stroke:none"
             d="m 1105.85,970.961 c 98.28,-22.926 175.34,-97.664 201.13,-194.914 9.08,-34.449 44.48,-54.926 78.76,-45.848 34.41,9.121 54.93,44.399 45.81,78.805 -8.17,30.758 -19.78,60.066 -34.49,87.34 66.41,68.023 163.32,96.668 256.39,74.988 146.12,-34.113 237.36,-180.609 203.36,-326.484 C 1822.7,498.809 1676.08,407.648 1530.2,441.477 1424.42,466.184 1343.62,551 1324.31,657.574 c -6.3,35.028 -39.92,58.364 -74.87,51.942 -35.03,-6.344 -58.28,-39.879 -51.94,-74.907 7.63,-42.16 21.81,-81.953 41.41,-118.39 -65.87,-67.528 -162.99,-96.75 -256.512,-75.071 -145.996,34.071 -237.113,180.61 -203.203,326.692 29.309,125.398 141.438,210.293 264.925,210.293 20.4,0 41.09,-2.32 61.73,-7.172 z m 212.28,-557.5 c 50.28,-46.973 112.84,-81.172 182.85,-97.461 215.19,-49.988 431.07,84.359 481.31,299.582 50.12,215.059 -84.23,430.988 -299.54,481.228 -131.4,30.72 -267.7,-6.67 -364.87,-97.662 -50.32,46.972 -112.88,81.002 -182.72,97.332 -215.187,50.2 -431.199,-84.07 -481.441,-299.417 -50.078,-215.266 84.273,-431.235 299.457,-481.391 30.219,-7.012 60.734,-10.453 90.904,-10.453 101.48,0 199.64,38.59 274.05,108.242 z M 2123.11,64.418 V 329.02 c 35.4,-13.852 73.5,-23.34 113.79,-23.34 221.01,0 400.83,179.82 400.83,400.851 0,221.028 -179.82,400.769 -400.83,400.769 -89,0 -173.27,-28.52 -243.66,-82.45 -28.23,-21.64 -33.58,-62.1 -11.94,-90.327 21.64,-28.23 62.06,-33.617 90.33,-11.937 47.71,36.519 104.87,55.836 165.27,55.836 149.94,0 271.95,-121.957 271.95,-271.891 0,-149.976 -122.01,-271.976 -271.95,-271.976 -37.68,0 -76.44,16.418 -113.79,36.894 v 23.133 c 0,35.563 -28.85,64.457 -64.42,64.457 -35.61,0 -64.42,-28.894 -64.42,-64.457 V 64.418 C 1994.27,28.8516 2023.08,0 2058.69,0 c 35.57,0 64.42,28.8516 64.42,64.418 z M 400.813,305.68 C 179.781,305.68 0,485.461 0,706.449 c 0,0.039 0,0.039 0,0.082 0,221.028 179.781,400.769 400.813,400.769 h 0.332 c 0.121,0 0.203,0 0.203,0 0.125,0 0.125,0 0.125,0 88.754,-0.12 172.738,-28.6 243,-82.45 28.23,-21.64 33.621,-62.1 11.98,-90.327 -21.68,-28.23 -62.14,-33.535 -90.367,-11.98 -8.043,6.176 -16.375,11.855 -24.914,17.035 -0.539,0.293 -1.117,0.621 -1.656,0.957 -41.664,24.746 -89.457,37.805 -138.25,37.887 h -0.289 c -0.043,0 -0.125,0 -0.125,0 -149.977,0 -271.934,-121.957 -271.973,-271.934 0.039,-149.933 121.996,-271.933 271.934,-271.933 0.039,0.043 0.121,0.043 0.25,0 0,0.043 0.082,0.043 0.164,0 h 0.039 c 48.793,0.082 96.586,13.226 138.25,37.929 0.539,0.332 1.117,0.621 1.656,0.957 8.539,5.137 16.871,10.86 24.914,16.993 28.227,21.64 68.687,16.293 90.367,-11.938 21.641,-28.269 16.25,-68.726 -11.98,-90.367 -70.262,-53.809 -154.246,-82.328 -243,-82.449 -0.039,0.039 -0.125,0.039 -0.207,0 -0.082,0 -0.121,0 -0.121,0 h -0.332" /><path
             id="path54"
             style="fill:#231f20;fill-opacity:1;fill-rule:nonzero;stroke:none"
             d="m 975.535,165.871 h 31.455 l 37.62,-52.43 c 4.56,-6.39 8.2,-11.863 11.62,-17.7926 h 0.46 c 2.73,5.4806 6.38,11.8636 10.93,18.9216 l 33.74,51.301 h 31.69 V 15.6406 h -34.88 v 76.5899 c 0,5.4804 0,11.6285 0.24,16.1915 h -0.24 c -1.37,-3.192 -7.52,-12.0822 -10.03,-15.9611 l -24.38,-36.9296 h -15.28 l -27.81,38.2968 c -3.19,4.3321 -6.84,8.8909 -10.04,14.5939 h -0.45 c 0.23,-5.012 0.23,-10.9415 0.23,-15.0509 V 15.6406 H 975.535 V 165.871" /><path
             id="path56"
             style="fill:#231f20;fill-opacity:1;fill-rule:nonzero;stroke:none"
             d="m 1167.2,165.871 h 90.28 l -8.44,-28.043 h -46.95 v -31.687 h 47.18 V 78.1016 h -47.18 V 43.6797 h 54.93 V 15.6406 H 1167.2 V 165.871" /><path
             id="path58"
             style="fill:#231f20;fill-opacity:1;fill-rule:nonzero;stroke:none"
             d="m 1282.53,165.871 h 31.45 l 37.62,-52.43 c 4.56,-6.39 8.21,-11.863 11.63,-17.7926 h 0.45 c 2.74,5.4806 6.39,11.8636 10.95,18.9216 l 33.74,51.301 h 31.69 V 15.6406 h -34.89 v 76.5899 c 0,5.4804 0,11.6285 0.23,16.1915 h -0.23 c -1.36,-3.192 -7.52,-12.0822 -10.03,-15.9611 l -24.39,-36.9296 h -15.27 l -27.82,38.2968 c -3.19,4.3321 -6.83,8.8909 -10.03,14.5939 h -0.45 c 0.23,-5.012 0.23,-10.9415 0.23,-15.0509 V 15.6406 h -34.88 V 165.871" /><path
             id="path60"
             style="fill:#231f20;fill-opacity:1;fill-rule:nonzero;stroke:none"
             d="m 1523.44,43.8984 c 16.65,0 23.94,5.7032 23.94,17.793 0,10.0274 -7.75,15.7266 -20.74,15.7266 h -17.56 V 43.8984 Z m -3.87,61.7926 c 12.08,0 18.23,7.289 18.23,15.489 0,8.898 -6.15,16.191 -19.14,16.191 h -9.58 v -31.68 z m -45.36,60.18 h 50.37 c 32.61,0 47.19,-19.152 47.19,-38.07 0,-11.403 -5.7,-23.492 -17.09,-29.8713 v -0.4492 c 18.23,-5.0196 27.57,-19.6094 27.57,-36.0196 0,-22.1093 -17.77,-45.8203 -53.8,-45.8203 h -54.24 V 165.871" /><path
             id="path62"
             style="fill:#231f20;fill-opacity:1;fill-rule:nonzero;stroke:none"
             d="m 1608.44,165.871 h 90.28 l -8.44,-28.043 h -46.95 v -31.687 h 47.19 V 78.1016 h -47.19 V 43.6797 h 54.93 V 15.6406 h -89.82 V 165.871" /><path
             id="path64"
             style="fill:#231f20;fill-opacity:1;fill-rule:nonzero;stroke:none"
             d="m 1774.15,98.6211 c 6.38,0 10.26,1.1406 13.68,2.9569 5.47,3.192 9.11,8.891 9.11,16.641 0,7.531 -3.87,14.14 -10.48,17.332 -2.97,1.367 -6.38,2.277 -12.09,2.277 h -11.16 V 98.6211 Z m -45.82,67.2499 h 48.33 c 12.99,0 23.03,-1.82 31,-5.019 18.46,-7.524 25.53,-22.571 25.53,-39.211 0,-19.379 -12.76,-33.0512 -28.72,-38.0707 v -0.4492 c 4.56,-2.7422 11.4,-10.7227 19.15,-24.8516 l 23.7,-42.6289 h -39.66 l -18.24,34.1875 c -7.75,14.5899 -12.76,20.0703 -16.18,20.75 h -10.03 V 15.6406 h -34.88 V 165.871" /></g></g></g></g></svg>
