<svg width="355" height="210" viewBox="0 0 355 210" fill="none" xmlns="http://www.w3.org/2000/svg">
<mask id="mask0" mask-type="alpha" maskUnits="userSpaceOnUse" x="0" y="4" width="54" height="87">
<path fill-rule="evenodd" clip-rule="evenodd" d="M0 4.77222H53.1203V90.8581H0V4.77222Z" fill="white"/>
</mask>
<g mask="url(#mask0)">
<path fill-rule="evenodd" clip-rule="evenodd" d="M26.1882 43.3689C36.4141 38.0608 41.5235 36.208 51.7399 33.6274C52.2579 40.0215 52.5181 43.2128 53.0409 49.5977C53.5471 57.4772 51.6216 64.6175 47.2195 71.4019C42.8103 78.1886 36.7996 83.3154 29.488 86.9728C23.9387 89.7462 18.8293 91.0434 14.8766 90.8368C10.8742 90.6278 7.61465 89.6888 5.71755 87.4939C5.0978 86.7753 4.50171 85.9947 4.03335 85.283C3.54607 84.5437 3.12265 83.3957 2.73708 81.9516C2.01088 79.2424 1.32727 73.4705 0.688595 64.6244C0.0380942 55.6359 -0.160604 49.3911 0.125616 45.9495C0.416567 42.4712 1.13803 39.2937 2.00852 36.573C3.56026 31.7195 6.0771 26.1634 9.66787 20.6532C13.2279 15.1889 17.8192 10.5535 23.4017 7.56194C30.1953 3.92293 36.0971 3.98951 40.7665 6.91679C45.4549 9.85325 48.6435 14.6999 50.3182 20.9838C45.7127 22.1754 43.4111 22.8986 38.8032 24.6228C37.6678 21.7828 35.8085 19.5672 33.3508 18.4468C30.8813 17.3172 27.6288 17.5882 24.2556 19.3905C21.7246 20.7404 19.5413 22.6529 17.7908 24.8019C16.0002 27.0014 14.6235 29.4052 13.5614 31.6919C12.3669 34.2702 11.5129 37.1309 11.2314 40.0697C10.931 43.2036 11.028 48.6265 11.5933 56.2811C12.1611 63.9402 12.8636 68.9614 13.5472 71.2848C14.2427 73.6335 15.4869 75.1856 16.873 75.9891C18.1173 76.7078 19.8772 77.0958 21.7435 77.0912C23.5886 77.0843 25.9564 76.5447 28.5442 75.2315C32.8209 73.0619 36.2083 69.9279 38.7535 65.7264C41.2396 61.6236 42.3987 57.1696 42.0722 52.2219C41.9421 50.5849 41.8736 49.7561 41.7435 48.1168C35.8653 50.2153 32.9298 51.478 27.0445 54.5063C26.7015 50.0523 26.5312 47.823 26.1882 43.3689Z" fill="#231F20"/>
</g>
<path fill-rule="evenodd" clip-rule="evenodd" d="M74.1493 39.1333C74.8122 46.6796 75.5655 51.7783 76.2927 54.3936C77.0174 56.9954 78.2578 59.1368 79.7097 60.7238C81.0214 62.1544 82.7679 63.4665 84.6381 64.4634C86.57 65.4961 88.8773 66.198 91.4698 66.2897C94.0932 66.3836 96.3364 65.8739 98.1304 64.944C99.7867 64.0857 101.165 62.8183 102.142 61.504C103.235 60.0354 104.211 57.9633 104.47 55.386C104.729 52.8043 104.48 47.7347 103.774 40.213C103.064 32.698 102.353 27.4988 101.586 24.7382C100.851 22.0983 99.5039 19.8184 98.0829 18.0346C96.8354 16.4587 95.2813 14.8181 93.3922 13.6602C91.4437 12.471 89.0223 11.7043 86.4939 11.5993C84.0131 11.4942 81.7699 12.0798 80.0305 13.1058C78.2531 14.1542 76.8772 15.6295 75.8412 17.1494C74.6934 18.8281 73.838 21.0455 73.5861 23.6563C73.3176 26.4124 73.4863 31.5915 74.1493 39.1333ZM63.2185 40.28C62.4533 31.368 62.1801 25.3439 62.4296 22.2704C62.6838 19.1858 63.392 16.5817 64.2189 14.6213C65.735 11.0382 68.2276 7.40142 71.7706 4.41062C75.2899 1.43994 79.9426 -0.216392 85.484 0.0227822C91.1086 0.266427 96.0465 2.30723 100.098 5.59755C104.107 8.85434 107.032 12.7549 109.13 16.2687C110.333 18.2827 111.604 20.9159 112.329 23.9894C113.053 27.0472 113.821 33.0288 114.676 41.8693C115.515 50.5712 115.888 56.4254 115.743 59.3961C115.594 62.3601 114.752 64.7451 113.928 66.3321C112.438 69.2067 110.088 72.2444 106.58 74.4976C103.011 76.7954 98.1708 77.9913 92.5605 77.7991C86.9763 77.6069 81.9149 76.0399 77.8634 73.5521C73.8285 71.0754 70.5564 68.2791 68.577 64.9865C67.9401 63.9247 67.3413 62.8429 66.847 61.8594C66.3433 60.8602 65.9013 59.5168 65.4926 57.9119C64.7298 54.9077 63.9718 49.0334 63.2185 40.28Z" fill="#231F20"/>
<path fill-rule="evenodd" clip-rule="evenodd" d="M138.821 51.6741C139.575 59.2718 140.384 64.493 141.145 67.2896C141.897 70.0566 143.134 72.5017 144.617 74.5084C145.946 76.3051 147.672 78.0675 149.552 79.5606C151.505 81.113 153.783 82.3915 156.355 83.1106C158.959 83.8343 161.194 83.8275 162.941 83.3047C164.578 82.8207 165.942 81.8481 166.878 80.7706C167.928 79.5674 168.879 77.7 169.104 75.2389C169.324 72.7688 169.016 67.7828 168.217 60.3129C167.418 52.8499 166.651 47.6424 165.857 44.7978C165.093 42.0697 163.748 39.5995 162.303 37.5243C161.04 35.7093 159.486 33.7756 157.59 32.1867C155.639 30.5544 153.26 29.2074 150.725 28.4129C148.27 27.6436 146.05 27.5614 144.338 28.0454C142.593 28.5385 141.231 29.5658 140.233 30.705C139.133 31.9584 138.286 33.8738 138.069 36.3463C137.84 38.9489 138.067 44.081 138.821 51.6741ZM127.979 49.0099C127.108 39.9967 126.754 33.988 126.966 31.0658C127.179 28.1436 127.872 25.8172 128.655 24.2374C130.112 21.2969 132.552 18.6373 136.028 16.9091C139.471 15.1968 144.089 15.0644 149.578 16.8269C155.187 18.6281 160.08 21.7581 164.138 25.8172C168.151 29.8375 171.099 34.15 173.223 37.9284C174.453 40.1223 175.723 42.855 176.484 45.9621C177.238 49.0533 178.078 54.9867 179.038 63.7168C179.981 72.3122 180.433 78.0653 180.324 80.9349C180.216 83.7955 179.395 86.0465 178.615 87.4483C177.186 90.0143 174.881 92.6603 171.44 94.2469C167.943 95.861 163.135 96.1098 157.585 94.6031C151.995 93.0872 147.017 90.1741 142.945 86.5054C138.892 82.8504 135.636 79.0561 133.614 75.1225C132.961 73.86 132.358 72.609 131.85 71.4629C131.339 70.3054 130.885 68.8352 130.459 67.1161C129.662 63.8971 128.835 57.8678 127.979 49.0099Z" fill="#231F20"/>
<path fill-rule="evenodd" clip-rule="evenodd" d="M204.305 95.0156C209.273 96.3392 211.758 96.966 216.721 98.0951C222.553 99.4233 226.459 97.8168 228.651 94.52C229.5 93.2439 230.134 91.4202 230.145 89.1756C230.156 86.9581 229.752 82.6975 228.98 76.4049C228.224 70.2798 227.581 65.7907 226.945 63.1252C226.301 60.4236 224.986 58.0274 223.51 56.0475C220.115 51.504 215.893 48.1485 210.699 46.7479C205.788 45.3043 203.333 44.5282 198.419 42.9239C200.751 63.8719 201.924 74.2916 204.305 95.0156ZM187.02 28.9043C196.487 32.2599 201.218 33.9116 210.672 36.783C219.829 39.6249 227.123 45.474 232.707 54.0654C234.623 57.0114 236.108 59.9756 236.848 62.8831C237.579 65.7545 238.342 70.7754 239.234 77.7807C240.182 85.2294 240.561 90.3929 240.428 93.2507C240.36 94.6965 240.177 96.0112 239.809 97.0905C239.453 98.1517 238.938 99.2717 238.342 100.405C236.769 103.41 234.201 105.711 231.012 107.32C227.798 108.945 223.557 109.463 218.411 108.368C209.09 106.39 204.432 105.152 195.099 102.566C192.368 78.016 189.678 53.4635 187.02 28.9043Z" fill="#231F20"/>
<path fill-rule="evenodd" clip-rule="evenodd" d="M26.8142 158.34C33.2146 154.271 36.4159 152.552 42.814 149.643C46.8186 147.751 49.7445 145.263 51.53 141.901C53.2488 138.66 53.9694 135.478 53.7147 132.338C53.5013 129.734 52.9551 127.578 52.0096 126.15C51.149 124.841 49.7813 123.994 48.2965 123.6C46.0154 122.996 43.3487 123.241 40.4366 124.671C34.2243 127.571 31.1148 129.285 24.9003 133.306C25.6622 143.329 26.0431 148.33 26.8142 158.34ZM13.3594 130.002C23.6174 121.904 28.7465 118.78 38.9954 113.889C41.7768 112.564 44.5535 111.584 47.11 111.246C49.655 110.907 52.5466 111.742 55.3417 113.093C57.5953 114.184 59.6997 116.226 61.3772 119.032C63.0135 121.771 64.1242 125.33 64.4776 129.599C64.9572 135.362 63.5 141.001 60.2252 146.762C56.8127 152.763 51.4542 157.075 44.1221 160.494C37.5404 163.435 34.2496 165.177 27.6656 169.331C28.5973 181.36 29.0632 187.366 30.011 199.373C25.6622 202.057 23.4935 203.527 19.1424 206.777C17.1826 181.186 15.2572 155.596 13.3594 130.002Z" fill="#231F20"/>
<path fill-rule="evenodd" clip-rule="evenodd" d="M89.5902 140.213C96.2295 139.818 99.5468 139.816 106.181 140.085C110.277 140.182 113.229 139.124 115.049 136.962C116.785 134.905 117.607 132.225 117.264 128.973C116.853 125.067 115.234 122.062 112.828 120.079C110.837 118.441 108.092 117.357 104.597 117.19C97.7573 116.856 94.3302 116.841 87.4877 117.241C88.3217 126.441 88.7469 131.033 89.5902 140.213ZM75.6973 108.13C86.9224 106.578 92.5314 106.469 103.745 107.041C109.718 107.345 114.753 109.623 118.848 113.309C123.649 117.63 126.819 123.476 127.552 130.311C128.622 140.26 124.499 146.568 115.685 149.491C123.684 163.375 127.706 170.423 135.81 184.543C130.578 183.831 127.959 183.524 122.726 183.06C115.414 169.75 111.779 163.137 104.56 150.118C98.9487 149.98 96.1407 150.005 90.5247 150.345C91.7161 163.237 92.3165 169.672 93.5289 182.524C89.116 182.8 86.913 183.018 82.4954 183.618C80.1966 158.458 77.9329 133.296 75.6973 108.13Z" fill="#231F20"/>
<path fill-rule="evenodd" clip-rule="evenodd" d="M179.961 162.976C174.494 149.036 171.778 141.978 166.381 127.774C166.306 127.756 166.265 127.751 166.188 127.731C163.531 139.854 162.195 145.952 159.502 158.232C167.69 160.058 171.782 161.057 179.961 162.976ZM184.079 173.616C173.44 171.228 168.12 169.936 157.47 167.68C156.007 173.967 155.273 177.121 153.801 183.456C149.278 182.591 147.016 182.177 142.49 181.434C148.399 158.009 154.32 134.586 160.265 111.17C163.783 112.103 165.545 112.578 169.062 113.542C179.841 140.34 190.962 167.004 202.603 193.436C198.11 192.606 195.861 192.158 191.363 191.244C188.441 184.243 186.985 180.715 184.079 173.616Z" fill="#231F20"/>
<path fill-rule="evenodd" clip-rule="evenodd" d="M229.575 176.135C224.734 185.868 222.297 190.713 217.395 200.412C212.562 199.779 210.14 199.405 205.305 198.591C212.201 185.368 215.624 178.795 222.402 165.593C212.637 150.726 207.783 142.877 198.15 126.734C202.934 127.917 205.328 128.48 210.108 129.512C216.863 140.654 220.25 146.084 227.069 156.521C231.428 147.541 233.6 143.051 237.907 134.015C242.66 134.474 245.04 134.623 249.792 134.748C243.363 147.742 240.12 154.155 233.587 166.911C244.271 181.917 249.65 188.96 260.49 201.602C255.647 202.092 253.228 202.23 248.384 202.33C240.821 192.407 237.058 187.13 229.575 176.135Z" fill="#231F20"/>
<path fill-rule="evenodd" clip-rule="evenodd" d="M264.943 138.926C269.6 138.34 271.927 138.126 276.58 137.851C281.672 167.653 283.756 179.51 287.208 199.083C282.48 199.318 280.122 199.53 275.394 200.106C271.162 175.714 269.068 163.479 264.943 138.926Z" fill="#231F20"/>
<mask id="mask1" mask-type="alpha" maskUnits="userSpaceOnUse" x="296" y="144" width="58" height="66">
<path fill-rule="evenodd" clip-rule="evenodd" d="M296.883 144.984H353.553V209H296.883V144.984Z" fill="white"/>
</mask>
<g mask="url(#mask1)">
<path fill-rule="evenodd" clip-rule="evenodd" d="M307.294 190.062C313.971 194.093 321.387 196.688 329.386 198.264C338.776 200.114 343.094 199.127 341.885 193.608C340.885 189.059 336.952 184.964 330.37 182.625C327.394 181.569 324.007 180.604 320.452 179.65C314.036 177.933 308.833 175.739 304.915 172.688C300.883 169.547 298.36 165.891 297.352 161.493C296.14 156.215 297.29 151.851 300.648 148.707C303.929 145.638 309.366 144.158 316.695 145.454C325.61 147.03 334.051 151.704 341.741 158.499C339.997 160.584 339.123 161.667 337.379 163.881C331.173 158.943 324.756 155.708 318.258 154.545C314.916 153.949 312.249 154.359 310.337 155.559C308.342 156.811 307.622 158.972 308.256 161.843C308.636 163.575 309.841 165.22 311.778 166.783C313.735 168.362 316.578 169.653 320.275 170.756C322.316 171.365 325.148 172.152 328.685 173.349C335.687 175.721 341.279 179.676 345.385 184.323C349.431 188.904 352.082 193.584 353.057 197.935C355.639 209.43 348.097 210.722 331.431 207.42C320.606 205.275 310.664 202.186 301.712 197.048C303.945 194.177 305.061 192.777 307.294 190.062Z" fill="#231F20"/>
</g>
</svg>
