<svg width="375" height="230" viewBox="0 0 375 230" fill="none" xmlns="http://www.w3.org/2000/svg">
<path fill-rule="evenodd" clip-rule="evenodd" d="M151.285 114.798C151.254 137.514 133.691 155.92 111.929 156.047C90.2272 156.168 72.1184 137.656 72.034 115.261C71.9487 92.4556 90.2919 73.6628 112.28 74.0252C133.77 74.3752 151.316 92.7157 151.285 114.798ZM328.722 199.392C295.652 225.94 258.642 231.189 220.426 213.352C181.73 195.286 160.806 163.162 158.44 119.221C156.97 91.9159 144.491 73.9084 122.186 68.6655C100.088 63.47 77.7207 75.142 69.107 96.3698C60.241 118.218 67.8149 142.982 87.1811 155.448C106.573 167.932 131.571 164.102 146.684 146.297C149.041 143.814 150.916 140.976 152.791 137.192C152.803 136.819 156.542 150.436 156.542 150.436C156.542 150.436 153.092 154.502 149.999 157.352C130.636 175.193 102.743 177.845 81.1973 163.305C59.2115 148.467 50.2575 121.034 59.0418 95.4266C67.4652 70.865 92.3932 54.7042 117.481 57.5375C143.409 60.4664 163.594 80.8806 167.258 107.695C169.028 120.66 169.442 134.125 173.275 146.443C187.656 192.674 234.019 220.347 280.506 211.658C327.472 202.877 360.548 159.89 358.679 110.058C356.904 62.7018 320.472 23.0039 274.091 17.6145C245.627 14.3081 221.074 23.3663 198.761 42.457C196.506 39.9188 194.744 37.9321 192.494 35.4034C208.261 20.3806 226.434 11.4114 247.11 8.18924C295.207 0.700539 340.456 26.6963 360.112 72.6767C378.831 116.466 366.273 169.249 328.722 199.392ZM223.748 114.839C223.953 92.1928 241.961 73.7067 263.518 74.0113C285.385 74.3178 303.097 92.7983 303.019 115.221C302.942 137.577 284.899 156.049 263.141 156.046C241.472 156.044 223.543 137.289 223.748 114.839ZM296.651 60.3702C273.654 45.4968 243.418 47.7342 222.877 65.8382C220.69 67.7652 218.534 69.7396 216.193 71.8463C214.671 69.0802 212.795 64.3501 211.858 62.458C214.671 59.62 215.368 58.9322 218.327 56.5492C243.878 35.9666 279.793 35.1303 306.102 55.0337C332.5 75.0042 342.677 110.381 331.012 141.628C319.163 173.378 288.085 192.685 254.713 189.032C223.594 185.622 197.082 159.834 192.054 127.728C190.199 115.879 190.367 103.517 187.23 92.076C176.415 52.5778 139.994 29.1345 99.733 34.6167C63.2238 39.588 33.5535 73.9049 32.5868 112.279C31.5733 152.447 58.548 187.553 96.8349 194.853C120.279 199.322 141.847 193.996 160.843 178.796C162.525 177.452 165.183 175.443 166.853 174.088L167.536 174.36C168.994 176.782 170.377 179.074 171.701 181.273C152.537 203.616 113.94 212.375 83.3428 201.556C40.7843 186.508 15.1353 140.58 24.6922 96.5214C34.9505 49.2412 75.8636 19.2731 123.09 24.4517C165.907 29.143 199.779 68.3385 200.505 114.035C201.042 147.865 224.019 175.294 254.918 178.992C287.171 182.851 315.895 162.922 324.012 131.061C330.888 104.063 319.761 75.3192 296.651 60.3702ZM99.4918 178.171C118.224 182.088 135.492 177.792 150.637 165.511C153.336 163.324 155.825 160.864 159.079 157.923C160.603 161.06 161.941 163.821 163.219 166.458C140.326 194.829 93.9121 197.189 64.8521 171.71C39.2838 149.296 32.0052 112.175 47.1137 81.2852C61.9343 50.9851 95.0316 35.0541 127.792 42.4444C160.065 49.7259 183.523 79.5038 184.285 114.157C185.194 155.542 211.211 188.647 249.424 195.001C280.967 200.249 307.763 189.884 326.792 163.12C346.155 135.891 348.291 106.034 332.626 76.3905C317.32 47.4176 292.507 33.3399 260.288 33.9236C240.504 34.2831 223.606 42.3186 208.217 56.4521C206.276 53.5053 204.822 51.2973 202.932 48.4289C216.367 35.1714 232.225 27.4282 250.217 24.7084C303.331 16.6786 351.107 58.4095 352.28 113.5C353.262 159.532 317.84 201.211 273.935 205.685C226.509 210.517 184.305 178.767 176.122 131.942C175.136 126.308 174.702 120.519 174.56 114.79C173.725 80.8775 148.64 52.775 117.289 50.8356C83.5207 48.7449 54.2235 71.9659 49.9124 104.238C45.1213 140.109 65.6332 171.088 99.4918 178.171ZM42.7731 196.42C10.5994 166.571 -0.977134 129.001 10.6819 86.1071C22.3241 43.2637 51.1262 17.1365 93.5713 8.58167C154.927 -3.77998 214.385 45.3526 216.492 109.822C217.121 128.951 222.601 144.892 238.723 155.434C260.072 169.393 288.043 162.903 302.183 141.128C315.644 120.396 310.479 91.4871 290.643 76.5239C270.524 61.3498 242.486 65.3051 226.893 85.531C224.985 87.9992 223.838 90.4512 222.172 92.7293L218.422 78.539C220.297 76.6469 222.05 75.4303 225.243 72.5137C244.658 54.7815 272.712 52.2547 294.09 66.9199C316.272 82.1348 324.988 109.906 315.678 135.695C307.022 159.66 281.866 175.506 257.266 172.481C231.172 169.27 211.107 148.877 207.828 122.033C206.7 112.801 206.695 103.358 204.877 94.2855C195.399 46.9617 150.26 12.1595 105.31 17.075C53.2958 22.771 16.481 63.1226 16.3009 114.644C16.1312 164.643 52.4604 206.768 100.589 212.373C128.279 215.598 150.464 208.471 176.067 187.797C177.356 188.993 178.188 190.122 179.043 191.115C180.083 192.322 181.177 193.361 182.1 194.62C146.499 231.768 82.0782 232.883 42.7731 196.42ZM351.742 44.8214C334.847 22.2493 312.524 7.85181 285.319 2.363C248.373 -5.08786 215.806 5.33634 187.571 30.0322C134.797 -16.1923 66.8459 -5.33288 28.6837 38.0829C-9.81319 81.8751 -9.45502 149.668 29.1272 192.542C68.0282 235.767 135.353 245.719 187.31 200.211C241.77 247.495 309.055 233.348 345.643 192.967C382.123 152.703 385.12 89.4111 351.742 44.8214Z" fill="#F6F6F6"/>
</svg>
