<svg width="1117" height="523" fill="none" xmlns="http://www.w3.org/2000/svg"><path fill="#2C2C2C" d="M0 0h1117v523H0z"/><path fill-rule="evenodd" clip-rule="evenodd" d="M522.3 260.8a40.5 40.5 0 01-39.4 41.2 40.6 40.6 0 01-39.9-40.7 40.6 40.6 0 0140.3-41.3c21.5.4 39 18.7 39 40.8m177.4 84.6c-33 26.5-70 31.8-108.3 14-38.7-18.1-59.6-50.2-62-94.2-1.4-27.3-14-45.3-36.2-50.5a45.8 45.8 0 00-53 27.7 48.4 48.4 0 0018 59 45.2 45.2 0 0059.5-9.1c2.3-2.5 4.2-5.3 6-9.1.1-.4 3.8 13.2 3.8 13.2s-3.4 4.1-6.5 7a55 55 0 01-68.8 6 58.3 58.3 0 01-22.2-68 56.5 56.5 0 0158.5-37.9c26 3 46 23.4 49.8 50.2 1.7 13 2.1 26.4 6 38.7a94.5 94.5 0 00107.2 65.3c47-8.8 80-51.8 78.2-101.6a97 97 0 00-84.6-92.5c-28.5-3.3-53 5.8-75.3 24.9l-6.3-7.1c15.8-15 34-24 54.6-27.2 48.1-7.5 93.4 18.5 113 64.5a109 109 0 01-31.4 126.7m-105-84.6a40.4 40.4 0 0139.8-40.8 40.7 40.7 0 0139.5 41.2 40.7 40.7 0 01-39.9 40.8 40.5 40.5 0 01-39.4-41.2m73-54.4a61.4 61.4 0 00-73.8 5.4l-6.7 6c-1.5-2.7-3.4-7.5-4.3-9.3A71 71 0 01677 201a75.6 75.6 0 0125 86.5 72.7 72.7 0 01-76.4 47.4 73.3 73.3 0 01-62.6-61.3c-1.9-11.8-1.7-24.2-4.9-35.6a78 78 0 00-87.5-57.5c-36.5 5-66.1 39.3-67.1 77.7-1 40.1 26 75.3 64.2 82.6 23.5 4.4 45-.9 64-16.1l6-4.7.7.3 4.2 6.9c-19.2 22.3-57.8 31-88.4 20.3a92 92 0 01-58.6-105 89.3 89.3 0 0198.4-72.1c42.8 4.6 76.7 43.8 77.4 89.5.5 33.9 23.5 61.3 54.4 65 32.3 3.9 61-16 69.1-48 6.9-27-4.2-55.7-27.3-70.6M470.5 324.2c18.7 3.9 36-.4 51.1-12.7 2.7-2.2 5.2-4.6 8.5-7.6l4.1 8.6c-22.9 28.3-69.3 30.7-98.3 5.2a76 76 0 01-17.8-90.4 71.9 71.9 0 0180.7-38.9 74.4 74.4 0 0156.5 71.8c.9 41.3 27 74.4 65.1 80.8a74.4 74.4 0 0077.4-31.9 78.3 78.3 0 005.8-86.7 75.3 75.3 0 00-72.3-42.5 77.3 77.3 0 00-52 22.6l-5.4-8a83.5 83.5 0 0147.3-23.8c53.1-8 101 33.7 102 88.8 1 46-34.4 87.7-78.3 92.2a89.3 89.3 0 01-97.8-73.8c-1-5.6-1.4-11.4-1.5-17.1-.9-34-26-62-57.3-64a63 63 0 00-67.4 53.4c-4.8 36 15.7 66.9 49.6 74m-56.7 18.2c-32.2-29.8-43.8-67.4-32.1-110.3 11.6-42.8 40.4-69 82.9-77.5 61.3-12.4 120.8 36.8 122.9 101.2.6 19.1 6.1 35 22.2 45.6a45.5 45.5 0 0063.5-14.3 48.8 48.8 0 00-11.6-64.6 45.4 45.4 0 00-63.7 9c-2 2.5-3 5-4.7 7.2l-3.8-14.2c1.9-1.9 3.6-3 6.8-6a55 55 0 0168.9-5.6 58.4 58.4 0 0121.6 68.8 56.6 56.6 0 01-58.4 36.8 56.8 56.8 0 01-49.5-50.5c-1.1-9.2-1.1-18.6-3-27.7-9.4-47.3-54.5-82.1-99.5-77.2a97 97 0 00-89 97.5 97 97 0 0084.3 97.8c27.7 3.2 49.9-4 75.5-24.6 1.3 1.2 2 2.3 3 3.3l3 3.5c-35.6 37.2-100 38.3-139.3 1.8m309-151.6a107.6 107.6 0 00-66.5-42.4c-37-7.5-69.5 3-97.7 27.6-52.8-46.2-120.8-35.3-159 8a117.6 117.6 0 00.5 154.5 110.3 110.3 0 00158.2 7.7 111 111 0 00158.3-7.2 117.8 117.8 0 006.1-148.2" fill="#F6F6F6"/></svg>
