<svg width="820" height="500" viewBox="0 0 820 500" fill="none" xmlns="http://www.w3.org/2000/svg">
<rect width="820" height="500" fill="#2C2C2C"/>
<path fill-rule="evenodd" clip-rule="evenodd" d="M373.285 249.798C373.254 272.514 355.691 290.92 333.929 291.047C312.227 291.168 294.118 272.656 294.034 250.261C293.949 227.456 312.292 208.663 334.28 209.025C355.77 209.375 373.316 227.716 373.285 249.798ZM550.722 334.392C517.652 360.94 480.642 366.189 442.426 348.352C403.73 330.286 382.806 298.162 380.44 254.221C378.97 226.916 366.491 208.908 344.186 203.666C322.088 198.47 299.721 210.142 291.107 231.37C282.241 253.218 289.815 277.982 309.181 290.448C328.573 302.932 353.571 299.102 368.684 281.297C371.041 278.814 372.916 275.976 374.791 272.192C374.803 271.819 378.542 285.436 378.542 285.436C378.542 285.436 375.092 289.502 371.999 292.352C352.636 310.193 324.743 312.845 303.197 298.305C281.212 283.467 272.257 256.034 281.042 230.427C289.465 205.865 314.393 189.704 339.481 192.537C365.409 195.466 385.594 215.881 389.258 242.695C391.028 255.66 391.442 269.125 395.275 281.443C409.656 327.674 456.019 355.347 502.506 346.658C549.472 337.877 582.548 294.89 580.679 245.058C578.904 197.702 542.472 158.004 496.091 152.614C467.627 149.308 443.074 158.366 420.761 177.457C418.506 174.919 416.744 172.932 414.494 170.403C430.261 155.381 448.434 146.411 469.11 143.189C517.207 135.701 562.456 161.696 582.112 207.677C600.831 251.466 588.273 304.249 550.722 334.392ZM445.748 249.839C445.953 227.193 463.961 208.707 485.518 209.011C507.385 209.318 525.097 227.798 525.019 250.221C524.942 272.577 506.899 291.049 485.141 291.046C463.472 291.044 445.543 272.289 445.748 249.839ZM518.651 195.37C495.654 180.497 465.418 182.734 444.877 200.838C442.69 202.765 440.534 204.74 438.193 206.846C436.671 204.08 434.795 199.35 433.858 197.458C436.671 194.62 437.368 193.932 440.327 191.549C465.878 170.967 501.793 170.13 528.102 190.034C554.5 210.004 564.677 245.381 553.012 276.628C541.163 308.378 510.085 327.685 476.713 324.032C445.594 320.622 419.082 294.834 414.054 262.728C412.199 250.879 412.367 238.517 409.23 227.076C398.415 187.578 361.994 164.134 321.733 169.617C285.224 174.588 255.553 208.905 254.587 247.279C253.573 287.447 280.548 322.553 318.835 329.853C342.279 334.322 363.847 328.996 382.843 313.796C384.525 312.452 387.183 310.443 388.853 309.088L389.536 309.36C390.994 311.782 392.377 314.074 393.701 316.273C374.537 338.616 335.94 347.375 305.343 336.556C262.784 321.508 237.135 275.58 246.692 231.521C256.951 184.241 297.864 154.273 345.09 159.452C387.907 164.143 421.779 203.338 422.505 249.035C423.042 282.865 446.019 310.294 476.918 313.992C509.171 317.851 537.895 297.922 546.012 266.061C552.888 239.063 541.761 210.319 518.651 195.37ZM321.492 313.171C340.224 317.088 357.492 312.792 372.637 300.511C375.336 298.324 377.825 295.864 381.079 292.923C382.603 296.06 383.941 298.821 385.219 301.458C362.326 329.829 315.912 332.189 286.852 306.71C261.284 284.296 254.005 247.175 269.114 216.285C283.934 185.985 317.032 170.054 349.792 177.444C382.065 184.726 405.523 214.504 406.285 249.157C407.194 290.542 433.211 323.647 471.424 330.001C502.967 335.249 529.763 324.884 548.792 298.12C568.155 270.891 570.291 241.034 554.626 211.39C539.32 182.418 514.507 168.34 482.288 168.924C462.504 169.283 445.606 177.319 430.217 191.452C428.276 188.505 426.822 186.297 424.932 183.429C438.367 170.171 454.225 162.428 472.217 159.708C525.331 151.679 573.107 193.409 574.28 248.5C575.262 294.532 539.84 336.211 495.935 340.685C448.509 345.517 406.305 313.767 398.122 266.942C397.136 261.308 396.702 255.519 396.56 249.79C395.725 215.877 370.64 187.775 339.289 185.836C305.521 183.745 276.224 206.966 271.912 239.238C267.121 275.109 287.633 306.088 321.492 313.171ZM264.773 331.42C232.599 301.571 221.023 264.001 232.682 221.107C244.324 178.264 273.126 152.137 315.571 143.582C376.927 131.22 436.385 180.353 438.492 244.822C439.121 263.951 444.601 279.892 460.723 290.434C482.072 304.393 510.043 297.903 524.183 276.128C537.644 255.396 532.479 226.487 512.643 211.524C492.524 196.35 464.486 200.305 448.893 220.531C446.985 222.999 445.838 225.451 444.172 227.729L440.422 213.539C442.297 211.647 444.05 210.43 447.243 207.514C466.658 189.782 494.712 187.255 516.09 201.92C538.272 217.135 546.988 244.906 537.678 270.695C529.022 294.66 503.866 310.506 479.266 307.481C453.172 304.27 433.107 283.877 429.828 257.033C428.7 247.801 428.695 238.358 426.877 229.285C417.399 181.962 372.26 147.16 327.31 152.075C275.296 157.771 238.481 198.123 238.301 249.644C238.131 299.643 274.46 341.768 322.589 347.373C350.279 350.598 372.464 343.471 398.067 322.797C399.356 323.993 400.188 325.122 401.043 326.115C402.083 327.322 403.177 328.361 404.1 329.62C368.499 366.768 304.078 367.883 264.773 331.42ZM573.742 179.821C556.847 157.249 534.524 142.852 507.319 137.363C470.373 129.912 437.806 140.336 409.571 165.032C356.797 118.808 288.846 129.667 250.684 173.083C212.187 216.875 212.545 284.668 251.127 327.542C290.028 370.767 357.353 380.719 409.31 335.211C463.77 382.495 531.055 368.348 567.643 327.967C604.123 287.703 607.12 224.411 573.742 179.821Z" fill="#F6F6F6"/>
</svg>
