<svg width="256" height="164" fill="none" xmlns="http://www.w3.org/2000/svg"><path fill="#000" stroke="#000" d="M.5.5h255v163H.5z"/><path fill-rule="evenodd" clip-rule="evenodd" d="M117.3 81.4c0 7-5.4 12.7-12 12.8-6.6 0-12.2-5.7-12.2-12.6 0-7 5.6-12.9 12.3-12.7 6.6 0 12 5.7 12 12.5zm54.2 26.2a29.5 29.5 0 01-33 4.3 32 32 0 01-19-29c-.5-8.5-4.3-14-11-15.7a14 14 0 00-16.3 8.6A15 15 0 0097.7 94c6 3.8 13.6 2.7 18.2-2.8a11 11 0 001.9-2.8l1.1 4s-1 1.3-2 2.2c-5.9 5.5-14.4 6.3-21 1.8a18 18 0 01-6.8-21A17.2 17.2 0 01107 63.9c7.9.9 14 7.2 15.2 15.4.5 4 .7 8.2 1.8 12a28.8 28.8 0 0032.8 20.1A30.2 30.2 0 00180.7 80a29.8 29.8 0 00-25.9-28.6c-8.7-1-16.2 1.8-23 7.7l-2-2.2a30.3 30.3 0 0116.8-8.4 31.9 31.9 0 0134.5 20 33.9 33.9 0 01-9.6 39zm-32-26.1c0-7 5.5-12.7 12-12.7 6.8.1 12.2 5.8 12.2 12.8 0 6.9-5.6 12.6-12.2 12.6s-12.1-5.8-12-12.7zm22.2-16.9c-7-4.6-16.3-3.9-22.5 1.7l-2 1.9-1.4-3c.9-.8 1-1 2-1.7a21.5 21.5 0 0126.8-.5c8 6.2 11.2 17 7.6 26.7a22.2 22.2 0 01-23.3 14.7c-9.5-1-17.6-9-19.1-19-.6-3.6-.6-7.4-1.5-11a23.8 23.8 0 00-26.7-17.7 25 25 0 00-20.6 24 25 25 0 0019.7 25.5 23 23 0 0019.5-5l1.9-1.5.2.1 1.2 2.2c-5.8 6.9-17.6 9.6-27 6.2a28.5 28.5 0 01-17.9-32.4 27.3 27.3 0 0130-22.3c13.2 1.5 23.5 13.6 23.7 27.7.2 10.4 7.2 19 16.7 20 9.8 1.3 18.6-4.9 21-14.7a20.3 20.3 0 00-8.3-21.9zM101.5 101c5.7 1.2 11-.1 15.6-3.9l2.6-2.3 1.3 2.6c-7 8.7-21.2 9.5-30.1 1.6-7.8-7-10-18.4-5.4-28A21.9 21.9 0 01110 59.2a23 23 0 0117.3 22.1c.3 12.8 8.2 23 19.9 25a22.6 22.6 0 0023.6-9.8c6-8.4 6.6-17.7 1.8-26.8a23 23 0 00-22.1-13.1c-6 0-11.2 2.6-16 7l-1.5-2.5c4-4.1 9-6.5 14.4-7.4A27.6 27.6 0 01178.7 81c.3 14.3-10.5 27.1-24 28.5A27.3 27.3 0 01125 86.7c-.3-1.7-.4-3.5-.5-5.3-.2-10.4-7.9-19.1-17.5-19.7a19.3 19.3 0 00-20.6 16.5c-1.4 11 4.8 20.6 15.2 22.8zm-17.3 5.6a32.6 32.6 0 01-9.8-34 31.2 31.2 0 0125.3-24c18.7-3.8 36.9 11.4 37.5 31.3.2 6 1.9 10.8 6.8 14 6.5 4.4 15 2.4 19.4-4.3a15.2 15.2 0 00-3.5-20 13.8 13.8 0 00-19.5 2.8l-1.4 2.2-1.2-4.4 2.1-1.8c6-5.5 14.5-6.3 21-1.7a18.1 18.1 0 016.6 21.2 17.3 17.3 0 01-17.8 11.3c-8-1-14.1-7.2-15.1-15.5-.4-2.9-.4-5.8-1-8.6-2.8-14.6-16.6-25.3-30.3-23.8a29.8 29.8 0 00-27.2 30c0 15.5 11 28.5 25.7 30.3 8.5 1 15.3-1.2 23-7.6.5.3.7.7 1 1l1 1a30.8 30.8 0 01-42.6.6zm94.3-46.8c-5.1-7-12-11.4-20.3-13a33.2 33.2 0 00-29.8 8.5 33.4 33.4 0 00-48.5 2.5 36.6 36.6 0 000 47.6 33.4 33.4 0 0048.4 2.4 33.7 33.7 0 0048.4-2.2c11.1-12.5 12-32 1.8-45.8z" fill="#F6F6F6"/></svg>
