<svg version="1.1" id="Layer_1" xmlns="http://www.w3.org/2000/svg" x="0" y="0" viewBox="0 0 528 391" xml:space="preserve"><style>.st0{fill:#111}</style><path d="M430.9 105.5c-2.8.2-6.4 3.5-7.3 6.1 0-1.5-.4-4.7 1.3-7.1-1.7-.2-1.7-2.1-3.4-3 1.3-.5 3.6.4 3.8.7 2.2 2.1 4.3 3.2 7.4 1.6-.3.9-1 1.2-1.8 1.7zm-2.3-7.3c1.1-1.7 1.5-3 .4-4.5a6.6 6.6 0 00-3.2 4.3c0-1 0-1.4-.7-1.5-1 1.9-.8 4.1.9 5.4-.8-1.6-.6-3 1.3-4.4-1.7 2.1-1.3 5.2.8 6.1-2.5-3.5 3.5-3.8 3.9-6.6-2 .3-2.8.7-3.4 1.2zm-8 10c-.6.7-.4 1.3.2 1.9.2-.7.5-1 1.1-1.6-.6 0-1-.2-1.3-.3zm1.7-4c-1.5.6-2.3 1-2.5 1.5.6-1.6.6-2.6-.7-3.8a7 7 0 00-1.7 4.3c-.2-.8-.4-1-1.1-1.2-.4 1.8.2 2.5 1.7 3.5-.4-.9-.4-1.6.2-3-.4 2 0 3.9 2.2 4.8-2.6-2.3 2.3-3.9 1.9-6.2zm6.5 33.6c.4-.2.8-.4 1-.9-.8-.3-1.6-1-2.3-1.7.2.8.8 1.7 1.3 2.6zm-.7-3.5c-1.2-.2-2-.9-2.7-2 .2 1.1.6 1.8 1 2.3-.8.4-1.7.2-2.4-.3.9 1.7 2.4 2.4 4.2 3.5-.7-.9-.9-1.8-1-2.6.3-.2.7-.6.9-1zm24.8 1c-.6.7-1.3 1.3-2 1.8.1.5.5.7.9.9.5-1 1-2 1-2.7zm.6-.1c-.2.8-.6 1.5-1.4 2.6 2-1 3.4-1.8 4.5-3.3-.7.5-1.7.7-2.6.3.6-.7.8-1.4 1-2.3-.6 1.1-1.6 1.8-2.7 2 .4.1.8.5 1.1.7zm-10.5 2.4v.4h.2c.2 0 .2 0 .2-.2-.2-.2-.2-.4-.4-.2zm8.2-5c-2.8 2.4-6.5 4-10.8 4-4.3 0-8-1.6-10.8-4-.2.8-.8 2-1.5 2.4 3.1 2.8 7.4 4.5 12.5 4.5 4.8 0 9.3-1.5 12.5-4.5-1-.4-1.9-1.6-1.9-2.4zm-18.1 5l-.4-.2.2-.7-.5.6-.4-.2.2-1.4.4.2-.2.7.7-.6.4.2-.2.7.6-.5.3.2-1.1 1zm2.8-.3l-.6-.2v.2l.6.1v.4l-.6-.2v.2l.6.1v.4l-1-.4.4-1.2 1 .4-.4.2zm3 .7c.2.1.4.1.4.5 0 .2-.2.3-.6.3l-.4-.1v-.4l.4.2h.2s0-.2-.2-.2c-.2-.2-.4-.2-.2-.3 0-.2.2-.4.6-.4.2 0 .3 0 .3.2v.3c-.3-.3-.3-.3-.5-.1-.2-.2 0-.2 0 0 0 0-.2 0 0 0zm1.5.8v-1.4h1v.4h-.6v.1h.5v.4h-.6v.2h.6v.3h-1zm3.2-.3l-.2-.4-.4-.1v.5h-.6l-.2-1.4h.6c.4 0 .6 0 .8.3l-.2.4.2.2v.5zm2.2-.4l-.4.2-.9-1 .6-.2.5.7v-.9l.4-.2-.2 1.4zm1.5-.5l-.6-1.2 1-.4.2.2-.6.2.2.2.5-.2.2.2-.5.1.2.2.5-.2.2.2-1.3.7zm-18-12.4c-.3 2.1-2 3-4 3.5 2.6-1.2 4.2-3.6 3.3-6.2.6 4.1-5 1.9-6.7 4.1 1.9.6 2.8.7 3.5.6-1.8 1-2.7 1.9-2.6 3.8 2-.2 3.8-1 5-2.6-.5 1-.5 1.2 0 1.7 1.6-1 2.3-2.6 1.6-4.9zm-3-5.7c1.2.5 1.8.5 2.9.2-.8-1.6-1.5-2.1-3-2.5 1.5-.1 2-.8 2-2-2.6.5-6.9-1-4.4-9.1-3.6 4.2-1.5 10.8 1 14.4-2.7-3-3.8-7-3.5-10.4-.9 2-1 4.2-.7 5.7.3 2.1.2 3.7-1.1 5 .9 0 1.8-.3 2.8-1-.6 1.3-.6 2.8.1 3.9 1-.4 1.5-1 1.7-2 .4.2 2.8 1.6 2.5 3 1.4-.7 1.4-1.9 1-3a5 5 0 00-1.2-2.2zm26.6 10.8c.6-.5.4-.9-.2-1.8a8 8 0 005 2.7c.2-2-.7-2.8-2.6-3.9.8.2 1.5 0 3.6-.5-1.7-2.3-7.3 0-6.7-4.2-1 2.7.7 5 3.3 6.3-2.2-.5-3.7-1.4-4-3.5-.8 2.1-.3 3.7 1.6 4.9zm-14.4-25.8c-.7.5-1.1 1.7-.4 2.4.8-.5 1-1.5.4-2.4zm-.4-.2c-.7-.5-2-.3-2.6.4 1 .5 2 .3 2.6-.4zm3.2.4c-.5-1-1.9-1-2.6-.4.6.7 1.7.9 2.6.4zm2.6-4.7c0-1-.2-1.6-.7-2.3h-1.7c.8.7 1 1.4 1 2.3h1.4zm0 .8h-1.5c-.1 1.3-.7 2.8-.3 4.7l1.5-.1c-.2-1.8.1-3.4.3-4.6zm16 9.6c2.3-1 2.7-3 2.3-4.7.6 1.2.8 2 .2 3 1.3-1 1.9-1.8 1.7-3.5-.6 0-.8.3-1 1.2 0-1.8-.5-3.3-1.6-4.4-1.3 1.3-1.1 2.3-.8 3.9-.3-.6-.9-.9-2.4-1.6-.4 2.1 4.5 3.7 1.7 6.1zm1 10.3c-1.3-1.2-1.7-2.8-1.1-4.9.4-1.2.6-3-.2-5l-2.2.3c-.4 3.7-3.2 4.6-5.3 4.2 0 1 .8 2 2 2a4 4 0 00-2.9 2.5c1.1.4 1.7.4 2.8-.1-.4.3-1 1-1.7 2-.4 1-.4 2.3 1.1 3-.1-1.4 2.3-2.8 2.5-3 .2 1 .7 1.6 1.7 2 .9-1 .7-2.6.1-3.9 1.5.7 2.5.9 3.2.9zm-5.2-1c2.2-1.6 2.8-3.9 3.2-7.5.5 4.7-.8 6.2-3.2 7.5zm1.7-12h1.5c-.6-1-1.3-1.8-2-2l.5 2zm-22.8-11.4c-.2 0-.4.2-.4.3 0 .2.2.4.4.4h11.6c.2 0 .3-.2.3-.4l-.3-.3h-11.6zm14 .7c.4 2.8 6.5 3.1 4 6.6 2-.9 2.4-4 .7-6 1.8 1.1 1.8 2.7 1.3 4.3 1.7-1.3 1.9-3.7 1-5.4-.8.1-.8.5-.8 1.5a7 7 0 00-3.4-4.5c-1.1 1.7-.7 2.8.4 4.5-.4-.3-1.3-.7-3.2-1zm-4.3 3.7c.8 3.6 5 4 7.7 3.3.5-.7.7-1.4.3-2.3-1.9 1-5 .3-5.4-1.7-.2-1.4 0-2-.6-2.8l-3 .1c1.2.6.8 2.5 1 3.4zm1.1-1.8c.6 2.4 1.3 3.1 3.8 3.8-3 0-3.8-1.2-3.8-3.8zm.8-4h-.2c.2.2.5.3.7.7-.5-.3-.9-.7-1.5-.7H444c.2.2.6.3.8.7-.6-.3-1-.7-1.5-.7h-1.3c.2.2.5.3.7.7-.5-.3-.9-.7-1.5-.7h-1.3c.2.2.6.3.8.7-.6-.3-1-.7-1.5-.7h-1.3c.2.2.5.3.7.7-.5-.3-.9-.7-1.5-.7h-1.3c.2.2.6.3.8.7-.6-.3-1-.7-1.5-.7h-.6c-.3 0-.7.3-.7.7s.3.7.7.7h11.8c.4 0 .7-.3.7-.7 0-.3-.4-.7-.7-.7zm-8.4-4.2v.5c-.2 2.8-4 3-4 .2-.7 4.2 5.5 4.5 5.5.5 0-.3 0-.8-.2-1.2h-1.3zm2.8-.3h3.9l.6-.7h-2.3a9 9 0 013.4-5.3l-5.4 1.8v2l2.4-1.7c-.8.9-1.3 2-1.7 3h-1v-4.2l.6.4-.9-3.7-.8 3.7.6-.4v4.5h-1c-.3-1.2-.9-2-1.6-3l2.4 1.8v-2l-5.4-1.8c1.7 1.4 3 3.3 3.4 5.2h-2.3l.6.7h4v1.8l-.5.3v2l.4-.4v.3h.6v-.3l.3.3v-1.9l-.3-.3v-2.1zm6.1 1c0 2.6-3.9 2.4-4-.3v-.4h-1.4l-.2 1.2c0 4 6.4 3.7 5.6-.5zM446 104c-.6-.4-1-.7-1.3-1.3a9.7 9.7 0 000 3.3c-1.3 0-2.6.4-4.1 1-2.3.8-3.8.8-5 0 1.6-2.9-.8-6.9 1-9.7l-1.5-.1c-1.8 2.6.4 6.2-.7 9l-.6-.3-.9 1c1.5 1.4 4.3 3 7.5 1.6 2.4-1 4.5-1.6 6.7-.5l.6-1.4c-.4-.2-.8-.4-1.3-.4-.4-.8-.4-1.5-.4-2.2zm-12.3-4.4c-2 1.8-4.3 2.5-5.4 2-.6.5-.6 1.5.3 2.2 1.3.7 3 .5 5.4-.7-.1-1-.3-2.3-.3-3.5zm-1.3 7.9l-.6-.6 1.7-1.7c.2.2.2 0 .3.2.2-.6.2-1.3.2-2a13.4 13.4 0 01-6 4h4.4zm-4.5.1a11 11 0 00-3 3.7c.7 0 1.3-.2 2-.4-.9.7-1.3 2-2.2 2.7 1.3.3 2.2.1 3 0l.2-6zm29 4.2v-.7h-.5c.2.2.4.4.4.7zm-1.4-7.1c1.7-.2 1.7-2.1 3.4-3-1.3-.5-3.6.3-3.8.7-1.8 1.7-3.5 2.6-5.6 2.3l-1.3-.2c.6.5 1.1.9 1.7 1 1.1 0 2.2.7 3.4 1.4 1 .4 2.2.6 3.5.6-.4-1-.7-2-1.3-2.8zm4.7 3.5c-5.6.5-10.3-1.3-13-3.9l-.5-.2c0 .6.2 1 .4 1.6l1.7.5-.6 1.2h4.9v5.3c.9.3 1.7.7 2.2 1.2.4-1.2.2-2.4-.7-3.7 1.6.6 3 .7 5-.1.2 0 1.3-.7.6-2zm-25.2 4c0-1-1-2-1.9-2-1.1 0-2 1-2 2s.9 1.7 2 1.7c1 .2 1.9-.7 1.9-1.7zm7.4 0v-.6c-.9 1-3 1-3.9 0v.6c0 1 1 1.9 2 1.9a2 2 0 002-2zm-3.9-15.6c-1 1-.7 2.8-.5 4.8l.1 2.2c0 .2.2.4.4.4s.4-.2.4-.4l-.2-2.3c-.2-1.7-.4-3.4.4-4.3.2-.2 0-.4 0-.4h-.6zm-5.4 13.8c-1.1 0-2 .9-2 2s.9 1.7 2 1.7 1.9-.9 1.9-1.8c0-1-1-1.9-1.9-1.9zm14.8 0c-1.2 0-2.1.9-2.1 2s1 1.7 2 1.7 2-.9 2-1.8c0-1-.8-1.9-2-1.9zm4.6 4.5v-7h-4.8l-.2.4c-.6-.1-1-.1-1.3-.3a5.5 5.5 0 00-3.4 0h.2l-2.6.9c-2.4 1-5.2.3-7-1h-5.2v7h.4a6 6 0 01-.4 2v1c.6.4 1 1 1.4 2v-1h.1a4 4 0 011.7.4c.6.2 1 .5 1.9.5 1 0 1.5-.1 1.9-.5.3-.2.7-.3 1.6-.3h.8l.6 1.4-.4.1c-.4.2-1 .4-1.3.2l-.4-.2v1h-.2v.6l-3.7-1.6 1 .7 2.3 2.8-.5.2c-.4.2-.8.4-1.5.4s-1.1-.2-1.5-.4c-.4-.2-.7-.3-1.7-.3h-.2c-.3-1.3-.5-2.5-.5-3.7v-.2l-1.3.3v1.3c0 .1.2.1.2.3 1.3 2 1.8 3.7 1.6 5 2.3 4 6 7.4 10.3 8.8 4.1-1.4 7.8-4.5 10-8.4-.1-1.6.3-3.3 1.8-5.6.2-.1.2-.3.3-.7v-.8c-.3 0-.7 0-1.3-.4v.2c0 1.2-.2 2.4-.5 3.7h-.2c-1 0-1.3.1-1.7.3-.4.2-.8.4-1.5.4a3 3 0 01-1.5-.4l-.5-.2 3.1-3.5-1 .6-2.9 1.2v-.7h-.2v-.9l-.4.2c-.3.2-.7 0-1.3-.2h-.2l.8-1.4 1-.2a4 4 0 011.6.4c.4.2 1 .5 1.9.5 1 0 1.5-.2 1.8-.5.4-.2.8-.4 1.7-.4v.7c.4-.8.8-1.5 1.3-1.9v-.9c-.3-.5-.5-1.2-.5-2l.5.2zm-4.6-5.4c1.4 0 2.8 1.3 2.8 2.7 0 1.4-1.4 2.6-2.8 2.6s-2.8-1.2-2.8-2.6c0-1.4 1.3-2.7 2.8-2.7zm-9.6 1c.4.6 1.1 1.1 2.3 1.1.9 0 1.6-.5 2-1.2.6.5.8 1 .8 1.7 0 1.4-1.3 2.7-2.8 2.7-1.7 0-3-1.3-3-2.7 0-.6.2-1.2.7-1.7zm-5.2-1c1.5 0 2.8 1.3 2.8 2.7 0 1.4-1.3 2.6-2.8 2.6s-2.8-1.2-2.8-2.6c0-1.4 1.1-2.7 2.8-2.7zm3.7 8.8c-.9 0-1.5.1-1.8.5-.4.2-.8.3-1.7.3a4 4 0 01-1.7-.3c-.6-.2-1-.5-1.9-.5h-.2v-2h7l.5 1 .4 1h-.6zm1.1.3l1.2.9 1 1c-.5-.3-1-.3-1.4-.3l-.8-1.6zm-1.3 3.1v-.5c.4 0 1 0 1.4-.2.5-.1 1.3-.3 2 0v4.2c-.7-.3-1.5-.2-2.2 0-.4.2-.8.2-1.2.2v-3.7zm-2.2.2c.6.4 1.3.5 1.7.7v1l-1.7-1.7zm1.5 3v1l-1.7.7 1.7-1.7zm-5.6-.5c.8 0 1.1.1 1.5.3.4.2 1 .4 1.7.4.9 0 1.3-.2 1.7-.4h.1l-3.1 3.5 3.7-1.6v.6h2.8l-1 2h-.1c-.8 0-1.1.2-1.5.6-.4.1-.6.3-1.3.3-.6 0-1-.2-1.3-.3h-.2a17.4 17.4 0 01-3-5.4zm9.9 3.6l-.2.2-1.7 1.4-.5.5c.2-.2.2-.5.2-.5l1-2.6h.4l.6.3c.4 0 .6-.2.8-.3h.3l1.1 2.6.2.5-.5-.5-1.7-1.6zm1.3 1.8c-.4.1-.6.3-1.1.3s-1-.2-1.1-.3c.3-.4.9-.7 1-1 .3 0 .8.6 1.2 1zm-1.3 4.3a14 14 0 01-6-3.6h.4c.7 0 1.1-.2 1.5-.6.4-.1.5-.3 1.1-.3l-.4 1.4-.5 1.2 2.4-2h.2c.4 0 .8.4 1.5.4s1.1-.1 1.5-.5l2.4 2.1-1.1-2.4c.6 0 .7.1 1.1.3.4.2.8.5 1.5.5h.4a15.7 15.7 0 01-6 3.5zm4.3-11.5l1.7-.7-1.7 2h-.2v-1.3h.2zm0 2.1l1.7 2.1c-.8-.3-1.3-.7-1.7-.9v-1.2zm0 2.3v-.6l4 1.8-3.4-3.7.3.2c.4.2 1 .3 1.7.3 1 0 1.3-.1 1.7-.3.4-.2.7-.3 1.5-.3-.8 1.9-1.9 3.8-3.2 5.2h-.2c-.4.2-.5.3-1.3.3-.6 0-1-.1-1.3-.3-.4-.2-.8-.5-1.5-.5h-.2l-1-2.1h2.9zm-.6-.5h-3.3v.1c0 .2-.2.2-.2.2-.2 0-.2 0-.2-.2v-.1h-3.4v-.6c.6.2 1 0 1.5-.1.8-.2 1.3-.6 2 0h.4c.8-.6 1.5-.4 2 0 .5.1 1 .3 1.6.1v.6h-.4zm-1.5-5.5c.4.2.8.4 1.3.2v4.2c-.3 0-.7 0-1-.2-.6-.1-1.4-.5-2.3 0v-4.1c1-.6 1.5-.4 2 0zm.2-2.4l-.7 1.8-1.5.1 1.1-.9 1.1-1s.2-.2 0 0zm.4 0h.2-.2zm-1.9.5l-.7.7-.8-.7-3.1-2.6h7.8l-1 .9-2.2 1.7zm10-.8c-1 0-1.6.1-2 .5-.3.2-.7.3-1.6.3a4 4 0 01-1.7-.3c-.4-.2-1-.5-1.9-.5h-.5l.9-2h6.7v2z"/><path class="st0" d="M70.3 309.6v-21h50v-7.8h-50v-21h-6.5v49.8h6.5zM63.8 249.7h56.5v-38.4h-6.6V242H94.5v-27.8h-6.4V242H70.3v-30.7h-6.5v38.4zM92 202.7c17.6 0 29-11.8 29-27 0-12.5-6.8-21-17.4-23.4v7.6c6.6 2.5 11 7.5 11 15.8 0 11.6-9.2 19.3-22.6 19.3-13.4 0-22.5-7.8-22.5-19.3 0-8.3 4.3-13.3 10.9-15.8v-7.7C69.9 154.8 63 163.2 63 175.8c0 15.2 11.5 27 29 27zM63.8 99.8H88V134H63.8v7.8h56.5v-7.8H94.5v-34h25.8V92H63.8v7.8zM129.3 205.9v7.7h56.4V206h-56.4zM171 196.5c10-2.3 15.5-11.2 15.5-23.2s-6.1-20.8-16.3-20.8c-8 0-12.9 5.4-15.2 15l-2.5 10.3c-1.5 6.3-3.8 9.7-8.6 9.7-5.8 0-9.3-5.3-9.3-12.5 0-8 3.7-12.5 8.7-14.3v-7.8c-8.9 2.3-14.8 9.6-14.8 22 0 11.5 6.4 20 16 20 8.5 0 12.4-6.2 14.5-14.5l2.6-10.8c1.7-7 4.5-9.6 9-9.6 6.2 0 9.8 5.5 9.8 13.3 0 7.4-3.1 13-9.4 15.3v7.9zM129.3 99.8h24.1v34h-24.1v7.8h56.4V134H160v-34h25.7V92h-56.4v7.7zM182 264.6l4.2-4.3-29-29.6-29 29.7 4.2 4.2 21.8-22.3v67.4h6v-67.4l21.8 22.3z"/></svg>
