<svg width="528" height="391" viewBox="0 0 528 391" fill="none" xmlns="http://www.w3.org/2000/svg">
<path d="M368.716 195.945C368.716 209.235 357.475 221.649 338.407 230.821C319.432 239.948 293.124 245.631 263.991 245.631C234.858 245.631 208.55 239.948 189.575 230.821C170.508 221.649 159.267 209.235 159.267 195.945C159.267 182.655 170.508 170.24 189.575 161.069C208.55 151.942 234.858 146.259 263.991 146.259C293.124 146.259 319.432 151.942 338.407 161.069C357.475 170.24 368.716 182.655 368.716 195.945ZM263.991 247.467C293.341 247.467 319.936 241.746 339.213 232.474C358.454 223.219 370.564 210.336 370.564 195.945C370.564 181.554 358.454 168.671 339.213 159.416C319.936 150.144 293.341 144.422 263.991 144.422C234.642 144.422 208.046 150.144 188.769 159.416C169.528 168.671 157.418 181.554 157.418 195.945C157.418 210.336 169.528 223.219 188.769 232.474C208.046 241.746 234.642 247.467 263.991 247.467Z" fill="black" stroke="black"/>
<path d="M156 114.644L188.01 114.644V108.788L162.451 108.788L162.451 64L156 64L156 114.644Z" fill="black"/>
<path d="M197.147 64L197.147 114.644L229.075 114.644L229.075 108.788L203.517 108.788L203.517 91.549L226.707 91.549V85.7752L203.517 85.7752L203.517 69.7737L229.075 69.7737V64L197.147 64Z" fill="black"/>
<path d="M254.524 64L234.926 114.644H241.459L247.175 99.3847L267.834 99.3847L273.631 114.644L280.164 114.644L260.566 64L254.524 64ZM257.463 72.0832L265.629 93.6935L249.298 93.6935L257.463 72.0832Z" fill="black"/>
<path d="M303.167 93.1986L317.539 114.644H324.888L310.108 92.9511C317.947 91.8789 322.846 87.0949 322.846 78.6818C322.846 69.1139 316.477 64 306.433 64L287.816 64L287.816 114.644H294.266L294.266 93.1986L303.167 93.1986ZM294.266 69.6913L306.27 69.6913C312.884 69.6913 316.477 73.073 316.477 78.6818C316.477 84.2905 312.884 87.6723 306.27 87.6723L294.266 87.6723V69.6913Z" fill="black"/>
<path d="M371.821 64L365.697 64L365.697 102.519L338.995 64L332.87 64L332.87 114.644H339.076L339.076 74.3927L367.085 114.644H371.821L371.821 64Z" fill="black"/>
<path d="M200.35 275.445L200.35 297.168L172.052 297.168L172.052 275.445H165.609L165.609 326.16H172.052L172.052 303.033L200.35 303.033L200.35 326.16H206.793L206.793 275.445H200.35Z" fill="black"/>
<path d="M261.054 300.803C261.054 285.439 251.594 274.702 238.383 274.702C225.253 274.702 215.793 285.439 215.793 300.803C215.793 316.083 225.253 326.904 238.383 326.904C251.594 326.904 261.054 316.083 261.054 300.803ZM254.611 300.803C254.611 312.697 248.087 321.039 238.383 321.039C228.76 321.039 222.236 312.697 222.236 300.803C222.236 288.909 228.76 280.566 238.383 280.566C248.087 280.566 254.611 288.909 254.611 300.803Z" fill="black"/>
<path d="M296.358 326.16L312.016 287.504L312.016 326.16L318.132 326.16L318.132 275.445L311.119 275.445L294.238 317.075L277.275 275.445H270.017L270.017 326.16H276.133L276.133 287.504L291.954 326.16H296.358Z" fill="black"/>
<path d="M330.065 275.445L330.065 326.16L361.952 326.16V320.296L336.426 320.296L336.426 303.033L359.587 303.033L359.587 297.251L336.426 297.251V281.227L361.952 281.227V275.445L330.065 275.445Z" fill="black"/>
<path d="M212.264 210.137L212.264 197.629L226.006 197.629V194.349L212.264 194.349L212.264 184.652L226.895 184.652V181.373L208.359 181.373L208.359 210.137H212.264Z" fill="black"/>
<path d="M241.643 197.957L250.342 210.137L254.791 210.137L245.844 197.816C250.589 197.207 253.555 194.49 253.555 189.712C253.555 184.277 249.7 181.373 243.62 181.373L232.35 181.373L232.35 210.137H236.255L236.255 197.957H241.643ZM236.255 184.605H243.521C247.525 184.605 249.7 186.526 249.7 189.712C249.7 192.897 247.525 194.818 243.521 194.818H236.255L236.255 184.605Z" fill="black"/>
<path d="M285.18 195.755C285.18 187.041 279.446 180.951 271.439 180.951C263.481 180.951 257.747 187.041 257.747 195.755C257.747 204.421 263.481 210.558 271.439 210.558C279.446 210.558 285.18 204.421 285.18 195.755ZM281.275 195.755C281.275 202.501 277.321 207.232 271.439 207.232C265.606 207.232 261.652 202.501 261.652 195.755C261.652 189.009 265.606 184.277 271.439 184.277C277.321 184.277 281.275 189.009 281.275 195.755Z" fill="black"/>
<path d="M306.578 210.137L316.069 188.212L316.069 210.137L319.776 210.137L319.776 181.373L315.525 181.373L305.293 204.984L295.012 181.373H290.613L290.613 210.137H294.32L294.32 188.212L303.909 210.137H306.578Z" fill="black"/>
</svg>
