<svg width="256" height="164" fill="none" xmlns="http://www.w3.org/2000/svg"><path fill="#4CFF8B" d="M0 0h256v164H0z"/><path d="M222 27.8c-1.6 0-3.5 1.9-4 3.3 0-.9-.2-2.6.7-3.9-.9-.1-.9-1.1-1.8-1.6.7-.3 2 .2 2 .4 1.2 1.1 2.3 1.7 4 .8-.1.5-.4.7-1 1zm-1.3-4c.7-1 .9-1.6.2-2.5-.8.5-1.5 1.4-1.7 2.4 0-.6 0-.8-.4-.9-.5 1-.4 2.3.5 3-.4-.9-.3-1.6.7-2.4-.9 1.1-.7 2.9.4 3.3-1.3-1.9 2-2 2.2-3.6-1.1.2-1.6.4-1.9.7zm-4.3 5.4c-.3.4-.2.7 0 1 .2-.4.4-.5.7-.8l-.7-.2zm.9-2.2c-.8.4-1.2.6-1.3.9.3-.9.3-1.5-.4-2.1-.5.5-1 1.5-1 2.3 0-.4-.1-.5-.5-.6-.2 1 0 1.3.9 1.9-.2-.5-.2-.9 0-1.6-.1 1 0 2 1.3 2.5-1.4-1.2 1.2-2 1-3.3zm3.5 18.3c.2-.1.4-.2.6-.5-.5-.2-.9-.6-1.3-1 .1.5.4 1 .7 1.5zm-.4-2a2 2 0 01-1.4-1c.1.6.3 1 .5 1.3-.4.1-.9 0-1.3-.2.5 1 1.3 1.3 2.3 1.9-.4-.5-.5-1-.6-1.5.2 0 .4-.2.5-.4zm13.5.6l-1.1 1c0 .3.3.4.5.4.3-.5.6-1 .6-1.4zm.3 0c0 .4-.3.8-.7 1.4 1-.6 1.8-1 2.4-1.8-.4.2-.9.3-1.4.1.3-.3.4-.7.5-1.2a2 2 0 01-1.4 1l.6.4zm-5.7 1.3v.1h.2c0-.1 0-.2-.2-.1zm4.5-2.8a8.9 8.9 0 01-5.9 2.2c-2.3 0-4.3-.9-5.8-2.2-.2.5-.5 1.2-.9 1.3 1.8 1.6 4 2.5 6.8 2.5 2.7 0 5-.9 6.8-2.5-.5-.1-1-.8-1-1.3zm-9.8 2.8l-.2-.1v-.4l-.2.3-.2-.1V44l.3.1-.1.4.4-.3.2.1-.1.4.3-.3h.2l-.6.7zm1.5-.2l-.3-.1.3.2v.2l-.3-.1.3.1v.2l-.5-.2.2-.6.5.2h-.2zm1.6.3c.1.1.2.1.2.3 0 .1 0 .2-.3.2h-.2v-.3l.2.1h.1c-.2-.2-.3-.2-.2-.3l.3-.1h.2v.2h-.3c0-.1 0-.1 0 0zm.8.5v-.7h.5v.2h-.3.3v.2h-.3v.1h.3v.2h-.5zm1.7-.2v-.2h-.3v.2h-.3V45h.2c.2 0 .3 0 .4.2v.5zm1.3-.2l-.2.1-.6-.5.4-.1.3.4v-.5l.2-.1-.1.7zm.8-.2l-.3-.7.5-.2v.1l-.2.1h.4l-.2.2h.4l-.6.5zm-9.8-6.8c-.2 1.2-1 1.7-2.2 2 1.4-.7 2.3-2 1.8-3.5.3 2.3-2.7 1-3.6 2.3 1 .3 1.5.4 2 .3-1 .6-1.6 1-1.5 2 1 0 2-.5 2.7-1.4-.3.6-.3.7 0 1 .8-.6 1.3-1.4.8-2.7zm-1.6-3c.6.2 1 .2 1.5 0-.4-.8-.8-1.1-1.6-1.3.8-.1 1.1-.5 1.1-1.1-1.4.2-3.7-.5-2.4-5-2 2.3-.8 6 .6 7.9a7.3 7.3 0 01-2-5.7 5 5 0 00-.3 3.1c.2 1.2 0 2-.6 2.7.5 0 1-.1 1.5-.5-.3.7-.3 1.5.1 2.1.5-.2.8-.6 1-1 .1 0 1.4.8 1.2 1.6.8-.4.8-1 .6-1.6-.2-.7-.5-1-.7-1.3zm14.4 5.8c.3-.3.2-.5 0-1 .6.9 1.7 1.4 2.6 1.5.1-1-.4-1.6-1.4-2.1.4 0 .8 0 2-.3-1-1.2-4 0-3.7-2.3-.5 1.4.4 2.8 1.8 3.4-1.2-.3-2-.7-2.2-1.9-.4 1.2-.1 2 1 2.7zm-7.8-14c-.4.3-.6 1-.2 1.3.4-.3.5-.8.2-1.3zm-.2-.1c-.4-.3-1.1-.2-1.4.2.5.3 1.1.2 1.4-.2zm1.7.2c-.3-.5-1-.5-1.4-.2.3.4 1 .5 1.4.2zm1.4-2.6c0-.4 0-.8-.4-1.2h-.9c.4.4.5.8.5 1.2h.8zm0 .5h-.8c0 .7-.4 1.5-.2 2.6l.8-.1.2-2.5zm8.8 5.2c1.2-.6 1.4-1.6 1.2-2.5.3.6.4 1 0 1.6.8-.6 1-1 1-2-.3 0-.4.3-.5.7 0-1-.3-1.8-1-2.3-.6.6-.5 1.2-.3 2l-1.4-.8c-.2 1.1 2.5 2 1 3.3zm.5 5.6c-.7-.7-1-1.5-.6-2.7.2-.6.3-1.6-.1-2.7l-1.3.2c-.2 2-1.7 2.4-2.8 2.3 0 .5.4 1 1.1 1-.7.3-1.2.6-1.6 1.4.6.2 1 .2 1.5 0l-.9 1c-.2.6-.2 1.3.6 1.7 0-.8 1.2-1.5 1.3-1.6.1.4.4.8 1 1 .4-.6.3-1.4 0-2a4 4 0 001.8.4zm-2.9-.6c1.2-.8 1.5-2 1.7-4 .3 2.5-.4 3.4-1.7 4zm1-6.5h.7c-.3-.5-.7-1-1-1l.2 1zM224 22.8l-.2.1c0 .1 0 .2.2.2h6.3s.2 0 .2-.2l-.2-.1H224zm7.6.3c.2 1.5 3.5 1.7 2.1 3.6 1.1-.4 1.3-2.2.4-3.3 1 .7 1 1.5.7 2.4 1-.7 1-2 .5-3-.4.1-.4.3-.4.9-.2-1-.9-1.9-1.8-2.5-.6 1-.4 1.6.2 2.5-.2-.2-.7-.4-1.7-.6zm-2.4 2c.5 2 2.8 2.2 4.2 1.8.3-.4.4-.7.2-1.2-1 .6-2.7.2-3-1 0-.7 0-1-.2-1.5l-1.7.1c.7.3.4 1.3.5 1.8zm.7-1c.3 1.4.7 1.8 2 2.2-1.6 0-2-.7-2-2.1zm.4-2.1h-.1l.4.4c-.3-.2-.5-.4-.8-.4h-.8l.5.4c-.4-.2-.6-.4-.9-.4h-.7l.4.4c-.3-.2-.5-.4-.8-.4h-.7l.4.4c-.3-.2-.5-.4-.8-.4h-.7l.4.4c-.3-.2-.5-.4-.8-.4h-.7l.4.4c-.3-.2-.5-.4-.8-.4h-.3c-.2 0-.4.2-.4.4s.2.4.4.4h6.4c.2 0 .4-.2.4-.4s-.2-.4-.4-.4zm-4.6-2.3v.3c-.1 1.5-2.1 1.6-2.1.1-.4 2.3 3 2.5 3 .3 0-.2 0-.5-.2-.7h-.7zm1.5-.2h2.2l.3-.3h-1.3c.2-1.2 1-2.1 1.9-2.9l-3 1v1.1l1.3-1c-.4.5-.7 1.1-.9 1.7h-.5v-2.3l.3.2-.5-2-.4 2 .3-.2v2.5h-.5c-.2-.7-.5-1.2-.9-1.7l1.3 1v-1.1l-3-1c1 .8 1.7 1.8 2 2.8h-1.3l.3.4h2.1v1l-.2.2v1l.2-.2v.2h.3v-.2l.2.2v-1l-.2-.2v-1.2zm3.4.6c0 1.4-2.2 1.3-2.3-.2v-.2h-.7v.7c0 2.2 3.4 2 3-.3zm-.4 6.8l-.7-.6c-.2.6-.2 1.2 0 1.7-.8 0-1.5.2-2.3.5-1.2.5-2 .5-2.7.1.9-1.6-.4-3.8.6-5.3h-.8c-1 1.3.2 3.3-.4 4.8l-.3-.1-.5.5c.8.8 2.3 1.6 4 .9 1.3-.6 2.5-.9 3.7-.3l.3-.8-.7-.2c-.2-.4-.2-.8-.2-1.2zm-6.7-2.4c-1 1-2.4 1.4-3 1-.3.4-.3 1 .2 1.3.8.4 1.7.3 3-.4l-.2-1.9zm-.7 4.3l-.3-.3.9-1c0 .2 0 0 .2.2v-1a7.3 7.3 0 01-3.2 2.1h2.4zm-2.5.1a6 6 0 00-1.6 2l1.1-.2c-.5.4-.7 1-1.2 1.4a3 3 0 001.6 0l.1-3.2zm15.7 2.3v-.4h-.2l.2.4zm-.7-4c1 0 1-1 1.8-1.5-.7-.3-1.9.2-2 .4-1 1-1.9 1.4-3 1.2l-.7-.1.9.6c.6 0 1.2.3 1.8.7.6.2 1.2.3 2 .3l-.8-1.5zm2.6 2c-3 .3-5.6-.7-7-2.1h-.3c0 .2 0 .5.2.8l.9.2-.3.7h2.6v2.8c.5.2 1 .4 1.2.7.2-.7.1-1.3-.4-2 1 .3 1.6.4 2.8 0 0 0 .7-.5.3-1.1zm-13.7 2.2c0-.6-.5-1-1-1-.6 0-1.1.4-1.1 1 0 .5.5.9 1 .9.6.1 1-.4 1-1zm4 0V31c-.5.4-1.6.4-2 0v.3c0 .5.4 1 1 1 .5 0 1-.5 1-1zm-2-8.5c-.6.6-.5 1.6-.4 2.6l.1 1.2.2.2c.1 0 .2 0 .2-.2v-1.2c-.2-1-.3-1.9.1-2.4.1 0 0-.2 0-.2h-.3zm-3 7.5c-.6 0-1.1.5-1.1 1 0 .6.5 1 1 1 .7 0 1-.5 1-1s-.4-1-1-1zm8 0c-.6 0-1.1.5-1.1 1 0 .6.5 1 1 1 .7 0 1-.5 1-1s-.3-1-1-1zm2.5 2.5V29h-2.6l-.1.2-.7-.2a3 3 0 00-1.9 0h.1c-.4 0-1 .4-1.4.5a4 4 0 01-3.7-.5h-2.9v3.8h.2c0 .3 0 .7-.2 1v.6c.3.2.5.5.8 1V35l1 .2c.3.1.5.3 1 .3s.8 0 1-.3c.2 0 .4-.2.9-.2h.4l.3.8h-.2c-.2.2-.5.3-.7.2l-.2-.1v.6h-.1v.2l-2-.8.5.4 1.3 1.5h-.3c-.2.2-.4.3-.8.3l-.8-.2c-.2-.1-.4-.2-1-.2-.2-.7-.3-1.3-.3-2l-.8.1v.7l.1.2c.8 1 1 2 1 2.7 1.2 2.2 3.2 4 5.5 4.7 2.3-.7 4.3-2.4 5.5-4.5-.1-.9 0-1.8.9-3l.2-.4v-.5c-.2 0-.4 0-.7-.2v.1c0 .7-.1 1.3-.3 2h-.1c-.5 0-.7 0-1 .2-.1 0-.3.2-.7.2l-.8-.2-.3-.1 1.7-1.9-.6.3-1.6.6V36h-.3c-.2.2-.4 0-.7 0l.3-.8h.5l1 .1c.2.1.5.3 1 .3s.8 0 1-.3c.2 0 .4-.2.9-.2v.4c.2-.5.4-.8.7-1v-.5a2 2 0 01-.3-1.1h.3zm-2.5-3c.8 0 1.5.7 1.5 1.5 0 .7-.7 1.4-1.5 1.4s-1.5-.7-1.5-1.4c0-.8.7-1.5 1.5-1.5zm-5.2.5c.2.4.6.7 1.2.7.5 0 1-.3 1.1-.7.3.3.4.6.4 1 0 .7-.7 1.4-1.5 1.4-.9 0-1.6-.7-1.6-1.4 0-.4.1-.7.4-1zm-2.8-.5c.8 0 1.5.7 1.5 1.5 0 .7-.7 1.4-1.5 1.4s-1.5-.7-1.5-1.4c0-.8.6-1.5 1.5-1.5zm2 4.8c-.5 0-.8 0-1 .2-.2.1-.4.2-1 .2-.3 0-.6 0-.8-.2l-1-.2h-.2v-1h3.8l.3.5.2.5h-.3zm.6.2l.6.4.6.6c-.3-.2-.6-.2-.8-.2l-.4-.8zm-.7 1.7v-.3l.7-.1c.3-.1.7-.2 1.1 0v2.2h-1.2l-.6.1v-2zm-1.2 0l.9.4v.6l-1-1zm.8 1.7v.5l-1 .4 1-1zm-3-.3c.4 0 .6 0 .8.2l.9.2c.5 0 .7-.1.9-.2l-1.6 1.9 2-.9v.3h1.5l-.5 1.1h-.1c-.4 0-.6.1-.8.3-.2.1-.3.2-.7.2l-.7-.2h-.1c-.7-1-1.3-1.9-1.6-3zm5.3 2l-1 .8-.3.3.1-.3.6-1.4h.2l.3.2.4-.2h.2l.6 1.4.1.3-.3-.3-.9-.8zm.7 1h-1.2l.6-.6.6.5zm-.7 2.3c-1.2-.4-2.3-1-3.2-2h.2c.4 0 .6-.1.8-.3l.6-.2-.2.8-.3.6 1.3-1.1h.1c.2 0 .4.3.8.3s.6-.1.8-.3l1.3 1.1-.6-1.3.6.2c.3 0 .5.3.9.3h.2c-1 .8-2 1.5-3.3 1.9zm2.3-6.3l1-.3-1 1V37zm0 1.2l1 1.1-1-.5v-.6zm0 1.2V39l2.2 1-1.8-2h.2c.2.2.5.3.9.3.5 0 .7-.1.9-.2l.8-.2c-.4 1-1 2-1.7 2.8h-.1c-.2.1-.3.2-.7.2-.3 0-.5 0-.8-.2-.2 0-.4-.3-.8-.3l-.6-1.1h1.5zm-.3-.3h-1.8v.2l-.2-.1h-1.8v-.4c.3.1.5 0 .8 0 .4-.2.7-.4 1.1 0h.2c.4-.4.8-.3 1.1 0 .2 0 .5.1.8 0v.3h-.2zm-.8-3c.2.2.4.3.7.2v2.3c-.2 0-.4 0-.6-.2-.3 0-.7-.2-1.2 0v-2.2c.5-.3.8-.2 1.1 0zm.1-1.2l-.4.9h-.8l.6-.4s.3-.4.6-.5c.1-.1 0 0 0 0zm.2 0h.1zm-1 .2l-.4.4-.4-.4-1.7-1.4h4.2l-.5.5-1.2 1zm5.4-.4c-.5 0-.8 0-1 .2-.2.1-.4.2-1 .2-.3 0-.6 0-.8-.2l-1-.2h-.4l.5-1h3.7v1z" fill="#000"/><path d="M18 139v-11.4h27v-4.2H18V112h-3.6v27H18zM14.4 106.5h30.7V85.7h-3.6v16.6H31.1v-15h-3.5v15H18V85.7h-3.5v20.8zM29.8 81c9.5 0 15.7-6.4 15.7-14.6 0-6.8-3.7-11.4-9.5-12.8v4.2c3.6 1.3 6 4 6 8.6 0 6.3-5 10.4-12.2 10.4-7.3 0-12.3-4.2-12.3-10.4 0-4.6 2.4-7.3 6-8.6v-4.2c-5.8 1.4-9.5 6-9.5 12.8C14 74.6 20.2 81 29.8 81zM14.4 25.2h13.2v18.5H14.4v4.2h30.7v-4.2H31V25.2h14V21H14.4v4.2zM50 82.7V87h30.6v-4.2H49.9zM72.6 77.6c5.4-1.2 8.4-6 8.4-12.5s-3.3-11.3-8.9-11.3c-4.3 0-7 3-8.2 8.1l-1.3 5.6c-.9 3.4-2.1 5.2-4.7 5.2-3.2 0-5-2.8-5-6.7 0-4.3 2-6.8 4.7-7.8V54c-4.9 1.2-8.1 5.2-8.1 12 0 6.2 3.5 10.7 8.7 10.7 4.6 0 6.7-3.3 7.8-7.8l1.5-5.9c.9-3.7 2.4-5.2 4.8-5.2 3.4 0 5.4 3 5.4 7.3 0 4-1.7 7-5.1 8.3v4.2zM50 25.2h13v18.5H50v4.2h30.6v-4.2h-14V25.2h14V21H49.9v4.2z" fill="#111"/></svg>
