<svg width="543" height="380" fill="none" xmlns="http://www.w3.org/2000/svg"><path fill="#4CFF8B" d="M0 0h543v380H0z"/><path d="M436 77c-3.4.3-7.8 4.3-8.9 7.6 0-2-.5-5.8 1.6-8.8-2-.3-2-2.6-4.1-3.7 1.6-.6 4.3.4 4.6.9 2.7 2.5 5.3 3.8 9.2 1.9-.5 1-1.2 1.5-2.3 2.1zm-2.7-9c1.4-2.1 1.8-3.6.5-5.6-1.9 1-3.5 3-4 5.4 0-1.3 0-1.7-.9-2-1.1 2.4-.9 5.2 1.2 6.7-1-2-.7-3.6 1.6-5.4-2 2.6-1.6 6.5 1 7.6-3-4.3 4.3-4.8 4.7-8.2-2.5.4-3.4.9-4.1 1.5zm-9.9 12.3c-.7.8-.4 1.7.3 2.3.2-.8.6-1.3 1.3-1.9-.7 0-1.1-.2-1.6-.4zm2-5c-1.7.9-2.7 1.3-2.9 2 .7-2 .7-3.3-1-4.8a8.7 8.7 0 00-2 5.4c-.2-1-.4-1.3-1.4-1.5-.4 2.2.3 3 2.1 4.3-.5-1-.5-2 .2-3.7-.4 2.4 0 4.8 2.8 5.9-3.2-2.8 2.8-4.8 2.3-7.6zm8.1 41.5c.5-.2 1-.4 1.2-1a12 12 0 01-2.8-2.2c.3 1.1 1 2.2 1.6 3.2zm-.9-4.3c-1.4-.2-2.5-1-3.2-2.3.2 1.3.7 2.1 1.1 2.8-.9.4-2 .2-3-.5 1.2 2.2 3 3 5.3 4.3-.9-1-1.1-2.1-1.3-3.2.4-.2.9-.6 1.1-1zm30.6 1.3c-.7.9-1.6 1.5-2.6 2.2.3.6.7.8 1.2 1 .7-1.2 1.4-2.3 1.4-3.2zm.7-.2c-.3 1.1-.7 2-1.6 3.2 2.3-1.2 4-2.1 5.5-4-1 .6-2.1.8-3.3.4.7-.9 1-1.7 1.2-2.8a4.4 4.4 0 01-3.2 2.4l1.4.8zm-13 3v.5h.3c.3 0 .3 0 .3-.3-.3-.2-.3-.4-.5-.2zm10.2-6.2c-3.4 3-8 5-13.3 5a20 20 0 01-13.3-5c-.3 1-1 2.6-1.9 3A23 23 0 00448 119c6 0 11.5-2 15.4-5.6-1.1-.4-2.3-2-2.3-3zm-22.3 6.2l-.4-.2.2-.8-.7.6-.5-.2.3-1.7.4.2-.2.8 1-.6.4.2-.3.9.7-.7.5.2-1.4 1.3zm3.5-.4l-.7-.2v.2l.7.2v.4l-.7-.2v.2l.7.3v.4l-1.2-.4.5-1.5 1.1.4-.4.2zm3.6.9c.3.2.5.2.5.6 0 .2-.2.4-.7.4l-.4-.2v-.4l.4.2h.2s0-.2-.2-.2c-.2-.2-.4-.2-.2-.4 0-.3.2-.5.7-.5.2 0 .4 0 .4.2v.5c-.4-.5-.4-.5-.7-.2 0-.3-.2-.3 0 0-.2 0 0 0 0 0zm1.9 1v-1.7h1.1v.4h-.7v.3h.7v.4h-.7v.2h.7v.4h-1.1zm3.9-.4l-.2-.4-.5-.2v.6h-.7l-.2-1.7h.7c.4 0 .7 0 .9.4l-.2.4.2.3v.6zm2.7-.4l-.4.2-1.2-1.3.7-.2.7.8v-1l.5-.2-.3 1.7zm1.9-.7l-.7-1.5 1.1-.4.3.2-.7.2.2.2.7-.2.2.2-.7.3.3.2.7-.2.2.2-1.6.8zm-22-15.2c-.5 2.5-2.6 3.6-5.1 4.3 3.2-1.5 5.3-4.6 4.1-7.8.7 5.2-6.2 2.4-8.3 5.2 2.3.6 3.5.8 4.4.6-2.3 1.3-3.4 2.4-3.2 4.8a9.2 9.2 0 006.2-3.3c-.7 1.3-.7 1.5 0 2.2 1.8-1.3 2.7-3.2 1.8-6zm-3.8-7.1c1.4.6 2.1.6 3.5.2-1-2-1.8-2.6-3.7-3 1.9-.3 2.5-1.1 2.5-2.6-3.2.6-8.5-1.1-5.5-11.2-4.3 5.2-1.8 13.3 1.4 17.8a16.6 16.6 0 01-4.4-12.9 11.5 11.5 0 00-.9 7.1c.5 2.6.3 4.6-1.4 6 1.2.3 2.3-.2 3.5-1-.7 1.5-.7 3.4.2 4.7a3.2 3.2 0 002-2.3c.5.2 3.5 1.9 3 3.6 2-.8 2-2.4 1.5-3.6a6.3 6.3 0 00-1.7-2.8zm32.7 13.3c.7-.6.4-1-.3-2.2 1.7 2 4.2 3 6.2 3.3.3-2.4-.9-3.5-3.2-4.8 1 .3 1.9 0 4.4-.6-2-2.8-9 0-8.3-5.2-1.1 3.3 1 6.3 4.2 7.8-2.8-.7-4.6-1.7-5.1-4.3-1 2.6-.2 4.5 2 6zm-17.7-31.8c-1 .6-1.4 2.1-.5 3 1-.7 1.2-2 .5-3zm-.5-.3c-.9-.6-2.5-.4-3.2.5 1.2.6 2.5.4 3.2-.5zm4 .5c-.8-1.1-2.4-1.1-3.3-.5.7.9 2 1.1 3.2.5zm3.1-5.8c0-1.1-.2-2-.9-2.8h-2c.9.8 1.1 1.7 1.1 2.8h1.8zm0 1h-1.8c-.2 1.5-1 3.5-.5 5.8.7-.2 1.2-.2 1.9-.2-.2-2.1.2-4 .4-5.6zM472 83.1c2.8-1.3 3.2-3.7 2.8-5.8.6 1.5.9 2.3.2 3.6 1.6-1.3 2.3-2.1 2-4.3-.6 0-.9.4-1 1.5 0-2.1-.8-4-2.2-5.4-1.6 1.5-1.3 2.8-.9 4.8-.4-.7-1.1-1.1-3-2-.4 2.6 5.5 4.6 2.1 7.6zm1.2 12.7c-1.7-1.5-2.1-3.5-1.4-6 .4-1.6.7-3.7-.3-6.3-.6.2-1.8.4-2.7.4-.5 4.5-4 5.6-6.4 5.2 0 1.3.9 2.4 2.5 2.6a5 5 0 00-3.7 3c1.4.4 2 .4 3.4-.2l-2 2.6c-.5 1.2-.5 2.8 1.4 3.6-.3-1.7 2.7-3.4 3-3.6.2 1 .9 1.9 2 2.3 1.2-1.3 1-3.2.2-4.7 1.9.8 3 1 4 1zm-6.5-1.3c2.8-2 3.5-4.8 4-9.3.6 5.8-1 7.8-4 9.3zm2-14.9h2c-.8-1-1.7-2.1-2.6-2.3l.7 2.3zm-28-14c-.2 0-.4.3-.4.5s.2.4.5.4h14.2c.2 0 .5-.2.5-.4s-.3-.5-.5-.5h-14.2zm17.3.9c.4 3.4 8 3.9 4.8 8.2 2.5-1.1 3-5 1-7.6 2.2 1.6 2.2 3.5 1.5 5.4 2.1-1.5 2.3-4.5 1.2-6.6-1 .2-1 .6-1 1.9-.4-2.4-2-4.3-4-5.6-1.4 2.2-1 3.4.4 5.6-.5-.4-1.6-.9-4-1.3zm-5.3 4.5c1 4.5 6.2 5 9.4 4.1.7-.9 1-1.7.5-2.8-2.3 1.3-6.2.4-6.7-2.1-.2-1.8 0-2.4-.7-3.5l-3.6.2c1.3.7.9 3 1.1 4.1zM454 69c.7 3 1.6 3.8 4.6 4.7-3.7 0-4.6-1.5-4.6-4.7zm.9-5h-.2c.2.2.7.5.9.9-.7-.4-1.2-.9-1.8-.9H452l1 .9c-.7-.4-1.2-.9-1.9-.9h-1.6l1 .9c-.8-.4-1.2-.9-1.9-.9h-1.6l1 .9c-.8-.4-1.2-.9-2-.9h-1.5l.9.9c-.7-.4-1.2-.9-1.9-.9H442l1 .9c-.7-.4-1.2-.9-1.9-.9h-.7c-.4 0-.9.5-.9.9s.5.8 1 .8h14.4c.5 0 1-.4 1-.8s-.5-.9-1-.9zm-10.3-5.1v.6c-.3 3.4-4.9 3.7-4.9.2-.9 5.2 6.7 5.6 6.7.7 0-.5 0-1.1-.2-1.5h-1.6zm3.4-.5h4.8l.7-.8h-2.7c.4-2.6 2-4.8 4.1-6.5l-6.7 2.2v2.5l3-2.1c-.9 1-1.6 2.4-2 3.7H448V52l.7.4-1.2-4.5-.9 4.5.7-.4v5.6h-1.1A9.7 9.7 0 00444 54l3 2.2v-2.6l-6.7-2.2c2 1.8 3.7 4.1 4.2 6.5h-2.8l.7.9h4.8v2.1l-.4.4v2.4l.4-.4v.4h.7v-.4l.5.4v-2.4l-.5-.4v-2.6zm7.6 1.3c0 3.2-4.8 3-5-.4v-.4h-1.7l-.2 1.5c0 5 7.8 4.5 6.9-.7zm-1 15.5c-.6-.4-1-.9-1.5-1.5-.3 1.5-.3 2.8 0 4-1.6 0-3.3.5-5 1.2-2.9 1-4.7 1-6.3.2 2-3.7-1-8.6 1.4-12l-1.9-.3c-2.3 3.2.5 7.8-.9 11.2-.2-.2-.4-.4-.7-.4l-1.1 1.3c1.8 1.7 5.3 3.6 9.2 1.9 3-1.3 5.5-2 8.2-.6l.7-1.8c-.4-.2-.9-.4-1.6-.4-.4-1-.4-2-.4-2.8zm-15-5.4c-2.4 2.2-5.4 3-6.8 2.4-.6.6-.6 2 .5 2.8 1.6.9 3.7.6 6.7-.9-.3-1.3-.5-2.8-.5-4.3zm-1.7 9.7l-.7-.6 2-2.2c.3.2.3 0 .5.2.3-.6.3-1.5.3-2.3-2.8 3-5.3 4.3-7.4 5h5.3zm-5.5.2a13.4 13.4 0 00-3.7 4.5c1 0 1.6-.2 2.5-.4-1.1.9-1.6 2.4-2.7 3.2a7 7 0 003.7 0l.2-7.3zm35.6 5.2v-.9h-.5c.3.2.5.5.5.9zm-1.6-8.8c2-.2 2-2.6 4.1-3.7-1.6-.6-4.3.4-4.6.9-2.3 2.1-4.3 3.2-6.9 2.8l-1.6-.2c.7.6 1.4 1 2.1 1.2 1.4 0 2.8 1 4.1 1.8 1.4.4 2.8.6 4.4.6-.5-1-1-2.4-1.6-3.4zm5.7 4.3c-6.9.6-12.6-1.5-15.8-4.8l-.7-.2c0 .7.2 1.3.4 2l2.1.6-.7 1.5h6V86a8 8 0 012.8 1.5c.4-1.5.2-3-1-4.5 2.1.6 3.7.8 6.2-.3.3 0 1.7-.8.7-2.3zm-31 5c0-1.4-1.1-2.4-2.3-2.4-1.4 0-2.5 1-2.5 2.3 0 1.3 1.1 2.2 2.5 2.2 1.2.2 2.3-.9 2.3-2.2zm9.2 0v-.7c-1.1 1-3.7 1-4.8 0v.6c0 1.3 1.1 2.4 2.5 2.4 1.2 0 2.3-1 2.3-2.4zM445.5 66c-1.2 1.3-1 3.4-.7 5.8l.2 2.8c0 .2.3.4.5.4s.4-.2.4-.4l-.2-2.8c-.2-2.2-.4-4.3.5-5.4.2-.2 0-.4 0-.4h-.7zm-6.7 17c-1.4 0-2.5 1-2.5 2.3 0 1.3 1.1 2.2 2.5 2.2s2.3-1 2.3-2.2c0-1.3-1.1-2.3-2.3-2.3zm18.2 0c-1.4 0-2.6 1-2.6 2.3 0 1.3 1.2 2.2 2.6 2.2 1.3 0 2.3-1 2.3-2.2 0-1.3-1-2.3-2.3-2.3zm5.7 5.6V80h-6l-.2.4-1.6-.4a6.8 6.8 0 00-4.1 0h.2c-1 .2-2.3.8-3.2 1a9 9 0 01-8.5-1h-6.5v8.6h.5c0 .8-.2 1.7-.5 2.3v1.3c.7.5 1.2 1.3 1.7 2.4v-1h.2c.9 0 1.6.1 2 .3.7.3 1.2.7 2.3.7 1.2 0 1.9-.2 2.3-.7.5-.2 1-.4 2.1-.4h1l.6 1.7-.4.2c-.5.3-1.2.5-1.6.3l-.5-.3v1.3h-.2v.7l-4.6-2 1.1 1 3 3.4-.7.2c-.4.2-1 .4-1.8.4-1 0-1.4-.2-1.9-.4-.4-.2-.9-.5-2-.5h-.3c-.4-1.5-.6-3-.6-4.5V95c-.7.2-1.2.4-1.7.4v1.5c0 .3.3.3.3.5 1.6 2.3 2.3 4.5 2 6.2 2.8 5 7.4 9 12.7 10.8 5-1.8 9.6-5.6 12.4-10.4-.2-1.9.2-4 2-6.8.3-.3.3-.5.5-1v-1c-.4 0-1 0-1.6-.4v.2c0 1.5-.2 3-.7 4.5h-.2c-1.2 0-1.6.2-2 .5-.5.2-1 .4-2 .4-.8 0-1.3-.2-1.8-.4l-.6-.3 3.9-4.3-1.4.7-3.5 1.5v-.9h-.2v-1l-.5.2c-.4.2-.9 0-1.6-.3h-.2l1-1.7 1-.2c1 0 1.7.2 2.1.4.5.3 1.2.7 2.3.7 1.2 0 1.9-.2 2.3-.7.5-.2 1-.4 2.1-.4v.9c.5-1.1 1-2 1.6-2.4v-1c-.4-.7-.7-1.6-.7-2.7.3 0 .5.3.7.3zM457 82c1.8 0 3.4 1.5 3.4 3.2 0 1.7-1.6 3.2-3.4 3.2-1.9 0-3.5-1.5-3.5-3.2 0-1.7 1.6-3.2 3.5-3.2zm-11.8 1c.5 1 1.4 1.6 2.8 1.6 1.2 0 2-.7 2.5-1.5.7.6 1 1.3 1 2.1 0 1.7-1.7 3.2-3.5 3.2-2 0-3.7-1.5-3.7-3.2 0-.8.3-1.5 1-2.1zm-6.4-1c1.9 0 3.5 1.5 3.5 3.2 0 1.7-1.6 3.2-3.5 3.2-1.8 0-3.4-1.5-3.4-3.2 0-1.7 1.3-3.2 3.4-3.2zm4.6 10.8c-1.1 0-1.8.2-2.3.6-.4.2-1 .4-2 .4s-1.7-.2-2.1-.4c-.7-.2-1.2-.6-2.3-.6h-.2v-2.4h8.5l.6 1.3.5 1h-.7zm1.4.4l1.4 1 1.3 1.3c-.6-.4-1.3-.4-1.8-.4l-1-2zm-1.6 3.9v-.7c.4 0 1.1 0 1.6-.2.7-.2 1.6-.4 2.5 0v5.2c-.9-.5-1.8-.3-2.7 0-.5.2-1 .2-1.4.2V97zm-2.8.2c.7.4 1.6.6 2 .8v1.3l-2-2.1zm1.9 3.6v1.3c-.5.2-1.2.7-2.1.9l2-2.2zm-7-.6c1 0 1.4.2 2 .4.4.2 1 .4 2 .4 1.1 0 1.6-.2 2-.4h.3l-4 4.3 4.7-2v.7h3.4l-1.1 2.6h-.3c-.9 0-1.3.2-1.8.7-.5.2-.7.4-1.6.4-.7 0-1.2-.2-1.6-.4h-.3c-1.6-2.2-3-4.4-3.6-6.7zm12.2 4.5l-.2.2-2 1.7-.7.7c.2-.2.2-.7.2-.7l1.4-3.2h.4l.7.4c.5 0 .7-.2 1-.4h.4l1.4 3.2.2.7c-.5-.2-.7-.7-.7-.7l-2-1.9zm1.7 2.2c-.5.2-.7.4-1.4.4s-1.2-.2-1.4-.4c.5-.5 1.1-1 1.4-1.1.2 0 .9.6 1.4 1zm-1.7 5.3c-2.7-.8-5.2-2.3-7.3-4.5h.5c.9 0 1.3-.2 1.8-.6.5-.2.7-.5 1.4-.5l-.5 1.8-.7 1.5 3-2.6h.2c.5.2 1 .6 1.9.6.9 0 1.4-.2 1.8-.6l3 2.6-1.4-3c.7 0 1 .2 1.4.4.5.2 1 .6 1.8.6h.5c-2 2-4.6 3.5-7.4 4.3zm5.3-14.2l2.1-.8c-.7.8-1.6 2-2 2.3h-.3v-1.5h.2zm0 2.6l2.1 2.6-2-1v-1.6zm0 2.8v-.6l4.9 2.1-4.2-4.5c.3 0 .5.2.5.2.4.2 1.1.4 2 .4 1.2 0 1.7-.2 2.1-.4.5-.2 1-.4 1.9-.4-1 2.3-2.3 4.7-4 6.4h-.2c-.4.3-.7.5-1.6.5-.7 0-1.1-.2-1.6-.5-.5-.2-1-.6-1.8-.6h-.3l-1.1-2.6h3.4zm-.7-.6h-4v.2c0 .2-.3.2-.3.2-.3 0-.3 0-.3-.2v-.2h-4v-.7c.6.2 1 0 1.8-.2.9-.2 1.6-.6 2.5 0h.4c1-.6 1.9-.4 2.6 0 .4.2 1.1.4 1.8.2v.7h-.5zm-1.8-6.7c.5.2 1 .4 1.6.2v5.2c-.4 0-1 0-1.4-.2-.7-.3-1.6-.7-2.7 0v-5.2c1.1-.7 1.8-.4 2.5 0zm.2-3l-.9 2.1c-.4 0-1.1 0-1.8.2l1.4-1c0-.2.6-.9 1.3-1.3.3-.2 0 0 0 0zm.5 0h.2-.2zm-2.3.6l-1 .9-.8-.9-4-3.2h9.7l-1.1 1-2.8 2.2zm12.2-1c-1.2 0-1.9.2-2.3.6-.5.2-1 .4-2 .4s-1.7-.2-2.2-.4c-.4-.2-1.1-.6-2.3-.6h-.6l1.1-2.4h8.3v2.4z" fill="#000"/><path d="M66 331.9v-26.1h61.7v-9.6H66V270h-8v61.8h8zM58 257.5h69.7v-47.7h-8V248H95.9v-34.7H88V248H66v-38.2h-8v47.7zM92.9 199.1c21.7 0 35.9-14.6 35.9-33.5 0-15.6-8.6-26-21.6-29.1v9.5c8.2 3 13.5 9.3 13.5 19.6 0 14.4-11.4 23.9-27.8 23.9-16.6 0-27.8-9.6-27.8-23.9 0-10.3 5.3-16.6 13.4-19.6v-9.5c-13 3-21.5 13.4-21.5 29.1 0 19 14.2 33.5 35.9 33.5zM58 71.4H88v42.3H58v9.6h69.7v-9.6H96V71.4h31.8v-9.6H58v9.6zM138.9 203v9.7h69.7V203h-69.7zM190.4 191.4c12.3-2.8 19.2-13.9 19.2-28.8 0-14.8-7.6-25.8-20.2-25.8-9.9 0-15.9 6.7-18.7 18.6l-3 12.8c-2 7.8-4.9 12-10.8 12-7.1 0-11.4-6.6-11.4-15.5 0-9.9 4.5-15.5 10.8-17.8v-9.6c-11 2.8-18.4 12-18.4 27.4 0 14.1 8 24.6 19.7 24.6 10.6 0 15.5-7.5 18-17.9l3.3-13.4c2-8.7 5.5-12 11-12 7.7 0 12.1 6.9 12.1 16.6 0 9.2-3.8 16.2-11.6 19v9.8zM138.9 71.4h29.8v42.3H139v9.6h69.7v-9.6h-31.8V71.4h31.8v-9.7h-69.7v9.7zM203.9 276l5.1-5.3-35.5-36.7-35.5 36.7 5.1 5.4 26.8-27.7V332h7.2v-83.6L204 276z" fill="#111"/><path d="M418.2 296.9c-.2 2.1-1.4 3.4-3.6 3.4-2.4 0-4-2-4-4.9 0-3 1.6-4.9 4-4.9 1.7 0 2.7 1 3.2 2.4h1.6c-.5-2.3-2.2-3.8-4.8-3.8-3.2 0-5.7 2.5-5.7 6.3 0 3.9 2.5 6.3 5.7 6.3 3 0 5.1-2 5.1-5.4v-.8h-4.5v1.4h3zM425.7 296.4l3.5 5.2h1.8l-3.6-5.3c2-.3 3.1-1.4 3.1-3.5 0-2.3-1.5-3.5-4-3.5h-4.6v12.3h1.6v-5.2h2.2zm-2.2-5.8h3c1.6 0 2.5.9 2.5 2.2 0 1.4-1 2.2-2.5 2.2h-3v-4.4zM433 289.3v12.3h7.8V300h-6.2V296h5.7v-1.4h-5.7v-4h6.2v-1.3H433zM447.1 289.3l-4.8 12.3h1.6l1.4-3.7h5l1.5 3.7h1.6l-4.8-12.3H447zm.7 2l2 5.2h-4l2-5.3zM453.3 290.7h4.3v10.9h1.6v-11h4.3v-1.3h-10.2v1.4zM465.6 289.3v12.3h7.8V300h-6.2V296h5.7v-1.4h-5.7v-4h6.2v-1.3h-7.8zM479.7 296.4l3.5 5.2h1.8l-3.6-5.3c2-.3 3.1-1.4 3.1-3.5 0-2.3-1.5-3.5-4-3.5h-4.6v12.3h1.6v-5.2h2.2zm-2.2-5.8h3c1.6 0 2.5.9 2.5 2.2 0 1.4-1 2.2-2.5 2.2h-3v-4.4zM412.5 322l-4 9.6h.6l1.3-3.3h4.5l1.4 3.3h.5l-4-9.6h-.3zm.2.6l2 5.2h-4.1l2-5.2zM422 331.7c2 0 3.6-1.2 3.6-3.9V322h-.5v5.8c0 2.4-1.4 3.5-3.2 3.5-1.7 0-3.1-1.1-3.1-3.6V322h-.5v5.8c0 2.7 1.6 4 3.6 4zM427.4 322.4h3.6v9.2h.5v-9.2h3.7v-.4h-7.8v.4zM444.3 322v4.4h-6.6V322h-.5v9.6h.5V327h6.6v4.7h.5V322h-.5zM455.4 326.8c0-3-1.8-5-4.3-5-2.4 0-4.2 2-4.2 5s1.8 5 4.2 5c2.5 0 4.3-2 4.3-5zm-.5 0c0 2.7-1.6 4.5-3.8 4.5-2.1 0-3.7-1.8-3.7-4.5s1.6-4.5 3.7-4.5c2.2 0 3.8 1.8 3.8 4.5zM460.7 327.2l3 4.4h.5l-3-4.4c1.6-.2 2.6-1 2.6-2.6 0-1.7-1.1-2.6-3-2.6h-3.3v9.6h.5v-4.4h2.7zm-2.7-4.8h2.8c1.6 0 2.5.8 2.5 2.2 0 1.4-.9 2.2-2.5 2.2H458v-4.4zM466.8 322h-.5v9.6h.5V322zM468.8 322.4h3.7v9.2h.4v-9.2h3.7v-.4h-7.8v.4zM481.4 327l-3.2-5h-.6l3.5 5.4v4.2h.5v-4.2l3.6-5.4h-.6l-3.2 5zM409.4 318h8.3v-2.3H412v-10h-2.6v12.2zM431.1 311.8c0-3.7-2.4-6.4-5.8-6.4s-5.8 2.7-5.8 6.4c0 3.6 2.4 6.3 5.8 6.3s5.8-2.7 5.8-6.3zm-2.6 0c0 2.4-1.2 4-3.2 4s-3.2-1.6-3.2-4 1.2-4.1 3.2-4.1 3.2 1.7 3.2 4zM444.3 305.6h-2.5v7.8l-5.4-7.8H434V318h2.4v-8.2l5.9 8.2h2v-12.3zM450.2 315.7v-7.8h1.8c2.3 0 3.6 1.5 3.6 3.9s-1.3 3.9-3.6 3.9h-1.8zm-2.5 2.2h4.4c3.7 0 6-2.4 6-6.1 0-3.8-2.3-6.2-6-6.2h-4.4V318zM472.1 311.8c0-3.7-2.4-6.4-5.8-6.4s-5.8 2.7-5.8 6.4c0 3.6 2.4 6.3 5.8 6.3s5.8-2.7 5.8-6.3zm-2.6 0c0 2.4-1.2 4-3.2 4s-3.2-1.6-3.2-4 1.2-4.1 3.2-4.1 3.2 1.7 3.2 4zM485.3 305.6h-2.5v7.8l-5.4-7.8H475V318h2.4v-8.2l5.9 8.2h2v-12.3z" fill="#000"/></svg>
