<svg width="543" height="380" fill="none" xmlns="http://www.w3.org/2000/svg"><path fill="#4CFF8B" d="M0 0h543v380H0z"/><path d="M245.8 121h-4.7v4.8h4.7V121zM255.3 121h-4.7v4.8h4.7V121zM269.6 121h-4.8v4.8h4.8V121zM279.1 121h-4.8v4.8h4.8V121zM288.6 121H284v4.8h4.7V121z" fill="#010202"/><path d="M293.4 121h-4.8v4.8h4.8V121zM298.1 121h-4.7v4.8h4.7V121zM245.8 125.8h-4.7v4.8h4.7v-4.8z" fill="#010202"/><path d="M250.6 125.8h-4.8v4.8h4.8v-4.8zM255.3 125.8h-4.7v4.8h4.7v-4.8zM269.6 125.8h-4.8v4.8h4.8v-4.8zM283.9 125.8H279v4.8h4.8v-4.8zM293.4 125.8h-4.8v4.8h4.8v-4.8zM250.6 130.6h-4.8v4.7h4.8v-4.7zM255.3 130.6h-4.7v4.7h4.7v-4.7zM279.1 130.6h-4.8v4.7h4.8v-4.7zM293.4 130.6h-4.8v4.7h4.8v-4.7zM298.1 130.6h-4.7v4.7h4.7v-4.7z" fill="#010202"/><path d="M302.9 130.6H298v4.7h4.8v-4.7zM245.8 135.3h-4.7v4.8h4.7v-4.8zM255.3 135.3h-4.7v4.8h4.7v-4.8zM260 135.3h-4.7v4.8h4.8v-4.8zM274.3 135.3h-4.7v4.8h4.7v-4.8zM288.6 135.3H284v4.8h4.7v-4.8zM298.1 135.3h-4.7v4.8h4.7v-4.8z" fill="#010202"/><path d="M250.6 140h-4.8v4.8h4.8v-4.7zM255.3 140h-4.7v4.8h4.7v-4.7zM264.8 140h-4.7v4.8h4.7v-4.7zM274.3 140h-4.7v4.8h4.7v-4.7zM279.1 140h-4.8v4.8h4.8v-4.7zM288.6 140H284v4.8h4.7v-4.7zM298.1 140h-4.7v4.8h4.7v-4.7zM260 144.8h-4.7v4.8h4.8v-4.8zM264.8 144.8h-4.7v4.8h4.7v-4.8zM269.6 144.8h-4.8v4.8h4.8v-4.8zM283.9 144.8H279v4.8h4.8v-4.8zM288.6 144.8H284v4.8h4.7v-4.8zM298.1 144.8h-4.7v4.8h4.7v-4.8z" fill="#010202"/><path d="M302.9 144.8H298v4.8h4.8v-4.8zM245.8 149.6h-4.7v4.7h4.7v-4.7zM255.3 149.6h-4.7v4.7h4.7v-4.7zM264.8 149.6h-4.7v4.7h4.7v-4.7zM274.3 149.6h-4.7v4.7h4.7v-4.7zM283.9 149.6H279v4.7h4.8v-4.7zM293.4 149.6h-4.8v4.7h4.8v-4.7z" fill="#010202"/><path d="M302.9 149.6H298v4.7h4.8v-4.7zM245.8 154.3h-4.7v4.8h4.7v-4.8z" fill="#010202"/><path d="M250.6 154.3h-4.8v4.8h4.8v-4.8zM255.3 154.3h-4.7v4.8h4.7v-4.8zM264.8 154.3h-4.7v4.8h4.7v-4.8zM288.6 154.3H284v4.8h4.7v-4.8zM298.1 154.3h-4.7v4.8h4.7v-4.8zM207.8 159h-4.7v4.8h4.7v-4.7zM217.3 159h-4.7v4.8h4.7v-4.7zM222 159h-4.7v4.8h4.8v-4.7zM231.6 159h-4.8v4.8h4.8v-4.7zM236.3 159h-4.7v4.8h4.7v-4.7zM241 159h-4.7v4.8h4.8v-4.7zM260 159h-4.7v4.8h4.8v-4.7zM269.6 159h-4.8v4.8h4.8v-4.7zM279.1 159h-4.8v4.8h4.8v-4.7z" fill="#010202"/><path d="M283.9 159H279v4.8h4.8v-4.7zM288.6 159H284v4.8h4.7v-4.7z" fill="#010202"/><path d="M293.4 159h-4.8v4.8h4.8v-4.7zM312.4 159h-4.8v4.8h4.8v-4.7zM326.6 159H322v4.8h4.7v-4.7zM336.1 159h-4.7v4.8h4.7v-4.7z" fill="#010202"/><path d="M340.9 159h-4.8v4.8h4.8v-4.7zM212.6 163.8h-4.8v4.8h4.8v-4.8zM217.3 163.8h-4.7v4.8h4.7v-4.8zM226.8 163.8h-4.7v4.8h4.7v-4.8zM241 163.8h-4.7v4.8h4.8v-4.8zM264.8 163.8h-4.7v4.8h4.7v-4.8zM269.6 163.8h-4.8v4.8h4.8v-4.8zM274.3 163.8h-4.7v4.8h4.7v-4.8zM283.9 163.8H279v4.8h4.8v-4.8zM288.6 163.8H284v4.8h4.7v-4.8z" fill="#010202"/><path d="M293.4 163.8h-4.8v4.8h4.8v-4.8zM298.1 163.8h-4.7v4.8h4.7v-4.8z" fill="#010202"/><path d="M302.9 163.8H298v4.8h4.8v-4.8zM307.6 163.8H303v4.8h4.7v-4.8z" fill="#010202"/><path d="M312.4 163.8h-4.8v4.8h4.8v-4.8zM317.1 163.8h-4.7v4.8h4.7v-4.8z" fill="#010202"/><path d="M321.9 163.8H317v4.8h4.8v-4.8zM340.9 163.8h-4.8v4.8h4.8v-4.8zM217.3 168.6h-4.7v4.8h4.7v-4.8zM226.8 168.6h-4.7v4.8h4.7v-4.8zM236.3 168.6h-4.7v4.8h4.7v-4.8zM241 168.6h-4.7v4.8h4.8v-4.8zM245.8 168.6h-4.7v4.8h4.7v-4.8z" fill="#010202"/><path d="M250.6 168.6h-4.8v4.8h4.8v-4.8zM260 168.6h-4.7v4.8h4.8v-4.8zM269.6 168.6h-4.8v4.8h4.8v-4.8zM283.9 168.6H279v4.8h4.8v-4.8zM288.6 168.6H284v4.8h4.7v-4.8z" fill="#010202"/><path d="M293.4 168.6h-4.8v4.8h4.8v-4.8zM317.1 168.6h-4.7v4.8h4.7v-4.8zM331.4 168.6h-4.8v4.8h4.8v-4.8zM336.1 168.6h-4.7v4.8h4.7v-4.8zM207.8 173.4h-4.7v4.7h4.7v-4.7z" fill="#010202"/><path d="M212.6 173.4h-4.8v4.7h4.8v-4.7zM217.3 173.4h-4.7v4.7h4.7v-4.7zM226.8 173.4h-4.7v4.7h4.7v-4.7zM241 173.4h-4.7v4.7h4.8v-4.7zM250.6 173.4h-4.8v4.7h4.8v-4.7zM255.3 173.4h-4.7v4.7h4.7v-4.7zM279.1 173.4h-4.8v4.7h4.8v-4.7z" fill="#010202"/><path d="M283.9 173.4H279v4.7h4.8v-4.7zM307.6 173.4H303v4.7h4.7v-4.7z" fill="#010202"/><path d="M312.4 173.4h-4.8v4.7h4.8v-4.7zM317.1 173.4h-4.7v4.7h4.7v-4.7z" fill="#010202"/><path d="M321.9 173.4H317v4.7h4.8v-4.7zM340.9 173.4h-4.8v4.7h4.8v-4.7zM212.6 178.1h-4.8v4.8h4.8V178zM217.3 178.1h-4.7v4.8h4.7V178zM222 178.1h-4.7v4.8h4.8V178zM236.3 178.1h-4.7v4.8h4.7V178zM264.8 178.1h-4.7v4.8h4.7V178zM274.3 178.1h-4.7v4.8h4.7V178zM279.1 178.1h-4.8v4.8h4.8V178z" fill="#010202"/><path d="M283.9 178.1H279v4.8h4.8V178zM288.6 178.1H284v4.8h4.7V178zM326.6 178.1H322v4.8h4.7V178z" fill="#010202"/><path d="M331.4 178.1h-4.8v4.8h4.8V178zM226.8 182.9h-4.7v4.7h4.7V183zM241 182.9h-4.7v4.7h4.8V183zM255.3 182.9h-4.7v4.7h4.7V183zM264.8 182.9h-4.7v4.7h4.7V183zM274.3 182.9h-4.7v4.7h4.7V183zM279.1 182.9h-4.8v4.7h4.8V183z" fill="#010202"/><path d="M283.9 182.9H279v4.7h4.8V183zM298.1 182.9h-4.7v4.7h4.7V183zM312.4 182.9h-4.8v4.7h4.8V183zM331.4 182.9h-4.8v4.7h4.8V183zM336.1 182.9h-4.7v4.7h4.7V183z" fill="#010202"/><path d="M340.9 182.9h-4.8v4.7h4.8V183zM226.8 187.6h-4.7v4.8h4.7v-4.8z" fill="#010202"/><path d="M231.6 187.6h-4.8v4.8h4.8v-4.8zM236.3 187.6h-4.7v4.8h4.7v-4.8zM255.3 187.6h-4.7v4.8h4.7v-4.8zM260 187.6h-4.7v4.8h4.8v-4.8zM264.8 187.6h-4.7v4.8h4.7v-4.8zM269.6 187.6h-4.8v4.8h4.8v-4.8zM288.6 187.6H284v4.8h4.7v-4.8z" fill="#010202"/><path d="M293.4 187.6h-4.8v4.8h4.8v-4.8zM298.1 187.6h-4.7v4.8h4.7v-4.8zM307.6 187.6H303v4.8h4.7v-4.8zM331.4 187.6h-4.8v4.8h4.8v-4.8zM336.1 187.6h-4.7v4.8h4.7v-4.8z" fill="#010202"/><path d="M340.9 187.6h-4.8v4.8h4.8v-4.8zM212.6 192.4h-4.8v4.8h4.8v-4.8zM217.3 192.4h-4.7v4.8h4.7v-4.8zM255.3 192.4h-4.7v4.8h4.7v-4.8zM260 192.4h-4.7v4.8h4.8v-4.8zM274.3 192.4h-4.7v4.8h4.7v-4.8zM279.1 192.4h-4.8v4.8h4.8v-4.8zM298.1 192.4h-4.7v4.8h4.7v-4.8z" fill="#010202"/><path d="M302.9 192.4H298v4.8h4.8v-4.8zM307.6 192.4H303v4.8h4.7v-4.8z" fill="#010202"/><path d="M312.4 192.4h-4.8v4.8h4.8v-4.8zM317.1 192.4h-4.7v4.8h4.7v-4.8z" fill="#010202"/><path d="M321.9 192.4H317v4.8h4.8v-4.8zM336.1 192.4h-4.7v4.8h4.7v-4.8zM226.8 197.2h-4.7v4.7h4.7v-4.7z" fill="#010202"/><path d="M231.6 197.2h-4.8v4.7h4.8v-4.7zM236.3 197.2h-4.7v4.7h4.7v-4.7zM245.8 197.2h-4.7v4.7h4.7v-4.7zM260 197.2h-4.7v4.7h4.8v-4.7zM264.8 197.2h-4.7v4.7h4.7v-4.7zM274.3 197.2h-4.7v4.7h4.7v-4.7zM279.1 197.2h-4.8v4.7h4.8v-4.7zM293.4 197.2h-4.8v4.7h4.8v-4.7zM298.1 197.2h-4.7v4.7h4.7v-4.7z" fill="#010202"/><path d="M302.9 197.2H298v4.7h4.8v-4.7zM307.6 197.2H303v4.7h4.7v-4.7zM321.9 197.2H317v4.7h4.8v-4.7zM326.6 197.2H322v4.7h4.7v-4.7zM336.1 197.2h-4.7v4.7h4.7v-4.7zM212.6 202h-4.8v4.7h4.8v-4.8zM217.3 202h-4.7v4.7h4.7v-4.8zM245.8 202h-4.7v4.7h4.7v-4.8zM255.3 202h-4.7v4.7h4.7v-4.8zM274.3 202h-4.7v4.7h4.7v-4.8zM279.1 202h-4.8v4.7h4.8v-4.8zM317.1 202h-4.7v4.7h4.7v-4.8zM326.6 202H322v4.7h4.7v-4.8z" fill="#010202"/><path d="M331.4 202h-4.8v4.7h4.8v-4.8zM336.1 202h-4.7v4.7h4.7v-4.8zM207.8 206.7h-4.7v4.7h4.7v-4.7zM226.8 206.7h-4.7v4.7h4.7v-4.7zM236.3 206.7h-4.7v4.7h4.7v-4.7zM250.6 206.7h-4.8v4.7h4.8v-4.7zM255.3 206.7h-4.7v4.7h4.7v-4.7zM260 206.7h-4.7v4.7h4.8v-4.7zM269.6 206.7h-4.8v4.7h4.8v-4.7zM274.3 206.7h-4.7v4.7h4.7v-4.7zM279.1 206.7h-4.8v4.7h4.8v-4.7zM288.6 206.7H284v4.7h4.7v-4.7zM317.1 206.7h-4.7v4.7h4.7v-4.7z" fill="#010202"/><path d="M321.9 206.7H317v4.7h4.8v-4.7zM331.4 206.7h-4.8v4.7h4.8v-4.7zM226.8 211.4h-4.7v4.8h4.7v-4.8zM245.8 211.4h-4.7v4.8h4.7v-4.8z" fill="#010202"/><path d="M250.6 211.4h-4.8v4.8h4.8v-4.8zM260 211.4h-4.7v4.8h4.8v-4.8zM269.6 211.4h-4.8v4.8h4.8v-4.8zM274.3 211.4h-4.7v4.8h4.7v-4.8zM288.6 211.4H284v4.8h4.7v-4.8z" fill="#010202"/><path d="M293.4 211.4h-4.8v4.8h4.8v-4.8zM302.9 211.4H298v4.8h4.8v-4.8zM331.4 211.4h-4.8v4.8h4.8v-4.8zM212.6 216.2h-4.8v4.7h4.8v-4.7zM217.3 216.2h-4.7v4.7h4.7v-4.7zM226.8 216.2h-4.7v4.7h4.7v-4.7z" fill="#010202"/><path d="M231.6 216.2h-4.8v4.7h4.8v-4.7zM236.3 216.2h-4.7v4.7h4.7v-4.7zM241 216.2h-4.7v4.7h4.8v-4.7zM245.8 216.2h-4.7v4.7h4.7v-4.7z" fill="#010202"/><path d="M250.6 216.2h-4.8v4.7h4.8v-4.7zM255.3 216.2h-4.7v4.7h4.7v-4.7zM264.8 216.2h-4.7v4.7h4.7v-4.7zM269.6 216.2h-4.8v4.7h4.8v-4.7zM274.3 216.2h-4.7v4.7h4.7v-4.7zM279.1 216.2h-4.8v4.7h4.8v-4.7z" fill="#010202"/><path d="M283.9 216.2H279v4.7h4.8v-4.7zM288.6 216.2H284v4.7h4.7v-4.7zM302.9 216.2H298v4.7h4.8v-4.7zM307.6 216.2H303v4.7h4.7v-4.7z" fill="#010202"/><path d="M312.4 216.2h-4.8v4.7h4.8v-4.7zM317.1 216.2h-4.7v4.7h4.7v-4.7z" fill="#010202"/><path d="M321.9 216.2H317v4.7h4.8v-4.7zM326.6 216.2H322v4.7h4.7v-4.7z" fill="#010202"/><path d="M331.4 216.2h-4.8v4.7h4.8v-4.7zM245.8 221h-4.7v4.7h4.7v-4.8zM260 221h-4.7v4.7h4.8v-4.8zM283.9 221H279v4.7h4.8v-4.8zM288.6 221H284v4.7h4.7v-4.8z" fill="#010202"/><path d="M293.4 221h-4.8v4.7h4.8v-4.8zM302.9 221H298v4.7h4.8v-4.8zM321.9 221H317v4.7h4.8v-4.8zM326.6 221H322v4.7h4.7v-4.8z" fill="#010202"/><path d="M331.4 221h-4.8v4.7h4.8v-4.8zM336.1 221h-4.7v4.7h4.7v-4.8z" fill="#010202"/><path d="M340.9 221h-4.8v4.7h4.8v-4.8zM245.8 225.7h-4.7v4.7h4.7v-4.7z" fill="#010202"/><path d="M250.6 225.7h-4.8v4.7h4.8v-4.7zM274.3 225.7h-4.7v4.7h4.7v-4.7zM283.9 225.7H279v4.7h4.8v-4.7zM293.4 225.7h-4.8v4.7h4.8v-4.7zM298.1 225.7h-4.7v4.7h4.7v-4.7z" fill="#010202"/><path d="M302.9 225.7H298v4.7h4.8v-4.7zM312.4 225.7h-4.8v4.7h4.8v-4.7zM321.9 225.7H317v4.7h4.8v-4.7zM326.6 225.7H322v4.7h4.7v-4.7zM336.1 225.7h-4.7v4.7h4.7v-4.7zM245.8 230.4h-4.7v4.8h4.7v-4.8zM255.3 230.4h-4.7v4.8h4.7v-4.8zM264.8 230.4h-4.7v4.8h4.7v-4.8zM269.6 230.4h-4.8v4.8h4.8v-4.8zM274.3 230.4h-4.7v4.8h4.7v-4.8zM279.1 230.4h-4.8v4.8h4.8v-4.8z" fill="#010202"/><path d="M283.9 230.4H279v4.8h4.8v-4.8zM293.4 230.4h-4.8v4.8h4.8v-4.8zM302.9 230.4H298v4.8h4.8v-4.8zM321.9 230.4H317v4.8h4.8v-4.8zM326.6 230.4H322v4.8h4.7v-4.8zM340.9 230.4h-4.8v4.8h4.8v-4.8zM250.6 235.2h-4.8v4.8h4.8v-4.8zM255.3 235.2h-4.7v4.8h4.7v-4.8zM260 235.2h-4.7v4.8h4.8v-4.8zM264.8 235.2h-4.7v4.8h4.7v-4.8z" fill="#010202"/><path d="M279.1 235.2h-4.8v4.8h4.8v-4.8zM288.6 235.2H284v4.8h4.7v-4.8zM302.9 235.2H298v4.8h4.8v-4.8zM307.6 235.2H303v4.8h4.7v-4.8z" fill="#010202"/><path d="M312.4 235.2h-4.8v4.8h4.8v-4.8zM317.1 235.2h-4.7v4.8h4.7v-4.8z" fill="#010202"/><path d="M321.9 235.2H317v4.8h4.8v-4.8zM331.4 235.2h-4.8v4.8h4.8v-4.8zM245.8 240h-4.7v4.7h4.7V240z" fill="#010202"/><path d="M250.6 240h-4.8v4.7h4.8V240zM255.3 240h-4.7v4.7h4.7V240zM264.8 240h-4.7v4.7h4.7V240zM279.1 240h-4.8v4.7h4.8V240z" fill="#010202"/><path d="M283.9 240H279v4.7h4.8V240zM288.6 240H284v4.7h4.7V240z" fill="#010202"/><path d="M293.4 240h-4.8v4.7h4.8V240zM298.1 240h-4.7v4.7h4.7V240zM307.6 240H303v4.7h4.7V240zM321.9 240H317v4.7h4.8V240zM326.6 240H322v4.7h4.7V240zM340.9 240h-4.8v4.7h4.8V240zM245.8 244.7h-4.7v4.8h4.7v-4.8z" fill="#010202"/><path d="M250.6 244.7h-4.8v4.8h4.8v-4.8zM293.4 244.7h-4.8v4.8h4.8v-4.8zM298.1 244.7h-4.7v4.8h4.7v-4.8zM317.1 244.7h-4.7v4.8h4.7v-4.8zM331.4 244.7h-4.8v4.8h4.8v-4.8zM340.9 244.7h-4.8v4.8h4.8v-4.8zM250.6 249.5h-4.8v4.7h4.8v-4.7zM260 249.5h-4.7v4.7h4.8v-4.7zM274.3 249.5h-4.7v4.7h4.7v-4.7zM279.1 249.5h-4.8v4.7h4.8v-4.7z" fill="#010202"/><path d="M283.9 249.5H279v4.7h4.8v-4.7zM293.4 249.5h-4.8v4.7h4.8v-4.7zM298.1 249.5h-4.7v4.7h4.7v-4.7z" fill="#010202"/><path d="M302.9 249.5H298v4.7h4.8v-4.7zM307.6 249.5H303v4.7h4.7v-4.7z" fill="#010202"/><path d="M312.4 249.5h-4.8v4.7h4.8v-4.7zM317.1 249.5h-4.7v4.7h4.7v-4.7zM326.6 249.5H322v4.7h4.7v-4.7zM336.1 249.5h-4.7v4.7h4.7v-4.7zM245.8 254.2h-4.7v4.8h4.7v-4.8z" fill="#010202"/><path d="M250.6 254.2h-4.8v4.8h4.8v-4.8zM255.3 254.2h-4.7v4.8h4.7v-4.8zM260 254.2h-4.7v4.8h4.8v-4.8zM264.8 254.2h-4.7v4.8h4.7v-4.8zM269.6 254.2h-4.8v4.8h4.8v-4.8zM274.3 254.2h-4.7v4.8h4.7v-4.8zM293.4 254.2h-4.8v4.8h4.8v-4.8zM298.1 254.2h-4.7v4.8h4.7v-4.8z" fill="#010202"/><path d="M302.9 254.2H298v4.8h4.8v-4.8zM307.6 254.2H303v4.8h4.7v-4.8zM321.9 254.2H317v4.8h4.8v-4.8zM336.1 254.2h-4.7v4.8h4.7v-4.8zM231.3 121H203v33.3h33.3V121h-5zm0 28.3H208V126h23.3v23.3zM336 121h-28.3v33.3H341V121h-5zm0 28.3h-23.3V126H336v23.3zM231.3 225.6H203V259h33.3v-33.3h-5zm0 28.5H208v-23.3h23.3v23.3z" fill="#010202"/><path d="M226.8 130.5h-14.3v14.3h14.3v-14.3zM331.4 130.5h-14.3v14.3h14.3v-14.3zM226.8 235.2h-14.3v14.3h14.3v-14.3z" fill="#010202"/></svg>
