<svg xmlns="http://www.w3.org/2000/svg" fill="none" viewBox="0 0 543 380"><path fill="#7BFFAA" d="M0 0h543v380H0V0z"/><path fill="#000" stroke="#000" d="M376.03 190.94c0 13.3-11.24 25.7-30.31 34.88-18.98 9.13-45.28 14.81-74.42 14.81-29.13 0-55.44-5.68-74.41-14.8-19.07-9.18-30.31-21.6-30.31-34.89 0-13.28 11.24-25.7 30.3-34.87 18.98-9.13 45.3-14.81 74.42-14.81 29.14 0 55.44 5.68 74.42 14.8 19.07 9.18 30.3 21.6 30.3 34.88zM271.3 242.47c29.35 0 55.95-5.72 75.22-15 19.25-9.25 31.36-22.13 31.36-36.53 0-14.39-12.11-27.27-31.36-36.52-19.27-9.28-45.87-15-75.22-15s-55.94 5.72-75.22 15c-19.24 9.25-31.35 22.13-31.35 36.53 0 14.39 12.11 27.27 31.35 36.52 19.28 9.28 45.87 15 75.22 15z"/><path fill="#000" d="M163.31 109.64h32.01v-5.85h-25.56V59h-6.45v50.64zM204.46 59v50.64h31.93v-5.85h-25.56V86.55h23.19v-5.77h-23.2v-16h25.57V59h-31.93zM261.84 59l-19.6 50.64h6.53l5.72-15.26h20.66l5.8 15.26h6.53L267.88 59h-6.04zm2.94 8.08l8.16 21.61h-16.33l8.17-21.6zM310.48 88.2l14.37 21.44h7.35l-14.78-21.69c7.84-1.07 12.74-5.86 12.74-14.27 0-9.57-6.37-14.68-16.41-14.68h-18.62v50.64h6.45V88.2h8.9zm-8.9-23.5h12c6.62 0 10.21 3.37 10.21 8.98s-3.6 9-10.2 9h-12.01V64.68zM379.13 59h-6.12v38.52L346.3 59h-6.13v50.64h6.2V69.4l28.02 40.25h4.73V59zM207.66 270.44v21.73h-28.3v-21.73h-6.44v50.72h6.44v-23.13h28.3v23.13h6.44v-50.72h-6.44zM268.37 295.8c0-15.36-9.46-26.1-22.68-26.1-13.12 0-22.58 10.74-22.58 26.1 0 15.28 9.46 26.1 22.58 26.1 13.22 0 22.68-10.82 22.68-26.1zm-6.45 0c0 11.9-6.52 20.24-16.23 20.24-9.62 0-16.14-8.34-16.14-20.24 0-11.9 6.52-20.23 16.14-20.23 9.71 0 16.23 8.34 16.23 20.23zM303.67 321.16l15.66-38.66v38.66h6.12v-50.72h-7.02l-16.88 41.63-16.96-41.63h-7.26v50.72h6.12V282.5l15.82 38.66h4.4zM337.38 270.44v50.72h31.88v-5.86h-25.52v-17.27h23.16v-5.78h-23.16v-16.02h25.52v-5.79h-31.88zM219.58 205.14v-12.51h13.74v-3.28h-13.74v-9.7h14.63v-3.28h-18.54v28.77h3.9zM248.96 192.96l8.7 12.18h4.44l-8.94-12.32c4.74-.61 7.7-3.33 7.7-8.1 0-5.44-3.85-8.35-9.93-8.35h-11.27v28.77h3.9v-12.18h5.4zm-5.4-13.36h7.27c4 0 6.18 1.93 6.18 5.11 0 3.19-2.17 5.1-6.18 5.1h-7.26v-10.2zM292.5 190.75c0-8.7-5.74-14.8-13.75-14.8-7.96 0-13.7 6.1-13.7 14.8 0 8.67 5.74 14.8 13.7 14.8 8 0 13.74-6.13 13.74-14.8zm-3.91 0c0 6.75-3.96 11.48-9.84 11.48-5.83 0-9.79-4.73-9.79-11.47 0-6.75 3.96-11.48 9.8-11.48 5.87 0 9.83 4.73 9.83 11.47zM313.9 205.14l9.48-21.93v21.93h3.7v-28.77h-4.24l-10.23 23.61-10.29-23.6h-4.4v28.76h3.71V183.2l9.6 21.93h2.66z"/></svg>
