<svg xmlns="http://www.w3.org/2000/svg" fill="none" viewBox="0 0 543 380"><path fill="#7BFFAA" d="M0 0h543v380H0V0z"/><path fill="#010202" d="M246 121h-5v5h5v-5zm9 0h-4v5h4v-5zm15 0h-5v5h5v-5zm9 0h-5v5h5v-5zm10 0h-5v5h5v-5zM293 121h-4v5h4v-5zm5 0h-5v5h5v-5zm-52 5h-5v5h5v-5zM251 126h-5v5h5v-5zm4 0h-4v5h4v-5zm15 0h-5v5h5v-5zm14 0h-5v5h5v-5zm9 0h-4v5h4v-5zm-42 5h-5v4h5v-4zm4 0h-4v4h4v-4zm24 0h-5v4h5v-4zm14 0h-4v4h4v-4zm5 0h-5v4h5v-4zM303 131h-5v4h5v-4zm-57 4h-5v5h5v-5zm9 0h-4v5h4v-5zm5 0h-5v5h5v-5zm14 0h-4v5h4v-5zm15 0h-5v5h5v-5zm9 0h-5v5h5v-5zM251 140h-5v5h5v-5zm4 0h-4v5h4v-5zm10 0h-5v5h5v-5zm9 0h-4v5h4v-5zm5 0h-5v5h5v-5zm10 0h-5v5h5v-5zm9 0h-5v5h5v-5zm-38 5h-5v5h5v-5zm5 0h-5v5h5v-5zm5 0h-5v5h5v-5zm14 0h-5v5h5v-5zm5 0h-5v5h5v-5zm9 0h-5v5h5v-5zM303 145h-5v5h5v-5zm-57 5h-5v4h5v-4zm9 0h-4v4h4v-4zm10 0h-5v4h5v-4zm9 0h-4v4h4v-4zm10 0h-5v4h5v-4zm9 0h-4v4h4v-4zM303 150h-5v4h5v-4zm-57 4h-5v5h5v-5zM251 154h-5v5h5v-5zm4 0h-4v5h4v-5zm10 0h-5v5h5v-5zm24 0h-5v5h5v-5zm9 0h-5v5h5v-5zm-90 5h-5v5h5v-5zm9 0h-4v5h4v-5zm5 0h-5v5h5v-5zm10 0h-5v5h5v-5zm4 0h-4v5h4v-5zm5 0h-5v5h5v-5zm19 0h-5v5h5v-5zm10 0h-5v5h5v-5zm9 0h-5v5h5v-5zM284 159h-5v5h5v-5zm5 0h-5v5h5v-5zM293 159h-4v5h4v-5zm19 0h-4v5h4v-5zm15 0h-5v5h5v-5zm9 0h-5v5h5v-5zM341 159h-5v5h5v-5zm-128 5h-5v5h5v-5zm4 0h-4v5h4v-5zm10 0h-5v5h5v-5zm14 0h-5v5h5v-5zm24 0h-5v5h5v-5zm5 0h-5v5h5v-5zm4 0h-4v5h4v-5zm10 0h-5v5h5v-5zm5 0h-5v5h5v-5zM293 164h-4v5h4v-5zm5 0h-5v5h5v-5zM303 164h-5v5h5v-5zm5 0h-5v5h5v-5zM312 164h-4v5h4v-5zm5 0h-5v5h5v-5zM322 164h-5v5h5v-5zm19 0h-5v5h5v-5zm-124 5h-4v4h4v-4zm10 0h-5v4h5v-4zm9 0h-4v4h4v-4zm5 0h-5v4h5v-4zm5 0h-5v4h5v-4zM251 169h-5v4h5v-4zm9 0h-5v4h5v-4zm10 0h-5v4h5v-4zm14 0h-5v4h5v-4zm5 0h-5v4h5v-4zM293 169h-4v4h4v-4zm24 0h-5v4h5v-4zm14 0h-4v4h4v-4zm5 0h-5v4h5v-4zm-128 4h-5v5h5v-5zM213 173h-5v5h5v-5zm4 0h-4v5h4v-5zm10 0h-5v5h5v-5zm14 0h-5v5h5v-5zm10 0h-5v5h5v-5zm4 0h-4v5h4v-5zm24 0h-5v5h5v-5zM284 173h-5v5h5v-5zm24 0h-5v5h5v-5zM312 173h-4v5h4v-5zm5 0h-5v5h5v-5zM322 173h-5v5h5v-5zm19 0h-5v5h5v-5zm-128 5h-5v5h5v-5zm4 0h-4v5h4v-5zm5 0h-5v5h5v-5zm14 0h-4v5h4v-5zm29 0h-5v5h5v-5zm9 0h-4v5h4v-5zm5 0h-5v5h5v-5zM284 178h-5v5h5v-5zm5 0h-5v5h5v-5zm38 0h-5v5h5v-5zM331 178h-4v5h4v-5zm-104 5h-5v5h5v-5zm14 0h-5v5h5v-5zm14 0h-4v5h4v-5zm10 0h-5v5h5v-5zm9 0h-4v5h4v-5zm5 0h-5v5h5v-5zM284 183h-5v5h5v-5zm14 0h-5v5h5v-5zm14 0h-4v5h4v-5zm19 0h-4v5h4v-5zm5 0h-5v5h5v-5zM341 183h-5v5h5v-5zm-114 5h-5v4h5v-4zM232 188h-5v4h5v-4zm4 0h-4v4h4v-4zm19 0h-4v4h4v-4zm5 0h-5v4h5v-4zm5 0h-5v4h5v-4zm5 0h-5v4h5v-4zm19 0h-5v4h5v-4zM293 188h-4v4h4v-4zm5 0h-5v4h5v-4zm10 0h-5v4h5v-4zm23 0h-4v4h4v-4zm5 0h-5v4h5v-4zM341 188h-5v4h5v-4zm-128 4h-5v5h5v-5zm4 0h-4v5h4v-5zm38 0h-4v5h4v-5zm5 0h-5v5h5v-5zm14 0h-4v5h4v-5zm5 0h-5v5h5v-5zm19 0h-5v5h5v-5zM303 192h-5v5h5v-5zm5 0h-5v5h5v-5zM312 192h-4v5h4v-5zm5 0h-5v5h5v-5zM322 192h-5v5h5v-5zm14 0h-5v5h5v-5zm-109 5h-5v5h5v-5zM232 197h-5v5h5v-5zm4 0h-4v5h4v-5zm10 0h-5v5h5v-5zm14 0h-5v5h5v-5zm5 0h-5v5h5v-5zm9 0h-4v5h4v-5zm5 0h-5v5h5v-5zm14 0h-4v5h4v-5zm5 0h-5v5h5v-5zM303 197h-5v5h5v-5zm5 0h-5v5h5v-5zm14 0h-5v5h5v-5zm5 0h-5v5h5v-5zm9 0h-5v5h5v-5zm-123 5h-5v5h5v-5zm4 0h-4v5h4v-5zm29 0h-5v5h5v-5zm9 0h-4v5h4v-5zm19 0h-4v5h4v-5zm5 0h-5v5h5v-5zm38 0h-5v5h5v-5zm10 0h-5v5h5v-5zM331 202h-4v5h4v-5zm5 0h-5v5h5v-5zm-128 5h-5v4h5v-4zm19 0h-5v4h5v-4zm9 0h-4v4h4v-4zm15 0h-5v4h5v-4zm4 0h-4v4h4v-4zm5 0h-5v4h5v-4zm10 0h-5v4h5v-4zm4 0h-4v4h4v-4zm5 0h-5v4h5v-4zm10 0h-5v4h5v-4zm28 0h-5v4h5v-4zM322 207h-5v4h5v-4zm9 0h-4v4h4v-4zm-104 4h-5v5h5v-5zm19 0h-5v5h5v-5zM251 211h-5v5h5v-5zm9 0h-5v5h5v-5zm10 0h-5v5h5v-5zm4 0h-4v5h4v-5zm15 0h-5v5h5v-5zM293 211h-4v5h4v-5zm10 0h-5v5h5v-5zm28 0h-4v5h4v-5zm-118 5h-5v5h5v-5zm4 0h-4v5h4v-5zm10 0h-5v5h5v-5zM232 216h-5v5h5v-5zm4 0h-4v5h4v-5zm5 0h-5v5h5v-5zm5 0h-5v5h5v-5zM251 216h-5v5h5v-5zm4 0h-4v5h4v-5zm10 0h-5v5h5v-5zm5 0h-5v5h5v-5zm4 0h-4v5h4v-5zm5 0h-5v5h5v-5zM284 216h-5v5h5v-5zm5 0h-5v5h5v-5zm14 0h-5v5h5v-5zm5 0h-5v5h5v-5zM312 216h-4v5h4v-5zm5 0h-5v5h5v-5zM322 216h-5v5h5v-5zm5 0h-5v5h5v-5zM331 216h-4v5h4v-5zm-85 5h-5v5h5v-5zm14 0h-5v5h5v-5zm24 0h-5v5h5v-5zm5 0h-5v5h5v-5zM293 221h-4v5h4v-5zm10 0h-5v5h5v-5zm19 0h-5v5h5v-5zm5 0h-5v5h5v-5zM331 221h-4v5h4v-5zm5 0h-5v5h5v-5zM341 221h-5v5h5v-5zm-95 5h-5v4h5v-4zM251 226h-5v4h5v-4zm23 0h-4v4h4v-4zm10 0h-5v4h5v-4zm9 0h-4v4h4v-4zm5 0h-5v4h5v-4zM303 226h-5v4h5v-4zm9 0h-4v4h4v-4zm10 0h-5v4h5v-4zm5 0h-5v4h5v-4zm9 0h-5v4h5v-4zm-90 4h-5v5h5v-5zm9 0h-4v5h4v-5zm10 0h-5v5h5v-5zm5 0h-5v5h5v-5zm4 0h-4v5h4v-5zm5 0h-5v5h5v-5zM284 230h-5v5h5v-5zm9 0h-4v5h4v-5zm10 0h-5v5h5v-5zm19 0h-5v5h5v-5zm5 0h-5v5h5v-5zm14 0h-5v5h5v-5zm-90 5h-5v5h5v-5zm4 0h-4v5h4v-5zm5 0h-5v5h5v-5zm5 0h-5v5h5v-5zM279 235h-5v5h5v-5zm10 0h-5v5h5v-5zm14 0h-5v5h5v-5zm5 0h-5v5h5v-5zM312 235h-4v5h4v-5zm5 0h-5v5h5v-5zM322 235h-5v5h5v-5zm9 0h-4v5h4v-5zm-85 5h-5v5h5v-5zM251 240h-5v5h5v-5zm4 0h-4v5h4v-5zm10 0h-5v5h5v-5zm14 0h-5v5h5v-5zM284 240h-5v5h5v-5zm5 0h-5v5h5v-5zM293 240h-4v5h4v-5zm5 0h-5v5h5v-5zm10 0h-5v5h5v-5zm14 0h-5v5h5v-5zm5 0h-5v5h5v-5zm14 0h-5v5h5v-5zm-95 5h-5v5h5v-5zM251 245h-5v5h5v-5zm42 0h-4v5h4v-5zm5 0h-5v5h5v-5zm19 0h-5v5h5v-5zm14 0h-4v5h4v-5zm10 0h-5v5h5v-5zm-90 5h-5v4h5v-4zm9 0h-5v4h5v-4zm14 0h-4v4h4v-4zm5 0h-5v4h5v-4zM284 250h-5v4h5v-4zm9 0h-4v4h4v-4zm5 0h-5v4h5v-4zM303 250h-5v4h5v-4zm5 0h-5v4h5v-4zM312 250h-4v4h4v-4zm5 0h-5v4h5v-4zm10 0h-5v4h5v-4zm9 0h-5v4h5v-4zm-90 4h-5v5h5v-5zM251 254h-5v5h5v-5zm4 0h-4v5h4v-5zm5 0h-5v5h5v-5zm5 0h-5v5h5v-5zm5 0h-5v5h5v-5zm4 0h-4v5h4v-5zm19 0h-4v5h4v-5zm5 0h-5v5h5v-5zM303 254h-5v5h5v-5zm5 0h-5v5h5v-5zm14 0h-5v5h5v-5zm14 0h-5v5h5v-5zM231 121h-28v33h33v-33h-5zm0 28h-23v-23h23v23zm105-28h-28v33h33v-33h-5zm0 28h-23v-23h23v23zm-105 77h-28v33h33v-33h-5zm0 28h-23v-23h23v23z"/><path fill="#010202" d="M227 131h-14v14h14v-14zm104 0h-14v14h14v-14zM227 235h-14v15h14v-15z"/></svg>
