<svg width="1117" height="600" fill="none" xmlns="http://www.w3.org/2000/svg"><path fill="#4CFF8B" d="M0 0h1117v600H0z"/><path d="M192.3 149.7v-29h30v-7.5h-30V90.8h32v-7.6h-40.6v66.5h8.6zM256.6 121.5l19 28.2h9.8l-19.6-28.5c10.4-1.4 16.9-7.7 16.9-18.7 0-12.6-8.5-19.3-21.8-19.3h-24.7v66.5h8.6v-28.2h11.8zm-11.8-30.8h15.9c8.8 0 13.5 4.4 13.5 11.8s-4.8 11.8-13.5 11.8h-16V90.7zM296 83.2v66.5h42.2V142h-33.8v-22.6H335v-7.6h-30.7v-21h33.8v-7.6H296zM351.6 83.2v66.5H394V142h-33.8v-22.6h30.7v-7.6h-30.7v-21h33.8v-7.6h-42.3zM192.3 337v-28.9h30v-7.5h-30v-22.4h32v-7.6h-40.6V337h8.6zM292.4 303.8c0-20.1-12.6-34.2-30-34.2-17.5 0-30 14-30 34.2 0 20 12.5 34.2 30 34.2 17.4 0 30-14.2 30-34.2zm-8.6 0c0 15.6-8.6 26.5-21.5 26.5-12.8 0-21.4-10.9-21.4-26.5s8.6-26.5 21.4-26.5c12.9 0 21.5 11 21.5 26.5zM324.6 308.9l19 28.1h9.8l-19.6-28.4c10.4-1.4 17-7.7 17-18.7 0-12.6-8.5-19.3-21.8-19.3h-24.7V337h8.5V309h11.8zm-11.8-30.8h16c8.7 0 13.5 4.4 13.5 11.8 0 7.3-4.8 11.8-13.6 11.8h-15.9V278zM192.3 364.3h-8.6v66.4h8.6v-66.4zM202.6 413.4c2.5 11.7 12.3 18.3 25.5 18.3s23-7.3 23-19.3c0-9.4-6-15.1-16.6-17.8l-11.3-3c-7-1.8-10.6-4.5-10.6-10.1 0-6.8 5.8-11 13.7-11 8.8 0 13.7 4.4 15.8 10.3h8.5c-2.4-10.5-10.6-17.5-24.3-17.5-12.6 0-21.9 7.6-21.9 18.8 0 10 6.7 14.7 16 17.1l11.9 3.2c7.6 2 10.6 5.3 10.6 10.5 0 7.3-6.1 11.5-14.8 11.5-8 0-14.4-3.6-16.8-11h-8.7zM263 430.7h42.5V423h-33.9v-58.7h-8.5v66.4zM326.1 364.3h-8.5v66.4h8.5v-66.4zM393.5 364.3h-8v50.5L350 364.3h-8v66.4h8.1V378l37.1 52.8h6.3v-66.4zM455.3 405.3c-1 11.6-7.8 18.8-19.3 18.8-13.3 0-22-10.7-22-26.6 0-16 8.9-26.5 21.7-26.5 9.4 0 14.9 5 17.7 12.8h8.5c-2.7-12.4-12-20.5-26.2-20.5-17 0-30.3 13.4-30.3 34.2 0 20.8 13.2 34.2 30.6 34.2 16.2 0 27.4-11.5 27.4-29.2v-4.6h-24v7.4h16zM467.8 371.8h23.1v59h8.6v-59h23.1v-7.5h-54.8v7.5zM586.5 397.5c0-20.1-12.6-34.2-30-34.2-17.5 0-30 14-30 34.2 0 20 12.5 34.2 30 34.2 17.4 0 30-14.2 30-34.2zm-8.6 0c0 15.6-8.6 26.5-21.5 26.5-12.8 0-21.4-11-21.4-26.5 0-15.6 8.6-26.5 21.4-26.5 12.9 0 21.5 11 21.5 26.5zM650 364.3H642v50.5l-35.4-50.5h-8.1v66.4h8.2V378l37.1 52.8h6.3v-66.4zM629.8 142V90.8h12.7c15 0 24 10 24 25.7 0 15.5-9 25.5-24 25.5h-12.7zm-8.5 7.7h21.3c19.5 0 32.2-13 32.2-33.2 0-20.3-12.7-33.3-32.2-33.3h-21.3v66.5zM695.4 83.2h-8.6v66.5h8.6V83.2zM757.1 124.2c-1 11.6-7.8 18.9-19.4 18.9-13.2 0-22-10.7-22-26.6 0-16 9-26.6 21.8-26.6 9.4 0 14.8 5 17.7 12.8h8.5c-2.7-12.3-12-20.4-26.2-20.4-17 0-30.3 13.4-30.3 34.2 0 20.7 13.2 34.2 30.5 34.2 16.3 0 27.5-11.5 27.5-29.3V117h-24v7.3H757zM785.7 83.2h-8.5v66.5h8.5V83.2zM796.8 90.8H820v58.9h8.5V90.8h23.2v-7.6h-54.9v7.6zM877.3 83.2l-26 66.5h8.7l7.6-20h27.3l7.7 20h8.7l-26-66.5h-8zm3.9 10.6l10.8 28.4h-21.6l10.8-28.4zM921.4 149.7h42.4V142H930V83.2h-8.6v66.5zM469.5 244.3c15.1 0 26-9 26-27.2v-40.2H487v39c0 14.3-6.8 20.9-17.5 20.9s-17.6-6.6-17.6-20.8v-39h-8.4v40c0 18.2 11 27.3 26 27.3zM535.2 216.7c13.4 0 21.9-6.9 21.9-19.9 0-13-8.5-19.9-21.9-19.9h-24.9v66.5h8.6v-26.7h16.3zm13.4-19.9c0 7.5-4.6 12.4-13.6 12.4h-16.1v-24.8h16c9 0 13.7 4.9 13.7 12.4zM563.2 226c2.5 11.7 12.4 18.3 25.6 18.3 13.2 0 23-7.2 23-19.2 0-9.4-6-15.2-16.6-17.9l-11.4-3c-7-1.7-10.6-4.5-10.6-10 0-6.9 5.8-11 13.7-11 8.8 0 13.8 4.3 15.8 10.3h8.6c-2.5-10.5-10.6-17.6-24.4-17.6-12.5 0-21.8 7.6-21.8 18.9 0 10 6.7 14.7 15.9 17l11.9 3.2c7.7 2 10.6 5.3 10.6 10.5 0 7.4-6 11.6-14.7 11.6-8.1 0-14.4-3.7-16.9-11h-8.7zM632.3 177h-8.6v66.4h8.6v-22.7l7.1-7.6 25 30.3H675l-29.4-36.2L674 177h-10.8l-31 33.2V177zM693.3 177h-8.5v66.4h8.5v-66.5zM709.1 243.4h42.4v-7.7h-33.9v-58.8h-8.5v66.5zM763.6 243.4h42.5v-7.7h-34v-58.8h-8.5v66.5zM826.7 177h-8.5v66.4h8.5v-66.5zM894 177h-8v50.5l-35.4-50.6h-8.1v66.5h8.2v-52.8l37.1 52.8h6.3v-66.5zM955.9 218c-1 11.5-7.8 18.8-19.4 18.8-13.2 0-22-10.8-22-26.7 0-15.9 9-26.5 21.8-26.5 9.4 0 14.8 5 17.6 12.8h8.6c-2.7-12.3-12-20.5-26.2-20.5-17 0-30.3 13.5-30.3 34.2 0 20.8 13.2 34.2 30.5 34.2 16.2 0 27.5-11.4 27.5-29.2v-4.5h-24v7.3h15.9zM497.2 496.3l19 28.1h9.7l-19.5-28.5c10.3-1.4 16.8-7.6 16.8-18.7 0-12.5-8.4-19.2-21.7-19.2h-24.7v66.4h8.6v-28.1h11.8zm-11.8-30.9h15.9c8.7 0 13.5 4.5 13.5 11.8 0 7.4-4.8 11.8-13.5 11.8h-16v-23.6zM536.5 458v66.4h42.3v-7.7H545v-22.6h30.7v-7.6H545v-21h33.8V458h-42.3zM586.8 507c2.5 11.8 12.3 18.4 25.5 18.4s23-7.3 23-19.3c0-9.4-6-15.1-16.6-17.8l-11.3-3c-7-1.8-10.6-4.5-10.6-10.1 0-6.9 5.8-11 13.7-11 8.8 0 13.8 4.4 15.8 10.3h8.6c-2.5-10.5-10.6-17.5-24.4-17.5-12.5 0-21.9 7.6-21.9 18.8 0 10 6.8 14.7 16 17.1l11.9 3.1c7.6 2 10.6 5.3 10.6 10.5 0 7.4-6.1 11.6-14.8 11.6-8 0-14.3-3.7-16.8-11h-8.7zM655.8 458h-8.5v66.4h8.5V458zM680.1 516.7v-51.2h12.7c15 0 24 10 24 25.7 0 15.6-9 25.5-24 25.5H680zm-8.5 7.7h21.3c19.5 0 32.3-13 32.3-33.2 0-20.3-12.8-33.2-32.3-33.2h-21.3v66.4zM737.1 458v66.4h42.3v-7.7h-33.9v-22.6h30.8v-7.6h-30.8v-21h34V458H737zM844.4 458h-8.1v50.5L800.9 458h-8.1v66.4h8.2v-52.8l37.1 52.8h6.3V458zM855.6 465.5h23.1v58.9h8.6v-58.9h23.1V458h-54.8v7.5zM915.5 507c2.5 11.8 12.3 18.4 25.5 18.4s23-7.3 23-19.3c0-9.4-6-15.1-16.6-17.8l-11.4-3c-6.9-1.8-10.6-4.5-10.6-10.1 0-6.9 5.9-11 13.8-11 8.7 0 13.7 4.4 15.8 10.3h8.5C961 464 953 457 939.2 457c-12.6 0-21.9 7.6-21.9 18.8 0 10 6.7 14.7 16 17.1L945 496c7.7 2 10.6 5.3 10.6 10.5 0 7.4-6 11.6-14.7 11.6-8.1 0-14.4-3.7-16.9-11h-8.6z" fill="#000"/><path fill-rule="evenodd" clip-rule="evenodd" d="M377 164.2c23.6-11.5 37.8-27.3 37.8-44.4 0-17.1-14.2-32.9-37.8-44.4a216 216 0 00-92.2-18.6 216 216 0 00-92.1 18.6c-23.6 11.5-37.9 27.3-37.9 44.4 0 17.1 14.3 32.9 37.9 44.4a216 216 0 0092.1 18.6c36 0 68.6-7.1 92.2-18.6zm-92.2 19.4c72.3 0 130.9-28.6 130.9-63.8C415.7 84.6 357 56 284.8 56 212.6 56 154 84.6 154 119.8c0 35.2 58.6 63.8 130.8 63.8z" fill="#000"/></svg>
