<svg xmlns="http://www.w3.org/2000/svg" fill="none" viewBox="0 0 1117 600"><path fill="#7BFFAA" d="M0 0h1117v600H0V0z"/><path fill="#000" d="M992.86 515.91c-.22 2.6-1.74 4.23-4.31 4.23-2.94 0-4.89-2.4-4.89-5.97s1.97-5.95 4.84-5.95c2.1 0 3.3 1.12 3.92 2.87h1.9c-.6-2.77-2.67-4.59-5.82-4.59-3.78 0-6.74 3-6.74 7.67 0 4.66 2.94 7.67 6.79 7.67 3.6 0 6.11-2.58 6.11-6.56v-1.01h-5.34v1.64h3.54zM1001.84 515.3l4.24 6.32h2.17l-4.36-6.38c2.31-.32 3.76-1.73 3.76-4.2 0-2.82-1.88-4.32-4.84-4.32h-5.5v14.9h1.91v-6.31h2.62zm-2.62-6.9h3.54c1.95 0 3.01.99 3.01 2.64 0 1.65-1.06 2.64-3.01 2.64h-3.54v-5.29zM1010.6 506.72v14.9h9.42v-1.73h-7.54v-5.07h6.84v-1.7h-6.84v-4.7h7.54v-1.7h-9.42zM1027.52 506.72l-5.78 14.9h1.93l1.68-4.5h6.09l1.71 4.5h1.93l-5.78-14.9h-1.78zm.86 2.38l2.41 6.35h-4.81l2.4-6.35zM1034.98 508.42h5.15v13.2h1.91v-13.2h5.15v-1.7h-12.21v1.7zM1049.68 506.72v14.9h9.41v-1.73h-7.54v-5.07h6.84v-1.7h-6.84v-4.7h7.54v-1.7h-9.41zM1066.59 515.3l4.24 6.32h2.17l-4.36-6.38c2.31-.32 3.75-1.73 3.75-4.2 0-2.82-1.87-4.32-4.83-4.32h-5.49v14.9h1.9v-6.31h2.62zm-2.62-6.9h3.54c1.95 0 3.01.99 3.01 2.64 0 1.65-1.06 2.64-3.01 2.64h-3.54v-5.29zM986.38 545.75l-4.62 11.2h.58l1.6-3.9h5.37l1.62 3.9h.58l-4.62-11.2h-.5zm.25.78l2.46 5.97h-4.93l2.47-5.97zM997.67 557.1c2.37 0 4.36-1.46 4.36-4.54v-6.81h-.58v6.72c0 2.79-1.7 4.1-3.78 4.1-2.09 0-3.74-1.31-3.74-4.1v-6.72h-.58v6.8c0 3.1 1.95 4.55 4.32 4.55zM1004.16 546.3h4.37v10.66h.58V546.3h4.38v-.55h-9.33v.55zM1024.33 545.75v5.15h-7.9v-5.15h-.58v11.2h.58v-5.5h7.9v5.5h.58v-11.2h-.58zM1037.49 551.35c0-3.47-2.14-5.75-5.02-5.75-2.85 0-5.02 2.28-5.02 5.75s2.17 5.75 5.02 5.75c2.88 0 5.02-2.28 5.02-5.75zm-.6 0c0 3.09-1.8 5.2-4.42 5.2-2.59 0-4.41-2.11-4.41-5.2 0-3.08 1.82-5.2 4.41-5.2 2.62 0 4.42 2.12 4.42 5.2zM1043.87 551.85l3.53 5.1h.68l-3.54-5.12c1.87-.19 2.96-1.2 2.96-3.03 0-2-1.32-3.05-3.52-3.05h-3.95v11.2h.59v-5.1h3.25zm-3.25-5.55h3.32c1.94 0 2.97.87 2.97 2.5 0 1.6-1.03 2.52-2.97 2.52h-3.32v-5.02zM1051.12 545.75h-.58v11.2h.58v-11.2zM1053.49 546.3h4.36v10.66h.59V546.3h4.38v-.55h-9.33v.55zM1068.5 551.54l-3.85-5.8h-.66l4.21 6.33v4.89h.59v-4.9l4.21-6.31h-.64l-3.86 5.79zM982.52 540.76h9.91v-2.73h-6.84V525.9h-3.07v14.85zM1008.46 533.34c0-4.46-2.88-7.67-6.97-7.67-4.1 0-6.94 3.22-6.94 7.67 0 4.42 2.85 7.66 6.94 7.66s6.97-3.24 6.97-7.66zm-3.09 0c0 2.9-1.53 4.9-3.88 4.9-2.32 0-3.83-2-3.83-4.9 0-2.9 1.51-4.91 3.83-4.91 2.35 0 3.88 2 3.88 4.9zM1024.13 525.91h-2.95v9.38l-6.48-9.38h-2.88v14.85h2.95v-9.9l6.94 9.9h2.42v-14.85zM1031.23 538.03v-9.41h2.04c2.8 0 4.33 1.81 4.33 4.72 0 2.87-1.53 4.69-4.33 4.69h-2.04zm-3.04 2.73h5.19c4.46 0 7.26-2.9 7.26-7.42 0-4.53-2.8-7.43-7.26-7.43h-5.19v14.85zM1057.33 533.34c0-4.46-2.88-7.67-6.97-7.67s-6.94 3.22-6.94 7.67c0 4.42 2.85 7.66 6.94 7.66s6.97-3.24 6.97-7.66zm-3.09 0c0 2.9-1.53 4.9-3.88 4.9-2.32 0-3.83-2-3.83-4.9 0-2.9 1.51-4.91 3.83-4.91 2.35 0 3.88 2 3.88 4.9zM1073 525.91h-2.95v9.38l-6.48-9.38h-2.88v14.85h2.95v-9.9l6.94 9.9h2.42v-14.85zM77.8 499.37c6.4 0 12.67 1.88 18 5.4a32.12 32.12 0 0111.92 14.38 31.74 31.74 0 01-7.02 34.93 32.7 32.7 0 01-35.3 6.95 32.32 32.32 0 01-14.53-11.8 31.81 31.81 0 01-5.45-17.81 31.92 31.92 0 019.5-22.65 32.6 32.6 0 0122.88-9.4zm0-4.37c-7.28 0-14.4 2.14-20.44 6.14a36.5 36.5 0 00-13.56 16.34 36.07 36.07 0 00-2.1 21.04 36.3 36.3 0 0010.08 18.65 36.92 36.92 0 0018.84 9.97c7.14 1.4 14.54.68 21.27-2.07a36.73 36.73 0 0016.51-13.42 36.15 36.15 0 00-4.58-45.98A37.14 37.14 0 0077.8 495z"/><path fill="#000" d="M83.73 528.88a3.26 3.26 0 01-2.41-5.45 9.59 9.59 0 104.7 4.52c-.61.6-1.43.93-2.29.93z"/><path fill="#000" d="M97.2 532.17c-.63 0-1.26-.17-1.8-.5a6 6 0 01-2.74-5.45v-5.53c0-.96-.37-1.88-1.05-2.56a3.55 3.55 0 00-2.52-1.07h-5.44c-3.13 0-4.67-1.63-5.36-2.77a3.5 3.5 0 01-.5-1.84c.01.66-.16 1.31-.5 1.88a5.94 5.94 0 01-5.36 2.77H66.5c-.95 0-1.86.38-2.53 1.06a3.67 3.67 0 00-1.05 2.57v5.53c0 3.18-1.62 4.74-2.74 5.44a3.4 3.4 0 01-1.81.5c.64 0 1.27.18 1.82.51 1.11.7 2.73 2.27 2.73 5.45v5.52a3.69 3.69 0 002.2 3.36c.44.18.9.27 1.38.27h5.42c3.13 0 4.67 1.64 5.36 2.78.33.55.5 1.19.5 1.83 0-.65.16-1.28.5-1.84a5.95 5.95 0 015.36-2.77h5.43c.95 0 1.86-.38 2.53-1.06a3.67 3.67 0 001.05-2.57v-5.56a6.1 6.1 0 012.73-5.44 3.43 3.43 0 011.83-.51zm4.37 0v.9c0 1.18-.6 1.6-1.56 2.17-.97.57-2.35 1.75-2.35 4.43v4.58c0 6.79-5.09 8.11-7.03 8.11H85.2c-2.65 0-3.81 1.36-4.36 2.38-.54 1.03-.97 1.6-2.14 1.6H76.9c-1.16 0-1.58-.62-2.14-1.6-.56-.98-1.71-2.38-4.36-2.38h-4.5c-6.7 0-7.99-5.16-7.99-7.14v-5.5c0-2.7-1.34-3.88-2.35-4.43-1-.56-1.53-1.04-1.53-2.22v-1.77c0-1.18.6-1.6 1.57-2.17.97-.57 2.35-1.75 2.35-4.43v-4.62c0-6.8 5.05-8.08 7.03-8.08h5.42c2.65 0 3.81-1.35 4.36-2.38.54-1.03.98-1.59 2.13-1.59h1.78c1.16 0 1.58.6 2.14 1.59.55.98 1.72 2.38 4.36 2.38h4.5c6.69 0 7.99 5.17 7.99 7.14v5.52c0 2.68 1.34 3.86 2.35 4.42 1 .56 1.56 1 1.56 2.17v.9M799.6 527.69c-.93.06-2.12 1.2-2.44 2.11 0-.54-.12-1.63.44-2.47-.56-.06-.56-.73-1.13-1.03.44-.18 1.2.12 1.26.24.75.73 1.44 1.09 2.5.55-.12.3-.3.42-.62.6zm-.74-2.54c.37-.6.5-1.02.12-1.57-.5.3-.94.85-1.07 1.51 0-.36 0-.48-.25-.54-.3.66-.25 1.45.32 1.87-.25-.54-.19-1.03.44-1.5-.57.72-.44 1.8.25 2.1-.82-1.2 1.19-1.32 1.31-2.3-.69.13-.94.25-1.12.43zm-2.7 3.45c-.19.24-.13.48.06.66.06-.24.19-.36.38-.54-.19 0-.32-.06-.44-.12zm.56-1.4c-.5.25-.75.37-.81.55.19-.54.19-.9-.25-1.33-.32.36-.57.97-.57 1.51-.06-.3-.12-.36-.37-.42-.13.6.06.84.56 1.2-.12-.3-.12-.54.06-1.02-.12.66 0 1.33.76 1.63-.88-.79.75-1.33.62-2.11zm2.2 11.66c.12-.06.25-.12.31-.3-.25-.12-.5-.36-.75-.6.06.3.25.6.44.9zm-.25-1.2a1.2 1.2 0 01-.88-.67c.06.37.19.6.31.79-.25.12-.56.06-.81-.12.31.6.81.84 1.44 1.2-.25-.3-.31-.6-.38-.9a.75.75 0 00.32-.3zm8.34.36c-.2.24-.44.42-.7.6.07.18.2.25.32.3.19-.36.38-.66.38-.9zm.19-.06c-.07.3-.2.54-.44.9.62-.36 1.13-.6 1.5-1.14a.9.9 0 01-.88.12c.2-.24.25-.49.32-.79-.2.37-.5.6-.88.67.12.06.25.18.38.24zm-3.52.84v.13h.07c.06 0 .06 0 .06-.06-.06-.07-.06-.13-.13-.07zm2.76-1.75a5.4 5.4 0 01-3.63 1.4 5.4 5.4 0 01-3.64-1.4c-.06.3-.25.73-.5.85a6.16 6.16 0 004.2 1.57 6 6 0 004.2-1.57c-.31-.12-.63-.54-.63-.85zm-6.08 1.75l-.13-.06.07-.24-.19.18-.13-.06.07-.48.12.06-.06.24.25-.18.13.06-.07.24.2-.18.12.06-.38.36zm.94-.12l-.19-.06v.06l.2.06v.13l-.2-.07v.07l.2.05v.13l-.32-.13.12-.42.32.12-.13.06zm1 .25c.07.06.13.06.13.18 0 .06-.06.12-.19.12-.06 0-.06 0-.12-.06v-.12c.06.06.06.06.12.06h.06s0-.06-.06-.06c-.06-.06-.12-.06-.06-.13 0-.05.06-.12.19-.12.06 0 .12 0 .12.07v.12c-.12-.13-.12-.13-.19-.07-.06-.05 0-.05 0 0 0 0-.06 0 0 0zm.5.3v-.49h.32v.13h-.19v.05h.19v.13h-.19v.06h.19v.12h-.31zm1.07-.12l-.06-.12c-.06-.07-.06-.07-.13-.07v.19h-.18l-.07-.49h.2c.12 0 .18 0 .24.12 0 .06 0 .06-.06.13l.06.05v.19zm.75-.12l-.12.06-.32-.37.2-.06.18.25v-.3l.13-.07-.07.49zm.5-.19l-.18-.42.31-.12.06.06-.18.06.06.06.19-.06.06.06-.19.06.06.06.2-.06.06.06-.44.24zm-6.01-4.28c-.13.72-.7 1.02-1.38 1.2.88-.42 1.44-1.26 1.13-2.17.18 1.45-1.7.66-2.26 1.45.63.18.94.24 1.19.18-.63.36-.94.67-.88 1.33a2.48 2.48 0 001.7-.9c-.2.36-.2.42 0 .6.5-.37.75-.9.5-1.7zm-1-2c.37.18.56.18.93.06-.25-.54-.5-.72-1-.84.5-.06.69-.3.69-.73-.88.18-2.32-.3-1.5-3.14-1.2 1.45-.5 3.75.37 5.01a4.74 4.74 0 01-1.19-3.62 3.32 3.32 0 00-.25 2c.13.72.06 1.26-.38 1.69.32.05.63-.07.94-.3-.18.42-.18.96.07 1.32.31-.12.5-.36.56-.66.13.06.94.54.82 1.02.5-.24.5-.66.37-1.02a1.77 1.77 0 00-.44-.79zm8.9 3.75c.19-.18.12-.3-.07-.6.44.54 1.13.84 1.7.9.06-.67-.25-.97-.88-1.33.25.06.5 0 1.2-.18-.57-.79-2.46 0-2.27-1.45-.31.9.25 1.75 1.13 2.17-.75-.18-1.25-.48-1.38-1.2-.25.72-.06 1.26.57 1.69zm-4.83-8.94c-.25.18-.38.6-.13.84.25-.18.32-.54.13-.84zm-.13-.06c-.25-.18-.69-.12-.87.12.3.18.69.12.87-.12zm1.07.12c-.19-.3-.63-.3-.88-.12.19.24.57.3.88.12zm.88-1.63c0-.3-.07-.55-.25-.79h-.57c.25.24.32.48.32.79h.5zm0 .3h-.5c-.07.42-.25.97-.13 1.63.19-.06.31-.06.5-.06-.06-.6.06-1.15.13-1.57zm5.39 3.32c.75-.36.88-1.03.75-1.63.19.42.25.66.07 1.03.43-.37.62-.6.56-1.21-.19 0-.25.12-.31.42 0-.6-.2-1.15-.57-1.5-.44.41-.38.78-.25 1.32-.13-.18-.31-.3-.81-.54-.13.72 1.5 1.26.56 2.11zm.31 3.57c-.44-.43-.56-.97-.37-1.7.12-.42.18-1.02-.07-1.75-.18.06-.5.12-.75.12-.12 1.27-1.06 1.57-1.75 1.45 0 .36.25.67.69.73-.44.12-.76.3-1 .84.37.12.56.12.93-.06-.12.12-.31.37-.56.73-.13.36-.13.78.38 1.02-.07-.48.75-.96.81-1.02.06.3.25.54.56.66.32-.36.25-.9.07-1.33.5.25.81.3 1.06.3zm-1.75-.37c.75-.54.94-1.33 1.06-2.6.2 1.64-.25 2.18-1.06 2.6zm.56-4.17h.5c-.18-.3-.44-.6-.69-.66l.2.66zm-7.65-3.92c-.06 0-.12.06-.12.12s.06.12.12.12h3.89c.06 0 .13-.06.13-.12s-.07-.12-.13-.12h-3.89zm4.7.24c.13.97 2.2 1.09 1.32 2.3.7-.3.82-1.4.25-2.12.63.42.63.97.44 1.51.56-.42.63-1.27.31-1.87-.25.06-.25.18-.25.54a2.44 2.44 0 00-1.13-1.57c-.37.6-.25.97.13 1.57-.13-.12-.44-.24-1.06-.36zm-1.44 1.27c.25 1.27 1.7 1.39 2.57 1.15.2-.25.25-.49.13-.79-.63.36-1.7.12-1.82-.6-.06-.49 0-.67-.19-.97l-1 .06c.38.18.25.85.31 1.15zm.38-.6c.19.84.44 1.08 1.25 1.32-1 0-1.25-.42-1.25-1.33zm.25-1.4h-.06c.06.07.18.13.25.25-.19-.13-.32-.25-.5-.25H804c.06.07.18.13.25.25-.19-.13-.32-.25-.5-.25h-.44c.06.07.19.13.25.25-.19-.13-.31-.25-.5-.25h-.44c.06.07.19.13.25.25-.19-.13-.32-.25-.5-.25h-.44c.06.07.19.13.25.25-.19-.13-.31-.25-.5-.25h-.44c.06.07.19.13.25.25-.19-.13-.31-.25-.5-.25h-.2c-.12 0-.24.13-.24.25s.12.24.25.24h3.95c.13 0 .25-.12.25-.24 0-.13-.13-.25-.25-.25zm-2.82-1.45v.19c-.06.96-1.32 1.02-1.32.06-.25 1.45 1.82 1.57 1.82.18 0-.12 0-.3-.06-.43h-.44zm.94-.12h1.31l.2-.24h-.76c.13-.72.56-1.33 1.13-1.81l-1.82.6v.73l.82-.6c-.25.3-.44.66-.57 1.02h-.31v-1.45l.19.12-.32-1.27-.25 1.27.19-.12v1.57h-.31a2.77 2.77 0 00-.57-1.02l.82.6v-.73l-1.82-.6c.56.48 1 1.15 1.13 1.81h-.75l.18.25h1.32v.6l-.13.12v.66l.13-.12v.12h.19v-.12l.12.12v-.66l-.12-.12v-.73zm2.07.37c0 .9-1.32.84-1.38-.12v-.13h-.44c0 .13-.06.25-.06.43 0 1.39 2.13 1.27 1.88-.18zm-.25 4.35a1.44 1.44 0 01-.44-.43 3.5 3.5 0 000 1.15c-.44 0-.88.12-1.38.3-.75.3-1.26.3-1.7.06.57-1.02-.25-2.41.38-3.38l-.5-.06c-.63.9.13 2.18-.25 3.14-.06-.06-.13-.12-.19-.12l-.31.36c.5.49 1.44 1.03 2.5.55.82-.37 1.51-.55 2.26-.19l.2-.48c-.13-.06-.26-.12-.45-.12-.12-.3-.12-.54-.12-.78zm-4.14-1.51c-.63.6-1.44.84-1.82.66-.19.18-.19.54.13.79.43.24 1 .18 1.81-.25a7.16 7.16 0 01-.12-1.2zm-.44 2.71l-.19-.18.57-.6c.06.06.06 0 .12.06.06-.18.06-.42.06-.66a4.49 4.49 0 01-2 1.38h1.44zm-1.5.06c-.5.43-.76.79-1 1.27.24 0 .43-.06.68-.12-.31.24-.44.67-.75.9.44.13.75.07 1 0l.07-2.05zm9.71 1.45v-.24h-.12c.06.06.12.12.12.24zm-.44-2.47c.57-.06.57-.73 1.13-1.03-.44-.18-1.19.12-1.25.24-.63.6-1.2.9-1.88.79-.19 0-.31-.06-.44-.06.19.18.38.3.56.36.38 0 .76.24 1.13.48.38.12.75.18 1.2.18-.13-.3-.26-.66-.45-.96zm1.57 1.2a5.32 5.32 0 01-4.32-1.32c-.07 0-.13-.06-.2-.06 0 .18.07.36.13.54l.57.18-.2.42h1.64v1.82c.31.12.56.24.75.42.13-.42.06-.85-.25-1.27.56.18 1 .24 1.7-.06.06 0 .43-.24.18-.66zM801 530c0-.37-.32-.67-.63-.67-.38 0-.69.3-.69.66 0 .37.31.6.69.6.31.07.63-.23.63-.6zm2.5 0v-.19c-.3.3-1 .3-1.31 0v.19c0 .36.31.66.69.66.31 0 .63-.3.63-.66zm-1.31-5.38c-.31.36-.25.97-.19 1.63l.06.78c0 .07.07.13.13.13s.12-.06.12-.13l-.06-.78c-.06-.6-.12-1.2.13-1.51.06-.06 0-.12 0-.12h-.2zm-1.82 4.77c-.38 0-.69.3-.69.66 0 .37.31.6.69.6.38 0 .63-.3.63-.6 0-.36-.32-.66-.63-.66zm4.95 0c-.37 0-.69.3-.69.66 0 .37.32.6.7.6.37 0 .62-.3.62-.6 0-.36-.25-.66-.63-.66zm1.57 1.57v-2.42h-1.63l-.06.13c-.19-.06-.32-.06-.44-.13a1.8 1.8 0 00-1.13 0h.06c-.25.07-.62.25-.87.3a2.4 2.4 0 01-2.32-.3h-1.76v2.42h.13c0 .24-.07.48-.13.67v.36c.19.12.31.36.44.66v-.3h.06c.25 0 .44.06.57.12.18.06.31.18.62.18.32 0 .5-.06.63-.18.13-.06.25-.12.56-.12h.25l.2.48c-.07 0-.07 0-.13.06-.13.07-.32.13-.44.07l-.13-.07v.37h-.06v.18l-1.25-.54.31.24.82.96-.2.06c-.12.06-.24.12-.5.12-.25 0-.37-.06-.5-.12-.12-.06-.25-.12-.56-.12h-.06a4.45 4.45 0 01-.2-1.27v-.06c-.18.06-.3.12-.43.12v.43c0 .06.06.06.06.12.44.66.63 1.27.57 1.75.75 1.39 2 2.54 3.45 3.02a6.5 6.5 0 003.38-2.9c-.06-.54.06-1.15.57-1.93.06-.06.06-.12.12-.24v-.3c-.12 0-.25 0-.44-.13v.06c0 .43-.06.85-.19 1.27h-.06c-.31 0-.44.06-.56.12a1 1 0 01-.5.12c-.25 0-.38-.06-.5-.12-.07 0-.13-.06-.2-.06l1.07-1.2-.37.17-.95.43v-.24h-.06v-.3l-.12.06c-.13.05-.25 0-.44-.07h-.06l.25-.48c.06 0 .18-.06.31-.06.25 0 .44.06.56.12.13.06.32.18.63.18.32 0 .5-.06.63-.18.12-.06.25-.12.56-.12v.24c.13-.3.25-.54.44-.66v-.3a1.25 1.25 0 01-.19-.73c.07 0 .13.06.2.06zm-1.57-1.87c.5 0 .94.42.94.9 0 .49-.43.91-.94.91-.5 0-.94-.42-.94-.9 0-.49.44-.91.94-.91zm-3.2.3c.13.24.38.42.76.42.31 0 .56-.18.69-.42.19.18.25.36.25.6 0 .49-.44.91-.94.91-.57 0-1-.42-1-.9 0-.25.06-.43.25-.6zm-1.75-.3c.5 0 .94.42.94.9 0 .49-.44.91-.94.91a.95.95 0 01-.94-.9c0-.49.38-.91.94-.91zm1.25 3.02c-.3 0-.5.06-.62.18-.13.06-.25.12-.57.12-.25 0-.44-.06-.56-.12-.19-.06-.32-.18-.63-.18h-.06v-.67h2.32l.19.37.12.3h-.19zm.38.12c.19.12.38.3.38.3l.37.37c-.19-.13-.37-.13-.5-.13l-.25-.54zm-.44 1.09v-.18c.13 0 .32 0 .44-.06.19-.07.44-.13.69 0v1.45c-.25-.13-.5-.06-.75 0-.13.06-.25.06-.38.06v-1.27zm-.75.06c.19.12.44.18.56.24v.36c-.12-.12-.37-.42-.56-.6zm.5 1.02v.37c-.12.06-.31.18-.56.24l.56-.6zm-1.88-.18c.25 0 .38.06.5.12.13.06.32.13.57.13.3 0 .43-.07.56-.13h.06l-1.06 1.21 1.25-.54v.18h.94l-.31.73h-.06c-.26 0-.38.06-.5.18-.13.06-.2.12-.45.12a.92.92 0 01-.43-.12h-.07c-.44-.6-.81-1.21-1-1.88zm3.32 1.27l-.06.06-.56.49-.2.18c.07-.06.07-.18.07-.18l.38-.91h.12c.06.06.13.12.19.12.13 0 .19-.06.25-.12h.13l.37.9s.07.13.07.19c-.13-.06-.2-.18-.2-.18l-.56-.55zm.44.6c-.12.07-.19.13-.37.13-.2 0-.32-.06-.38-.12.13-.13.31-.25.38-.3.06 0 .25.18.37.3zm-.44 1.52a4.69 4.69 0 01-2-1.27h.12c.25 0 .38-.06.5-.18.13-.06.2-.12.38-.12l-.13.48-.18.42.81-.72h.06c.13.06.25.18.5.18.26 0 .38-.06.5-.18l.82.72-.37-.84c.18 0 .25.06.37.12.13.06.25.18.5.18h.13a5.2 5.2 0 01-2 1.2zm1.44-4c.13-.05.38-.17.57-.23a8.4 8.4 0 01-.57.66h-.06v-.42h.06zm0 .73c.13.19.38.49.57.73-.25-.12-.44-.24-.57-.3v-.43zm0 .79v-.18l1.32.6s-.88-1.02-1.13-1.27c.07 0 .13.06.13.06.12.06.31.13.56.13.32 0 .44-.07.57-.13.12-.06.25-.12.5-.12a5.85 5.85 0 01-1.07 1.82H805c-.13.06-.19.12-.44.12-.19 0-.31-.06-.44-.12-.12-.06-.25-.18-.5-.18h-.06l-.31-.73h.93zm-.18-.18h-1.13v.06c0 .06-.06.06-.06.06-.07 0-.07 0-.07-.06v-.06h-1.13v-.18c.2.06.32 0 .5-.06.26-.06.44-.18.7 0h.12c.25-.18.5-.12.7 0 .12.06.3.12.5.06v.18H804zm-.5-1.87c.12.06.25.12.43.06v1.45c-.12 0-.25 0-.37-.06-.19-.06-.44-.19-.75 0v-1.45c.3-.19.5-.13.69 0zm.06-.85l-.25.6c-.13 0-.32 0-.5.06l.37-.3c0-.06.19-.24.38-.36 0 0 .06-.06 0 0zm.12 0h.07-.07zm-.62.18s-.2.12-.25.24l-.25-.24-1.07-.9h2.63l-.31.3-.75.6zm3.32-.3c-.31 0-.5.06-.63.18-.12.06-.25.12-.56.12-.25 0-.44-.06-.57-.12-.12-.06-.3-.18-.62-.18h-.2l.32-.67h2.26v.67zM819.98 526.43h-2.3v13.04h2.3v-13.04zM830.95 528.84a4.65 4.65 0 00-3.2-1.39c-1.27 0-2.13.66-2.13 1.59 0 2.57 5.86 2.5 5.86 6.8 0 2.11-1.6 3.63-3.8 3.63-1.46 0-2.66-.4-3.8-1.25v-2.45c1 1.26 2.27 1.98 3.6 1.98 1.54 0 2.2-.92 2.2-1.71 0-2.78-5.86-3.1-5.86-6.8 0-2.19 1.6-3.57 4.13-3.57 1.07 0 2.07.33 3 .92v2.25zM837.78 537.8h5.2v1.67h-6.9v-13.04h1.7v11.37zM847.58 526.43h-2.3v13.04h2.3v-13.04zM864.45 539.47h-1.63L854 529.39v10.08h-1.82v-13.04h1.56l8.96 10.09v-10.09h1.75v13.04zM879.78 538.35a11.74 11.74 0 01-5.1 1.12c-4.11 0-7.16-2.9-7.16-6.84s3.11-6.96 7.22-6.96c1.6 0 2.66.26 4.78 1.12v1.97a10.32 10.32 0 00-4.84-1.32 5.07 5.07 0 00-5.17 5.13c0 3.02 2.25 5.13 5.43 5.13 1.06 0 2-.27 2.92-.53v-2.76h-2.59v-1.71h4.51v5.65zM892.82 528.1h-4.16v11.37h-1.7V528.1h-4.1v-1.67h9.96v1.68zM895.58 532.57a5.06 5.06 0 015.26-5.13 5.02 5.02 0 015.25 5.13 5.06 5.06 0 01-5.25 5.13c-3 0-5.26-2.17-5.26-5.13zm-2 0c0 3.61 2.8 6.9 7.26 6.9 4.59 0 7.31-3.29 7.31-6.9 0-3.75-2.79-6.9-7.31-6.9-4.4.06-7.25 3.22-7.25 6.9zM923.49 539.47h-1.58l-8.28-10.08v10.08H912v-13.04h1.4l8.4 10.09v-10.09h1.7v13.04zM172.68 504.75c-.92.43-2.03.22-2.6-.55-.56-.77-.23-1.65.68-2.08.92-.43 2.04-.23 2.6.54.57.77.23 1.66-.68 2.09zM184.36 500.56l-.15-.98 3.08-.5.1.6c.35 2.37-.86 4.13-2.94 4.47-2.22.36-4.18-1.15-4.6-3.91-.42-2.77 1.02-4.83 3.2-5.18 1.81-.3 3.17.59 3.76 2.17l-1.1.18c-.51-.98-1.3-1.53-2.51-1.33-1.65.27-2.57 1.86-2.25 3.98.31 2.11 1.65 3.36 3.34 3.08 1.49-.24 2.22-1.35 2.1-2.9l-2.03.32zM191.48 504.17c-2.2-.3-3.55-2.41-3.22-5.08.32-2.7 2.13-4.35 4.33-4.05 2.2.3 3.56 2.39 3.24 5.08-.33 2.67-2.14 4.35-4.35 4.05zm.98-8.11c-1.6-.22-2.88 1.1-3.13 3.17-.25 2.08.66 3.7 2.27 3.91 1.63.22 2.9-1.09 3.15-3.17s-.66-3.69-2.29-3.91zM199.34 506.19c-1.77-.87-2.42-3.11-1.53-5.4.9-2.3 2.8-3.28 4.56-2.41 1.79.87 2.44 3.1 1.55 5.4-.89 2.29-2.8 3.28-4.58 2.4zm2.7-6.93c-1.3-.64-2.67.18-3.36 1.96-.7 1.78-.3 3.45 1 4.09 1.31.64 2.68-.18 3.37-1.95.69-1.78.3-3.46-1.02-4.1zM209.02 501.9l2.12 1.57c1.94 1.44 2.14 3.54.47 5.34a4.27 4.27 0 01-5.95.58l-2.12-1.57 5.48-5.92zm-2.73 6.8c1.5 1.1 3.2.88 4.48-.51 1.29-1.39 1.24-2.94-.26-4.05l-1.26-.93-4.22 4.55 1.26.94zM215.88 514.91l-2.67 1.83-.47-1.08 6.66-4.56 1.36 3.13c.73 1.7.51 3.23-.8 4.12-1.3.9-2.46.3-3.19-1.38l-.9-2.06zm4.12-.19l-.88-2.03-2.48 1.7.88 2.03c.49 1.13 1.23 1.38 1.98.87.76-.52 1-1.44.5-2.57zM218.82 521.9l-3.5.94-.28-1.08 8.25-2.23.8 3.12c.45 1.69-.1 2.98-1.67 3.4-1.37.37-2.36-.24-2.88-1.51l-2.88 3.43-.32-1.23 2.86-3.35-.38-1.5zm.9-.25l.52 2.01c.29 1.11 1 1.57 1.9 1.32.92-.25 1.31-1 1.03-2.1l-.53-2.01-2.92.78zM224.22 533.63l-7.64 2.77.03-1 2.3-.81.09-3.15-2.25-.94.02-1 7.47 3.21-.02.92zm-4.38-1.85l-.07 2.5 3.26-1.15-3.2-1.35zM218.8 542.75l-5.29 1.31.41-1.05 4.2-1.05-2.6-3 .4-1.02 3.25 3.76 5.08-1.26-.42 1.05-4 .98 2.49 2.88-.4 1.02-3.13-3.62zM212.74 546.32l.47-.72 6.43 3.12-.46.72-6.44-3.12zM213.26 549.8c-1-.33-1.95-.03-2.67.73-.76.81-.85 1.71-.06 2.28.55.4 1.17.4 2.06-.18l1.38-.87c1.07-.68 2.16-.95 3.24-.17 1.2.88 1.19 2.34.08 3.52-1.22 1.29-2.69 1.5-4.03.92l.76-.8c.81.27 1.72.14 2.5-.69.7-.74.77-1.6.04-2.13-.6-.44-1.22-.3-2.02.2l-1.32.84c-1.23.78-2.37.9-3.37.17-1.28-.94-1.2-2.41-.03-3.65 1.17-1.24 2.74-1.65 4.21-.98l-.77.81zM203.55 558.15c.73-.54 1.63-.28 2.07.68.45.96.19 2.06-.54 2.6-.73.53-1.64.29-2.09-.68-.44-.97-.17-2.07.56-2.6zM192.82 563.2l.16.82-3.06.46-.1-.5c-.39-1.96.8-3.45 2.86-3.76 2.21-.33 4.19.9 4.65 3.2.45 2.3-.95 4.04-3.12 4.36-1.8.27-3.17-.45-3.78-1.76l1.08-.16c.53.8 1.34 1.25 2.54 1.07 1.64-.24 2.54-1.58 2.19-3.34-.35-1.76-1.7-2.78-3.4-2.53-1.47.22-2.18 1.15-2.05 2.45l2.03-.3zM184.87 560.2a3.56 3.56 0 013.3 4.18 3.8 3.8 0 01-4.28 3.44 3.56 3.56 0 01-3.31-4.2 3.81 3.81 0 014.29-3.43zm-.87 6.76c1.62.16 2.87-.95 3.09-2.69.22-1.73-.72-3.06-2.33-3.22-1.63-.16-2.88.95-3.1 2.68-.22 1.74.71 3.07 2.34 3.23zM177.58 557.42c1.99.91 2.74 3.35 1.79 5.85-.96 2.52-3.06 3.63-5.05 2.72-2-.92-2.75-3.34-1.8-5.86.96-2.5 3.06-3.63 5.06-2.7zm-2.89 7.6c1.46.67 2.96-.24 3.7-2.2.75-1.95.28-3.77-1.17-4.44-1.47-.67-2.98.25-3.72 2.2-.74 1.95-.28 3.77 1.2 4.44zM168.25 563.24l-2.16-1.97c-1.97-1.79-2.2-4.45-.56-6.77 1.64-2.32 3.99-2.64 5.96-.84l2.15 1.96-5.4 7.62zm2.62-8.7c-1.52-1.38-3.22-1.05-4.49.73-1.26 1.79-1.18 3.76.34 5.15l1.28 1.16 4.15-5.87-1.28-1.16zM161.32 548.64l2.64-1.5.48.85-6.6 3.75-1.4-2.49c-.75-1.34-.54-2.56.76-3.3 1.29-.73 2.45-.28 3.2 1.06l.92 1.63zm-4.12.22l.9 1.6 2.47-1.4-.91-1.6c-.5-.9-1.25-1.09-2-.67-.74.43-.97 1.17-.46 2.07zM157.92 542.43l3.18-.98.27 1.06-7.5 2.33-.79-3.07c-.42-1.66.07-2.94 1.49-3.38 1.25-.39 2.16.2 2.65 1.44l2.6-3.43.3 1.21-2.57 3.36.37 1.46zm-.82.26l-.5-1.98c-.28-1.1-.93-1.53-1.76-1.27s-1.18 1-.9 2.1l.5 1.97 2.66-.82zM152.18 531.18l7.66-3.21-.01 1.1-2.31.95-.04 3.5 2.28 1-.01 1.12-7.58-3.44.01-1.02zm4.45 1.97l.03-2.76-3.27 1.33 3.24 1.43zM157.6 521.18l4.54-1.52-.34 1.16-3.61 1.22 2.3 3.27-.33 1.13-2.87-4.1-4.35 1.45.34-1.16 3.44-1.13-2.2-3.14.33-1.13 2.76 3.95zM162.9 517.88l-.44.89-6.45-3.72.45-.88 6.45 3.71zM163.16 514.46c.84.36 1.62 0 2.21-.84.62-.91.68-1.9.02-2.52-.47-.44-.98-.42-1.7.23l-1.15.98c-.88.77-1.78 1.08-2.68.23-1.02-.95-1.03-2.56-.12-3.88 1-1.44 2.2-1.7 3.33-1.08l-.61.9c-.69-.28-1.44-.13-2.07.8-.57.82-.62 1.78 0 2.36.5.47 1 .31 1.67-.26l1.09-.95c1-.88 1.95-1.02 2.8-.23 1.08 1.01 1.02 2.64.07 4.03-.95 1.38-2.26 1.86-3.49 1.14l.63-.91zM0 352h1117v1H0v-1zM0 469h1117v1H0v-1zM0 121h1117v1H0v-1zM0 236h1117v1H0v-1zM63.46 328.03V299.3h29.78v-7.53H63.46V269.5h31.71v-7.53H55v66.06h8.46zM162.6 295c0-20.01-12.44-34-29.79-34-17.25 0-29.67 13.99-29.67 34 0 19.9 12.42 34 29.67 34 17.35 0 29.78-14.1 29.78-34zm-8.47 0c0 15.5-8.57 26.36-21.32 26.36-12.64 0-21.21-10.87-21.21-26.36 0-15.5 8.57-26.36 21.21-26.36 12.75 0 21.32 10.87 21.32 26.36zM194.5 300.06l18.86 27.97H223l-19.39-28.3c10.28-1.4 16.71-7.63 16.71-18.61 0-12.48-8.35-19.15-21.53-19.15h-24.42v66.06h8.46v-27.97h11.67zm-11.67-30.67h15.74c8.68 0 13.4 4.41 13.4 11.73s-4.72 11.73-13.4 11.73h-15.74v-23.46zM400.75 214c15.02 0 25.85-9.04 25.85-27.11v-39.92h-8.47v38.84c0 14.1-6.76 20.66-17.38 20.66s-17.38-6.56-17.38-20.66v-38.84H375v39.8c0 18.2 10.83 27.23 25.75 27.23zM465.91 186.56c13.3 0 21.67-6.88 21.67-19.8 0-13.01-8.37-19.8-21.67-19.8h-24.67v66.07h8.47v-26.47h16.2zm13.3-19.8c0 7.43-4.6 12.27-13.51 12.27H449.7V154.4h15.99c8.9 0 13.51 4.84 13.51 12.38zM493.7 195.82c2.47 11.62 12.24 18.18 25.32 18.18 13.1 0 22.75-7.2 22.75-19.15 0-9.36-5.9-15.06-16.42-17.75l-11.26-2.91c-6.87-1.83-10.52-4.52-10.52-10.11 0-6.78 5.8-10.87 13.63-10.87 8.69 0 13.62 4.3 15.66 10.22h8.48C538.87 152.99 530.82 146 517.2 146c-12.45 0-21.67 7.53-21.67 18.72 0 10 6.65 14.63 15.77 17l11.8 3.12c7.62 1.94 10.51 5.27 10.51 10.44 0 7.31-6 11.51-14.59 11.51-8.04 0-14.26-3.66-16.73-10.97h-8.59zM562.13 146.97h-8.48v66.06h8.48v-22.49l7.08-7.63 24.78 30.12h10.51l-29.18-35.94 28.22-30.12H592.8L562.13 180v-33.03zM622.68 146.97h-8.47v66.06h8.47v-66.06zM638.3 213.03h42.06v-7.64h-33.58v-58.42h-8.48v66.06zM692.36 213.03h42.06v-7.64h-33.58v-58.42h-8.48v66.06zM754.9 146.97h-8.48v66.06h8.48v-66.06zM821.7 146.97h-8.06v50.25l-35.07-50.25h-8.05v66.06h8.15v-52.5l36.8 52.5h6.22v-66.06zM882.95 187.75c-.96 11.5-7.72 18.72-19.2 18.72-13.09 0-21.78-10.65-21.78-26.47 0-15.82 8.8-26.36 21.57-26.36 9.33 0 14.7 4.95 17.48 12.7h8.48c-2.68-12.27-11.91-20.34-25.96-20.34-16.85 0-30.04 13.34-30.04 34s13.09 34 30.25 34c16.1 0 27.25-11.4 27.25-29.05v-4.52h-23.82v7.32h15.77zM62.5 99V70.3h29.9v-7.52H62.5V40.52h31.84V33H54v66h8.5zM126.44 71.05L145.37 99h9.69l-19.48-28.27c10.33-1.4 16.78-7.63 16.78-18.6 0-12.47-8.39-19.13-21.62-19.13h-24.53v66h8.5V71.05h11.73zM114.7 40.42h15.82c8.71 0 13.44 4.4 13.44 11.71 0 7.31-4.73 11.72-13.44 11.72H114.7V40.42zM165.57 33v66h42.06v-7.63h-33.67V68.9h30.55v-7.52h-30.55V40.52h33.67V33h-42.06zM220.94 33v66H263v-7.63h-33.67V68.9h30.55v-7.52h-30.55V40.52H263V33h-42.06zM748.46 89.4V38.5h12.53c14.89 0 23.67 10 23.67 25.5s-8.78 25.4-23.67 25.4h-12.53zM740 97.02h21.1C780.37 97.03 793 84.12 793 64s-12.63-33.03-31.91-33.03H740v66.06zM813.3 30.97h-8.46v66.06h8.46V30.97zM874.41 71.75c-.96 11.51-7.7 18.72-19.17 18.72-13.06 0-21.74-10.65-21.74-26.47 0-15.82 8.78-26.36 21.53-26.36 9.32 0 14.67 4.95 17.45 12.7h8.46C878.27 38.07 869.06 30 855.03 30c-16.82 0-29.99 13.34-29.99 34s13.07 34 30.2 34c16.07 0 27.2-11.4 27.2-29.05v-4.52h-23.77v7.32h15.74zM902.72 30.97h-8.46v66.06h8.46V30.97zM913.71 38.5h22.92v58.53h8.46V38.5h22.92v-7.53h-54.3v7.53zM993.36 30.97l-25.7 66.06h8.56l7.5-19.9h27.09l7.61 19.9h8.56l-25.7-66.06h-7.92zm3.85 10.54l10.71 28.2H986.5l10.71-28.2zM1037.02 97.03H1079V89.4h-33.52V30.97h-8.46v66.06zM293.13 415.63l18.85 28.39h9.63l-19.38-28.72c10.28-1.42 16.7-7.75 16.7-18.88 0-12.67-8.35-19.44-21.52-19.44H273v67.04h8.46v-28.39h11.67zm-11.67-31.11h15.74c8.67 0 13.38 4.47 13.38 11.9 0 7.42-4.7 11.9-13.38 11.9h-15.74v-23.8zM332.08 376.98v67.04h41.87v-7.75h-33.52v-22.82h30.41v-7.64h-30.4v-21.19h33.5v-7.64h-41.86zM381.83 426.55c2.46 11.79 12.2 18.45 25.27 18.45 13.06 0 22.7-7.31 22.7-19.43 0-9.5-5.89-15.29-16.38-18.02l-11.24-2.95c-6.86-1.85-10.5-4.58-10.5-10.26 0-6.88 5.78-11.02 13.6-11.02 8.67 0 13.6 4.36 15.63 10.37h8.46c-2.46-10.6-10.49-17.69-24.09-17.69-12.42 0-21.63 7.64-21.63 19 0 10.15 6.64 14.85 15.74 17.25l11.78 3.16c7.6 1.97 10.5 5.35 10.5 10.6 0 7.42-6 11.68-14.57 11.68-8.03 0-14.24-3.72-16.7-11.14h-8.57zM450.12 376.98h-8.46v67.04h8.46v-67.04zM474.17 436.27v-51.64h12.53c14.88 0 23.66 10.15 23.66 25.87s-8.78 25.77-23.66 25.77h-12.53zm-8.46 7.75h21.1c19.27 0 31.9-13.1 31.9-33.52s-12.63-33.52-31.9-33.52h-21.1v67.04zM530.54 376.98v67.04h41.87v-7.75H538.9v-22.82h30.4v-7.64h-30.4v-21.19h33.51v-7.64h-41.87zM636.73 376.98h-8.03v50.99l-35.02-50.99h-8.03v67.04h8.14v-53.28l36.73 53.28h6.2v-67.04zM647.76 384.63h22.91v59.39h8.46v-59.4h22.92v-7.64h-54.3v7.64zM707.03 426.55c2.46 11.79 12.2 18.45 25.27 18.45 13.06 0 22.7-7.31 22.7-19.43 0-9.5-5.89-15.29-16.38-18.02l-11.25-2.95c-6.85-1.85-10.49-4.58-10.49-10.26 0-6.88 5.78-11.02 13.6-11.02 8.67 0 13.6 4.36 15.63 10.37h8.46c-2.46-10.6-10.5-17.69-24.09-17.69-12.42 0-21.63 7.64-21.63 19 0 10.15 6.64 14.85 15.74 17.25l11.78 3.16c7.6 1.97 10.5 5.35 10.5 10.6 0 7.42-6 11.68-14.57 11.68-8.03 0-14.24-3.72-16.7-11.14h-8.57z"/><path fill="#000" fill-rule="evenodd" d="M277.01 85.73c6.35-6.78 9.77-14.12 9.77-21.73 0-7.61-3.42-14.95-9.77-21.73-6.36-6.78-15.61-12.95-27.15-18.16-23.06-10.4-55-16.88-90.36-16.88-35.35 0-67.3 6.47-90.36 16.88-11.54 5.21-20.8 11.38-27.15 18.16-6.35 6.78-9.77 14.12-9.77 21.73 0 7.61 3.42 14.95 9.77 21.73 6.36 6.78 15.61 12.95 27.15 18.16 23.06 10.4 55 16.88 90.36 16.88 35.35 0 67.3-6.47 90.36-16.88 11.54-5.21 20.8-11.38 27.15-18.16zM159.5 122C230.47 122 288 96.03 288 64S230.47 6 159.5 6 31 31.97 31 64s57.53 58 128.5 58z" clip-rule="evenodd"/><path fill="#000" d="M623.43 261.97H615v66.06h8.43v-66.06zM633.64 310.82c2.46 11.62 12.17 18.18 25.2 18.18 13.02 0 22.63-7.2 22.63-19.15 0-9.36-5.88-15.06-16.34-17.75l-11.2-2.91c-6.84-1.83-10.47-4.52-10.47-10.11 0-6.78 5.77-10.87 13.56-10.87 8.65 0 13.56 4.3 15.59 10.22h8.43c-2.46-10.44-10.46-17.43-24.02-17.43-12.38 0-21.56 7.53-21.56 18.72 0 10 6.61 14.63 15.69 17l11.74 3.12c7.58 1.94 10.46 5.27 10.46 10.44 0 7.32-5.98 11.51-14.52 11.51-8 0-14.2-3.66-16.65-10.97h-8.54zM693.3 328.03h41.84v-7.64h-33.41v-58.42h-8.44v66.06zM755.52 261.97h-8.43v66.06h8.43v-66.06zM821.98 261.97h-8v50.24l-34.91-50.24h-8v66.06h8.1v-52.5l36.62 52.5h6.2v-66.06zM882.95 302.75c-.97 11.5-7.7 18.72-19.11 18.72-13.03 0-21.68-10.65-21.68-26.47 0-15.82 8.76-26.36 21.46-26.36 9.29 0 14.63 4.95 17.4 12.7h8.44C886.79 269.06 877.6 261 863.62 261c-16.76 0-29.89 13.34-29.89 34s13.03 34 30.1 34c16.02 0 27.12-11.4 27.12-29.05v-4.52h-23.7v7.32h15.7zM895.22 269.5h22.85v58.53h8.43V269.5h22.85v-7.53h-54.13v7.53zM1012.35 295c0-20.01-12.39-34-29.68-34-17.19 0-29.57 13.99-29.57 34 0 19.9 12.38 34 29.57 34 17.3 0 29.68-14.1 29.68-34zm-8.44 0c0 15.5-8.54 26.36-21.24 26.36-12.6 0-21.14-10.87-21.14-26.36 0-15.5 8.54-26.36 21.14-26.36 12.7 0 21.24 10.87 21.24 26.36zM1075 261.97h-8.01v50.24l-34.9-50.24h-8.01v66.06h8.11v-52.5l36.62 52.5h6.19v-66.06zM552.9 283.95c-3.8.26-8.61 5.04-9.88 8.8 0-2.26-.5-6.78 1.78-10.3-2.28-.26-2.28-3.02-4.56-4.28 1.77-.75 4.8.5 5.06 1 3.04 3.02 5.82 4.53 10.13 2.27-.5 1.26-1.27 1.76-2.53 2.51zm-3.04-10.56c1.52-2.51 2.02-4.27.5-6.54a9.57 9.57 0 00-4.3 6.29c0-1.51 0-2.01-1.01-2.26-1.27 2.76-1.01 6.03 1.27 7.8-1.02-2.27-.77-4.28 1.77-6.3-2.28 3.02-1.77 7.55 1 8.8-3.28-5.02 4.82-5.53 5.32-9.55-2.78.5-3.8 1-4.55 1.76zm-10.89 14.34c-.76 1-.5 2 .26 2.76.25-1 .76-1.5 1.52-2.26-.76 0-1.27-.25-1.78-.5zm2.28-5.79c-2.02 1-3.04 1.51-3.29 2.27.76-2.27.76-3.78-1.01-5.54a10.56 10.56 0 00-2.28 6.3c-.25-1.27-.5-1.52-1.52-1.77-.5 2.51.25 3.52 2.28 5.03-.5-1.26-.5-2.26.25-4.28-.5 2.77 0 5.54 3.04 6.8-3.54-3.27 3.04-5.54 2.53-8.8zm8.86 48.55c.5-.26 1.01-.5 1.27-1.26-1.01-.5-2.03-1.51-3.04-2.52.25 1.26 1.01 2.52 1.77 3.78zm-1.01-5.04a4.9 4.9 0 01-3.55-2.76c.26 1.5.77 2.51 1.27 3.27-1.01.5-2.28.25-3.29-.5 1.27 2.51 3.3 3.52 5.82 5.03-1.01-1.26-1.26-2.52-1.52-3.78.51-.25 1.02-.75 1.27-1.25zm33.66 1.51c-.75 1.01-1.77 1.76-2.78 2.52.25.75.76 1 1.27 1.26.75-1.51 1.51-2.77 1.51-3.78zm.76-.25a9.98 9.98 0 01-1.77 3.78c2.53-1.51 4.56-2.52 6.08-4.78-1.01.75-2.28 1-3.55.5.76-1 1.02-2.01 1.27-3.27a4.89 4.89 0 01-3.54 2.77c.5.25 1 .75 1.51 1zm-14.17 3.52v.5h.25c.25 0 .25 0 .25-.25-.25-.25-.25-.5-.5-.25zm11.14-7.3a21.4 21.4 0 01-14.69 5.8 21.39 21.39 0 01-14.68-5.8c-.25 1.27-1 3.03-2.02 3.53a24.45 24.45 0 0016.96 6.54c6.58 0 12.66-2.26 16.96-6.54-1.27-.5-2.53-2.26-2.53-3.52zm-24.56 7.3l-.5-.25.25-1-.76.75-.5-.25.25-2.01.5.25-.25 1 1.01-.75.51.25-.25 1 .76-.75.5.25-1.52 1.51zm3.8-.5l-.76-.25v.25l.76.25v.5l-.76-.25v.25l.76.26v.5l-1.26-.5.5-1.76 1.27.5-.51.25zm4.05 1c.25.26.5.26.5.76 0 .25-.25.5-.75.5-.26 0-.26 0-.5-.25v-.5c.24.25.24.25.5.25h.25s0-.25-.25-.25c-.26-.25-.5-.25-.26-.5 0-.25.26-.5.76-.5.26 0 .51 0 .51.25v.5c-.5-.5-.5-.5-.76-.25-.25-.25 0-.25 0 0 0 0-.25 0 0 0zm2.02 1.26v-2h1.27v.5h-.76v.25h.76v.5h-.76v.25h.76v.5h-1.27zm4.3-.5l-.25-.5c-.25-.25-.25-.25-.5-.25v.75h-.76l-.25-2.01h.76c.5 0 .75 0 1 .5 0 .25 0 .25-.25.5l.26.26v.75zm3.05-.5l-.51.25-1.27-1.51.76-.25.76 1v-1.25l.5-.25-.24 2zm2.02-.76l-.76-1.76 1.27-.5.25.25-.76.25.25.25.76-.25.26.25-.76.26.25.25.76-.25.25.25-1.77 1zm-24.3-17.85c-.5 3.01-2.78 4.27-5.57 5.03 3.55-1.77 5.82-5.29 4.56-9.06.76 6.04-6.84 2.77-9.11 6.04 2.53.75 3.8 1 4.8.75-2.53 1.51-3.8 2.77-3.54 5.54a9.94 9.94 0 006.84-3.78c-.76 1.51-.76 1.76 0 2.52 2.02-1.51 3.03-3.78 2.02-7.04zm-4.05-8.3c1.52.75 2.28.75 3.8.25-1.01-2.27-2.03-3.02-4.05-3.52 2.02-.25 2.78-1.26 2.78-3.02-3.54.75-9.36-1.26-6.07-13.08-4.81 6.04-2.03 15.6 1.52 20.88a20.12 20.12 0 01-4.81-15.1c-1.27 3.02-1.52 6.04-1.02 8.3.51 3.02.26 5.29-1.51 7.05 1.26.25 2.53-.25 3.8-1.26-.77 1.76-.77 4.02.25 5.53a3.63 3.63 0 002.27-2.76c.5.25 3.8 2.26 3.3 4.27 2.02-1 2.02-2.76 1.51-4.27a7.45 7.45 0 00-1.77-3.27zm35.94 15.59c.76-.75.51-1.26-.25-2.52a10.48 10.48 0 006.84 3.78c.25-2.77-1.02-4.03-3.55-5.54 1.02.25 2.03 0 4.81-.75-2.28-3.27-9.87 0-9.11-6.04-1.27 3.78 1.01 7.3 4.56 9.06-3.04-.76-5.07-2.02-5.57-5.03-1.02 3.01-.26 5.28 2.27 7.04zm-19.49-37.23c-1 .76-1.51 2.52-.5 3.53 1.01-.76 1.26-2.27.5-3.53zm-.5-.25c-1.01-.75-2.79-.5-3.55.5 1.27.76 2.79.51 3.55-.5zm4.3.5c-.76-1.25-2.53-1.25-3.54-.5.76 1.01 2.27 1.26 3.54.5zm3.54-6.78c0-1.26-.25-2.27-1-3.27h-2.29a4.15 4.15 0 011.27 3.27h2.02zm0 1.25h-2.02c-.25 1.76-1.01 4.03-.5 6.8.75-.26 1.26-.26 2.02-.26-.25-2.51.25-4.78.5-6.54zM592.38 291c3.04-1.51 3.55-4.28 3.04-6.8.76 1.77 1.01 2.77.25 4.28 1.78-1.5 2.54-2.51 2.28-5.03-.76 0-1.01.5-1.26 1.76 0-2.51-.76-4.78-2.28-6.29-1.77 1.76-1.52 3.27-1.01 5.54-.51-.76-1.27-1.26-3.3-2.27-.5 3.02 6.08 5.29 2.28 8.8zm1.27 14.84c-1.77-1.76-2.28-4.03-1.52-7.05.5-1.76.76-4.27-.25-7.29-.76.25-2.03.5-3.04.5-.5 5.29-4.3 6.54-7.09 6.04 0 1.5 1.01 2.77 2.79 3.02a5.56 5.56 0 00-4.05 3.52c1.52.5 2.27.5 3.8-.25-.51.5-1.27 1.5-2.28 3.02-.51 1.5-.51 3.26 1.51 4.27-.25-2.01 3.04-4.02 3.3-4.27a3.63 3.63 0 002.27 2.76c1.27-1.5 1.02-3.77.26-5.53 2.02 1 3.29 1.26 4.3 1.26zm-7.09-1.51c3.04-2.27 3.8-5.54 4.3-10.82.76 6.8-1 9.06-4.3 10.82zm2.28-17.36h2.02c-.75-1.26-1.77-2.51-2.78-2.76.25 1 .5 1.76.76 2.76zm-30.88-16.35c-.25 0-.5.26-.5.5 0 .26.25.51.5.51h15.7c.25 0 .5-.25.5-.5s-.25-.5-.5-.5h-15.7zm18.98 1.01c.5 4.02 8.86 4.53 5.32 9.56 2.78-1.26 3.29-5.79 1.01-8.8 2.53 1.75 2.53 4.02 1.77 6.28 2.28-1.76 2.53-5.28 1.27-7.8-1.01.26-1.01.76-1.01 2.27a10.15 10.15 0 00-4.56-6.54c-1.52 2.51-1.01 4.02.5 6.54-.5-.5-1.77-1-4.3-1.51zm-5.82 5.28c1.01 5.28 6.84 5.79 10.38 4.78.76-1 1.01-2.01.5-3.27-2.53 1.51-6.83.5-7.34-2.51-.25-2.02 0-2.77-.75-4.03l-4.05.25c1.51.76 1 3.52 1.26 4.78zm1.52-2.51c.76 3.52 1.77 4.52 5.06 5.53-4.05 0-5.06-1.76-5.06-5.53zm1.01-5.79h-.25c.25.25.76.5 1.01 1-.76-.5-1.26-1-2.02-1h-1.77c.25.25.75.5 1 1-.75-.5-1.26-1-2.02-1h-1.77c.25.25.76.5 1.01 1-.76-.5-1.26-1-2.02-1h-1.77c.25.25.75.5 1 1-.75-.5-1.26-1-2.02-1h-1.77c.25.25.76.5 1.01 1-.75-.5-1.26-1-2.02-1h-1.77c.25.25.76.5 1.01 1-.76-.5-1.27-1-2.02-1h-.76c-.51 0-1.02.5-1.02 1 0 .51.5 1.01 1.01 1.01h15.95c.5 0 1.01-.5 1.01-1s-.5-1-1-1zm-11.39-6.03v.75c-.25 4.03-5.31 4.28-5.31.25a3.75 3.75 0 007.34.76c0-.5 0-1.26-.26-1.76h-1.77zm3.8-.5h5.31l.76-1.01h-3.03c.5-3.02 2.27-5.54 4.55-7.55l-7.34 2.52v3.01l3.3-2.51a13.96 13.96 0 00-2.29 4.27h-1.26v-6.03l.76.5-1.27-5.28-1.01 5.28.76-.5v6.54h-1.27a11.56 11.56 0 00-2.27-4.28l3.29 2.52v-3.02l-7.34-2.52c2.27 2.02 4.04 4.78 4.55 7.55h-3.04l.76 1h5.32v2.52l-.5.5v2.77l.5-.5v.5h.76v-.5l.5.5v-2.77l-.5-.5v-3.02zm8.35 1.5c0 3.78-5.31 3.52-5.57-.5v-.5h-1.77c0 .5-.25 1-.25 1.76 0 5.78 8.6 5.28 7.6-.76zm-1.01 18.11a5.9 5.9 0 01-1.77-1.76 15.12 15.12 0 000 4.78c-1.77 0-3.55.5-5.57 1.26-3.04 1.25-5.06 1.25-6.84.25 2.28-4.28-1-10.06 1.52-14.09l-2.02-.25c-2.53 3.77.5 9.06-1.01 13.08-.26-.25-.51-.5-.76-.5l-1.27 1.5c2.03 2.02 5.82 4.28 10.13 2.27 3.29-1.5 6.07-2.26 9.1-.75l.77-2.02c-.5-.25-1.01-.5-1.77-.5-.51-1.26-.51-2.26-.51-3.27zm-16.7-6.29c-2.54 2.52-5.83 3.52-7.35 2.77-.76.75-.76 2.26.5 3.27 1.78 1 4.06.75 7.35-1-.25-1.52-.5-3.28-.5-5.04zm-1.78 11.32l-.76-.75 2.28-2.52c.25.25.25 0 .5.25.26-.75.26-1.76.26-2.76-3.04 3.52-5.82 5.03-8.1 5.78h5.82zm-6.07.25a15.56 15.56 0 00-4.05 5.28c1 0 1.77-.25 2.78-.5-1.26 1-1.77 2.77-3.04 3.77 1.78.5 3.04.26 4.05 0l.26-8.55zm39.23 6.04v-1h-.5c.25.25.5.5.5 1zm-1.77-10.31c2.28-.25 2.28-3.02 4.56-4.28-1.78-.75-4.81.5-5.07 1-2.53 2.52-4.8 3.78-7.6 3.28-.75 0-1.26-.25-1.76-.25a5.98 5.98 0 002.27 1.5c1.52 0 3.04 1.01 4.56 2.02 1.52.5 3.04.75 4.81.75-.5-1.26-1.01-2.77-1.77-4.02zm6.33 5.03c-7.6.75-13.92-1.76-17.47-5.54-.25 0-.5-.25-.76-.25 0 .76.25 1.51.5 2.27l2.29.75-.76 1.76h6.58v7.55c1.26.5 2.28 1 3.04 1.76.5-1.76.25-3.52-1.02-5.28 2.28.75 4.05 1 6.84-.26.25 0 1.77-1 .76-2.76zm-34.17 5.78c0-1.5-1.27-2.76-2.54-2.76a2.8 2.8 0 00-2.78 2.76c0 1.51 1.26 2.52 2.78 2.52 1.27.25 2.54-1 2.54-2.52zm10.12 0v-.75c-1.27 1.25-4.05 1.25-5.32 0v.75a2.8 2.8 0 002.79 2.77c1.26 0 2.53-1.26 2.53-2.77zm-5.32-22.38c-1.26 1.5-1 4.02-.75 6.79l.25 3.27c0 .25.25.5.5.5.26 0 .51-.25.51-.5l-.25-3.27c-.26-2.52-.5-5.03.5-6.29.26-.25 0-.5 0-.5h-.76zM555.93 291a2.8 2.8 0 00-2.78 2.76c0 1.51 1.26 2.52 2.78 2.52a2.53 2.53 0 002.54-2.52c0-1.5-1.27-2.76-2.54-2.76zm20 0a2.8 2.8 0 00-2.78 2.76c0 1.51 1.26 2.52 2.78 2.52a2.53 2.53 0 002.53-2.52c0-1.5-1.01-2.76-2.53-2.76zm6.33 6.54v-10.06h-6.58l-.26.5c-.75-.25-1.26-.25-1.77-.5a7.07 7.07 0 00-4.55 0h.25c-1.01.25-2.53 1-3.55 1.25-3.28 1.51-7.08.5-9.36-1.25h-7.09v10.06h.5a9 9 0 01-.5 2.76v1.51c.76.5 1.27 1.51 1.77 2.77v-1.26h.26c1.01 0 1.77.25 2.27.5.76.26 1.27.76 2.54.76 1.26 0 2.02-.25 2.53-.76.5-.25 1.01-.5 2.28-.5h1l.77 2.01c-.25 0-.25 0-.5.25-.51.26-1.27.5-1.78.26l-.5-.25v1.5h-.26v.76l-5.06-2.27 1.26 1.01 3.3 4.03-.76.25c-.51.25-1.02.5-2.03.5-1.01 0-1.52-.25-2.03-.5a4.3 4.3 0 00-2.27-.5h-.26c-.5-1.77-.76-3.53-.76-5.29v-.25c-.75.25-1.26.5-1.77.5v1.76c0 .26.25.26.25.5 1.78 2.77 2.54 5.29 2.28 7.3 3.04 5.79 8.1 10.56 13.92 12.58 5.57-2.02 10.64-6.54 13.67-12.08-.25-2.26.26-4.77 2.28-8.04.25-.26.25-.5.5-1.01v-1.26c-.5 0-1 0-1.76-.5v.25a19 19 0 01-.76 5.28h-.26c-1.26 0-1.77.25-2.27.5-.51.26-1.02.5-2.03.5a3.94 3.94 0 01-2.02-.5c-.26 0-.51-.25-.76-.25l4.3-5.03-1.52.76-3.8 1.76v-1h-.25v-1.27l-.5.26c-.51.25-1.02 0-1.78-.25h-.25l1.01-2.02c.25 0 .76-.25 1.27-.25 1.01 0 1.77.25 2.28.5.5.26 1.26.76 2.53.76 1.26 0 2.02-.25 2.53-.76.5-.25 1.01-.5 2.28-.5v1c.5-1.25 1-2.26 1.77-2.76v-1.26a5.33 5.33 0 01-.76-3.01c.25 0 .5.25.76.25zm-6.33-7.8c2.03 0 3.8 1.76 3.8 3.77a3.88 3.88 0 01-3.8 3.78 3.88 3.88 0 01-3.8-3.78 3.88 3.88 0 013.8-3.77zm-12.9 1.26c.5 1 1.51 1.76 3.03 1.76 1.26 0 2.28-.76 2.78-1.76.76.75 1.01 1.5 1.01 2.51a3.88 3.88 0 01-3.8 3.78c-2.27 0-4.04-1.77-4.04-3.78 0-1 .25-1.76 1.01-2.51zm-7.1-1.26c2.03 0 3.8 1.76 3.8 3.77a3.88 3.88 0 01-3.8 3.78 3.88 3.88 0 01-3.8-3.78 3.72 3.72 0 013.8-3.77zM561 302.3c-1.27 0-2.03.26-2.53.76-.51.25-1.02.5-2.28.5a5.1 5.1 0 01-2.28-.5c-.76-.25-1.27-.75-2.53-.75h-.26v-2.77h9.37l.76 1.5.5 1.26H561zm1.51.5c.76.51 1.52 1.27 1.52 1.27l1.52 1.5c-.76-.5-1.52-.5-2.02-.5l-1.01-2.26zm-1.77 4.54v-.76c.5 0 1.27 0 1.77-.25.76-.25 1.78-.5 2.79 0v6.04c-1.01-.5-2.03-.26-3.04 0-.5.25-1.01.25-1.52.25v-5.28zm-3.03.25c.75.5 1.77.75 2.27 1v1.51c-.5-.5-1.51-1.76-2.27-2.51zm2.02 4.27v1.51c-.5.25-1.26.76-2.28 1 .76-.75 1.77-2 2.28-2.5zm-7.6-.75c1.02 0 1.52.25 2.03.5.5.25 1.27.5 2.28.5a4.3 4.3 0 002.28-.5h.25l-4.3 5.03 5.06-2.26v.75h3.8l-1.27 3.02h-.25c-1.01 0-1.52.25-2.03.75-.5.26-.76.5-1.77.5-.76 0-1.26-.24-1.77-.5h-.25c-1.78-2.51-3.3-5.03-4.05-7.8zm13.42 5.28l-.25.25-2.28 2.01-.76.76c.25-.25.25-.76.25-.76l1.52-3.77h.51c.25.25.5.5.76.5.5 0 .76-.25 1.01-.5h.5l1.53 3.77s.25.5.25.76c-.5-.25-.76-.76-.76-.76l-2.28-2.26zm1.77 2.52c-.5.25-.75.5-1.52.5-.75 0-1.26-.25-1.51-.5.5-.5 1.26-1.01 1.51-1.26.26 0 1.02.75 1.52 1.25zm-1.77 6.28c-3.03-1-5.82-2.76-8.1-5.28h.5c1.02 0 1.53-.25 2.03-.75.51-.25.76-.5 1.52-.5l-.5 2-.76 1.77 3.29-3.02h.25c.5.25 1.01.75 2.02.75 1.02 0 1.52-.25 2.03-.75l3.3 3.02-1.53-3.52c.76 0 1.01.25 1.52.5.5.25 1.01.75 2.03.75h.5a20.9 20.9 0 01-8.1 5.03zm5.82-16.6c.51-.25 1.52-.75 2.28-1a34 34 0 01-2.28 2.76h-.25v-1.76h.25zm0 3.02c.51.76 1.52 2.01 2.28 3.02-1.01-.5-1.77-1-2.28-1.26v-1.76zm0 3.27v-.75l5.32 2.51s-3.54-4.27-4.56-5.28c.26 0 .51.25.51.25.5.25 1.26.5 2.28.5a4.3 4.3 0 002.28-.5c.5-.25 1-.5 2.02-.5a24.5 24.5 0 01-4.3 7.54h-.25c-.51.25-.76.5-1.78.5-.76 0-1.26-.25-1.77-.5-.5-.25-1.01-.75-2.02-.75h-.26l-1.26-3.02h3.8zm-.75-.75h-4.56v.25c0 .25-.25.25-.25.25-.26 0-.26 0-.26-.25v-.25H561v-.76c.75.25 1.26 0 2.02-.25 1.01-.25 1.77-.75 2.78 0h.51c1.01-.75 2.03-.5 2.79 0 .5.25 1.26.5 2.02.25v.76h-.5zm-2.03-7.8c.5.25 1.01.5 1.77.25v6.04c-.5 0-1.01 0-1.52-.25-.76-.26-1.77-.76-3.04 0v-6.04c1.27-.75 2.03-.5 2.79 0zm.25-3.52l-1.01 2.51c-.5 0-1.26 0-2.03.25l1.52-1.25c0-.25.76-1 1.52-1.51 0 0 .26-.25 0 0zm.5 0h.26-.25zm-2.52.75s-.76.5-1.02 1l-1-1-4.31-3.77h10.63l-1.26 1.26-3.04 2.51zm13.41-1.25c-1.26 0-2.02.25-2.53.75-.5.25-1.01.5-2.28.5a5.09 5.09 0 01-2.27-.5c-.51-.25-1.27-.75-2.53-.75h-.76l1.26-2.77h9.11v2.76z"/></svg>
