<svg width="512" height="328" fill="none" xmlns="http://www.w3.org/2000/svg"><path fill="#007EFF" d="M0 0h512v328H0z"/><circle cx="148.5" cy="164.5" r="88.5" fill="#007EFF" stroke="#fff" stroke-width="2"/><path d="M71.81 163.98v-24.95h5.02l10.37 15.38h.14l-.14-15.38h5.67v24.95h-4.9l-10.53-15.45h-.14l.14 15.45h-5.63zM95.03 155.23c0-2.9.87-5.18 2.61-6.85 1.75-1.7 4.06-2.54 6.94-2.54 2.86 0 5.1.79 6.73 2.36 1.62 1.57 2.44 3.8 2.44 6.67v1.3H100.5c.3 2.98 1.7 4.47 4.22 4.47 1.84 0 3.03-.68 3.56-2.03h5.2a6.46 6.46 0 01-2.87 4.13 10.16 10.16 0 01-6 1.67c-3.05 0-5.41-.78-7.09-2.32-1.67-1.58-2.5-3.86-2.5-6.86zm13.15-2.21c-.31-2.34-1.51-3.52-3.6-3.52-2.08 0-3.39 1.18-3.92 3.52h7.52zM118.11 157.44v-7.25h-3.34v-3.91h3.34v-5.37h5.42v5.37h2.74v3.91h-2.74v6.93c0 .97.17 1.64.51 2.03.34.39-.52.58.45.58h1.78v4.24h-1.43c-2.57 0-4.34-.47-5.3-1.41-.95-.94-1.43-2.65-1.43-5.12zM128.49 143.65v-4.71h5.67v4.71h-5.67zm.14 20.32v-17.7h5.38v17.7h-5.38zM137.41 163.97v-25.03h5.38v25.03h-5.38zM71.81 192.57v-24.94h12.31c3.08 0 5.43.7 7.05 2.1 1.65 1.4 2.47 3.35 2.47 5.84a8.1 8.1 0 01-1.34 4.64 7.6 7.6 0 01-3.82 2.94l6.15 9.42h-6.15l-5.52-8.7h-5.52v8.7h-5.63zm11.99-20.56h-6.36v7.55h6.36c1.3 0 2.31-.35 3.01-1.06a3.86 3.86 0 001.1-2.86c0-1.11-.37-2-1.1-2.65a4.34 4.34 0 00-3.01-.98zM95.83 187.97c0-1.53.49-2.72 1.46-3.6.99-.86 2.54-1.46 4.65-1.77l3.38-.5c.9-.13 1.49-.28 1.78-.48.3-.19.44-.5.44-.94 0-.8-.25-1.43-.73-1.89-.46-.48-1.18-.72-2.14-.72-1.97 0-3.02.87-3.17 2.61h-5.05a5.88 5.88 0 012.47-4.64 9.8 9.8 0 015.75-1.6c5.52 0 8.28 2.14 8.28 6.42v11.71h-5.16v-2.17h-.15c-1.11 1.74-3.04 2.61-5.77 2.61-2 0-3.5-.45-4.51-1.34a4.74 4.74 0 01-1.53-3.7zm11.7-2.43v-1.45c-.3.43-.87.7-1.67.83l-2.43.36c-1.53.25-2.3.95-2.3 2.1 0 1.34.82 2 2.44 2 1.07 0 2-.31 2.77-.94.8-.65 1.2-1.62 1.2-2.9zM114.85 183.87c0-2.93.8-5.22 2.37-6.9a7.92 7.92 0 016-2.53c2.61 0 4.43.97 5.45 2.9h.14c-.17-1.54-.25-2.02-.25-4.43v-5.37h5.41v25.03h-5.16v-2.46h-.14c-1.02 1.93-2.94 2.9-5.75 2.9-2.3 0-4.23-.8-5.78-2.4-1.52-1.6-2.29-3.84-2.29-6.74zm5.57 0c0 1.6.35 2.87 1.05 3.8a3.6 3.6 0 002.98 1.39c1.26 0 2.25-.49 2.98-1.45.75-1 1.13-2.29 1.13-3.88a6.1 6.1 0 00-1.13-3.85 3.49 3.49 0 00-2.98-1.48c-1.23 0-2.22.5-2.95 1.52a6.62 6.62 0 00-1.08 3.95zM137.28 172.25v-4.71h5.67v4.71h-5.67zm.15 20.32v-17.7h5.38v17.7h-5.38zM146.1 183.72c0-2.87.91-5.13 2.73-6.78 1.82-1.66 4.15-2.5 7.01-2.5 2.94 0 5.29.82 7.06 2.47 1.76 1.62 2.65 3.9 2.65 6.81 0 2.88-.91 5.15-2.73 6.82-1.8 1.65-4.12 2.47-6.97 2.47-2.96 0-5.32-.81-7.1-2.43-1.76-1.65-2.65-3.93-2.65-6.86zm6.7-3.88a6.06 6.06 0 00-1.14 3.88c0 1.65.38 2.95 1.13 3.92a3.7 3.7 0 003.06 1.42 3.7 3.7 0 003.05-1.42 6.22 6.22 0 001.13-3.91c0-1.67-.38-2.97-1.13-3.88a3.7 3.7 0 00-3.06-1.42 3.7 3.7 0 00-3.05 1.41z" fill="#fff"/><path fill-rule="evenodd" clip-rule="evenodd" d="M280.35 85.78a4.4 4.4 0 10.02-8.8 4.4 4.4 0 00-.02 8.8zM297.3 85.78a4.4 4.4 0 10.03-8.8 4.4 4.4 0 00-.02 8.8zM313.59 85.78a4.4 4.4 0 10.02-8.8 4.4 4.4 0 00-.02 8.8zM330.55 85.78a4.4 4.4 0 10.01-8.8 4.4 4.4 0 00-.01 8.8zM346.82 85.78a4.4 4.4 0 10.02-8.8 4.4 4.4 0 00-.01 8.8zM363.78 85.78a4.4 4.4 0 10.02-8.8 4.4 4.4 0 00-.02 8.8zM380.06 85.78a4.4 4.4 0 10.02-8.8 4.4 4.4 0 00-.02 8.8zM397.02 85.78a4.4 4.4 0 10.01-8.8 4.4 4.4 0 00-.01 8.8zM413.3 85.78a4.4 4.4 0 10.01-8.8 4.4 4.4 0 00-.01 8.8zM430.26 85.78a4.4 4.4 0 10.01-8.8 4.4 4.4 0 00-.01 8.8zM446.53 85.78a4.4 4.4 0 10.02-8.8 4.4 4.4 0 00-.02 8.8zM280.35 252a4.4 4.4 0 10.02-8.8 4.4 4.4 0 00-.02 8.8zM297.3 252a4.4 4.4 0 10.03-8.8 4.4 4.4 0 00-.02 8.8zM313.59 252a4.4 4.4 0 10.02-8.8 4.4 4.4 0 00-.02 8.8zM330.55 252a4.4 4.4 0 10.01-8.8 4.4 4.4 0 00-.01 8.8zM346.82 252a4.4 4.4 0 10.02-8.8 4.4 4.4 0 00-.01 8.8zM363.78 252a4.4 4.4 0 10.02-8.8 4.4 4.4 0 00-.02 8.8zM380.06 252a4.4 4.4 0 10.02-8.8 4.4 4.4 0 00-.02 8.8zM397.02 252a4.4 4.4 0 10.02-8.8 4.4 4.4 0 00-.02 8.8zM413.3 252a4.4 4.4 0 10.02-8.8 4.4 4.4 0 00-.02 8.8zM430.26 252a4.4 4.4 0 10.01-8.8 4.4 4.4 0 00-.01 8.8zM446.53 252a4.4 4.4 0 10.02-8.8 4.4 4.4 0 00-.02 8.8zM280.35 235.1a4.4 4.4 0 10.02-8.8 4.4 4.4 0 00-.02 8.8zM297.3 235.1a4.4 4.4 0 10.03-8.8 4.4 4.4 0 00-.02 8.8zM313.59 235.1a4.4 4.4 0 10.02-8.8 4.4 4.4 0 00-.02 8.8zM330.55 235.1a4.4 4.4 0 10.01-8.8 4.4 4.4 0 00-.01 8.8zM346.82 235.1a4.4 4.4 0 10.02-8.8 4.4 4.4 0 00-.01 8.8zM363.78 235.1a4.4 4.4 0 10.02-8.8 4.4 4.4 0 00-.02 8.8zM380.06 235.1a4.4 4.4 0 10.02-8.8 4.4 4.4 0 00-.02 8.8zM397.02 235.1a4.4 4.4 0 10.01-8.8 4.4 4.4 0 00-.01 8.8zM413.3 235.1a4.4 4.4 0 10.01-8.8 4.4 4.4 0 00-.01 8.8zM430.26 235.1a4.4 4.4 0 10.01-8.8 4.4 4.4 0 00-.01 8.8zM446.53 235.1a4.4 4.4 0 10.02-8.8 4.4 4.4 0 00-.02 8.8zM280.35 218.9a4.4 4.4 0 10.02-8.81 4.4 4.4 0 00-.02 8.8zM297.3 218.9a4.4 4.4 0 10.03-8.81 4.4 4.4 0 00-.02 8.8zM313.59 218.9a4.4 4.4 0 10.02-8.81 4.4 4.4 0 00-.02 8.8zM330.55 218.9a4.4 4.4 0 10.01-8.81 4.4 4.4 0 00-.01 8.8zM346.82 218.9a4.4 4.4 0 10.02-8.81 4.4 4.4 0 00-.01 8.8zM363.78 218.9a4.4 4.4 0 10.02-8.81 4.4 4.4 0 00-.02 8.8zM380.06 218.9a4.4 4.4 0 10.02-8.81 4.4 4.4 0 00-.02 8.8zM397.02 218.9a4.4 4.4 0 10.02-8.81 4.4 4.4 0 00-.02 8.8zM413.3 218.9a4.4 4.4 0 10.02-8.8 4.4 4.4 0 00-.02 8.8zM430.26 218.9a4.4 4.4 0 10.01-8.8 4.4 4.4 0 00-.01 8.8zM446.53 218.9a4.4 4.4 0 10.02-8.81 4.4 4.4 0 00-.02 8.8zM280.35 202a4.4 4.4 0 10.02-8.8 4.4 4.4 0 00-.02 8.8zM297.3 202a4.4 4.4 0 10.03-8.8 4.4 4.4 0 00-.02 8.8zM313.59 202a4.4 4.4 0 10.02-8.8 4.4 4.4 0 00-.02 8.8zM330.55 202a4.4 4.4 0 10.01-8.8 4.4 4.4 0 00-.01 8.8zM346.82 202a4.4 4.4 0 10.02-8.8 4.4 4.4 0 00-.01 8.8zM363.78 202a4.4 4.4 0 10.02-8.8 4.4 4.4 0 00-.02 8.8zM380.06 202a4.4 4.4 0 10.02-8.8 4.4 4.4 0 00-.02 8.8zM397.02 202a4.4 4.4 0 10.02-8.8 4.4 4.4 0 00-.02 8.8zM413.3 202a4.4 4.4 0 10.02-8.8 4.4 4.4 0 00-.02 8.8zM430.26 202a4.4 4.4 0 10.01-8.8 4.4 4.4 0 00-.01 8.8zM446.53 202a4.4 4.4 0 10.02-8.8 4.4 4.4 0 00-.02 8.8zM280.35 185.78a4.4 4.4 0 10.02-8.8 4.4 4.4 0 00-.02 8.8zM297.3 185.78a4.4 4.4 0 10.03-8.8 4.4 4.4 0 00-.02 8.8zM313.59 185.78a4.4 4.4 0 10.02-8.8 4.4 4.4 0 00-.02 8.8zM330.55 185.78a4.4 4.4 0 10.01-8.8 4.4 4.4 0 00-.01 8.8zM346.82 185.78a4.4 4.4 0 10.02-8.8 4.4 4.4 0 00-.01 8.8zM363.78 185.78a4.4 4.4 0 10.02-8.8 4.4 4.4 0 00-.02 8.8zM380.06 185.78a4.4 4.4 0 10.02-8.8 4.4 4.4 0 00-.02 8.8zM397.02 185.78a4.4 4.4 0 10.01-8.8 4.4 4.4 0 00-.01 8.8zM413.3 185.78a4.4 4.4 0 10.01-8.8 4.4 4.4 0 00-.01 8.8zM430.26 185.78a4.4 4.4 0 10.01-8.8 4.4 4.4 0 00-.01 8.8zM446.53 185.78a4.4 4.4 0 10.02-8.8 4.4 4.4 0 00-.02 8.8zM280.35 168.9a4.4 4.4 0 10.02-8.81 4.4 4.4 0 00-.02 8.8zM297.3 168.9a4.4 4.4 0 10.03-8.81 4.4 4.4 0 00-.02 8.8zM313.59 168.9a4.4 4.4 0 10.02-8.81 4.4 4.4 0 00-.02 8.8zM330.55 168.9a4.4 4.4 0 10.01-8.81 4.4 4.4 0 00-.01 8.8zM346.82 168.9a4.4 4.4 0 10.02-8.81 4.4 4.4 0 00-.01 8.8zM363.78 168.9a4.4 4.4 0 10.02-8.81 4.4 4.4 0 00-.02 8.8zM380.06 168.9a4.4 4.4 0 10.02-8.81 4.4 4.4 0 00-.02 8.8zM397.02 168.9a4.4 4.4 0 10.01-8.81 4.4 4.4 0 00-.01 8.8zM413.3 168.9a4.4 4.4 0 10.01-8.8 4.4 4.4 0 00-.01 8.8zM430.26 168.9a4.4 4.4 0 10.01-8.8 4.4 4.4 0 00-.01 8.8zM446.53 168.9a4.4 4.4 0 10.02-8.81 4.4 4.4 0 00-.02 8.8zM280.35 152a4.4 4.4 0 10.02-8.8 4.4 4.4 0 00-.02 8.8zM297.3 152a4.4 4.4 0 10.03-8.8 4.4 4.4 0 00-.02 8.8zM313.59 152a4.4 4.4 0 10.02-8.8 4.4 4.4 0 00-.02 8.8zM330.55 152a4.4 4.4 0 10.01-8.8 4.4 4.4 0 00-.01 8.8zM346.82 152a4.4 4.4 0 10.02-8.8 4.4 4.4 0 00-.01 8.8zM363.78 152a4.4 4.4 0 10.02-8.8 4.4 4.4 0 00-.02 8.8zM380.06 152a4.4 4.4 0 10.02-8.8 4.4 4.4 0 00-.02 8.8zM397.02 152a4.4 4.4 0 10.01-8.8 4.4 4.4 0 00-.01 8.8zM413.3 152a4.4 4.4 0 10.01-8.8 4.4 4.4 0 00-.01 8.8zM430.26 152a4.4 4.4 0 10.01-8.8 4.4 4.4 0 00-.01 8.8zM446.53 152a4.4 4.4 0 10.02-8.8 4.4 4.4 0 00-.02 8.8zM280.35 135.78a4.4 4.4 0 10.02-8.8 4.4 4.4 0 00-.02 8.8zM297.3 135.78a4.4 4.4 0 10.03-8.8 4.4 4.4 0 00-.02 8.8zM313.59 135.78a4.4 4.4 0 10.02-8.8 4.4 4.4 0 00-.02 8.8zM330.55 135.78a4.4 4.4 0 10.01-8.8 4.4 4.4 0 00-.01 8.8zM346.82 135.78a4.4 4.4 0 10.02-8.8 4.4 4.4 0 00-.01 8.8zM363.78 135.78a4.4 4.4 0 10.02-8.8 4.4 4.4 0 00-.02 8.8zM380.06 135.78a4.4 4.4 0 10.02-8.8 4.4 4.4 0 00-.02 8.8zM397.02 135.78a4.4 4.4 0 10.01-8.8 4.4 4.4 0 00-.01 8.8zM413.3 135.78a4.4 4.4 0 10.01-8.8 4.4 4.4 0 00-.01 8.8zM430.26 135.78a4.4 4.4 0 10.01-8.8 4.4 4.4 0 00-.01 8.8zM446.53 135.78a4.4 4.4 0 10.02-8.8 4.4 4.4 0 00-.02 8.8zM280.35 118.9a4.4 4.4 0 10.02-8.81 4.4 4.4 0 00-.02 8.8zM297.3 118.9a4.4 4.4 0 10.03-8.81 4.4 4.4 0 00-.02 8.8zM313.59 118.9a4.4 4.4 0 10.02-8.81 4.4 4.4 0 00-.02 8.8zM330.55 118.9a4.4 4.4 0 10.01-8.81 4.4 4.4 0 00-.01 8.8zM346.82 118.9a4.4 4.4 0 10.02-8.81 4.4 4.4 0 00-.01 8.8zM363.78 118.9a4.4 4.4 0 10.02-8.81 4.4 4.4 0 00-.02 8.8z" fill="#fff"/><path fill-rule="evenodd" clip-rule="evenodd" d="M380.06 118.9a4.4 4.4 0 10.02-8.81 4.4 4.4 0 00-.02 8.8z" fill="#F2F2F2"/><path fill-rule="evenodd" clip-rule="evenodd" d="M397.02 118.9a4.4 4.4 0 10.01-8.81 4.4 4.4 0 00-.01 8.8zM413.3 118.9a4.4 4.4 0 10.01-8.8 4.4 4.4 0 00-.01 8.8zM430.26 118.9a4.4 4.4 0 10.01-8.8 4.4 4.4 0 00-.01 8.8zM446.53 118.9a4.4 4.4 0 10.02-8.81 4.4 4.4 0 00-.02 8.8zM280.35 102.68a4.4 4.4 0 10.02-8.8 4.4 4.4 0 00-.02 8.8zM297.3 102.68a4.4 4.4 0 10.02-8.8 4.4 4.4 0 00-.01 8.8zM313.59 102.68a4.4 4.4 0 10.01-8.8 4.4 4.4 0 00-.01 8.8zM330.55 102.68a4.4 4.4 0 10.01-8.8 4.4 4.4 0 00-.01 8.8zM346.82 102.68a4.4 4.4 0 10.02-8.8 4.4 4.4 0 00-.01 8.8zM363.78 102.68a4.4 4.4 0 10.02-8.8 4.4 4.4 0 00-.02 8.8zM380.06 102.68a4.4 4.4 0 10.02-8.8 4.4 4.4 0 00-.02 8.8zM397.02 102.68a4.4 4.4 0 10.01-8.8 4.4 4.4 0 00-.01 8.8zM413.3 102.68a4.4 4.4 0 10.01-8.8 4.4 4.4 0 00-.01 8.8zM430.26 102.68a4.4 4.4 0 10.01-8.8 4.4 4.4 0 00-.01 8.8zM446.53 102.68a4.4 4.4 0 10.02-8.8 4.4 4.4 0 00-.02 8.8z" fill="#fff"/></svg>
