<svg width="1117" height="600" fill="none" xmlns="http://www.w3.org/2000/svg"><path fill="#007EFF" d="M0 0h1117v600H0z"/><path fill-rule="evenodd" clip-rule="evenodd" d="M288.6 181.2a6.6 6.6 0 100-13.2 6.6 6.6 0 000 13.2zM314 181.2a6.6 6.6 0 100-13.2 6.6 6.6 0 000 13.2zM338.4 181.2a6.6 6.6 0 100-13.2 6.6 6.6 0 000 13.2zM363.7 181.2a6.6 6.6 0 100-13.2 6.6 6.6 0 000 13.2zM388.1 181.2a6.6 6.6 0 100-13.2 6.6 6.6 0 000 13.2zM413.5 181.2a6.6 6.6 0 100-13.2 6.6 6.6 0 000 13.2zM437.9 181.2a6.6 6.6 0 100-13.2 6.6 6.6 0 000 13.2zM463.3 181.2a6.6 6.6 0 100-13.2 6.6 6.6 0 000 13.2zM487.6 181.2a6.6 6.6 0 100-13.2 6.6 6.6 0 000 13.2zM513 181.2a6.6 6.6 0 100-13.2 6.6 6.6 0 000 13.2zM537.4 181.2a6.6 6.6 0 100-13.2 6.6 6.6 0 000 13.2zM288.6 431a6.6 6.6 0 100-13.2 6.6 6.6 0 000 13.2zM314 431a6.6 6.6 0 100-13.2 6.6 6.6 0 000 13.2zM338.4 431a6.6 6.6 0 100-13.2 6.6 6.6 0 000 13.2zM363.7 431a6.6 6.6 0 100-13.2 6.6 6.6 0 000 13.2zM388.1 431a6.6 6.6 0 100-13.2 6.6 6.6 0 000 13.2zM413.5 431a6.6 6.6 0 100-13.2 6.6 6.6 0 000 13.2zM437.9 431a6.6 6.6 0 100-13.2 6.6 6.6 0 000 13.2zM463.3 431a6.6 6.6 0 100-13.2 6.6 6.6 0 000 13.2zM487.6 431a6.6 6.6 0 100-13.2 6.6 6.6 0 000 13.2zM513 431a6.6 6.6 0 100-13.2 6.6 6.6 0 000 13.2zM537.4 431a6.6 6.6 0 100-13.2 6.6 6.6 0 000 13.2zM288.6 405.6a6.6 6.6 0 100-13.2 6.6 6.6 0 000 13.2zM314 405.6a6.6 6.6 0 100-13.2 6.6 6.6 0 000 13.2zM338.4 405.6a6.6 6.6 0 100-13.2 6.6 6.6 0 000 13.2zM363.7 405.6a6.6 6.6 0 100-13.2 6.6 6.6 0 000 13.2zM388.1 405.6a6.6 6.6 0 100-13.2 6.6 6.6 0 000 13.2zM413.5 405.6a6.6 6.6 0 100-13.2 6.6 6.6 0 000 13.2zM437.9 405.6a6.6 6.6 0 100-13.2 6.6 6.6 0 000 13.2zM463.3 405.6a6.6 6.6 0 100-13.2 6.6 6.6 0 000 13.2zM487.6 405.6a6.6 6.6 0 100-13.2 6.6 6.6 0 000 13.2zM513 405.6a6.6 6.6 0 100-13.2 6.6 6.6 0 000 13.2zM537.4 405.6a6.6 6.6 0 100-13.2 6.6 6.6 0 000 13.2zM288.6 381.2a6.6 6.6 0 100-13.2 6.6 6.6 0 000 13.2zM314 381.2a6.6 6.6 0 100-13.2 6.6 6.6 0 000 13.2zM338.4 381.2a6.6 6.6 0 100-13.2 6.6 6.6 0 000 13.2zM363.7 381.2a6.6 6.6 0 100-13.2 6.6 6.6 0 000 13.2zM388.1 381.2a6.6 6.6 0 100-13.2 6.6 6.6 0 000 13.2zM413.5 381.2a6.6 6.6 0 100-13.2 6.6 6.6 0 000 13.2zM437.9 381.2a6.6 6.6 0 100-13.2 6.6 6.6 0 000 13.2zM463.3 381.2a6.6 6.6 0 100-13.2 6.6 6.6 0 000 13.2zM487.6 381.2a6.6 6.6 0 100-13.2 6.6 6.6 0 000 13.2zM513 381.2a6.6 6.6 0 100-13.2 6.6 6.6 0 000 13.2zM537.4 381.2a6.6 6.6 0 100-13.2 6.6 6.6 0 000 13.2zM288.6 355.9a6.6 6.6 0 100-13.2 6.6 6.6 0 000 13.2zM314 355.9a6.6 6.6 0 100-13.2 6.6 6.6 0 000 13.2zM338.4 355.9a6.6 6.6 0 100-13.2 6.6 6.6 0 000 13.2zM363.7 355.9a6.6 6.6 0 100-13.2 6.6 6.6 0 000 13.2zM388.1 355.9a6.6 6.6 0 100-13.2 6.6 6.6 0 000 13.2zM413.5 355.9a6.6 6.6 0 100-13.2 6.6 6.6 0 000 13.2zM437.9 355.9a6.6 6.6 0 100-13.2 6.6 6.6 0 000 13.2zM463.3 355.9a6.6 6.6 0 100-13.2 6.6 6.6 0 000 13.2zM487.6 355.9a6.6 6.6 0 100-13.2 6.6 6.6 0 000 13.2zM513 355.9a6.6 6.6 0 100-13.2 6.6 6.6 0 000 13.2zM537.4 355.9a6.6 6.6 0 100-13.2 6.6 6.6 0 000 13.2zM288.6 331.5a6.6 6.6 0 100-13.2 6.6 6.6 0 000 13.2zM314 331.5a6.6 6.6 0 100-13.2 6.6 6.6 0 000 13.2zM338.4 331.5a6.6 6.6 0 100-13.2 6.6 6.6 0 000 13.2zM363.7 331.5a6.6 6.6 0 100-13.2 6.6 6.6 0 000 13.2zM388.1 331.5a6.6 6.6 0 100-13.2 6.6 6.6 0 000 13.2zM413.5 331.5a6.6 6.6 0 100-13.2 6.6 6.6 0 000 13.2zM437.9 331.5a6.6 6.6 0 100-13.2 6.6 6.6 0 000 13.2zM463.3 331.5a6.6 6.6 0 100-13.2 6.6 6.6 0 000 13.2zM487.6 331.5a6.6 6.6 0 100-13.2 6.6 6.6 0 000 13.2zM513 331.5a6.6 6.6 0 100-13.2 6.6 6.6 0 000 13.2zM537.4 331.5a6.6 6.6 0 100-13.2 6.6 6.6 0 000 13.2zM288.6 306.1a6.6 6.6 0 100-13.2 6.6 6.6 0 000 13.2zM314 306.1a6.6 6.6 0 100-13.2 6.6 6.6 0 000 13.2zM338.4 306.1a6.6 6.6 0 100-13.2 6.6 6.6 0 000 13.2zM363.7 306.1a6.6 6.6 0 100-13.2 6.6 6.6 0 000 13.2zM388.1 306.1a6.6 6.6 0 100-13.2 6.6 6.6 0 000 13.2zM413.5 306.1a6.6 6.6 0 100-13.2 6.6 6.6 0 000 13.2zM437.9 306.1a6.6 6.6 0 100-13.2 6.6 6.6 0 000 13.2zM463.3 306.1a6.6 6.6 0 100-13.2 6.6 6.6 0 000 13.2zM487.6 306.1a6.6 6.6 0 100-13.2 6.6 6.6 0 000 13.2zM513 306.1a6.6 6.6 0 100-13.2 6.6 6.6 0 000 13.2zM537.4 306.1a6.6 6.6 0 100-13.2 6.6 6.6 0 000 13.2zM288.6 280.7a6.6 6.6 0 100-13.2 6.6 6.6 0 000 13.2zM314 280.7a6.6 6.6 0 100-13.2 6.6 6.6 0 000 13.2zM338.4 280.7a6.6 6.6 0 100-13.2 6.6 6.6 0 000 13.2zM363.7 280.7a6.6 6.6 0 100-13.2 6.6 6.6 0 000 13.2zM388.1 280.7a6.6 6.6 0 100-13.2 6.6 6.6 0 000 13.2zM413.5 280.7a6.6 6.6 0 100-13.2 6.6 6.6 0 000 13.2zM437.9 280.7a6.6 6.6 0 100-13.2 6.6 6.6 0 000 13.2zM463.3 280.7a6.6 6.6 0 100-13.2 6.6 6.6 0 000 13.2zM487.6 280.7a6.6 6.6 0 100-13.2 6.6 6.6 0 000 13.2zM513 280.7a6.6 6.6 0 100-13.2 6.6 6.6 0 000 13.2zM537.4 280.7a6.6 6.6 0 100-13.2 6.6 6.6 0 000 13.2zM288.6 256.3a6.6 6.6 0 100-13.2 6.6 6.6 0 000 13.2zM314 256.3a6.6 6.6 0 100-13.2 6.6 6.6 0 000 13.2zM338.4 256.3a6.6 6.6 0 100-13.2 6.6 6.6 0 000 13.2zM363.7 256.3a6.6 6.6 0 100-13.2 6.6 6.6 0 000 13.2zM388.1 256.3a6.6 6.6 0 100-13.2 6.6 6.6 0 000 13.2zM413.5 256.3a6.6 6.6 0 100-13.2 6.6 6.6 0 000 13.2zM437.9 256.3a6.6 6.6 0 100-13.2 6.6 6.6 0 000 13.2zM463.3 256.3a6.6 6.6 0 100-13.2 6.6 6.6 0 000 13.2zM487.6 256.3a6.6 6.6 0 100-13.2 6.6 6.6 0 000 13.2zM513 256.3a6.6 6.6 0 100-13.2 6.6 6.6 0 000 13.2zM537.4 256.3a6.6 6.6 0 100-13.2 6.6 6.6 0 000 13.2zM288.6 231a6.6 6.6 0 100-13.2 6.6 6.6 0 000 13.2zM314 231a6.6 6.6 0 100-13.2 6.6 6.6 0 000 13.2zM338.4 231a6.6 6.6 0 100-13.2 6.6 6.6 0 000 13.2zM363.7 231a6.6 6.6 0 100-13.2 6.6 6.6 0 000 13.2zM388.1 231a6.6 6.6 0 100-13.2 6.6 6.6 0 000 13.2zM413.5 231a6.6 6.6 0 100-13.2 6.6 6.6 0 000 13.2z" fill="#fff"/><path fill-rule="evenodd" clip-rule="evenodd" d="M437.9 231a6.6 6.6 0 100-13.2 6.6 6.6 0 000 13.2z" fill="#F2F2F2"/><path fill-rule="evenodd" clip-rule="evenodd" d="M463.3 231a6.6 6.6 0 100-13.2 6.6 6.6 0 000 13.2zM487.6 231a6.6 6.6 0 100-13.2 6.6 6.6 0 000 13.2zM513 231a6.6 6.6 0 100-13.2 6.6 6.6 0 000 13.2zM537.4 231a6.6 6.6 0 100-13.2 6.6 6.6 0 000 13.2zM288.6 206.6a6.6 6.6 0 100-13.2 6.6 6.6 0 000 13.2zM314 206.6a6.6 6.6 0 100-13.2 6.6 6.6 0 000 13.2zM338.4 206.6a6.6 6.6 0 100-13.2 6.6 6.6 0 000 13.2zM363.7 206.6a6.6 6.6 0 100-13.2 6.6 6.6 0 000 13.2zM388.1 206.6a6.6 6.6 0 100-13.2 6.6 6.6 0 000 13.2zM413.5 206.6a6.6 6.6 0 100-13.2 6.6 6.6 0 000 13.2zM437.9 206.6a6.6 6.6 0 100-13.2 6.6 6.6 0 000 13.2zM463.3 206.6a6.6 6.6 0 100-13.2 6.6 6.6 0 000 13.2zM487.6 206.6a6.6 6.6 0 100-13.2 6.6 6.6 0 000 13.2zM513 206.6a6.6 6.6 0 100-13.2 6.6 6.6 0 000 13.2zM537.4 206.6a6.6 6.6 0 100-13.2 6.6 6.6 0 000 13.2zM580.6 181.2a6.6 6.6 0 100-13.2 6.6 6.6 0 000 13.2zM606 181.2a6.6 6.6 0 100-13.2 6.6 6.6 0 000 13.2zM630.4 181.2a6.6 6.6 0 100-13.2 6.6 6.6 0 000 13.2zM655.7 181.2a6.6 6.6 0 100-13.2 6.6 6.6 0 000 13.2zM680.1 181.2a6.6 6.6 0 100-13.2 6.6 6.6 0 000 13.2zM705.5 181.2a6.6 6.6 0 100-13.2 6.6 6.6 0 000 13.2zM729.9 181.2a6.6 6.6 0 100-13.2 6.6 6.6 0 000 13.2zM755.3 181.2a6.6 6.6 0 100-13.2 6.6 6.6 0 000 13.2zM779.6 181.2a6.6 6.6 0 100-13.2 6.6 6.6 0 000 13.2zM805 181.2a6.6 6.6 0 100-13.2 6.6 6.6 0 000 13.2zM829.4 181.2a6.6 6.6 0 100-13.2 6.6 6.6 0 000 13.2zM580.6 431a6.6 6.6 0 100-13.2 6.6 6.6 0 000 13.2zM606 431a6.6 6.6 0 100-13.2 6.6 6.6 0 000 13.2zM630.4 431a6.6 6.6 0 100-13.2 6.6 6.6 0 000 13.2zM655.7 431a6.6 6.6 0 100-13.2 6.6 6.6 0 000 13.2zM680.1 431a6.6 6.6 0 100-13.2 6.6 6.6 0 000 13.2zM705.5 431a6.6 6.6 0 100-13.2 6.6 6.6 0 000 13.2zM729.9 431a6.6 6.6 0 100-13.2 6.6 6.6 0 000 13.2zM755.3 431a6.6 6.6 0 100-13.2 6.6 6.6 0 000 13.2zM779.6 431a6.6 6.6 0 100-13.2 6.6 6.6 0 000 13.2zM805 431a6.6 6.6 0 100-13.2 6.6 6.6 0 000 13.2zM829.4 431a6.6 6.6 0 100-13.2 6.6 6.6 0 000 13.2zM580.6 405.6a6.6 6.6 0 100-13.2 6.6 6.6 0 000 13.2zM606 405.6a6.6 6.6 0 100-13.2 6.6 6.6 0 000 13.2zM630.4 405.6a6.6 6.6 0 100-13.2 6.6 6.6 0 000 13.2zM655.7 405.6a6.6 6.6 0 100-13.2 6.6 6.6 0 000 13.2zM680.1 405.6a6.6 6.6 0 100-13.2 6.6 6.6 0 000 13.2zM705.5 405.6a6.6 6.6 0 100-13.2 6.6 6.6 0 000 13.2zM729.9 405.6a6.6 6.6 0 100-13.2 6.6 6.6 0 000 13.2zM755.3 405.6a6.6 6.6 0 100-13.2 6.6 6.6 0 000 13.2zM779.6 405.6a6.6 6.6 0 100-13.2 6.6 6.6 0 000 13.2zM805 405.6a6.6 6.6 0 100-13.2 6.6 6.6 0 000 13.2zM829.4 405.6a6.6 6.6 0 100-13.2 6.6 6.6 0 000 13.2zM580.6 381.2a6.6 6.6 0 100-13.2 6.6 6.6 0 000 13.2zM606 381.2a6.6 6.6 0 100-13.2 6.6 6.6 0 000 13.2zM630.4 381.2a6.6 6.6 0 100-13.2 6.6 6.6 0 000 13.2zM655.7 381.2a6.6 6.6 0 100-13.2 6.6 6.6 0 000 13.2zM680.1 381.2a6.6 6.6 0 100-13.2 6.6 6.6 0 000 13.2zM705.5 381.2a6.6 6.6 0 100-13.2 6.6 6.6 0 000 13.2zM729.9 381.2a6.6 6.6 0 100-13.2 6.6 6.6 0 000 13.2zM755.3 381.2a6.6 6.6 0 100-13.2 6.6 6.6 0 000 13.2zM779.6 381.2a6.6 6.6 0 100-13.2 6.6 6.6 0 000 13.2zM805 381.2a6.6 6.6 0 100-13.2 6.6 6.6 0 000 13.2zM829.4 381.2a6.6 6.6 0 100-13.2 6.6 6.6 0 000 13.2zM580.6 355.9a6.6 6.6 0 100-13.2 6.6 6.6 0 000 13.2zM606 355.9a6.6 6.6 0 100-13.2 6.6 6.6 0 000 13.2zM630.4 355.9a6.6 6.6 0 100-13.2 6.6 6.6 0 000 13.2zM655.7 355.9a6.6 6.6 0 100-13.2 6.6 6.6 0 000 13.2zM680.1 355.9a6.6 6.6 0 100-13.2 6.6 6.6 0 000 13.2zM705.5 355.9a6.6 6.6 0 100-13.2 6.6 6.6 0 000 13.2zM729.9 355.9a6.6 6.6 0 100-13.2 6.6 6.6 0 000 13.2zM755.3 355.9a6.6 6.6 0 100-13.2 6.6 6.6 0 000 13.2zM779.6 355.9a6.6 6.6 0 100-13.2 6.6 6.6 0 000 13.2zM805 355.9a6.6 6.6 0 100-13.2 6.6 6.6 0 000 13.2zM829.4 355.9a6.6 6.6 0 100-13.2 6.6 6.6 0 000 13.2zM580.6 331.5a6.6 6.6 0 100-13.2 6.6 6.6 0 000 13.2zM606 331.5a6.6 6.6 0 100-13.2 6.6 6.6 0 000 13.2zM630.4 331.5a6.6 6.6 0 100-13.2 6.6 6.6 0 000 13.2zM655.7 331.5a6.6 6.6 0 100-13.2 6.6 6.6 0 000 13.2zM680.1 331.5a6.6 6.6 0 100-13.2 6.6 6.6 0 000 13.2zM705.5 331.5a6.6 6.6 0 100-13.2 6.6 6.6 0 000 13.2zM729.9 331.5a6.6 6.6 0 100-13.2 6.6 6.6 0 000 13.2zM755.3 331.5a6.6 6.6 0 100-13.2 6.6 6.6 0 000 13.2zM779.6 331.5a6.6 6.6 0 100-13.2 6.6 6.6 0 000 13.2zM805 331.5a6.6 6.6 0 100-13.2 6.6 6.6 0 000 13.2zM829.4 331.5a6.6 6.6 0 100-13.2 6.6 6.6 0 000 13.2zM580.6 306.1a6.6 6.6 0 100-13.2 6.6 6.6 0 000 13.2zM606 306.1a6.6 6.6 0 100-13.2 6.6 6.6 0 000 13.2zM630.4 306.1a6.6 6.6 0 100-13.2 6.6 6.6 0 000 13.2zM655.7 306.1a6.6 6.6 0 100-13.2 6.6 6.6 0 000 13.2zM680.1 306.1a6.6 6.6 0 100-13.2 6.6 6.6 0 000 13.2zM705.5 306.1a6.6 6.6 0 100-13.2 6.6 6.6 0 000 13.2zM729.9 306.1a6.6 6.6 0 100-13.2 6.6 6.6 0 000 13.2zM755.3 306.1a6.6 6.6 0 100-13.2 6.6 6.6 0 000 13.2zM779.6 306.1a6.6 6.6 0 100-13.2 6.6 6.6 0 000 13.2zM805 306.1a6.6 6.6 0 100-13.2 6.6 6.6 0 000 13.2zM829.4 306.1a6.6 6.6 0 100-13.2 6.6 6.6 0 000 13.2zM580.6 280.7a6.6 6.6 0 100-13.2 6.6 6.6 0 000 13.2zM606 280.7a6.6 6.6 0 100-13.2 6.6 6.6 0 000 13.2zM630.4 280.7a6.6 6.6 0 100-13.2 6.6 6.6 0 000 13.2zM655.7 280.7a6.6 6.6 0 100-13.2 6.6 6.6 0 000 13.2zM680.1 280.7a6.6 6.6 0 100-13.2 6.6 6.6 0 000 13.2zM705.5 280.7a6.6 6.6 0 100-13.2 6.6 6.6 0 000 13.2zM729.9 280.7a6.6 6.6 0 100-13.2 6.6 6.6 0 000 13.2zM755.3 280.7a6.6 6.6 0 100-13.2 6.6 6.6 0 000 13.2zM779.6 280.7a6.6 6.6 0 100-13.2 6.6 6.6 0 000 13.2zM805 280.7a6.6 6.6 0 100-13.2 6.6 6.6 0 000 13.2zM829.4 280.7a6.6 6.6 0 100-13.2 6.6 6.6 0 000 13.2zM580.6 256.3a6.6 6.6 0 100-13.2 6.6 6.6 0 000 13.2zM606 256.3a6.6 6.6 0 100-13.2 6.6 6.6 0 000 13.2zM630.4 256.3a6.6 6.6 0 100-13.2 6.6 6.6 0 000 13.2zM655.7 256.3a6.6 6.6 0 100-13.2 6.6 6.6 0 000 13.2zM680.1 256.3a6.6 6.6 0 100-13.2 6.6 6.6 0 000 13.2zM705.5 256.3a6.6 6.6 0 100-13.2 6.6 6.6 0 000 13.2zM729.9 256.3a6.6 6.6 0 100-13.2 6.6 6.6 0 000 13.2zM755.3 256.3a6.6 6.6 0 100-13.2 6.6 6.6 0 000 13.2zM779.6 256.3a6.6 6.6 0 100-13.2 6.6 6.6 0 000 13.2zM805 256.3a6.6 6.6 0 100-13.2 6.6 6.6 0 000 13.2zM829.4 256.3a6.6 6.6 0 100-13.2 6.6 6.6 0 000 13.2zM580.6 231a6.6 6.6 0 100-13.2 6.6 6.6 0 000 13.2zM606 231a6.6 6.6 0 100-13.2 6.6 6.6 0 000 13.2zM630.4 231a6.6 6.6 0 100-13.2 6.6 6.6 0 000 13.2zM655.7 231a6.6 6.6 0 100-13.2 6.6 6.6 0 000 13.2zM680.1 231a6.6 6.6 0 100-13.2 6.6 6.6 0 000 13.2zM705.5 231a6.6 6.6 0 100-13.2 6.6 6.6 0 000 13.2z" fill="#fff"/><path fill-rule="evenodd" clip-rule="evenodd" d="M729.9 231a6.6 6.6 0 100-13.2 6.6 6.6 0 000 13.2z" fill="#F2F2F2"/><path fill-rule="evenodd" clip-rule="evenodd" d="M755.3 231a6.6 6.6 0 100-13.2 6.6 6.6 0 000 13.2zM779.6 231a6.6 6.6 0 100-13.2 6.6 6.6 0 000 13.2zM805 231a6.6 6.6 0 100-13.2 6.6 6.6 0 000 13.2zM829.4 231a6.6 6.6 0 100-13.2 6.6 6.6 0 000 13.2zM580.6 206.6a6.6 6.6 0 100-13.2 6.6 6.6 0 000 13.2zM606 206.6a6.6 6.6 0 100-13.2 6.6 6.6 0 000 13.2zM630.4 206.6a6.6 6.6 0 100-13.2 6.6 6.6 0 000 13.2zM655.7 206.6a6.6 6.6 0 100-13.2 6.6 6.6 0 000 13.2zM680.1 206.6a6.6 6.6 0 100-13.2 6.6 6.6 0 000 13.2zM705.5 206.6a6.6 6.6 0 100-13.2 6.6 6.6 0 000 13.2zM729.9 206.6a6.6 6.6 0 100-13.2 6.6 6.6 0 000 13.2zM755.3 206.6a6.6 6.6 0 100-13.2 6.6 6.6 0 000 13.2zM779.6 206.6a6.6 6.6 0 100-13.2 6.6 6.6 0 000 13.2zM805 206.6a6.6 6.6 0 100-13.2 6.6 6.6 0 000 13.2zM829.4 206.6a6.6 6.6 0 100-13.2 6.6 6.6 0 000 13.2z" fill="#fff"/></svg>
