<svg width="543" height="257" fill="none" xmlns="http://www.w3.org/2000/svg"><path fill-rule="evenodd" clip-rule="evenodd" d="M6.5 12.9a6.5 6.5 0 100-13 6.5 6.5 0 000 13zM31.4 12.9a6.5 6.5 0 100-13 6.5 6.5 0 000 13zM55.2 12.9a6.5 6.5 0 100-13 6.5 6.5 0 000 13zM80.1 12.9a6.5 6.5 0 100-13 6.5 6.5 0 000 13zM104 12.9a6.5 6.5 0 100-13 6.5 6.5 0 000 13zM128.9 12.9a6.5 6.5 0 100-13 6.5 6.5 0 000 13zM152.8 12.9a6.5 6.5 0 100-13 6.5 6.5 0 000 13zM177.7 12.9a6.5 6.5 0 100-13 6.5 6.5 0 000 13zM201.6 12.9a6.5 6.5 0 100-13 6.5 6.5 0 000 13zM226.4 12.9a6.5 6.5 0 100-13 6.5 6.5 0 000 13zM250.3 12.9a6.5 6.5 0 100-13 6.5 6.5 0 000 13zM6.5 256.8a6.5 6.5 0 100-13 6.5 6.5 0 000 13zM31.4 256.8a6.5 6.5 0 100-13 6.5 6.5 0 000 13zM55.2 256.8a6.5 6.5 0 100-13 6.5 6.5 0 000 13zM80.1 256.8a6.5 6.5 0 100-13 6.5 6.5 0 000 13zM104 256.8a6.5 6.5 0 100-13 6.5 6.5 0 000 13zM128.9 256.8a6.5 6.5 0 100-13 6.5 6.5 0 000 13zM152.8 256.8a6.5 6.5 0 100-13 6.5 6.5 0 000 13zM177.7 256.8a6.5 6.5 0 100-13 6.5 6.5 0 000 13zM201.6 256.8a6.5 6.5 0 100-13 6.5 6.5 0 000 13zM226.4 256.8a6.5 6.5 0 100-13 6.5 6.5 0 000 13zM250.3 256.8a6.5 6.5 0 100-13 6.5 6.5 0 000 13zM6.5 232a6.5 6.5 0 100-12.9 6.5 6.5 0 000 13zM31.4 232a6.5 6.5 0 100-12.9 6.5 6.5 0 000 13zM55.2 232a6.5 6.5 0 100-12.9 6.5 6.5 0 000 13zM80.1 232a6.5 6.5 0 100-12.9 6.5 6.5 0 000 13zM104 232a6.5 6.5 0 100-12.9 6.5 6.5 0 000 13zM128.9 232a6.5 6.5 0 100-12.9 6.5 6.5 0 000 13zM152.8 232a6.5 6.5 0 100-12.9 6.5 6.5 0 000 13zM177.7 232a6.5 6.5 0 100-12.9 6.5 6.5 0 000 13zM201.6 232a6.5 6.5 0 100-12.9 6.5 6.5 0 000 13zM226.4 232a6.5 6.5 0 100-12.9 6.5 6.5 0 000 13zM250.3 232a6.5 6.5 0 100-12.9 6.5 6.5 0 000 13zM6.5 208.2a6.5 6.5 0 100-12.9 6.5 6.5 0 000 13zM31.4 208.2a6.5 6.5 0 100-12.9 6.5 6.5 0 000 13zM55.2 208.2a6.5 6.5 0 100-12.9 6.5 6.5 0 000 13zM80.1 208.2a6.5 6.5 0 100-12.9 6.5 6.5 0 000 13zM104 208.2a6.5 6.5 0 100-12.9 6.5 6.5 0 000 13zM128.9 208.2a6.5 6.5 0 100-12.9 6.5 6.5 0 000 13zM152.8 208.2a6.5 6.5 0 100-12.9 6.5 6.5 0 000 13zM177.7 208.2a6.5 6.5 0 100-12.9 6.5 6.5 0 000 13zM201.6 208.2a6.5 6.5 0 100-12.9 6.5 6.5 0 000 13zM226.4 208.2a6.5 6.5 0 100-12.9 6.5 6.5 0 000 13zM250.3 208.2a6.5 6.5 0 100-12.9 6.5 6.5 0 000 13zM6.5 183.4a6.5 6.5 0 100-12.9 6.5 6.5 0 000 13zM31.4 183.4a6.5 6.5 0 100-12.9 6.5 6.5 0 000 13zM55.2 183.4a6.5 6.5 0 100-12.9 6.5 6.5 0 000 13zM80.1 183.4a6.5 6.5 0 100-12.9 6.5 6.5 0 000 13zM104 183.4a6.5 6.5 0 100-12.9 6.5 6.5 0 000 13zM128.9 183.4a6.5 6.5 0 100-12.9 6.5 6.5 0 000 13zM152.8 183.4a6.5 6.5 0 100-12.9 6.5 6.5 0 000 13zM177.7 183.4a6.5 6.5 0 100-12.9 6.5 6.5 0 000 13zM201.6 183.4a6.5 6.5 0 100-12.9 6.5 6.5 0 000 13zM226.4 183.4a6.5 6.5 0 100-12.9 6.5 6.5 0 000 13zM250.3 183.4a6.5 6.5 0 100-12.9 6.5 6.5 0 000 13zM6.5 159.6a6.5 6.5 0 100-12.9 6.5 6.5 0 000 13zM31.4 159.6a6.5 6.5 0 100-12.9 6.5 6.5 0 000 13zM55.2 159.6a6.5 6.5 0 100-12.9 6.5 6.5 0 000 13zM80.1 159.6a6.5 6.5 0 100-12.9 6.5 6.5 0 000 13zM104 159.6a6.5 6.5 0 100-12.9 6.5 6.5 0 000 13zM128.9 159.6a6.5 6.5 0 100-12.9 6.5 6.5 0 000 13zM152.8 159.6a6.5 6.5 0 100-12.9 6.5 6.5 0 000 13zM177.7 159.6a6.5 6.5 0 100-12.9 6.5 6.5 0 000 13zM201.6 159.6a6.5 6.5 0 100-12.9 6.5 6.5 0 000 13zM226.4 159.6a6.5 6.5 0 100-12.9 6.5 6.5 0 000 13zM250.3 159.6a6.5 6.5 0 100-12.9 6.5 6.5 0 000 13zM6.5 134.8a6.5 6.5 0 100-12.9 6.5 6.5 0 000 13zM31.4 134.8a6.5 6.5 0 100-12.9 6.5 6.5 0 000 13zM55.2 134.8a6.5 6.5 0 100-12.9 6.5 6.5 0 000 13zM80.1 134.8a6.5 6.5 0 100-12.9 6.5 6.5 0 000 13zM104 134.8a6.5 6.5 0 100-12.9 6.5 6.5 0 000 13zM128.9 134.8a6.5 6.5 0 100-12.9 6.5 6.5 0 000 13zM152.8 134.8a6.5 6.5 0 100-12.9 6.5 6.5 0 000 13zM177.7 134.8a6.5 6.5 0 100-12.9 6.5 6.5 0 000 13zM201.6 134.8a6.5 6.5 0 100-12.9 6.5 6.5 0 000 13zM226.4 134.8a6.5 6.5 0 100-12.9 6.5 6.5 0 000 13zM250.3 134.8a6.5 6.5 0 100-12.9 6.5 6.5 0 000 13zM6.5 110a6.5 6.5 0 100-12.9 6.5 6.5 0 000 13zM31.4 110a6.5 6.5 0 100-12.9 6.5 6.5 0 000 13zM55.2 110a6.5 6.5 0 100-12.9 6.5 6.5 0 000 13zM80.1 110a6.5 6.5 0 100-12.9 6.5 6.5 0 000 13zM104 110a6.5 6.5 0 100-12.9 6.5 6.5 0 000 13zM128.9 110a6.5 6.5 0 100-12.9 6.5 6.5 0 000 13zM152.8 110a6.5 6.5 0 100-12.9 6.5 6.5 0 000 13zM177.7 110a6.5 6.5 0 100-12.9 6.5 6.5 0 000 13zM201.6 110a6.5 6.5 0 100-12.9 6.5 6.5 0 000 13zM226.4 110a6.5 6.5 0 100-12.9 6.5 6.5 0 000 13zM250.3 110a6.5 6.5 0 100-12.9 6.5 6.5 0 000 13zM6.5 86.3a6.5 6.5 0 100-13 6.5 6.5 0 000 13zM31.4 86.3a6.5 6.5 0 100-13 6.5 6.5 0 000 13zM55.2 86.3a6.5 6.5 0 100-13 6.5 6.5 0 000 13zM80.1 86.3a6.5 6.5 0 100-13 6.5 6.5 0 000 13zM104 86.3a6.5 6.5 0 100-13 6.5 6.5 0 000 13zM128.9 86.3a6.5 6.5 0 100-13 6.5 6.5 0 000 13zM152.8 86.3a6.5 6.5 0 100-13 6.5 6.5 0 000 13zM177.7 86.3a6.5 6.5 0 100-13 6.5 6.5 0 000 13zM201.6 86.3a6.5 6.5 0 100-13 6.5 6.5 0 000 13zM226.4 86.3a6.5 6.5 0 100-13 6.5 6.5 0 000 13zM250.3 86.3a6.5 6.5 0 100-13 6.5 6.5 0 000 13zM6.5 61.5a6.5 6.5 0 100-13 6.5 6.5 0 000 13zM31.4 61.5a6.5 6.5 0 100-13 6.5 6.5 0 000 13zM55.2 61.5a6.5 6.5 0 100-13 6.5 6.5 0 000 13zM80.1 61.5a6.5 6.5 0 100-13 6.5 6.5 0 000 13zM104 61.5a6.5 6.5 0 100-13 6.5 6.5 0 000 13zM128.9 61.5a6.5 6.5 0 100-13 6.5 6.5 0 000 13z" fill="#fff"/><path fill-rule="evenodd" clip-rule="evenodd" d="M152.8 61.5a6.5 6.5 0 100-13 6.5 6.5 0 000 13z" fill="#F2F2F2"/><path fill-rule="evenodd" clip-rule="evenodd" d="M177.7 61.5a6.5 6.5 0 100-13 6.5 6.5 0 000 13zM201.6 61.5a6.5 6.5 0 100-13 6.5 6.5 0 000 13zM226.4 61.5a6.5 6.5 0 100-13 6.5 6.5 0 000 13zM250.3 61.5a6.5 6.5 0 100-13 6.5 6.5 0 000 13zM6.5 37.7a6.5 6.5 0 100-13 6.5 6.5 0 000 13zM31.4 37.7a6.5 6.5 0 100-13 6.5 6.5 0 000 13zM55.2 37.7a6.5 6.5 0 100-13 6.5 6.5 0 000 13zM80.1 37.7a6.5 6.5 0 100-13 6.5 6.5 0 000 13zM104 37.7a6.5 6.5 0 100-13 6.5 6.5 0 000 13zM128.9 37.7a6.5 6.5 0 100-13 6.5 6.5 0 000 13zM152.8 37.7a6.5 6.5 0 100-13 6.5 6.5 0 000 13zM177.7 37.7a6.5 6.5 0 100-13 6.5 6.5 0 000 13zM201.6 37.7a6.5 6.5 0 100-13 6.5 6.5 0 000 13zM226.4 37.7a6.5 6.5 0 100-13 6.5 6.5 0 000 13zM250.3 37.7a6.5 6.5 0 100-13 6.5 6.5 0 000 13zM292.7 12.9a6.5 6.5 0 100-13 6.5 6.5 0 000 13zM317.6 12.9a6.5 6.5 0 100-13 6.5 6.5 0 000 13zM341.4 12.9a6.5 6.5 0 100-13 6.5 6.5 0 000 13zM366.3 12.9a6.5 6.5 0 100-13 6.5 6.5 0 000 13zM390.2 12.9a6.5 6.5 0 100-13 6.5 6.5 0 000 13zM415.1 12.9a6.5 6.5 0 100-13 6.5 6.5 0 000 13zM439 12.9a6.5 6.5 0 100-13 6.5 6.5 0 000 13zM463.9 12.9a6.5 6.5 0 100-13 6.5 6.5 0 000 13zM487.8 12.9a6.5 6.5 0 100-13 6.5 6.5 0 000 13zM512.6 12.9a6.5 6.5 0 100-13 6.5 6.5 0 000 13zM536.5 12.9a6.5 6.5 0 100-13 6.5 6.5 0 000 13zM292.7 256.8a6.5 6.5 0 100-13 6.5 6.5 0 000 13zM317.6 256.8a6.5 6.5 0 100-13 6.5 6.5 0 000 13zM341.4 256.8a6.5 6.5 0 100-13 6.5 6.5 0 000 13zM366.3 256.8a6.5 6.5 0 100-13 6.5 6.5 0 000 13zM390.2 256.8a6.5 6.5 0 100-13 6.5 6.5 0 000 13zM415.1 256.8a6.5 6.5 0 100-13 6.5 6.5 0 000 13zM439 256.8a6.5 6.5 0 100-13 6.5 6.5 0 000 13zM463.9 256.8a6.5 6.5 0 100-13 6.5 6.5 0 000 13zM487.8 256.8a6.5 6.5 0 100-13 6.5 6.5 0 000 13zM512.6 256.8a6.5 6.5 0 100-13 6.5 6.5 0 000 13zM536.5 256.8a6.5 6.5 0 100-13 6.5 6.5 0 000 13zM292.7 232a6.5 6.5 0 100-12.9 6.5 6.5 0 000 13zM317.6 232a6.5 6.5 0 100-12.9 6.5 6.5 0 000 13zM341.4 232a6.5 6.5 0 100-12.9 6.5 6.5 0 000 13zM366.3 232a6.5 6.5 0 100-12.9 6.5 6.5 0 000 13zM390.2 232a6.5 6.5 0 100-12.9 6.5 6.5 0 000 13zM415.1 232a6.5 6.5 0 100-12.9 6.5 6.5 0 000 13zM439 232a6.5 6.5 0 100-12.9 6.5 6.5 0 000 13zM463.9 232a6.5 6.5 0 100-12.9 6.5 6.5 0 000 13zM487.8 232a6.5 6.5 0 100-12.9 6.5 6.5 0 000 13zM512.6 232a6.5 6.5 0 100-12.9 6.5 6.5 0 000 13zM536.5 232a6.5 6.5 0 100-12.9 6.5 6.5 0 000 13zM292.7 208.2a6.5 6.5 0 100-12.9 6.5 6.5 0 000 13zM317.6 208.2a6.5 6.5 0 100-12.9 6.5 6.5 0 000 13zM341.4 208.2a6.5 6.5 0 100-12.9 6.5 6.5 0 000 13zM366.3 208.2a6.5 6.5 0 100-12.9 6.5 6.5 0 000 13zM390.2 208.2a6.5 6.5 0 100-12.9 6.5 6.5 0 000 13zM415.1 208.2a6.5 6.5 0 100-12.9 6.5 6.5 0 000 13zM439 208.2a6.5 6.5 0 100-12.9 6.5 6.5 0 000 13zM463.9 208.2a6.5 6.5 0 100-12.9 6.5 6.5 0 000 13zM487.8 208.2a6.5 6.5 0 100-12.9 6.5 6.5 0 000 13zM512.6 208.2a6.5 6.5 0 100-12.9 6.5 6.5 0 000 13zM536.5 208.2a6.5 6.5 0 100-12.9 6.5 6.5 0 000 13zM292.7 183.4a6.5 6.5 0 100-12.9 6.5 6.5 0 000 13zM317.6 183.4a6.5 6.5 0 100-12.9 6.5 6.5 0 000 13zM341.4 183.4a6.5 6.5 0 100-12.9 6.5 6.5 0 000 13zM366.3 183.4a6.5 6.5 0 100-12.9 6.5 6.5 0 000 13zM390.2 183.4a6.5 6.5 0 100-12.9 6.5 6.5 0 000 13zM415.1 183.4a6.5 6.5 0 100-12.9 6.5 6.5 0 000 13zM439 183.4a6.5 6.5 0 100-12.9 6.5 6.5 0 000 13zM463.9 183.4a6.5 6.5 0 100-12.9 6.5 6.5 0 000 13zM487.8 183.4a6.5 6.5 0 100-12.9 6.5 6.5 0 000 13zM512.6 183.4a6.5 6.5 0 100-12.9 6.5 6.5 0 000 13zM536.5 183.4a6.5 6.5 0 100-12.9 6.5 6.5 0 000 13zM292.7 159.6a6.5 6.5 0 100-12.9 6.5 6.5 0 000 13zM317.6 159.6a6.5 6.5 0 100-12.9 6.5 6.5 0 000 13zM341.4 159.6a6.5 6.5 0 100-12.9 6.5 6.5 0 000 13zM366.3 159.6a6.5 6.5 0 100-12.9 6.5 6.5 0 000 13zM390.2 159.6a6.5 6.5 0 100-12.9 6.5 6.5 0 000 13zM415.1 159.6a6.5 6.5 0 100-12.9 6.5 6.5 0 000 13zM439 159.6a6.5 6.5 0 100-12.9 6.5 6.5 0 000 13zM463.9 159.6a6.5 6.5 0 100-12.9 6.5 6.5 0 000 13zM487.8 159.6a6.5 6.5 0 100-12.9 6.5 6.5 0 000 13zM512.6 159.6a6.5 6.5 0 100-12.9 6.5 6.5 0 000 13zM536.5 159.6a6.5 6.5 0 100-12.9 6.5 6.5 0 000 13zM292.7 134.8a6.5 6.5 0 100-12.9 6.5 6.5 0 000 13zM317.6 134.8a6.5 6.5 0 100-12.9 6.5 6.5 0 000 13zM341.4 134.8a6.5 6.5 0 100-12.9 6.5 6.5 0 000 13zM366.3 134.8a6.5 6.5 0 100-12.9 6.5 6.5 0 000 13zM390.2 134.8a6.5 6.5 0 100-12.9 6.5 6.5 0 000 13zM415.1 134.8a6.5 6.5 0 100-12.9 6.5 6.5 0 000 13zM439 134.8a6.5 6.5 0 100-12.9 6.5 6.5 0 000 13zM463.9 134.8a6.5 6.5 0 100-12.9 6.5 6.5 0 000 13zM487.8 134.8a6.5 6.5 0 100-12.9 6.5 6.5 0 000 13zM512.6 134.8a6.5 6.5 0 100-12.9 6.5 6.5 0 000 13zM536.5 134.8a6.5 6.5 0 100-12.9 6.5 6.5 0 000 13zM292.7 110a6.5 6.5 0 100-12.9 6.5 6.5 0 000 13zM317.6 110a6.5 6.5 0 100-12.9 6.5 6.5 0 000 13zM341.4 110a6.5 6.5 0 100-12.9 6.5 6.5 0 000 13zM366.3 110a6.5 6.5 0 100-12.9 6.5 6.5 0 000 13zM390.2 110a6.5 6.5 0 100-12.9 6.5 6.5 0 000 13zM415.1 110a6.5 6.5 0 100-12.9 6.5 6.5 0 000 13zM439 110a6.5 6.5 0 100-12.9 6.5 6.5 0 000 13zM463.9 110a6.5 6.5 0 100-12.9 6.5 6.5 0 000 13zM487.8 110a6.5 6.5 0 100-12.9 6.5 6.5 0 000 13zM512.6 110a6.5 6.5 0 100-12.9 6.5 6.5 0 000 13zM536.5 110a6.5 6.5 0 100-12.9 6.5 6.5 0 000 13zM292.7 86.3a6.5 6.5 0 100-13 6.5 6.5 0 000 13zM317.6 86.3a6.5 6.5 0 100-13 6.5 6.5 0 000 13zM341.4 86.3a6.5 6.5 0 100-13 6.5 6.5 0 000 13zM366.3 86.3a6.5 6.5 0 100-13 6.5 6.5 0 000 13zM390.2 86.3a6.5 6.5 0 100-13 6.5 6.5 0 000 13zM415.1 86.3a6.5 6.5 0 100-13 6.5 6.5 0 000 13zM439 86.3a6.5 6.5 0 100-13 6.5 6.5 0 000 13zM463.9 86.3a6.5 6.5 0 100-13 6.5 6.5 0 000 13zM487.8 86.3a6.5 6.5 0 100-13 6.5 6.5 0 000 13zM512.6 86.3a6.5 6.5 0 100-13 6.5 6.5 0 000 13zM536.5 86.3a6.5 6.5 0 100-13 6.5 6.5 0 000 13zM292.7 61.5a6.5 6.5 0 100-13 6.5 6.5 0 000 13zM317.6 61.5a6.5 6.5 0 100-13 6.5 6.5 0 000 13zM341.4 61.5a6.5 6.5 0 100-13 6.5 6.5 0 000 13zM366.3 61.5a6.5 6.5 0 100-13 6.5 6.5 0 000 13zM390.2 61.5a6.5 6.5 0 100-13 6.5 6.5 0 000 13zM415.1 61.5a6.5 6.5 0 100-13 6.5 6.5 0 000 13z" fill="#fff"/><path fill-rule="evenodd" clip-rule="evenodd" d="M439 61.5a6.5 6.5 0 100-13 6.5 6.5 0 000 13z" fill="#F2F2F2"/><path fill-rule="evenodd" clip-rule="evenodd" d="M463.9 61.5a6.5 6.5 0 100-13 6.5 6.5 0 000 13zM487.8 61.5a6.5 6.5 0 100-13 6.5 6.5 0 000 13zM512.6 61.5a6.5 6.5 0 100-13 6.5 6.5 0 000 13zM536.5 61.5a6.5 6.5 0 100-13 6.5 6.5 0 000 13zM292.7 37.7a6.5 6.5 0 100-13 6.5 6.5 0 000 13zM317.6 37.7a6.5 6.5 0 100-13 6.5 6.5 0 000 13zM341.4 37.7a6.5 6.5 0 100-13 6.5 6.5 0 000 13zM366.3 37.7a6.5 6.5 0 100-13 6.5 6.5 0 000 13zM390.2 37.7a6.5 6.5 0 100-13 6.5 6.5 0 000 13zM415.1 37.7a6.5 6.5 0 100-13 6.5 6.5 0 000 13zM439 37.7a6.5 6.5 0 100-13 6.5 6.5 0 000 13zM463.9 37.7a6.5 6.5 0 100-13 6.5 6.5 0 000 13zM487.8 37.7a6.5 6.5 0 100-13 6.5 6.5 0 000 13zM512.6 37.7a6.5 6.5 0 100-13 6.5 6.5 0 000 13zM536.5 37.7a6.5 6.5 0 100-13 6.5 6.5 0 000 13z" fill="#fff"/></svg>
