<svg width="256" height="164" fill="none" xmlns="http://www.w3.org/2000/svg"><path fill="#06F" d="M0 0h256v164H0z"/><circle cx="62.4" cy="56.4" fill="#fff" r="3.4"/><circle cx="73.7" cy="56.4" fill="#fff" r="3.4"/><circle cx="85" cy="56.4" fill="#fff" r="3.4"/><circle cx="96.2" cy="56.4" fill="#fff" r="3.4"/><circle cx="107.5" cy="56.4" fill="#fff" r="3.4"/><circle cx="118.8" cy="56.4" fill="#fff" r="3.4"/><circle cx="62.4" cy="66.7" fill="#fff" r="3.4"/><circle cx="73.7" cy="66.7" fill="#fff" r="3.4"/><circle cx="85" cy="66.7" fill="#fff" r="3.4"/><circle cx="96.2" cy="66.7" fill="#fff" r="3.4"/><circle cx="107.5" cy="66.7" fill="#fff" r="3.4"/><circle cx="118.8" cy="66.7" fill="#fff" r="3.4"/><circle cx="62.4" cy="77.1" fill="#fff" r="3.4"/><circle cx="73.7" cy="77.1" fill="#fff" r="3.4"/><circle cx="85" cy="77.1" fill="#fff" r="3.4"/><circle cx="96.2" cy="77.1" fill="#fff" r="3.4"/><circle cx="107.5" cy="77.1" fill="#fff" r="3.4"/><circle cx="118.8" cy="77.1" fill="#fff" r="3.4"/><circle cx="62.4" cy="87.4" fill="#fff" r="3.4"/><circle cx="73.7" cy="87.4" fill="#fff" r="3.4"/><circle cx="85" cy="87.4" fill="#fff" r="3.4"/><circle cx="96.2" cy="87.4" fill="#fff" r="3.4"/><circle cx="107.5" cy="87.4" fill="#fff" r="3.4"/><circle cx="118.8" cy="87.4" fill="#fff" r="3.4"/><circle cx="62.4" cy="97.8" fill="#fff" r="3.4"/><circle cx="73.7" cy="97.8" fill="#fff" r="3.4"/><circle cx="85" cy="97.8" fill="#fff" r="3.4"/><circle cx="96.2" cy="97.8" fill="#fff" r="3.4"/><circle cx="107.5" cy="97.8" fill="#fff" r="3.4"/><circle cx="118.8" cy="97.8" fill="#fff" r="3.4"/><circle cx="62.4" cy="108.1" fill="#fff" r="3.4"/><circle cx="73.7" cy="108.1" fill="#fff" r="3.4"/><circle cx="85" cy="108.1" fill="#fff" r="3.4"/><circle cx="96.2" cy="108.1" fill="#fff" r="3.4"/><circle cx="107.5" cy="108.1" fill="#fff" r="3.4"/><circle cx="118.8" cy="108.1" fill="#fff" r="3.4"/><circle cx="137.7" cy="56.4" fill="#fff" r="3.4"/><circle cx="149" cy="56.4" fill="#fff" r="3.4"/><circle cx="160.3" cy="56.4" fill="#fff" r="3.4"/><circle cx="171.6" cy="56.4" fill="#fff" r="3.4"/><circle cx="182.8" cy="56.4" fill="#fff" r="3.4"/><circle cx="194.1" cy="56.4" fill="#fff" r="3.4"/><circle cx="137.7" cy="66.7" fill="#fff" r="3.4"/><circle cx="149" cy="66.7" fill="#fff" r="3.4"/><circle cx="160.3" cy="66.7" fill="#fff" r="3.4"/><circle cx="171.6" cy="66.7" fill="#fff" r="3.4"/><circle cx="182.8" cy="66.7" fill="#fff" r="3.4"/><circle cx="194.1" cy="66.7" fill="#fff" r="3.4"/><circle cx="137.7" cy="77.1" fill="#fff" r="3.4"/><circle cx="149" cy="77.1" fill="#fff" r="3.4"/><circle cx="160.3" cy="77.1" fill="#fff" r="3.4"/><circle cx="171.6" cy="77.1" fill="#fff" r="3.4"/><circle cx="182.8" cy="77.1" fill="#fff" r="3.4"/><circle cx="194.1" cy="77.1" fill="#fff" r="3.4"/><circle cx="137.7" cy="87.4" fill="#fff" r="3.4"/><circle cx="149" cy="87.4" fill="#fff" r="3.4"/><circle cx="160.3" cy="87.4" fill="#fff" r="3.4"/><circle cx="171.6" cy="87.4" fill="#fff" r="3.4"/><circle cx="182.8" cy="87.4" fill="#fff" r="3.4"/><circle cx="194.1" cy="87.4" fill="#fff" r="3.4"/><circle cx="137.7" cy="97.8" fill="#fff" r="3.4"/><circle cx="149" cy="97.8" fill="#fff" r="3.4"/><circle cx="160.3" cy="97.8" fill="#fff" r="3.4"/><circle cx="171.6" cy="97.8" fill="#fff" r="3.4"/><circle cx="182.8" cy="97.8" fill="#fff" r="3.4"/><circle cx="194.1" cy="97.8" fill="#fff" r="3.4"/><circle cx="137.7" cy="108.1" fill="#fff" r="3.4"/><circle cx="149" cy="108.1" fill="#fff" r="3.4"/><circle cx="160.3" cy="108.1" fill="#fff" r="3.4"/><circle cx="171.6" cy="108.1" fill="#fff" r="3.4"/><circle cx="182.8" cy="108.1" fill="#fff" r="3.4"/><circle cx="194.1" cy="108.1" fill="#fff" r="3.4"/></svg>
