<svg width="256" height="164" viewBox="0 0 256 164" fill="none" xmlns="http://www.w3.org/2000/svg">
<rect x="0.5" y="0.5" width="255" height="163" fill="black" stroke="white"/>
<path d="M49.4 57.76C42.44 57.76 38.96 61.48 38.96 67.42V69.52C38.96 74.08 40.28 77.68 44.06 81.04L49.22 85.66C51.38 87.64 51.56 88.78 51.56 91.3V92.5C51.56 94.24 51.14 95.14 49.94 95.14C48.68 95.14 48.26 94.3 48.26 92.8V86.62H38.54V93.76C38.54 100.3 42.02 103.6 48.92 103.6H51.08C58.7 103.6 62.12 98.92 62.12 91.96V89.74C62.12 84.88 60.74 81.88 56.24 77.74L51.14 73.18C49.4 71.56 48.98 70.48 48.98 68.62V67.48C48.98 66.22 49.34 65.5 50.48 65.5C51.68 65.5 51.98 66.22 51.98 67.42V72.22H61.52V66.88C61.52 61.3 58.88 57.76 51.62 57.76H49.4Z" fill="white"/>
<path d="M73.648 85.18L78.088 103H88.468L82.048 78.28L88.108 58.36H78.268L73.648 74.14V58.36H63.748V103H73.648V85.18Z" fill="white"/>
<path d="M99.1363 58.36H89.2363V103H99.1363V58.36Z" fill="white"/>
<path d="M101.307 58.36V103H109.887V79.72L115.767 103H124.467V58.36H116.007V79.96L110.907 58.36H101.307Z" fill="white"/>
<path d="M133.24 103H147.46C153.28 103 156.34 99.76 156.34 92.74V68.2C156.34 61.06 152.92 58.36 147.4 58.36H133.24V103ZM143.02 66.64H144.52C145.9 66.64 146.26 67.36 146.26 69.22V91.72C146.26 93.58 145.84 94.42 144.4 94.42H143.02V66.64Z" fill="white"/>
<path d="M158.436 58.36V103H177.336V93.58H168.216V84.7H175.236V75.22H168.216V67.6H176.976V58.36H158.436Z" fill="white"/>
<path d="M178.943 58.36V103H197.843V93.58H188.723V84.7H195.743V75.22H188.723V67.6H197.483V58.36H178.943Z" fill="white"/>
<path d="M214.031 85.78C219.131 85.78 222.131 82.42 222.131 76.6V67.36C222.131 61.36 219.671 58.36 213.731 58.36H199.451V103H209.291V85.78H214.031ZM209.291 66.16H210.491C211.991 66.16 212.231 67 212.231 68.38V75.4C212.231 76.78 211.931 77.56 210.491 77.56H209.291V66.16Z" fill="white"/>
</svg>
