<svg width="368" height="93" viewBox="0 0 368 93" fill="none" xmlns="http://www.w3.org/2000/svg">
<path d="M21.8001 0.52002C7.88008 0.52002 0.920078 7.96002 0.920078 19.84V24.04C0.920078 33.16 3.56008 40.36 11.1201 47.08L21.4401 56.32C25.7601 60.28 26.1201 62.56 26.1201 67.6V70C26.1201 73.48 25.2801 75.28 22.8801 75.28C20.3601 75.28 19.5201 73.6 19.5201 70.6V58.24H0.0800781V72.52C0.0800781 85.6 7.04008 92.2 20.8401 92.2H25.1601C40.4001 92.2 47.2401 82.84 47.2401 68.92V64.48C47.2401 54.76 44.4801 48.76 35.4801 40.48L25.2801 31.36C21.8001 28.12 20.9601 25.96 20.9601 22.24V19.96C20.9601 17.44 21.6801 16 23.9601 16C26.3601 16 26.9601 17.44 26.9601 19.84V29.44H46.0401V18.76C46.0401 7.60002 40.7601 0.52002 26.2401 0.52002H21.8001Z" fill="white"/>
<path d="M70.296 55.36L79.176 91H99.936L87.096 41.56L99.216 1.72002H79.536L70.296 33.28V1.72002H50.496V91H70.296V55.36Z" fill="white"/>
<path d="M121.273 1.72002H101.473V91H121.273V1.72002Z" fill="white"/>
<path d="M125.613 1.72002V91H142.773V44.44L154.533 91H171.933V1.72002H155.013V44.92L144.813 1.72002H125.613Z" fill="white"/>
<path d="M189.48 91H217.92C229.56 91 235.68 84.52 235.68 70.48V21.4C235.68 7.12001 228.84 1.72002 217.8 1.72002H189.48V91ZM209.04 18.28H212.04C214.8 18.28 215.52 19.72 215.52 23.44V68.44C215.52 72.16 214.68 73.84 211.8 73.84H209.04V18.28Z" fill="white"/>
<path d="M239.871 1.72002V91H277.671V72.16H259.431V54.4H273.471V35.44H259.431V20.2H276.951V1.72002H239.871Z" fill="white"/>
<path d="M280.887 1.72002V91H318.687V72.16H300.447V54.4H314.487V35.44H300.447V20.2H317.967V1.72002H280.887Z" fill="white"/>
<path d="M351.062 56.56C361.262 56.56 367.262 49.84 367.262 38.2V19.72C367.262 7.72002 362.342 1.72002 350.462 1.72002H321.902V91H341.582V56.56H351.062ZM341.582 17.32H343.982C346.982 17.32 347.462 19 347.462 21.76V35.8C347.462 38.56 346.862 40.12 343.982 40.12H341.582V17.32Z" fill="white"/>
</svg>
