<svg xmlns="http://www.w3.org/2000/svg" width="715.05" height="408.02" viewBox="0 0 189.19 107.95"><path fill="#e3dcc1" d="M155.75 91.66c-2.17-.22-3.28-.4-4.86-.8-3.69-.91-7-2.58-10.15-5.1-.98-.78-3.3-3.13-4.16-4.2-2.81-3.54-5.36-8.15-7.81-14.17a2547 2547 0 00-.96-2.34c-1.36-3.34-1.5-3.7-1.39-3.83.12-.14.85-.46 1.65-.73a7.42 7.42 0 004.15-3.14 10.4 10.4 0 001.92-6.42c0-2.23-.36-3.63-1.23-4.76a6.95 6.95 0 00-3.58-2.13 28.1 28.1 0 00-3.83-.25h-.54l-.12.37c-.11.33-.12 1.05-.15 8.15-.04 8.38.08 24.3.19 26.95.04.88.1 1.85.15 2.14.15 1.05.86 2.72 1.66 3.92.5.74 1.5 1.81 2.12 2.24.93.65 1.2.86 1.15.94-.07.11-16.17-.05-16.17-.17 0-.04.5-.58 1.13-1.2l1.12-1.15-.05-19.15c-.04-18.9-.02-21.89.18-22.26.1-.17.92-.57 1.76-.85a156.49 156.49 0 007.6-2.81l.55-.2h3.2c3.38 0 5.32.07 6.54.24a9.46 9.46 0 015.22 2.27 8.91 8.91 0 012.46 4.49c.28 1.08.35 1.9.3 3.58-.05 2.02-.15 2.47-.92 4.04-.94 1.93-2.3 3.4-4.09 4.45-.72.41-2.07 1.01-2.78 1.23-.69.2-.92.38-.85.62.13.42 1.53 3 2.52 4.64l2.91 4.92c.48.82 1.58 2.71 2.28 3.96.7 1.24 2.46 3.9 3.3 4.98a55.97 55.97 0 005.65 6.38c2.89 2.63 5.62 4.22 8.33 4.82.32.07.57.13.56.15a5.3 5.3 0 01-.62.13c-.43.07-1.06.1-2.34.09-.96 0-1.86-.02-2-.04zm-92.51-3.23c-.35-.05-.36-.13-.05-.52.27-.36.73-1.23 1.27-2.44a5186.91 5186.91 0 014.85-10.7c1.91-4.23 2.82-6.2 4.1-8.91 1.18-2.5 1.28-2.75 1.19-2.9a3.97 3.97 0 00-1.33-.7 5.1 5.1 0 01-.7-.33c-.14-.1-.14-.1 0-.2.23-.18 1.55-.71 4.46-1.82 1.52-.58 3.34-1.29 4.03-1.58 1.64-.68 1.9-.8 3.12-1.26 1.03-.4 2.58-.93 2.68-.93.14 0 .01.3-.68 1.65-.81 1.57-1.01 2.08-1.01 2.52 0 .3.56 2.08 1.5 4.77l1.45 4.25c1.25 3.7 1.47 4.28 1.67 4.28a23 23 0 001.57-.43c.8-.24 1.48-.41 1.5-.39.09.09-.37.92-1.07 1.95-.92 1.37-1.04 1.61-1.03 2.13 0 .35.15.89.86 3.02l1.28 3.87c.51 1.58.85 2.28 1.62 3.36.7.97.8 1.13.72 1.2-.03.03-2.03.06-4.45.05-4.55 0-5.18-.03-5.42-.29a74.04 74.04 0 01-1.88-6.53c-.24-.93-.62-2.04-.79-2.27l-.15-.22-.78.04c-1.58.08-7.43 1.55-9.41 2.37-.47.2-.51.24-.75.65-.47.81-1.04 2.02-1.25 2.64-.27.8-.28 1.36-.04 1.86.2.44.82 1.02 1.54 1.44.3.18.53.34.53.37 0 .06-8.77.06-9.15 0zm12.43-11a223.16 223.16 0 015.8-1.62c.14-.04.14-.07-.07-1.36-.12-.76-.73-3.19-1.6-6.35-.62-2.27-.75-2.63-.9-2.63-.2 0-1.45 2.85-2.32 5.27a85.2 85.2 0 01-1.98 5 31.4 31.4 0 00-.8 1.98c0 .19.51.1 1.87-.3zM99.49 88.4c-.67-.03-1.23-.07-1.25-.09-.07-.07.15-.3.67-.71a7.9 7.9 0 001.54-1.48c.17-.33.18-1.26.08-7.08-.05-2.97-.1-10-.13-15.6l-.04-10.2-1.23-.41c-1.3-.43-1.72-.6-1.78-.69-.1-.15 2.74-1.32 9.92-4.07 3.51-1.36 3.36-1.3 3.42-1.25.12.13-.71 1.67-1.56 2.88l-.58.84-.05 3.16c-.03 1.74-.04 9.73-.03 17.76l.03 14.6.2.27c.11.15.47.48.8.73.81.63 1.36 1.14 1.3 1.21-.18.18-8.12.27-11.3.13zm-60.26-.12c-1.01-.01-1.35-.04-1.35-.1 0-.05.27-.34.6-.65.34-.31.78-.71.97-.9l.35-.32V75.4l-.6-.34c-1.56-.9-2.05-1.24-1.94-1.35.03-.03.2-.01.38.03.73.19 2.82.08 4.74-.24 2.1-.35 3.3-.65 4.6-1.15.68-.26.92-.26 1.05.01.18.37.24 1.83.29 7.1l.04 5.34.92.06c.5.03 1.75.04 2.77.02a11.97 11.97 0 009.21-3.78c.33-.35.63-.62.65-.6.11.11-.69 1.79-2.31 4.84-1.16 2.18-1.4 2.55-1.85 2.85-.18.11-.73.12-8.68.12-4.67 0-9.1 0-9.84-.02zm-.02-18.52c-.18-.01-.83-.1-1.45-.2-1.9-.3-3.59-.76-5.25-1.45a26.64 26.64 0 01-3.42-1.74l-.23-.2.01-1.14c0-.63.08-2.02.16-3.08.22-2.92.28-4.07.35-6.13.04-1.06.1-1.91.13-1.95.1-.1.24.18.65 1.45a23.28 23.28 0 003.13 6.46 8.53 8.53 0 005.21 3.23c.74.14 2.2.1 2.85-.08a5.44 5.44 0 002.8-1.9 6.36 6.36 0 001.44-2.77c.1-.58.1-3.56 0-4.38a7.63 7.63 0 00-1.38-3.62c-1.13-1.7-3.92-4.38-6.9-6.62-5-3.76-7.47-7-8.41-10.99-.6-2.54-.55-5.98.14-8.82.3-1.24.64-2.16 1.2-3.28a11.1 11.1 0 017.86-6.15c.66-.14.9-.16 2.72-.16 1.98 0 2.01 0 3.05.23 1.18.25 2.6.69 3.65 1.14a15.3 15.3 0 012.7 1.4c.42.43.43.75.14 3.72l-.28 3.02c-.09.93-.2 1.21-.38.96a9.45 9.45 0 00-1.4-3.14c-1.2-1.85-2.43-3.08-3.58-3.56a8.13 8.13 0 00-3.87-.44c-1.85.32-3.46 1.68-4.54 3.83-1.14 2.3-.8 6.27.73 8.6 1 1.5 2.55 2.94 6.13 5.68a41.36 41.36 0 016.85 6.45c1.68 2.12 2.81 5.35 3.16 9a19.2 19.2 0 01-1.66 9.32 14.49 14.49 0 01-5.33 5.6c-.77.45-1.8.88-2.68 1.13-1.33.37-3.46.66-4.3.58zm18.34-6.93c-.13-.1-.13-.2-.1-5.38.05-7.54.04-12.12-.02-12.43-.05-.23-.12-.3-.55-.58a17.4 17.4 0 00-1.5-.8c-1.1-.52-1.48-.76-1.39-.84a17.7 17.7 0 012.43-.74l1.03-.27v-2.42l-.05-9.01-.04-6.59-.92-.78-.91-.79 7.05-.02c6.9-.01 10.01.04 10.29.19.18.1.22.58.27 3.38.04 2.03 0 2.73-.14 2.76-.04 0-.12-.19-.18-.43-.24-.87-.81-1.49-1.85-2.01-.83-.41-1.16-.45-6.03-.63l-.68-.02v7.14c0 5.43.02 7.15.08 7.15.2 0 4.9-1.28 6.36-1.73.43-.13.82-.22.86-.2.03.02.06.11.06.2A15 15 0 0170 41.3c-.2.23-1.04.56-3.35 1.31-1.14.37-2.11.7-2.17.74-.06.04-.12.28-.16.62-.08.74-.15 10.58-.07 11.25l.05.52h.28c.6-.03 2.97-.91 4.63-1.71a8.7 8.7 0 004.13-3.84c.2-.38.4-.7.44-.7.05-.02.1.07.13.19.15.76-.15 6.23-.38 6.83a.66.66 0 01-.23.28c-.32.2-3.65 1.58-7.17 2.95l-6.81 2.67c-.75.3-1.42.52-1.52.52a.51.51 0 01-.24-.1zm25.4-10.48c-.46-.17-1.45-.75-1.98-1.16-1.65-1.26-3.1-3.5-3.97-6.1-.47-1.42-1-3.82-1.25-5.73-.12-.9-.12-4.23 0-5.2.68-5.43 3.02-9.96 6.07-11.76 2.04-1.2 4.87-1.3 8.05-.26 1.01.33 1.36.54 1.51.92.18.43.1 5.6-.1 5.79-.03.03-.2-.32-.39-.77-.93-2.28-1.4-3-2.49-3.8-.85-.62-1.15-.74-1.87-.74-.56 0-.66.02-.95.19-1.03.6-1.83 2.18-2.4 4.76-.43 1.9-.57 3.97-.57 8.34 0 4.4.12 6.1.6 8.46.37 1.87.68 2.55 1.5 3.34.53.5.8.58 1.68.58 2.25-.02 3.4-1.06 4.64-4.24l.35-.87.04.66c.02.37.05 1.59.05 2.72.01 2.25.03 2.14-.43 2.38l-1.05.42c-.92.34-2.19.85-2.79 1.12-.79.37-2.11.87-2.54.97-.6.14-1.27.13-1.7-.02zm65.27-3.17c-.06-.21-.2-.87-.3-1.47a16.21 16.21 0 00-.81-3.23 12.55 12.55 0 00-2.7-4.42 10.11 10.11 0 00-2.52-1.95l-.98-.61.02-1.21c.02-2.05.31-5.37.51-5.88.07-.19.09-.2.14-.07.03.08.07.57.1 1.1.08 1.56.44 3.48.8 4.31.13.28.17.31.38.31.85 0 1.36-2 1.88-7.42.05-.51.11-.93.13-.93.02 0 .13.74.24 1.63.64 5.3.78 5.88 1.42 5.88.5 0 .7-.52.97-2.5.17-1.18.53-4.46.78-7.04l.13-1.18c.05-.04.11.57.33 3.21a61 61 0 00.71 6.27c.26 1.4.26 1.4.82 1.24.51-.14.62-.3.78-1.12.3-1.52.63-4.58.64-5.85 0-.35.02-.7.05-.78.05-.13.06-.12.1.05.03.1.16 1.06.3 2.13.34 2.73.81 5.24 1.1 5.81.13.3.5.5.72.4.47-.21.86-1.72 1.16-4.46l.14-1.4c0-.04.02-.05.07 0 .03.03.16 1.12.28 2.41.12 1.3.26 2.76.32 3.26.14 1.27.14 1.4-.1 1.63-.1.12-.52.44-.92.72-2 1.41-2.92 2.2-3.65 3.17-1.2 1.6-2.22 4.36-2.63 7.18-.07.42-.16.86-.2.98l-.1.22-.11-.39zm-52-1.38c-.1-.1-.01-18.07.12-23.36 0-.32-.25-.63-1.24-1.44-.46-.4-.88-.74-.92-.77-.04-.05 2.13-.06 5.93-.04 5.23.03 6.08.05 6.6.15 1.25.24 2.78.89 3.52 1.48a6.07 6.07 0 011.42 1.86c.21.45.21.47.21 1.68 0 1.42-.07 1.8-.54 2.74A4.53 4.53 0 01109.5 32c-.67.36-.93.64-.87.94.09.43.9 2.29 2.63 5.99l.77 1.65c.15.34.27.66.25.71-.06.15-.57.49-1.28.84-.92.47-3 1.3-3.22 1.3-.12 0-.27-.08-.44-.26-.42-.45-.63-.87-3.3-6.67-1.62-3.5-1.62-3.51-1.24-3.51a4.85 4.85 0 004.01-2.9c.13-.43.18-1.72.11-2.67a2.71 2.71 0 00-.27-1.27 3.49 3.49 0 00-2.44-1.76 15.2 15.2 0 00-1.44-.17l-1.2-.11-.27-.04V46.3l-.4.04c-.47.05-1.4.37-3.07 1.05-1.03.43-1.48.54-1.6.42zm19.67-7.83c-.1-.19-.2-2.7-.2-5.56V32.4l-.55-.2c-1.6-.6-1.63-.82-.2-1.1.7-.14.67-.09.74-1.86.04-.85.09-2.36.11-3.37l.04-1.82-.77-.52c-.43-.28-.96-.66-1.17-.83-.34-.28-.38-.33-.26-.37.17-.07 2.55-.1 7.2-.08h3.62l.04.3c.02.17.05.9.07 1.64l.05 1.33-.42-.4c-.68-.65-.68-.65-2.73-.65-.97 0-1.79.03-1.82.06-.03.03-.07 1.1-.08 2.38-.02 2.8-.05 2.68.66 2.67.33 0 .91-.12 1.88-.37.76-.2 1.43-.35 1.49-.33.13.05.12.56-.02.86-.26.56-1.03.98-2.7 1.5-.62.2-1.15.37-1.17.39-.1.1.05 4.6.15 4.71.07.06.62-.16 1.69-.7 1.64-.8 2.28-1.28 2.86-2.1.16-.23.3-.4.32-.38.04.04-.11 2.18-.2 2.7-.11.74-.2.89-.7 1.13-.63.32-6.1 2.56-7.17 2.94l-.65.22-.11-.16zm15.96-3.7a1.08 1.08 0 01-.4-.13c-.15-.12-.19-1.19-.25-6.83-.03-2.74-.08-5-.1-5.02a6.55 6.55 0 00-1.9-.02c-.23.05-.73.21-1.1.37l-.75.31c-.07.03-.09-.27-.09-1.36v-1.4l1.8-.04c2.31-.06 6.9-.06 8.6 0l1.32.04v3.3l-.45-.46c-.39-.4-.52-.49-.9-.6a8.2 8.2 0 00-1.15-.23c-1.07-.13-1.26.02-1.37 1.1-.03.3-.08 2.81-.11 5.57a58.76 58.76 0 01-.14 5.17c-.06.1-.2.17-.44.23-.38.08-2.1.08-2.57 0z"/></svg>
