<svg xmlns="http://www.w3.org/2000/svg" xml:space="preserve" fill="none" viewBox="0 0 256 166">
    <path fill="#95bcd1" d="M0 0h256v166H0z" opacity=".1"/>
    <g transform="translate(8, 78) scale(1.5)">
        <path fill="#000" d="M4.4 1.9v7.5H2.9V1.9H0V.6h7.3v1.3zM17.6.6v8.8H16V5.6h-4.3v3.8h-1.6V.6h1.6v3.6H16V.6zM27.9.6v1.3h-4.4v2.3h3.7v1.4h-3.7v2.5h4.4v1.3h-6V.6zM40.6 9.4l-2.4-6.8v6.8h-1.4V.6h2.1l2.3 6.8L43.5.6h2.2v8.8h-1.5V2.6l-2.3 6.8zM53.3.4c2.4 0 4.1 1.9 4.1 4.6 0 2.7-1.7 4.6-4.1 4.6-2.4 0-4.1-1.9-4.1-4.6 0-2.7 1.7-4.6 4.1-4.6m0 1.4c-1.5 0-2.6 1.3-2.6 3.2 0 1.9 1.1 3.2 2.6 3.2s2.6-1.3 2.6-3.2c0-1.9-1.1-3.2-2.6-3.2M61.1.6h3c2.8 0 4.5 1.7 4.5 4.4s-1.7 4.4-4.5 4.4h-3V.6zm3 7.5C65.9 8.1 67 6.9 67 5c0-1.9-1.1-3.1-2.9-3.1h-1.4v6.2h1.4zM78.4.6v1.3h-4.5v2.3h3.8v1.4h-3.8v2.5h4.5v1.3h-6V.6zM84.2 9.4h-1.6V.6h3.6c2 0 3.2.9 3.2 2.7 0 1.4-.8 2.3-2.1 2.6l2.3 3.6h-1.8L85.6 6h-1.4v3.4zM86 4.6c1.1 0 1.7-.5 1.7-1.4 0-.9-.6-1.4-1.7-1.4h-1.9v2.7H86zM100.6 9.4h-1.4l-4.4-6.5v6.5h-1.6V.6h1.7L99 6.8V.6h1.6zM117.2.6v8.8h-1.6V5.6h-4.3v3.8h-1.5V.6h1.5v3.6h4.3V.6zM125 .4c2.4 0 4.1 1.9 4.1 4.6 0 2.7-1.7 4.6-4.1 4.6-2.4 0-4.1-1.9-4.1-4.6-.1-2.7 1.7-4.6 4.1-4.6m0 1.4c-1.5 0-2.6 1.3-2.6 3.2 0 1.9 1.1 3.2 2.6 3.2s2.6-1.3 2.6-3.2c-.1-1.9-1.1-3.2-2.6-3.2M132.6 5.9V.6h1.6v5.3c0 1.6.8 2.3 2 2.3s2-.7 2-2.3V.6h1.6V6c0 2.5-1.5 3.7-3.6 3.7-2.1-.1-3.6-1.3-3.6-3.8M144.3 6.7c.6 1 1.5 1.5 2.6 1.5 1 0 1.8-.5 1.8-1.3 0-.9-.9-1-2.3-1.3-1.3-.3-2.8-.7-2.8-2.5 0-1.6 1.4-2.7 3.2-2.7 1.5 0 2.7.7 3.3 1.6l-1.2 1c-.5-.8-1.2-1.3-2.2-1.3-1 0-1.6.5-1.6 1.2 0 .8.7.9 1.9 1.2 1.4.3 3.2.7 3.2 2.6 0 1.7-1.5 2.8-3.4 2.8-1.5 0-3-.7-3.7-1.9l1.2-.9zM160 .6v1.3h-4.5v2.3h3.8v1.4h-3.8v2.5h4.5v1.3h-6V.6z"/>
    </g>
</svg>
