<svg width="256" height="166" viewBox="0 0 256 166" fill="none" xmlns="http://www.w3.org/2000/svg">
<rect opacity="0.1" width="256" height="166" fill="#95BCD1"/>
<path d="M79.5157 78.1239L79.4678 78.9674L84.6472 79.2694L84.6952 78.426L85.8412 78.4944L85.6747 81.3609C85.5759 83.0592 84.7686 84.2303 83.2444 84.1391C82.2791 84.0821 81.5734 83.4552 81.2912 82.626L79.1911 83.6433L79.1432 84.4867L78 84.4212L78.0988 82.7115L81.0258 81.3922C81.023 81.2327 81.0202 81.0873 81.0287 80.942C81.0428 80.7055 81.0541 80.4918 81.0738 80.3351L79.3944 80.2354L79.3407 81.1586L78.1948 81.0902L78.3698 78.0555L79.5157 78.1239ZM83.2783 82.8227C84.063 82.8682 84.4751 82.2499 84.5343 81.227L84.5738 80.5403L82.1775 80.4006C82.1577 80.5346 82.1351 80.7141 82.1125 81.1187C82.0561 82.0761 82.4964 82.7771 83.2783 82.8227Z" fill="#1D1D1B"/>
<path d="M79.2166 86.0283L79.2984 86.8689L84.4638 86.3589L84.3819 85.5183L85.5251 85.4043L86.0614 90.9066L83.9331 91.1174L83.8146 89.9064L84.811 89.8067L84.5964 87.6212L82.6009 87.8178L82.8182 90.0489L81.7315 90.1572L81.5142 87.9261L79.4057 88.1341L79.6202 90.331L80.6166 90.2313L80.7351 91.4423L78.6041 91.6531L78.0649 86.1395L79.2166 86.0283Z" fill="#1D1D1B"/>
<path d="M80.0633 93.3628L80.2666 94.1806L85.2993 92.9012L85.096 92.0806L86.211 91.7985L87.5319 97.0956L85.4573 97.6227L85.1638 96.4431L86.1347 96.1952L85.621 94.1322L83.5464 94.6593L84.0742 96.7793L83.0045 97.05L82.4767 94.93L80.5799 95.4116L80.817 96.3633L79.702 96.6454L78.954 93.6421L80.0633 93.3628Z" fill="#1D1D1B"/>
<path d="M83.5464 100.153L86.8658 98.7226L86.5497 97.9789L87.6082 97.5229L88.7654 100.256L87.7098 100.711L87.3626 99.8937L84.1081 101.298C83.0497 101.754 82.7081 102.527 83.0779 103.396C83.4505 104.276 84.1872 104.581 85.2541 104.122L88.5509 102.7L88.2037 101.883L89.2622 101.427L90.4082 104.128L89.3497 104.584L89.0336 103.837L85.7339 105.259C83.9331 106.037 82.6319 105.362 81.9968 103.86C81.3504 102.339 81.7654 100.922 83.5464 100.153Z" fill="#1D1D1B"/>
<path d="M87.6194 106.889C89.5445 105.595 91.8223 106.148 93.0078 107.946C93.9534 109.379 93.8264 110.844 93.0755 111.348C92.6211 111.653 92.1159 111.574 91.8618 111.189C91.5852 110.767 91.6586 110.297 92.065 110.023C92.1892 109.941 92.3304 109.887 92.432 109.872C92.4574 109.599 92.3642 109.146 91.9945 108.584C91.2042 107.385 89.6969 107.071 88.3505 107.975C86.9759 108.898 86.7444 110.474 87.4303 111.514C87.8565 112.16 88.294 112.514 88.8106 112.736L89.8832 112.018L88.8699 110.482L89.7816 109.872L91.4808 112.448L88.2489 114.62L87.5828 113.608L88.0485 113.297C87.4219 113.095 86.8206 112.702 86.3634 112.009C85.3585 110.491 85.6182 108.234 87.6194 106.889Z" fill="#1D1D1B"/>
<path d="M90.6425 115.759L91.2154 116.375L94.9921 112.782L94.4191 112.166L95.2546 111.371L99.0087 115.398L97.4506 116.879L96.6264 115.993L97.3546 115.301L95.8643 113.702L94.4078 115.09L95.9292 116.72L95.1332 117.475L93.6118 115.845L92.0707 117.31L93.5695 118.917L94.2977 118.224L95.1247 119.11L93.5667 120.592L89.8041 116.56L90.6425 115.759Z" fill="#1D1D1B"/>
<path d="M95.757 121.048L96.4147 121.569L99.6183 117.449L98.9607 116.928L99.6691 116.016L103.976 119.427L102.655 121.125L101.71 120.376L102.328 119.581L100.618 118.227L99.3812 119.817L101.128 121.199L100.454 122.065L98.7066 120.683L97.3998 122.364L99.1187 123.726L99.7369 122.931L100.685 123.681L99.3643 125.379L95.0485 121.963L95.757 121.048Z" fill="#1D1D1B"/>
<path d="M104.072 127.072L104.829 127.431L107.033 122.689L106.277 122.33L106.765 121.279L109.28 122.47C111.685 123.61 112.509 125.573 111.547 127.642C110.576 129.73 108.583 130.488 105.978 129.254L103.584 128.12L104.072 127.072ZM106.627 128.283C108.343 129.095 109.678 128.562 110.358 127.095C111.056 125.599 110.406 124.288 108.749 123.501L108.174 123.228L105.969 127.969L106.627 128.283Z" fill="#1D1D1B"/>
<path d="M113.079 128.297C113.616 126.146 115.541 124.883 117.706 125.433C119.856 125.98 120.915 128.015 120.381 130.155C119.845 132.306 117.92 133.568 115.758 133.018C113.602 132.471 112.546 130.437 113.079 128.297ZM119.114 129.833C119.495 128.306 118.764 126.946 117.392 126.599C116.006 126.245 114.728 127.083 114.347 128.619C113.966 130.146 114.697 131.503 116.08 131.856C117.452 132.206 118.73 131.372 119.114 129.833Z" fill="#1D1D1B"/>
<path d="M122.019 130.374C122.148 128.103 123.958 126.564 126.097 126.687C127.802 126.787 128.886 127.77 128.832 128.676C128.801 129.226 128.434 129.585 127.977 129.559C127.475 129.531 127.15 129.189 127.178 128.696C127.187 128.548 127.229 128.4 127.28 128.311C127.079 128.126 126.665 127.929 125.996 127.892C124.57 127.81 123.413 128.87 123.323 130.44C123.235 131.953 124.192 133.218 125.739 133.309C126.597 133.36 127.319 133.01 127.901 132.434L128.686 133.377C127.926 134.15 126.84 134.58 125.671 134.514C123.41 134.38 121.883 132.725 122.019 130.374Z" fill="#1D1D1B"/>
<path d="M131.83 133.15L132.739 133.05L132.171 127.807L130.819 127.955L130.949 129.143L129.764 129.274L129.513 126.966L135.844 126.265L136.095 128.573L134.907 128.705L134.777 127.516L133.425 127.667L133.995 132.91L134.904 132.811L135.028 133.965L131.957 134.304L131.83 133.15Z" fill="#1D1D1B"/>
<path d="M137.362 129.853C136.747 127.724 137.771 125.65 139.914 125.014C142.045 124.385 143.976 125.599 144.588 127.716C145.203 129.844 144.179 131.919 142.036 132.554C139.908 133.184 137.978 131.97 137.362 129.853ZM143.338 128.086C142.9 126.576 141.588 125.778 140.23 126.18C138.861 126.585 138.178 127.961 138.618 129.482C139.056 130.993 140.368 131.79 141.737 131.386C143.095 130.984 143.778 129.608 143.338 128.086Z" fill="#1D1D1B"/>
<path d="M147.151 129.437L147.899 129.058L145.573 124.373L144.825 124.752L144.309 123.715L146.852 122.427C148.356 121.664 149.765 121.786 150.451 123.162C150.885 124.034 150.696 124.966 150.126 125.627L152.045 126.955L152.793 126.576L153.31 127.613L151.794 128.38L149.203 126.479C149.068 126.559 148.943 126.636 148.813 126.701C148.605 126.807 148.415 126.904 148.269 126.964L149.025 128.485L149.844 128.072L150.36 129.109L147.667 130.471L147.151 129.437ZM149.302 123.795C148.949 123.085 148.212 123.034 147.306 123.496L146.699 123.803L147.775 125.972C147.899 125.921 148.065 125.852 148.424 125.67C149.271 125.24 149.655 124.504 149.302 123.795Z" fill="#1D1D1B"/>
<path d="M156.42 124.171L157.072 123.641L153.821 119.558L153.169 120.088L152.449 119.184L154.752 117.315C155.977 116.321 157.493 116.284 158.45 117.483C159.528 118.837 159.124 120.253 157.778 121.347C157.51 121.566 157.343 121.7 157.214 121.789L158.055 122.846L158.766 122.267L159.486 123.171L157.14 125.074L156.42 124.171ZM157.431 118.307C156.94 117.688 156.121 117.688 155.418 118.258L154.8 118.76L156.497 120.891C156.61 120.814 156.753 120.712 157.154 120.387C157.894 119.788 157.987 119.008 157.431 118.307Z" fill="#1D1D1B"/>
<path d="M162.108 119.401L162.67 118.777L158.831 115.249L158.269 115.873L157.42 115.093L159.333 112.97C160.468 111.713 161.826 111.317 162.952 112.352C163.669 113.01 163.824 113.944 163.528 114.768L165.791 115.312L166.353 114.688L167.203 115.469L166.062 116.734L162.966 115.899C162.87 116.024 162.78 116.138 162.684 116.247C162.526 116.421 162.382 116.58 162.269 116.688L163.514 117.834L164.129 117.15L164.979 117.931L162.952 120.179L162.108 119.401ZM162.108 113.357C161.527 112.825 160.821 113.044 160.138 113.802L159.681 114.309L161.456 115.942C161.555 115.851 161.682 115.725 161.953 115.423C162.591 114.714 162.687 113.89 162.108 113.357Z" fill="#1D1D1B"/>
<path d="M165.258 111.904C163.392 110.73 162.791 108.496 163.971 106.584C165.145 104.684 167.389 104.29 169.243 105.456C171.109 106.63 171.71 108.867 170.531 110.776C169.354 112.676 167.112 113.072 165.258 111.904ZM168.552 106.576C167.228 105.744 165.724 106.029 164.973 107.242C164.216 108.465 164.614 109.949 165.947 110.787C167.27 111.619 168.775 111.334 169.531 110.109C170.282 108.898 169.884 107.413 168.552 106.576Z" fill="#1D1D1B"/>
<path d="M171.609 104.983C171.061 104.758 170.833 104.285 171.019 103.826C171.174 103.441 171.617 103.259 172.007 103.418C172.238 103.515 172.388 103.723 172.436 103.874C172.687 103.832 172.947 103.612 173.15 103.111C173.263 102.829 173.291 102.549 173.19 102.313C173.051 101.988 172.729 101.746 172.224 101.538L168.642 100.059L168.225 101.09L167.16 100.652L168.346 97.7224L169.41 98.1612L169.105 98.9106L172.687 100.389C173.497 100.723 174.039 101.213 174.271 101.76C174.51 102.321 174.471 102.937 174.223 103.552C173.746 104.743 172.588 105.385 171.609 104.983Z" fill="#1D1D1B"/>
<path d="M174.714 98.6371L174.914 97.8164L169.876 96.5541L169.675 97.3748L168.56 97.0955L169.876 91.7272L171.953 92.2486L171.662 93.4283L170.691 93.1861L170.169 95.3175L172.114 95.8047L172.648 93.6277L173.709 93.8927L173.175 96.0697L175.23 96.5855L175.755 94.4427L174.784 94.2005L175.075 93.0208L177.152 93.5423L175.834 98.922L174.714 98.6371Z" fill="#1D1D1B"/>
<path d="M173.794 91.2855C171.55 91.0946 170.071 89.2282 170.251 87.074C170.395 85.3558 171.397 84.2901 172.292 84.3671C172.837 84.4127 173.181 84.7945 173.144 85.2532C173.102 85.7576 172.755 86.0796 172.267 86.0368C172.12 86.0254 171.976 85.977 171.888 85.9257C171.702 86.1252 171.496 86.5355 171.439 87.2108C171.321 88.6469 172.34 89.8408 173.892 89.9748C175.388 90.103 176.664 89.1712 176.797 87.6126C176.87 86.7492 176.543 86.0083 175.987 85.4071L176.941 84.6406C177.686 85.4271 178.084 86.5355 177.985 87.7152C177.796 89.989 176.117 91.485 173.794 91.2855Z" fill="#1D1D1B"/>
<path d="M176.8 81.4635L176.723 80.5432L171.519 80.9763L171.631 82.344L172.811 82.2471L172.91 83.4467L170.618 83.6376L170.093 77.2292L172.385 77.0383L172.484 78.2379L171.304 78.3377L171.417 79.7054L176.625 79.2723L176.548 78.3519L177.694 78.2579L177.948 81.3666L176.8 81.4635Z" fill="#1D1D1B"/>
<path d="M87.419 65.1248L87.8678 64.2956L82.8803 61.543L82.4315 62.3722L81.3278 61.7624L82.9706 58.7278L84.0742 59.3376L83.5549 60.2978L88.5537 63.0561L89.6347 61.0586L88.6186 60.4973L89.2706 59.2948L91.3819 60.4602L88.5255 65.7374L87.419 65.1248Z" fill="#1D1D1B"/>
<path d="M91.4497 58.2034L92.0537 57.4027L87.5291 53.9264L86.9251 54.7271L85.923 53.9578L87.9835 51.2223L88.9856 51.9916L88.3815 52.7923L92.9062 56.2686L93.5102 55.468L94.5122 56.2373L92.4517 58.9728L91.4497 58.2034Z" fill="#1D1D1B"/>
<path d="M93.4396 48.9571L96.4175 52.2282L97.1711 51.5301L98.0235 52.4647L95.5735 54.7386L94.7211 53.804L95.4098 53.1657L91.5598 48.94L90.871 49.5782L90.0186 48.6436L91.588 47.1876L98.0461 48.2532L95.4154 45.3611L94.6618 46.0592L93.8094 45.1246L96.2312 42.8763L97.0836 43.811L96.4231 44.4236L101.131 49.5925L100.589 50.131L93.4396 48.9571Z" fill="#1D1D1B"/>
<path d="M101.205 44.3723C99.9852 42.2067 100.773 39.6821 102.853 38.4882C104.513 37.5365 106.11 37.7758 106.599 38.642C106.895 39.1663 106.762 39.722 106.316 39.9756C105.828 40.2548 105.32 40.1408 105.055 39.6707C104.976 39.5282 104.928 39.3686 104.922 39.2547C104.623 39.2091 104.12 39.2803 103.468 39.6536C102.08 40.4486 101.622 42.1326 102.466 43.6314C103.279 45.0761 104.925 45.6517 106.432 44.7883C107.268 44.3096 107.739 43.5459 107.945 42.6598L109.238 43.0473C108.981 44.2213 108.216 45.2841 107.078 45.9366C104.88 47.1989 102.469 46.6148 101.205 44.3723Z" fill="#1D1D1B"/>
<path d="M110.223 39.4883C109.531 37.1632 110.674 34.8722 113.062 34.1513C115.439 33.4333 117.595 34.7383 118.281 37.0521C118.973 39.3772 117.83 41.6682 115.442 42.3891C113.068 43.1071 110.912 41.8021 110.223 39.4883ZM116.887 37.4709C116.396 35.8183 114.934 34.9606 113.415 35.4193C111.888 35.8809 111.126 37.3997 111.62 39.0609C112.111 40.7136 113.576 41.5713 115.103 41.1068C116.622 40.6538 117.381 39.135 116.887 37.4709Z" fill="#1D1D1B"/>
<path d="M121.228 39.531L122.16 39.4541L121.697 33.7352L120.765 33.8122L120.664 32.5442L124.082 32.2621L124.183 33.5301L123.102 33.6184L123.568 39.3515L125.818 39.1663L125.725 38.0009L127.079 37.8897L127.274 40.3118L121.335 40.8019L121.228 39.531Z" fill="#1D1D1B"/>
<path d="M131.971 34.8295L131.438 39.2376L132.451 39.363L132.298 40.6253L128.993 40.2178L129.146 38.9555L130.074 39.0695L130.763 33.3734L129.834 33.2595L129.99 32L132.106 32.2593L135.491 37.9126L135.962 34.0146L134.949 33.8892L135.101 32.6269L138.367 33.0286L138.215 34.291L137.323 34.1798L136.479 41.1496L135.719 41.0812L131.971 34.8295Z" fill="#1D1D1B"/>
<path d="M139.569 40.0924C139.759 39.531 140.213 39.2774 140.698 39.4456C141.218 39.6251 141.415 40.1323 141.286 40.5141C141.221 40.705 141.136 40.8361 141.017 40.9529C141.232 41.2521 141.624 41.5342 142.132 41.7109C142.982 42.0044 143.654 41.8106 143.882 41.1324C144.1 40.4885 143.555 39.9556 142.869 39.4114C141.607 38.3913 140.749 37.5763 141.24 36.1231C141.664 34.8722 142.996 34.2425 144.565 34.7839C146.016 35.2854 146.883 36.4223 146.564 37.3626C146.375 37.9211 145.923 38.1263 145.474 37.9724C144.932 37.7843 144.763 37.2743 144.896 36.8811C144.961 36.6901 145.023 36.6189 145.105 36.5391C144.935 36.334 144.642 36.1146 144.159 35.9464C143.391 35.6814 142.81 35.9208 142.618 36.4907C142.401 37.1347 142.954 37.6447 143.634 38.1975C144.856 39.1777 145.742 40.0297 145.249 41.4829C144.743 42.9732 143.312 43.4234 141.72 42.8734C140.19 42.3406 139.245 41.0441 139.569 40.0924Z" fill="#1D1D1B"/>
<path d="M146.951 43.2639L147.752 43.7483L150.668 38.8216L149.866 38.3372L150.513 37.2458L153.403 38.9897L152.757 40.081L151.879 39.551L150.767 41.4317L154.021 43.395L155.133 41.5143L154.255 40.9843L154.902 39.893L157.792 41.6368L157.146 42.7282L156.344 42.2438L153.428 47.1705L154.23 47.6549L153.584 48.7462L150.693 47.0023L151.34 45.911L152.218 46.441L153.389 44.4635L150.134 42.5002L148.963 44.4777L149.841 45.0077L149.195 46.0991L146.304 44.3552L146.951 43.2639Z" fill="#1D1D1B"/>
<path d="M155.737 49.0425L156.488 49.7036L160.225 45.3781L159.474 44.7171L160.301 43.7596L162.867 46.0164L162.04 46.9738L161.289 46.3127L157.555 50.6382L158.306 51.2993L157.479 52.2567L154.913 49.9999L155.737 49.0425Z" fill="#1D1D1B"/>
<path d="M159.83 52.6842L160.428 53.4108L164.801 49.7435L164.202 49.0169L165.17 48.2048L167.203 50.6725C168.405 52.1342 168.645 53.7014 167.361 54.7785C166.545 55.4624 165.509 55.4823 164.657 55.0179L163.745 57.437L164.343 58.1636L163.375 58.9757L162.164 57.5054L163.508 54.2172C163.387 54.0889 163.274 53.9721 163.169 53.8467C163.003 53.6444 162.85 53.4592 162.749 53.3167L161.329 54.5078L161.984 55.3L161.016 56.112L158.865 53.4991L159.83 52.6842ZM166.387 53.6786C167.047 53.123 166.909 52.3052 166.187 51.4247L165.701 50.8349L163.68 52.5331C163.765 52.6585 163.883 52.8209 164.171 53.1686C164.846 53.9892 165.727 54.2314 166.387 53.6786Z" fill="#1D1D1B"/>
<path d="M165.309 59.6824L165.758 60.5087L170.742 57.7505L170.293 56.9241L171.397 56.3143L174.338 61.734L172.283 62.8709L171.637 61.6798L172.6 61.147L171.431 58.9957L169.506 60.0613L170.697 62.2583L169.647 62.8396L168.456 60.6426L166.424 61.7682L167.598 63.9309L168.56 63.398L169.207 64.5891L167.152 65.726L164.205 60.295L165.309 59.6824Z" fill="#1D1D1B"/>
<path d="M174.558 70.345C174.558 71.2597 173.825 72.0005 172.919 72.0005C172.012 72.0005 171.279 71.2597 171.279 70.345C171.279 69.4303 172.012 68.6895 172.919 68.6895C173.825 68.6895 174.558 69.4303 174.558 70.345Z" fill="#1D1D1B"/>
<path d="M84.015 70.8977C84.015 71.8124 83.2811 72.5533 82.375 72.5533C81.469 72.5533 80.7351 71.8124 80.7351 70.8977C80.7351 69.9831 81.469 69.2422 82.375 69.2422C83.2783 69.2393 84.015 69.9831 84.015 70.8977Z" fill="#1D1D1B"/>
<path d="M113.192 85.9742C105.625 85.2932 100.07 86.0397 96.6828 88.1911C93.9647 89.9178 93.3719 92.1404 93.2618 93.3201V93.9555H115.137C115.154 91.163 115.177 88.3022 115.208 86.2192C114.46 86.111 113.796 86.0283 113.192 85.9742Z" fill="black"/>
<path d="M115.857 118.828H131.912C135.81 118.828 138.98 115.628 138.98 111.693V96.5399C122.515 99.8282 117.841 110.437 115.857 118.828Z" fill="black"/>
<path d="M140.151 46.5464H124.096C120.198 46.5464 117.028 49.7492 117.028 53.6814V68.8347C133.49 65.5465 138.164 54.938 140.151 46.5464Z" fill="black"/>
<path d="M140.941 71.4192C140.947 74.0322 140.953 76.8075 140.947 79.2125L141.37 79.2552C141.861 79.3065 142.344 79.3549 142.815 79.4005C159.943 81.1045 162.461 74.9668 162.743 72.2285V71.4164H140.941V71.4192Z" fill="black"/>
<path d="M142.762 79.9675C142.29 79.9191 141.808 79.8706 141.317 79.8222L140.385 79.7282C140.385 79.7282 140.343 55.4167 140.255 48.3928C140.247 48.4242 140.236 48.4555 140.227 48.4869C136.205 62.5831 126.506 67.6807 117.028 69.4816C116.935 69.4987 116.839 69.5186 116.746 69.5357C116.653 69.5528 116.557 69.5699 116.464 69.587C115.603 69.738 114.745 69.8662 113.892 69.9688C112.879 70.0913 111.874 70.1854 110.886 70.2538C109.667 70.3392 108.476 70.3877 107.327 70.4105C103.468 70.4931 100.002 70.5273 97.4421 70.5387C95.3449 70.5473 93.8546 70.5444 93.2618 70.5416V91.1316C94.4614 88.4418 98.001 85.1649 108.097 85.1649C109.653 85.1649 111.36 85.2418 113.24 85.4128C113.92 85.4726 114.671 85.5667 115.532 85.7006L115.775 85.7376L115.772 85.9855C115.755 87.151 115.659 109.964 115.75 116.987C115.758 116.956 115.769 116.925 115.778 116.893C119.8 102.797 129.498 97.6996 138.98 95.8988C139.073 95.8817 139.169 95.8617 139.262 95.8446C139.355 95.8275 139.451 95.8104 139.544 95.7933C140.402 95.6423 141.26 95.5169 142.11 95.4115C143.123 95.289 144.125 95.1949 145.113 95.1266C146.335 95.0411 147.529 94.9926 148.681 94.967C152.472 94.8844 155.887 94.853 158.433 94.8416C160.601 94.8302 162.139 94.8359 162.743 94.8388V74.3769C161.354 77.4771 156.861 81.3723 142.762 79.9675ZM127.026 75.8729C127.452 75.3457 127.912 74.8442 128.384 74.3057C129.501 75.2346 130.348 76.0581 130.848 77.1865C131.274 78.1439 131.302 79.0756 130.794 80.016C130.481 80.5972 130.153 81.1814 129.93 81.7997C129.623 82.6545 129.369 83.535 129.168 84.4212C129.084 84.7945 128.914 84.9056 128.618 84.8429C128.372 84.7916 127.957 84.6605 127.943 84.5295C127.796 83.0392 127.19 81.7142 126.464 80.4662C125.471 78.7451 125.888 77.2805 127.026 75.8729ZM132.002 85.2019C132.369 85.2019 132.615 85.2675 132.6 85.7262C132.589 86.1565 132.346 86.2049 132.016 86.2049C130.85 86.1992 129.685 86.2021 128.519 86.2021C127.373 86.2021 126.23 86.1992 125.084 86.2049C124.737 86.2078 124.46 86.185 124.457 85.7091C124.452 85.2333 124.72 85.2019 125.07 85.2048C127.381 85.2048 129.693 85.2076 132.002 85.2019ZM123.148 85.1393C122.558 84.8942 122.041 84.7574 121.604 84.4839C120.497 83.7972 120.469 82.3098 121.51 81.5148C122.786 80.5403 124.533 80.697 125.736 81.8966C126.464 82.6232 126.879 83.6433 126.885 84.7603C126.365 84.9255 125.979 84.9483 125.699 84.293C125.377 83.535 124.426 83.2643 123.681 83.6006C123.184 83.8257 123.026 84.2046 123.148 85.1393ZM124.725 88.7922C124.087 88.7267 123.594 88.3107 123.579 87.7978C123.56 87.1082 124.045 86.9202 124.694 86.752C124.669 87.3162 124.929 87.5157 125.389 87.5328C125.863 87.5499 126.204 87.4188 126.374 86.9259C126.436 86.7492 126.617 86.6153 126.797 86.5098C126.947 87.9374 125.993 88.9233 124.725 88.7922ZM129.736 88.2053C129.561 88.8777 129.052 89.4647 128.646 90.1628C127.551 89.0686 126.998 88.3306 127.514 86.9572C127.633 86.6438 127.748 86.4842 128.084 86.5127C128.519 86.5526 129.174 86.413 129.346 86.6438C129.645 87.0512 129.857 87.7351 129.736 88.2053ZM132.307 88.7922C131.079 88.9091 130.232 88.0599 130.122 86.3702C130.39 86.6124 130.611 86.7178 130.661 86.8774C130.828 87.4046 131.184 87.6268 131.672 87.51C131.974 87.4388 132.234 87.1795 132.513 87.0028C132.51 86.9316 132.504 86.8603 132.502 86.7862C133.024 86.9316 133.509 87.1282 133.478 87.8177C133.456 88.3221 132.945 88.7296 132.307 88.7922ZM134.94 84.7717C134.65 84.8914 134.336 84.954 133.967 85.0623C134.023 84.1192 133.823 83.7373 133.236 83.5493C132.507 83.3185 131.644 83.612 131.344 84.3272C131.073 84.9768 130.667 84.8914 130.122 84.7774C130.232 83.3498 130.76 82.1929 131.96 81.4236C132.979 80.7682 134.043 80.64 135.144 81.2612C135.889 81.6829 136.349 82.267 136.298 83.1646C136.25 84.0394 135.657 84.4725 134.94 84.7717Z" fill="black"/>
</svg>
