<svg xmlns="http://www.w3.org/2000/svg" fill="none" viewBox="0 0 256 166">
  <path fill="#95BCD1" d="M0 0h256v166H0z" opacity=".1"/>
  <path fill="#111" fill-rule="evenodd" d="M170.2 73c.6-1.2 1.2-2.1 1.7-2.8l1.3-1.3c.5-.4 1-.6 1.4-.7 1.2 0 1.4 1.4.7 4.3-.5 1.8-1.3 3.4-2.5 4.8-.8 1-1.4 1.7-2 2-.5.1-1 .2-1.2 0-.4-.2-.6-1-.6-2.1 0-1.2.5-2.6 1.2-4.2zm-1.6 8.8c4.8-.5 8.5-3 11.2-7.4l.5-1s1.2-2.7.6-4.8c-.5-1.6-1.6-2.2-1.6-2.2-1-.8-2.5-.9-4.3-.5-4.5 1-7.8 3.4-9.8 7.6-.5.6-1 1.5-1.2 2.5-.3 1-.4 2-.2 2.9.3 2.3 2 3.3 4.8 3z" clip-rule="evenodd"/>
  <path fill="#111" fill-rule="evenodd" d="M158.4 70.6h-.1c-.9-1.5-2.2-2.2-4-2-.5 0-1.1.2-1.8.6-.6.3-1 .5-1 .8-.2.3-.2.4.1.5.9.2 1.4.3 1.7.5.8.4 1.2 1.2 1.2 2.3 0 2.5-.5 5.4-1.4 8.8-.5 1.1-.2 1.7 1 1.7l3.4-.5c1.3-.3 2-.7 2-1.3l.1-1c0-3-.1-5.4-.4-7.4v-.2c1.2-2.3 2.7-3.7 4.7-4.2.7-.2 1.4 0 2 .7.3.2.4.3.5.2.5-.2 1-.7 1.5-1.5.4-.5.5-1.2.5-2 0-1-.8-1.5-2.1-1.4-2.7.2-5.3 2-7.9 5.4zM138.6 59.4c-.5-1.1-1.5-1.6-3-1.3-2.5.3-4.1.8-5 1.4-.3.1-.2.3.1.4.9.3 1.5 1.2 2 2.6 2 5.9 3.2 13 3.6 21.4 0 1 .3 1.6.8 1.8 1 .7 2.6.3 4.8-1a28 28 0 005.6-4.9c1.9-2 3-4 3.5-5.8.5-2.2-.2-3.6-2.1-4.3-1.5-.5-3.1-.4-5 .3-1 .4-2.1 1-3.3 1.8l-.1-.1-1.1-8.6-.4-1.8-.4-1.9zm3 22.7l-.9-8.1c2-1.6 3.5-1.7 4.2-.5.6 1 .6 2.6-.2 4.5a8 8 0 01-3.1 4.1zM148.5 86a44 44 0 01-23.7 15.3 40 40 0 01-24 0h-.2c-.2 0-.2.2-.1.5.6 9 7 15 19.3 18.5 4.5 1.2 8.9 1.5 13.1.8 4.5-.6 8.3-2.3 11.5-4.9a20 20 0 006.8-10.9c1.2-5 1-10.8-.6-17.3l-.2-.7c-.1-.2-.2-.2-.3-.2-.4 0-.5.3-.4.6a32.4 32.4 0 01.2 14.8 18 18 0 01-11 13.6 26.3 26.3 0 01-17.2 1 30 30 0 01-8.7-4.2 18.3 18.3 0 01-4.8-4.3 7 7 0 01-1.1-2.3 49.2 49.2 0 0022.1-3.1c5.1-2 9.6-5 13.7-8.8a26 26 0 006.5-8.5c.2-.4.2-.6 0-.7-.3 0-.5 0-.5.3l-.4.4zM66 85c1.6.2 4-.2 7.1-1.2l6.1-1.6 1.5 9.6c.3 1.5.6 2.4 1 2.6l.7.4 2-.1c2.5-.3 3.7-.7 3.7-1.3v-.8l-2-12.1 6.7-1.7L94 88l.7 3.1c.4 1 1 1.6 1.8 1.5 1.9-.2 3.1-.5 3.8-1 .2-.2.3-.5.1-.8l-.3-.7a64 64 0 01-2.6-12.3l7.8-1.1c-3.6 3.7-4.9 7-3.7 9.7a4 4 0 002 2.2c.8.3 1.7.4 2.8.2 2.3-.4 4.4-1.9 6.3-4.3 1 3 3.3 4.1 6.6 3 .2 0 .3 0 .3-.2 0-.1 0-.3-.3-.4-1.2-.6-1.8-1.8-1.9-3.7 0-1.2 0-2.8.4-5l.5-2.9c0-.8-.4-1.1-1.4-1a17.5 17.5 0 00-3.6 1.8l-.6 1.5c-1 3.6-2.6 6.2-4.5 8-1.4 1.2-2.2 1.3-2.3.2 0-.8.2-1.9.8-3.2 1.2-2.8 3.1-5.2 6-7.4.7-.6 1.6-1 2.4-1.4.2-.1.3-.2.3-.4s-.2-.4-.6-.5h-2.3c-3.8.1-8.9.8-15.3 2.2l-.3-5.2c0-4 0-6.8.3-8.4 0-.6 0-1-.4-1.2-.3-.2-.9-.3-1.7-.2-1.7.1-3.2.6-4.5 1.4-.3.1-.4.2-.3.4l.2.1.3.5c.3.3.5 1.3.6 3l1 10.7-6.8 1.7c-.5-3-.8-5.9-1-8.4l-.4-6c0-1.2-.4-1.9-1.3-1.9-.8 0-1.9.3-3.3.8-1.8.6-3.2 1.4-4.3 2.3-.3.2-.4.5-.2.6l.3.2h.2c.5.2.8.6 1 1.3l1.7 9.5h-.1c-5.8 1.6-10 3.2-13 4.9 0 0-1.5.9-1.3 2.4.2 1.5 2 1.5 2 1.5zm12.9-5.3a90.5 90.5 0 01-8.4 2c-1 .2-1.4.1-1.5-.2 0-.3.4-.6 1.2-1a36 36 0 018.3-3v-.1l.4 2.3z" clip-rule="evenodd"/>
  <path fill="#111" fill-rule="evenodd" d="M133.4 71.5c-1.3.2-2.5.5-3.5.9-3.2 1.3-4.9 2.7-5.1 4.2v1.3c.3.6.7 1 1.2 1.2l5.5 1.4c1.8.5 2.8 1.2 3 2 .8 2.2-.1 4.7-2.8 7.5-1.8 2-3.4 3.4-4.8 4.3-1.2.7-2.4 1.2-4 1.6-1.7.4-3.3-.5-4.8-2.6l-.4-.8c-.3-.3-.4-.6-.4-.8 0-.2.2-.3.4-.3h.4l.6.4a4 4 0 004.1-.6c1.3-1 2.5-2 3.7-3.4L128 86l.6-1.2c.3-.9.3-1.5 0-2-.4-.7-1.6-1.2-3.3-1.3h.1a33 33 0 01-3.5-.8c-1-.3-1.7-.8-2-1.5-1-2.6.3-5.2 3.5-7.8 2.5-2 4.6-3.3 6.5-3.7 2-.4 3.2.5 3.6 2.6l.1 1.1v.1z" clip-rule="evenodd"/>
</svg>
