<svg viewBox="0 0 256 166" xmlns="http://www.w3.org/2000/svg"><path fill="#95bcd1" d="M0 0h256v166H0z" opacity=".1"/><path d="M122.2 135.2c-.6-.7-.6-.7-.5-3.6l.2-5.2c0-2 0-2.2.7-2.8.6-.7.8-.7 2.5-.6 1.6 0 2 .2 2.4.7.5.6.5 1 .3 5.7-.2 6.3-.2 6.3-3 6.4-1.7.1-1.9 0-2.5-.6zm3.5-5.5v-4.3c0-.2-.4-.4-.8-.3h-.8l-.2 4v4.3c0 .3.4.4.8.3h.8zm4 1.4v-8h4.5v1c0 1 0 1-1.3 1h-1.2v1.5l.1 1.5h1c.8 0 1 0 1 1s0 1-.6 1c-1.4 0-1.4 0-1.3 3l.1 2.8h-2zm-17.5 3.8c-2-.4-2.6-1-2.3-3 .1-1 .2-1.3.8-1.3 1 0 1.4.3 1.4 1.2 0 .8 0 1 .8 1s1-.5 1-2.3c0-1 0-1-1.2-1.4-.8 0-1.4-.4-1.7-.9-.5-.6-.5-.8-.2-2.9.2-1.5.5-2.4 1-2.8.4-.7.6-.7 2.2-.5 2.5.3 3 .7 3 2.5 0 .8-.2 1.5-.3 1.6 0 .1-.6.2-1 0-.9 0-1 0-1-1 0-.6 0-.9-.5-1-.8-.2-1.3.5-1.3 1.8 0 1 0 1.1 1.7 1.4a2 2 0 0 1 1.4.8c.4.6.4 1 0 3.3a8 8 0 0 1-.8 3c-.4.5-1.7.7-3 .5zm29.5.1a775.7 775.7 0 0 0-1.3-10.3s-.4-.2-.9-.2c-.8 0-.9 0-1-.8v-1a24 24 0 0 1 5.4-.7l.2 1c0 1 0 1-.6 1-.4 0-.8.2-.9.3l.6 5.4c.3 2.7.6 5 .5 5.2 0 .2-2 .3-2 .1zm6-1c0-.2-2.5-11.7-2.5-12.2 0-.3 1.6-.5 1.8-.3.2.1.5 1.3.8 2.5.4 2.1.5 2.2 1 2.2l1-.3s0-1-.3-2c-.5-2.6-.5-3 .5-3.2h1c.1.1 2.4 11.2 2.4 12 0 .4-.2.6-.8.7h-1a19 19 0 0 1-.9-3.7c-.2-1.4-.3-1.5-1-1.5l-1 .2.5 2.7c.3 1.4.4 2.6.3 2.7-.4.4-1.6.6-1.8.3zm-41.5-.2c-1-.2-1.2-.5-1.4-4.5l-.2-3.9-.8 3.7-.8 3.8h-1l-1-.3a101 101 0 0 1 2.8-12.2c.2-.4.4-.4 1.2 0l1 .2.1 2.4.2 3.7c0 1.8.2 1.2 1-2.6.6-3 .7-3 1.3-3 1.7 0 1.7-.6-.9 11-.4 1.7-.6 2-1.5 1.7zm49.3-2.5a1206.2 1206.2 0 0 0-3-10.9c0-.2.5-.5 1.2-.6l2-.6c.8-.3 1-.2 1.3.2.6.8.3 1.5-.9 2-.6.1-1 .4-1 .6l.4 1.4c.3 1 .3 1 1.2 1 1-.2 1.4 0 1.4 1 0 .5-.2.7-.7 1-1 .2-1 .4-.4 2.3l.4 1.3.8-.2c1.2-.4 1.5-.3 1.8.3.5 1 .1 1.4-1.8 2l-2 .4c-.3 0-.6-.5-.7-1.2zm-58 .4c-.6-.2-.7-.5-.7-1.2 0-.8 0-1-.8-1-.7-.2-1 0-1.5.4-.6.7-1.4.7-2 0a46 46 0 0 1 5.8-11.5c1 0 2.2.6 2.2 1.2 0 1.4-1.7 12-2 12.1-.3.3-.4.3-1 0zm0-4.9.5-4-2 4.2 1 .4c.2 0 .3-.2.4-.6zm69 2.3c-.4-.2-4.7-11-4.7-11.6 0-.2 1-.7 2-1 2-.8 2.1-.8 2.5-.3.6 1 .4 1.4-.7 2-.6.1-1 .4-1 .5l.4 1.4c.5 1.2.5 1.2 1.4 1 .7-.3 1-.3 1.2.1.6.8.4 1.5-.5 1.8l-.8.4 1 2.5 1 2.5-.6.4c-.7.5-.8.6-1.2.3zm-77.6-.4-.3-.5c0-.5 4-11 4.4-11.3.4-.5 1.6 0 1.6.7a68.4 68.4 0 0 1-4.8 11.4 2 2 0 0 1-1-.3zm-6-2.5c-1.5-.6-2-1-1.9-1.2.6-1.7 4.8-10.7 5-11 .4-.4.7-.3 2 .3 2.2 1 3 1.6 3 2.6s-3.9 9.2-4.6 9.8c-.8.6-1.4.6-3.6-.5zm4-5c1-2 1.7-3.7 1.7-4 0 0-.3-.4-.7-.6-.7-.3-.7-.2-1.5 1.5l-1.8 4-1 2.2.5.2 1 .3s1-1.6 1.8-3.6zm85.4 4.4c-.7-.8-4.4-8.8-4.4-9.6 0-1 .6-1.6 2.3-2.4 2.3-.9 2.5-.7 5 4.6a29 29 0 0 1 2.2 5.1c0 2-3.9 3.6-5 2.3zm2.4-2c.2 0 .4-.3.4-.5 0-.6-3.4-7.6-3.7-7.6l-.8.5c-.5.4-.5.5 1.2 4 1.7 3.6 2 4 3 3.6zm-97.2 0-.6-.7 1-2.5c.7-2 .8-2.5.5-2.8-.3-.2-.6.2-1.7 2a11 11 0 0 1-1.5 2.5c-.5.2-1.4-.4-1.4-1 0-.4 5.3-10 6-10.6.2-.3 2 .4 3.3 1.5.8.6 1 1 1 1.5 0 1-1.3 3.5-2.3 4.2-.4.4-1 1.5-1.7 3.4-1.2 3-1.6 3.4-2.5 2.5zm3.6-8.5c.7-1.2.7-1.6 0-2l-.6-.2-.8 1.4c-.6 1.1-.6 1.2-.2 1.5.8.4 1 .3 1.6-.7zm99.1 7.6a127 127 0 0 1-6.2-10.6c0-.2 1-.9 2-1.5 1.7-.9 2-1 2.7-.8 1 .4 2.7 3.1 2.7 4.3 0 .6.6 1.4 2 3.2 2 2.4 2 2.5 1.6 3-.9 1-1.5.6-3.2-1.5l-1.8-2c-.7 0-.7.4 0 1.5l1.3 2.3.7 1.2-.6.6c-.5.6-.7.6-1.2.3zM179 115c.5-.4.5-.4 0-1.6-.7-1.3-.9-1.4-1.7-1-.5.3-.5.4.2 1.6l1 1.4zm-108.7 4.2c-.4-.4-.5-.6-.2-1.2.3-.7.3-.8-.8-1.4-.4-.3-.7-.2-1 .1-.7.6-2 .3-2-.5 0-.6 8-9 8.7-9 .6 0 1.7.6 1.8 1.1.1.2-1 2.8-2.4 5.8-2.8 5.8-3 6.3-4 5.1zm2.4-6.2a16 16 0 0 0 1-2.2l-1.7 1.8c-1.6 1.8-1.7 2-1.2 2.3l.7.4zm107.8-4.7s3-2.6 3.5-2.6c.2 0 .5.3.7.7.4.7.3.8-.6 1.5l-1 .8.8 1.2 1 1c1.8-.8 1.7-.8 2-.3.6.7.5 1.4 0 1.7-.8.4-.7.8.3 2.2l1 1.3.7-.5a3 3 0 0 1 1.3-.6c.5 0 1.2 1 1 1.4-.2.5-3 2.3-3.5 2.3a491 491 0 0 1-7.2-10zM63 114c-1.7-.9-2.4-1.9-2.4-2.9 0-.7.6-1.5 3.5-5l3.6-4.3c.2-.3 1.5.4 1.6.8 0 .3-1.2 2-3 4.3a29 29 0 0 0-3.3 4.2c0 .5.8 1 1.2.8l3.3-3.8 3.2-3.8c.3-.4 1.6.4 1.6 1 0 .5-6.3 8-7.3 8.8-.7.5-1.2.5-2 0zm63.1.2a12 12 0 0 1-6.9-2.7c-.9-.8-1-1-.8-2l.2-1.2-1 .2a13 13 0 0 1-5.4-.2c-1.6-.6-3.4-1.7-3.7-2.2 0-.4 1.1-4.2 5-14.9 5.3-14 5.4-14.4 5-15.2-.4-.8-.6-.9-2.3-1.2-1.8-.4-2-.4-2.2.1l-1.5 1.8c-2.8 2.7-8 3.3-12.2 1.4-2.5-1.2-2.9-1.8-1.8-3.2.6-.7.6-.7 0-.5l-2.3.3c-3.5.3-7.5-1.2-9.7-3.5-.9-1-1-1.3-.7-1.7.1-.3.4-.6.7-.7.3 0-.5-.4-2-.7a17 17 0 0 1-4-1.3c-2.6-1.2-5.3-4.3-5-5.3.2-.2.5-.6 1-.7.6-.3.6-.4-1-1a12.4 12.4 0 0 1-7.5-6.2c-1-2.2-1-2.6 1-3.3l1.7-.5-1.3-.5a16 16 0 0 1-5.8-6c-1.3-2.4-1.6-4.4-1-4.9.3-.4 33.1-5.2 35.6-5.2 2 0 3.6.7 5 2a8.2 8.2 0 0 1 2.1 4.5 13 13 0 0 0 7 8.7c4.7 2.4 7.6 2.2 9.5-.6.6-1 .7-1.5 1-3.8.1-3 .7-5 2-6.8a9 9 0 0 0 1-2.5l1.2-3c.7-1.5.8-1.7 1.5-1.6.5 0 .8.4 1.4 1.6.4.8 1 2 1 3l1 2.3a11 11 0 0 1 2.1 6.6c.3 4.1 1.7 6 4.6 6.5 2.3.3 7-1.8 9.5-4.2a12 12 0 0 0 3.4-6l1-3A7.7 7.7 0 0 1 159 33a982 982 0 0 1 35 5c.8.1 1 1.4 0 3.4a14.6 14.6 0 0 1-6.2 7.5l-1.3.7 1.5.5c1.3.4 1.5.6 1.6 1.2.1 1.2-1.2 3.4-3 5.3a11 11 0 0 1-5.8 3.3l-1 .2.8.5c1 .6 1 1.2 0 2.5-1.7 2.4-5 4.3-8.4 5l-2 .2.7.6c.6.6.6.7.2 1.4-.6 1-2.8 2.6-4.5 3.3-2 .8-5 1.1-6.8.8l-1.6-.2.5.8c.3.5.4 1 .3 1.3-.2.7-3.6 2.2-5.6 2.5-4 .7-8.3-.8-10-3.5l-.7-1-2 .3c-1.6.3-1.9.4-2.2 1.2-.4.8-.3 1 4.8 15l5.3 14.6c0 1-3 2.6-5.4 3-1.4.2-4 0-4.6-.3 0 0-.2.4 0 1.1 0 1.2 0 1.4-.7 2-2.3 2.2-7.4 3.4-11.9 2.8zm6.4-2c1.2-.4 3-1.2 4-1.8.4-.4.3-.9-2.6-13.7l-3-13.3h-1.5v7.1c0 6.5 0 7.3-.4 7.5a1 1 0 0 1-.9 0c-.4-.4-.4-1.3-.5-7.6v-7.2h-.7c-.6 0-.7.3-1.3 3l-3 13.3-2.4 10.3.6.6c2 1.8 7.5 2.6 11.7 1.7zm-5-6.5c0-2.7.3-3.3 1.4-3 .5.2.5.3.4 3.1 0 2.8 0 3-.6 3-1.5 0-1-2.4-1-3zm-9.7.8c.6-.2 1.2-.6 1.3-.9.3-.6 5.3-22.3 5.3-22.7 0-.2-.5-.6-1.2-1-.6-.5-1.6-1.3-2-1.9l-1-1-5 13.2-4.8 13 .7.4a9 9 0 0 0 6.7 1zm-2.4-3.6c-.3-.3-.3-.7 0-2 .6-1.9 1-2.3 1.6-2.3.8 0 1 .7.4 2.5-.6 2.2-1.2 2.8-2 1.8zm2.8-9.4c-.5-.4-.5-.5.2-2.9 2-6.8 2-6.9 2.8-6.8.4 0 .7.3.7.7.1.6-2 8.4-2.6 9-.4.4-.5.4-1 0zm26.3 13c2.5-1 2.7.3-2.7-14.4l-4.8-13-1.7 1.5a13 13 0 0 1-2.2 1.7c-.4.1-.5.4-.5.6l2.8 11.8L138 106l1 .4c1.2.5 4 .5 5.5 0zm-4.2-3.6c-.5-1.2-1.6-4.5 0-4.3 1 .2 2 4.2 1.1 4.6-.6.2-.8.2-1-.3zm-2.5-9.4c-.5-.4-3-8.8-2.7-9.4 0-.2.4-.3 1-.3.6.1.6.3 2 4.6 1 3.3 1.1 4.5 1 4.8-.4.6-.8.7-1.3.3zm-10.2-13.4c0-2.5-2-4-5.4-4.4h-1.8l.5 1c1.3 2.5 4 4.6 6.2 4.7.4 0 .5-.2.5-1.3zm4.3.7c.8-.4 1.8-1 2.3-1.6 1-1 2.5-3.3 2.3-3.5a14 14 0 0 0-5 .8c-1 .6-2 2.5-2 4 0 .8 0 1 .5 1l2-.7zm-22.6-4.2c.7-.3 1.7-1 2.3-1.6l1-1-2.7-1a60.6 60.6 0 0 1-6-2 50 50 0 0 0-3.6 4.8c0 .3 2 1 3.3 1.4 1.6.3 4.2 0 5.7-.6zm46 0 1.6-.6-1.6-2.3-2-2.6c-.2-.2-.6-.2-2 .4a73.2 73.2 0 0 1-6.5 2.4c-.3.2.8 1.5 1.7 2a10 10 0 0 0 8.7.7zm-27.7-5v-4.3l-.8.6c-1 .7-3 1.2-3.7 1-.6-.5-.7-1.5-.3-1.6l1.4-.3c1.2-.2 3-1.8 3.2-2.9.3-1 0-1-.7-.6a4 4 0 0 1-2 .5c-1.2 0-1.2 0-1.2-.7s0-.8 1.3-1c1.4-.5 2.4-1.3 2.6-2.5.3-.8 0-1-.6-.7-.8.5-2 .4-2.4 0-.5-.6 0-1.5 1-1.5s2-1 2.1-2c.2-.9.3-1 1-1s.8.1 1 1c.3 1.1 1 1.7 2 2 1 .1 1.5.8 1.3 1.4-.2.5-1.7.6-2.7 0-.6-.3-.7-.3-.7 0 0 .8.8 2.2 1.5 2.7.3.2 1 .5 1.6.6 1.2.2 1.7 1 1.2 1.5-.5.6-1.6.5-3-.2s-1.5-.6-.8 1c.6 1.3 1.4 2 3.2 2.4 1 .2 1.2.4 1.3 1 .1 1.2-1.7 1.2-3.9 0l-1-.7v8.2l1.2-.6c1-.5 2-.8 4-1l2.7-.3.4-.9.7-2.4.4-1.6h-1c-.8.1-1.3-.3-1.3-.8 0-.4.8-1 1.2-1 .7 0 5.8-1.9 7.5-2.7l1.6-.8-2-2.6c-1.6-2-2-2.8-1.9-3.2.4-1 1.3-.6 3.4 2 1 1.4 2 2.6 2.2 2.7a20 20 0 0 0 5.4-3.8l-5-3.9-4.7-3.8-1.8.6c-2.2.7-3.5.8-5.4.2a7.4 7.4 0 0 1-4.4-4.5l-1.3.5c-2 1.1-5 1-6.5-.5-.4-.4-.5-.3-.8.5a8 8 0 0 1-3.3 3.7c-1.5.8-4.7.8-6.7 0l-1.3-.6-2.5 2a363 363 0 0 1-4.8 4 9 9 0 0 0-2.2 2c.1.5 4.7 3.7 5.1 3.6.2 0 1.2-1.2 2.3-2.6 1.5-2 2-2.5 2.6-2.5 1.2 0 1 1-1 3.5-1 1.4-2 2.5-2 2.7a23 23 0 0 0 6.4 2.7c3.6 1.1 3.7 1.2 3.7 1.8 0 .6-.4 1-1.4.8-.9 0-.9 0 0 2.7.5 2.3.2 2.2 4 2.6a8.5 8.5 0 0 1 4.5 1.5v-4zM117 72a29 29 0 0 1-.4-1.7c0-.4-.3-.3-1 .8l-.9 1.3 1.2.3 1.3.4zm25 .5-1.3-2.4c-.2-.2-1 2.2-1 2.8l2.2-.4zM99.5 72c1.3-.6 2.8-1.9 2.5-2l-2-1.2c-1-.5-2.7-1.6-3.7-2.3-1-.7-2-1.2-2.3-1l-5.8 4.2c-.6.5 2 2.1 4.5 2.8 2 .5 5.1.3 6.8-.6zm66 .2c1.4-.6 3.5-1.8 3.5-2.2l-3.2-2.4-3.2-2.4-2.4 1.6a38 38 0 0 1-4 2.3l-1.5.8.7.7a7 7 0 0 0 3.7 2c1.5.4 5 .2 6.5-.4zm-52.3-.4a9 9 0 0 1 1.2-2.2l1.1-1.8-2-.8c-1.2-.4-2.6-1-3.3-1.4-.8-.4-1.4-.6-1.5-.4a49.5 49.5 0 0 0-3.4 4.1l1.3.6 1.4.6c.2 0 .7-.5 1-1 .6-1 1-1.3 1.4-1.3 1 0 1 .6.5 1.8l-.7 1.1c0 .1.5.4 1.2.6 1.7.5 1.7.5 1.7 0zm33.3-.5c.1 0 0-.5-.4-1.2-.6-1-.6-1.2-.4-1.5.6-.7 1.3-.5 2 .7l.8 1.2s2.8-1 3-1.2c.1 0-2.7-3.5-3.3-4-.2-.3-.6-.2-1.7.3a36 36 0 0 1-4.7 2l-.6.3.7.8c.3.5 1 1.4 1.3 2.1l.7 1.3 1.2-.4zm-41.2-5 2-2.2-1.8-1.3-2.8-2c-1.3-1-1-1.2-4.4 1.5-2.6 2-2.6 1.7-.2 3.1l1.2.7 1.3-1.2c1.3-1.4 2.2-1.5 2.3-.5 0 .5-.2 1-1 1.7-.5.5-.9 1-.8 1.1.3.3 2.3 1.2 2.4 1.1l2-2zm49.4 1.5 1-.7c0-.2-.4-.7-.9-1.3-1-1.2-1-2 0-2 .5 0 .8 0 1.6 1 .6.7 1.1 1.2 1.3 1.2.2 0 1-.4 1.8-1l1.5-1-2.5-1.9c-1.4-1-2.6-2-2.8-2-.2 0-1 .4-1.8 1-.9.6-2 1.6-2.9 2-1.3 1-1.3 1-.9 1.5a255.4 255.4 0 0 1 3.5 3.8s.6-.2 1.1-.6zm-64.7-2 2-1.2.7-.6-.8-.6a51.8 51.8 0 0 1-6-5.6l-4.2 2.3c-4 2-4 2.1-3.6 2.7A10.8 10.8 0 0 0 90 66zm82.2.5c2.8-.5 7.5-3.4 6.7-4.2l-4-2.3-3.8-2-2 2-3.5 3-1.4 1.3.6.5a9 9 0 0 0 5.3 2c.4 0 1.3 0 2.1-.2zm-74.8-5.8 2.5-2-1.9-2-2.4-2.6-.6-.6-3.7 1.8-3.8 2 1.3 1.1 1.3 1.3 2-1.3c2-1.3 3-1.4 3-.4 0 .4-.2.8-1.6 1.7-1 .6-1.7 1.2-1.7 1.3a7 7 0 0 0 2.7 2zm66.6 1.2c.6-.4 1-.8 1-1l-1.4-1c-1.8-1-2-1.5-1.7-2.2.4-.7 1-.6 3 .7l1.8 1.2 1.3-1.2 1.3-1.3-3.8-1.8-3.7-1.8-1.2 1.4-2.5 2.7-1.2 1.2 2.8 2.1c1.6 1.2 3 2 3 2zm-81.6-4.4 2-1a50 50 0 0 1-3.7-5.3l-1.4-2-5 1.5-5 1.6.5 1a12 12 0 0 0 4.5 4.4c2.6 1.3 4.7 1.3 8-.2zm99.5.5a12 12 0 0 0 5-4.4 4 4 0 0 0 .6-1.2l-5-1.7-4.9-1.6-1 1.6c-.9 1.4-1.7 2.5-4 5.4-.2.3.3.6 1.8 1.3 3.3 1.5 4.7 1.6 7.5.6zm-75.8-4 4.5-3.9c.1 0 0-.4-.6-.6a15 15 0 0 1-6.2-8L98 43.1l-5.9 2 1 1.7 2 3 .7 1.2 3.1-1.7c3.3-1.7 4-1.8 4-.6 0 .6-.3 1-3 2.2l-3 1.5L99 55l2.5 2.4 4.6-3.6zM158 55l2.2-2.4-2.7-1.4c-3-1.6-3.5-1.9-3.5-2.6 0-1 1-.8 4.1.8l3.2 1.6 1.1-1.6 1.7-3 .7-1.3-5.5-1.9-5.8-1.8s-.5.6-.8 1.4c-1 2.2-2.6 4.3-4.7 5.8l-1.8 1.2 4.6 3.8c2.6 2 4.8 3.7 5 3.7 0 0 1.1-1 2.3-2.4zm-66.6-1.8a321 321 0 0 0 2.5-1.3l-1-1.7a66.2 66.2 0 0 1-2.7-4.4c-.2 0-8.3 2.4-8.6 2.6-.2.1 0 .5.5 1.4 1 1.5.8 1.5 4 .3 2-.7 2-.7 2.5-.3.7.7.2 1.2-2.3 2.2l-2 .8 1 1.4 1 1.3 1.4-.6 3.6-1.7zm81.4-.3-2.3-1c-2-.8-2.2-1-2.2-1.6.2-1 .8-1 3.4 0l2.3 1 1-1.4c.4-.7.7-1.4.5-1.5-.2-.2-8.3-2.6-8.7-2.6-.2 0-.4.3-.6.8l-1.8 3-1.4 2.3 3.8 1.8 3.7 1.8 1.2-1.2 1-1.4zm-96.5-5 2-.7-1-2.6-2-4.5c-.5-1.7-.6-1.8-1.3-1.7l-5 .8c-2.9.4-4.6.7-4.7 1-.2.5 1.5 3.7 2.8 5.1 1.7 2 4 3.1 6 3.1.7 0 2-.2 3.1-.5zM186 48c2.5-.8 5-3.6 6.3-6.5.5-1.3.5-1.4.1-1.6-.5-.2-10-1.6-10.2-1.5l-.7 2c-.3 1-1 3-1.7 4.4l-1 2.5 1.8.5c2.3.7 4 .7 5.4.2zm-97.2-3.8c.4-.2.7-.4.6-.6a170.4 170.4 0 0 1-1-2.3c-.5 0-9.3 2-9.5 2.2 0 0 .2 1 .6 1.7l.8 1.6 4-1.2zm88.8 1 .7-1.7-9.5-2.2c-.2 0-1 1.5-1 2.3 0 .3.8.7 4.3 1.8l4.6 1.4zm-47.3 1c1.4-.6 2-1.8 2-3.5-.3-2.4-2-5.7-3.4-6-1-.2-2 .7-3 2.8-1.2 2.4-1.4 3.7-.8 5a4 4 0 0 0 5.2 1.7zM97 41.5c7.2-2.3 6.5-2 6-3.2-.9-2-2.7-3.2-5-3.2-1.2 0-9 1-9 1.2-.2 0 .4 2.1.6 2.3a9 9 0 0 0 2.8-.3c3-.7 3.7-.7 3.8.1 0 .8-.3 1-3.5 1.7l-2.5.6.5 1.3c.3.7.7 1.3 1 1.2zm69.1.6c.3-.7.5-1.3.4-1.4l-2.4-.6c-3-.7-3.6-.9-3.6-1.6 0-.8.8-.9 3.7-.3l3 .6c.2 0 1-2.4.7-2.5a71 71 0 0 0-8.8-1.2 6 6 0 0 0-4 1.3c-.8.7-1.6 2.6-1.3 3 .2.1 11.3 4 11.7 4zm13.5-2c.3-1 .5-1.9.4-2l-4.5-.8-5-.7c-.6 0-.7 0-1 1.2v1.4a351 351 0 0 1 9.5 2.4zm-96.5.3 4.5-1s0-.8-.3-1.6c-.3-1.3-.4-1.4-1-1.2a409.6 409.6 0 0 1-9.6 1.5l.4 1.7c.4 1.1.7 1.6 1 1.6l5-1zm46-6a3 3 0 0 0-.4-.8c-.4-.7-.4-.7-.6.2-.3.8-.3 1 .3 1 .4 0 .6-.2.6-.4zm62.7 78.7c-1-.8-1.2-1.5-.6-2 .3-.4 1.5-.5 1.5 0 0 .4 1 .5 1.4 0 .5-.5.4-.5-.5-1.7-1-1.4-1.4-1.5-2-.8-.8.8-1.8 1-2.7.7-.4 0-1.3-1-2-2-1.8-2-1.8-2.7 0-4.3 1.5-1.4 2.4-1.6 3.5-.7 1.1 1 1.4 1.5.8 2.1-.5.6-1 .7-1.7.1-.4-.3-.6-.3-1 0-.7.3-.7.6.1 1.7.8 1 1 1 2.3.2.8-.7 2-.8 2.5-.5l2 2.2c2 2.5 2 3 0 4.8a4 4 0 0 1-2 1c-.4 0-1-.3-1.6-.8zm-136.4-5.7c-1.9-2-1.8-2 2-6.2 4-4.2 4.4-4.6 5.4-4.3 1.2.2 3 2.3 3 3.2 0 1-1.2 2.5-2 2.4-.8 0-1-.8-.6-1.7.3-.6.3-.7-.3-1.2l-.5-.6-2.7 2.8c-3.2 3.3-3.3 3.5-2.7 4 .6.7 1 .6 2-.7 1-1 1-1.3.7-1.6-.4-.5 0-1.3.8-1.5.3 0 .8.1 1.5.8 1.1 1.2 1.3 1-1.7 4-2.3 2.4-3 2.5-4.9.6zm143.2-1.3-3.8-3.6c-2-1.8-2-1.9-2.5-1.4-.6.5-1.2.4-1.7-.5-.3-.3 0-.7 1.4-2 1.8-1.9 2.5-2 3-1.3.2.3.2.6 0 1.2-.4.6-.4.7 3.2 4.3 2 2 3.6 3.7 3.6 4 0 .2-.9 1.1-1.2 1.1-.2 0-1-.8-2-1.8z"/></svg>
