<svg fill="none" xmlns="http://www.w3.org/2000/svg" viewBox="0 0 256 166">
  <path opacity=".1" fill="#95bcd1" d="M0 0h256v166H0z"/>
  <path d="M43.46 83V74.6h11.5v2.87H46.8v3.83h7.67v2.88h-7.62v7.24h-3.4Zm17.24 8.41V74.6h3.38v16.85zm10.06 0V74.6h11.98v2.87h-8.62v3.83h7.66v2.88h-7.62v7.24zm20.58-.08.02-13.87H85.6V74.6h15.33v2.87H94.72v13.89l-3.38-.02zm17.26-7.96-2.87-4.11-3.03-4.68 3.68-.02 4.17 5.78 4.46-5.78h3.3l-3.15 4.89-2.69 3.92-.28 7.98h-3.59zm21.08-.4V74.6h11.49v2.87h-8.62v3.6l8.62.06v3.05h-8.62V88h8.62v3.35h-11.49zm17.72 8.38V74.6h3.37v16.76zm14.13-.9c-4.71-2.18-6.35-7-3.93-11.57 1.53-2.88 4.26-4.3 8.33-4.3 2.96 0 6.37.97 6.37 1.8 0 .23-.29.82-.64 1.3-.56.77-.86.81-2.23.33-3.29-1.14-7.26-.29-8.8 1.9-2.87 4.1 1.18 8.57 5.01 8.43 4.22-.16 4.33-.7 4.33-.7v-3h-2.66c-2.65 0-2.67-.02-2.67-.02v-2.85H172.54v7.43l-2.13 1.07a10.75 10.75 0 0 1-8.88.18zm17 .9V74.6h3.35v6.64l8.39-.18v-6.44l3.11-.02v16.76h-2.87v-7.18h-8.58v7.18zm24.9.07V77.51h-6.01l.03-2.92 15.09-.03v2.95h-5.72l-.14 6.78-.13 7.13h-3.11z" fill="#111"/>
</svg>
