<svg xmlns="http://www.w3.org/2000/svg" fill="none" viewBox="0 0 256 166">
  <path fill="#95BCD1" d="M0 0h256v166H0z" opacity=".1"/>
  <path fill="#111" d="M149.5 107.9c-1.4-.4-3.8-3-4.4-4.7-.7-1.6-.7-1.6-1.1-.6-.4.5-.4 1.6-.4 2.4.4 1.7-.3 1.6-1.5-.3-.8-1.2-1-2-1-4.2 0-3 0-2.9-5.4-7.7-1.6-1.4-2.2-2.2-2.2-3.2 0-.4-.6-1.6-1.6-2.8-1.6-2-2-3.2-.8-2.1.4.3 1.3.6 2.3 1 1.4.3 1.7.6 1.9 1.5.3 1.2.6 1.3 1.9 1.6 1.2 0 2.6 1.2 5.3 3.2 4.3 3.6 5.6 3.9 6.8 1.6l1-1.4.6 1.6c.7 1.6.7 2 0 3.4l-.6 1.6h1.6c2-.4 2.8-1 3.5-2.4.3-1.2-.5-3.2-1.5-3.7-.3 0-.3-.2.2-.2 1.4 0 3.5 1.1 4.7 2.4a5 5 0 011.1 3.5c0 3-1.9 4.8-5 5.6-2.2.7-2.4.7-1.1 1.1l2.2.5h1.1l-1 .8c-.6.5-1.8 1-2.8 1.3-1.2.4-2.6.4-3.8 0v.2zm-26.1-1.2c-2.3-.4-4.4-1.6-6-3.2-1.3-1.5-2-1.5-2-.6 0 1.1-1.2-.2-2.1-2.2a15.4 15.4 0 01-.5-9.3c.5-2.4.5-2.4-.3-2.2-.7.1-.7 0-.5-1 .3-1.3 1.9-3.7 3.3-5.1l1.1-1-.3 3.2-.3 3.2 2.4-2.4 2.7-2c.1 0 .3.6.1 1.4-.1 1.6 0 1.7 1.6.6.5-.5 1.3-.8 1.7-.8.7 0 .7.2-.4 2a10.6 10.6 0 00-2 7.1c.5 3 3 5.2 6 5.2 1.5 0 4.7-2 6-3.7l1.2-1.3 2.2 1.6 1.8 1.6-1.2 2c-1.6 2.6-3.9 4.8-6.6 6.3-2.4.8-5.9 1.3-8 .6zM78.6 102l2.4-1.5a8 8 0 002.3-1.6c.2-.5.4-6.4.4-13.6V72.4l-2.3-2.1a15 15 0 01-3.3-4.2c-1.6-3.2-1.6-3.5.7-2.4 1.5 1 2.5 1 13 1.3a43 43 0 0113.5 1.3c4.8 1.8 8.7 5.3 10.3 9.3l.7 1.6-2 1.2c-1 .7-2.5 2-3.1 2.6-1 1-1.6 1.3-2.9 1.3-1 0-1.5-.2-1.5-.5-.2-2-1-3.8-2.2-5.3-1.6-1.7-4.8-2.8-8.3-2.5H94v19.2h2.9c2 0 3.6 0 4.7-.5a8.6 8.6 0 005.3-8c0-1.5 0-1.5 2.2-1.6l3.5-.7 1.5-.3-1.5 2a12 12 0 00-1.8 3.8c-.8 2.5-1 6.4-.3 6 .3-.1.5.5.5 1.8 0 2 0 2.3-1.6 3.2-1 .7-2.7 1.6-4 2-8.8 1-17.8 1.4-26.7 1zm82.3-1.2c1-2 .8-3.2-.3-5.5l-1-1.9h2c4.4-.5 6.7-3 7.5-7.5 1-5.6-1.6-10.4-5.8-11.5-2.3-.5-4.7-.6-7-.2 0 .2-.8.4-1.6.2-.8 0-2.3.2-3.5.5l-2 .3c.3-.6 0-.5-1.4.2l-1.1.6-.4-1.8c-.3-1.6-.8-2.2-2.7-4.1-2-2-4.5-6.1-4-6.7 4.6 1.3 9.5 1.9 14.3 1.6 12.5.4 14.6 1 18.9 4 8.5 6.4 9.5 20 1.9 27.6a20.4 20.4 0 01-13.2 5.6h-1l.4-1.4zm-8-5.3c0-1.6 0-1.6.7-1.3.3.3.7.8.7 1.3s-.4 1-.7 1.3c-.6.5-.6.3-.6-1.3zm-6.2-2.2v-4c0-3.2 0-3.7 1-4.8 1.6-1.8 3.5-2.3 5.4-1.6 1.2.6 1.8.6 2.1.3l1-.3c.4 0 .4 1 .4 4.3v4.3l-3-.3c-1.6 0-3.3-.4-4.7-1.1l-1.6-1.2.5 1.3c.4 2.1.4 3.2-.4 3.5-.4 0-.7 0-.7-.4zm-19-3.2c.8-.8.6-1.3 0-1-.7 0-.8 0-.4-.6 1.3-2.4 0-4.4-2.5-4.4-1.9 0-2-.4-.3-1.9l1.3-1-1-.4c-1-.3-.8-.5 1-1.1l1.9-.7-2.1.2c-2.2.3-4.1 1.1-4.1 2 0 .2.3.4.8.4s0 .3-.8.8c-.8.3-2 1-2.5 1.6l-1.3.6V83c0-1.6-.5-2.2-2.4-2.4h-1.6l2.7-1.6c1.4-.8 2.6-1.6 2.6-2 0-.4-.4-1.2-1-1.6l-1-1.2 1.6.2 1.6.2-.1-1.6-.4-1.8 1 1.1 3.2 2.3 2.8 1.9c.3.3.6.3.6 0 0 0-.4-.8-1.2-1.5-1-.8-1.3-1.2-1.3-2.8 0-3.2.5-3.7 1.3-1.6.5.8 2.2 2.8 4 4.6l2.8 2.4c-.2-.5-1.3-1.8-2.4-2.9-2.2-2-2.8-3.2-2.4-4.8.4-.8.4-.8.7.5.1.6 1.5 2.6 3.4 4.3 3.2 3.5 4 4.5 4 6 0 1.4 1.4 2.8 2 2.2 0-.4.2-.5.5-.5.5 0-.4 3-1.2 4-.7.6-.7.6-1.1-.3-.5-.8-1.1-1.2-2-1.5-1.2-.1-1.4-.3-1.2-1.3 0-1 0-1-2.7-1-1.6 0-2.7.2-2.7.6l.7.3c.4 0 .6.3.4 1.3-.3 1-.1 1.4.3 1.6.4 0 .7.4.7.6 0 1.1 0 1.6.8 1.6.4.2.3.5-.8 1.1-1.6 1.1-3.2 1.5-2.2.5v.2zm5-10c-.8-1-1.6-1.4-1.6-.6 0 .8.8 1.6 1.6 1.6.5 0 .5 0 0-1zm8.1 8.7l-1.4-1.3 2-2c2.2-2.6 5.4-4.7 8-5.5 1-.3 1.4-.5.7-.5-1.5 0-5.3 1.6-7 3.2-2.1 1.6-2.3 1.6-.9-.6 1.4-2.3 3.7-4.4 3.7-3.4 0 1 .3 1 2.3-.8 2-1.6 3.2-2 2.3-.8-.7.8 0 1.1 1.4.6 1.9-.6 4.4-.4 6.8.7 2.7 1.3 3.1 2 1.2 2-.7 0-2.3.2-3.4.7-1.6.5-2.6.6-3.5.3-3.2-1-5.9.8-8.6 5.5l-2 2.7c-.2 0-1-.3-1.6-1v.2zm14.7-12.8l.5-.5h.6c0 .3-.1.5-.6.5h-.5zm-23-2.9c-1.7-1.6-1.8-2-1.5-3 1.6-4-1.6-8-5-6.1-.6.3-1.2 1-1.5 1.6-.5 1.1-1.3 5.4-1.1 6.2 0 0-.3.4-.6.2-.5 0-1.3-1.1-1.8-2.4l-1.4-2.2-.8 2.5-.6 2.4-.5-1.7C115.9 64 121.8 58 128.9 59c5.6.6 8.7 4.5 8.3 9.6 0 2.6-1.6 6.4-2.6 6.4-.1 0-1.2-.8-2.2-2z"/>
</svg>
