<svg xmlns="http://www.w3.org/2000/svg" fill="none" viewBox="0 0 256 166">
  <path fill="#95BCD1" d="M0 0h256v166H0z" opacity=".1"/>
  <path fill="#111" d="M87.6 64c-.2 3-2 4.8-5 4.8-3.5 0-5.8-2.8-5.8-6.9 0-4.1 2.3-6.9 5.7-6.9 2.5 0 3.9 1.3 4.6 3.3h2.3c-.7-3.2-3.2-5.3-7-5.3-4.4 0-7.9 3.5-7.9 8.9s3.5 9 8 9c4.3 0 7.3-3 7.3-7.7V62h-6.3v2h4.1zM98.3 63.2l5 7.4h2.5l-5.1-7.5c2.7-.3 4.4-2 4.4-4.8 0-3.3-2.2-5-5.7-5h-6.5v17.3h2.3v-7.4h3zm-3.1-8h4.1c2.3 0 3.6 1.2 3.6 3 0 2-1.3 3.1-3.6 3.1h-4.1v-6.1zM108.6 53.3v17.3h11.1v-2h-8.9v-6h8.1v-2h-8v-5.4h8.8v-2h-11zM128.6 53.3l-6.8 17.3h2.2l2-5.3h7.2l2 5.3h2.3l-6.8-17.3h-2.1zm1 2.7l2.9 7.4h-5.7l2.8-7.4zM137.4 55.2h6.1v15.4h2.3V55.2h6v-2h-14.4v2zM154.8 53.3v17.3h11.1v-2H157v-6h8v-2h-8v-5.4h9v-2h-11.2zM174.8 63.2l5 7.4h2.6l-5.2-7.5c2.7-.3 4.4-2 4.4-4.8 0-3.3-2.2-5-5.7-5h-6.5v17.3h2.3v-7.4h3zm-3.1-8h4.2c2.3 0 3.5 1.2 3.5 3 0 2-1.2 3.1-3.5 3.1h-4.2v-6.1zM79.5 99.2L74 112.8h.7l1.9-4.7H83l2 4.7h.6l-5.5-13.6h-.6zm.3 1l3 7.2h-6l3-7.2zM93 113c2.7 0 5.1-1.8 5.1-5.5v-8.3h-.7v8.2c0 3.4-2 5-4.5 5s-4.4-1.6-4.4-5v-8.2h-.7v8.3c0 3.7 2.3 5.5 5.1 5.5zM100.7 99.9h5.1v13h.7v-13h5.2v-.7h-11v.7zM124.6 99.2v6.3h-9.4v-6.3h-.7v13.6h.7v-6.7h9.4v6.7h.7V99.2h-.7zM140.3 106c0-4.2-2.6-7-6-7s-6 2.8-6 7 2.6 7 6 7 6-2.8 6-7zm-.7 0c0 3.8-2.2 6.3-5.3 6.3-3 0-5.2-2.5-5.2-6.3 0-3.7 2.1-6.3 5.2-6.3s5.3 2.6 5.3 6.3zM147.9 106.6l4.2 6.2h.8l-4.2-6.2c2.2-.2 3.5-1.5 3.5-3.7 0-2.4-1.6-3.7-4.2-3.7h-4.7v13.6h.7v-6.2h3.9zM144 100h4c2.3 0 3.5 1 3.5 3s-1.2 3-3.5 3h-4v-6zM156.5 99.2h-.7v13.6h.7V99.2zM159.3 99.9h5.2v13h.7v-13h5.2v-.7h-11v.7zM177.2 106.2l-4.6-7h-.8l5 7.7v6h.7v-6l5-7.7h-.7l-4.6 7zM75.1 93.6H87v-3.2h-8.1V76.3H75v17.3zM106 85c0-5.3-3.4-9-8.3-9s-8.3 3.7-8.3 9c0 5 3.4 8.8 8.3 8.8s8.3-3.7 8.3-8.9zm-3.7 0c0 3.3-1.8 5.6-4.6 5.6S93 88.3 93 85c0-3.4 1.8-5.7 4.6-5.7s4.6 2.3 4.6 5.7zM124.6 76.3h-3.5v10.9l-7.7-11H110v17.4h3.5V82l8.2 11.6h2.9V76.3zM133 90.4v-11h2.5c3.3 0 5.1 2.1 5.1 5.5s-1.8 5.5-5.1 5.5H133zm-3.6 3.2h6.2c5.3 0 8.6-3.4 8.6-8.7 0-5.3-3.3-8.6-8.6-8.6h-6.2v17.3zM164 85c0-5.3-3.3-9-8.2-9-4.9 0-8.3 3.7-8.3 9 0 5 3.4 8.8 8.3 8.8s8.3-3.7 8.3-8.9zm-3.6 0c0 3.3-1.8 5.6-4.6 5.6s-4.6-2.3-4.6-5.7c0-3.4 1.8-5.7 4.6-5.7s4.6 2.3 4.6 5.7zM182.7 76.3h-3.5v10.9l-7.7-11H168v17.4h3.5V82l8.2 11.6h2.9V76.3z"/>
</svg>
