<svg fill="none" viewBox="0 0 256 166" xmlns="http://www.w3.org/2000/svg">
  <path opacity=".1" fill="#95bcd1" d="M0 0h256v166H0z"/>
  <g fill="#111">
    <path d="M75.3 63Zm13.5-1.7a9.8 9.8 0 0 0-8.5-7.1 34.3 34.3 0 0 0-4.6 0 9.8 9.8 0 0 0-8.4 7.1 9.5 9.5 0 0 0-.4 2.7v19a22.8 22.8 0 0 1 4.4-1.6V64.2a5.5 5.5 0 0 1 1.8-4.2 5.3 5.3 0 0 1 3.4-1.4h3a5.4 5.4 0 0 1 3.7 1.7 5.4 5.4 0 0 1 1.4 3.2l.1 6.7c2.9-2 4.7-5.2 4-8.9zM80.7 63.1zm0 39.8zm-13.4 1.8a9.8 9.8 0 0 0 8.4 7.1 34.3 34.3 0 0 0 4.6 0 9.8 9.8 0 0 0 8.5-7.2 9.5 9.5 0 0 0 .3-2.6V83a22.8 22.8 0 0 1-4.4 1.6v17.1A5.5 5.5 0 0 1 83 106a5.3 5.3 0 0 1-3.4 1.4h-3a5.4 5.4 0 0 1-3.7-1.7 5.4 5.4 0 0 1-1.4-3.2l-.1-6.7a8.8 8.8 0 0 0-4 8.9zM75.3 102.9z"/>
    <path d="M75.8 89.7V102a.9.9 0 0 1-.4.7v.1h5.2v-.1a.9.9 0 0 1-.4-.7V80.8a18.8 18.8 0 0 0 15-9c7.6-11.1-2.1-26.5-15.8-26.6h-2.6A19 19 0 0 0 58 64v26.3a23.2 23.2 0 0 1 4.4-4.6V63a14.4 14.4 0 0 1 14.4-13.3h2.4c8.1-.1 15.5 7.4 14 15.4a14.4 14.4 0 0 1-13 11.2V64a.9.9 0 0 1 .4-.7V63h-5.2v.1a.9.9 0 0 1 .4.8v21.3C65 85.6 55 96.8 59 108.3a19 19 0 0 0 17.7 12.5h2.4A18.9 18.9 0 0 0 98 102V75.7a23.2 23.2 0 0 1-4.4 4.6V103a14.4 14.4 0 0 1-14.3 13.3h-2.6a14.4 14.4 0 0 1-14-11.2c-.8-4.4 1.4-9 4.7-12a14.3 14.3 0 0 1 8.3-3.4zM105.3 72V57.9l-1.8-.4v-1.8h7.9q2.6 0 4.2.6a4.2 4.2 0 0 1 2.2 1.8 6 6 0 0 1 .7 3 6.8 6.8 0 0 1-1 3.5 5.6 5.6 0 0 1-2.4 2.3 9.2 9.2 0 0 1-4 .7h-1a3.6 3.6 0 0 1-.7 0v4.5l3.2.4V74h-9.1v-1.6zm8-7.3q1-1 1-3.7 0-2-.9-3-.8-.9-2.5-.8a4.9 4.9 0 0 0-1.2.1h-.3v8.4a8.6 8.6 0 0 0 1.6.2 2.8 2.8 0 0 0 2.4-1.1zm6.3-1.3a5.8 5.8 0 0 1 2.3-2.3 7.2 7.2 0 0 1 3.6-.9q2.5 0 3.8 1.2 1.4 1.2 1.5 3.4a11.3 11.3 0 0 1-.2 2.3h-7.8q.2 2.2 1 3.3a3.2 3.2 0 0 0 2.6 1 6.2 6.2 0 0 0 1.9-.2 6.7 6.7 0 0 0 1.6-.7l.7 1.5a5.2 5.2 0 0 1-1.3.9 9 9 0 0 1-1.9.7 7.7 7.7 0 0 1-2 .3 7.3 7.3 0 0 1-3.8-.8 5.2 5.2 0 0 1-2.2-2.4 8.6 8.6 0 0 1-.7-3.6 7.7 7.7 0 0 1 .9-3.7zm7.3 2v-.8a3.8 3.8 0 0 0-.4-2 1.6 1.6 0 0 0-1.5-.7 2.2 2.2 0 0 0-1.1.3 2 2 0 0 0-.8 1.1 7.1 7.1 0 0 0-.4 2.2zm12.8-.6a2.8 2.8 0 0 0-.3-1.1 1.3 1.3 0 0 0-.7-.7 4.2 4.2 0 0 0-1.5-.2 10.2 10.2 0 0 0-2.2.2 17 17 0 0 0-2 .6l-.8-1.5a6.8 6.8 0 0 1 1.3-.8 12.5 12.5 0 0 1 2.2-.8 9.4 9.4 0 0 1 2.5-.3 7.8 7.8 0 0 1 3 .5 3 3 0 0 1 1.6 1.5 6.9 6.9 0 0 1 .5 2.8v7h1.3v1.5l-1.6.3a11.7 11.7 0 0 1-1.6.1 3.3 3.3 0 0 1-1 0 .8.8 0 0 1-.5-.5 2 2 0 0 1-.1-.8v-.5a5.3 5.3 0 0 1-1.6 1.3 5 5 0 0 1-2.3.5 4.7 4.7 0 0 1-2.1-.5 3.7 3.7 0 0 1-1.6-1.4 4.3 4.3 0 0 1-.5-2.2q0-2.3 2-3.5 2.2-1.2 6-1.1zm0 2q-2 0-3 .7a2.2 2.2 0 0 0-.9 1.8 2.5 2.5 0 0 0 .6 1.8 1.7 1.7 0 0 0 1.3.6 2.8 2.8 0 0 0 1-.3 3 3 0 0 0 1-.5zm14-6.4 1.7.3a7 7 0 0 0 .9.3l-.2 4h-2.4l-.6-2.4a.8.8 0 0 0-.5-.5 2 2 0 0 0-.9-.2q-2.4 0-2.4 4.6a8.4 8.4 0 0 0 .4 2.8 3.5 3.5 0 0 0 1 1.7 2.6 2.6 0 0 0 1.7.5 6 6 0 0 0 1.8-.3 7 7 0 0 0 1.5-.6l.7 1.4a4.7 4.7 0 0 1-1.1.8 7.7 7.7 0 0 1-1.8.8 7 7 0 0 1-2 .3 6.9 6.9 0 0 1-3.6-.9 5.2 5.2 0 0 1-2.1-2.3 8.5 8.5 0 0 1-.7-3.5 7.5 7.5 0 0 1 .9-3.6 6.2 6.2 0 0 1 2.4-2.5 7.6 7.6 0 0 1 3.8-1 8.8 8.8 0 0 1 1.6.2zm4.2 3a5.8 5.8 0 0 1 2.4-2.3 7.2 7.2 0 0 1 3.5-.9q2.5 0 3.9 1.2 1.3 1.2 1.4 3.4a11.3 11.3 0 0 1-.2 2.3h-7.7q.1 2.2 1 3.3a3.2 3.2 0 0 0 2.5 1 6.2 6.2 0 0 0 2-.2 6.7 6.7 0 0 0 1.5-.7l.7 1.5a5.2 5.2 0 0 1-1.2.9 9 9 0 0 1-1.9.7 7.7 7.7 0 0 1-2.1.3 7.3 7.3 0 0 1-3.7-.8 5.2 5.2 0 0 1-2.2-2.4 8.6 8.6 0 0 1-.7-3.6 7.7 7.7 0 0 1 .8-3.7zm7.4 2v-.8a3.8 3.8 0 0 0-.5-2 1.6 1.6 0 0 0-1.4-.7 2.2 2.2 0 0 0-1.2.3 2 2 0 0 0-.8 1.1 7.1 7.1 0 0 0-.3 2.2zm-44.8 19.7V87l-1.8.3a7.2 7.2 0 0 1-.5 2.9 8.1 8.1 0 0 1-1.4 2.2 7 7 0 0 0 1.5 1 4.5 4.5 0 0 0 1.6.5v1.5a2.6 2.6 0 0 1-1 .3 10 10 0 0 1-1.4.1 5.9 5.9 0 0 1-1.8-.2 6 6 0 0 1-1.5-.8 6 6 0 0 1-2 .8 11.4 11.4 0 0 1-2.5.2 12 12 0 0 1-3.8-.5 5.1 5.1 0 0 1-2.5-1.6 4.2 4.2 0 0 1-.8-2.7 3.8 3.8 0 0 1 1-2.7 8.2 8.2 0 0 1 2.7-1.8q-2.1-2.6-2.1-4.9a3.8 3.8 0 0 1 .7-2.3 5 5 0 0 1 2-1.7 7.5 7.5 0 0 1 5.7 0 3.8 3.8 0 0 1 1.6 1.3 3 3 0 0 1 .5 1.6 4.6 4.6 0 0 1-.4 2.2 5 5 0 0 1-1.4 1.6 14.3 14.3 0 0 1-2.3 1.4l2.3 2.8 2.2 2.2.4.5a7 7 0 0 0 .7-3.3v-.6l-1.9-.3v-1.8zm-13.2 2.6a4.6 4.6 0 0 0-.9 1.2 3.3 3.3 0 0 0-.3 1.5 3.7 3.7 0 0 0 .5 1.8 3.3 3.3 0 0 0 1.4 1.3 4.6 4.6 0 0 0 2.1.5 5.2 5.2 0 0 0 2.5-.6q-2-1.7-5.3-5.7zm3.8-5a5.7 5.7 0 0 0 .4-2.2 3 3 0 0 0-.4-1.5q-.3-.6-1.3-.6a1.7 1.7 0 0 0-1.4.6 2.9 2.9 0 0 0-.5 1.8 3.9 3.9 0 0 0 .5 2 10.5 10.5 0 0 0 1.3 1.7 5 5 0 0 0 1.4-1.8z"/>
    <path d="M120.6 98.5a5.5 5.5 0 0 0 1.1-1.1 5.3 5.3 0 0 0 .8-1.6 10.2 10.2 0 0 0 .4-2 29.7 29.7 0 0 0 0-3V79.6l-2-.4v-1.7h8v1.7l-1.9.4V93a13.2 13.2 0 0 1-.3 2.3 6.4 6.4 0 0 1-2.2 3.4 9 9 0 0 1-4.2 1.8l-.8-1.3a4 4 0 0 0 1.1-.7zm18.1-4.6a4.6 4.6 0 0 1-1 1 6.2 6.2 0 0 1-1.5.6 4.8 4.8 0 0 1-1.6.3 5.6 5.6 0 0 1-2.5-.5 3 3 0 0 1-1.5-1.6 7.7 7.7 0 0 1-.4-2.9v-6.6L129 84v-1.4l4.5-.6.6.5v8.4a6.2 6.2 0 0 0 .2 1.7 1.4 1.4 0 0 0 .5.8 2 2 0 0 0 1.1.3 3.7 3.7 0 0 0 2.4-.8v-8.5l-1.6-.4V82h4.8l.7.4v11.4h1.3v1.5l-1.5.3a9.4 9.4 0 0 1-1.5.1 2 2 0 0 1-1.4-.3 1.5 1.5 0 0 1-.4-1.2zm8.3-2.2.6 1.8a1.6 1.6 0 0 0 .8.5 3.9 3.9 0 0 0 1.4.2 2.4 2.4 0 0 0 1.5-.4 1.4 1.4 0 0 0 .5-1 1.2 1.2 0 0 0-.4-1 3.8 3.8 0 0 0-1-.6l-1.8-1-.6-.2a6.5 6.5 0 0 1-2.5-1.7 3.7 3.7 0 0 1-.8-2.4 3 3 0 0 1 .6-2 4.4 4.4 0 0 1 2-1.3 7.9 7.9 0 0 1 2.8-.5 11.5 11.5 0 0 1 2 .2q.8 0 1.8.3a6.8 6.8 0 0 0 .9.2V86h-2.2l-.6-1.7a1.1 1.1 0 0 0-.6-.4 2.8 2.8 0 0 0-1.1-.2 2.4 2.4 0 0 0-1.5.4 1.2 1.2 0 0 0-.6 1 1.3 1.3 0 0 0 .4.9 2.8 2.8 0 0 0 .8.7l1.4.6.6.2a17.2 17.2 0 0 1 2.2 1A4.7 4.7 0 0 1 155 90a3.3 3.3 0 0 1 .6 2 3.5 3.5 0 0 1-.6 2 4 4 0 0 1-1.9 1.4 8.2 8.2 0 0 1-3.1.5 11.6 11.6 0 0 1-2.4-.2l-2.3-.6-.7-.2v-3zm9.2-7.5v-1.5l.8-.3a5 5 0 0 0 .6-.3 3.8 3.8 0 0 0 .8-1.2l.4-1.3.4-1.3h2.3V82h3.7v2h-3.6v6.5a18.4 18.4 0 0 0 0 1.9 1 1 0 0 0 .4.7 1.5 1.5 0 0 0 .8.1 8.3 8.3 0 0 0 2.2-.3l.6 1.4a4.9 4.9 0 0 1-1.2.7 9.9 9.9 0 0 1-1.7.5 8.5 8.5 0 0 1-1.8.2q-1.6 0-2.4-.7-.8-.7-.8-2.2v-8.7zm11.7 9.8v-9.3l-1.6-.5v-1.8l4.7-.6h.1l.8.5V94l1.5.2v1.6h-7v-1.6zm-.3-17.3a2 2 0 0 1 .8-.9 2.4 2.4 0 0 1 1.3-.3 2.4 2.4 0 0 1 1.1.3 2 2 0 0 1 .8.7 2 2 0 0 1 .2 1 2.2 2.2 0 0 1-2.4 2.4 2.1 2.1 0 0 1-1-.3 2 2 0 0 1-.8-.7 2 2 0 0 1-.3-1 2.6 2.6 0 0 1 .3-1.2zm15.1 5.6 1.6.3a7 7 0 0 0 .9.2L185 87h-2.4l-.6-2.4a.8.8 0 0 0-.5-.5 2 2 0 0 0-.9-.2q-2.5 0-2.5 4.6a8.4 8.4 0 0 0 .4 2.8 3.5 3.5 0 0 0 1.1 1.7 2.6 2.6 0 0 0 1.7.5 6 6 0 0 0 1.8-.2 7 7 0 0 0 1.5-.7l.7 1.4a4.7 4.7 0 0 1-1.2.9 7.7 7.7 0 0 1-1.7.7 7 7 0 0 1-2 .3 6.9 6.9 0 0 1-3.6-.8 5.2 5.2 0 0 1-2.1-2.4 8.5 8.5 0 0 1-.7-3.5 7.5 7.5 0 0 1 .9-3.6 6.2 6.2 0 0 1 2.4-2.5 7.6 7.6 0 0 1 3.7-.9 8.8 8.8 0 0 1 1.7.2zm4.1 3a5.8 5.8 0 0 1 2.4-2.4 7.2 7.2 0 0 1 3.5-.8q2.5 0 3.9 1.2 1.3 1.2 1.4 3.4a11.3 11.3 0 0 1-.2 2.3H190q.2 2.2 1.1 3.3a3.2 3.2 0 0 0 2.5 1 6.2 6.2 0 0 0 2-.2 6.7 6.7 0 0 0 1.5-.7l.7 1.5a5.2 5.2 0 0 1-1.2.9 9 9 0 0 1-2 .7 7.7 7.7 0 0 1-2 .3 7.3 7.3 0 0 1-3.8-.8 5.2 5.2 0 0 1-2.1-2.4 8.6 8.6 0 0 1-.7-3.6 7.7 7.7 0 0 1 .8-3.7zm7.3 2v-.8a3.8 3.8 0 0 0-.4-2 1.6 1.6 0 0 0-1.4-.7 2.2 2.2 0 0 0-1.2.3 2 2 0 0 0-.8 1.1 7.1 7.1 0 0 0-.3 2.2zm-89.5 22.4v-8.5l-1-.2v-1.1h4.6a7 7 0 0 1 2.5.4 2.5 2.5 0 0 1 1.3 1 3.6 3.6 0 0 1 .4 1.8 4 4 0 0 1-.5 2 3.4 3.4 0 0 1-1.5 1.5 5.5 5.5 0 0 1-2.4.4h-.6a2.1 2.1 0 0 1-.4 0v2.7l2 .2v1h-5.5v-1zm4.8-4.3q.5-.7.5-2.3 0-1.2-.5-1.7a1.9 1.9 0 0 0-1.4-.6 3 3 0 0 0-.8.1h-.2v5a5.2 5.2 0 0 0 1 .1 1.7 1.7 0 0 0 1.4-.6zm4.7 4.4v-5.4l-.9-.2V103l2.4-.3.5.3v1.5a2.5 2.5 0 0 1 .4-.7 3.4 3.4 0 0 1 1-.8 2.3 2.3 0 0 1 1.2-.4 1.5 1.5 0 0 1 .3 0 .8.8 0 0 1 .2.2v2.5a1.7 1.7 0 0 0-.5-.3 1.9 1.9 0 0 0-.6-.1 3.4 3.4 0 0 0-1 .1 1.8 1.8 0 0 0-.7.4v4.4l1.7.1v1h-5v-1zm12-6.7a3.2 3.2 0 0 1 1.4 1.4 4.7 4.7 0 0 1 .4 2.2 4.4 4.4 0 0 1-.5 2.3 3.5 3.5 0 0 1-1.5 1.4 4.6 4.6 0 0 1-2.1.4 4.3 4.3 0 0 1-2-.4 3.2 3.2 0 0 1-1.4-1.4 4.7 4.7 0 0 1-.5-2.2 4.3 4.3 0 0 1 .6-2.3 3.6 3.6 0 0 1 1.5-1.4 4.5 4.5 0 0 1 2-.4 4.3 4.3 0 0 1 2.1.4zm-1 1.4a1.2 1.2 0 0 0-2.3-.1 5.2 5.2 0 0 0-.4 2.2 6 6 0 0 0 .4 2.4 1.2 1.2 0 0 0 1.1.8 1.1 1.1 0 0 0 1.1-.7 5.3 5.3 0 0 0 .4-2.2 6.2 6.2 0 0 0-.4-2.4zm3.5-.6v-1.1l2.7-.3h.1l.4.3v7.9a3.9 3.9 0 0 1-.5 2 3.6 3.6 0 0 1-1.2 1.3 2.6 2.6 0 0 1-1.4.4h-.4a2 2 0 0 1-.3 0l-.1-1a1.4 1.4 0 0 0 .3 0 1.4 1.4 0 0 0 .4-.2 1.5 1.5 0 0 0 .8-1 7.1 7.1 0 0 0 .2-2v-6zm.6-4.5a1.2 1.2 0 0 1 .5-.5 1.4 1.4 0 0 1 .7-.2 1.4 1.4 0 0 1 .7.2 1.1 1.1 0 0 1 .5.4 1.2 1.2 0 0 1 .2.6 1.3 1.3 0 0 1-1.5 1.4 1.3 1.3 0 0 1-.7-.1 1.1 1.1 0 0 1-.4-.4 1.2 1.2 0 0 1-.1-.7 1.6 1.6 0 0 1 .1-.7zm4.5 5.2a3.5 3.5 0 0 1 1.4-1.4 4.3 4.3 0 0 1 2.1-.5q1.6 0 2.4.7a2.7 2.7 0 0 1 .8 2 6.8 6.8 0 0 1 0 1.4h-4.8a3.2 3.2 0 0 0 .7 2 2 2 0 0 0 1.5.6 3.7 3.7 0 0 0 1-.2 4 4 0 0 0 1-.4l.5.9a3.1 3.1 0 0 1-.8.5 5.4 5.4 0 0 1-1.1.5 4.6 4.6 0 0 1-1.3.1 4.4 4.4 0 0 1-2.2-.4 3 3 0 0 1-1.3-1.5 5.1 5.1 0 0 1-.4-2.1 4.6 4.6 0 0 1 .5-2.2zm4.4 1.2v-.5a2.3 2.3 0 0 0-.2-1.2 1 1 0 0 0-1-.4 1.3 1.3 0 0 0-.6.1 1.2 1.2 0 0 0-.5.7 4.3 4.3 0 0 0-.2 1.3zm8.4-3 1 .2a4.2 4.2 0 0 0 .4.1v2.4h-1.5l-.4-1.4a.5.5 0 0 0-.2-.3 1.2 1.2 0 0 0-.6-.1q-1.5 0-1.5 2.7a5 5 0 0 0 .3 1.7 2 2 0 0 0 .7 1 1.6 1.6 0 0 0 1 .3 3.6 3.6 0 0 0 1-.1 4.2 4.2 0 0 0 .9-.4l.4.8a2.8 2.8 0 0 1-.7.5 4.6 4.6 0 0 1-1 .5 4.2 4.2 0 0 1-1.2.1 4.1 4.1 0 0 1-2.2-.4 3.1 3.1 0 0 1-1.2-1.4 5 5 0 0 1-.5-2.1 4.5 4.5 0 0 1 .6-2.2 3.7 3.7 0 0 1 1.5-1.5 4.5 4.5 0 0 1 2.2-.5 5.3 5.3 0 0 1 1 0zm2.2 1v-.7l.5-.2a3 3 0 0 0 .3-.2 2.3 2.3 0 0 0 .5-.7l.3-.8.2-.8h1.3l.1 2.3h2.2v1.2h-2.2v3.8a11 11 0 0 0 0 1.2.6.6 0 0 0 .2.4.9.9 0 0 0 .5 0 5 5 0 0 0 1.4-.1l.3.9a2.9 2.9 0 0 1-.7.4 5.9 5.9 0 0 1-1 .3 5 5 0 0 1-1 0h-.1a2 2 0 0 1-1.5-.3 1.7 1.7 0 0 1-.4-1.4v-5.2z"/>
  </g>
</svg>
