<svg xmlns="http://www.w3.org/2000/svg" fill="none" viewBox="0 0 256 166">
  <path fill="#95BCD1" d="M0 0h256v166H0z" opacity=".1"/>
  <path fill="#111" d="M106.2 78.34c-.81 0-1.23.5-1.38 1.3h2.65c-.08-.8-.58-1.3-1.27-1.3zM113.25 90.18c-.87 0-1.38.8-1.38 1.95 0 1.2.5 1.94 1.35 1.94.9 0 1.44-.79 1.44-1.91 0-1.15-.47-1.98-1.41-1.98zM98.1 87.89h-1.84v2.35h1.78c.93 0 1.41-.44 1.41-1.16 0-.7-.45-1.2-1.36-1.2zM104.51 93.6c0 .55.4.76.94.76.81 0 1.38-.49 1.38-1.23v-.81a5.4 5.4 0 01-1.13.36c-.84.19-1.19.4-1.19.92zM124.4 90.08c-.95 0-1.44.85-1.44 2.1 0 1.24.49 2.07 1.44 2.07s1.46-.83 1.46-2.08c0-1.24-.5-2.09-1.46-2.09z"/>
  <path fill="#111" d="M128 47a37 37 0 100 74 37 37 0 000-74zm-18.16 30.02h.9V74.9h2.07v2.12h1.22v1.33h-1.22v3.13c0 .53.29.66.75.66l.47-.02v1.56c-.18.05-.59.1-1.17.1-1.24 0-2.13-.4-2.13-1.84v-3.6h-.89v-1.32zm-15.97-2.66h2.33l2.77 4.7.64 1.18h.03l-.03-1.45v-4.43h2.26v9.35h-2.32l-2.75-4.63c-.15-.25-.66-1.25-.66-1.25h-.03l.03 1.53v4.35h-2.27v-9.35zm8.07 21.22h-2.3c-.25-.15-.21-1.27-.36-2.22-.12-.88-.57-1.36-1.59-1.36h-1.43v3.58h-2.37v-9.56h4.58c1.9 0 3.34.97 3.34 2.75 0 1.11-.55 1.93-1.66 2.31v.05c.83.28 1.26.8 1.4 1.75.2 1.26.06 2.46.4 2.58v.12zm7.21 0h-2.11c-.1-.15-.17-.41-.23-.76h-.02c-.4.58-1 .94-2.04.94-1.36 0-2.34-.74-2.34-2.1 0-1.5 1.2-1.96 2.63-2.14 1.28-.16 1.73-.3 1.73-.77 0-.44-.28-.73-.93-.73-.7 0-1.05.3-1.11.88h-2.01c.05-1.27 1.03-2.36 3.1-2.36 1.03 0 1.73.19 2.22.56.59.43.87 1.1.87 1.96v3.45c0 .55.05.85.24.97v.1zm-2.83-13.2c.56 0 .93-.25 1.1-.67h2.09a2.7 2.7 0 01-1.13 1.58c-.56.39-1.24.61-2.09.61a3.38 3.38 0 01-3.57-3.55c0-2 1.4-3.53 3.44-3.53.95 0 1.71.31 2.29.83.8.73 1.19 1.9 1.17 3.26h-4.8c.12.9.62 1.47 1.5 1.47zm10.47 13.2h-2.09v-.92h-.03a2.25 2.25 0 01-2.02 1.13c-1.75 0-3-1.35-3-3.63 0-2.14 1.24-3.63 3-3.63.97 0 1.52.4 1.92.97h.04v-3.49h2.18v9.57zm.14-11.87h-2.13V77h2.13v6.7zm0-7.62h-2.13v-1.73h2.13v1.73zm3.08 19.49h-2.18v-6.85h2.19v6.85zm0-7.8h-2.18v-1.76h2.19v1.76zm.1-4.07h-2.15v-9.35h2.16v9.35zm4.3 12.09a3.5 3.5 0 01-3.66-3.63 3.51 3.51 0 013.67-3.63 3.5 3.5 0 013.65 3.63 3.49 3.49 0 01-3.65 3.63z"/>
</svg>
