<svg width="175" height="34" viewBox="0 0 175 34" fill="none" xmlns="http://www.w3.org/2000/svg">
<path d="M10.7877 14.0789V23.0338C10.7877 23.7521 10.8356 24.2789 10.9795 24.5183C11.0274 24.662 11.2192 24.7578 11.5548 24.8056C11.8425 24.9493 12.4658 25.0451 13.4247 25.093C14.3356 25.1408 15.6301 25.2366 17.2603 25.2366V25.6197H0V25.2366C1.34247 25.2366 2.49315 25.1887 3.35616 25.093C4.21918 25.0451 4.84246 24.9014 5.13013 24.8056C5.41781 24.7099 5.60959 24.5662 5.70548 24.5183C5.84931 24.3268 5.89726 23.8479 5.89726 23.0338V2.53803C5.89726 1.81972 5.84931 1.34085 5.70548 1.10141C5.65753 0.957748 5.5137 0.909865 5.22603 0.81409C4.50685 0.526766 2.68493 0.3831 0.0479445 0.3831V0H15.5342C18.6986 0 21.1918 0.71831 23.0137 2.15493C24.7397 3.49577 25.6027 5.3155 25.6027 7.51832C25.6027 9.00282 24.9315 10.4394 23.637 11.6845C21.9589 13.2169 19.7534 13.9831 16.9726 13.9831H10.7877V14.0789ZM10.7877 13.6958H14.8151C17.0205 13.6958 18.6027 13.1211 19.4657 11.9718C20.2329 10.9662 20.5685 9.43381 20.5685 7.27888C20.5685 4.98029 20.089 3.30423 19.0822 2.15493C18.0753 0.957746 16.589 0.43099 14.4794 0.43099H12.5616C11.9863 0.43099 11.5548 0.478879 11.3151 0.574654C11.0753 0.622541 10.8836 0.81409 10.8356 1.05353C10.8356 1.29296 10.7877 1.77184 10.7877 2.58592V13.6958V13.6958Z" fill="#111111"/>
<path d="M30.1096 17.4789C30.1096 20.3043 30.3972 22.4113 31.1164 23.6564C31.7876 24.9493 32.8424 25.5719 34.2328 25.5719C35.7191 25.5719 36.9657 25.093 38.0685 24.0874C39.4109 22.8902 40.1301 21.262 40.1301 19.2029H40.4178C40.4178 21.1662 39.7945 22.8423 38.5 24.0874C37.2054 25.3803 35.5274 26.0029 33.4178 26.0029C31.6438 26.0029 30.0137 25.3324 28.5753 23.9437C26.8493 22.3155 25.9863 20.3043 25.9863 17.7183C25.9863 14.9409 26.8493 12.6423 28.5274 10.9183C30.0137 9.43384 31.6917 8.61975 33.5616 8.61975C35.2876 8.61975 36.726 9.09863 37.8287 10.1043C39.5068 11.5888 40.3698 13.9831 40.3698 17.3831H30.1575V17.4789H30.1096ZM36.9178 17.0479C36.9178 14.462 36.678 12.5465 36.2465 11.1578C35.815 9.81694 35.0479 9.09862 34.0411 9.09862C32.6027 9.09862 31.5479 9.72116 31.0205 11.0141C30.3972 12.3071 30.1575 14.2705 30.1575 17H36.9178V17.0479Z" fill="#111111"/>
<path d="M48.8562 15.9465V23.8C48.8562 24.3746 48.9041 24.662 49 24.8535C49.048 24.9014 49.1918 25.0451 49.3836 25.093C49.5754 25.1408 49.9589 25.2366 50.4384 25.2845C50.9178 25.3324 51.4452 25.3324 51.7808 25.3324V25.7155H41.6165V25.3324C42.1918 25.3324 42.8151 25.3324 43.3425 25.2845C43.9178 25.2366 44.3973 25.093 44.8767 24.9972C45.0685 24.8535 45.1165 24.5183 45.1165 23.8V11.6845C45.1165 11.4451 45.1165 11.2056 45.1165 10.9662C45.1165 10.7268 45.0685 10.5352 44.9247 10.3915L44.6849 10.0084C44.4452 9.8169 43.3904 9.72112 41.6644 9.72112V9.33802L48.8562 8.71549V13.7915C49.048 12.6901 49.3356 11.6366 49.911 10.7746C50.6302 9.52957 51.4452 8.90704 52.2603 8.81127C53.0754 8.76338 53.6028 8.6676 53.8904 8.6676C55.5685 8.6676 56.863 9.14647 57.8699 10.2C58.6849 11.062 59.1165 12.0676 59.1165 13.2169V23.8C59.1165 24.3746 59.1644 24.662 59.2603 24.8535C59.3082 24.9014 59.4521 25.0451 59.6438 25.093C59.8356 25.1408 60.2671 25.2366 60.8425 25.2845C61.4178 25.3324 61.9452 25.3324 62.4726 25.3324V25.7155H52.2603V25.3324C52.6918 25.3324 53.1713 25.3324 53.7466 25.2845C54.3219 25.2366 54.8014 25.093 55.2329 24.9972C55.4247 24.8535 55.4726 24.5183 55.4726 23.8V13.6479C55.4726 12.3549 55.3288 11.4451 55.185 10.7268C54.8014 9.62535 54.1781 9.0507 53.2671 9.0507C52.0206 9.0507 51.0617 9.76901 50.2945 11.3493C49.5274 12.5465 49.0959 14.0789 48.8562 15.9465Z" fill="#111111"/>
<path d="M74.4109 17.2394V19.107C74.4109 19.7296 74.4109 20.3042 74.4589 20.831C74.4589 22.6986 74.2671 23.9915 73.8356 24.662C73.2602 25.5718 72.1095 26.0986 70.4315 26.0986C68.8013 26.0986 67.6506 25.7155 66.8835 24.9014C66.1643 24.1352 65.7808 23.0338 65.7808 21.6451V10.3437H62.6164V9.96056C64.7739 9.38591 66.452 8.18873 67.5547 6.17747C68.4178 4.5493 68.8972 2.77747 68.8972 0.814087H69.5685V9.24225H74.1712V10.4394H69.5685V21.262C69.5685 22.6986 69.6164 23.6085 69.7602 24.0394C70 25.0451 70.6232 25.5239 71.4863 25.5239C72.5411 25.5239 73.2602 24.9493 73.5958 23.8C73.8356 22.9859 73.9794 21.5014 73.9794 19.2986V17.3831H74.363V17.2394H74.4109Z" fill="#111111"/>
<path d="M85.726 14.1267V11.7802C85.726 10.7267 85.5342 10.0084 85.2466 9.62528C84.9589 9.24218 84.1918 9.05063 83.089 9.05063C82.1781 9.05063 81.363 9.24218 80.6918 9.62528C80.0205 10.0084 79.589 10.4394 79.3493 11.0619C79.4931 11.0619 79.589 11.014 79.7329 11.014C80.2123 11.014 80.6438 11.2056 80.9794 11.6365C81.2671 12.0196 81.4589 12.4985 81.4589 12.9774C81.4589 13.552 81.2671 14.0309 80.8356 14.414C80.452 14.7971 79.9726 14.9887 79.3972 14.9887C79.0137 14.9887 78.726 14.845 78.4863 14.7492C77.6712 14.2703 77.2876 13.6478 77.2876 12.8337C77.2876 12.4506 77.3356 12.0196 77.5274 11.5408C77.9109 10.4873 78.8219 9.76894 80.3082 9.24218C81.363 8.85908 82.4657 8.76331 83.5205 8.76331C85.4863 8.76331 86.9726 9.14641 87.9794 9.86472C88.8904 10.5351 89.3219 11.3492 89.3219 12.3549V21.1182C89.3219 22.7464 89.3698 23.7042 89.4657 24.0873C89.6575 24.9971 90.137 25.4281 90.9041 25.4281C91.5753 25.4281 92.1027 25.045 92.3424 24.3746C92.5822 23.6563 92.726 22.6506 92.726 21.2619C92.726 20.8788 92.726 20.5436 92.726 20.1605C92.726 19.7774 92.726 19.4422 92.726 18.9633V18.5802H93.2055V20.3041C93.2055 20.8788 93.2055 21.4056 93.2534 21.9323C93.2534 23.4647 93.0616 24.5182 92.6781 25.045C92.1986 25.7154 91.1918 26.0506 89.7534 26.0506C88.5548 26.0506 87.7876 25.8591 87.2123 25.4281C86.5411 24.9492 86.1096 24.1351 85.9178 23.0337C85.3424 24.3267 84.4794 25.1887 83.3767 25.6196C82.7055 25.8591 81.8424 26.0027 80.6918 26.0027C79.589 26.0027 78.5822 25.7633 77.7671 25.1887C76.6644 24.4703 76.0411 23.4168 76.0411 21.9323C76.0411 20.4957 76.6164 19.2506 77.7192 18.2929C78.8219 17.383 80.2123 16.8084 81.7466 16.6647C83.3767 16.5211 84.4315 16.2816 84.9589 16.0422C85.4383 15.8027 85.726 15.1323 85.726 14.1267ZM85.6301 21.3577V16.0422C85.3424 16.4732 84.815 16.7126 84.1918 16.8563C83.5685 16.9999 82.9452 17.0478 82.4178 17.0957C81.6986 17.2873 81.0753 17.7182 80.5479 18.3887C79.9726 19.2027 79.7329 20.3041 79.7329 21.7408C79.7329 23.2732 79.8767 24.3267 80.1644 24.9013C80.452 25.476 80.9794 25.7154 81.6027 25.7154C82.6096 25.7154 83.5205 25.2844 84.3356 24.4703C85.1986 23.5605 85.6301 22.5549 85.6301 21.3577Z" fill="#111111"/>
<path d="M97.6644 18.9634C96.8014 18.5324 96.1781 17.9578 95.6986 17.2874C95.2192 16.6169 94.9795 15.755 94.9795 14.7493C94.9795 13.0733 95.6986 11.5888 97.2808 10.4395C98.7192 9.33807 100.253 8.81131 101.932 8.81131C102.411 8.81131 102.986 8.85919 103.562 9.00286C104.137 9.14652 104.616 9.29018 105.096 9.48173V8.57187C105.096 7.3268 105.336 6.51272 105.767 6.08173C106.199 5.69864 106.87 5.50708 107.733 5.50708C108.116 5.50708 108.452 5.65075 108.788 5.93807C109.075 6.17751 109.219 6.5606 109.219 6.99159C109.219 7.90145 108.788 8.42821 107.925 8.42821C107.014 8.42821 106.582 7.99723 106.582 7.13525C106.582 6.9437 106.582 6.84793 106.63 6.70426C106.678 6.5606 106.774 6.46483 106.822 6.27328C106.247 6.32117 105.959 6.5606 105.767 6.9437C105.575 7.3268 105.527 7.85356 105.527 8.4761C105.527 9.05075 105.575 9.48173 105.575 9.72117C106.63 10.2 107.445 10.9184 108.069 11.6845C108.692 12.4986 108.932 13.4564 108.932 14.5099C108.932 16.1381 108.212 17.4789 106.63 18.4845C105.288 19.3944 103.705 19.9212 101.979 19.9212C100.733 19.9212 99.6301 19.7296 98.5274 19.2986C97.6165 19.2986 96.8493 19.4423 96.3219 19.7296C95.6027 20.1127 95.2192 20.7831 95.2192 21.693C95.2192 22.0761 95.5069 22.3634 96.226 22.6029C96.8493 22.8423 98.0959 22.986 99.9178 22.986H102.219C104.569 22.986 106.39 23.2733 107.589 23.8958C109.123 24.7099 109.89 26.0029 109.89 27.8705C109.89 29.8338 109.219 31.3183 107.781 32.3719C106.342 33.4254 104.569 34 102.315 34C99.6301 34 97.4726 33.5691 95.8904 32.6592C94.2603 31.7972 93.4932 30.7437 93.4932 29.6423C93.4932 28.924 93.9247 28.3014 94.7877 27.7747C95.411 27.3916 96.3219 27.1043 97.6165 26.7212C96.4178 26.2902 95.5548 25.8592 95.0274 25.3803C94.3082 24.7099 93.8288 23.8479 93.8288 22.7944C93.8288 21.693 94.1164 20.7352 94.8356 20.0648C95.5069 19.2507 96.4178 18.9634 97.6644 18.9634ZM102.411 33.6648C104.185 33.6648 105.575 33.2817 106.582 32.5634C107.589 31.8451 108.069 30.8874 108.069 29.8338C108.069 28.5409 107.637 27.6789 106.822 27.2479C106.007 26.8169 104.521 26.5775 102.363 26.5775C99.8699 26.5775 98.1438 26.8648 97.2329 27.4395C96.5137 27.9184 96.0343 28.7324 96.0343 29.9296C96.0343 31.031 96.3219 31.893 96.9452 32.4677C98.048 33.2338 99.8219 33.6648 102.411 33.6648ZM105.288 14.3662C105.288 12.6902 105.048 11.3972 104.616 10.5831C104.137 9.57751 103.178 9.09863 101.884 9.09863C100.685 9.09863 99.8219 9.5775 99.2945 10.5352C98.7192 11.4451 98.4795 12.7381 98.4795 14.3662C98.4795 16.2338 98.7192 17.5747 99.1507 18.3888C99.5822 19.2029 100.493 19.586 101.884 19.586C103.13 19.586 103.945 19.155 104.473 18.3409C105.048 17.4789 105.288 16.186 105.288 14.3662Z" fill="#111111"/>
<path d="M115.116 11.3493C115.116 10.7746 115.069 10.4873 114.925 10.3437C114.733 10.1042 114.541 9.91267 114.445 9.86479C113.966 9.72112 112.911 9.67324 111.185 9.67324V9.29014L118.856 8.6676V13.7437C119 12.6423 119.336 11.6366 119.959 10.631C120.822 9.33803 121.925 8.6676 123.219 8.6676C123.699 8.6676 124.274 8.85915 124.849 9.14648C125.425 9.4338 125.856 9.86479 126.048 10.3915C126.24 10.8704 126.336 11.3014 126.336 11.7324C126.336 12.7859 125.904 13.5042 125.041 13.8873C124.849 14.031 124.562 14.0789 124.178 14.0789C123.603 14.0789 123.171 13.8873 122.836 13.5042C122.452 13.1211 122.26 12.5944 122.26 11.8282C122.26 11.3493 122.452 10.9183 122.836 10.3915C123.219 9.91268 123.651 9.72112 124.082 9.8169C123.89 9.24225 123.459 8.95493 122.644 8.95493C121.925 8.95493 121.11 9.52958 120.342 10.631C119.336 12.0676 118.856 13.8873 118.856 16.1859V23.6085C118.856 24.1831 118.904 24.4704 119 24.662C119.048 24.7099 119.192 24.8535 119.384 24.9014C119.959 25.093 121.11 25.1887 122.836 25.1887V25.5718H111.185V25.1887C111.904 25.1887 112.671 25.1887 113.295 25.1408C113.918 25.093 114.493 24.9493 114.925 24.8535C115.116 24.7098 115.164 24.3746 115.164 23.6563V11.3493H115.116Z" fill="#111111"/>
<path d="M137.171 14.1267V11.7802C137.171 10.7267 136.979 10.0084 136.692 9.62528C136.404 9.24218 135.637 9.05063 134.534 9.05063C133.623 9.05063 132.808 9.24218 132.137 9.62528C131.466 10.0084 131.034 10.4394 130.795 11.0619C130.938 11.0619 131.034 11.014 131.178 11.014C131.658 11.014 132.089 11.2056 132.425 11.6365C132.712 12.0196 132.904 12.4985 132.904 12.9774C132.904 13.552 132.712 14.0309 132.281 14.414C131.897 14.7971 131.418 14.9887 130.842 14.9887C130.459 14.9887 130.171 14.845 129.932 14.7492C129.116 14.2703 128.733 13.6478 128.733 12.8337C128.733 12.4506 128.781 12.0196 128.973 11.5408C129.356 10.4873 130.267 9.76894 131.753 9.24218C132.808 8.85908 133.911 8.76331 134.966 8.76331C136.932 8.76331 138.418 9.14641 139.425 9.86472C140.336 10.5351 140.767 11.3492 140.767 12.3549V21.1182C140.767 22.7464 140.815 23.7042 140.911 24.0873C141.103 24.9971 141.582 25.4281 142.349 25.4281C143.021 25.4281 143.548 25.045 143.788 24.3746C144.027 23.6563 144.171 22.6506 144.171 21.2619C144.171 20.8788 144.171 20.5436 144.171 20.1605C144.171 19.7774 144.171 19.4422 144.171 18.9633V18.5802H144.651V20.3041C144.651 20.8788 144.651 21.4056 144.699 21.9323C144.699 23.4647 144.507 24.5182 144.123 25.045C143.644 25.7154 142.637 26.0506 141.199 26.0506C140 26.0506 139.233 25.8591 138.658 25.4281C137.986 24.9492 137.555 24.1351 137.363 23.0337C136.788 24.3267 135.925 25.1887 134.822 25.6196C134.151 25.8591 133.288 26.0027 132.137 26.0027C131.034 26.0027 130.027 25.7633 129.212 25.1887C128.11 24.4703 127.486 23.4168 127.486 21.9323C127.486 20.4957 128.062 19.2506 129.164 18.2929C130.267 17.383 131.658 16.8084 133.192 16.6647C134.822 16.5211 135.877 16.2816 136.404 16.0422C136.932 15.8027 137.171 15.1323 137.171 14.1267ZM137.027 21.3577V16.0422C136.74 16.4732 136.212 16.7126 135.589 16.8563C134.966 16.9999 134.342 17.0478 133.815 17.0957C133.096 17.2873 132.473 17.7182 131.945 18.3887C131.37 19.2027 131.13 20.3041 131.13 21.7408C131.13 23.2732 131.274 24.3267 131.562 24.9013C131.849 25.476 132.377 25.7154 133 25.7154C134.007 25.7154 134.918 25.2844 135.733 24.4703C136.692 23.5605 137.027 22.5549 137.027 21.3577Z" fill="#111111"/>
<path d="M162.247 13.5042C162.438 12.2591 162.726 11.3492 163.158 10.583C163.829 9.48163 164.692 8.81121 165.89 8.66755C166.082 8.66755 166.274 8.66755 166.514 8.61966C166.753 8.61966 166.897 8.57178 166.993 8.57178C168.623 8.57178 169.966 9.05065 170.877 10.1042C171.692 10.9661 172.123 11.9718 172.123 13.1211V23.7042C172.123 24.183 172.171 24.5661 172.267 24.7098C172.315 24.8535 172.459 24.9014 172.651 24.9971C172.842 25.045 173.226 25.1408 173.705 25.1887C174.185 25.2366 174.616 25.2366 175 25.2366V25.6197H165.603V25.2366C166.226 25.2366 166.705 25.2366 167.089 25.1887C167.473 25.1408 167.808 24.9971 168.192 24.8056C168.384 24.6619 168.431 24.3267 168.431 23.7042V13.5999C168.431 12.3549 168.288 11.3971 168.144 10.6788C167.76 9.57741 167.137 9.00276 166.274 9.00276C165.363 9.00276 164.548 9.43374 163.925 10.2957C163.253 11.3014 162.678 13.0732 162.295 15.6591V23.6563C162.295 24.2309 162.342 24.5183 162.438 24.7098C162.486 24.7577 162.63 24.8535 162.822 24.9492C163.014 24.9971 163.301 25.0929 163.829 25.1408C164.308 25.1887 164.74 25.2845 165.171 25.2845V25.6675H155.678V25.2845C156.685 25.2845 157.452 25.2366 158.027 24.9971L158.315 24.8535C158.507 24.7098 158.555 24.3746 158.555 23.6563V13.5521C158.555 12.2591 158.411 11.3492 158.267 10.6309C157.884 9.52953 157.26 8.95488 156.349 8.95488C155.151 8.95488 154.24 9.67318 153.568 11.2535C153.137 12.307 152.753 13.8394 152.514 15.8506V23.7042C152.514 24.2788 152.562 24.5661 152.658 24.7577C152.705 24.8056 152.849 24.9492 153.041 24.9971C153.233 25.045 153.616 25.1408 154.096 25.1887C154.575 25.2366 155.007 25.2366 155.39 25.2366V25.6197H145.226V25.2366C145.801 25.2366 146.329 25.2366 146.904 25.1887C147.479 25.1408 147.959 24.9971 148.438 24.9013C148.63 24.7577 148.678 24.4225 148.678 23.7042V11.6366C148.678 11.3971 148.678 11.1577 148.678 10.9183C148.678 10.6788 148.63 10.4873 148.486 10.3436C148.295 10.1042 148.103 9.91262 148.007 9.86473C147.623 9.72107 146.712 9.67319 145.274 9.67319V9.38586L152.466 8.71544V13.7915C152.658 12.4985 152.945 11.4929 153.329 10.7746C153.952 9.52952 154.863 8.8591 156.062 8.71544C156.301 8.71544 156.541 8.66755 156.733 8.66755C156.925 8.66755 157.116 8.66755 157.164 8.66755C158.89 8.66755 160.137 9.14642 161.048 10.1042C161.815 10.9661 162.247 12.1154 162.247 13.5042Z" fill="#111111"/>
</svg>
