<svg width="256" height="166" fill="none" xmlns="http://www.w3.org/2000/svg"><path opacity=".1" fill="#95BCD1" d="M0 0h256v166H0z"/><path d="M102.1 77.6c-.2-1.2-1.2-3-3.7-3-1.9 0-3.2 1.3-3.2 2.8 0 1.2.7 2 2.2 2.4l2.7.6c3.3.6 5 2.8 5 5.5 0 3-2.3 5.7-6.6 5.7-4.7 0-7-3-7.2-5.8l3-.9a4 4 0 004.2 3.8c2.3 0 3.5-1.1 3.5-2.6 0-1.2-1-2.2-2.6-2.6l-2.6-.5c-2.9-.6-4.8-2.5-4.8-5.4 0-3.2 2.9-5.8 6.4-5.8 4.4 0 6.2 2.7 6.6 4.8l-2.9 1zM111.2 91.2H108V71.8h3v7.6a4.6 4.6 0 013.8-1.6c3.1 0 4.7 2.3 4.7 5.2v8.2h-3v-7.7c0-1.6-.8-3-2.7-3-1.7 0-2.7 1.4-2.7 3v7.7zM126.4 83.7l3.3-.5c.8 0 1-.5 1-1 0-1-.8-1.9-2.5-1.9-1.6 0-2.5 1-2.6 2.4l-2.8-.7c.2-2.2 2.2-4.3 5.4-4.3 4 0 5.5 2.3 5.5 5V89c0 1.2.1 2 .2 2.1H131l-.1-1.6c-.6 1-1.9 2-4 2-2.7 0-4.4-1.9-4.4-4 0-2.3 1.7-3.5 4-3.9zm4.3 2.1v-.6l-3.4.5c-1 .2-1.7.7-1.7 1.8 0 .9.7 1.7 1.9 1.7 1.7 0 3.2-.8 3.2-3.4zM145 81.2h-1c-2.4 0-3.5 1.4-3.5 3.8v6.2h-3v-13h3v2c.5-1.4 2-2.2 3.7-2.2h.8v3.2zM147.5 96.3V78.1h3V80c.7-1.1 2.1-2 4.1-2 3.8 0 6 3 6 6.8 0 3.9-2.4 6.8-6 6.8-2 0-3.3-.8-4-1.8v6.6h-3zm6.5-15.7c-2 0-3.4 1.6-3.4 4 0 2.6 1.4 4.2 3.4 4.2s3.5-1.6 3.5-4.1c0-2.5-1.4-4-3.5-4zM163.8 91.2v-19h11.6v3H167v5h7.6v3H167v5h8.4v3h-11.6zM181.8 91.2h-3v-13h3v1.7a4.3 4.3 0 013.7-2.1c3.2 0 4.7 2.3 4.7 5.2v8.2h-3v-7.7c0-1.6-.8-3-2.7-3-1.8 0-2.7 1.5-2.7 3.2v7.5zM205.9 88.8l.1 2.4h-3v-1.7c-.7 1.1-2 2-3.9 2-3.7 0-6.2-3-6.2-6.9 0-3.7 2.5-6.8 6.2-6.8 2.2 0 3.4 1 3.8 1.9v-8h3v17.1zm-6.4 0c2 0 3.4-1.7 3.4-4.2s-1.4-4-3.4-4-3.5 1.5-3.5 4 1.4 4.2 3.5 4.2z" fill="#000"/><path opacity=".5" d="M50.2 71l5 1.3 18.9 5 3.8-3.6L49 66l1.2 5z" fill="#111"/><path opacity=".7" d="M59.7 91.3l1.2 5L83.1 75l-5.2-1.3-3.8 3.7-14.4 13.9z" fill="#111"/><path d="M55.2 72.3l-5-1.3 7 29 3.7-3.6-1.2-5.1-4.5-19z" fill="#111"/></svg>
