<svg width="256" height="166" viewBox="0 0 256 166" fill="none" xmlns="http://www.w3.org/2000/svg">
<rect opacity="0.1" width="256" height="166" fill="#95BCD1"/>
<path d="M149.502 107.865C148.077 107.546 145.703 104.988 145.07 103.229C144.437 101.63 144.437 101.63 143.962 102.589C143.645 103.069 143.645 104.188 143.645 104.988C143.962 106.746 143.329 106.586 142.063 104.668C141.271 103.549 141.113 102.749 141.113 100.511C141.113 97.4733 141.113 97.6332 135.731 92.8368C134.149 91.3979 133.516 90.5985 133.516 89.6393C133.516 89.1596 132.882 88.0405 131.933 86.7615C130.35 84.843 129.875 83.5639 131.141 84.6831C131.458 85.0028 132.408 85.3226 133.357 85.6423C134.782 85.9621 135.098 86.2819 135.257 87.2411C135.573 88.3603 135.89 88.5201 137.156 88.8399C138.422 88.8399 139.847 89.959 142.537 92.0374C146.811 95.5547 148.077 95.8745 149.343 93.6362L150.293 92.1973L150.926 93.7961C151.559 95.3949 151.559 95.7146 150.926 97.1535L150.293 98.7523H151.876C153.934 98.4325 154.725 97.793 155.358 96.3541C155.675 95.235 154.883 93.1566 153.934 92.677C153.617 92.677 153.617 92.5171 154.092 92.5171C155.516 92.5171 157.574 93.6362 158.84 94.9152C159.632 96.0344 159.948 96.6739 159.948 98.4325C159.948 101.31 158.049 103.229 154.883 104.028C152.667 104.668 152.509 104.668 153.775 105.147L155.991 105.627H157.099L156.149 106.426C155.516 106.906 154.25 107.386 153.3 107.705C152.064 108.098 150.738 108.098 149.502 107.705V107.865ZM123.386 106.746C121.13 106.254 119.05 105.148 117.371 103.549C116.105 101.95 115.472 101.95 115.472 102.909C115.472 104.028 114.206 102.749 113.256 100.671C112.148 97.9529 111.99 94.2757 112.781 91.3979C113.256 88.9998 113.256 88.9998 112.464 89.1596C111.831 89.3195 111.831 89.1596 111.99 88.2004C112.306 86.9214 113.889 84.5232 115.313 83.0843L116.421 82.125L116.105 85.3226L115.788 88.5201L118.163 86.122L120.853 84.0436C121.012 84.0436 121.17 84.6831 121.012 85.4825C120.853 87.0812 121.012 87.2411 122.594 86.122C123.069 85.6423 123.861 85.3226 124.335 85.3226C124.969 85.3226 124.969 85.4825 123.861 87.2411C122.278 89.7992 121.645 92.0374 121.961 94.4356C122.436 97.4733 124.81 99.5517 127.818 99.5517C129.4 99.5517 132.566 97.6332 133.832 95.8745L135.098 94.5955L137.314 96.1943L139.055 97.793L137.947 99.7116C136.338 102.406 134.042 104.614 131.3 106.107C128.925 106.906 125.443 107.386 123.386 106.746V106.746ZM78.5927 101.95L80.9669 100.351C81.8477 99.9679 82.6521 99.4261 83.3411 98.7523C83.4994 98.2727 83.6577 92.3572 83.6577 85.1627V72.3725L81.4418 70.2941C80.0969 69.1202 78.9711 67.7123 78.1179 66.1373C76.5351 62.9397 76.5351 62.62 78.751 63.7391C80.3338 64.6984 81.2835 64.6984 91.7299 65.0181C101.701 65.3379 103.126 65.4978 105.342 66.2972C110.09 68.0558 114.047 71.5731 115.63 75.5701L116.263 77.1688L114.364 78.4479C113.256 79.0874 111.831 80.3664 111.198 81.0059C110.249 81.9652 109.615 82.2849 108.349 82.2849C107.241 82.2849 106.766 82.125 106.766 81.8053C106.577 79.8596 105.804 78.0188 104.551 76.5293C102.968 74.7707 99.8021 73.6515 96.32 73.9713H93.9458V93.1566H96.7948C98.8525 93.1566 100.435 93.1566 101.543 92.677C104.709 91.3979 106.766 88.2004 106.766 84.6831C106.766 83.2442 106.766 83.2442 108.982 83.0843L112.464 82.4448L114.047 82.125L112.464 84.0436C111.831 85.0028 110.882 86.7615 110.723 87.8806C109.932 90.4387 109.774 94.2757 110.407 93.956C110.723 93.7961 110.882 94.4356 110.882 95.7146C110.882 97.793 110.882 97.9529 109.299 98.9122C108.349 99.5517 106.608 100.511 105.342 100.991C96.4619 101.987 87.5203 102.308 78.5927 101.95V101.95ZM160.898 100.671C161.848 98.7523 161.689 97.4733 160.581 95.235L159.632 93.3165H161.531C165.963 92.8368 168.337 90.2788 169.128 85.8022C170.078 80.2065 167.546 75.4102 163.272 74.291C160.985 73.7644 158.616 73.71 156.308 74.1312C156.308 74.291 155.516 74.4509 154.725 74.291C153.934 74.291 152.351 74.4509 151.243 74.7707L149.185 75.0904C149.502 74.4509 149.185 74.6108 147.761 75.2503L146.653 75.8898L146.336 74.1312C146.02 72.5324 145.545 71.8929 143.645 69.9743C141.588 68.0558 139.055 63.899 139.53 63.2595C144.204 64.626 149.077 65.1669 153.934 64.8583C166.438 65.3379 168.495 65.8175 172.769 68.8552C181.316 75.2503 182.266 88.8399 174.668 96.514C171.503 99.7116 165.963 102.11 161.531 102.11H160.423L160.898 100.671ZM152.984 95.3949C152.984 93.7961 152.984 93.7961 153.617 94.1158C153.934 94.4356 154.25 94.9152 154.25 95.3949C154.25 95.8745 153.934 96.3541 153.617 96.6739C152.984 97.1535 152.984 96.9936 152.984 95.3949ZM146.653 93.1566V89.1596C146.653 85.9621 146.653 85.4825 147.761 84.3633C149.343 82.6047 151.243 82.125 153.142 82.7645C154.25 83.4041 154.883 83.4041 155.2 83.0843L156.149 82.7645C156.624 82.7645 156.624 83.7238 156.624 87.0812V91.3979L153.617 91.0782C151.966 91.1146 150.333 90.7297 148.869 89.959L147.286 88.8399L147.761 90.1189C148.236 92.1973 148.236 93.3165 147.444 93.6362C146.969 93.6362 146.653 93.6362 146.653 93.1566V93.1566ZM127.659 89.959C128.451 89.1596 128.292 88.68 127.659 88.9998C127.026 88.9998 126.868 88.9998 127.343 88.3603C128.609 85.9621 127.343 84.0436 124.81 84.0436C122.911 84.0436 122.753 83.5639 124.494 82.125L125.76 81.0059L124.81 80.6861C123.861 80.3664 124.019 80.2065 125.76 79.567L127.659 78.9275L125.602 79.0874C123.386 79.4071 121.486 80.2065 121.486 81.0059C121.486 81.3256 121.803 81.4855 122.278 81.4855C122.753 81.4855 122.278 81.8053 121.486 82.2849C120.695 82.6047 119.587 83.2442 118.954 83.8837L117.688 84.5232V82.9244C117.688 81.3256 117.213 80.6861 115.313 80.5263H113.731L116.421 78.9275C117.846 78.1281 118.954 77.3287 118.954 76.8491C118.954 76.5293 118.637 75.7299 118.004 75.2503L117.055 74.1312L118.637 74.291L120.22 74.4509L120.062 72.8521L119.745 71.0935L120.695 72.2126L123.861 74.4509L126.71 76.3694C127.026 76.6892 127.343 76.6892 127.343 76.3694C127.343 76.3694 126.868 75.5701 126.076 74.9305C125.127 74.1312 124.81 73.6515 124.81 72.0528C124.81 68.8552 125.285 68.3756 126.076 70.454C126.551 71.2534 128.292 73.3318 130.033 75.0904L132.882 77.4886C132.724 77.009 131.616 75.7299 130.508 74.6108C128.292 72.5324 127.659 71.4132 128.134 69.8145C128.451 69.0151 128.451 69.0151 128.767 70.2941C128.925 70.9336 130.35 72.8521 132.249 74.6108C135.415 78.1281 136.206 79.0874 136.206 80.6861C136.206 81.9652 137.631 83.4041 138.106 82.7645C138.106 82.4448 138.422 82.2849 138.739 82.2849C139.214 82.2849 138.264 85.3226 137.473 86.2819C136.839 86.9214 136.839 86.9214 136.365 85.9621C135.89 85.1627 135.257 84.843 134.307 84.5232C133.199 84.3633 133.041 84.2034 133.199 83.2442C133.199 82.2849 133.199 82.2849 130.508 82.2849C128.925 82.2849 127.818 82.4448 127.818 82.7645L128.451 83.0843C128.925 83.0843 129.084 83.4041 128.925 84.3633C128.609 85.3226 128.767 85.8022 129.242 85.9621C129.559 85.9621 129.875 86.4417 129.875 86.6016C129.875 87.7208 129.875 88.2004 130.667 88.2004C131.141 88.3603 130.983 88.68 129.875 89.3195C128.292 90.4387 126.71 90.7584 127.659 89.7992V89.959ZM132.724 80.0466C131.933 78.9275 131.141 78.6077 131.141 79.4071C131.141 80.2065 131.933 81.0059 132.724 81.0059C133.199 81.0059 133.199 81.0059 132.724 80.0466ZM140.796 88.68L139.372 87.401L141.43 85.3226C143.645 82.7645 146.811 80.6861 149.343 79.8867C150.451 79.567 150.768 79.4071 150.135 79.4071C148.552 79.4071 144.753 81.0059 143.012 82.6047C140.955 84.2034 140.796 84.2034 142.221 81.9652C143.645 79.7269 145.861 77.6485 145.861 78.6077C145.861 79.567 146.178 79.567 148.236 77.8083C150.135 76.2096 151.401 75.8898 150.451 77.009C149.818 77.8083 150.451 78.1281 151.876 77.6485C153.775 77.009 156.308 77.1688 158.682 78.288C161.373 79.567 161.848 80.2065 159.948 80.2065C159.157 80.2065 157.574 80.5263 156.466 81.0059C154.883 81.4855 153.934 81.6454 152.984 81.3256C149.818 80.3664 147.128 82.125 144.437 86.7615L142.379 89.4794C142.221 89.4794 141.43 89.1596 140.796 88.5201V88.68ZM155.516 75.8898L155.991 75.4102C156.466 75.2503 156.624 75.4102 156.624 75.4102C156.624 75.7299 156.466 75.8898 155.991 75.8898H155.516ZM132.408 73.012C130.825 71.4132 130.667 70.9336 130.983 69.9743C132.566 65.9774 129.4 61.9805 125.918 63.899C125.443 64.2188 124.81 64.8583 124.494 65.4978C124.019 66.6169 123.227 70.9336 123.386 71.733C123.386 71.733 123.069 72.0528 122.753 71.8929C122.278 71.8929 121.486 70.7737 121.012 69.4947L119.587 67.2564L118.796 69.8145L118.163 72.2126L117.688 70.454C115.947 64.0589 121.803 58.1434 128.925 59.1027C134.465 59.7422 137.631 63.5792 137.156 68.6953C137.156 71.2534 135.573 75.0904 134.624 75.0904C134.465 75.0904 133.357 74.291 132.408 73.1719V73.012Z" fill="#111111"/>
</svg>
