<svg xmlns="http://www.w3.org/2000/svg" fill="none" viewBox="0 0 256 166">
  <path fill="#95BCD1" d="M0 0h256v166H0z" opacity=".1"/>
  <path fill="#000" d="M48.79 76.45c-1.3.09-2.94 1.7-3.37 2.97 0-.76-.17-2.29.6-3.47-.77-.09-.77-1.02-1.55-1.45.6-.25 1.64.17 1.73.34 1.03 1.02 1.98 1.53 3.45.77-.17.42-.43.59-.86.84zm-1.04-3.56c.52-.85.7-1.44.17-2.2-.69.42-1.3 1.18-1.46 2.12 0-.51 0-.68-.35-.77-.43.94-.34 2.04.43 2.63-.34-.76-.26-1.44.6-2.12-.77 1.02-.6 2.55.35 2.97-1.12-1.7 1.64-1.87 1.82-3.22-.95.17-1.3.34-1.56.6zm-3.71 4.84c-.26.34-.17.68.08.93.1-.34.26-.5.52-.76-.26 0-.43-.09-.6-.17zm.78-1.95c-.7.34-1.04.5-1.13.76.26-.76.26-1.27-.34-1.87-.43.51-.78 1.36-.78 2.12-.09-.42-.17-.5-.52-.59-.17.85.09 1.19.78 1.7-.17-.43-.17-.77.09-1.45-.18.94 0 1.87 1.03 2.3-1.2-1.1 1.04-1.87.87-2.97zm3.02 16.37c.17-.08.34-.17.43-.42-.35-.17-.7-.51-1.04-.85.09.42.35.85.6 1.27zm-.35-1.7a1.66 1.66 0 01-1.2-.93c.08.51.25.85.42 1.1-.34.17-.77.09-1.12-.17.43.85 1.12 1.2 1.99 1.7a2.66 2.66 0 01-.52-1.27c.17-.09.35-.26.43-.43zm11.49.51c-.26.34-.6.6-.95.85.08.26.26.34.43.43.26-.51.52-.94.52-1.28zm.26-.08c-.09.42-.26.76-.6 1.27.86-.5 1.55-.85 2.06-1.61-.34.25-.77.34-1.2.17.25-.34.34-.68.43-1.1-.26.5-.7.84-1.21.93.17.08.34.25.52.34zm-4.84 1.19v.17h.09c.08 0 .08 0 .08-.09-.08-.08-.08-.17-.17-.08zm3.8-2.46a7.34 7.34 0 01-5 1.95 7.34 7.34 0 01-5.02-1.95c-.08.42-.34 1.01-.69 1.18A8.4 8.4 0 0053.28 93c2.24 0 4.32-.76 5.78-2.2-.43-.18-.86-.77-.86-1.2zm-8.38 2.46l-.17-.09.09-.34-.26.26-.17-.09.08-.68.17.09-.08.34.34-.26.18.09-.09.34.26-.26.17.09-.52.5zm1.3-.17l-.26-.09v.09l.26.08v.17l-.26-.08v.08l.26.09v.17l-.43-.17.17-.6.43.17-.17.09zm1.38.34c.09.08.17.08.17.25 0 .09-.08.17-.26.17-.08 0-.08 0-.17-.08v-.17c.09.08.09.08.17.08h.1s0-.08-.1-.08c-.08-.09-.17-.09-.08-.17 0-.09.08-.17.26-.17.08 0 .17 0 .17.08v.17c-.17-.17-.17-.17-.26-.08-.09-.09 0-.09 0 0 0 0-.09 0 0 0zm.7.42v-.68h.42v.17h-.26v.09h.26v.17h-.26v.08h.26v.17h-.43zm1.46-.17l-.09-.17c-.08-.08-.08-.08-.17-.08v.25h-.26l-.08-.68h.25c.18 0 .26 0 .35.17 0 .09 0 .09-.09.17l.09.09v.25zm1.04-.17l-.18.09-.43-.51.26-.09.26.34v-.42l.17-.09-.08.68zm.69-.25l-.26-.6.43-.17.09.09-.26.08.08.09.26-.09.09.09-.26.08.09.09.25-.09.1.09-.61.34zm-8.3-6.03c-.17 1.02-.94 1.44-1.9 1.7 1.22-.6 2-1.78 1.56-3.06.26 2.04-2.33.94-3.1 2.04.86.26 1.29.34 1.63.26-.86.5-1.3.93-1.2 1.86a3.4 3.4 0 002.33-1.27c-.26.5-.26.6 0 .85.69-.51 1.03-1.27.69-2.38zm-1.38-2.8c.52.26.78.26 1.3.09-.35-.77-.7-1.02-1.38-1.2.69-.08.95-.41.95-1-1.21.25-3.2-.43-2.07-4.42-1.64 2.04-.7 5.26.51 7.04a6.74 6.74 0 01-1.64-5.09 4.74 4.74 0 00-.34 2.8c.17 1.02.08 1.78-.52 2.38.43.08.86-.09 1.3-.43-.26.6-.26 1.36.08 1.87.43-.17.7-.51.78-.93.17.08 1.3.76 1.12 1.44.7-.34.7-.94.52-1.44a2.5 2.5 0 00-.6-1.1zm12.27 5.26c.26-.25.17-.42-.09-.85.6.77 1.56 1.2 2.33 1.28.09-.94-.34-1.36-1.2-1.87.34.09.68 0 1.63-.25-.77-1.1-3.36 0-3.1-2.04-.44 1.27.34 2.46 1.55 3.05-1.04-.25-1.73-.67-1.9-1.7-.35 1.03-.09 1.79.78 2.38zm-6.65-12.55c-.35.25-.52.84-.17 1.18.34-.25.43-.76.17-1.18zm-.17-.09c-.35-.25-.95-.17-1.21.17.43.25.95.17 1.2-.17zm1.46.17c-.26-.42-.86-.42-1.2-.17.25.34.77.42 1.2.17zm1.21-2.3c0-.41-.08-.75-.34-1.1h-.78c.35.35.43.69.43 1.1h.7zm0 .43h-.69c-.08.6-.34 1.36-.17 2.3.26-.09.43-.09.69-.09-.09-.85.09-1.61.17-2.2zm7.43 4.67c1.04-.5 1.2-1.44 1.04-2.3.25.6.34.94.08 1.45.6-.5.86-.85.78-1.7-.26 0-.35.17-.43.6 0-.85-.26-1.61-.78-2.12-.6.6-.52 1.1-.35 1.86-.17-.25-.43-.42-1.12-.76-.17 1.02 2.07 1.78.78 2.97zm.43 5c-.6-.59-.78-1.35-.52-2.37.18-.6.26-1.44-.08-2.46-.26.08-.7.17-1.04.17-.17 1.78-1.47 2.2-2.42 2.04 0 .5.35.93.95 1.01a1.9 1.9 0 00-1.38 1.2c.52.16.78.16 1.3-.1-.18.18-.44.52-.78 1.03-.17.5-.17 1.1.52 1.44-.09-.68 1.03-1.36 1.12-1.44.09.42.34.76.78.93.43-.51.34-1.27.08-1.87.7.34 1.13.43 1.47.43zm-2.42-.5c1.04-.77 1.3-1.87 1.47-3.65.26 2.29-.34 3.05-1.47 3.65zm.78-5.86h.7c-.27-.42-.61-.85-.96-.93l.26.93zm-10.54-5.51c-.08 0-.17.08-.17.17 0 .08.09.17.17.17h5.36c.08 0 .17-.09.17-.17 0-.09-.09-.17-.17-.17H50.5zm6.48.34c.17 1.35 3.02 1.52 1.81 3.22.95-.42 1.13-1.95.35-2.97.86.6.86 1.36.6 2.12.78-.6.87-1.78.44-2.63-.35.09-.35.26-.35.77a3.43 3.43 0 00-1.55-2.21c-.52.85-.35 1.36.17 2.2-.17-.16-.6-.33-1.47-.5zm-1.98 1.78c.34 1.78 2.33 1.95 3.54 1.61.25-.34.34-.68.17-1.1-.87.5-2.33.17-2.5-.85-.1-.68 0-.93-.27-1.36l-1.38.09c.52.25.35 1.18.44 1.6zm.51-.85c.26 1.19.6 1.53 1.73 1.87-1.38 0-1.73-.6-1.73-1.87zm.35-1.95h-.09c.09.08.26.17.35.34-.26-.17-.43-.34-.7-.34h-.6c.09.08.26.17.35.34-.26-.17-.43-.34-.7-.34h-.6c.09.08.26.17.35.34-.26-.17-.43-.34-.7-.34h-.6c.09.08.26.17.35.34-.26-.17-.43-.34-.7-.34h-.6c.09.08.26.17.35.34-.26-.17-.43-.34-.7-.34h-.6c.09.08.26.17.35.34-.26-.17-.43-.34-.7-.34h-.25c-.17 0-.35.17-.35.34s.18.34.35.34h5.44c.17 0 .34-.17.34-.34s-.17-.34-.34-.34zm-3.89-2.04v.26c-.08 1.35-1.81 1.44-1.81.08a1.28 1.28 0 002.5.26c0-.17 0-.43-.08-.6h-.6zm1.3-.17h1.81l.26-.34h-1.04a4.41 4.41 0 011.56-2.54l-2.5.85v1.01l1.12-.84c-.35.42-.6.93-.78 1.44h-.43V66.6l.26.17L53.1 65l-.35 1.78.26-.17v2.2h-.43a3.89 3.89 0 00-.78-1.43l1.12.84v-1.01l-2.5-.85a4.7 4.7 0 011.55 2.54h-1.03l.26.34H53v.85l-.16.17v.93l.17-.17v.17h.26v-.17l.17.17v-.93l-.17-.17v-1.02zm2.85.51c0 1.27-1.82 1.19-1.9-.17v-.17h-.6c0 .17-.1.34-.1.6 0 1.95 2.94 1.78 2.6-.26zm-.35 6.11a2 2 0 01-.6-.6c-.09.6-.09 1.11 0 1.62-.6 0-1.21.17-1.9.42-1.04.43-1.73.43-2.33.09.77-1.44-.35-3.4.51-4.75l-.69-.09c-.86 1.27.18 3.06-.34 4.41-.09-.08-.17-.17-.26-.17l-.43.51c.69.68 1.98 1.45 3.45.77 1.12-.51 2.07-.77 3.11-.26l.26-.68c-.17-.08-.35-.17-.6-.17-.18-.42-.18-.76-.18-1.1zm-5.7-2.12c-.86.85-1.98 1.19-2.5.93-.26.26-.26.77.17 1.1.6.35 1.38.26 2.5-.33-.08-.51-.17-1.1-.17-1.7zm-.6 3.82l-.26-.26.78-.85c.08.09.08 0 .17.09.09-.25.09-.6.09-.93a6.17 6.17 0 01-2.77 1.95h1.99zm-2.07.08c-.7.6-1.04 1.1-1.39 1.78.35 0 .6-.08.95-.17-.43.34-.6.94-1.03 1.28.6.17 1.03.08 1.38 0l.09-2.89zm13.38 2.04v-.34h-.17c.08.08.17.17.17.34zm-.6-3.48c.77-.08.77-1.02 1.55-1.44-.6-.26-1.64.17-1.73.34-.86.85-1.64 1.27-2.59 1.1-.26 0-.43-.08-.6-.08.26.25.52.42.78.5.51 0 1.03.34 1.55.68a5.1 5.1 0 001.64.26c-.17-.43-.34-.94-.6-1.36zm2.16 1.7c-2.6.25-4.75-.6-5.96-1.87-.09 0-.18-.08-.26-.08 0 .25.08.5.17.76l.78.25-.26.6h2.24v2.54a3 3 0 011.04.6c.17-.6.09-1.2-.35-1.78.78.25 1.39.33 2.34-.09.08 0 .6-.34.26-.93zm-11.66 1.95c0-.51-.43-.93-.87-.93a.95.95 0 00-.95.93c0 .5.44.85.95.85.44.08.87-.34.87-.85zm3.45 0v-.26c-.43.43-1.38.43-1.81 0v.26c0 .5.43.93.95.93.43 0 .86-.42.86-.93zm-1.81-7.55c-.43.5-.35 1.35-.26 2.29l.09 1.1c0 .09.08.17.17.17.08 0 .17-.08.17-.17l-.09-1.1c-.08-.85-.17-1.7.18-2.12.08-.09 0-.17 0-.17h-.26zm-2.5 6.7a.95.95 0 00-.96.93c0 .51.44.85.95.85.52 0 .87-.42.87-.85 0-.5-.43-.93-.87-.93zm6.82 0a.95.95 0 00-.95.93c0 .51.43.85.95.85.51 0 .86-.42.86-.85 0-.5-.35-.93-.86-.93zm2.15 2.2v-3.39h-2.24l-.09.17c-.26-.08-.43-.08-.6-.17a2.44 2.44 0 00-1.56 0h.09c-.34.09-.86.34-1.2.43-1.13.5-2.43.17-3.2-.43h-2.42v3.4h.17a3 3 0 01-.17.93v.5c.26.18.43.52.6.94V83h.09c.34 0 .6.08.78.17.26.08.43.25.86.25s.7-.08.86-.25c.18-.09.35-.17.78-.17h.35l.26.68c-.1 0-.1 0-.18.08-.17.09-.43.17-.6.09l-.17-.09v.51h-.1v.26l-1.72-.77.43.34 1.13 1.36-.26.08c-.18.09-.35.17-.7.17-.34 0-.51-.08-.68-.17-.18-.08-.35-.17-.78-.17h-.09a6.35 6.35 0 01-.26-1.78v-.08c-.26.08-.43.17-.6.17v.6c0 .08.08.08.08.16.6.93.87 1.78.78 2.46a8.84 8.84 0 004.75 4.24 9 9 0 004.66-4.07c-.08-.76.1-1.61.78-2.71.09-.09.09-.17.17-.34v-.43c-.17 0-.34 0-.6-.17v.09c0 .6-.09 1.18-.26 1.78h-.09c-.43 0-.6.08-.77.17-.18.08-.35.17-.7.17-.34 0-.51-.09-.68-.17-.1 0-.18-.09-.26-.09l1.46-1.7-.51.26-1.3.6v-.34H55v-.43l-.17.09c-.17.08-.34 0-.6-.09h-.09l.35-.68c.08 0 .26-.08.43-.08.34 0 .6.08.78.17.17.08.43.25.86.25s.69-.08.86-.25c.18-.09.35-.17.78-.17v.34c.17-.43.35-.77.6-.94v-.42c-.17-.25-.25-.6-.25-1.02.08 0 .17.09.25.09zm-2.15-2.62c.69 0 1.3.59 1.3 1.27s-.61 1.27-1.3 1.27c-.7 0-1.3-.6-1.3-1.27 0-.68.6-1.27 1.3-1.27zm-4.4.42c.16.34.51.6 1.03.6.43 0 .78-.26.95-.6.26.25.34.5.34.85 0 .68-.6 1.27-1.3 1.27-.77 0-1.37-.6-1.37-1.27 0-.34.08-.6.34-.85zm-2.43-.42c.7 0 1.3.59 1.3 1.27s-.6 1.27-1.3 1.27c-.69 0-1.3-.6-1.3-1.27 0-.68.53-1.27 1.3-1.27zm1.73 4.24c-.43 0-.69.08-.86.25-.18.09-.35.17-.78.17-.35 0-.6-.08-.78-.17-.26-.08-.43-.25-.86-.25h-.09v-.93h3.2l.26.5.17.43h-.26zm.52.17c.26.17.52.42.52.42l.52.51c-.26-.17-.52-.17-.7-.17l-.34-.76zm-.6 1.53v-.26c.17 0 .43 0 .6-.08.26-.09.6-.17.95 0v2.03c-.35-.17-.7-.08-1.04 0-.17.09-.34.09-.52.09v-1.78zm-1.04.08c.26.17.6.25.78.34v.5c-.18-.16-.52-.59-.78-.84zm.69 1.44v.51c-.17.09-.43.26-.78.34.26-.25.6-.68.78-.85zm-2.6-.25c.35 0 .53.08.7.17.17.08.43.17.78.17.43 0 .6-.09.77-.17h.09l-1.47 1.7 1.73-.77v.26h1.3l-.44 1.01h-.08c-.35 0-.52.09-.7.26-.17.08-.25.17-.6.17-.26 0-.43-.09-.6-.17h-.09a8.58 8.58 0 01-1.38-2.63zm4.59 1.78l-.1.08-.77.68-.26.26c.09-.09.09-.26.09-.26l.52-1.27h.17c.09.09.17.17.26.17.17 0 .26-.08.34-.17h.18l.52 1.27s.08.17.08.26c-.17-.09-.26-.26-.26-.26l-.77-.76zm.6.85c-.17.08-.26.17-.52.17s-.43-.09-.52-.17c.18-.17.44-.34.52-.43.09 0 .35.26.52.43zm-.6 2.12a6.45 6.45 0 01-2.77-1.78h.17c.35 0 .52-.09.7-.26.17-.08.25-.17.51-.17l-.17.68-.26.6 1.12-1.02h.1c.16.08.34.25.68.25.35 0 .52-.08.7-.25L55 89.44l-.52-1.2c.26 0 .34.1.52.18.17.08.34.25.69.25h.17a7.14 7.14 0 01-2.76 1.7zm1.98-5.6c.17-.09.52-.25.78-.34-.26.34-.6.76-.78.93H55v-.59h.1zm0 1.02c.17.25.52.68.78 1.02-.35-.17-.6-.34-.78-.43v-.6zm0 1.1v-.25l1.81.84s-1.2-1.44-1.55-1.78c.09 0 .17.09.17.09.18.08.43.17.78.17.43 0 .6-.09.78-.17.17-.09.34-.17.69-.17a8.25 8.25 0 01-1.47 2.54h-.09c-.17.09-.26.17-.6.17-.26 0-.43-.08-.6-.17-.18-.08-.35-.25-.7-.25h-.08l-.43-1.02h1.3zm-.26-.25h-1.55v.08c0 .09-.09.09-.09.09-.08 0-.08 0-.08-.09v-.08h-1.56v-.26c.26.09.43 0 .7-.08.34-.09.6-.26.94 0h.17c.35-.26.7-.17.95 0 .18.08.44.17.7.08v.26h-.18zM54.14 84c.17.08.35.17.6.08v2.04c-.17 0-.34 0-.51-.09-.26-.08-.6-.25-1.04 0v-2.03c.43-.26.7-.17.95 0zm.09-1.2l-.35.86c-.17 0-.43 0-.69.08l.52-.42c0-.09.26-.34.52-.51 0 0 .08-.09 0 0zm.17 0h.09-.09zm-.86.26s-.26.17-.35.34l-.34-.34-1.47-1.27H55l-.44.42-1.03.85zm4.57-.42c-.43 0-.69.08-.86.25-.17.09-.35.17-.78.17-.34 0-.6-.08-.77-.17-.18-.08-.44-.25-.87-.25h-.26l.44-.93h3.1v.93zM75.38 74.59h-2.5v17.3h2.5V74.6zM90.24 78.32a6.05 6.05 0 00-4.15-1.78c-1.64 0-2.76.85-2.76 2.04 0 3.3 7.6 3.22 7.6 8.74 0 2.71-2.07 4.66-4.92 4.66-1.9 0-3.46-.5-4.93-1.61v-3.14c1.3 1.61 2.94 2.55 4.67 2.55 1.98 0 2.85-1.2 2.85-2.21 0-3.56-7.6-3.99-7.6-8.74 0-2.8 2.07-4.58 5.35-4.58a7.2 7.2 0 013.89 1.19v2.88zM98.79 89.6h7.94v2.21H96.2V74.6h2.59V89.6zM112.69 74.59h-2.5v17.3h2.5V74.6zM134.8 91.81h-2.16L120.89 78.5v13.32h-2.41V74.6h2.07l11.92 13.32V74.59h2.33V91.8zM155.35 90.62a15.42 15.42 0 01-6.65 1.45c-5.35 0-9.33-3.74-9.33-8.83s4.06-9 9.42-9c2.07 0 3.45.35 6.21 1.45v2.55a13.52 13.52 0 00-6.3-1.7 6.58 6.58 0 00-6.74 6.62c0 3.9 2.94 6.62 7.08 6.62 1.39 0 2.6-.34 3.8-.68v-3.57h-3.36v-2.2h5.87v7.3zM173.48 76.8h-6.13V91.8h-2.5V76.8h-6.05v-2.2h14.68v2.2zM177.28 83.16c0-3.82 2.94-6.62 6.82-6.62 3.98 0 6.83 2.8 6.83 6.62 0 3.82-2.94 6.62-6.83 6.62-3.88 0-6.82-2.8-6.82-6.62zm-2.59 0c0 4.66 3.63 8.9 9.41 8.9 5.96 0 9.5-4.24 9.5-8.9 0-4.84-3.62-8.91-9.5-8.91-5.7.08-9.4 4.16-9.4 8.9zM214.24 91.81H212L200.25 78.5v13.32h-2.33V74.6h1.99l11.91 13.32V74.59h2.42V91.8z"/>
</svg>
