<svg fill="none" viewBox="0 0 256 166" xmlns="http://www.w3.org/2000/svg"><path fill="#95BCD1" d="M0 0h256v166H0z" opacity=".1"/><path fill-rule="evenodd" clip-rule="evenodd" d="M55 58.2a1.6 1.6 0 1 1 2.7-1.6l3.5 5.9 8 2a1.7 1.7 0 0 1-1 3.3l-7-2-2 7.2a1.6 1.6 0 1 1-3-1l2-7.7V64zm103 13V95h4.2v-8.5a5 5 0 0 1 1.2-3.5 4 4 0 0 1 3-1.2c1.2 0 2 .4 2.6 1 .6.9.8 1.9.8 3.3V95h4.2v-9.3c0-2.4-.5-4.3-1.6-5.6a5.9 5.9 0 0 0-4.7-2c-1.2 0-2.3.4-3.3.9s-1.6 1.2-2.2 2v-9.8zm-53.8 22.7a11.1 11.1 0 0 0 10 .5c1-.5 2-1.4 2.9-2.5l.3 3h3.9V82.4h-10.1v3h5.8a7.6 7.6 0 0 1-2 4.6c-1 1.2-2.6 1.7-4.6 1.7-2.2 0-4-.7-5.1-2a8.7 8.7 0 0 1-2-6c0-2.5.7-4.5 2-6s3-2.2 5.4-2.2c1.4 0 2.6.3 3.5 1a4 4 0 0 1 2 2.4h4.7c-.6-2.3-1.7-4-3.5-5.4-1.8-1.2-4-2-6.7-2a12 12 0 0 0-6.2 1.7c-1.8 1-3 2.4-4 4.2-1 1.8-1.4 3.9-1.4 6.3 0 2.3.4 4.4 1.3 6.2 1 1.7 2.2 3 3.8 4zm23.3.8c1 .5 2 .7 3.5.7a6 6 0 0 0 3.3-1 6 6 0 0 0 2-2.1l.5 2.7h3.6V84.9c0-2.2-.7-4-2-5a8.2 8.2 0 0 0-5.6-1.8 9 9 0 0 0-3.7.8c-1 .4-2 1-2.7 2-.7.8-1 1.9-1.2 3h4.2c0-.7.5-1.3 1-1.7a4 4 0 0 1 2.4-.6c1 0 1.7.2 2.4.7.6.6 1 1.4 1 2.5v.4H132a9 9 0 0 0-5.4 1.4 4.5 4.5 0 0 0-1.8 3.7c0 1 .2 1.8.7 2.5.4.7 1 1.4 2 1.8zm7.2-3.8c-.6.8-1.6 1.2-2.8 1.2-.8 0-1.4-.2-2-.6-.4-.3-.6-.8-.6-1.4 0-.6.2-1.1.7-1.5.5-.4 1.3-.6 2.4-.6h3.6a5.7 5.7 0 0 1-1.3 2.9zm16.7 4c-1.8 0-3.1-.3-4.2-1.2-1-.8-1.5-2.3-1.5-4.4v-7.1h-2.8v-3.6h2.8l.5-4.4h3.7v4.4h4.4v3.6H150v7c0 .9.2 1.4.5 1.8.4.2 1 .4 1.8.4h2v3.5zm34.3.5a9 9 0 0 1-4.4-1 7.7 7.7 0 0 1-3-3 8.4 8.4 0 0 1-1.1-4.5c0-1.7.3-3.2 1-4.5a7.8 7.8 0 0 1 3-3 8.8 8.8 0 0 1 4.5-1.2c1.6 0 3 .4 4.3 1a8 8 0 0 1 2.8 3 7.9 7.9 0 0 1 1 4.8v.8h-12.4c0 1.3.5 2.3 1.3 3 .8.7 1.8 1 3 1a4 4 0 0 0 2-.4c.7-.4 1-1 1.4-1.6h4.3a7.8 7.8 0 0 1-7.7 5.6zm0-13.7c-1 0-2 .3-2.7.8a4 4 0 0 0-1.6 2.7h8.2c0-1-.5-2-1.2-2.6a4 4 0 0 0-2.7-1zm11.5-3v16.2h4.2v-7.5a6 6 0 0 1 .6-3 4 4 0 0 1 1.7-1.4c.8-.3 1.6-.4 2.5-.4h1.2V78a6.8 6.8 0 0 0-6 3.5l-.4-3zM71.7 83.9A6.5 6.5 0 1 0 65 72.7a6.5 6.5 0 0 0 6.7 11.2zM70 81a3.2 3.2 0 1 0-3.2-5.6A3.2 3.2 0 0 0 70 81zm-9.5 1.8a6.5 6.5 0 1 1-11.2 6.5 6.5 6.5 0 0 1 11.2-6.5zm-3 1.6a3.2 3.2 0 1 1-5.5 3.2 3.2 3.2 0 0 1 5.6-3.2zm15.3 16a6.5 6.5 0 1 0-6.5-11.3 6.5 6.5 0 0 0 6.5 11.3zm-1.8-3a3.2 3.2 0 1 0-3.2-5.5 3.2 3.2 0 0 0 3.2 5.6zm17.7 2.8a6.5 6.5 0 1 1-11.2 6.5 6.5 6.5 0 0 1 11.2-6.5zm-3 1.6a3.2 3.2 0 1 1-5.4 3.2 3.2 3.2 0 0 1 5.5-3.2zm.6-9.2a6.5 6.5 0 1 0-6.5-11.3 6.5 6.5 0 0 0 6.5 11.3zm-1.6-3a3.2 3.2 0 1 0-3.2-5.5 3.2 3.2 0 0 0 3.2 5.6zm2.9-22.5a6.5 6.5 0 1 1-11.3 6.5 6.5 6.5 0 0 1 11.3-6.5zm-3 1.6A3.2 3.2 0 1 1 79 72a3.2 3.2 0 0 1 5.6-3.2z" fill="#111"/></svg>
