<svg width="256" height="166" viewBox="0 0 256 166" fill="none" xmlns="http://www.w3.org/2000/svg">
<rect opacity="0.1" width="256" height="166" fill="#95BCD1"/>
<path d="M72.47 107.754C72.436 107.58 72.3124 106.591 72.1954 105.557C71.6111 100.39 70.1659 95.9721 67.9503 92.5818C67.0535 91.2095 65.1184 89.1175 63.7904 88.0848C62.6728 87.2157 61.1306 86.3028 59.9115 85.7888C59.4313 85.5863 59.0218 85.4103 59.0016 85.3978C58.9468 85.3638 60.2979 71.1499 60.3782 70.917C60.5127 70.5264 60.6539 71.2226 60.8116 73.0535C61.0154 75.4212 61.5162 78.4304 62.0767 80.6561C62.3252 81.6428 62.5577 82.4798 62.5934 82.516C62.6291 82.5523 62.9784 82.4795 63.3695 82.3544L64.0806 82.1268L64.4155 80.6947C65.2819 76.9903 65.8431 73.0457 66.4098 66.6774C66.4572 66.1449 66.5427 65.7093 66.5999 65.7093C66.6571 65.7093 66.7435 66.3252 66.7919 67.078C66.9265 69.1696 67.2448 72.6715 67.4624 74.4556C67.7518 76.8272 68.4489 80.9804 68.5812 81.121C68.651 81.1953 68.9941 81.1953 69.4526 81.121L70.2087 80.9986L70.372 80.1974C71.0308 76.9641 72.15 66.8394 72.4201 61.6679C72.4384 61.318 72.5126 61.0175 72.5849 61.0003C72.6645 60.9813 72.7795 61.9186 72.8762 63.3725C73.0612 66.1563 73.4722 70.5612 73.8419 73.7211C74.1546 76.3944 74.8664 80.8249 75.0065 80.9709C75.0624 81.0291 75.4572 81.0892 75.8838 81.1044L76.6595 81.1321L76.9492 79.5297C77.5276 76.3304 78.1082 71.2699 78.3779 67.0779C78.4263 66.3252 78.5187 65.7093 78.5832 65.7093C78.6478 65.7093 78.7006 65.7897 78.7006 65.8881C78.7006 66.2731 79.1032 70.4084 79.3007 72.052C79.705 75.4166 80.1526 78.0698 80.7586 80.6947L81.0893 82.1268L81.8003 82.3543C82.1914 82.4795 82.5422 82.5506 82.5799 82.5124C82.6176 82.4741 82.8532 81.6372 83.1035 80.6525C83.6557 78.4798 84.1648 75.3964 84.3642 73.0163C84.5144 71.2236 84.6566 70.5256 84.7919 70.917C84.8752 71.1579 86.2279 85.3579 86.1711 85.3948C86.1493 85.4089 85.7385 85.5862 85.2583 85.7887C83.0869 86.7044 81.1291 88.0964 79.2734 90.0439C75.8183 93.6701 73.6919 98.9732 72.9367 105.847C72.7155 107.861 72.5908 108.371 72.47 107.754V107.754ZM110.245 104.711C109.091 104.332 108.532 103.543 108.538 102.3C108.54 101.865 108.628 101.341 108.734 101.135C108.989 100.639 109.585 100.077 110.044 99.9017C110.455 99.7438 111.459 99.7151 112.09 99.8431C112.475 99.9213 112.501 99.9633 112.501 100.511C112.501 100.832 112.481 101.095 112.456 101.095C112.431 101.095 112.218 100.998 111.983 100.879C111.458 100.612 110.499 100.693 110.127 101.034C109.415 101.688 109.515 103.142 110.305 103.645C110.733 103.917 111.481 103.92 111.747 103.65C111.961 103.432 111.712 102.691 111.371 102.533C110.827 102.282 111.021 102.163 111.975 102.163H112.896V103.301C112.896 104.391 112.882 104.445 112.568 104.566C112.083 104.753 110.646 104.843 110.245 104.711L110.245 104.711ZM150.922 103.419L149.458 102.005V103.144C149.458 103.771 149.517 104.321 149.59 104.367C149.922 104.575 149.65 104.7 148.866 104.7C148.396 104.7 148.011 104.666 148.011 104.624C148.011 104.582 148.1 104.458 148.209 104.347C148.368 104.186 148.406 103.724 148.406 101.942C148.406 100.589 148.455 99.7546 148.532 99.7819C148.602 99.8064 149.312 100.447 150.111 101.205L151.562 102.583V101.535C151.562 100.802 151.501 100.397 151.358 100.19L151.153 99.8932H152.042C152.733 99.8932 152.895 99.9287 152.772 100.053C152.662 100.166 152.615 100.905 152.615 102.524C152.615 103.794 152.563 104.834 152.501 104.834C152.438 104.834 151.728 104.197 150.922 103.419V103.419ZM156.253 104.678C154.287 104.12 154.075 100.957 155.942 100.04C156.518 99.7566 157.441 99.6782 158.253 99.8432C158.639 99.9214 158.664 99.9633 158.664 100.511C158.664 100.832 158.644 101.095 158.619 101.095C158.594 101.095 158.381 100.998 158.146 100.879C157.528 100.566 156.592 100.696 156.209 101.149C155.269 102.259 156.093 104.093 157.418 103.841C157.849 103.759 157.875 103.723 157.875 103.223C157.875 102.786 157.817 102.665 157.546 102.54C156.99 102.282 157.177 102.163 158.138 102.163H159.059V103.277C159.059 104.333 159.042 104.398 158.733 104.541C158.251 104.764 156.832 104.843 156.253 104.678H156.253ZM88.17 104.575C88.17 104.506 88.2291 104.412 88.3015 104.367C88.3782 104.318 88.433 103.564 88.433 102.556V100.828H87.999C87.7603 100.828 87.494 100.9 87.4072 100.988C87.2844 101.113 87.2497 101.076 87.2511 100.821C87.2522 100.641 87.2886 100.359 87.3322 100.194C87.4093 99.9018 87.46 99.8932 89.106 99.8932H90.8004V100.521C90.8004 101.009 90.7653 101.113 90.6425 100.988C90.5557 100.9 90.2894 100.828 90.0507 100.828H89.6167V102.467C89.6167 103.735 89.6631 104.174 89.8214 104.404L90.0262 104.7H89.0981C88.5876 104.7 88.17 104.644 88.17 104.575H88.17ZM92.963 104.404C93.1238 104.17 93.1677 103.719 93.1677 102.297C93.1677 100.875 93.1238 100.423 92.963 100.19L92.7582 99.8932H93.7024C94.4949 99.8932 94.6222 99.9231 94.4945 100.079C94.4108 100.182 94.3065 100.572 94.2628 100.947L94.1832 101.629H95.1221H96.0611V101.005C96.0611 100.612 95.9806 100.291 95.8434 100.137C95.6344 99.903 95.6643 99.8932 96.5931 99.8932C97.3455 99.8932 97.5254 99.9288 97.4026 100.053C97.2033 100.256 97.1789 104.243 97.3763 104.367C97.7159 104.58 97.4278 104.7 96.5797 104.7H95.6516L95.8563 104.404C95.9789 104.226 96.0611 103.824 96.0611 103.402V102.697H95.1217H94.1823L94.2681 103.532C94.3152 103.991 94.4125 104.387 94.4841 104.411C94.5557 104.436 94.6143 104.511 94.6143 104.578C94.6143 104.645 94.1967 104.7 93.6862 104.7H92.7581L92.963 104.404ZM99.6122 104.575C99.6122 104.506 99.6714 104.412 99.7437 104.367C99.941 104.243 99.9167 100.256 99.7174 100.053C99.5946 99.9288 99.9161 99.8932 101.164 99.8932H102.769V100.486V101.079L102.407 100.888C102.208 100.782 101.823 100.696 101.552 100.695C101.062 100.694 101.059 100.698 101.059 101.242V101.79L101.618 101.732C101.925 101.7 102.28 101.628 102.407 101.571C102.609 101.479 102.637 101.549 102.637 102.149C102.637 102.783 102.5 103.012 102.308 102.697C102.264 102.624 101.964 102.564 101.643 102.564H101.059V103.165V103.766H101.739C102.187 103.766 102.501 103.69 102.66 103.545C102.888 103.334 102.9 103.347 102.9 103.801C102.9 104.703 102.905 104.7 101.176 104.7C100.287 104.7 99.6121 104.646 99.6121 104.575L99.6122 104.575ZM114.501 104.6C114.529 104.545 115.076 103.403 115.718 102.063C116.36 100.723 116.925 99.6262 116.974 99.6262C117.04 99.6262 118.974 103.721 119.318 104.59C119.342 104.651 118.996 104.7 118.548 104.7C117.847 104.7 117.745 104.67 117.817 104.481C117.862 104.361 117.864 104.15 117.821 104.014C117.756 103.806 117.607 103.766 116.9 103.766C116.115 103.766 116.051 103.788 115.976 104.092C115.932 104.271 115.934 104.482 115.981 104.559C116.038 104.653 115.793 104.7 115.259 104.7C114.815 104.7 114.474 104.655 114.501 104.6H114.501ZM117.258 102.354C117.128 102.018 116.971 101.744 116.909 101.744C116.847 101.745 116.694 102.02 116.568 102.355L116.341 102.965H116.917H117.494L117.258 102.354ZM121.444 104.578C121.444 104.511 121.518 104.431 121.609 104.4C121.726 104.36 121.786 103.839 121.819 102.586L121.865 100.828H121.418C121.172 100.828 120.901 100.899 120.815 100.986C120.576 101.229 120.506 101.052 120.602 100.445L120.689 99.8933H122.365H124.04L124.115 100.458C124.198 101.086 124.147 101.221 123.915 100.986C123.829 100.899 123.564 100.828 123.325 100.828H122.891V102.488C122.891 103.785 122.934 104.191 123.088 104.348C123.197 104.458 123.286 104.582 123.286 104.624C123.286 104.666 122.871 104.7 122.365 104.7C121.859 104.7 121.444 104.645 121.444 104.578L121.444 104.578ZM126.048 104.578C126.048 104.511 126.122 104.431 126.212 104.4C126.459 104.317 126.444 100.418 126.196 100.114C126.031 99.9122 126.096 99.8933 126.96 99.8933H127.904L127.699 100.19C127.586 100.353 127.494 100.744 127.494 101.058V101.629H128.415H129.336L129.335 101.128C129.334 100.853 129.249 100.462 129.145 100.261L128.957 99.8933H129.872H130.788L130.578 100.219C130.404 100.488 130.375 100.877 130.411 102.445C130.441 103.814 130.499 104.36 130.618 104.4C131.063 104.55 130.685 104.7 129.862 104.7C129.355 104.7 128.941 104.645 128.941 104.578C128.941 104.511 129.01 104.432 129.095 104.403C129.182 104.374 129.275 103.989 129.308 103.524L129.367 102.697H128.431H127.494V103.402C127.494 103.824 127.577 104.226 127.699 104.404L127.904 104.7H126.976C126.465 104.7 126.048 104.645 126.048 104.578H126.048ZM132.945 104.404C133.253 103.957 133.243 100.486 132.932 100.137C132.722 99.9021 132.775 99.8933 134.379 99.8933H136.043V100.484V101.075L135.652 100.876C135.436 100.767 135.037 100.697 134.764 100.72C134.292 100.759 134.268 100.784 134.268 101.229C134.268 101.671 134.293 101.698 134.755 101.737C135.023 101.76 135.364 101.712 135.511 101.632C135.765 101.494 135.78 101.523 135.78 102.163C135.78 102.804 135.765 102.832 135.511 102.694C135.364 102.614 135.024 102.567 134.756 102.59C134.232 102.634 134.11 102.843 134.258 103.442C134.33 103.732 134.409 103.766 135.016 103.766C135.474 103.766 135.778 103.69 135.954 103.532C136.209 103.303 136.213 103.308 136.13 103.832C136.084 104.126 136.045 104.442 136.044 104.534C136.043 104.658 135.624 104.7 134.392 104.7H132.74L132.945 104.404ZM138.279 104.578C138.279 104.511 138.353 104.431 138.443 104.4C138.698 104.314 138.674 100.416 138.417 100.102C138.238 99.8822 138.315 99.8716 139.776 99.9145L141.326 99.9601L141.71 100.396C142.223 100.98 142.239 101.712 141.75 102.208L141.406 102.557L141.767 103.195C141.966 103.545 142.272 104.028 142.446 104.266L142.764 104.7H142.188C141.759 104.7 141.544 104.624 141.342 104.4C140.914 103.926 139.867 102.198 139.954 102.11C139.997 102.066 140.159 102.03 140.313 102.03C140.676 102.03 140.909 101.787 140.909 101.41C140.909 101.061 140.456 100.694 140.025 100.694C139.729 100.694 139.726 100.714 139.726 102.401C139.726 103.729 139.771 104.173 139.93 104.404L140.135 104.7H139.207C138.697 104.7 138.279 104.645 138.279 104.578H138.279ZM144.46 104.578C144.46 104.511 144.534 104.431 144.625 104.4C144.889 104.311 144.934 100.816 144.678 100.295L144.481 99.8933H145.394H146.308L146.097 100.219C145.924 100.488 145.894 100.877 145.93 102.445C145.961 103.814 146.019 104.36 146.137 104.4C146.582 104.55 146.204 104.7 145.381 104.7C144.875 104.7 144.46 104.645 144.46 104.578H144.46ZM162.396 99.259C161.876 97.6156 160.786 96.3197 159.369 95.6612C158.377 95.1999 157.905 95.161 156.231 95.4028C153.255 95.833 151.555 95.8 149.528 95.2727C148.403 94.9798 146.504 94.0317 145.578 93.2999C141.814 90.3249 141.012 85.1355 143.721 81.2811C145.116 79.296 147.536 77.7405 150.227 77.0984C151.453 76.8059 161.166 76.6716 161.158 76.9472C161.15 77.2194 158.578 82.8528 158.44 82.8994C158.374 82.9217 158.186 82.6108 158.022 82.2084C157.153 80.08 155.181 78.8074 153.351 79.1933C150.76 79.7393 149.318 82.6155 149.5 86.874C149.604 89.3161 150.088 90.8572 151.109 92.005C152.177 93.2058 153.556 93.6648 154.982 93.2939C155.442 93.1744 155.901 93.0067 156.002 92.9212C156.15 92.7962 156.178 92.3195 156.143 90.4876C156.092 87.7997 155.998 87.5362 154.844 86.8446C154.45 86.6081 154.038 86.3562 153.93 86.2849C153.8 86.1996 155.251 86.1526 158.171 86.1474L162.61 86.1395V92.8161C162.61 96.4882 162.579 99.4926 162.54 99.4926C162.502 99.4926 162.437 99.3875 162.396 99.2589V99.259ZM101.148 94.1226C100.525 92.6329 99.3375 89.7917 98.5099 87.8087C97.6823 85.8258 96.9351 84.2034 96.8493 84.2034C96.5925 84.2034 93.3731 91.4664 93.3852 92.0186C93.4058 92.9609 93.8173 93.5085 95.7323 95.1418L96.1269 95.4783L91.4251 95.4822C88.8391 95.4842 86.7233 95.4715 86.7235 95.453C86.7236 95.4346 87.106 95.0081 87.5733 94.505C88.0407 94.0019 88.6907 93.1907 89.0178 92.7023C89.3516 92.2041 90.8015 89.1817 92.3213 85.8161C94.6189 80.7281 95.0178 79.7526 94.9503 79.3871C94.8418 78.8001 93.9725 78.0199 92.8753 77.5249C91.3415 76.8328 91.5218 76.7918 96.094 76.7941C98.3545 76.7951 100.267 76.8403 100.345 76.8943C100.422 76.9483 101.262 78.8551 102.21 81.1318C103.158 83.4085 103.978 85.261 104.032 85.2483C104.235 85.2003 106.709 79.5205 106.712 79.0959C106.714 78.6055 106.08 77.7949 105.321 77.3182C105.074 77.1637 104.873 76.9822 104.873 76.9147C104.873 76.8424 106.849 76.7921 109.684 76.7921C112.63 76.7921 114.479 76.8407 114.452 76.9176C114.428 76.9866 114.201 77.1831 113.948 77.3542C113.332 77.7703 112.997 78.4477 113.07 79.1289C113.147 79.8483 118.303 92.1661 118.895 93.0432C119.153 93.4253 119.719 94.1313 120.153 94.6122L120.942 95.4864H115.735C112.871 95.4864 110.529 95.4414 110.529 95.3863C110.53 95.3313 110.734 95.1448 110.984 94.9721C111.619 94.5331 112.023 93.6386 111.947 92.8404C111.875 92.0785 108.585 84.1042 108.373 84.1759C108.294 84.2024 106.956 87.0388 105.399 90.479C103.842 93.9192 102.503 96.7557 102.425 96.7824C102.346 96.8091 101.772 95.6139 101.148 94.1223V94.1226ZM124.768 95.8364C123.34 94.7696 121.293 92.3825 120.632 91.0135L120.374 90.4793L123.027 84.6147L125.68 78.7501L125.472 78.3058C125.357 78.0614 125.028 77.696 124.74 77.4938C124.452 77.2916 124.214 77.0511 124.211 76.9593C124.207 76.8281 125.523 76.7924 130.366 76.7924C133.754 76.7924 136.563 76.8308 136.609 76.8777C136.656 76.9247 136.443 77.1882 136.138 77.4633C135.186 78.3211 135.169 78.2548 138.318 85.7874C139.819 89.3759 141.249 92.6216 141.496 92.9999C141.743 93.3782 142.275 94.0569 142.677 94.5081C143.079 94.9593 143.408 95.3641 143.408 95.4076C143.408 95.4511 141.07 95.4868 138.213 95.4868C135.356 95.4868 133.018 95.4493 133.018 95.4035C133.018 95.3577 133.28 95.0859 133.601 94.7995C134.27 94.2017 134.529 93.5597 134.422 92.7661C134.341 92.1656 129.301 79.9633 129.107 79.8976C129.042 79.8755 128.236 81.5218 127.317 83.5562C126.066 86.326 125.689 87.2821 125.814 87.3629C125.906 87.4223 127.195 87.4736 128.678 87.4769L131.374 87.4828L130.256 88.0436C127.565 89.3936 126.036 91.8772 125.821 95.2455C125.779 95.8923 125.702 96.4215 125.648 96.4215C125.594 96.4215 125.198 96.1582 124.768 95.8364V95.8364ZM185.922 95.6202C181.498 94.9889 177.953 92.1137 176.987 88.3728C176.707 87.2886 176.707 85.2576 176.987 84.1734C177.832 80.9009 180.678 78.2452 184.434 77.2234C185.654 76.8914 185.838 76.8795 190.596 76.8244C193.293 76.7932 195.584 76.8003 195.686 76.8401C195.828 76.8956 195.556 77.6107 194.528 79.8799C193.789 81.5119 193.125 82.8672 193.053 82.8916C192.981 82.916 192.816 82.6339 192.687 82.2647C192.392 81.4221 191.526 80.3266 190.716 79.7726C189.115 78.6774 187.08 78.9891 185.698 80.5412C184.598 81.778 184.126 83.4981 184.126 86.2731C184.126 89.9059 185.049 92.0498 187.039 93.0382C188.395 93.7115 190.341 93.4744 192.69 92.3498C193.747 91.8439 195.431 90.7589 196.573 89.849C197.131 89.4039 197.143 89.6524 196.605 90.5511C195.317 92.7029 192.492 94.7657 189.959 95.4027C188.884 95.6732 187.003 95.7745 185.922 95.6202V95.6202ZM165.503 95.3994C165.503 95.3513 165.737 95.1095 166.022 94.8618C166.306 94.6142 166.706 94.0677 166.909 93.6473L167.279 92.8829V86.1396V79.3962L166.929 78.7286C166.736 78.3614 166.336 77.8234 166.041 77.5331C165.745 77.2428 165.503 76.9574 165.503 76.8988C165.503 76.8403 167.664 76.7924 170.304 76.7924C172.944 76.7924 175.104 76.841 175.104 76.9005C175.104 76.9599 174.811 77.3175 174.453 77.6952C173.938 78.237 173.743 78.5757 173.526 79.3007C173.261 80.1856 173.252 80.4507 173.29 86.4845L173.329 92.7494L173.678 93.5045C173.869 93.9199 174.269 94.4987 174.565 94.7908C174.862 95.083 175.104 95.359 175.104 95.4044C175.104 95.4496 172.944 95.4867 170.304 95.4867C167.664 95.4867 165.504 95.4473 165.504 95.3994L165.503 95.3994Z" fill="black"/>
</svg>
