<svg width="256" height="166" fill="none" xmlns="http://www.w3.org/2000/svg"><path opacity=".1" fill="#95BCD1" d="M0 0h256v166H0z"/><path d="M48.8 76.5c-1.3 0-3 1.7-3.4 3 0-.8-.2-2.4.6-3.6-.8 0-.8-1-1.5-1.4.6-.3 1.6.2 1.7.3 1 1 2 1.6 3.5.8-.2.4-.5.6-1 .9zm-1-3.6c.5-.9.6-1.5.1-2.2-.7.4-1.3 1.2-1.4 2.1 0-.5 0-.7-.4-.8-.4 1-.3 2 .4 2.7-.3-.8-.2-1.5.6-2.1-.7 1-.6 2.5.4 3-1.1-1.8 1.6-2 1.8-3.3-1 .2-1.3.3-1.5.6zM44 77.7c-.2.4-.1.7.1 1 .1-.4.3-.5.5-.8-.2 0-.4 0-.6-.2zm.8-2c-.7.4-1 .6-1.1.8.3-.7.3-1.2-.4-1.8-.4.5-.7 1.3-.7 2-.1-.3-.2-.4-.5-.5-.2.8 0 1.2.7 1.7-.1-.4-.1-.8.1-1.4-.2.9 0 1.8 1 2.2-1.2-1 1-1.8 1-3zm3 16.5c.2-.1.4-.2.5-.5-.4-.1-.7-.5-1-.8 0 .4.3.8.5 1.3zm-.3-1.7c-.5-.1-1-.5-1.2-1 0 .5.2.9.4 1.1-.3.2-.8.1-1.1-.1.4.8 1.1 1.1 2 1.7-.4-.5-.5-.9-.5-1.3l.4-.4zM59 91l-1 .8c.1.3.3.4.5.4.2-.5.5-.9.5-1.2zm.2-.1c0 .4-.2.7-.6 1.3.9-.6 1.6-.9 2.1-1.7-.3.3-.8.4-1.2.2.3-.3.3-.7.4-1-.2.4-.7.8-1.2.8l.5.4zM54.4 92v.1h.2c-.1-.1-.1-.2-.2-.1zm3.8-2.5a7.3 7.3 0 01-10 0c-.1.4-.4 1-.7 1.2a8.4 8.4 0 005.8 2.2c2.2 0 4.3-.8 5.8-2.2-.5-.2-.9-.8-.9-1.2zm-8.4 2.5l-.1-.1v-.4l-.2.3h-.2V91l.3.1-.1.4.3-.3h.2v.4l.2-.2h.1l-.5.6zm1.3-.2H51h.2v.3L51 92l.2.1v.2l-.4-.2.2-.6.4.2-.2.1zm1.4.3c0 .1.2.1.2.3 0 0-.1.2-.3.2l-.2-.1v-.2H52.5c-.2 0-.3 0-.2-.2l.3-.1h.2v.2h-.3c0-.1 0-.1 0 0zm.7.5V92h.4v.2h-.2.2v.2h-.2.2v.3h-.4zm1.5-.2l-.1-.2h-.2v.2h-.3v-.7h.2c.2 0 .3 0 .4.2l-.1.2v.3zm1-.2l-.2.1-.4-.5h.3l.2.3v-.5h.2l-.1.6zm.7-.2l-.3-.6.5-.2-.2.2h.4l-.2.1v.1h.3l-.5.4zM48 86c-.2 1-1 1.4-1.9 1.6 1.2-.6 2-1.7 1.6-3 .2 2-2.4 1-3.2 2 1 .3 1.3.4 1.7.3-.9.5-1.3 1-1.2 1.8.8 0 1.7-.5 2.3-1.2-.3.5-.3.6 0 .8.7-.5 1-1.3.7-2.4zm-1.4-2.9c.5.3.8.3 1.3.1-.3-.7-.7-1-1.4-1.2.7 0 1-.4 1-1-1.2.3-3.2-.4-2-4.4-1.7 2-.8 5.3.4 7a6.7 6.7 0 01-1.6-5c-.4 1-.5 2-.4 2.8.2 1 .1 1.7-.5 2.3.5.1.9 0 1.3-.4-.2.6-.2 1.4.1 1.9.4-.2.7-.5.8-1 .2.1 1.3.8 1.1 1.5.7-.4.7-1 .5-1.5-.2-.5-.4-.9-.6-1zM59 88.5c.2-.3.1-.4-.1-.8.6.7 1.5 1.1 2.3 1.2.1-1-.3-1.3-1.2-1.8.4 0 .7 0 1.7-.3-.8-1.1-3.4 0-3.2-2-.4 1.2.4 2.4 1.6 3-1-.2-1.7-.7-1.9-1.7-.3 1 0 1.8.8 2.4zm-6.7-12.6c-.3.3-.5.9-.1 1.2.3-.2.4-.7.1-1.2zm-.1 0c-.4-.3-1-.2-1.3.1.5.3 1 .2 1.3-.1zm1.4.1c-.2-.4-.8-.4-1.2-.1.3.3.8.4 1.2.1zm1.2-2.3c0-.4 0-.7-.3-1h-.8c.4.3.4.6.4 1h.7zm0 .5h-.7c0 .6-.3 1.3-.1 2.3l.7-.1c-.1-.9 0-1.6.1-2.2zm7.5 4.6c1-.5 1.2-1.4 1-2.3.3.6.3 1 0 1.5.7-.5 1-.9.9-1.7-.3 0-.4.2-.5.6a3 3 0 00-.8-2.1c-.6.6-.5 1-.3 1.8-.2-.2-.4-.4-1.1-.7-.2 1 2 1.7.8 3zm.4 5c-.6-.6-.8-1.3-.5-2.3A4 4 0 0062 79l-1 .2c-.2 1.8-1.5 2.2-2.5 2 0 .5.4 1 1 1-.6.2-1 .4-1.4 1.2.5.2.8.2 1.3 0l-.8 1c-.2.5-.2 1 .5 1.4 0-.7 1-1.4 1.2-1.5 0 .5.3.8.7 1 .5-.5.4-1.3.1-1.9.7.4 1.1.4 1.5.4zm-2.4-.5c1-.7 1.3-1.8 1.4-3.6.3 2.3-.3 3-1.4 3.6zm.7-5.8h.7c-.2-.5-.6-.9-1-1 .2.4.3.6.3 1zM50.5 72l-.2.1.2.2H56l.1-.2-.1-.1h-5.4zm6.5.3c.2 1.4 3 1.5 1.8 3.2 1-.4 1.1-2 .4-3 .8.6.8 1.4.6 2.2.7-.6.8-1.8.4-2.7-.4.1-.4.3-.4.8-.1-1-.7-1.7-1.5-2.2-.5.8-.4 1.4.2 2.2-.2-.2-.6-.3-1.5-.5zm-2 1.8c.4 1.8 2.3 2 3.5 1.6.3-.3.4-.7.2-1.1-.8.5-2.3.2-2.5-.9 0-.6 0-.9-.2-1.3h-1.4c.5.3.3 1.3.4 1.7zm.5-.9c.3 1.2.6 1.6 1.8 1.9-1.4 0-1.8-.6-1.8-1.9zm.4-2h-.1c0 .2.2.2.3.4-.2-.2-.4-.3-.7-.3h-.6l.4.3-.7-.3h-.6l.3.3c-.2-.2-.4-.3-.7-.3H53l.4.3-.7-.3H52l.3.3c-.2-.2-.4-.3-.7-.3H51l.4.3-.7-.3h-.3c-.1 0-.3.1-.3.3 0 .2.2.4.3.4H56c.1 0 .3-.2.3-.4s-.2-.3-.3-.3zm-4-2v.3c0 1.4-1.7 1.4-1.7 0-.4 2.1 2.5 2.3 2.5.3l-.1-.6H52zm1.4-.1H55l.3-.4h-1c0-1 .7-1.8 1.5-2.5l-2.5.8v1l1-.8-.7 1.4h-.4v-2l.2.2-.4-1.8-.3 1.8.2-.2v2.2h-.4c-.2-.6-.4-1-.8-1.4l1.1.8v-1l-2.5-.8c.8.6 1.4 1.6 1.6 2.5h-1l.2.3H53v.9l-.2.2v.9l.2-.2v.2h.3V71l.2.2v-1l-.2-.1v-1zm2.8.5c0 1.3-1.8 1.2-1.9-.2v-.2h-.6v.6c0 2 2.9 1.8 2.5-.2zm-.3 6a2 2 0 01-.6-.5 5 5 0 000 1.6c-.6 0-1.2.2-2 .4-1 .5-1.6.5-2.3.1.8-1.4-.3-3.4.6-4.7l-.7-.1c-.9 1.3.1 3-.4 4.4l-.2-.2-.5.5c.7.7 2 1.5 3.5.8 1.1-.5 2-.8 3.1-.3l.3-.6-.6-.2c-.2-.4-.2-.8-.2-1.1zm-5.7-2c-.9.8-2 1.2-2.5.9-.3.3-.3.8.2 1.1.6.3 1.3.3 2.5-.3l-.2-1.7zm-.6 3.8l-.3-.3.8-.8h.2v-.9c-1 1.2-2 1.7-2.7 2h2zm-2 0c-.8.7-1.1 1.2-1.5 1.9l1-.2c-.5.3-.6 1-1 1.3h1.3l.1-3zm13.3 2.1v-.3h-.2c.1 0 .2.1.2.3zm-.6-3.5c.8 0 .8-1 1.5-1.4-.6-.3-1.6.2-1.7.3-.9.9-1.6 1.3-2.6 1.1h-.6l.8.5c.5 0 1 .3 1.5.6.6.2 1 .3 1.7.3l-.6-1.4zm2.1 1.7c-2.5.3-4.7-.6-6-1.8l-.2-.1.2.7.8.3-.3.6h2.3v2.5l1 .6a2 2 0 00-.3-1.8c.7.3 1.3.4 2.3 0 0 0 .6-.4.2-1zm-11.6 2c0-.5-.4-1-.9-1a1 1 0 00-1 1c0 .5.5.8 1 .8.5.1.9-.3.9-.8zm3.4 0v-.3c-.4.4-1.3.4-1.8 0v.3c0 .5.5 1 1 1 .4 0 .8-.5.8-1zM52.3 72c-.4.5-.3 1.4-.2 2.3v1.1l.2.2c.1 0 .2 0 .2-.2v-1c-.2-1-.3-1.8 0-2.2.2 0 0-.2 0-.2h-.2zm-2.5 6.7a1 1 0 00-1 1c0 .5.5.8 1 .8s.9-.4.9-.8c0-.5-.4-1-.9-1zm6.8 0a1 1 0 00-.9 1c0 .5.4.8 1 .8.5 0 .8-.4.8-.8 0-.5-.3-1-.9-1zm2.2 2.2v-3.4h-2.2l-.1.2c-.3 0-.5 0-.6-.2-.5-.1-1-.1-1.6 0h.1l-1.2.5c-1.1.5-2.4.1-3.2-.5h-2.4V81h.2l-.2 1v.5c.2.1.4.5.6 1V83c.4 0 .7 0 .8.2l1 .2c.3 0 .6 0 .8-.2.1-.1.3-.2.8-.2h.3l.3.7H52c-.2.1-.4.2-.6.1h-.2v.7l-1.8-.7.4.3 1.1 1.3-.2.1-.7.2c-.3 0-.5 0-.7-.2l-.8-.1-.3-1.8v-.1l-.6.2v.7c.7 1 1 1.8.8 2.5 1 2 2.8 3.6 4.8 4.2a9 9 0 004.7-4c-.1-.8 0-1.7.7-2.8l.2-.3v-.4l-.6-.2v.1c0 .6 0 1.2-.3 1.8l-.8.1-.7.2c-.4 0-.5 0-.7-.2h-.3l1.5-1.7-.5.2-1.3.6v-.7H54.1l.3-.7.4-.1c.4 0 .6 0 .8.2.2 0 .4.2.9.2.4 0 .7 0 .8-.2l.8-.2v.3c.2-.4.3-.7.6-1V82c-.2-.3-.3-.6-.3-1h.3zm-2.2-2.6c.7 0 1.3.6 1.3 1.3 0 .7-.6 1.3-1.3 1.3-.6 0-1.2-.6-1.2-1.3 0-.7.6-1.3 1.2-1.3zm-4.4.4c.2.4.6.6 1 .6a1 1 0 001-.6c.3.3.4.5.4.9 0 .7-.6 1.3-1.3 1.3-.8 0-1.4-.6-1.4-1.3 0-.4 0-.6.3-.9zm-2.4-.4c.7 0 1.3.6 1.3 1.3 0 .7-.6 1.3-1.3 1.3-.7 0-1.3-.6-1.3-1.3 0-.7.5-1.3 1.3-1.3zm1.8 4.2c-.5 0-.7.1-1 .3 0 0-.3.2-.7.2l-.8-.2c-.2 0-.4-.3-.8-.3h-.1v-.9h3.2l.2.5.2.4h-.2zm.5.2l.5.4.5.6c-.3-.2-.5-.2-.7-.2l-.3-.8zm-.6 1.5v-.2h.6c.2-.2.6-.3 1 0v2c-.4-.2-.8-.1-1.1 0h-.5v-1.8zm-1 .1l.7.4v.5l-.8-.9zM51 86v.5l-.8.3.8-.8zm-2.6-.3c.4 0 .5.1.7.2l.8.2.8-.2-1.4 1.7 1.7-.8v.3h1.3l-.4 1h-.1c-.3 0-.5 0-.7.2l-.6.2c-.3 0-.4 0-.6-.2a8.6 8.6 0 01-1.5-2.6zm4.6 1.8l-.9.8-.2.2v-.2l.6-1.3h.2l.2.2.4-.2h.1l.6 1.3v.2l-.2-.2-.8-.8zm.6.8c-.2.1-.2.2-.5.2s-.4 0-.5-.2l.5-.4.5.4zm-.6 2.2c-1-.4-2-1-2.8-1.8h.2c.4 0 .5-.1.7-.3l.5-.1-.1.6-.3.6 1.1-1h.1c.2.1.3.3.7.3.3 0 .5-.1.7-.3l1.1 1-.5-1.2.5.2c.2.1.4.3.7.3h.2c-.8.7-1.8 1.3-2.8 1.7zm2-5.6l.8-.4-.8 1v-.6zm0 1l.8 1-.8-.4v-.6zm0 1v-.2l1.8.9-1.5-1.8h.1c.2.2.5.3.8.3l.8-.2c.2-.1.3-.2.7-.2-.4 1-.9 1.9-1.5 2.6l-.7.1-.6-.1c-.2-.1-.3-.3-.7-.3l-.5-1h1.3zm-.3-.2h-1.5v.1l-.1.1v-.2h-1.6v-.2l.6-.1c.4 0 .6-.3 1 0h.2c.3-.3.7-.2 1 0 0 0 .3.2.6 0v.3h-.2zm-.7-2.6c.2 0 .4.2.6 0v2.1h-.5c-.2-.1-.6-.3-1 0v-2c.4-.3.7-.3 1 0zm.1-1.2l-.3.9h-.7l.5-.4.5-.5s.1 0 0 0zm.2 0zm-.9.3l-.3.3-.4-.3-1.4-1.3H55l-.4.4-1 .9zm4.6-.5c-.4 0-.7.1-.8.3l-.8.2-.8-.2c-.2 0-.4-.3-.9-.3h-.2l.4-.9h3.1v1zM75.4 74.6h-2.5v17.3h2.5V74.6zM90.2 78.3a6 6 0 00-4.1-1.8c-1.6 0-2.8.9-2.8 2 0 3.4 7.6 3.3 7.6 8.8C91 90 89 92 86 92c-1.9 0-3.4-.5-5-1.6v-3.2c1.4 1.6 3 2.6 4.7 2.6 2 0 2.9-1.2 2.9-2.2 0-3.6-7.6-4-7.6-8.8 0-2.8 2-4.6 5.4-4.6 1.3 0 2.6.5 3.8 1.2v3zM98.8 89.6h8v2.2H96.1V74.6h2.6v15zM112.7 74.6h-2.5v17.3h2.5V74.6zM134.8 91.8h-2.2L121 78.5v13.3h-2.4V74.6h2l12 13.3V74.6h2.3v17.2zM155.3 90.6c-2.3 1-4.2 1.5-6.6 1.5-5.4 0-9.3-3.8-9.3-8.9 0-5 4-9 9.4-9 2 0 3.4.4 6.2 1.5v2.5c-2-1-4.2-1.7-6.3-1.7a6.6 6.6 0 00-6.7 6.7c0 3.9 2.9 6.6 7 6.6 1.4 0 2.6-.4 3.8-.7v-3.6h-3.3v-2.2h5.8v7.3zM173.5 76.8h-6.1v15h-2.6v-15h-6v-2.2h14.7v2.2zM177.3 83.2c0-3.9 3-6.7 6.8-6.7 4 0 6.8 2.8 6.8 6.7 0 3.8-3 6.6-6.8 6.6a6.5 6.5 0 01-6.8-6.6zm-2.6 0c0 4.6 3.6 8.9 9.4 8.9 6 0 9.5-4.3 9.5-9 0-4.8-3.6-8.9-9.5-8.9-5.7.1-9.4 4.2-9.4 9zM214.2 91.8H212l-11.7-13.3v13.3h-2.4V74.6h2l12 13.3V74.6h2.3v17.2z" fill="#000"/></svg>
