<svg width="256" height="166" fill="none" xmlns="http://www.w3.org/2000/svg"><path opacity=".1" fill="#95BCD1" d="M0 0h256v166H0z"/><path fill-rule="evenodd" clip-rule="evenodd" d="M100.8 110.5l-9-21 1.8-.9 4.1-1.7c2-.7 4-1.8 6-2.2 3.6-.9 6.9.3 8.6 3.7a9 9 0 011 3c.1 2-.5 3.7-1.7 5.3l-.8.8 4.1 2.6c1.4 1 2.8 1.8 4.3 2.7l-5.5 2.3-3.6-2.3-3.6-2.3c-.1-.1-.4-.2-.5-.1l-3.4 1.4 2.9 6.7-4.8 2zm0-12.8l4.6-2 1.2-.6a3 3 0 001.4-3.4 3 3 0 00-3.8-2.3c-1.7.4-3.2 1.2-4.7 1.8l-1.2.5 2.6 6zM133.5 76.8l5-.8.5 2.7.8 4.6 1 5.3c.2 1.6.3 3.2 0 4.8a7.8 7.8 0 01-3.6 5.4 12.9 12.9 0 01-9 1.8c-2.2-.3-4-1.5-5.3-3.3-1-1.5-1.6-3.1-1.9-4.8l-1.2-7a963 963 0 01-1-5.3v-.9l5-.8.1.9 1 6.2 1 5.4c.2 1.1.5 2.3 1.3 3.3s1.9 1.7 3.2 1.7a6 6 0 003.5-.9 4 4 0 001.9-2.7c.2-1 0-2 0-2.9l-1.2-6.4-.9-5.2-.2-1.1zM125.5 61.8l5.9 5.6c-.4.3-1 .3-1.4.4-1 .2-2 .3-2.9.6-.3 0-.6 0-.8-.3l-3.7-3.5-1-1c-.2 0-.4-.2-.5-.1l-3 .6 1.3 6-4.2.8-.2-.7-.6-3-1.2-5.5-1.1-5.4-1-4 1.4-.3 4.4-1 3.8-.7c2.2-.3 4.2 0 5.8 1.6a6 6 0 011.8 3.5v2.3c-.2 1.4-1 2.6-2 3.5l-.8.6zm-8.2-1.4l3.6-.7c.7-.2 1.4-.4 2-.8 1.7-1 1.3-3.4.3-4.2-.8-.6-1.7-.6-2.6-.5l-3.4.7-1 .3 1 5.2zM175.6 87.7L183 80l5.6 1.2c0 .2-.2.3-.3.4l-8.2 8.2-2.6 2.6c-.3.2-.5.6-.6 1l-1.2 5.6-.5 2.3-.1.3-5-1 .4-1.8.9-3.9.6-2.7v-.7l-2.5-6.5-1.6-4.5-1.2-3.1-.3-1 5.8 1.2 3.4 10.1zM77 104l-5.9 3.8-2.6-3.8 15.8-10.7c1 1.3 1.8 2.6 2.7 4l-5.8 3.8 10.3 15-4.3 2.9L77 104zM148 50.6l-2.2 3.1c-1-.6-2-1.2-3-1.5-1-.3-2-.4-3-.2-1 .3-1.5.9-1.4 1.9 0 .7.6 1 1.1 1.2l1.3.5 3.5 1c1 .3 1.9.8 2.7 1.4 1.1 1 1.6 2.2 1.6 3.5 0 1.4-.2 2.7-1.1 3.9-.7.8-1.6 1.4-2.6 1.8a12.1 12.1 0 01-9.3-1c-.8-.4-1.5-1-2.3-1.5l2.5-3 1.6 1c1.6 1 3.2 1.4 5 1.2.8 0 1.5-.3 1.8-1 .4-1 0-1.7-.8-2.1-.7-.4-1.5-.6-2.3-.9l-3.4-1c-1-.4-2-1-2.7-1.9l-.5-1a6.2 6.2 0 010-4.2c.7-1.7 2-2.7 3.6-3.2.6-.2 1.2-.4 1.8-.4a12 12 0 014.8.5c1 .4 2 1 3 1.6l.3.3zM153 94.1l11.5.6-.2 4.6-16.6-.8 1.1-22.9c1.7.2 3.4 0 5.1.3L153 94zM87 63l1.3-.8L91 61h.7l6.8 4.4.4.2.3-4.5.4-4.4 4.3-2v1l-.7 6-.6 5.7c-.2.7.2 1.2.4 1.8l2.2 4.3.7 1.4-3.7 1.9-.7-1.3-2.5-5a2 2 0 00-.8-.7l-5.8-3.5-5.5-3.3z" fill="#111"/></svg>
