<svg width="138" height="47" viewBox="0 0 138 47" fill="none" xmlns="http://www.w3.org/2000/svg">
<path d="M13.47 46.7539C13.436 46.58 13.3124 45.5914 13.1954 44.5569C12.6111 39.3895 11.1659 34.9721 8.95034 31.5818C8.05354 30.2095 6.11836 28.1175 4.79043 27.0848C3.67282 26.2157 2.13062 25.3028 0.911487 24.7888C0.431285 24.5863 0.0218465 24.4103 0.00162511 24.3978C-0.0532225 24.3638 1.29795 10.1499 1.37818 9.91699C1.51271 9.52637 1.65394 10.2226 1.81157 12.0535C2.01541 14.4212 2.51616 17.4304 3.07671 19.6561C3.3252 20.6428 3.55773 21.4798 3.59344 21.516C3.62914 21.5523 3.97836 21.4795 4.36946 21.3544L5.08055 21.1268L5.41548 19.6947C6.28188 15.9903 6.84309 12.0457 7.40979 5.67737C7.45717 5.14492 7.54273 4.70927 7.59993 4.70927C7.65711 4.70927 7.74353 5.32518 7.79195 6.07796C7.92649 8.16961 8.24476 11.6715 8.46245 13.4556C8.75183 15.8272 9.44893 19.9804 9.58121 20.121C9.65102 20.1953 9.99414 20.1953 10.4526 20.121L11.2087 19.9986L11.372 19.1974C12.0308 15.9641 13.15 5.83942 13.4201 0.667939C13.4384 0.317975 13.5126 0.0175319 13.5849 0.00028286C13.6645 -0.0186934 13.7795 0.918584 13.8762 2.37248C14.0612 5.15634 14.4722 9.56121 14.8419 12.7211C15.1546 15.3944 15.8664 19.8249 16.0065 19.9709C16.0624 20.0291 16.4572 20.0892 16.8838 20.1044L17.6595 20.1321L17.9492 18.5297C18.5276 15.3304 19.1082 10.2699 19.3779 6.07794C19.4263 5.32516 19.5187 4.70925 19.5832 4.70925C19.6478 4.70925 19.7006 4.78973 19.7006 4.8881C19.7006 5.27313 20.1032 9.40844 20.3007 11.052C20.705 14.4166 21.1526 17.0698 21.7586 19.6947L22.0893 21.1268L22.8003 21.3543C23.1914 21.4795 23.5422 21.5506 23.5799 21.5124C23.6176 21.4741 23.8532 20.6372 24.1035 19.6525C24.6557 17.4798 25.1648 14.3964 25.3642 12.0163C25.5144 10.2236 25.6566 9.52561 25.7919 9.91697C25.8752 10.1579 27.2279 24.3579 27.1711 24.3948C27.1493 24.4089 26.7385 24.5862 26.2583 24.7887C24.0869 25.7044 22.1291 27.0964 20.2734 29.0439C16.8183 32.6701 14.6919 37.9732 13.9367 44.8475C13.7155 46.8614 13.5908 47.3707 13.47 46.7539V46.7539ZM51.2446 43.7114C50.091 43.3323 49.5321 42.5425 49.538 41.2997C49.5399 40.8651 49.6283 40.3411 49.7341 40.1353C49.9894 39.639 50.5855 39.0775 51.0437 38.9017C51.4552 38.7438 52.4595 38.7151 53.0901 38.8431C53.4752 38.9213 53.5011 38.9633 53.5011 39.5107C53.5011 39.8321 53.4806 40.0949 53.4556 40.0949C53.4305 40.0949 53.2179 39.9976 52.983 39.8787C52.4575 39.6125 51.4988 39.6928 51.1273 40.0341C50.4154 40.6883 50.5145 42.1423 51.3053 42.6448C51.7334 42.9168 52.4814 42.9196 52.7468 42.6497C52.9612 42.4321 52.7117 41.6911 52.3709 41.5334C51.8268 41.2817 52.0205 41.1628 52.9751 41.1628H53.8957V42.3011C53.8957 43.3911 53.8818 43.4448 53.5684 43.5658C53.0834 43.753 51.6457 43.8428 51.2446 43.711L51.2446 43.7114ZM91.9224 42.4193L90.4581 41.0046V42.1443C90.4581 42.7711 90.5173 43.3211 90.5896 43.3665C90.9219 43.575 90.6503 43.7004 89.8662 43.7004C89.396 43.7004 89.0114 43.6661 89.0114 43.624C89.0114 43.582 89.1001 43.4575 89.2086 43.3474C89.3681 43.1855 89.4059 42.7241 89.4059 40.9422C89.4059 39.5886 89.4547 38.7546 89.5324 38.7819C89.602 38.8064 90.3122 39.4466 91.1107 40.2047L92.5624 41.583V40.5349C92.5624 39.8023 92.5007 39.3973 92.3577 39.1899L92.1529 38.8932H93.0415C93.7327 38.8932 93.8951 38.9287 93.7724 39.0534C93.6618 39.1657 93.6145 39.905 93.6145 41.5237C93.6145 42.7943 93.5633 43.8338 93.5007 43.8338C93.438 43.8338 92.7278 43.1972 91.9224 42.4192V42.4193ZM97.2528 43.6782C95.2866 43.1197 95.0749 39.9574 96.9422 39.0396C97.518 38.7566 98.4409 38.6782 99.2534 38.8432C99.6386 38.9214 99.6644 38.9633 99.6644 39.5108C99.6644 39.8321 99.6439 40.095 99.6188 40.095C99.5938 40.095 99.3811 39.9977 99.1463 39.8788C98.5279 39.5655 97.5925 39.6961 97.2086 40.1492C96.2685 41.2588 97.0929 43.093 98.4182 42.8406C98.8489 42.7585 98.8753 42.7229 98.8753 42.2226C98.8753 41.7858 98.8169 41.6647 98.5465 41.5396C97.9901 41.2822 98.1771 41.1633 99.1383 41.1633H100.059V42.2769C100.059 43.3329 100.042 43.3982 99.7325 43.5414C99.2507 43.7643 97.8316 43.8426 97.2528 43.6782H97.2528ZM29.17 43.5747C29.17 43.5056 29.2291 43.4119 29.3015 43.3665C29.3782 43.3184 29.433 42.564 29.433 41.556V39.828H28.999C28.7603 39.828 28.494 39.9 28.4072 39.9882C28.2844 40.1128 28.2497 40.0757 28.2511 39.8213C28.2522 39.6413 28.2886 39.3589 28.3322 39.1937C28.4093 38.9018 28.46 38.8932 30.106 38.8932H31.8004V39.5208C31.8004 40.009 31.7653 40.1128 31.6425 39.9882C31.5557 39.9001 31.2894 39.828 31.0507 39.828H30.6167V41.4674C30.6167 42.7351 30.6631 43.1741 30.8214 43.4036L31.0262 43.7004H30.0981C29.5876 43.7004 29.17 43.6438 29.17 43.5747H29.17ZM33.963 43.4036C34.1238 43.1704 34.1677 42.7189 34.1677 41.2968C34.1677 39.8747 34.1238 39.4232 33.963 39.19L33.7582 38.8932H34.7024C35.4949 38.8932 35.6222 38.9231 35.4945 39.0794C35.4108 39.1818 35.3065 39.5724 35.2628 39.9473L35.1832 40.6291H36.1221H37.0611V40.0054C37.0611 39.6124 36.9806 39.2913 36.8434 39.1374C36.6344 38.903 36.6643 38.8932 37.5931 38.8932C38.3455 38.8932 38.5254 38.9288 38.4026 39.0535C38.2033 39.2559 38.1789 43.2427 38.3763 43.3665C38.7159 43.5796 38.4278 43.7004 37.5797 43.7004H36.6516L36.8563 43.4036C36.9789 43.226 37.0611 42.8238 37.0611 42.4021V41.6974H36.1217H35.1823L35.2681 42.532C35.3152 42.991 35.4125 43.3866 35.4841 43.411C35.5557 43.4355 35.6143 43.5106 35.6143 43.578C35.6143 43.6453 35.1967 43.7004 34.6862 43.7004H33.7581L33.963 43.4036ZM40.6122 43.5747C40.6122 43.5056 40.6714 43.4119 40.7437 43.3665C40.941 43.2427 40.9167 39.2559 40.7174 39.0535C40.5946 38.9288 40.9161 38.8932 42.1641 38.8932H43.7686V39.4862V40.0792L43.4069 39.8876C43.208 39.7823 42.8233 39.6957 42.5521 39.6953C42.0622 39.6945 42.0589 39.6982 42.0589 40.242V40.7896L42.6178 40.732C42.9252 40.7004 43.2803 40.6278 43.4069 40.5707C43.6094 40.4795 43.6371 40.5489 43.6371 41.1489C43.6371 41.7832 43.4999 42.012 43.3083 41.6973C43.2636 41.6239 42.9642 41.5638 42.6429 41.5638H42.0589V42.1647V42.7656H42.739C43.1873 42.7656 43.5011 42.6903 43.6596 42.5446C43.8884 42.3344 43.9001 42.3469 43.9001 42.8007C43.9001 43.7028 43.905 43.7003 42.1763 43.7003C41.2866 43.7003 40.6121 43.6461 40.6121 43.5746L40.6122 43.5747ZM55.5015 43.6003C55.5287 43.5452 56.0761 42.4035 56.718 41.0632C57.3599 39.7229 57.9253 38.6262 57.9745 38.6262C58.0404 38.6262 59.9738 42.7208 60.3182 43.5898C60.3423 43.6506 59.9956 43.7004 59.5479 43.7004C58.8471 43.7004 58.7453 43.6699 58.8165 43.4813C58.862 43.3608 58.8644 43.1505 58.8214 43.0139C58.7564 42.806 58.607 42.7657 57.9003 42.7657C57.1155 42.7657 57.0512 42.7884 56.9762 43.0919C56.9318 43.2714 56.9342 43.4817 56.9811 43.5593C57.0378 43.6526 56.7931 43.7004 56.2591 43.7004C55.8148 43.7004 55.4735 43.6554 55.5008 43.6003H55.5015ZM58.2582 41.3538C58.1282 41.0179 57.9711 40.7437 57.9091 40.7443C57.8471 40.7451 57.6938 41.0197 57.5685 41.355L57.3406 41.9645H57.9175H58.4944L58.2582 41.3538ZM62.4444 43.578C62.4444 43.5107 62.5184 43.4306 62.6088 43.4C62.726 43.3604 62.7865 42.8395 62.8193 41.5862L62.8654 39.828H62.4182C62.1722 39.828 61.9009 39.8991 61.8153 39.986C61.5763 40.2287 61.5065 40.0515 61.602 39.4452L61.6889 38.8933H63.3645H65.0402L65.1147 39.4583C65.1977 40.0863 65.1466 40.2214 64.9147 39.986C64.8291 39.8992 64.5638 39.828 64.3251 39.828H63.8911V41.4876C63.8911 42.7848 63.9341 43.191 64.0883 43.3475C64.1968 43.4577 64.2856 43.5822 64.2856 43.6241C64.2856 43.6661 63.8713 43.7005 63.365 43.7005C62.8586 43.7005 62.4443 43.6455 62.4443 43.5781L62.4444 43.578ZM67.0476 43.578C67.0476 43.5107 67.1216 43.4306 67.212 43.4C67.4585 43.3166 67.4439 39.4179 67.1959 39.1143C67.0308 38.9122 67.096 38.8933 67.9595 38.8933H68.9037L68.699 39.1901C68.5864 39.3533 68.4943 39.7439 68.4943 40.058V40.6292H69.4149H70.3355L70.3348 40.1285C70.3342 39.8531 70.249 39.4625 70.1453 39.2605L69.9566 38.8933H70.8725H71.7884L71.578 39.2193C71.4043 39.4884 71.3751 39.8767 71.4105 41.445C71.4415 42.8141 71.4994 43.3602 71.6179 43.4002C72.0629 43.5502 71.6845 43.7004 70.8616 43.7004C70.3553 43.7004 69.941 43.6454 69.941 43.578C69.941 43.5107 70.0104 43.4321 70.0952 43.4034C70.1817 43.3741 70.2752 42.9885 70.3083 42.5244L70.3672 41.6975H69.4307H68.4943V42.4022C68.4943 42.8239 68.5765 43.2261 68.699 43.4036L68.9038 43.7004H67.9757C67.4652 43.7004 67.0476 43.6454 67.0476 43.578H67.0476ZM73.9449 43.4036C74.2532 42.9568 74.2427 39.486 73.932 39.1375C73.7222 38.9021 73.7746 38.8933 75.3787 38.8933H77.0431V39.484V40.0746L76.6516 39.8763C76.4362 39.7672 76.0367 39.6967 75.7638 39.7196C75.2922 39.7592 75.2676 39.7843 75.2676 40.2286C75.2676 40.6713 75.2933 40.6981 75.7552 40.7371C76.0234 40.7597 76.3637 40.7125 76.5114 40.6322C76.7655 40.4942 76.7801 40.523 76.7801 41.1633C76.7801 41.8037 76.7655 41.8325 76.5114 41.6944C76.3637 41.6141 76.0239 41.567 75.7563 41.5896C75.2323 41.6338 75.1102 41.8429 75.2584 42.4424C75.3301 42.7321 75.4088 42.7657 76.016 42.7657C76.4745 42.7657 76.7777 42.6902 76.9539 42.532C77.2093 42.3027 77.2126 42.3083 77.1301 42.8325C77.0838 43.1262 77.0453 43.4417 77.0445 43.5335C77.0435 43.6581 76.6243 43.7004 75.3915 43.7004H73.7401L73.9449 43.4036ZM79.2789 43.578C79.2789 43.5107 79.3529 43.4306 79.4433 43.4C79.6979 43.3138 79.6743 39.4164 79.4173 39.102C79.2377 38.8822 79.3148 38.8716 80.7764 38.9145L82.326 38.9601L82.7095 39.3961C83.2225 39.9795 83.2387 40.7119 82.7497 41.2084L82.4064 41.557L82.7675 42.1947C82.9661 42.5455 83.2715 43.0278 83.4463 43.2665L83.764 43.7004H83.1884C82.7595 43.7004 82.5438 43.6239 82.3418 43.4C81.914 42.9257 80.867 41.1979 80.954 41.1096C80.9972 41.0657 81.1588 41.0298 81.3131 41.0298C81.6758 41.0298 81.9093 40.7869 81.9093 40.4098C81.9093 40.0611 81.4562 39.6945 81.0252 39.6945C80.7291 39.6945 80.7257 39.7143 80.7257 41.4007C80.7257 42.7288 80.7711 43.1726 80.9304 43.4036L81.1352 43.7004H80.2071C79.6966 43.7004 79.279 43.6454 79.279 43.578H79.2789ZM85.4603 43.578C85.4603 43.5107 85.5343 43.4307 85.6247 43.4002C85.8886 43.3112 85.9338 39.8159 85.6779 39.295L85.4805 38.8933H86.3941H87.3077L87.0973 39.2193C86.9236 39.4884 86.8944 39.8767 86.9299 41.445C86.9608 42.8141 87.0187 43.3602 87.1372 43.4002C87.5822 43.5502 87.204 43.7004 86.381 43.7004C85.8746 43.7004 85.4604 43.6454 85.4604 43.578H85.4603ZM103.396 38.259C102.876 36.6156 101.786 35.3197 100.369 34.6612C99.3766 34.1999 98.9047 34.161 97.2313 34.4028C94.2545 34.833 92.5552 34.8 90.5284 34.2727C89.4025 33.9798 87.5042 33.0317 86.5783 32.2999C82.814 29.3249 82.0122 24.1355 84.7213 20.2811C86.1165 18.296 88.5359 16.7405 91.2273 16.0984C92.4528 15.8059 102.166 15.6716 102.158 15.9472C102.15 16.2194 99.5779 21.8528 99.4405 21.8994C99.3744 21.9217 99.186 21.6108 99.0217 21.2084C98.1528 19.08 96.1813 17.8074 94.3506 18.1933C91.7603 18.7393 90.3184 21.6155 90.5001 25.874C90.6044 28.3161 91.0875 29.8572 92.1088 31.005C93.1774 32.2058 94.5565 32.6648 95.9821 32.2939C96.4417 32.1744 96.9007 32.0067 97.0021 31.9212C97.1504 31.7962 97.178 31.3195 97.1432 29.4876C97.0921 26.7997 96.9981 26.5362 95.8443 25.8446C95.4498 25.6081 95.0382 25.3562 94.9297 25.2849C94.7999 25.1996 96.2507 25.1526 99.1713 25.1474L103.61 25.1395V31.8161C103.61 35.4882 103.579 38.4926 103.54 38.4926C103.502 38.4926 103.437 38.3875 103.396 38.2589V38.259ZM42.1479 33.1226C41.5246 31.6329 40.3375 28.7917 39.5099 26.8087C38.6823 24.8258 37.9351 23.2034 37.8493 23.2034C37.5925 23.2034 34.3731 30.4664 34.3852 31.0186C34.4058 31.9609 34.8173 32.5085 36.7323 34.1418L37.1269 34.4783L32.4251 34.4822C29.8391 34.4842 27.7233 34.4715 27.7235 34.453C27.7236 34.4346 28.106 34.0081 28.5733 33.505C29.0407 33.0019 29.6907 32.1907 30.0178 31.7023C30.3516 31.2041 31.8015 28.1817 33.3213 24.8161C35.6189 19.7281 36.0178 18.7526 35.9503 18.3871C35.8418 17.8001 34.9725 17.0199 33.8753 16.5249C32.3415 15.8328 32.5218 15.7918 37.094 15.7941C39.3545 15.7951 41.2674 15.8403 41.3448 15.8943C41.4222 15.9483 42.2616 17.8551 43.21 20.1318C44.1584 22.4085 44.9781 24.261 45.0315 24.2483C45.2348 24.2003 47.7089 18.5205 47.7115 18.0959C47.7145 17.6055 47.0803 16.7949 46.3206 16.3182C46.0744 16.1637 45.873 15.9822 45.873 15.9147C45.873 15.8424 47.8493 15.7921 50.6844 15.7921C53.6304 15.7921 55.4788 15.8407 55.452 15.9176C55.4279 15.9866 55.201 16.1831 54.9478 16.3542C54.3322 16.7703 53.9971 17.4477 54.0699 18.1289C54.1467 18.8483 59.3035 31.1661 59.895 32.0432C60.1527 32.4253 60.7186 33.1313 61.1526 33.6122L61.9416 34.4864H56.735C53.8713 34.4864 51.5287 34.4414 51.5292 34.3863C51.5297 34.3313 51.7345 34.1448 51.9842 33.9721C52.6192 33.5331 53.0233 32.6386 52.9472 31.8404C52.8745 31.0785 49.5846 23.1042 49.3726 23.1759C49.2943 23.2024 47.9561 26.0388 46.399 29.479C44.8419 32.9192 43.5034 35.7557 43.4246 35.7824C43.3456 35.8091 42.772 34.6139 42.1479 33.1223V33.1226ZM65.7676 34.8364C64.3403 33.7696 62.2934 31.3825 61.632 30.0135L61.3739 29.4793L64.0272 23.6147L66.6805 17.7501L66.4718 17.3058C66.357 17.0614 66.0276 16.696 65.7397 16.4938C65.4518 16.2916 65.2141 16.0511 65.2113 15.9593C65.2074 15.8281 66.5232 15.7924 71.3658 15.7924C74.7535 15.7924 77.5631 15.8308 77.6093 15.8777C77.6555 15.9247 77.4435 16.1882 77.1381 16.4633C76.186 17.3211 76.1687 17.2548 79.3182 24.7874C80.8187 28.3759 82.2487 31.6216 82.4961 31.9999C82.7434 32.3782 83.2748 33.0569 83.677 33.5081C84.0791 33.9593 84.4082 34.3641 84.4082 34.4076C84.4082 34.4511 82.0704 34.4868 79.2132 34.4868C76.3559 34.4868 74.0181 34.4493 74.0181 34.4035C74.0181 34.3577 74.2803 34.0859 74.6008 33.7995C75.2697 33.2017 75.5289 32.5597 75.4217 31.7661C75.3406 31.1656 70.3011 18.9633 70.1071 18.8976C70.0416 18.8755 69.2363 20.5218 68.3174 22.5562C67.0664 25.326 66.6889 26.2821 66.8143 26.3629C66.9064 26.4223 68.1951 26.4736 69.678 26.4769L72.3741 26.4828L71.2562 27.0436C68.5653 28.3936 67.0356 30.8772 66.8207 34.2455C66.7794 34.8923 66.7017 35.4215 66.648 35.4215C66.5944 35.4215 66.1982 35.1582 65.7676 34.8364V34.8364ZM126.922 34.6202C122.498 33.9889 118.953 31.1137 117.987 27.3728C117.707 26.2886 117.707 24.2576 117.987 23.1734C118.832 19.9009 121.678 17.2452 125.434 16.2234C126.654 15.8914 126.838 15.8795 131.596 15.8244C134.293 15.7932 136.584 15.8003 136.686 15.8401C136.828 15.8956 136.556 16.6107 135.528 18.8799C134.789 20.5119 134.125 21.8672 134.053 21.8916C133.981 21.916 133.816 21.6339 133.687 21.2647C133.392 20.4221 132.526 19.3266 131.716 18.7726C130.115 17.6774 128.08 17.9891 126.698 19.5412C125.598 20.778 125.126 22.4981 125.126 25.2731C125.126 28.9059 126.049 31.0498 128.039 32.0382C129.395 32.7115 131.341 32.4744 133.69 31.3498C134.747 30.8439 136.431 29.7589 137.573 28.849C138.131 28.4039 138.143 28.6524 137.605 29.5511C136.317 31.7029 133.492 33.7657 130.959 34.4027C129.884 34.6732 128.003 34.7745 126.922 34.6202V34.6202ZM106.503 34.3994C106.503 34.3513 106.737 34.1095 107.022 33.8618C107.306 33.6142 107.706 33.0677 107.909 32.6473L108.279 31.8829V25.1396V18.3962L107.929 17.7286C107.736 17.3614 107.336 16.8234 107.041 16.5331C106.745 16.2428 106.503 15.9574 106.503 15.8988C106.503 15.8403 108.664 15.7924 111.304 15.7924C113.944 15.7924 116.104 15.841 116.104 15.9005C116.104 15.9599 115.811 16.3175 115.453 16.6952C114.938 17.237 114.743 17.5757 114.526 18.3007C114.261 19.1856 114.252 19.4507 114.29 25.4845L114.329 31.7494L114.678 32.5045C114.869 32.9199 115.269 33.4987 115.565 33.7908C115.862 34.083 116.104 34.359 116.104 34.4044C116.104 34.4496 113.944 34.4867 111.304 34.4867C108.664 34.4867 106.504 34.4473 106.504 34.3994L106.503 34.3994Z" fill="black"/>
</svg>
