<svg xmlns="http://www.w3.org/2000/svg" fill="none" viewBox="0 0 256 166">
  <path fill="#95BCD1" d="M0 0h256v166H0z" opacity=".1"/>
  <path fill="#111" stroke="#111" d="M185.6 73h.1v.2a1.3 1.3 0 00.9 1.3 1.3 1.3 0 00.8 0v.2c0 .5-.2 1-.6 1.3a1.8 1.8 0 01-2.5 0 1.8 1.8 0 010-2.5c.4-.4.8-.6 1.3-.6zM115.4 90h0c.5-.4.9-1 1-1.6.2-.2.2-.6.3-1V79h2.6v5.6c0 2.6-.2 4.2-.5 5h0c-.4 1-1.1 1.9-2 2.4a6 6 0 01-3.2.9h0c-1.5 0-2.7-.4-3.6-1a5.1 5.1 0 01-1.8-2.7h0c-.3-.8-.4-2.3-.4-4.7V79h2.6v6.5c0 1 0 2 .3 3h0a3 3 0 001 1.4h0a3 3 0 001.9.6 3 3 0 001.8-.5zM123.2 79h.5v-5.3h2.6V79h2.1v2.1h-2.1v11.4h-2.6V81h-1.9v-2h1.4zM130.9 73.4h2.6v19h-2.6v-19zM146.6 80.4l.9 1V79h2.5v13.4h-2.6v-2.3l-.8.9c-.6.6-1.2 1-2 1.4-.6.2-1.3.4-2 .4h0a5.8 5.8 0 01-4.4-2h0a7.2 7.2 0 01-2-5.1h0v0c0-2.2.7-3.9 1.9-5.2h0a5.7 5.7 0 014.4-2h0a5.4 5.4 0 014 1.8zm-.2 8.8l.1-.2v0a4.9 4.9 0 001.1-3.3 4.8 4.8 0 00-1.2-3.4h0a4.2 4.2 0 00-3.2-1.3 4 4 0 00-3.1 1.4h0c-.9.9-1.3 2.1-1.3 3.3 0 1.3.4 2.5 1.3 3.5a4.1 4.1 0 003.1 1.3 4.1 4.1 0 003.2-1.3zM155.7 87.2v5.3H153V79h2.6v2.1l.8-.7a8 8 0 012-1.4c.6-.2 1.3-.4 1.9-.4v-.5.5a4.3 4.3 0 013.2 1.4h0c.7.7 1.1 1.8 1.1 3.4v9h-2.5v-5.8s0 0 0 0 0 0 0 0c0-1.7 0-2.9-.3-3.5-.1-.6-.4-1.2-1-1.6h0c-.4-.4-1-.6-1.6-.5a3 3 0 00-2.3.8h0c-.6.7-1 1.5-1.2 2.3h0c-.1 1-.2 2-.1 3zM177.8 80.4l.8 1v-8h2.6v19h-2.6v-2.2l-.8.9c-.6.6-1.2 1-2 1.4-.6.2-1.3.4-2 .4h0a5.7 5.7 0 01-4.4-2h0a7.1 7.1 0 01-2-5.1h0c0-2.2.7-3.9 1.9-5.2h0a5.7 5.7 0 014.4-2h0a5.4 5.4 0 014 1.8zm-.2 8.8V89v0c.9-.9 1.3-2 1.2-3.3a4.8 4.8 0 00-1.2-3.4h0a4.2 4.2 0 00-3.2-1.3 4 4 0 00-3.1 1.4h0c-.9.9-1.3 2.1-1.3 3.3 0 1.3.4 2.5 1.3 3.5a4.1 4.1 0 003.1 1.3 4.1 4.1 0 003.2-1.3zM195.3 84.7h0c1.4.6 2.3 1.3 2.7 1.9a4 4 0 01-.6 5c-.8.8-1.9 1.3-3.3 1.3h0a5.4 5.4 0 01-4.4-2l1.6-1.7 1.2.9c.5.3 1.1.5 1.7.5h0c.5 0 1-.1 1.5-.4a1.5 1.5 0 00.6-1.2h0v0c0-.5-.2-.9-.5-1.2l-1.3-1h0l-1.2-.5s0 0 0 0c-2.2-1.2-3.2-2.5-3.2-4h0a3.4 3.4 0 011.1-2.6h0c.9-.7 2-1.1 3-1h0a5.2 5.2 0 014 1.8l-1.5 1.6c-.8-.7-1.6-1.2-2.4-1.2a2 2 0 00-1.3.4 1.3 1.3 0 00-.5.9 1.3 1.3 0 00.3 1h0c.4.4.8.6 1.2.8l1.3.7zM212 80h0c.7.7 1.1 1.8 1.1 3.4v9.1h-2.5v-5.8c0-1.2 0-2.4-.3-3.6h0c-.1-.6-.5-1.2-1-1.6h0c-.5-.4-1-.6-1.7-.5-.8 0-1.6.3-2.2.8h0c-.6.7-1 1.4-1.2 2.3h0c-.2 1-.2 2-.2 3v5.4h-2.5v-19h2.5V81l.9-.7c.5-.5 1.2-1 2-1.3.5-.2 1.2-.4 1.9-.4v0h0A4.3 4.3 0 01212 80h0zM184.4 79h2.6v13.5h-2.6V79zM92.6 89.3a7 7 0 002.6.6v0h.5a7 7 0 005.8-3.2 7.2 7.2 0 00.6-6.7l-.4-.8-.5.6a1.8 1.8 0 01-1.3.7 1.8 1.8 0 01-1.4-.5 1.9 1.9 0 01-.5-1.4 2 2 0 01.6-1.4l.6-.5-.7-.3a7 7 0 00-8.4 2.1 7.2 7.2 0 002.5 10.8zm-2.5-14.7a9.7 9.7 0 0112.3 1.2A10 10 0 0199.3 92 9.6 9.6 0 0188.6 90a10 10 0 011.5-15.3z"/>
  <mask id="a" fill="#fff">
    <path d="M217 71.2a1.7 1.7 0 01-1 1.7 1.7 1.7 0 01-1.9-.4 1.7 1.7 0 01-.4-1.9 1.7 1.7 0 012.3-1 1.7 1.7 0 011 1.6zm-3 0a1.3 1.3 0 00.8 1.3h.5a1.2 1.2 0 001-.3 1.3 1.3 0 00.3-1 1.3 1.3 0 00-.4-1 1.3 1.3 0 00-2 .5l-.2.5zm1 .9h-.3v-1.7h1.2a.5.5 0 01.1.5v.2l-.3.2a.5.5 0 01.3.4l.1.4h-.4l-.1-.4c0-.2-.2-.3-.4-.3h-.2v.7zm0-1h.2c.2 0 .4 0 .4-.2s-.1-.3-.4-.3h-.2v.5z"/>
  </mask>
  <path fill="#111" d="M217 71.2a1.7 1.7 0 01-1 1.7 1.7 1.7 0 01-1.9-.4 1.7 1.7 0 01-.4-1.9 1.7 1.7 0 012.3-1 1.7 1.7 0 011 1.6zm-3 0a1.3 1.3 0 00.8 1.3h.5a1.2 1.2 0 001-.3 1.3 1.3 0 00.3-1 1.3 1.3 0 00-.4-1 1.3 1.3 0 00-2 .5l-.2.5zm1 .9h-.3v-1.7h1.2a.5.5 0 01.1.5v.2l-.3.2a.5.5 0 01.3.4l.1.4h-.4l-.1-.4c0-.2-.2-.3-.4-.3h-.2v.7zm0-1h.2c.2 0 .4 0 .4-.2s-.1-.3-.4-.3h-.2v.5z"/>
  <path fill="#111" d="M215.3 69.5v1-1zm-1.3 1.7l.3-1-1.3-.3v1.3h1zm1.3 1.4v-1 1zm1.3-1.4h-1 1zm-2.6 0l-.2 1 1.3.3v-1.3h-1zm1 .9v1h1v-1h-1zm-.3 0h-1v1h1v-1zm0-1.7l-.2-1-.8.2v.8h1zm.6 0v1-1zm.6 0l.6-.7h-.2l-.4.8zm.1.5h1-1zm-.3.4l-.2-1-.8.1v.9h1zm0 0h-1v.6l.6.3.4-1zm.3.4l1-.1h-1zm.1.4v1h1.6l-.7-1.4-.9.4zm-.4 0l-1 .4.4.6h.6v-1zm-.1-.4l-1 .1 1-.1zm-.6-.3v-1h-1v1h1zm0-.3h-1v1h1v-1zm.2-.5v1-1zm-.2 0l-.2-1-.8.3v.8h1zm1 .6l-.1.5 1.7 1c.3-.4.4-1 .4-1.5h-2zm-.1.5l-.3.2.8 1.9c.5-.3.9-.6 1.2-1l-1.7-1.1zm-.3.2c-.2 0-.3.1-.4 0l-.4 2c.5.1 1 0 1.6-.1l-.8-1.9zm-.4 0l-.4-.1-1.4 1.4c.4.4.9.7 1.4.7l.4-2zm-.4-.1a.7.7 0 01-.2-.4l-2 .4c.2.5.4 1 .8 1.4l1.4-1.4zm-.2-.4V71l-1.8-.8c-.2.5-.3 1-.1 1.6l2-.4zm0-.4l.3-.3-1.1-1.7c-.5.3-.8.7-1 1.2l1.9.8zm.3-.3l.4-.2v-2c-.5 0-1 .2-1.5.5l1.1 1.7zm.4-.2h.3l.7-1.8-1-.2v2zm.3 0l.2.2 1.4-1.4-.9-.6-.7 1.9zm.2.2l.1.3 1.9-.8-.6-.9-1.4 1.4zm.1.3l.1.2h2c0-.3 0-.7-.2-1l-1.9.8zm-2.9.2c0 .3 0 .6.2.9l1.8-.7v-.2h-2zm.2.9c0 .3.2.5.5.8l1.4-1.4v-.1l-2 .7zm.5.8l.7.5.8-1.9h-.1l-1.4 1.4zm.7.5l1 .2-.1-2h-.1l-.8 1.8zm.9.2c.3 0 .6 0 .9-.2l-.8-1.9-.1 2zm.9-.2l.7-.5-1.4-1.4.7 1.9zm.7-.5l.5-.8-1.8-.7 1.3 1.5zm.5-.8c.2-.3.2-.6.2-1l-2 .2 1.8.8zm.2-.8l-.1-1-2 .7s.1.1 0 .2h2zm-.1-1l-.5-.7-1.5 1.3v.1l2-.6zm-.5-.7l-.8-.6-.8 1.9h.1l1.5-1.3zm-.8-.6l-.9-.1v2h.1l.8-1.9zm-.9-.1l-.9.1.8 1.9h.1v-2zm-.9.1l-.7.6 1.4 1.3h.1l-.8-1.9zm-.7.6c-.3.2-.4.5-.5.8l1.9.6-1.4-1.4zm-.5.8l-.2.9 2-.1V71l-1.8-.6zm1-.1l-.4 1.9.5-2zm.8.8h-.3v2h.3v-2zm.7 1v-1.7h-2v1.7h2zm-.9-.7h.5v-2h-.8l.3 2zm.6 0l1-1.8a2 2 0 00-1.2-.2l.2 2zm-.2-.2l-.1-.1 1.8-.8c0-.2-.2-.4-.4-.6l-1.3 1.5zm-.1-.1v-.3l2 .1-.2-.6-1.8.8zm0-.3v-.3l1.6 1.3c.2-.2.3-.5.3-.8l-2-.2zm0-.3l.4-.2.4 2 .8-.5-1.5-1.3zm-.4.8h2-2zm.6.9l-.2-.2 1.6-1.2-.6-.5-.8 1.9zm-.2-.2l-.1-.2 2-.2c0-.3-.1-.6-.3-.8l-1.6 1.2zm-.1-.2c0 .2 0 .5.2.7l1.8-.8v-.1l-2 .2zm1.1-.7h-.4v2h.4v-2zm.5.6v-.2l-2 .4c0 .2 0 .4.2.6l1.8-.8zm0-.2c0-.2-.2-.6-.5-.8l-.9-.3v2l-.4-.1a.7.7 0 01-.2-.5l2-.3zm-1.4-1h-.2v2h.2v-2zm-1.2.9v.7h2v-.7h-2zm1 .7h.2v-2h-.2v2zm.2 0c.2 0 .5 0 .8-.2.3-.2.6-.5.6-1h-2a.8.8 0 01.6-.7v2zm1.4-1.2c0-.3-.1-.7-.5-1l-.9-.3v2h-.3a.8.8 0 01-.3-.4v-.3h2zm-1.3-1.3h-.5l.5 2h-.1v-2zm-1.3 1v.6h2v-.6h-2z" mask="url(#a)"/>
  <path fill="#111" stroke="#111" d="M39.7 83v0a17.4 17.4 0 0010.5 16 16.7 16.7 0 0018.5-3.8 17.3 17.3 0 00-12-29.4v.5-.5c-4.5 0-8.8 1.8-12 5-3.2 3.3-5 7.6-5 12.2zm6.9-15.4a18 18 0 0127 8.3 18.8 18.8 0 01-10 24.2 18 18 0 01-19.8-4 18.6 18.6 0 012.8-28.5z"/>
  <path fill="#111" stroke="#111" d="M55.3 78.8c.9-.2 1.7-.2 2.5 0a2.2 2.2 0 002 3.1c.3 0 .7 0 1-.2a4.6 4.6 0 01-1.6 5 4.4 4.4 0 01-5.7-.3 4.5 4.5 0 011.8-7.6z"/>
  <mask id="b" fill="#fff">
    <path d="M66.6 83.1c-.3 0-.7 0-1-.2a3 3 0 01-1.4-2.9v-2.8c0-.5-.2-1-.5-1.3-.3-.4-.8-.6-1.3-.6h-2.8c-1.6 0-2.4-.8-2.8-1.4l-.2-1c0 .4-.1.7-.3 1a3 3 0 01-2.7 1.5h-2.8c-.5 0-1 .1-1.3.5-.4.3-.6.8-.6 1.3v2.9c0 1.6-.8 2.4-1.4 2.8l-1 .2c.4 0 .7.1 1 .3.6.4 1.4 1.2 1.4 2.8V89a1.9 1.9 0 001.2 1.8l.7.1h2.8c1.6 0 2.4.9 2.7 1.4.2.3.3.7.3 1 0-.3 0-.7.2-1a3 3 0 012.8-1.4h2.8c.5 0 1-.2 1.3-.5.3-.4.5-.9.5-1.4v-2.8a3.1 3.1 0 011.4-2.8c.3-.2.6-.3 1-.3zm2.2 0v.5c0 .6-.3.8-.8 1.1-.5.3-1.2.9-1.2 2.3v2.3c0 3.5-2.6 4.2-3.6 4.2h-2.8c-1.4 0-2 .7-2.2 1.2-.3.6-.5.9-1.1.9h-1c-.6 0-.8-.4-1-.9-.4-.5-1-1.2-2.3-1.2h-2.3c-3.5 0-4.1-2.6-4.1-3.7V87c0-1.4-.7-2-1.3-2.3-.5-.3-.7-.5-.7-1.1v-1c0-.5.3-.8.8-1 .5-.3 1.2-1 1.2-2.3v-2.4c0-3.5 2.6-4.2 3.6-4.2h2.8c1.3 0 2-.7 2.2-1.2.3-.5.5-.8 1.1-.8h1c.5 0 .8.3 1 .8.3.5 1 1.2 2.3 1.2h2.3c3.4 0 4.1 2.7 4.1 3.7v2.8c0 1.4.7 2 1.2 2.3.5.3.8.5.8 1.1v.5"/>
  </mask>
  <path fill="#111" d="M66.6 83.1c-.3 0-.7 0-1-.2a3 3 0 01-1.4-2.9v-2.8c0-.5-.2-1-.5-1.3-.3-.4-.8-.6-1.3-.6h-2.8c-1.6 0-2.4-.8-2.8-1.4l-.2-1c0 .4-.1.7-.3 1a3 3 0 01-2.7 1.5h-2.8c-.5 0-1 .1-1.3.5-.4.3-.6.8-.6 1.3v2.9c0 1.6-.8 2.4-1.4 2.8l-1 .2c.4 0 .7.1 1 .3.6.4 1.4 1.2 1.4 2.8V89a1.9 1.9 0 001.2 1.8l.7.1h2.8c1.6 0 2.4.9 2.7 1.4.2.3.3.7.3 1 0-.3 0-.7.2-1a3 3 0 012.8-1.4h2.8c.5 0 1-.2 1.3-.5.3-.4.5-.9.5-1.4v-2.8a3.1 3.1 0 011.4-2.8c.3-.2.6-.3 1-.3zm2.2 0v.5c0 .6-.3.8-.8 1.1-.5.3-1.2.9-1.2 2.3v2.3c0 3.5-2.6 4.2-3.6 4.2h-2.8c-1.4 0-2 .7-2.2 1.2-.3.6-.5.9-1.1.9h-1c-.6 0-.8-.4-1-.9-.4-.5-1-1.2-2.3-1.2h-2.3c-3.5 0-4.1-2.6-4.1-3.7V87c0-1.4-.7-2-1.3-2.3-.5-.3-.7-.5-.7-1.1v-1c0-.5.3-.8.8-1 .5-.3 1.2-1 1.2-2.3v-2.4c0-3.5 2.6-4.2 3.6-4.2h2.8c1.3 0 2-.7 2.2-1.2.3-.5.5-.8 1.1-.8h1c.5 0 .8.3 1 .8.3.5 1 1.2 2.3 1.2h2.3c3.4 0 4.1 2.7 4.1 3.7v2.8c0 1.4.7 2 1.2 2.3.5.3.8.5.8 1.1v.5"/>
  <path fill="#111" d="M65.6 82.9l-.5.8.5-.8zM64.2 80l1 .1h-1zm0-2.8h1-1zm-1.8-1.9v-1 1zM56.8 74l-.8.5.8-.5zm-.2-1h1-2 1zm-.3 1l.9.6-.9-.6zm-5.5 1.5v1-1zm-3.3 7.5l.5.8-.5-.8zm-1 .2v-1 2-1zm1 .3l.6-.9-.6.9zM49 89h-1 1zm1.9 2v1-1zm5.5 1.3l.9-.5-.9.5zm.3 1h-1 2-1zm.2-1l-.8-.5.8.5zm5.6-1.4v1-1zm1.8-4.7h1-1zm1.4-2.8l-.5-.9.5.9zm1-1.3l-.4-.1-1 1.7c.4.3.9.4 1.4.4v-2zm-.4 0a2 2 0 01-.7-.9l-1.8.9a4 4 0 001.4 1.6l1-1.7zm-.7-.9c-.2-.3-.3-.7-.3-1l-2-.2c0 .7.1 1.4.5 2l1.8-.8zm-.3-1.2v-2.8h-2V80h2zm0-2.8c0-.8-.3-1.5-.8-2L63 76.6l.2.6h2zm-.8-2c-.5-.6-1.2-.9-2-.9v2l.6.3 1.4-1.4zm-2-.9h-2.8v2h2.8v-2zm-2.8 0c-1.2 0-1.7-.6-1.9-1L56 74.5a4 4 0 003.6 2v-2zm-1.9-1l-.1-.3h-2c0 .5.1 1 .4 1.4l1.7-1zm-2.1-.3l-.1.4 1.7 1c.3-.4.4-1 .4-1.5h-2zm-.1.4c-.3.4-.8 1-2 1v2a4 4 0 003.7-2l-1.7-1zm-2 1h-2.7v2h2.8v-2zm-2.7 0c-.8 0-1.5.3-2 .8l1.4 1.4c.1-.2.4-.2.6-.2v-2zm-2 .8c-.6.5-.9 1.3-.9 2h2l.3-.6-1.4-1.4zm-.9 2v2.9h2v-2.9h-2zm0 2.9c0 1.2-.6 1.7-1 2l1.2 1.6c.8-.5 1.8-1.6 1.8-3.6h-2zm-.9 2h-.4v2c.5 0 1-.1 1.4-.4L47 82zm-.4 2l.4.1 1-1.7c-.4-.2-.9-.4-1.4-.4v2zm.4.1c.3.3 1 .8 1 2h2c0-2-1.1-3.2-2-3.7l-1 1.7zm1 2V89h2v-2.8h-2zm0 2.8l.1 1.1 1.9-.7V89h-2zm.1 1.1l.7 1 1.4-1.4-.2-.3-1.9.7zm.7 1l.9.6.8-1.9a.8.8 0 01-.3-.1L48.8 91zm.9.6l1 .2v-2h-.2l-.8 1.8zm1 .2h2.9v-2h-2.8v2zm2.9 0c1.1 0 1.6.6 1.9 1l1.7-1a4 4 0 00-3.6-2v2zm1.9 1v.4h2c0-.5 0-1-.3-1.5l-1.7 1zm2 .4l.2-.4-1.7-1c-.3.4-.4.9-.4 1.4h2zm.2-.4c.2-.4.7-1 1.9-1v-2a4 4 0 00-3.6 1.9l1.7 1zm1.9-1h2.8v-2h-2.8v2zm2.8 0c.8 0 1.5-.3 2-.8L63 89.7l-.6.2v2zm2-.8c.5-.6.8-1.3.8-2h-2c0 .2 0 .4-.2.6l1.4 1.4zm.8-2v-3h-2v3h2zm0-3c0-.4 0-.7.3-1l-1.8-1c-.4.7-.5 1.4-.5 2.1h2zm.3-1c.1-.4.4-.7.7-.9L65 82.5a4 4 0 00-1.4 1.6l1.8 1zm.7-.9h.4v-2c-.5 0-1 0-1.5.3l1 1.7zm1.6-1v.4h2V83h-2zm0 .4l-.3.2 1 1.8.9-.7c.3-.4.4-.8.4-1.3h-2zm-.3.2a3.4 3.4 0 00-1.7 3.2h2c0-.5.1-.8.3-1 0-.2.3-.3.4-.4l-1-1.8zM65.8 87v2.3h2V87h-2zm0 2.3c0 1.5-.5 2.2-1 2.6-.6.5-1.3.6-1.6.6v2c.7 0 1.8-.2 2.8-1 1-.8 1.8-2.1 1.8-4.2h-2zm-2.6 3.2h-.5v2h.5v-2zm-.5 0h-2.3v2h2.3v-2zm-2.3 0c-.9 0-1.5.2-2 .6-.6.4-1 .8-1.1 1.2l1.7 1c.1-.3.3-.4.4-.5.2-.2.5-.3 1-.3v-2zm-3.1 1.8l-.2.2v2c.4 0 .9 0 1.3-.4l.6-.9-1.7-1zm-.2.3h-1v2h1v-2zm-1 0l-.2-.4-1.7 1c0 .3.3.6.6.9.4.3.8.5 1.3.5v-2zm-.2-.4a3.6 3.6 0 00-3.1-1.7v2c.5 0 .8.1 1 .3l.4.4 1.7-1zm-3.1-1.7h-2.3v2h2.3v-2zm-2.3 0c-1.5 0-2.2-.5-2.6-1-.4-.6-.5-1.3-.5-1.7h-2c0 .7.2 1.9 1 2.9.7 1 2 1.8 4 1.8v-2zm-3.1-2.7v-.4h-2v.4h2zm0-.4V87h-2v2.4h2zm0-2.4c0-.9-.3-1.6-.6-2.1-.4-.5-.8-.9-1.2-1l-1 1.7c.2 0 .4.2.5.4.1.2.3.5.3 1h2zm-1.8-3.2a2 2 0 01-.2-.1v-.1h-2c0 .4 0 .9.4 1.3.2.3.6.5.9.7l1-1.8zm-.2-.2v-1h-2v1h2zm0-1l.3-.2-1-1.7-.9.6a2 2 0 00-.4 1.4h2zm.3-.2c.3-.2.7-.5 1-1 .4-.6.7-1.3.7-2.1h-2c0 .5-.2.8-.3 1l-.4.4 1 1.7zm1.7-3.1v-2.4h-2v2.4h2zm0-2.4c0-1.5.5-2.2 1-2.6.6-.5 1.2-.6 1.6-.6v-2c-.7 0-1.8.2-2.8 1-1 .8-1.8 2.2-1.8 4.2h2zm2.6-3.2h2.8v-2H50v2zm2.8 0c.8 0 1.5-.2 2-.6.6-.3 1-.8 1.1-1.1l-1.8-1c0 .2-.2.4-.4.5-.1.1-.4.2-1 .2v2zm3.1-1.7c0-.2.1-.2.2-.3v-2a2 2 0 00-1.3.4 3 3 0 00-.7 1l1.8.9zm.2-.3h1v-2h-1v2zm1 0l.2.3 1.7-1-.6-.9a2 2 0 00-1.4-.4v2zm.2.3a3.4 3.4 0 003 1.7v-2l-.9-.2-.4-.5-1.7 1zm3 1.7h2.4v-2h-2.3v2zm2.4 0c1.4 0 2.2.6 2.5 1 .5.7.6 1.4.6 1.7h2c0-.7-.2-1.8-1-2.8-.8-1-2-1.9-4.1-1.9v2zm3.1 2.7v.5h2v-.5h-2zm0 .5v2.3h2V77h-2zm0 2.3c0 1 .2 1.6.6 2.1.3.6.8.9 1.1 1.1l1-1.8c-.2 0-.3-.2-.4-.4-.2-.1-.3-.4-.3-1h-2zm1.7 3.2l.3.1s0 .1 0 0v.1h2c0-.4 0-.9-.4-1.3a3 3 0 00-.9-.7l-1 1.8zm.3.2v.5h2v-.5h-2z" mask="url(#b)"/>
</svg>
