<svg fill="none" xmlns="http://www.w3.org/2000/svg" viewBox="0 0 256 166">
  <path opacity=".1" fill="#95bcd1" d="M0 0h256v166H0z"/>
  <path d="M58.46 120.99a7.39 7.39 0 0 1-4.66-3.58 7.54 7.54 0 0 1-.8-3v-.63h5.43l.15.58c.37 1.49 2.16 2.18 3.5 1.37.57-.35.85-.84.85-1.5 0-1.1-.73-1.69-3.2-2.52-4.95-1.69-6.73-3.6-6.73-7.24 0-2.17.63-3.7 2.16-5.22a8.09 8.09 0 0 1 3.8-2.11c.97-.2 3.07-.18 4.03.05 2.96.7 5.06 3.23 5.44 6.55l.09.8h-5.34l-.07-.54c-.08-.63-.4-1.1-1-1.5-.33-.23-.61-.3-1.22-.3-1.39 0-2.3.8-2.3 2.01 0 1.13.75 1.68 3.14 2.33 4.65 1.26 6.74 3.5 6.75 7.24a7.54 7.54 0 0 1-5.67 7.2c-1.01.27-3.36.27-4.35.01zm3.76-1.1a6.41 6.41 0 0 0 4.59-4.32c.23-.75.27-1.13.21-2.18-.14-2.99-1.6-4.45-5.7-5.67-1.96-.59-2.94-1.06-3.48-1.67-1.37-1.57-.46-4.3 1.64-4.9.92-.27 2.18-.21 3 .14.7.3 1.53 1.12 1.66 1.65.08.29.13.3 1.45.3h1.37l-.1-.55a6.09 6.09 0 0 0-1.48-2.8 6.2 6.2 0 0 0-4.58-1.72 6.45 6.45 0 0 0-5.82 3.61l-.48.99v1.7c0 1.6.02 1.74.36 2.44.44.89 1.55 1.95 2.63 2.53.43.23 1.54.68 2.47 1.02 2.81 1.01 3.76 1.6 4.18 2.62.25.6.22 1.7-.06 2.32-1.1 2.42-5.28 2.52-6.53.15l-.32-.6H54.4l.08.54c.3 1.9 2.17 3.73 4.39 4.33.82.22 2.54.25 3.35.07zM111.1 121a8.14 8.14 0 0 1-5.68-4.3c-.81-1.71-.83-1.91-.83-10.87v-8.13l2.83-.04 2.83-.03v7.66c0 7.28.01 7.71.26 8.5.47 1.54 1.7 2.3 3.4 2.15 1.55-.14 2.52-.98 2.84-2.45.09-.41.14-3.38.14-8.25v-7.6h5.73l-.04 8.42c-.04 7.4-.07 8.51-.26 9.14a8.08 8.08 0 0 1-5.63 5.6c-1.16.37-4.36.48-5.6.2zm4.47-1.19a6.93 6.93 0 0 0 5.29-5.23c.15-.7.19-2.36.19-8.26v-7.38h-2.6v6.92c0 7.34-.05 8.05-.63 9.16a4.59 4.59 0 0 1-1.65 1.65c-1 .5-2.97.62-4.28.28a3.94 3.94 0 0 1-2.84-2.6c-.3-.77-.3-.87-.33-8.1l-.04-7.31h-2.6l.04 7.7c.05 8.53.02 8.2.92 9.92a6.92 6.92 0 0 0 4.38 3.25c.95.25 3.1.25 4.15 0zm72.23 1.13a11.7 11.7 0 0 1-8.92-8.4 14.16 14.16 0 0 1-.26-5.72c.9-4.73 4.1-8.24 8.66-9.47.97-.26 1.4-.3 3.45-.3 2.73.02 3.64.2 5.6 1.16 2.99 1.48 5.11 4 6.13 7.3.33 1.1.36 1.31.36 3.57s-.03 2.48-.36 3.58c-1.23 4-4.14 6.9-8.1 8.08-1.59.47-4.85.57-6.56.2zm5.7-1.33c5.16-1.32 8.47-6.3 7.84-11.82-.63-5.44-4.7-9.35-10-9.6-3.23-.16-5.82.75-8 2.82-1.05.98-1.77 2-2.37 3.3-.74 1.64-.91 2.52-.91 4.77 0 1.57.05 2.22.24 2.93a10.5 10.5 0 0 0 8.83 7.87c1.15.16 3.18.04 4.37-.27zm-4.79-2.66a7.92 7.92 0 0 1-6.08-8.38c.3-4.44 3.52-7.42 8.03-7.42 2.4 0 4.28.73 5.8 2.26a7.69 7.69 0 0 1 2.27 5.67c0 5.38-4.65 9.02-10.02 7.87zm3.79-1.34c2.81-.73 4.66-3.32 4.66-6.53 0-4.11-3.02-7.02-7-6.72-3.39.25-5.72 2.7-5.96 6.26-.22 3.4 1.77 6.3 4.82 7.05.95.23 2.47.2 3.48-.06zm-108.8-3.99v-8.91h-5.07v-5.08h15.88v5.08h-5.2v17.82h-5.6zm4.17-1.23v-8.85h5.08v-2.6H80.06v2.6h5.2V119.24H87.88zm44.82 9.98c-.03-.09-.05-5.23-.03-11.42l.04-11.25h4.68c3.49 0 4.92.05 5.6.18 3.86.77 6.92 3.05 8.47 6.32.86 1.82 1.01 2.56 1.02 4.82 0 2.24-.17 3.1-.98 4.86-1.74 3.74-5.03 6.03-9.4 6.52-1.84.2-9.32.18-9.4-.03zm10.58-1.4a9.8 9.8 0 0 0 7.47-7.53c.39-1.62.3-4.06-.2-5.54a10.18 10.18 0 0 0-6.78-6.59c-.87-.28-1.15-.3-5.24-.35l-4.33-.04V119.24h4c3.54 0 4.13-.03 5.08-.26zm-6.48-9.88v-7.45l2.77.05c2.6.05 2.83.08 3.78.41a6.86 6.86 0 0 1 3.06 1.97 6.67 6.67 0 0 1 1.8 4.56c.2 3.54-1.59 6.24-4.88 7.4-1.09.38-1.22.4-3.83.45l-2.7.05zm4.82 6.1a6.6 6.6 0 0 0 3.33-1.64 6.05 6.05 0 0 0 1.74-4.53c0-3.03-1.75-5.32-4.56-5.98-.48-.11-1.46-.2-2.3-.2h-1.46v12.49h1.2c.66 0 1.58-.06 2.05-.14zm21.08-6.1V97.63h5.6v22.9h-5.6zm4.16 0V98.94H164.12v20.29H166.85zm-60.93-21.23a15.05 15.05 0 0 1-13.1-12.58c-.25-1.68-.11-4.49.3-6.05a15.1 15.1 0 0 1 10.25-10.55c3.89-1.12 8.26-.6 11.63 1.38a14.85 14.85 0 0 1 7.48 12.99 14.9 14.9 0 0 1-13.42 14.82c-1.37.15-1.7.15-3.14 0zm4.16-7.44a8.96 8.96 0 0 0 3.36-2.21 8.14 8.14 0 0 0 1.9-6.08 7.85 7.85 0 0 0-4.12-6.01 7.3 7.3 0 0 0-3.66-.89c-2.1 0-3.76.66-5.3 2.1a7.51 7.51 0 0 0-2.12 3.26c-.29.8-.34 1.18-.35 2.39 0 1.22.05 1.58.35 2.44a7.96 7.96 0 0 0 5.7 5.24c1.22.27 3.08.17 4.24-.24zm31.14 7.5a15.22 15.22 0 0 1-5.63-1.56l-1.14-.57v2.09h-7.54V52.23H88.26l-.03 17.8-.03 17.79-3.72.03-3.72.04L70.62 73 60.48 58.14l-.03 14.87-.03 14.88H53V44.82h7.48L70.6 59.67 80.7 74.52v-29.7h53.74v15.42l1.27-.61a14.86 14.86 0 0 1 17.43 3.2c5.5 5.9 5.38 15-.28 20.7a14.6 14.6 0 0 1-7.75 4.15c-1.05.2-3.16.34-3.9.26zm2.9-7.32a7.8 7.8 0 0 0 .04-15.17c-1-.25-2.8-.25-3.8 0a7.91 7.91 0 0 0-4.54 3.19 7.34 7.34 0 0 0-1.33 4.03 7.04 7.04 0 0 0 .83 3.9 8.8 8.8 0 0 0 3.26 3.36 7.85 7.85 0 0 0 5.53.69zm42.77 7.32a15.03 15.03 0 0 1-13-10.3c-.97-2.99-.95-6.43.06-9.4a15 15 0 0 1 16.13-10c2.38.33 5.17 1.47 6.97 2.84a15 15 0 0 1 5.93 12.7c-.05.78-.16 1.78-.25 2.21l-.17.78-10.9.03-10.88.04.4.64a9.49 9.49 0 0 0 2.63 2.58 8.8 8.8 0 0 0 3.45 1.15l.94.09-.04 3.33-.03 3.33-.33.01c-.18.01-.59 0-.91-.03zm8.46-18.74c0-.26-.92-1.44-1.7-2.17-.98-.93-2.29-1.65-3.63-1.98a9.75 9.75 0 0 0-4.65.23 8.7 8.7 0 0 0-4.32 3.5l-.3.5h7.3c4.01 0 7.3-.03 7.3-.08zm-3.06 18.74c-.82-.2-1.21-.4-1.73-.88a2.92 2.92 0 0 1-1.07-2.42 3.3 3.3 0 0 1 5.7-2.33c.92.94 1.2 2.4.68 3.6a3.77 3.77 0 0 1-1.74 1.79c-.48.2-1.47.33-1.84.24zm-31.03-21.58V44.82h7.41v43.07h-7.41z" fill="#000"/>
</svg>
