<svg width="85" height="84" viewBox="0 0 85 84" fill="none" xmlns="http://www.w3.org/2000/svg">
<path d="M58.2168 60.7039C55.5061 59.3547 49.6944 56.3087 42.4213 56.3155C35.1498 56.3206 29.7848 59.3632 27.0707 60.709C27.0707 60.709 32.807 55.1018 42.4195 55.1018C52.032 55.1018 58.2168 60.7039 58.2168 60.7039V60.7039ZM42.4195 57.9088C32.807 57.9088 27.0707 62.4735 27.0707 62.4735C29.7848 61.1294 35.1498 59.1326 42.4213 59.1258C49.6944 59.119 55.5061 61.1192 58.2168 62.4701C58.2168 62.4701 52.032 57.9088 42.4195 57.9088V57.9088ZM17.3213 45.1334C17.4873 44.8436 17.7252 44.3266 17.9784 43.6571C17.2768 44.069 16.6197 44.5385 16.0019 45.0571C16.4622 45.0978 16.902 45.1216 17.3213 45.1334V45.1334ZM8.72018 32.7139C6.67001 34.9378 5.24107 37.8702 4.43675 41.0993C4.12871 41.0128 3.83779 40.9162 3.5674 40.806C4.43847 37.36 5.98204 34.2446 8.21531 31.897C8.37789 32.1749 8.54562 32.4478 8.72018 32.7139V32.7139ZM6.44753 27.0916C3.77273 29.8172 2.02378 33.7632 0.902862 38.4601C0.66841 38.0211 0.483598 37.5363 0.336424 37.0075C1.62163 32.3173 3.52975 28.4459 6.43557 25.8169C6.39621 26.2322 6.40304 26.6593 6.44753 27.0916ZM7.76523 31.0884C5.53709 33.5937 4.06367 36.9431 3.12244 40.6026C2.8281 40.4518 2.55598 40.2856 2.30955 40.1026C3.34662 36.2566 4.91931 32.7699 7.33056 30.185C7.46576 30.4901 7.61121 30.7901 7.76523 31.0884ZM6.95924 29.251C4.52574 31.9241 2.93246 35.6158 1.96727 39.8229C1.68832 39.572 1.44877 39.2957 1.23486 38.9923C2.32326 34.6683 4.03288 30.9206 6.64949 28.2306C6.73163 28.5713 6.83773 28.9103 6.95924 29.251ZM20.1553 22.7743C20.376 23.1218 20.5626 23.4761 20.732 23.932C17.1707 22.6608 13.1456 22.8201 9.77262 24.6151C9.89755 24.1897 10.1047 23.6964 10.3169 23.3269C13.3545 22.0116 16.7874 21.8133 20.1553 22.7743ZM5.92559 24.9948C3.05913 27.7018 1.1681 31.6902 0.148152 36.2091C0.117348 36.0464 0.0882762 35.8803 0.0626064 35.7108C-0.202649 33.9852 0.413398 31.9054 1.18692 30.2392C2.33179 27.7797 4.24507 25.3796 5.92559 24.9948ZM19.5939 22.0421C16.9362 21.1776 14.217 21.0878 11.703 21.7523C12.61 21.0624 13.8028 20.6132 15.2934 20.4895C16.9619 20.3539 18.4918 20.8403 19.5939 22.0421ZM19.3372 35.7955C18.0401 36.0261 16.7891 36.4464 15.6168 37.0617C13.084 38.3872 11.0527 40.5975 9.67167 43.257C9.40128 43.0977 9.14288 42.9282 8.89816 42.7434C10.3631 39.9602 12.5073 37.6431 15.1787 36.243C16.4536 35.5751 17.809 35.1209 19.2106 34.8734C19.2688 35.1751 19.3099 35.482 19.3372 35.7955V35.7955ZM19.226 38.8296C19.1781 39.1771 19.1216 39.5212 19.0549 39.8602C18.4422 40.0687 17.8466 40.3246 17.2665 40.628C15.485 41.5569 13.9791 42.9061 12.7709 44.5062C12.4526 44.4215 12.1394 44.3266 11.8296 44.2232C13.1491 42.3959 14.8279 40.8568 16.8302 39.8076V39.8093C17.602 39.4042 18.4029 39.0788 19.226 38.8296V38.8296ZM19.3749 36.7888C19.3732 37.1092 19.3629 37.4278 19.3389 37.7499C18.3378 37.9957 17.3658 38.3601 16.4417 38.8431C14.2426 39.9924 12.4372 41.8061 11.1058 43.9587C10.8166 43.8418 10.5325 43.7147 10.257 43.5774C11.6774 41.2399 13.6231 39.2703 16.0053 38.0262C17.0766 37.4634 18.2078 37.0532 19.3749 36.7888V36.7888ZM14.78 44.9131C14.4189 44.8605 14.0561 44.7978 13.6916 44.7215C14.8399 43.4384 16.5803 41.9518 18.7862 41.0738C18.6766 41.4993 18.6014 41.7637 18.4662 42.2231C17.1313 42.8621 15.8102 43.852 14.78 44.9131V44.9131ZM7.35281 41.1349C7.13547 40.806 6.95411 40.4517 6.80523 40.0721C7.69683 38.1194 8.89813 36.3735 10.3767 34.9548C10.5821 35.2006 10.7858 35.4345 10.9877 35.6531C9.43553 37.1481 8.21018 39.0296 7.35281 41.1349V41.1349ZM6.55877 39.2754C6.43727 38.7415 6.38937 38.1601 6.41333 37.5329C7.1646 36.0142 8.11435 34.6497 9.24896 33.4903C9.42865 33.7445 9.6118 33.9937 9.80004 34.2327C8.43954 35.6464 7.34598 37.3685 6.55877 39.2754ZM8.42239 42.3553C8.17424 42.1332 7.94324 41.8959 7.73275 41.6433C8.69965 39.5958 10.0173 37.7753 11.638 36.3413C11.8758 36.5803 12.1034 36.7939 12.3174 36.9837C10.6762 38.416 9.3619 40.2636 8.42239 42.3553V42.3553ZM21.36 27.1831C17.9459 26.2525 14.4719 26.5831 11.4908 28.1425C10.8747 28.4662 10.2963 28.834 9.7521 29.2442C9.69734 28.9001 9.65284 28.5527 9.61177 28.2001C10.0704 27.8814 10.5496 27.5882 11.0527 27.3255C14.1536 25.7033 17.7423 25.3203 21.283 26.2051C21.3224 26.5288 21.3497 26.8559 21.36 27.1831V27.1831ZM21.1889 25.5932C17.5694 24.4321 13.8387 24.6999 10.6659 26.3593C10.2655 26.5695 9.88045 26.8 9.50909 27.0492C9.49198 26.6678 9.49881 26.2983 9.52962 25.9373C9.76065 25.8 9.99167 25.6661 10.2295 25.5423C13.4708 23.8456 17.2443 23.5015 20.9391 24.5473C21.0417 24.8897 21.1256 25.2372 21.1889 25.5932ZM21.2094 29.4443C21.1581 29.7561 21.093 30.0596 21.016 30.3528C18.2625 29.9986 15.5432 30.4545 13.1405 31.7105C12.3225 32.1394 11.5627 32.6597 10.8576 33.2513C10.731 32.936 10.6214 32.6343 10.5188 32.3343C11.1982 31.7868 11.9272 31.3054 12.7059 30.8918C15.3019 29.5341 18.2437 29.0476 21.2094 29.4443V29.4443ZM20.773 31.1105C20.6549 31.4342 20.5146 31.7393 20.3469 32.0512C20.0269 31.5613 19.6521 31.2817 19.2825 31.1122C19.7753 31.0885 20.275 31.0867 20.773 31.1105V31.1105ZM21.3634 27.8221C21.3583 28.1374 21.3395 28.4493 21.3087 28.7578C18.1804 28.1052 15.0418 28.5002 12.3157 29.9291C11.561 30.3223 10.8576 30.7901 10.2022 31.3224C10.1081 30.9901 10.0259 30.663 9.95405 30.3358C10.5564 29.8782 11.1999 29.4663 11.8793 29.1104C14.7612 27.6018 18.0674 27.1645 21.3634 27.8221ZM18.0075 32.1716C15.7281 32.5208 13.5102 33.4903 11.6688 35.0395C11.5233 34.7463 11.3847 34.4581 11.2581 34.1785C12.7863 32.9343 14.7543 31.88 17.1519 31.3833C17.4787 31.6139 17.7628 31.88 18.0075 32.1716ZM18.971 33.9361C16.5614 34.2785 14.3984 35.2531 12.5878 36.7515C12.4252 36.4685 12.2746 36.1956 12.1291 35.926C14.0219 34.3988 16.2448 33.4327 18.6013 33.0564C18.7468 33.3361 18.87 33.631 18.971 33.9361ZM68.9314 45.0571C68.3153 44.5385 67.6548 44.069 66.9531 43.6571C67.2081 44.3266 67.446 44.8436 67.6137 45.1334C68.0312 45.1216 68.4727 45.0978 68.9314 45.0571V45.0571ZM76.7196 31.897C78.9529 34.2446 80.4965 37.36 81.3659 40.806C81.0972 40.9162 80.8045 41.0128 80.4965 41.0993C79.6939 37.8702 78.2649 34.9378 76.2131 32.7139C76.3876 32.4478 76.5571 32.1749 76.7196 31.897V31.897ZM78.4994 25.8169C81.4018 28.4459 83.3117 32.3173 84.5969 37.0075C84.4497 37.5363 84.2648 38.0211 84.0304 38.4601C82.9112 33.7632 81.1622 29.8172 78.4857 27.0916C78.5285 26.6593 78.5405 26.2322 78.4994 25.8169V25.8169ZM77.6027 30.185C80.0156 32.7699 81.5883 36.2566 82.6237 40.1026C82.379 40.2856 82.1086 40.4518 81.8108 40.6026C80.8696 36.9431 79.3961 33.5937 77.1697 31.0884C77.3237 30.7901 77.4692 30.4901 77.6027 30.185ZM78.2837 28.2306C80.9004 30.9206 82.61 34.6683 83.6984 38.9923C83.4845 39.2957 83.2432 39.572 82.9642 39.8229C82.0008 35.6158 80.4075 31.9241 77.9757 29.251C78.0972 28.9103 78.2016 28.5713 78.2837 28.2306ZM74.6164 23.3269C74.8286 23.6964 75.0357 24.1897 75.1589 24.6151C71.7876 22.8201 67.7626 22.6608 64.1996 23.932C64.3724 23.4761 64.5589 23.1218 64.7797 22.7743C68.1459 21.8133 71.5788 22.0116 74.6164 23.3269ZM83.7463 30.2392C84.5215 31.9054 85.1359 33.9852 84.8706 35.7108C84.845 35.8803 84.8159 36.0464 84.7851 36.2091C83.7651 31.6902 81.8741 27.7018 79.0094 24.9948C80.6865 25.3796 82.6032 27.7797 83.7463 30.2392V30.2392ZM69.6382 20.4895C71.1305 20.6132 72.325 21.0624 73.2303 21.7523C70.7163 21.0878 67.9987 21.1776 65.3376 22.0421C66.4431 20.8403 67.9714 20.3539 69.6382 20.4895V20.4895ZM65.7226 34.8734C67.1242 35.1209 68.4813 35.5751 69.7545 36.243C72.4276 37.6431 74.5702 39.9602 76.0351 42.7434C75.7886 42.9282 75.5302 43.0977 75.2616 43.257C73.8805 40.5975 71.8509 38.3872 69.3164 37.0617C68.1425 36.4464 66.8915 36.0261 65.5994 35.7955C65.6251 35.482 65.6662 35.1751 65.7226 34.8734ZM68.1031 39.8093V39.8076C70.1071 40.8568 71.7841 42.3959 73.1053 44.2232C72.7938 44.3266 72.4807 44.4215 72.1623 44.5062C70.9559 42.9061 69.4482 41.5569 67.6667 40.628C67.09 40.3246 66.4893 40.0687 65.8767 39.8602C65.8116 39.5212 65.7551 39.1771 65.7072 38.8296C66.5304 39.0788 67.333 39.4042 68.1031 39.8093ZM68.9263 38.0262C71.3084 39.2703 73.2559 41.2399 74.6763 43.5774C74.4008 43.7147 74.1184 43.8418 73.8292 43.9587C72.4961 41.8061 70.6906 39.9924 68.4899 38.8431C67.5657 38.3601 66.5954 37.9957 65.5943 37.7499C65.5704 37.4278 65.5601 37.1092 65.5584 36.7888C66.7255 37.0532 67.8567 37.4634 68.9263 38.0262V38.0262ZM66.4671 42.2231C66.3319 41.7637 66.2549 41.4993 66.1488 41.0738C68.3547 41.9518 70.0934 43.4384 71.2399 44.7215C70.8771 44.7978 70.5126 44.8605 70.155 44.9131C69.123 43.852 67.8019 42.8621 66.4671 42.2231V42.2231ZM73.9456 35.6531C74.1475 35.4345 74.3511 35.2006 74.5548 34.9548C76.0351 36.3735 77.2382 38.1194 78.1263 40.0721C77.9809 40.4517 77.7995 40.806 77.5821 41.1349C76.7231 39.0296 75.496 37.1481 73.9456 35.6531V35.6531ZM75.1349 34.2327C75.3197 33.9937 75.5046 33.7445 75.686 33.4903C76.8206 34.6497 77.7704 36.0142 78.5216 37.5329C78.5456 38.1601 78.496 38.7415 78.3762 39.2754C77.5873 37.3685 76.4954 35.6464 75.1349 34.2327ZM72.6176 36.9837C72.8298 36.7939 73.0574 36.5803 73.2936 36.3413C74.9159 37.7753 76.2336 39.5958 77.2022 41.6433C76.9917 41.8959 76.7607 42.1332 76.5108 42.3553C75.5713 40.2636 74.257 38.416 72.6176 36.9837ZM63.6502 26.2051C67.191 25.3203 70.7813 25.7033 73.8805 27.3255C74.3836 27.5882 74.8628 27.8814 75.3197 28.2001C75.2804 28.5527 75.2342 28.9001 75.1811 29.2442C74.6369 28.834 74.0585 28.4662 73.4424 28.1425C70.4613 26.5831 66.9873 26.2525 63.5715 27.1831C63.5835 26.8559 63.6109 26.5288 63.6502 26.2051V26.2051ZM63.9942 24.5473C67.689 23.5015 71.4659 23.8456 74.7037 25.5423C74.9433 25.6661 75.176 25.8 75.4036 25.9373C75.4344 26.2983 75.443 26.6678 75.4241 27.0492C75.0528 26.8 74.6695 26.5695 74.2673 26.3593C71.0962 24.6999 67.3672 24.4321 63.7427 25.5932C63.8077 25.2372 63.8916 24.8897 63.9942 24.5473ZM72.2308 30.8918C73.0078 31.3054 73.7351 31.7868 74.4162 32.3343C74.3118 32.6343 74.2006 32.936 74.0756 33.2513C73.3706 32.6597 72.6107 32.1394 71.7944 31.7105C69.39 30.4545 66.6707 29.9986 63.9172 30.3528C63.8402 30.0596 63.7769 29.7561 63.7238 29.4443C66.6912 29.0476 69.633 29.5341 72.2308 30.8918V30.8918ZM65.6508 31.1122C65.2811 31.2817 64.9046 31.5613 64.5863 32.0512C64.4203 31.7393 64.2783 31.4342 64.1602 31.1105C64.6582 31.0867 65.1562 31.0885 65.6508 31.1122V31.1122ZM73.0539 29.1104C73.735 29.4663 74.3734 29.8782 74.9775 30.3358C74.9073 30.663 74.8235 30.9901 74.7311 31.3224C74.0756 30.7901 73.3705 30.3223 72.6193 29.9291C69.8897 28.5002 66.7529 28.1052 63.6246 28.7578C63.5955 28.4493 63.5767 28.1374 63.5715 27.8221C66.8658 27.1645 70.1738 27.6018 73.0539 29.1104ZM67.7814 31.3833C70.1789 31.88 72.147 32.9343 73.6752 34.1785C73.5485 34.4581 73.4133 34.7463 73.2627 35.0395C71.4231 33.4903 69.2052 32.5208 66.9257 32.1716C67.1704 31.88 67.4545 31.6139 67.7814 31.3833V31.3833ZM66.3336 33.0564C68.6884 33.4327 70.9131 34.3988 72.8058 35.926C72.6604 36.1956 72.508 36.4685 72.3472 36.7515C70.5349 35.2531 68.3718 34.2785 65.9622 33.9361C66.0649 33.631 66.1847 33.3361 66.3336 33.0564ZM33.4403 23.8795C33.4283 23.8863 33.4146 23.8879 33.4009 23.8947C33.3975 23.8727 33.3957 23.8541 33.394 23.832C33.4077 23.8473 33.4249 23.8626 33.4403 23.8795V23.8795ZM51.5581 23.832C51.5461 23.8473 51.5289 23.8626 51.5118 23.8795C51.5255 23.8863 51.5392 23.8879 51.5512 23.8947C51.5546 23.8727 51.5563 23.8541 51.5581 23.832V23.832ZM23.0217 24.8881C22.8951 24.4541 22.7564 24.0354 22.6093 23.632C22.9207 23.3032 23.2408 22.9862 23.5693 22.6744C23.8688 22.8879 24.17 23.1269 24.4695 23.393C23.9647 23.871 23.482 24.3711 23.0217 24.8881ZM23.121 22.3726C22.8831 22.6235 22.6504 22.8794 22.4211 23.1405C22.2619 22.7337 22.0924 22.3472 21.9145 21.981C21.9641 21.9268 22.0155 21.8743 22.0651 21.8217C22.4159 21.9658 22.7667 22.1523 23.121 22.3726V22.3726ZM23.5009 26.7492C23.4033 26.3017 23.2955 25.8627 23.1792 25.4355C23.7422 24.8779 24.3343 24.3456 24.9504 23.8371C25.2122 24.093 25.4757 24.366 25.7376 24.6592C24.9469 25.3135 24.2008 26.0102 23.5009 26.7492V26.7492ZM23.8654 28.7578C23.7952 28.2916 23.7182 27.834 23.6326 27.3865C24.4489 26.6153 25.3149 25.8932 26.2322 25.227C26.4666 25.5101 26.6993 25.8051 26.9321 26.1135C25.8351 26.9153 24.8083 27.8001 23.8654 28.7578ZM28.0581 27.7238C26.6274 28.6544 25.3063 29.7206 24.1101 30.8986C24.0725 30.4155 24.0211 29.9358 23.963 29.4612C25.0342 28.4866 26.1928 27.5916 27.4267 26.7933C27.6389 27.0916 27.8493 27.4034 28.0581 27.7238V27.7238ZM33.5515 25.0084C33.4882 24.6236 33.4471 24.3066 33.4009 23.8947C33.4146 23.8879 33.4283 23.8863 33.4403 23.8795C33.7004 24.1643 33.9981 24.4541 34.325 24.7474C34.0666 24.8304 33.8082 24.9168 33.5515 25.0084ZM33.7756 26.1559C34.325 25.9762 34.8829 25.8101 35.4459 25.666C35.8207 25.9474 36.2177 26.2288 36.6387 26.5068C35.7488 26.7068 34.8795 26.9492 34.0289 27.2339C33.9656 26.9949 33.9057 26.7576 33.8544 26.5186C33.8253 26.3898 33.7996 26.2695 33.7756 26.1559V26.1559ZM29.1192 29.4578C27.3257 30.507 25.6794 31.758 24.223 33.1784C24.2145 32.6699 24.1957 32.1665 24.1649 31.6665C25.5014 30.4732 26.9697 29.4104 28.5458 28.4933C28.7375 28.8069 28.9275 29.129 29.1192 29.4578ZM42.476 48.6285C43.9735 48.6285 45.4383 48.7472 46.8621 48.9692C46.8313 49.3354 46.8023 49.7015 46.7749 50.0608C45.3784 49.8388 43.9444 49.7168 42.476 49.7168C41.0094 49.7168 39.5753 49.8388 38.1789 50.0608C38.1515 49.7015 38.1224 49.3354 38.0916 48.9692C39.5154 48.7472 40.9786 48.6285 42.476 48.6285ZM36.471 50.3931C33.1887 51.1457 30.1614 52.5017 27.5174 54.3272C27.3719 53.9865 27.2179 53.6373 27.0536 53.2831C29.7815 51.4457 32.8892 50.0812 36.2502 49.3201C36.3255 49.6744 36.3991 50.0337 36.471 50.3931ZM48.7036 49.3201C52.0646 50.0812 55.1706 51.4457 57.9002 53.2831C57.7359 53.6373 57.5802 53.9865 57.4364 54.3272C54.7907 52.5017 51.7651 51.1457 48.4811 50.3931C48.553 50.0337 48.6266 49.6744 48.7036 49.3201ZM46.6859 51.3355C46.6602 51.705 46.6362 52.0695 46.6174 52.4288C45.2706 52.2203 43.8896 52.1118 42.476 52.1118C41.0659 52.1118 39.6832 52.2203 38.3381 52.4288C38.3158 52.0695 38.2936 51.705 38.2696 51.3355C39.6369 51.1304 41.0437 51.0236 42.476 51.0236C43.9101 51.0236 45.3151 51.1304 46.6859 51.3355V51.3355ZM36.7054 51.6169C36.7722 51.9728 36.8355 52.3322 36.8971 52.6949C33.7551 53.3594 30.839 54.5747 28.2583 56.2308C28.1386 55.885 28.0034 55.5256 27.8562 55.1561C30.5122 53.5018 33.4967 52.2864 36.7054 51.6169ZM48.2466 51.6169C51.4571 52.2864 54.4416 53.5018 57.0959 55.1561C56.9504 55.5256 56.8135 55.885 56.6954 56.2308C54.113 54.5747 51.1987 53.3594 48.055 52.6949C48.1166 52.3322 48.1799 51.9728 48.2466 51.6169V51.6169ZM62.3428 23.632C62.1956 24.0354 62.0587 24.4541 61.9287 24.8881C61.47 24.3711 60.9891 23.871 60.4843 23.393C60.7837 23.1269 61.0849 22.8879 61.3844 22.6744C61.7147 22.9862 62.0331 23.3032 62.3428 23.632ZM62.5293 23.1405C62.3034 22.8794 62.0707 22.6235 61.8328 22.3726C62.1871 22.1523 62.5379 21.9658 62.887 21.8217C62.9366 21.8743 62.9897 21.9268 63.0376 21.981C62.8596 22.3472 62.6902 22.7337 62.5293 23.1405V23.1405ZM61.7729 25.4355C61.6566 25.8627 61.5487 26.3017 61.4512 26.7492C60.7529 26.0102 60.0034 25.3135 59.2128 24.6592C59.4763 24.366 59.7399 24.093 60.0034 23.8371C60.6195 24.3456 61.2116 24.8779 61.7729 25.4355V25.4355ZM58.7199 25.227C59.6372 25.8932 60.5065 26.6153 61.3194 27.3865C61.2338 27.834 61.1552 28.2916 61.0884 28.7578C60.1438 27.8001 59.1187 26.9153 58.02 26.1135C58.2527 25.8051 58.4872 25.5101 58.7199 25.227ZM51.4006 25.0084C51.1473 24.9168 50.8872 24.8304 50.6271 24.7474C50.9539 24.4541 51.2517 24.1643 51.5118 23.8795C51.5255 23.8863 51.5392 23.8879 51.5512 23.8947C51.505 24.3066 51.4673 24.6236 51.4006 25.0084ZM57.5271 26.7933C58.7593 27.5916 59.9196 28.4866 60.9926 29.4612C60.931 29.9358 60.883 30.4155 60.842 30.8986C59.6475 29.7206 58.3229 28.6544 56.8939 27.7238C57.1027 27.4034 57.3149 27.0916 57.5271 26.7933V26.7933ZM56.4079 28.4933C57.984 29.4104 59.4523 30.4732 60.7872 31.6665C60.7581 32.1665 60.7393 32.6699 60.7324 33.1784C59.2727 31.758 57.6298 30.507 55.8329 29.4578C56.0229 29.129 56.2162 28.8069 56.4079 28.4933V28.4933ZM50.9248 27.2339C50.0743 26.9492 49.2032 26.7068 48.3151 26.5068C48.7343 26.2288 49.1314 25.9474 49.5062 25.666C50.0709 25.8101 50.6288 25.9762 51.1764 26.1559C51.1541 26.2695 51.1285 26.3898 51.0994 26.5186C51.0464 26.7576 50.9881 26.9949 50.9248 27.2339V27.2339ZM45.0088 28.3679C45.5958 28.0865 46.1656 27.7899 46.7133 27.4797C48.0447 27.6831 49.3402 27.9815 50.5963 28.3628C50.4902 28.7103 50.3806 29.0578 50.2711 29.4104C48.5872 28.8951 46.8262 28.5425 45.0088 28.3679ZM55.3606 30.307C57.3149 31.3257 59.1169 32.5733 60.729 34.0022C60.7324 34.5378 60.7512 35.0751 60.7803 35.6108C59.0433 33.9124 57.0446 32.4512 54.8404 31.2901C55.0132 30.9545 55.1877 30.6274 55.3606 30.307V30.307ZM24.1734 35.6108C24.2042 35.0751 24.2196 34.5378 24.2248 34.0022C25.8351 32.5733 27.6372 31.3257 29.5915 30.307C29.7661 30.6274 29.9389 30.9545 30.1117 31.2901C27.9092 32.4512 25.9087 33.9124 24.1734 35.6108V35.6108ZM34.3558 28.3628C35.6119 27.9815 36.9091 27.6831 38.2388 27.4797C38.7881 27.7899 39.358 28.0865 39.9433 28.3679C38.1258 28.5425 36.3666 28.8951 34.6826 29.4104C34.5731 29.0578 34.4619 28.7103 34.3558 28.3628ZM23.915 38.2448C23.9989 37.6617 24.0639 37.0719 24.1118 36.482C26.0165 34.7667 28.1848 33.3157 30.5635 32.1885C30.7227 32.519 30.8801 32.853 31.0392 33.192C28.3542 34.4734 25.9481 36.1904 23.915 38.2448V38.2448ZM42.476 29.5392C45.0721 29.5392 47.5741 29.8884 49.9408 30.5392C49.9186 30.6087 49.8998 30.6799 49.8809 30.7511C49.8056 31.0359 49.7338 31.319 49.6619 31.602C47.3876 30.9715 44.9763 30.6274 42.476 30.6274C39.9775 30.6274 37.568 30.9715 35.2902 31.602C35.2183 31.319 35.1482 31.0359 35.0712 30.7511C35.0523 30.6799 35.0335 30.6087 35.013 30.5392C37.378 29.8884 39.8817 29.5392 42.476 29.5392ZM54.3886 32.1885C56.7673 33.3157 58.9372 34.7667 60.8402 36.482C60.8899 37.0719 60.9549 37.6617 61.0371 38.2448C59.0057 36.1904 56.5979 34.4734 53.9145 33.192C54.072 32.853 54.2294 32.519 54.3886 32.1885V32.1885ZM23.3332 41.2399C23.506 40.5636 23.6515 39.8755 23.7713 39.1771C25.9943 37.1058 28.5972 35.4006 31.4791 34.1632C31.6263 34.4971 31.77 34.8361 31.9154 35.1785C28.6109 36.6074 25.6897 38.6855 23.3332 41.2399ZM42.476 31.9258C44.8668 31.9258 47.1787 32.2224 49.3761 32.7784C49.2922 33.1344 49.2101 33.4903 49.1297 33.8462C47.0128 33.3038 44.7812 33.014 42.476 33.014C40.1709 33.014 37.9427 33.3038 35.8207 33.8462C35.7437 33.4903 35.6615 33.1344 35.576 32.7784C37.775 32.2224 40.087 31.9258 42.476 31.9258ZM53.4747 34.1632C56.3566 35.4006 58.9612 37.1058 61.1808 39.1771C61.3023 39.8755 61.4478 40.5636 61.6189 41.2399C59.2624 38.6855 56.3412 36.6074 53.0383 35.1785C53.1821 34.8361 53.3258 34.4971 53.4747 34.1632V34.1632ZM42.476 34.3107C44.6837 34.3107 46.8245 34.5649 48.8695 35.0412C48.7942 35.4006 48.7224 35.7565 48.6488 36.1142C46.6773 35.6497 44.6084 35.4006 42.476 35.4006C40.3454 35.4006 38.2782 35.6497 36.3033 36.1142C36.2331 35.7565 36.1596 35.4006 36.0826 35.0412C38.1293 34.5649 40.2701 34.3107 42.476 34.3107V34.3107ZM61.8996 42.2621C62.2127 43.3079 62.5927 44.3198 63.0427 45.2724C63.0376 45.2775 63.0325 45.2843 63.0256 45.2911C60.2926 41.7485 56.5654 38.9347 52.2186 37.2278C52.3504 36.8821 52.4856 36.5396 52.6208 36.2006C56.1649 37.5804 59.3206 39.6619 61.8996 42.2621V42.2621ZM21.9265 45.2911C21.9213 45.2843 21.9162 45.2775 21.9093 45.2724C22.3611 44.3198 22.7393 43.3079 23.0525 42.2621C25.6315 39.6619 28.7872 37.5804 32.333 36.2006C32.4665 36.5396 32.6034 36.8821 32.7335 37.2278C28.3884 38.9347 24.6595 41.7485 21.9265 45.2911V45.2911ZM62.7689 45.5673C62.5139 45.847 62.259 46.1402 62.0108 46.4504C59.2265 43.2892 55.6036 40.8111 51.457 39.3314C51.5786 38.9788 51.7 38.6347 51.825 38.2923C56.1084 39.8077 59.8597 42.3383 62.7689 45.5673ZM22.9413 46.4504C22.6931 46.1402 22.4382 45.847 22.1849 45.5673C25.0941 42.3383 28.8454 39.8077 33.1305 38.2923C33.2537 38.6347 33.3752 38.9788 33.4967 39.3314C29.3485 40.8111 25.7256 43.2892 22.9413 46.4504ZM42.476 36.6973C44.5211 36.6973 46.5079 36.9159 48.4161 37.3244C48.3476 37.6855 48.2825 38.0448 48.2175 38.4008C46.3761 38.0007 44.4543 37.7872 42.476 37.7872C40.4995 37.7872 38.5776 38.0007 36.7328 38.4008C36.6695 38.0448 36.6045 37.6855 36.5395 37.3244C38.4459 36.9159 40.4327 36.6973 42.476 36.6973ZM51.0857 40.4297C55.1655 41.7433 58.7884 43.9673 61.7045 46.842C61.4717 47.1454 61.2441 47.4556 61.0199 47.7777C58.2202 44.9521 54.7086 42.7655 50.7486 41.4755C50.8615 41.1247 50.9728 40.7738 51.0857 40.4297ZM42.476 39.0855C44.3773 39.0855 46.229 39.2754 48.0122 39.628C47.9523 39.9907 47.8924 40.3518 47.8393 40.7111C46.1109 40.3619 44.3191 40.1738 42.476 40.1738C40.6347 40.1738 38.8395 40.3619 37.1145 40.7111C37.058 40.3518 36.9998 39.9907 36.9433 39.628C38.7265 39.2754 40.5765 39.0855 42.476 39.0855ZM23.9339 47.7777C23.708 47.4556 23.4803 47.1454 23.2493 46.842C26.1654 43.9673 29.7883 41.7433 33.8664 40.4297C33.981 40.7738 34.0922 41.1247 34.2035 41.4755C30.2435 42.7655 26.7336 44.9521 23.9339 47.7777V47.7777ZM50.408 42.6027C54.291 43.7469 57.789 45.7097 60.6828 48.2726C60.4706 48.5913 60.2618 48.9133 60.0599 49.2439C57.2721 46.7149 53.8803 44.7792 50.0982 43.6571C50.2009 43.3011 50.3037 42.9519 50.408 42.6027ZM42.476 41.4671C44.2524 41.4671 45.9808 41.6332 47.6562 41.9451C47.6032 42.3078 47.5535 42.6689 47.5056 43.0282C45.8816 42.7214 44.2011 42.557 42.476 42.557C40.7545 42.557 39.0722 42.7214 37.4465 43.0282C37.3986 42.6689 37.3489 42.3078 37.2976 41.9451C38.9713 41.6332 40.7014 41.4671 42.476 41.4671V41.4671ZM34.8538 43.6571C31.0735 44.7792 27.6817 46.7149 24.8922 49.2439C24.6903 48.9133 24.4832 48.5913 24.2727 48.2726C27.1648 45.7097 30.6611 43.7469 34.5475 42.6027C34.6519 42.9519 34.7528 43.3011 34.8538 43.6571V43.6571ZM42.476 43.8553C44.1429 43.8553 45.7686 44.0028 47.3465 44.2774C47.302 44.6436 47.2592 45.0063 47.2181 45.3656C45.6831 45.0911 44.1001 44.9453 42.476 44.9453C40.8537 44.9453 39.269 45.0911 37.7356 45.3656C37.6946 45.0063 37.6518 44.6436 37.6056 44.2774C39.1834 44.0028 40.8092 43.8553 42.476 43.8553ZM35.4493 45.8775C31.8418 46.8573 28.5715 48.5709 25.818 50.8355C25.6332 50.5016 25.4432 50.1676 25.2498 49.8388C28.1026 47.5437 31.4671 45.8097 35.1721 44.813C35.2662 45.1656 35.3586 45.5199 35.4493 45.8775ZM49.7817 44.813C53.485 45.8097 56.8511 47.5437 59.7039 49.8388C59.5088 50.1676 59.3206 50.5016 59.1341 50.8355C56.3806 48.5709 53.1102 46.8573 49.5027 45.8775C49.5951 45.5199 49.6858 45.1656 49.7817 44.813ZM49.2135 47.0539C52.7422 47.9251 55.9801 49.4591 58.7747 51.5084C58.595 51.8508 58.4221 52.1932 58.2578 52.5339C55.5522 50.5016 52.4051 48.9794 48.9636 48.1217C49.0441 47.7641 49.1279 47.4082 49.2135 47.0539ZM42.476 46.242C44.0505 46.242 45.589 46.3725 47.0812 46.6166C47.0436 46.9844 47.0093 47.3488 46.9751 47.7081C45.5171 47.4641 44.0128 47.3319 42.476 47.3319C40.9393 47.3319 39.4367 47.4641 37.9787 47.7081C37.9445 47.3488 37.9085 46.9844 37.8709 46.6166C39.3648 46.3725 40.9033 46.242 42.476 46.242V46.242ZM35.9867 48.1217C32.5487 48.9794 29.3998 50.5016 26.6959 52.5339C26.5299 52.1932 26.3571 51.8508 26.1774 51.5084C28.972 49.4591 32.2098 47.9251 35.7403 47.0539C35.8241 47.4082 35.908 47.7641 35.9867 48.1217V48.1217ZM31.8162 18.1283C31.8025 18.0893 31.7923 18.0537 31.7803 18.0164C31.7478 18.0401 31.717 18.0656 31.6844 18.0893C31.7289 18.1011 31.7751 18.1164 31.8162 18.1283V18.1283ZM30.6046 1.88485C30.353 2.09164 30.1049 2.3069 29.8602 2.52726C30.0843 2.31707 30.3325 2.09842 30.6046 1.88485ZM31.503 17.0061C31.5629 17.3214 31.6485 17.6435 31.7803 18.0164C31.7478 18.0401 31.717 18.0656 31.6844 18.0893C31.3644 17.9944 30.9845 17.8791 30.5789 17.7266C30.8835 17.4774 31.1898 17.2384 31.503 17.0061ZM35.4493 -1.97632e-05C33.6593 0.806812 31.9959 1.90856 30.5053 3.25611C29.8944 3.32899 29.2527 3.54597 28.6537 3.84938C28.8984 3.54597 29.3005 3.0578 29.8602 2.52726C30.1049 2.3069 30.353 2.09164 30.6046 1.88485C31.77 0.966144 33.3872 0.0999867 35.4493 -1.97632e-05ZM31.3969 16.0604C30.8698 16.4892 30.3564 16.9435 29.867 17.4265C29.5726 17.2876 29.2749 17.1231 28.984 16.9316C29.7335 16.1722 30.5361 15.4739 31.3815 14.8467C31.3815 14.8501 31.3798 14.8518 31.3798 14.8552C31.3798 15.3298 31.3832 15.7163 31.3969 16.0604ZM28.5356 16.6044C28.2875 16.4061 28.0513 16.1773 27.8322 15.9231C29.2526 14.2518 30.8887 12.8194 32.6855 11.6889C32.2064 12.2838 31.8214 12.9669 31.5972 13.6449C30.4899 14.5094 29.4649 15.5027 28.5356 16.6044ZM26.6788 10.0786C27.3496 6.25126 30.0176 4.49178 32.0575 4.16973C29.968 5.69864 28.1471 7.69881 26.6788 10.0786ZM53.0555 18.1283C53.0691 18.0893 53.0828 18.0537 53.0948 18.0164C53.1256 18.0401 53.1564 18.0656 53.1872 18.0893C53.1427 18.1011 53.0965 18.1164 53.0555 18.1283V18.1283ZM55.0115 2.52726C54.7667 2.3069 54.5203 2.09164 54.267 1.88485C54.5408 2.09842 54.7873 2.31707 55.0115 2.52726ZM54.2927 17.7266C53.8871 17.8791 53.509 17.9944 53.1872 18.0893C53.1564 18.0656 53.1256 18.0401 53.0948 18.0164C53.2231 17.6435 53.3121 17.3214 53.3703 17.0061C53.6835 17.2384 53.9915 17.4774 54.2927 17.7266ZM54.267 1.88485C54.5203 2.09164 54.7667 2.3069 55.0115 2.52726C55.5711 3.0578 55.9749 3.54597 56.2214 3.84938C55.619 3.54597 54.979 3.32899 54.3663 3.25611C52.8775 1.90856 51.2141 0.806812 49.424 -1.97632e-05C51.4844 0.0999867 53.1033 0.966144 54.267 1.88485ZM53.4918 14.8552V14.8467C54.3355 15.4739 55.1364 16.1722 55.8911 16.9316C55.5985 17.1231 55.3007 17.2876 55.0081 17.4265C54.5152 16.9435 54.0052 16.4892 53.4747 16.0604C53.4901 15.7163 53.4918 15.3298 53.4918 14.8552V14.8552ZM53.2762 13.6449C53.0537 12.9669 52.6652 12.2838 52.1878 11.6889C53.9847 12.8194 55.619 14.2518 57.0394 15.9231C56.8221 16.1773 56.5842 16.4061 56.3361 16.6044C55.4068 15.5027 54.3817 14.5094 53.2762 13.6449V13.6449ZM52.8158 4.16973C54.854 4.49178 57.5254 6.25126 58.1963 10.0786C56.728 7.69881 54.9054 5.69864 52.8158 4.16973ZM42.0773 12.0465C38.9901 12.1143 35.9713 13.0788 33.4163 14.6416C33.43 14.2128 33.4693 13.8161 33.5241 13.4517C36.0517 12.0313 39.014 11.1533 42.0106 11.0787C42.0345 11.4126 42.0516 11.716 42.0773 12.0465V12.0465ZM42.4367 22.3709C43.8314 22.3709 45.1697 22.537 46.4651 22.8438C46.1246 23.1201 45.7875 23.3778 45.4572 23.6219C44.4817 23.4388 43.4772 23.3439 42.4367 23.3439C41.3962 23.3439 40.3916 23.4388 39.4145 23.6219C39.0859 23.3778 38.747 23.1201 38.4082 22.8438C39.7037 22.537 41.0402 22.3709 42.4367 22.3709V22.3709ZM42.4367 15.5857C45.4537 15.5857 48.286 16.34 50.8478 17.6876C50.7144 17.9808 50.5638 18.269 50.3978 18.5503C47.9728 17.2706 45.2929 16.5587 42.4367 16.5587C39.5805 16.5587 36.9005 17.2706 34.4756 18.5503C34.3079 18.269 34.1573 17.9808 34.0255 17.6876C36.5839 16.34 39.4196 15.5857 42.4367 15.5857V15.5857ZM42.4367 17.8503C45.0533 17.8503 47.5279 18.4147 49.8073 19.4487C49.6105 19.7165 49.4035 19.9792 49.1844 20.2386C47.0897 19.3216 44.8274 18.8233 42.4367 18.8233C40.0442 18.8233 37.7836 19.3216 35.6872 20.2386C35.4699 19.9792 35.2611 19.7165 35.0643 19.4487C37.3472 18.4147 39.8183 17.8503 42.4367 17.8503V17.8503ZM42.2604 14.3009C39.2245 14.3077 36.1664 15.2552 33.6696 16.7366C33.572 16.4061 33.5001 16.0722 33.4573 15.7332C36.0483 14.2569 39.0619 13.3686 42.1697 13.3381C42.1988 13.6653 42.2279 14.0229 42.2604 14.3009ZM42.4367 24.6304C42.9381 24.6304 43.4327 24.6575 43.9187 24.6982C43.2701 25.1304 42.743 25.4525 42.4367 25.6525C42.1235 25.4457 41.5981 25.1237 40.9564 24.6982C41.4424 24.6575 41.9352 24.6304 42.4367 24.6304ZM42.4367 20.1098C44.5176 20.1098 46.4942 20.4691 48.3647 21.1335C48.108 21.3963 47.8428 21.6488 47.5741 21.8946C45.9449 21.3658 44.2336 21.0827 42.4367 21.0827C40.6415 21.0827 38.9285 21.3658 37.2976 21.8946C37.0289 21.6488 36.7653 21.3963 36.5069 21.1335C38.3791 20.4691 40.3557 20.1098 42.4367 20.1098ZM41.6563 7.53945C36.0261 7.79201 30.9434 10.9329 27.5601 15.579C27.3633 15.3027 27.1854 14.9958 27.0348 14.6535C30.5601 10.004 35.7608 6.86823 41.5074 6.57669C41.5639 6.89535 41.6135 7.2157 41.6563 7.53945V7.53945ZM34.5184 10.6685C36.7192 9.59553 39.2913 8.90905 41.8206 8.82091C41.8531 9.14805 41.8873 9.47179 41.913 9.79215C39.0636 9.88199 36.24 10.7482 33.8373 12.1313C34.0324 11.5482 34.2737 11.0702 34.5184 10.6685ZM32.5487 3.82398C32.3022 3.5782 32.0062 3.41376 31.6776 3.32392C33.5669 1.96621 35.6616 0.955956 37.8948 0.362697C38.3363 0.540675 38.706 0.784769 39.0534 1.07292C36.702 1.53906 34.5235 2.47474 32.5487 3.82398V3.82398ZM26.891 14.2958C26.7524 13.911 26.6514 13.4839 26.5881 13.011C30.0176 8.16491 35.208 4.81383 40.9906 4.35109C41.0899 4.66297 41.1669 4.97657 41.2456 5.30371C35.4203 5.70543 30.1699 9.2565 26.891 14.2958V14.2958ZM26.5454 12.5889C26.5299 12.3906 26.5197 12.1821 26.5197 11.9669C26.5197 11.5431 26.5436 11.138 26.5864 10.7515C29.8413 6.1512 34.6262 2.94252 40.0237 2.20349C40.2154 2.48656 40.3677 2.77811 40.52 3.11711C34.7734 3.7697 29.6908 7.43436 26.5454 12.5889ZM51.3493 13.4517C51.404 13.8161 51.4434 14.2128 51.4588 14.6416C48.8986 13.0788 45.8815 12.1143 42.796 12.0465C42.82 11.716 42.8388 11.4126 42.8628 11.0787C45.8576 11.1533 48.8216 12.0313 51.3493 13.4517V13.4517ZM42.7019 13.3381C45.8114 13.3686 48.8216 14.2569 51.4143 15.7332C51.3698 16.0722 51.2996 16.4061 51.2021 16.7366C48.707 15.2552 45.6488 14.3077 42.6129 14.3009C42.6454 14.0229 42.6745 13.6653 42.7019 13.3381ZM57.8386 14.6535C57.688 14.9958 57.5117 15.3027 57.3115 15.579C53.9299 10.9329 48.8439 7.79201 43.217 7.53945C43.2598 7.2157 43.3094 6.89535 43.3659 6.57669C49.1125 6.86823 54.3133 10.004 57.8386 14.6535ZM51.0344 12.1313C48.6351 10.7482 45.8097 9.88199 42.9603 9.79215C42.986 9.47179 43.0202 9.14805 43.051 8.82091C45.5821 8.90905 48.1525 9.59553 50.355 10.6685C50.5963 11.0702 50.8393 11.5482 51.0344 12.1313V12.1313ZM52.3247 3.82398C50.3516 2.47474 48.1713 1.53906 45.8199 1.07292C46.1673 0.784769 46.537 0.540675 46.9768 0.362697C49.2118 0.955956 51.3064 1.96621 53.1975 3.32392C52.8672 3.41376 52.5694 3.5782 52.3247 3.82398V3.82398ZM58.2835 13.011C58.2219 13.4839 58.1175 13.911 57.9806 14.2958C54.7017 9.2565 49.4531 5.70543 43.6243 5.30371C43.7065 4.97657 43.7818 4.66297 43.8827 4.35109C49.6653 4.81383 54.854 8.16491 58.2835 13.011V13.011ZM58.3537 11.9669C58.3537 12.1821 58.3434 12.3906 58.328 12.5889C55.1809 7.43436 50.0983 3.7697 44.3499 3.11711C44.5074 2.77811 44.6563 2.48656 44.8496 2.20349C50.2472 2.94252 55.0337 6.1512 58.2887 10.7515C58.3314 11.138 58.3537 11.5431 58.3537 11.9669Z" fill="#111111"/>
<path d="M41.7658 74.0267H43.1863L42.2963 76.8811H41.0009L41.7658 74.0267Z" fill="#111111"/>
<path d="M3.06427 74.0266H6.39793C8.95635 74.0266 9.48685 75.8098 9.48685 77.0133C9.48685 78.2049 8.81604 79.9914 6.25932 79.9762H4.61986V83.7815H3.06427V74.0266V74.0266ZM4.61986 78.6235H6.34659C7.05165 78.6235 7.91758 78.2184 7.91758 77.0048C7.91758 75.7335 7.20395 75.3793 6.37395 75.3793H4.61986V78.6235" fill="#111111"/>
<path d="M10.7292 76.5961H12.1137V77.9132H12.141C12.3104 77.1504 13.185 76.5215 14.092 76.5215C14.4291 76.5215 14.4051 76.5266 14.5335 76.5419V78.0047C14.3264 77.9725 14.222 77.9555 14.0167 77.9555C13.007 77.9555 12.206 78.52 12.206 80.1048V83.8033H10.7292V76.5961" fill="#111111"/>
<path d="M58.8003 76.5961H60.1847V77.9132H60.2121C60.3764 77.1504 61.2595 76.5215 62.163 76.5215C62.4985 76.5215 62.4779 76.5266 62.6046 76.5419V78.0047C62.3992 77.9725 62.2897 77.9555 62.0826 77.9555C61.0764 77.9555 60.2772 78.52 60.2772 80.1048V83.8033H58.8003V76.5961" fill="#111111"/>
<path d="M15.9198 73.9978H17.3898V75.5047H15.9198V73.9978ZM15.9198 76.5743H17.3898V83.7815H15.9198V76.5743Z" fill="#111111"/>
<path d="M19.4518 76.5961H20.8465V77.5589L20.8739 77.5843C21.3137 76.7927 22.077 76.4741 22.9515 76.4741C24.401 76.4741 25.3182 77.3131 25.3182 78.9251V83.8033H23.8482V79.2946C23.8208 78.1708 23.4033 77.6792 22.539 77.6792C21.5567 77.6792 20.9235 78.4199 20.9235 79.4793V83.8033H19.4518V76.5961" fill="#111111"/>
<path d="M69.8811 83.8055H68.4812V82.8444L68.4573 82.8156C68.0158 83.6088 67.2542 83.9275 66.378 83.9275C64.9302 83.9275 64.0079 83.0936 64.0079 81.4748V76.6016H65.483V81.1019C65.5104 82.2325 65.9245 82.724 66.7922 82.724C67.771 82.724 68.4043 81.9833 68.4043 80.9239V76.6016H69.8811V83.8055" fill="#111111"/>
<path d="M31.5972 79.0403C31.4792 78.1047 30.8836 77.608 30.0707 77.608C29.3075 77.608 28.2345 77.9606 28.2345 80.2794C28.2345 81.6049 28.729 82.7914 30.0057 82.7914C30.8596 82.7914 31.4535 82.2541 31.5288 81.4693H33.0022C32.879 82.9728 31.7238 84 30.0057 84C27.9144 84 26.7645 82.5236 26.7645 80.2794C26.7645 77.9742 27.8614 76.4012 30.057 76.4012C31.6092 76.4012 32.9252 77.2148 33.0672 79.0403H31.5972" fill="#111111"/>
<path d="M35.7197 80.615C35.7197 81.8693 36.2913 82.7914 37.5149 82.7914C38.3671 82.7914 38.8583 82.4253 39.1201 81.632H40.5148C40.2479 83.0965 38.9763 84 37.5149 84C35.4202 84 34.2463 82.5541 34.2463 80.2065C34.2463 78.0301 35.487 76.4012 37.4755 76.4012C39.5719 76.4012 40.8913 78.3267 40.6312 80.615H35.7197V80.615ZM39.1594 79.5709C39.0995 78.4318 38.4818 77.608 37.4755 77.608C36.4522 77.608 35.7659 78.364 35.7197 79.5709H39.1594Z" fill="#111111"/>
<path d="M44.2867 81.5168C44.3089 82.4711 44.9336 82.7914 45.6763 82.7914C46.1999 82.7914 47.1394 82.6219 47.148 81.7981C47.1531 81.193 46.6346 80.9405 45.1321 80.554C44.1156 80.2981 43.1264 79.8285 43.1675 78.4318C43.2086 76.8555 44.8343 76.4012 45.8543 76.4012C47.1395 76.4012 48.4298 77.0063 48.411 78.62H47.0659C47.0317 77.903 46.354 77.5589 45.7481 77.5589C45.156 77.5589 44.5554 77.8301 44.5554 78.3962C44.5554 78.9386 44.8891 79.1505 46.2684 79.5116C47.8052 79.9082 48.5479 80.4709 48.5411 81.7032C48.5308 83.3576 46.9615 84 45.6643 84C44.0831 84 42.868 83.2948 42.9262 81.5168H44.2867" fill="#111111"/>
<path d="M72.7732 81.4913C72.7954 82.4423 73.4184 82.7914 74.1628 82.7914C74.6865 82.7914 75.626 82.6219 75.6328 81.7981C75.6414 81.193 75.1194 80.9405 73.6169 80.554C72.6021 80.2981 71.6129 79.8285 71.654 78.4318C71.6968 76.8555 73.3208 76.4012 74.339 76.4012C75.626 76.4012 76.9146 77.0063 76.8958 78.62H75.549C75.5182 77.903 74.8405 77.5589 74.233 77.5589C73.6409 77.5589 73.0402 77.8301 73.0402 78.3962C73.0402 78.9386 73.3756 79.1505 74.7549 79.5116C76.29 79.9082 77.031 80.4709 77.0276 81.7032C77.019 83.3576 75.4514 84 74.1491 84C72.5696 84 71.3528 83.2694 71.4127 81.4913H72.7732" fill="#111111"/>
<path d="M51.7 74.0266H58.4752V75.4878H55.8671V83.7815H54.2961V75.4878H51.7V74.0266Z" fill="#111111"/>
<path d="M77.9484 76.5742H79.0625V74.4147H80.5377V76.5742H81.869V77.7099H80.5377V81.6559C80.5377 82.3153 80.5907 82.6475 81.2462 82.6475C81.4584 82.6475 81.6586 82.6475 81.869 82.5916V83.7696C81.5473 83.7984 81.2376 83.8527 80.9107 83.8527C79.3722 83.8527 79.0899 83.2136 79.0625 82.0135V77.7099H77.9484V76.5742" fill="#111111"/>
</svg>
