<svg fill="none" viewBox="0 0 256 166" version="1.1" xmlns="http://www.w3.org/2000/svg" xmlns:svg="http://www.w3.org/2000/svg">
  <path fill="#95BCD1" d="M0 0h256v166H0z" opacity=".1" id="path834" />
  <g id="g968" transform="matrix(0.75197646,0,0,0.75197646,28.723706,62.433444)" style="fill:#111">
    <path d="m 88.2,15 -0.7,2.3 c -0.2,0.5 0.3,0.8 0.7,0.8 h 1.7 c 0.6,0 0.8,-0.4 0.9,-0.7 L 94.9,5 C 95.1,4.4 94.8,4 94.3,4 h -1.9 c -0.6,0 -0.8,0.3 -1,0.7 L 89.8,9.5 88.6,4.7 C 88.5,4.2 88.2,4 87.6,4 H 85.5 C 85,4 84.7,4.3 84.9,5 Z m 8.5,0 h 2.2 c 0.5,0 0.7,-0.2 0.7,-0.7 V 7.7 c 0,-0.5 0.3,-0.9 0.8,-0.9 0.5,0 0.8,0.4 0.8,1 v 6.5 c 0,0.5 0.2,0.7 0.7,0.7 h 2.2 c 0.5,0 0.7,-0.2 0.7,-0.7 V 7.8 c 0,-0.6 0.3,-1 0.8,-1 0.5,0 0.8,0.4 0.8,1 v 6.5 c 0,0.5 0.2,0.7 0.7,0.7 h 2.2 c 0.5,0 0.7,-0.2 0.7,-0.7 V 7.9 C 110,5.6 109,4 106.7,4 105.5,4 104.6,4.8 104.1,5.2 103.5,4.4 102.7,4 101.5,4 100.3,4 99.4,4.7 99.2,5 99.2,4.5 99,4.2 98.5,4.2 H 96.7 C 96.2,4.2 96,4.4 96,4.9 v 9.4 c 0,0.5 0.2,0.7 0.7,0.7 z m 4.3,24.3 c 0,1.8 -0.7,2.7 -2,2.7 -1.3,0 -2,-1 -2,-2.7 V 28.7 c 0,-1.8 0.7,-2.7 2,-2.7 1.3,0 2,1 2,2.7 z M 99,19 c -5.1,0 -11,2.4 -11,9.2 v 10.6 c 0,6.8 5.9,9.2 11,9.2 5.1,0 11,-2.4 11,-9.2 V 28.2 C 110,21.4 104.1,19 99,19 Z m 24.4,-4 c 1.2,0 2.1,-0.7 2.3,-0.9 0,0.5 0.2,0.7 0.7,0.7 h 1.8 c 0.5,0 0.7,-0.2 0.7,-0.7 V 4.7 C 128.9,4.2 128.7,4 128.2,4 H 126 c -0.5,0 -0.7,0.2 -0.7,0.7 v 6.6 c 0,0.5 -0.3,0.9 -0.8,0.9 -0.5,0 -0.8,-0.4 -0.8,-1 V 4.7 C 123.7,4.2 123.5,4 123,4 h -2.2 c -0.5,0 -0.7,0.2 -0.7,0.7 v 6.4 C 120,13.4 121,15 123.4,15 Z M 114,8 c 0,-0.7 0.3,-1 1,-1 0.7,0 1,0.4 1,1 v 4 c 0,0.7 -0.3,1 -1,1 -0.7,0 -1,-0.4 -1,-1 z m 1.5,7 c 2.1,0 4.5,-0.9 4.5,-3.5 v -4 C 120,4.9 117.6,4 115.5,4 113.4,4 111,4.9 111,7.5 v 4 c 0,2.6 2.4,3.5 4.5,3.5 z m -2.1,4 c -1,0 -1.4,0.5 -1.4,1.5 v 26.1 c 0,1 0.5,1.4 1.4,1.4 h 4.7 c 1,0 1.4,-0.5 1.4,-1.4 V 34.1 l 3.3,6.3 c 0.3,0.7 0.8,1 1.5,1 h 1 c 0.7,0 1.1,-0.3 1.5,-1 l 3.5,-6.3 v 12.4 c 0,1 0.5,1.4 1.4,1.4 h 5 c 0.8,0 1.3,-0.4 1.4,-1.1 V 34.1 l 3.3,6.3 c 0.3,0.7 0.8,1 1.5,1 h 1 c 0.7,0 1.1,-0.3 1.5,-1 l 3.5,-6.3 v 12.4 c 0,1 0.5,1.4 1.4,1.4 h 5 c 1,0 1.4,-0.5 1.4,-1.4 v -26 c 0,-1 -0.5,-1.5 -1.4,-1.5 h -4.9 c -1.3,0 -1.6,0.6 -2,1.2 l -5,9 -4.7,-9 c -0.3,-0.7 -0.6,-1.2 -2,-1.2 H 132 c -1.3,0 -1.6,0.6 -2,1.2 l -5,9 -4.7,-9 C 120,19.5 119.7,19 118.3,19 Z M 131.7,6.9 h 0.2 v 5.5 c 0,1.8 1.5,2.6 3,2.6 0.7,0 2.1,-0.1 2.1,-1 v -1.3 c 0,-0.5 -0.2,-0.6 -0.5,-0.6 h -0.3 c -0.4,0 -0.7,-0.2 -0.7,-0.7 V 6.9 h 0.9 c 0.5,0 0.7,-0.2 0.7,-0.7 V 4.8 c 0,-0.5 -0.2,-0.7 -0.7,-0.7 h -0.9 V 1.8 c 0,-0.6 -0.4,-0.9 -1.2,-0.7 l -1.7,0.5 c -0.6,0.2 -0.7,0.6 -0.7,1.2 v 1.3 h -0.2 c -0.5,0 -0.7,0.2 -0.7,0.7 v 1.5 c 0,0.4 0.2,0.6 0.7,0.6 z M 80.8,15 h 2.4 C 83.7,15 84,14.8 84,14.3 V 1.7 C 84,1.2 83.7,1 83.2,1 H 80.8 C 80.3,1 80,1.2 80,1.7 v 12.6 c 0,0.5 0.3,0.7 0.8,0.7 z m 179,35 h -2.6 c -0.2,0 -0.2,0.1 -0.2,0.2 v 0.5 c 0,0.1 0.1,0.2 0.2,0.2 h 0.6 c 0.1,0 0.1,0 0.1,0.1 v 2.8 c 0,0.1 0.1,0.2 0.2,0.2 h 0.7 c 0.1,0 0.2,-0.1 0.2,-0.2 V 51 c 0,-0.1 0,-0.1 0.1,-0.1 h 0.6 c 0.1,0 0.2,-0.1 0.2,-0.2 v -0.5 c 0.1,-0.1 0,-0.2 -0.1,-0.2 z m 4,0 H 263 c -0.2,0 -0.2,0.1 -0.3,0.2 l -0.8,1.2 -0.7,-1.2 c 0,-0.1 -0.1,-0.2 -0.3,-0.2 h -0.7 c -0.1,0 -0.2,0.1 -0.2,0.2 v 3.6 c 0,0.1 0.1,0.2 0.2,0.2 h 0.7 c 0.1,0 0.2,-0.1 0.2,-0.2 v -1.7 l 0.5,0.9 c 0.1,0.1 0.1,0.1 0.2,0.1 h 0.2 c 0.1,0 0.2,0 0.2,-0.1 l 0.5,-0.9 v 1.7 c 0,0.1 0.1,0.2 0.2,0.2 h 0.8 c 0.1,0 0.2,-0.1 0.2,-0.2 v -3.6 c 0.1,-0.1 0,-0.2 -0.1,-0.2 z M 73,5.3 C 73,5.1 73.1,5 73.4,5 H 74 c 0.5,0 1,0.3 1,1 0,0.7 -0.5,1 -1.1,1 H 73.3 C 73.1,7 73,6.9 73,6.7 Z M 69.7,15 h 2.4 c 0.5,0 0.7,-0.2 0.7,-0.7 v -4 C 72.8,10 73,9.9 73.2,9.9 H 74 c 3.2,0 5,-1.6 5,-4.5 C 79,2.6 76.7,1 74,1 H 69.7 C 69.2,1 69,1.2 69,1.7 v 12.6 c 0,0.5 0.2,0.7 0.7,0.7 z m 192.6,5 h -4.6 c -1.5,0 -2,0.7 -2.4,1.8 l -3.9,11.8 -3.1,-11.8 C 248,20.7 247.4,20 245.9,20 h -5.2 c -1.2,0 -2,0.8 -1.5,2.4 l 7.8,24.5 -1.7,5.3 c -0.4,1.2 0.7,1.9 1.8,1.9 h 4.3 c 1.4,0 2,-0.9 2.3,-1.8 L 263.9,22.4 C 264.4,20.8 263.5,20 262.3,20 Z M 79.6,48 c 5.1,0 7.4,-1 7.4,-3.1 v -2.3 c 0,-1.3 -0.8,-2.3 -2.1,-2.3 -0.9,0 -2,0.3 -3.5,0.3 -2.1,0 -3.1,-1.1 -3.1,-3.2 v -7.9 c 0,-2.1 1,-3.2 3.1,-3.2 1.5,0 2.6,0.3 3.5,0.3 1.3,0 2.1,-1 2.1,-2.3 V 22 C 87,19.9 84.8,18.9 79.6,18.9 73.9,19 69,21.5 69,28.1 v 10.8 c 0,6.6 4.9,9.1 10.6,9.1 z m 162.6,2 H 69.8 C 69.3,50 69,50.3 69,50.8 v 2.4 c 0,0.5 0.3,0.8 0.8,0.8 h 172.4 c 0.6,0 0.8,-0.3 0.8,-0.8 v -2.4 c 0,-0.5 -0.3,-0.8 -0.8,-0.8 z m -41.8,-2 h 5.7 c 1.3,0 1.9,-0.6 1.9,-1.8 V 29.3 c 0,-6 -2.7,-10.3 -8.7,-10.3 -3.2,0 -5.4,1.9 -6,2.5 0,-1.4 -0.6,-2 -1.9,-2 h -4.6 c -1.2,0 -1.8,0.6 -1.8,1.9 v 24.8 c 0,1.2 0.6,1.8 1.8,1.8 h 5.7 c 1.3,0 1.9,-0.6 1.9,-1.8 V 28.8 c 0,-1.4 0.8,-2.3 2.1,-2.3 1.3,0 2.1,1 2.1,2.6 v 17 c 0,1.3 0.6,1.9 1.8,1.9 z m 0.8,-33 -0.7,2.2 c -0.2,0.5 0.3,0.8 0.7,0.8 h 1.7 c 0.6,0 0.8,-0.3 0.9,-0.7 L 207.9,5 c 0.2,-0.6 -0.1,-1 -0.6,-1 h -1.9 c -0.6,0 -0.8,0.3 -1,0.7 l -1.6,4.8 -1.2,-4.8 C 201.5,4.2 201.2,4 200.6,4 h -2.1 c -0.5,0 -0.8,0.3 -0.6,1 z m -19.5,0 h 2.2 c 0.5,0 0.7,-0.2 0.7,-0.7 V 8.6 c 0,-1 0.6,-1.5 1.4,-1.6 0.5,0 1,-0.1 1,-0.7 V 4.6 C 187,4.3 186.9,4 186.4,4 c -1.2,0 -2,0.7 -2.3,0.9 0,-0.5 -0.2,-0.7 -0.7,-0.7 h -1.7 c -0.5,0 -0.7,0.2 -0.7,0.7 v 9.4 c 0,0.5 0.2,0.7 0.7,0.7 z M 192,8 c 0,-0.6 0.4,-1 1,-1 0.6,0 1,0.3 1,0.8 V 10 c 0,0.6 -0.4,1 -1,1 -0.6,0 -1,-0.4 -1,-1 z m -0.6,6.2 c 0.8,0 1.5,-0.3 1.9,-0.6 v 0.7 c 0,0.9 -0.8,1 -1.5,1 -1,0 -1.7,-0.4 -2.1,-0.4 -0.4,0 -0.7,0.3 -0.7,0.7 v 1.2 c 0,0.9 1.4,1.3 3.2,1.3 1.7,0 4.8,-0.6 4.8,-3.7 V 4.9 c 0,-0.5 -0.2,-0.7 -0.7,-0.7 h -1.8 C 194,4.2 193.8,4.4 193.7,5 193.5,4.8 192.6,4 191.4,4 189,4 188,5.6 188,8 v 2.2 c 0,2.3 1,4 3.4,4 z m 31.4,13 h 0.6 v 14.1 c 0,4.8 4.1,6.7 7.9,6.7 2,0 5.5,-0.3 5.5,-2.5 v -3.4 c 0,-1.2 -0.6,-1.5 -1.4,-1.5 h -0.8 c -1,0 -1.9,-0.5 -1.9,-1.9 V 27.2 h 2.4 c 1.2,0 1.8,-0.6 1.8,-1.8 v -3.7 c 0,-1.2 -0.6,-1.8 -1.8,-1.8 h -2.4 V 14 c 0,-1.5 -1,-2.4 -3.1,-1.8 l -4.4,1.2 c -1.5,0.4 -1.9,1.5 -1.9,3.1 v 3.4 h -0.6 c -1.2,0 -1.8,0.6 -1.8,1.8 v 3.7 c 0.1,1.2 0.7,1.8 1.9,1.8 z M 211.9,18 h 6.1 c 1.4,0 2,-0.6 2,-1.8 v -3.4 c 0,-1.2 -0.6,-1.8 -2,-1.8 h -6.1 c -1.3,0 -1.9,0.6 -1.9,1.8 v 3.4 c 0,1.2 0.6,1.8 1.9,1.8 z m 0,30 h 6.1 c 1.4,0 2,-0.6 2,-1.9 V 20.9 c 0,-1.3 -0.6,-1.9 -2,-1.9 h -6.1 c -1.3,0 -1.9,0.6 -1.9,1.9 v 25.2 c 0,1.3 0.6,1.9 1.9,1.9 z M 152.7,15 h 7.6 c 0.5,0 0.7,-0.2 0.7,-0.7 v -1.7 c 0,-0.5 -0.2,-0.7 -0.7,-0.7 h -4 c -0.3,0 -0.4,-0.1 -0.4,-0.4 V 9.6 c 0,-0.3 0.1,-0.4 0.4,-0.4 h 2.6 c 0.5,0 0.7,-0.2 0.7,-0.7 V 6.9 c 0,-0.5 -0.2,-0.7 -0.7,-0.7 h -2.6 c -0.3,0 -0.4,-0.1 -0.4,-0.4 V 4.5 c 0,-0.3 0.1,-0.4 0.4,-0.4 h 3.7 c 0.5,0 0.7,-0.2 0.7,-0.7 V 1.7 C 160.7,1.2 160.5,1 160,1 h -7.3 C 152.2,1 152,1.2 152,1.7 v 12.6 c 0,0.5 0.2,0.7 0.7,0.7 z M 175,7.8 c 0,-0.5 0.3,-0.8 1,-0.8 0.7,0 1,0.3 1,0.8 V 8 h -2 z m 1.7,7.2 c 2,0 3,-0.7 3,-1.6 v -0.9 c 0,-0.3 -0.2,-0.7 -0.7,-0.7 -0.6,0 -1.1,0.3 -2,0.3 -1.3,0 -1.7,-0.5 -1.7,-1.2 v -0.5 h 4 c 0.5,0 0.7,-0.2 0.7,-0.7 v -2 C 180,5.2 178.1,4 176,4 c -2.1,0 -4,1.2 -4,3.7 v 3.1 c 0,2.8 1.9,4.2 4.7,4.2 z M 159,20.8 v 16.9 c 0,6 2.7,10.3 8.7,10.3 3.2,0 5.4,-1.9 6,-2.4 0,1.3 0.6,1.9 1.9,1.9 h 4.6 c 1.2,0 1.8,-0.6 1.8,-1.9 V 20.8 c 0,-1.2 -0.6,-1.8 -1.8,-1.8 h -5.7 c -1.3,0 -1.9,0.6 -1.9,1.8 v 17.4 c -0.1,1.4 -0.9,2.3 -2.1,2.3 -1.3,0 -2.1,-1 -2.1,-2.6 v -17 c 0,-1.2 -0.6,-1.8 -1.8,-1.8 h -5.7 C 159.6,19 159,19.6 159,20.8 Z M 138.7,15 h 2.2 c 0.5,0 0.7,-0.2 0.7,-0.7 V 7.7 c 0,-0.5 0.3,-0.9 0.8,-0.9 0.5,0 0.8,0.4 0.8,1 v 6.5 c 0,0.5 0.2,0.7 0.7,0.7 h 2.2 c 0.5,0 0.7,-0.2 0.7,-0.7 V 7.9 c 0,-2.3 -1,-3.9 -3.4,-3.9 -0.8,0 -1.5,0.3 -1.9,0.6 V 1.7 C 141.5,1.2 141.3,1 140.8,1 h -2.2 c -0.5,0 -0.7,0.2 -0.7,0.7 v 12.6 c 0.1,0.5 0.3,0.7 0.8,0.7 z m 24,0 h 2.2 c 0.5,0 0.7,-0.2 0.7,-0.7 V 7.7 c 0,-0.5 0.3,-0.9 0.8,-0.9 0.5,0 0.8,0.4 0.8,1 v 6.5 c 0,0.5 0.2,0.7 0.7,0.7 h 2.2 c 0.5,0 0.7,-0.2 0.7,-0.7 V 7.9 c 0,-2.3 -1,-3.9 -3.4,-3.9 -1.2,0 -2.1,0.7 -2.3,1 0,-0.5 -0.2,-0.8 -0.7,-0.8 h -1.8 c -0.5,0 -0.7,0.2 -0.7,0.7 v 9.4 c 0.1,0.5 0.3,0.7 0.8,0.7 z" id="path953" style="fill:#111" />
    <path class="st1" d="m 16,26.1 h -0.7 c -0.3,0 -0.4,-0.2 -0.4,-0.5 v -1.7 c 0,-0.3 0.2,-0.4 0.4,-0.4 H 16 c 0.7,0 1.3,0.5 1.3,1.3 -0.1,0.8 -0.6,1.3 -1.3,1.3 M 16,20 H 11.7 C 11.2,20 11,20.2 11,20.8 v 13.5 c 0,0.5 0.2,0.7 0.7,0.7 h 2.4 c 0.5,0 0.7,-0.2 0.7,-0.7 V 30 c 0,-0.3 0.2,-0.4 0.4,-0.4 H 16 c 3.2,0 5,-1.7 5,-4.8 0,-1.5 -0.5,-2.7 -1.4,-3.5 C 18.6,20.4 17.4,20 16,20 m 14.3,11.7 h -4 c -0.3,0 -0.4,-0.2 -0.4,-0.5 v -2 c 0,-0.3 0.1,-0.4 0.4,-0.4 h 2.6 c 0.5,0 0.7,-0.2 0.7,-0.7 v -1.8 c 0,-0.5 -0.2,-0.8 -0.7,-0.8 h -2.6 c -0.3,0 -0.4,-0.2 -0.4,-0.4 v -1.3 c 0,-0.3 0.1,-0.5 0.4,-0.5 H 30 c 0.5,0 0.7,-0.2 0.7,-0.7 V 20.8 C 30.7,20.3 30.5,20 30,20 H 22.7 C 22.2,20 22,20.2 22,20.8 v 13.5 c 0,0.5 0.2,0.7 0.7,0.7 h 7.6 c 0.5,0 0.7,-0.2 0.7,-0.7 v -1.8 c 0,-0.6 -0.2,-0.8 -0.7,-0.8 M 38.2,20 C 35,20 33,21.7 33,24.9 V 30 c 0,3.2 2.1,4.9 5.2,4.9 2.3,0 3.8,-0.6 3.8,-1.4 v -1.3 c 0,-0.5 -0.3,-0.8 -0.8,-0.8 -0.1,0 -0.4,0 -0.9,0.2 -0.5,0.1 -1,0.2 -1.4,0.2 -1.3,0 -1.9,-0.6 -1.9,-2.1 v -4.4 c 0,-1.6 0.7,-2.1 1.9,-2.1 0.4,0 0.9,0 1.4,0.2 0.5,0.1 0.8,0.2 0.9,0.2 0.6,0 0.8,-0.3 0.8,-0.8 V 21.5 C 42,20.6 40.5,20 38.2,20" id="path955" style="fill:#000000" />
    <path d="M 41.1,42.2 C 37.3,46 32.2,48.4 26.4,48.4 20.7,48.4 15.5,46.1 11.7,42.2 8,38.4 5.7,33.1 5.7,27.3 a 21,21 0 0 1 6.1,-14.9 c 3.8,-3.8 8.9,-6.2 14.7,-6.2 5.7,0 10.9,2.3 14.7,6.2 a 21,21 0 0 1 6.1,14.9 c -0.1,5.8 -2.4,11.1 -6.2,14.9 M 45.2,8.4 C 40.4,3.6 33.8,0.6 26.5,0.6 19.2,0.6 12.6,3.6 7.8,8.4 3,13.2 0,19.9 0,27.3 0,34.7 3,41.4 7.7,46.2 12.5,51 19.1,54 26.4,54 33.7,54 40.3,51 45.1,46.2 A 26.6,26.6 0 0 0 52.8,27.3 C 52.9,19.9 49.9,13.2 45.2,8.4" id="path957" style="fill:#000000" />
  </g>
</svg>
