<svg width="256" height="166" viewBox="0 0 256 166" fill="none" xmlns="http://www.w3.org/2000/svg">
<rect opacity="0.1" width="256" height="166" fill="#95BCD1"/>
<path fill-rule="evenodd" clip-rule="evenodd" d="M100.75 110.489C97.7567 103.418 94.8083 96.4544 91.8279 89.4146C92.4588 89.1426 93.0403 88.8865 93.6264 88.6405C94.9915 88.0672 96.3442 87.4615 97.7285 86.9379C99.7376 86.178 101.642 85.1385 103.755 84.6565C107.301 83.8474 110.578 84.9507 112.29 88.441C112.749 89.3773 113.088 90.3398 113.207 91.3865C113.435 93.3871 112.844 95.1215 111.57 96.6551C111.359 96.91 111.129 97.1499 110.844 97.4672C112.182 98.4035 113.576 99.2341 114.932 100.117C116.301 101.009 117.685 101.879 119.161 102.822C117.298 103.649 115.487 104.375 113.676 105.111C112.463 104.33 111.271 103.567 110.085 102.795C108.901 102.023 107.729 101.233 106.538 100.47C106.395 100.378 106.144 100.329 105.995 100.388C104.889 100.83 103.797 101.304 102.627 101.799C103.565 104.029 104.491 106.232 105.454 108.522C103.876 109.181 102.34 109.823 100.75 110.489ZM100.868 97.6674C102.46 97.0064 103.933 96.4046 105.396 95.7816C105.821 95.6003 106.239 95.3857 106.63 95.1388C107.907 94.333 108.411 93.1161 108.037 91.6699C107.575 89.8842 105.939 88.8871 104.176 89.362C102.541 89.8022 101.046 90.5771 99.4807 91.1818C99.0953 91.3306 98.7188 91.5018 98.3273 91.6668C99.1819 93.6855 100.011 95.6431 100.868 97.6674Z" fill="#111111"/>
<path fill-rule="evenodd" clip-rule="evenodd" d="M133.489 76.8017C135.19 76.517 136.823 76.2436 138.535 75.9572C138.704 76.9272 138.859 77.8315 139.02 78.7343C139.291 80.251 139.572 81.7664 139.841 83.2836C140.156 85.0617 140.474 86.8395 140.769 88.621C141.029 90.1966 141.113 91.7865 140.824 93.3627C140.4 95.6738 139.237 97.5458 137.205 98.8083C134.453 100.518 131.421 101.065 128.244 100.587C126.03 100.254 124.215 99.1304 122.927 97.2706C121.918 95.8144 121.324 94.1986 121.026 92.4595C120.63 90.1382 120.192 87.8234 119.778 85.5049C119.461 83.7271 119.151 81.9477 118.844 80.1681C118.8 79.9139 118.787 79.6543 118.754 79.3489C120.438 79.0538 122.069 78.7678 123.758 78.4721C123.815 78.8188 123.86 79.0951 123.908 79.3709C124.259 81.4328 124.608 83.495 124.964 85.556C125.275 87.357 125.571 89.1612 125.917 90.9557C126.147 92.1443 126.432 93.3235 127.211 94.3148C128.036 95.3619 129.085 95.9618 130.443 96.0126C131.699 96.06 132.872 95.8073 133.941 95.1351C134.953 94.4991 135.538 93.5851 135.767 92.4286C135.958 91.4587 135.885 90.4921 135.728 89.532C135.379 87.4024 135.007 85.2767 134.639 83.1499C134.336 81.3926 134.027 79.6362 133.716 77.8802C133.658 77.5565 133.581 77.2364 133.489 76.8017Z" fill="#111111"/>
<path fill-rule="evenodd" clip-rule="evenodd" d="M125.484 61.7953C127.461 63.6612 129.414 65.5053 131.401 67.3824C130.961 67.7084 130.453 67.6537 130 67.7617C129.051 67.988 128.08 68.1275 127.138 68.3756C126.75 68.478 126.516 68.3996 126.255 68.1474C125.032 66.9614 123.798 65.7854 122.569 64.6049C122.236 64.2845 121.916 63.9496 121.568 63.6452C121.448 63.5399 121.248 63.4274 121.111 63.4531C120.133 63.6359 119.161 63.8538 118.099 64.0796C118.522 66.0727 118.934 68.0161 119.358 70.0146C117.945 70.3222 116.608 70.6134 115.204 70.9191C115.141 70.6411 115.085 70.4122 115.036 70.182C114.822 69.1704 114.616 68.1571 114.394 67.1471C113.998 65.3426 113.585 63.5422 113.196 61.7365C112.808 59.9294 112.45 58.1161 112.061 56.309C111.78 55.0013 111.469 53.6996 111.152 52.309C111.642 52.1941 112.065 52.0881 112.491 51.9962C113.966 51.6782 115.442 51.3617 116.919 51.0508C118.179 50.7856 119.431 50.4617 120.704 50.2834C122.854 49.9821 124.875 50.3005 126.517 51.8716C127.513 52.8239 128.035 54.0237 128.25 55.3567C128.372 56.1156 128.43 56.8687 128.31 57.6536C128.084 59.134 127.336 60.273 126.226 61.224C126.008 61.4103 125.772 61.5749 125.484 61.7953ZM117.292 60.4112C118.588 60.1536 119.774 59.9608 120.934 59.6713C121.635 59.4965 122.347 59.3453 122.988 58.9371C124.626 57.8939 124.198 55.4928 123.164 54.6919C122.365 54.0736 121.465 54.0739 120.559 54.2123C119.442 54.3834 118.336 54.6353 117.229 54.8685C116.869 54.9442 116.521 55.071 116.158 55.177C116.538 56.9302 116.909 58.6429 117.292 60.4112Z" fill="#111111"/>
<path fill-rule="evenodd" clip-rule="evenodd" d="M175.614 87.7256C178.144 85.0846 180.584 82.5387 183.038 79.9767C184.894 80.3788 186.732 80.7769 188.639 81.1901C188.506 81.3608 188.428 81.4876 188.325 81.5903C185.576 84.3326 182.827 87.0744 180.074 89.812C179.214 90.6671 178.344 91.5128 177.476 92.3593C177.183 92.644 177.021 92.964 176.934 93.3796C176.539 95.2745 176.091 97.1583 175.668 99.0471C175.499 99.7989 175.346 100.554 175.182 101.307C175.164 101.392 175.123 101.472 175.06 101.646C173.448 101.298 171.833 100.95 170.163 100.59C170.279 99.9685 170.373 99.3879 170.497 98.8139C170.776 97.5237 171.069 96.2367 171.357 94.9487C171.562 94.0258 171.778 93.105 171.97 92.1793C172.013 91.9742 172.038 91.7317 171.969 91.5433C171.169 89.3546 170.343 87.1748 169.535 84.9885C168.979 83.4826 168.448 81.9674 167.892 80.4613C167.512 79.4302 167.101 78.41 166.718 77.38C166.613 77.0992 166.555 76.8015 166.446 76.4006C168.421 76.8251 170.299 77.2292 172.206 77.6394C173.331 80.9677 174.454 84.2906 175.614 87.7256Z" fill="#111111"/>
<path fill-rule="evenodd" clip-rule="evenodd" d="M76.9315 103.935C74.9858 105.235 73.0808 106.507 71.1222 107.816C70.234 106.518 69.3825 105.275 68.4792 103.956C73.7935 100.401 79.0525 96.8824 84.3434 93.3431C85.2196 94.6267 86.0842 95.8927 86.981 97.2063C85.0486 98.5019 83.1484 99.7761 81.1739 101.1C84.6199 106.148 88.0371 111.153 91.4656 116.176C90.0558 117.116 88.68 118.032 87.2284 119C83.7826 113.959 80.3644 108.957 76.9315 103.935Z" fill="#111111"/>
<path fill-rule="evenodd" clip-rule="evenodd" d="M148.008 50.6233C147.272 51.6775 146.558 52.6997 145.832 53.7416C144.85 53.0997 143.878 52.5483 142.796 52.1922C141.775 51.8562 140.748 51.771 139.712 52.018C138.713 52.2562 138.333 52.8669 138.421 53.8694C138.481 54.5546 138.982 54.8432 139.5 55.0991C139.914 55.3044 140.361 55.4554 140.807 55.5871C141.954 55.9259 143.117 56.2158 144.258 56.5721C145.258 56.8841 146.184 57.3529 147.001 58.0207C148.113 58.9298 148.554 60.1538 148.601 61.5165C148.65 62.9073 148.358 64.2259 147.457 65.3606C146.776 66.2183 145.892 66.7888 144.883 67.1724C143.725 67.6128 142.513 67.7409 141.276 67.7212C139.233 67.6883 137.316 67.1804 135.54 66.2006C134.774 65.7779 134.076 65.2349 133.303 64.7174C134.184 63.6736 135.005 62.7009 135.839 61.7134C136.384 62.0729 136.907 62.4288 137.44 62.7682C138.951 63.729 140.606 64.1458 142.39 63.9485C143.152 63.8644 143.884 63.6219 144.216 62.8216C144.57 61.9706 144.282 61.1513 143.438 60.7768C142.692 60.4452 141.915 60.1722 141.135 59.9236C139.996 59.5604 138.826 59.2858 137.698 58.8919C136.644 58.5237 135.689 57.9584 135.024 57.0267C134.808 56.7246 134.584 56.4027 134.476 56.0557C134.034 54.6307 133.973 53.1899 134.536 51.7814C135.193 50.14 136.446 49.1371 138.114 48.5733C138.711 48.3717 139.305 48.2399 139.931 48.196C141.546 48.0824 143.128 48.2021 144.672 48.7269C145.773 49.1014 146.773 49.6585 147.725 50.309C147.813 50.3691 147.872 50.4702 148.008 50.6233Z" fill="#111111"/>
<path fill-rule="evenodd" clip-rule="evenodd" d="M153.016 94.0982C156.877 94.2942 160.651 94.486 164.477 94.6803C164.409 96.2204 164.344 97.7053 164.276 99.269C158.733 98.9969 153.254 98.7275 147.695 98.4543C148.07 90.8064 148.441 83.2428 148.816 75.5992C150.544 75.7782 152.21 75.6871 153.928 75.8848C153.623 81.9788 153.321 88.0044 153.016 94.0982Z" fill="#111111"/>
<path fill-rule="evenodd" clip-rule="evenodd" d="M86.9147 62.949C87.4219 62.6859 87.8482 62.4577 88.2806 62.242C89.1724 61.7974 90.0731 61.3706 90.9576 60.9126C91.2562 60.758 91.4586 60.7949 91.7422 60.978C93.9876 62.4274 96.2489 63.8524 98.507 65.2831C98.5986 65.341 98.7033 65.3782 98.8917 65.4678C99.0645 63.9625 99.101 62.4988 99.2328 61.0439C99.3655 59.5759 99.4958 58.1076 99.628 56.6316C101.038 55.9339 102.422 55.2494 103.921 54.5076C103.88 54.9229 103.849 55.2174 103.82 55.512C103.62 57.5521 103.433 59.5934 103.217 61.6317C103.018 63.516 102.83 65.4033 102.552 67.2768C102.446 67.9894 102.76 68.5149 103.034 69.0717C103.751 70.5299 104.508 71.9691 105.246 73.4171C105.466 73.8482 105.678 74.2831 105.933 74.7964C104.671 75.4284 103.434 76.0471 102.152 76.6889C101.92 76.2502 101.702 75.8519 101.498 75.4467C100.655 73.7771 99.8296 72.0985 98.9639 70.4405C98.81 70.1456 98.5347 69.8679 98.2466 69.6937C96.2979 68.5162 94.3282 67.3726 92.3703 66.2098C90.5846 65.15 88.8053 64.0798 86.9147 62.949Z" fill="#111111"/>
</svg>
