<svg width="74" height="74" viewBox="0 0 74 74" fill="none" xmlns="http://www.w3.org/2000/svg">
<path d="M15.1988 31.3353C14.388 31.3353 13.9688 31.8455 13.8253 32.6425H16.4647C16.3874 31.8455 15.891 31.3353 15.1988 31.3353Z" fill="#111111"/>
<path d="M22.2452 43.1777C21.3765 43.1777 20.8663 43.9802 20.8663 45.1303C20.8663 46.3217 21.3737 47.0691 22.2176 47.0691C23.1278 47.0691 23.6628 46.2803 23.6628 45.1551C23.6628 44.0078 23.1939 43.1777 22.2452 43.1777Z" fill="#111111"/>
<path d="M7.09056 40.8887H5.25656V43.2439H7.03541C7.97309 43.2439 8.45297 42.8027 8.45297 42.0801C8.45297 41.3851 8.00067 40.8887 7.09056 40.8887Z" fill="#111111"/>
<path d="M13.511 46.603C13.511 47.1518 13.9136 47.3642 14.4486 47.3642C15.265 47.3642 15.8276 46.8705 15.8276 46.1341V45.3178C15.5463 45.464 15.1464 45.5715 14.7051 45.6791C13.8585 45.8666 13.511 46.079 13.511 46.603Z" fill="#111111"/>
<path d="M33.4009 43.0839C32.4522 43.0839 31.9558 43.9278 31.9558 45.1717C31.9558 46.4155 32.4495 47.2456 33.4009 47.2456C34.3497 47.2456 34.8599 46.4155 34.8599 45.1717C34.8599 43.9251 34.3524 43.0839 33.4009 43.0839Z" fill="#111111"/>
<path d="M37 0C16.5667 0 0 16.5667 0 37C0 57.4333 16.5667 74 37 74C57.4333 74 74 57.4333 74 37C74 16.5667 57.4333 0 37 0ZM18.8447 30.017H19.7328V27.8989H21.8122V30.017H23.0285V31.3491H21.8122V34.4848C21.8122 35.0088 22.0991 35.1384 22.5569 35.1384C22.7389 35.1384 22.9485 35.1246 23.0285 35.1246V36.6801C22.8465 36.7325 22.441 36.7849 21.8646 36.7849C20.6236 36.7849 19.7328 36.3795 19.7328 34.9426V31.3491H18.8447V30.017ZM2.87373 27.3639H5.2014L7.97309 32.0551C8.1165 32.3171 8.61292 33.2437 8.61292 33.2437H8.6405C8.6405 33.2437 8.61292 32.1185 8.61292 31.7931V27.3639H10.8744V36.7104H8.54673L5.80262 32.0827C5.64542 31.8345 5.13521 30.8278 5.13521 30.8278H5.11039C5.11039 30.8278 5.13521 32.0303 5.13521 32.3557V36.7077H2.87373V27.3639V27.3639ZM10.9434 48.5804H8.64326C8.38953 48.4343 8.42815 47.309 8.28198 46.3603C8.16063 45.4778 7.70558 44.9952 6.69067 44.9952H5.25932V48.5804H2.89028V39.016H7.46564C9.36583 39.016 10.811 39.9923 10.811 41.7712C10.811 42.8826 10.2621 43.6989 9.15347 44.085V44.1264C9.9836 44.4077 10.4111 44.929 10.5435 45.8777C10.7448 47.1353 10.6096 48.3377 10.9461 48.4591V48.5804H10.9434ZM18.1525 48.5804H16.04C15.9324 48.4343 15.8662 48.1667 15.8138 47.8192H15.7862C15.3836 48.3956 14.7823 48.7569 13.7537 48.7569C12.3885 48.7569 11.4122 48.0206 11.4122 46.6692C11.4122 45.1579 12.6174 44.7028 14.035 44.5153C15.3201 44.3553 15.7752 44.2202 15.7752 43.7513C15.7752 43.3101 15.4939 43.015 14.8375 43.015C14.1425 43.015 13.795 43.3239 13.7261 43.8975H11.7183C11.7707 42.6261 12.7498 41.5423 14.821 41.5423C15.8497 41.5423 16.5474 41.7298 17.0411 42.1049C17.6285 42.5323 17.9098 43.2025 17.9098 44.0575V47.5076C17.9098 48.0564 17.9622 48.3626 18.1497 48.4839V48.5804H18.1525ZM15.3174 35.3756C15.88 35.3756 16.2468 35.1274 16.4288 34.7082H18.5083C18.3649 35.3094 17.9732 35.8858 17.383 36.2885C16.8204 36.6801 16.142 36.9035 15.2926 36.9035C13.0835 36.9035 11.7238 35.3756 11.7238 33.3485C11.7238 31.3491 13.1221 29.8184 15.1602 29.8184C16.1144 29.8184 16.8728 30.1328 17.4465 30.6541C18.2435 31.3849 18.6351 32.5487 18.6241 33.9084H13.8143C13.9439 34.813 14.4404 35.3756 15.3174 35.3756ZM25.7891 48.5804H23.7014V47.6565H23.6738C23.2601 48.3653 22.5514 48.7928 21.655 48.7928C19.9038 48.7928 18.6572 47.4414 18.6572 45.1551C18.6572 43.015 19.8872 41.5285 21.655 41.5285C22.6175 41.5285 23.1664 41.9311 23.569 42.5048H23.6104V39.0133H25.7919V48.5804H25.7891ZM25.9298 36.7077H23.7979V30.0142H25.9298V36.7077ZM25.9298 29.0876H23.7979V27.3611H25.9298V29.0876ZM29.0131 48.5804H26.8344V41.7298H29.0159V48.5804H29.0131ZM29.0131 40.7838H26.8344V39.0188H29.0159V40.7838H29.0131ZM29.1179 36.7077H26.9612V27.3639H29.1179V36.7077V36.7077ZM33.4147 48.7955C31.2194 48.7955 29.7495 47.2291 29.7495 45.1689C29.7495 43.1087 31.2222 41.5423 33.4147 41.5423C35.621 41.5423 37.0662 43.1087 37.0662 45.1689C37.0662 47.2318 35.621 48.7955 33.4147 48.7955Z" fill="#111111"/>
</svg>
