<svg width="256" height="166" viewBox="0 0 256 166" fill="none" xmlns="http://www.w3.org/2000/svg">
<rect opacity="0.1" width="256" height="166" fill="#95BCD1"/>
<path d="M48.7875 76.4545C47.4921 76.5394 45.8514 78.1515 45.4196 79.4242C45.4196 78.6606 45.2469 77.1333 46.0241 75.9455C45.2469 75.8606 45.2469 74.9273 44.4697 74.503C45.0742 74.2485 46.1105 74.6727 46.1968 74.8424C47.2331 75.8606 48.183 76.3697 49.651 75.6061C49.4783 76.0303 49.2192 76.2 48.7875 76.4545ZM47.7512 72.8909C48.2693 72.0424 48.442 71.4485 47.9239 70.6848C47.2331 71.1091 46.6286 71.8727 46.4559 72.8061C46.4559 72.297 46.4559 72.1273 46.1105 72.0424C45.6787 72.9758 45.7651 74.0788 46.5422 74.6727C46.1968 73.9091 46.2832 73.2303 47.1467 72.5515C46.3695 73.5697 46.5422 75.097 47.4921 75.5212C46.3695 73.8242 49.1329 73.6545 49.3056 72.297C48.3557 72.4667 48.0103 72.6364 47.7512 72.8909ZM44.038 77.7273C43.7789 78.0667 43.8653 78.4061 44.1243 78.6606C44.2107 78.3212 44.3834 78.1515 44.6424 77.897C44.3834 77.897 44.2107 77.8121 44.038 77.7273ZM44.8152 75.7758C44.1243 76.1152 43.7789 76.2848 43.6925 76.5394C43.9516 75.7758 43.9516 75.2667 43.3471 74.6727C42.9154 75.1818 42.5699 76.0303 42.5699 76.7939C42.4836 76.3697 42.3972 76.2848 42.0518 76.2C41.8791 77.0485 42.1382 77.3879 42.829 77.897C42.6563 77.4727 42.6563 77.1333 42.9154 76.4545C42.7426 77.3879 42.9154 78.3212 43.9516 78.7455C42.7426 77.6424 44.9879 76.8788 44.8152 75.7758ZM47.8376 92.1515C48.0103 92.0667 48.183 91.9818 48.2693 91.7273C47.9239 91.5576 47.5785 91.2182 47.2331 90.8788C47.3194 91.303 47.5785 91.7273 47.8376 92.1515ZM47.4921 90.4545C46.974 90.3697 46.5422 90.0303 46.2832 89.5212C46.3695 90.0303 46.5422 90.3697 46.7149 90.6242C46.3695 90.7939 45.9378 90.7091 45.5923 90.4545C46.0241 91.303 46.7149 91.6424 47.5785 92.1515C47.2331 91.7273 47.1467 91.303 47.0604 90.8788C47.2331 90.7939 47.4058 90.6242 47.4921 90.4545ZM58.9773 90.9636C58.7182 91.303 58.3728 91.5576 58.0274 91.8121C58.1137 92.0667 58.2864 92.1515 58.4591 92.2364C58.7182 91.7273 58.9773 91.303 58.9773 90.9636ZM59.2363 90.8788C59.15 91.303 58.9773 91.6424 58.6319 92.1515C59.4954 91.6424 60.1862 91.303 60.7044 90.5394C60.3589 90.7939 59.9272 90.8788 59.4954 90.7091C59.7545 90.3697 59.8408 90.0303 59.9272 89.6061C59.6681 90.1152 59.2363 90.4545 58.7182 90.5394C58.8909 90.6242 59.0636 90.7939 59.2363 90.8788ZM54.4005 92.0667V92.2364H54.4868C54.5732 92.2364 54.5732 92.2364 54.5732 92.1515C54.4868 92.0667 54.4868 91.9818 54.4005 92.0667ZM58.2001 89.6061C56.9048 90.7939 55.1777 91.5576 53.1915 91.5576C51.2054 91.5576 49.4783 90.7939 48.183 89.6061C48.0966 90.0303 47.8376 90.6242 47.4921 90.7939C48.9602 92.1515 50.9463 93 53.2779 93C55.5231 93 57.5956 92.2364 59.0636 90.7939C58.6319 90.6242 58.2001 90.0303 58.2001 89.6061ZM49.8237 92.0667L49.651 91.9818L49.7374 91.6424L49.4783 91.897L49.3056 91.8121L49.3919 91.1333L49.5646 91.2182L49.4783 91.5576L49.8237 91.303L49.9964 91.3879L49.9101 91.7273L50.1691 91.4727L50.3418 91.5576L49.8237 92.0667ZM51.119 91.897L50.86 91.8121V91.897L51.119 91.9818V92.1515L50.86 92.0667V92.1515L51.119 92.2364V92.4061L50.6873 92.2364L50.86 91.6424L51.2917 91.8121L51.119 91.897ZM52.5007 92.2364C52.587 92.3212 52.6734 92.3212 52.6734 92.4909C52.6734 92.5758 52.587 92.6606 52.4143 92.6606C52.328 92.6606 52.328 92.6606 52.2416 92.5758V92.4061C52.328 92.4909 52.328 92.4909 52.4143 92.4909C52.5007 92.4909 52.5007 92.4909 52.5007 92.4909C52.5007 92.4909 52.5007 92.4061 52.4143 92.4061C52.328 92.3212 52.2416 92.3212 52.328 92.2364C52.328 92.1515 52.4143 92.0667 52.587 92.0667C52.6734 92.0667 52.7598 92.0667 52.7598 92.1515V92.3212C52.587 92.1515 52.587 92.1515 52.5007 92.2364C52.4143 92.1515 52.5007 92.1515 52.5007 92.2364C52.5007 92.2364 52.4143 92.2364 52.5007 92.2364ZM53.1915 92.6606V91.9818H53.6233V92.1515H53.3642V92.2364H53.6233V92.4061H53.3642V92.4909H53.6233V92.6606H53.1915V92.6606ZM54.6596 92.4909L54.5732 92.3212C54.4868 92.2364 54.4868 92.2364 54.4005 92.2364V92.4909H54.1414L54.0551 91.8121H54.3141C54.4868 91.8121 54.5732 91.8121 54.6596 91.9818C54.6596 92.0667 54.6596 92.0667 54.5732 92.1515L54.6596 92.2364V92.4909ZM55.6958 92.3212L55.5231 92.4061L55.0913 91.897L55.3504 91.8121L55.6095 92.1515V91.7273L55.7822 91.6424L55.6958 92.3212ZM56.3866 92.0667L56.1276 91.4727L56.5593 91.303L56.6457 91.3879L56.3866 91.4727L56.473 91.5576L56.7321 91.4727L56.8184 91.5576L56.5593 91.6424L56.6457 91.7273L56.9048 91.6424L56.9911 91.7273L56.3866 92.0667ZM48.0966 86.0424C47.9239 87.0606 47.1467 87.4848 46.1968 87.7394C47.4058 87.1455 48.183 85.9576 47.7512 84.6848C48.0103 86.7212 45.4196 85.6182 44.6424 86.7212C45.506 86.9758 45.9378 87.0606 46.2832 86.9758C45.4196 87.4848 44.9879 87.9091 45.0742 88.8424C45.9378 88.7576 46.8013 88.3333 47.4058 87.5697C47.1467 88.0788 47.1467 88.1636 47.4058 88.4182C48.0966 87.9091 48.442 87.1455 48.0966 86.0424ZM46.7149 83.2424C47.2331 83.497 47.4921 83.497 48.0103 83.3273C47.6648 82.5636 47.3194 82.3091 46.6286 82.1394C47.3194 82.0545 47.5785 81.7152 47.5785 81.1212C46.3695 81.3758 44.3834 80.697 45.506 76.7091C43.8653 78.7455 44.8152 81.9697 46.0241 83.7515C44.7288 82.3091 44.2107 80.3576 44.3834 78.6606C43.9516 79.6788 43.8653 80.697 44.038 81.4606C44.2107 82.4788 44.1243 83.2424 43.5198 83.8364C43.9516 83.9212 44.3834 83.7515 44.8152 83.4121C44.5561 84.0061 44.5561 84.7697 44.9015 85.2788C45.3333 85.1091 45.5923 84.7697 45.6787 84.3455C45.8514 84.4303 46.974 85.1091 46.8013 85.7879C47.4921 85.4485 47.4921 84.8545 47.3194 84.3455C47.1467 83.7515 46.8877 83.4121 46.7149 83.2424ZM58.9773 88.503C59.2363 88.2485 59.15 88.0788 58.8909 87.6545C59.4954 88.4182 60.4453 88.8424 61.2225 88.9273C61.3088 87.9939 60.8771 87.5697 60.0135 87.0606C60.3589 87.1455 60.7044 87.0606 61.6543 86.8061C60.8771 85.703 58.2864 86.8061 58.5455 84.7697C58.1137 86.0424 58.8909 87.2303 60.0999 87.8242C59.0636 87.5697 58.3728 87.1455 58.2001 86.1273C57.8547 87.1455 58.1137 87.9091 58.9773 88.503ZM52.328 75.9455C51.9826 76.2 51.8099 76.7939 52.1553 77.1333C52.5007 76.8788 52.587 76.3697 52.328 75.9455ZM52.1553 75.8606C51.8099 75.6061 51.2054 75.6909 50.9463 76.0303C51.3781 76.2848 51.8962 76.2 52.1553 75.8606ZM53.6233 76.0303C53.3642 75.6061 52.7598 75.6061 52.4143 75.8606C52.6734 76.2 53.1915 76.2848 53.6233 76.0303ZM54.8323 73.7394C54.8323 73.3152 54.7459 72.9758 54.4868 72.6364H53.7097C54.0551 72.9758 54.1414 73.3152 54.1414 73.7394H54.8323ZM54.8323 74.1636H54.1414C54.0551 74.7576 53.796 75.5212 53.9687 76.4545C54.2278 76.3697 54.4005 76.3697 54.6596 76.3697C54.5732 75.5212 54.7459 74.7576 54.8323 74.1636ZM62.2587 78.8303C63.295 78.3212 63.4677 77.3879 63.295 76.5394C63.5541 77.1333 63.6404 77.4727 63.3813 77.9818C63.9858 77.4727 64.2449 77.1333 64.1585 76.2848C63.8995 76.2848 63.8131 76.4545 63.7268 76.8788C63.7268 76.0303 63.4677 75.2667 62.9496 74.7576C62.3451 75.3515 62.4314 75.8606 62.6042 76.6242C62.4314 76.3697 62.1724 76.2 61.4815 75.8606C61.3088 76.8788 63.5541 77.6424 62.2587 78.8303ZM62.6905 83.8364C62.086 83.2424 61.9133 82.4788 62.1724 81.4606C62.3451 80.8667 62.4314 80.0182 62.086 79C61.827 79.0848 61.3952 79.1697 61.0498 79.1697C60.8771 80.9515 59.5818 81.3758 58.6319 81.2061C58.6319 81.7152 58.9773 82.1394 59.5818 82.2242C58.9773 82.3939 58.5455 82.6485 58.2001 83.4121C58.7182 83.5818 58.9773 83.5818 59.4954 83.3273C59.3227 83.497 59.0636 83.8364 58.7182 84.3455C58.5455 84.8545 58.5455 85.4485 59.2363 85.7879C59.15 85.1091 60.2726 84.4303 60.3589 84.3455C60.4453 84.7697 60.7044 85.1091 61.1361 85.2788C61.5679 84.7697 61.4815 84.0061 61.2225 83.4121C61.9133 83.7515 62.3451 83.8364 62.6905 83.8364ZM60.2726 83.3273C61.3088 82.5636 61.5679 81.4606 61.7406 79.6788C61.9997 81.9697 61.3952 82.7333 60.2726 83.3273ZM61.0498 77.4727C61.3088 77.4727 61.4815 77.4727 61.7406 77.4727C61.4815 77.0485 61.1361 76.6242 60.7907 76.5394C60.8771 76.8788 60.9634 77.1333 61.0498 77.4727ZM50.5145 71.9576C50.4282 71.9576 50.3418 72.0424 50.3418 72.1273C50.3418 72.2121 50.4282 72.297 50.5145 72.297H55.8685C55.9549 72.297 56.0412 72.2121 56.0412 72.1273C56.0412 72.0424 55.9549 71.9576 55.8685 71.9576H50.5145ZM56.9911 72.297C57.1638 73.6545 60.0135 73.8242 58.8046 75.5212C59.7545 75.097 59.9272 73.5697 59.15 72.5515C60.0135 73.1455 60.0135 73.9091 59.7545 74.6727C60.5317 74.0788 60.618 72.8909 60.1862 72.0424C59.8408 72.1273 59.8408 72.297 59.8408 72.8061C59.6681 71.8727 59.0636 71.1091 58.2864 70.6C57.7683 71.4485 57.941 71.9576 58.4591 72.8061C58.2864 72.6364 57.8547 72.4667 56.9911 72.297ZM55.005 74.0788C55.3504 75.8606 57.3365 76.0303 58.5455 75.6909C58.8046 75.3515 58.8909 75.0121 58.7182 74.5879C57.8547 75.097 56.3866 74.7576 56.2139 73.7394C56.1276 73.0606 56.2139 72.8061 55.9549 72.3818L54.5732 72.4667C55.0913 72.7212 54.9186 73.6545 55.005 74.0788ZM55.5231 73.2303C55.7822 74.4182 56.1276 74.7576 57.2502 75.097C55.8685 75.097 55.5231 74.503 55.5231 73.2303ZM55.8685 71.2788H55.7822C55.8685 71.3636 56.0412 71.4485 56.1276 71.6182C55.8685 71.4485 55.6958 71.2788 55.4367 71.2788H54.8323C54.9186 71.3636 55.0913 71.4485 55.1777 71.6182C54.9186 71.4485 54.7459 71.2788 54.4868 71.2788H53.8824C53.9687 71.3636 54.1414 71.4485 54.2278 71.6182C53.9687 71.4485 53.796 71.2788 53.5369 71.2788H52.9325C53.0188 71.3636 53.1915 71.4485 53.2779 71.6182C53.0188 71.4485 52.8461 71.2788 52.587 71.2788H51.9826C52.0689 71.3636 52.2416 71.4485 52.328 71.6182C52.0689 71.4485 51.8962 71.2788 51.6372 71.2788H51.0327C51.119 71.3636 51.2917 71.4485 51.3781 71.6182C51.119 71.4485 50.9463 71.2788 50.6873 71.2788H50.4282C50.2555 71.2788 50.0828 71.4485 50.0828 71.6182C50.0828 71.7879 50.2555 71.9576 50.4282 71.9576H55.8685C56.0412 71.9576 56.2139 71.7879 56.2139 71.6182C56.2139 71.4485 56.0412 71.2788 55.8685 71.2788ZM51.9826 69.2424C51.9826 69.3273 51.9826 69.4121 51.9826 69.497C51.8962 70.8545 50.1691 70.9394 50.1691 69.5818C49.8237 71.6182 52.6734 71.7879 52.6734 69.8364C52.6734 69.6667 52.6734 69.4121 52.587 69.2424H51.9826ZM53.2779 69.0727H55.0913L55.3504 68.7333H54.3141C54.4868 67.7152 55.0913 66.8667 55.8685 66.1879L53.3642 67.0364V68.0545L54.4868 67.2061C54.1414 67.6303 53.8824 68.1394 53.7097 68.6485H53.2779V66.6121L53.5369 66.7818L53.1052 65L52.7598 66.7818L53.0188 66.6121V68.8182H52.587C52.4143 68.2242 52.1553 67.8 51.8099 67.3758L52.9325 68.2242V67.2061L50.4282 66.3576C51.2054 67.0364 51.8099 67.9697 51.9826 68.903H50.9463L51.2054 69.2424H53.0188V70.0909L52.8461 70.2606V71.1939L53.0188 71.0242V71.1939H53.2779V71.0242L53.4506 71.1939V70.2606L53.2779 70.0909V69.0727ZM56.1276 69.5818C56.1276 70.8545 54.3141 70.7697 54.2278 69.4121V69.2424H53.6233C53.6233 69.4121 53.5369 69.5818 53.5369 69.8364C53.5369 71.7879 56.473 71.6182 56.1276 69.5818ZM55.7822 75.6909C55.5231 75.5212 55.3504 75.3515 55.1777 75.097C55.0913 75.6909 55.0913 76.2 55.1777 76.7091C54.5732 76.7091 53.9687 76.8788 53.2779 77.1333C52.2416 77.5576 51.5508 77.5576 50.9463 77.2182C51.7235 75.7758 50.6009 73.8242 51.4644 72.4667L50.7736 72.3818C49.9101 73.6545 50.9463 75.4364 50.4282 76.7939C50.3418 76.7091 50.2555 76.6242 50.1691 76.6242L49.7374 77.1333C50.4282 77.8121 51.7235 78.5758 53.1915 77.897C54.3141 77.3879 55.264 77.1333 56.3003 77.6424L56.5593 76.9636C56.3866 76.8788 56.2139 76.7939 55.9549 76.7939C55.7822 76.3697 55.7822 76.0303 55.7822 75.6909ZM50.0828 73.5697C49.2192 74.4182 48.0966 74.7576 47.5785 74.503C47.3194 74.7576 47.3194 75.2667 47.7512 75.6061C48.3557 75.9455 49.1329 75.8606 50.2555 75.2667C50.1691 74.7576 50.0828 74.1636 50.0828 73.5697ZM49.4783 77.3879C49.3919 77.303 49.3056 77.2182 49.2192 77.1333L49.9964 76.2848C50.0828 76.3697 50.0828 76.2848 50.1691 76.3697C50.2555 76.1152 50.2555 75.7758 50.2555 75.4364C49.2192 76.6242 48.2693 77.1333 47.4921 77.3879H49.4783V77.3879ZM47.4058 77.4727C46.7149 78.0667 46.3695 78.5758 46.0241 79.2545C46.3695 79.2545 46.6286 79.1697 46.974 79.0848C46.5422 79.4242 46.3695 80.0182 45.9378 80.3576C46.5422 80.5273 46.974 80.4424 47.3194 80.3576L47.4058 77.4727ZM60.7907 79.5091C60.7907 79.4242 60.7907 79.3394 60.7907 79.1697C60.7044 79.1697 60.7044 79.1697 60.618 79.1697C60.7044 79.2545 60.7907 79.3394 60.7907 79.5091ZM60.1862 76.0303C60.9634 75.9455 60.9634 75.0121 61.7406 74.5879C61.1361 74.3333 60.0999 74.7576 60.0135 74.9273C59.15 75.7758 58.3728 76.2 57.4229 76.0303C57.1638 76.0303 56.9911 75.9455 56.8184 75.9455C57.0775 76.2 57.3365 76.3697 57.5956 76.4545C58.1137 76.4545 58.6319 76.7939 59.15 77.1333C59.6681 77.303 60.1862 77.3879 60.7907 77.3879C60.618 76.9636 60.4453 76.4545 60.1862 76.0303ZM62.3451 77.7273C59.7545 77.9818 57.5956 77.1333 56.3866 75.8606C56.3003 75.8606 56.2139 75.7758 56.1276 75.7758C56.1276 76.0303 56.2139 76.2848 56.3003 76.5394C56.5593 76.6242 56.8184 76.7091 57.0775 76.7939L56.8184 77.3879H59.0636V79.9333C59.4954 80.103 59.8408 80.2727 60.0999 80.5273C60.2726 79.9333 60.1862 79.3394 59.7545 78.7455C60.5317 79 61.1361 79.0848 62.086 78.6606C62.1724 78.6606 62.6905 78.3212 62.3451 77.7273ZM50.6873 79.6788C50.6873 79.1697 50.2555 78.7455 49.8237 78.7455C49.3056 78.7455 48.8738 79.1697 48.8738 79.6788C48.8738 80.1879 49.3056 80.5273 49.8237 80.5273C50.2555 80.6121 50.6873 80.1879 50.6873 79.6788ZM54.1414 79.6788C54.1414 79.5939 54.1414 79.5091 54.1414 79.4242C53.7097 79.8485 52.7598 79.8485 52.328 79.4242C52.328 79.5091 52.328 79.5939 52.328 79.6788C52.328 80.1879 52.7598 80.6121 53.2779 80.6121C53.7097 80.6121 54.1414 80.1879 54.1414 79.6788ZM52.328 72.1273C51.8962 72.6364 51.9826 73.4848 52.0689 74.4182L52.1553 75.5212C52.1553 75.6061 52.2416 75.6909 52.328 75.6909C52.4143 75.6909 52.5007 75.6061 52.5007 75.5212L52.4143 74.4182C52.328 73.5697 52.2416 72.7212 52.587 72.297C52.6734 72.2121 52.587 72.1273 52.587 72.1273C52.5007 72.1273 52.4143 72.1273 52.328 72.1273ZM49.8237 78.8303C49.3056 78.8303 48.8738 79.2545 48.8738 79.7636C48.8738 80.2727 49.3056 80.6121 49.8237 80.6121C50.3418 80.6121 50.6873 80.1879 50.6873 79.7636C50.6873 79.2545 50.2555 78.8303 49.8237 78.8303ZM56.6457 78.8303C56.1276 78.8303 55.6958 79.2545 55.6958 79.7636C55.6958 80.2727 56.1276 80.6121 56.6457 80.6121C57.1638 80.6121 57.5092 80.1879 57.5092 79.7636C57.5092 79.2545 57.1638 78.8303 56.6457 78.8303ZM58.8046 81.0364V77.6424H56.5593L56.473 77.8121C56.2139 77.7273 56.0412 77.7273 55.8685 77.6424C55.3504 77.4727 54.8323 77.4727 54.3141 77.6424H54.4005C54.0551 77.7273 53.5369 77.9818 53.1915 78.0667C52.0689 78.5758 50.7736 78.2364 49.9964 77.6424H47.5785V81.0364C47.6648 81.0364 47.7512 81.0364 47.7512 81.0364C47.7512 81.3758 47.6648 81.7152 47.5785 81.9697V82.4788C47.8376 82.6485 48.0103 82.9879 48.183 83.4121V82.9879H48.2693C48.6147 82.9879 48.8738 83.0727 49.0465 83.1576C49.3056 83.2424 49.4783 83.4121 49.9101 83.4121C50.3418 83.4121 50.6009 83.3273 50.7736 83.1576C50.9463 83.0727 51.119 82.9879 51.5508 82.9879H51.8962L52.1553 83.6667C52.0689 83.6667 52.0689 83.6667 51.9826 83.7515C51.8099 83.8364 51.5508 83.9212 51.3781 83.8364L51.2054 83.7515V84.2606H51.119V84.5152L49.3919 83.7515L49.8237 84.0909L50.9463 85.4485L50.6873 85.5333C50.5145 85.6182 50.3418 85.703 49.9964 85.703C49.651 85.703 49.4783 85.6182 49.3056 85.5333C49.1329 85.4485 48.9602 85.3636 48.5284 85.3636H48.442C48.2693 84.7697 48.183 84.1758 48.183 83.5818V83.497C47.9239 83.5818 47.7512 83.6667 47.5785 83.6667C47.5785 83.8364 47.5785 84.0061 47.5785 84.2606C47.5785 84.3455 47.6648 84.3455 47.6648 84.4303C48.2693 85.3636 48.5284 86.2121 48.442 86.8909C49.4783 88.8424 51.2054 90.4545 53.1915 91.1333C55.0913 90.4545 56.8184 88.9273 57.8547 87.0606C57.7683 86.297 57.941 85.4485 58.6319 84.3455C58.7182 84.2606 58.7182 84.1758 58.8046 84.0061C58.8046 83.8364 58.8046 83.7515 58.8046 83.5818C58.6319 83.5818 58.4591 83.5818 58.2001 83.4121V83.497C58.2001 84.0909 58.1137 84.6848 57.941 85.2788H57.8547C57.4229 85.2788 57.2502 85.3636 57.0775 85.4485C56.9048 85.5333 56.7321 85.6182 56.3866 85.6182C56.0412 85.6182 55.8685 85.5333 55.6958 85.4485C55.6095 85.4485 55.5231 85.3636 55.4367 85.3636L56.9048 83.6667L56.3866 83.9212L55.0913 84.5152V84.1758H55.005V83.7515L54.8323 83.8364C54.6596 83.9212 54.4868 83.8364 54.2278 83.7515H54.1414L54.4868 83.0727C54.5732 83.0727 54.7459 82.9879 54.9186 82.9879C55.264 82.9879 55.5231 83.0727 55.6958 83.1576C55.8685 83.2424 56.1276 83.4121 56.5593 83.4121C56.9911 83.4121 57.2502 83.3273 57.4229 83.1576C57.5956 83.0727 57.7683 82.9879 58.2001 82.9879V83.3273C58.3728 82.903 58.5455 82.5636 58.8046 82.3939V81.9697C58.6319 81.7152 58.5455 81.3758 58.5455 80.9515C58.6319 80.9515 58.7182 81.0364 58.8046 81.0364ZM56.6457 78.4061C57.3365 78.4061 57.941 79 57.941 79.6788C57.941 80.3576 57.3365 80.9515 56.6457 80.9515C55.9549 80.9515 55.3504 80.3576 55.3504 79.6788C55.3504 79 55.9549 78.4061 56.6457 78.4061ZM52.2416 78.8303C52.4143 79.1697 52.7598 79.4242 53.2779 79.4242C53.7097 79.4242 54.0551 79.1697 54.2278 78.8303C54.4868 79.0848 54.5732 79.3394 54.5732 79.6788C54.5732 80.3576 53.9687 80.9515 53.2779 80.9515C52.5007 80.9515 51.8962 80.3576 51.8962 79.6788C51.8962 79.3394 51.9826 79.0848 52.2416 78.8303ZM49.8237 78.4061C50.5145 78.4061 51.119 79 51.119 79.6788C51.119 80.3576 50.5145 80.9515 49.8237 80.9515C49.1329 80.9515 48.5284 80.3576 48.5284 79.6788C48.5284 79 49.0465 78.4061 49.8237 78.4061ZM51.5508 82.6485C51.119 82.6485 50.86 82.7333 50.6873 82.903C50.5145 82.9879 50.3418 83.0727 49.9101 83.0727C49.5646 83.0727 49.3056 82.9879 49.1329 82.903C48.8738 82.8182 48.7011 82.6485 48.2693 82.6485H48.183V81.7152H51.3781L51.6372 82.2242L51.8099 82.6485H51.5508ZM52.0689 82.8182C52.328 82.9879 52.587 83.2424 52.587 83.2424L53.1052 83.7515C52.8461 83.5818 52.587 83.5818 52.4143 83.5818L52.0689 82.8182ZM51.4644 84.3455V84.0909C51.6371 84.0909 51.8962 84.0909 52.0689 84.0061C52.328 83.9212 52.6734 83.8364 53.0188 84.0061V86.0424C52.6734 85.8727 52.328 85.9576 51.9826 86.0424C51.8099 86.1273 51.6371 86.1273 51.4644 86.1273V84.3455ZM50.4282 84.4303C50.6873 84.6 51.0327 84.6848 51.2054 84.7697V85.2788C51.0327 85.1091 50.6873 84.6848 50.4282 84.4303ZM51.119 85.8727V86.3818C50.9463 86.4667 50.6873 86.6364 50.3418 86.7212C50.6009 86.4667 50.9463 86.0424 51.119 85.8727ZM48.5284 85.6182C48.8738 85.6182 49.0465 85.703 49.2192 85.7879C49.3919 85.8727 49.651 85.9576 49.9964 85.9576C50.4282 85.9576 50.6009 85.8727 50.7736 85.7879H50.86L49.3919 87.4848L51.119 86.7212V86.9758H52.4143L51.9826 87.9939H51.8962C51.5508 87.9939 51.3781 88.0788 51.2054 88.2485C51.0327 88.3333 50.9463 88.4182 50.6009 88.4182C50.3418 88.4182 50.1691 88.3333 49.9964 88.2485H49.9101C49.3056 87.4 48.7875 86.5515 48.5284 85.6182ZM53.1052 87.4L53.0188 87.4848L52.2416 88.1636C52.2416 88.1636 52.0689 88.3333 51.9826 88.4182C52.0689 88.3333 52.0689 88.1636 52.0689 88.1636L52.587 86.8909H52.7598C52.8461 86.9758 52.9325 87.0606 53.0188 87.0606C53.1915 87.0606 53.2779 86.9758 53.3642 86.8909H53.5369L54.0551 88.1636C54.0551 88.1636 54.1414 88.3333 54.1414 88.4182C53.9687 88.3333 53.8824 88.1636 53.8824 88.1636L53.1052 87.4ZM53.7097 88.2485C53.5369 88.3333 53.4506 88.4182 53.1915 88.4182C52.9325 88.4182 52.7598 88.3333 52.6734 88.2485C52.8461 88.0788 53.1052 87.9091 53.1915 87.8242C53.2779 87.8242 53.5369 88.0788 53.7097 88.2485ZM53.1052 90.3697C52.0689 90.0303 51.119 89.4364 50.3418 88.5879C50.4282 88.5879 50.4282 88.5879 50.5145 88.5879C50.86 88.5879 51.0327 88.503 51.2054 88.3333C51.3781 88.2485 51.4644 88.1636 51.7235 88.1636L51.5508 88.8424L51.2917 89.4364L52.4143 88.4182H52.5007C52.6734 88.503 52.8461 88.6727 53.1915 88.6727C53.5369 88.6727 53.7097 88.5879 53.8824 88.4182L55.005 89.4364L54.4868 88.2485C54.7459 88.2485 54.8323 88.3333 55.005 88.4182C55.1777 88.503 55.3504 88.6727 55.6958 88.6727C55.7822 88.6727 55.7822 88.6727 55.8685 88.6727C55.0913 89.4364 54.1414 90.0303 53.1052 90.3697ZM55.0913 84.7697C55.264 84.6848 55.6095 84.5152 55.8685 84.4303C55.6095 84.7697 55.264 85.1939 55.0913 85.3636H55.005V84.7697H55.0913V84.7697ZM55.0913 85.7879C55.264 86.0424 55.6095 86.4667 55.8685 86.8061C55.5231 86.6364 55.264 86.4667 55.0913 86.3818V85.7879ZM55.0913 86.8909V86.6364L56.9048 87.4848C56.9048 87.4848 55.6958 86.0424 55.3504 85.703C55.4367 85.703 55.5231 85.7879 55.5231 85.7879C55.6958 85.8727 55.9549 85.9576 56.3003 85.9576C56.7321 85.9576 56.9048 85.8727 57.0775 85.7879C57.2502 85.703 57.4229 85.6182 57.7683 85.6182C57.4229 86.5515 56.9048 87.4848 56.3003 88.1636C56.3003 88.1636 56.3003 88.1636 56.2139 88.1636C56.0412 88.2485 55.9549 88.3333 55.6095 88.3333C55.3504 88.3333 55.1777 88.2485 55.005 88.1636C54.8323 88.0788 54.6596 87.9091 54.3141 87.9091H54.2278L53.796 86.8909H55.0913ZM54.8323 86.6364H53.2779V86.7212C53.2779 86.8061 53.1915 86.8061 53.1915 86.8061C53.1052 86.8061 53.1052 86.8061 53.1052 86.7212V86.6364H51.5508V86.3818C51.8099 86.4667 51.9826 86.3818 52.2416 86.297C52.587 86.2121 52.8461 86.0424 53.1915 86.297C53.2779 86.297 53.2779 86.297 53.3642 86.297C53.7097 86.0424 54.0551 86.1273 54.3141 86.297C54.4868 86.3818 54.7459 86.4667 55.005 86.3818V86.6364H54.8323ZM54.1414 84.0061C54.3141 84.0909 54.4868 84.1758 54.7459 84.0909V84.3455V86.1273C54.5732 86.1273 54.4005 86.1273 54.2278 86.0424C53.9687 85.9576 53.6233 85.7879 53.1915 86.0424V84.0061C53.6233 83.7515 53.8824 83.8364 54.1414 84.0061ZM54.2278 82.8182L53.8824 83.6667C53.7097 83.6667 53.4506 83.6667 53.1915 83.7515L53.7097 83.3273C53.7097 83.2424 53.9687 82.9879 54.2278 82.8182C54.2278 82.8182 54.3141 82.7333 54.2278 82.8182ZM54.4005 82.8182H54.4868H54.4005ZM53.5369 83.0727C53.5369 83.0727 53.2779 83.2424 53.1915 83.4121C53.1052 83.3273 52.8461 83.0727 52.8461 83.0727L51.3781 81.8H55.005L54.5732 82.2242L53.5369 83.0727ZM58.1137 82.6485C57.682 82.6485 57.4229 82.7333 57.2502 82.903C57.0775 82.9879 56.9048 83.0727 56.473 83.0727C56.1276 83.0727 55.8685 82.9879 55.6958 82.903C55.5231 82.8182 55.264 82.6485 54.8323 82.6485C54.7459 82.6485 54.6596 82.6485 54.5732 82.6485L55.005 81.7152H58.1137V82.6485Z" fill="black"/>
<path d="M75.3846 74.5879H72.8803V91.897H75.3846V74.5879Z" fill="black"/>
<path d="M90.2375 78.3211C88.7695 76.9636 87.3015 76.5393 86.0925 76.5393C84.4518 76.5393 83.3292 77.3878 83.3292 78.5757C83.3292 81.8848 90.9284 81.7999 90.9284 87.3151C90.9284 90.0302 88.8559 91.9818 86.0062 91.9818C84.1064 91.9818 82.552 91.4727 81.084 90.3696V87.2302C82.3793 88.8424 84.02 89.7757 85.7471 89.7757C87.7333 89.7757 88.5968 88.5878 88.5968 87.5696C88.5968 84.006 80.9976 83.5818 80.9976 78.8302C80.9976 76.0302 83.0701 74.2484 86.3516 74.2484C87.7333 74.2484 89.0286 74.6727 90.2375 75.4363V78.3211V78.3211Z" fill="black"/>
<path d="M98.7867 89.6061H106.731V91.8121H96.1961V74.5879H98.7867V89.6061Z" fill="black"/>
<path d="M112.69 74.5879H110.185V91.897H112.69V74.5879Z" fill="black"/>
<path d="M134.797 91.8121H132.638L120.893 78.4909V91.8121H118.476V74.5879H120.548L132.465 87.9091V74.5879H134.797V91.8121Z" fill="black"/>
<path d="M155.349 90.6242C153.017 91.6424 151.117 92.0666 148.7 92.0666C143.346 92.0666 139.373 88.3333 139.373 83.2424C139.373 78.1514 143.432 74.2484 148.786 74.2484C150.858 74.2484 152.24 74.5878 155.003 75.6908V78.2363C152.931 77.1333 150.772 76.5393 148.7 76.5393C144.9 76.5393 141.964 79.4242 141.964 83.1575C141.964 87.0605 144.9 89.7757 149.045 89.7757C150.427 89.7757 151.636 89.4363 152.845 89.0969V85.5333H149.477V83.3272H155.349V90.6242Z" fill="black"/>
<path d="M173.483 76.794H167.352V91.8121H164.848V76.794H158.803V74.5879H173.483V76.794Z" fill="black"/>
<path d="M177.283 83.1575C177.283 79.3393 180.219 76.5393 184.105 76.5393C188.077 76.5393 190.927 79.3393 190.927 83.1575C190.927 86.9757 187.991 89.7757 184.105 89.7757C180.219 89.7757 177.283 86.9757 177.283 83.1575ZM174.692 83.1575C174.692 87.8242 178.319 92.0666 184.105 92.0666C190.063 92.0666 193.604 87.8242 193.604 83.1575C193.604 78.3211 189.977 74.2484 184.105 74.2484C178.405 74.3333 174.692 78.406 174.692 83.1575Z" fill="black"/>
<path d="M214.242 91.8121H211.997L200.253 78.4909V91.8121H197.921V74.5879H199.908L211.825 87.9091V74.5879H214.242V91.8121Z" fill="black"/>
</svg>
