<svg width="256" height="166" viewBox="0 0 256 166" fill="none" xmlns="http://www.w3.org/2000/svg">
<rect opacity="0.1" width="256" height="166" fill="#95BCD1"/>
<path d="M144.217 101.704C141.506 100.355 135.694 97.3087 128.421 97.3155C121.15 97.3206 115.785 100.363 113.071 101.709C113.071 101.709 118.807 96.1018 128.42 96.1018C138.032 96.1018 144.217 101.704 144.217 101.704V101.704ZM128.42 98.9088C118.807 98.9088 113.071 103.474 113.071 103.474C115.785 102.129 121.15 100.133 128.421 100.126C135.694 100.119 141.506 102.119 144.217 103.47C144.217 103.47 138.032 98.9088 128.42 98.9088V98.9088ZM103.321 86.1334C103.487 85.8436 103.725 85.3266 103.978 84.6571C103.277 85.069 102.62 85.5385 102.002 86.0571C102.462 86.0978 102.902 86.1216 103.321 86.1334V86.1334ZM94.7202 73.7139C92.67 75.9378 91.2411 78.8702 90.4367 82.0993C90.1287 82.0128 89.8378 81.9162 89.5674 81.806C90.4385 78.36 91.982 75.2446 94.2153 72.897C94.3779 73.1749 94.5456 73.4478 94.7202 73.7139V73.7139ZM92.4475 68.0916C89.7727 70.8172 88.0238 74.7632 86.9029 79.4601C86.6684 79.0211 86.4836 78.5363 86.3364 78.0075C87.6216 73.3173 89.5297 69.4459 92.4356 66.8169C92.3962 67.2322 92.403 67.6593 92.4475 68.0916ZM93.7652 72.0884C91.5371 74.5937 90.0637 77.9431 89.1224 81.6026C88.8281 81.4518 88.556 81.2856 88.3096 81.1026C89.3466 77.2566 90.9193 73.7699 93.3306 71.185C93.4658 71.4901 93.6112 71.7901 93.7652 72.0884ZM92.9592 70.251C90.5257 72.9241 88.9325 76.6158 87.9673 80.8229C87.6883 80.572 87.4488 80.2957 87.2349 79.9923C88.3233 75.6683 90.0329 71.9206 92.6495 69.2306C92.7316 69.5713 92.8377 69.9103 92.9592 70.251ZM106.155 63.7744C106.376 64.1218 106.563 64.4761 106.732 64.932C103.171 63.6608 99.1456 63.8201 95.7726 65.6151C95.8975 65.1897 96.1047 64.6964 96.3169 64.3269C99.3545 63.0116 102.787 62.8133 106.155 63.7744ZM91.9256 65.9948C89.0591 68.7018 87.1681 72.6902 86.1482 77.2091C86.1173 77.0464 86.0883 76.8803 86.0626 76.7108C85.7974 74.9852 86.4134 72.9054 87.1869 71.2392C88.3318 68.7797 90.2451 66.3796 91.9256 65.9948ZM105.594 63.0421C102.936 62.1776 100.217 62.0878 97.703 62.7523C98.61 62.0624 99.8028 61.6132 101.293 61.4895C102.962 61.3539 104.492 61.8403 105.594 63.0421ZM105.337 76.7955C104.04 77.0261 102.789 77.4464 101.617 78.0617C99.084 79.3872 97.0527 81.5975 95.6717 84.257C95.4013 84.0977 95.1429 83.9282 94.8982 83.7434C96.3631 80.9602 98.5073 78.6431 101.179 77.243C102.454 76.5752 103.809 76.1209 105.211 75.8734C105.269 76.1752 105.31 76.482 105.337 76.7955V76.7955ZM105.226 79.8296C105.178 80.1771 105.122 80.5212 105.055 80.8602C104.442 81.0687 103.847 81.3246 103.267 81.628C101.485 82.5569 99.9791 83.9061 98.7709 85.5062C98.4526 85.4215 98.1394 85.3266 97.8296 85.2232C99.1491 83.3959 100.828 81.8568 102.83 80.8076V80.8093C103.602 80.4042 104.403 80.0788 105.226 79.8296V79.8296ZM105.375 77.7888C105.373 78.1092 105.363 78.4278 105.339 78.7499C104.338 78.9957 103.366 79.3601 102.442 79.8432C100.243 80.9924 98.4372 82.8061 97.1058 84.9587C96.8166 84.8418 96.5325 84.7147 96.257 84.5774C97.6774 82.2399 99.6231 80.2703 102.005 79.0262C103.077 78.4634 104.208 78.0532 105.375 77.7888V77.7888ZM100.78 85.9131C100.419 85.8605 100.056 85.7978 99.6916 85.7215C100.84 84.4384 102.58 82.9518 104.786 82.0738C104.677 82.4993 104.601 82.7637 104.466 83.2231C103.131 83.8621 101.81 84.852 100.78 85.9131V85.9131ZM93.3528 82.1349C93.1355 81.806 92.9541 81.4517 92.8052 81.0721C93.6968 79.1194 94.8981 77.3735 96.3767 75.9548C96.5821 76.2006 96.7858 76.4345 96.9877 76.6531C95.4355 78.1481 94.2102 80.0296 93.3528 82.1349V82.1349ZM92.5588 80.2754C92.4373 79.7415 92.3894 79.1601 92.4133 78.5329C93.1646 77.0142 94.1144 75.6497 95.249 74.4903C95.4286 74.7445 95.6118 74.9937 95.8 75.2327C94.4395 76.6464 93.346 78.3685 92.5588 80.2754ZM94.4224 83.3553C94.1742 83.1332 93.9432 82.8959 93.7327 82.6433C94.6996 80.5958 96.0173 78.7753 97.638 77.3413C97.8758 77.5803 98.1034 77.7939 98.3174 77.9837C96.6762 79.416 95.3619 81.2636 94.4224 83.3553V83.3553ZM107.36 68.1831C103.946 67.2525 100.472 67.5831 97.4908 69.1425C96.8747 69.4662 96.2963 69.834 95.7521 70.2442C95.6973 69.9001 95.6528 69.5527 95.6118 69.2001C96.0704 68.8814 96.5496 68.5882 97.0527 68.3255C100.154 66.7033 103.742 66.3203 107.283 67.2051C107.322 67.5288 107.35 67.8559 107.36 68.1831V68.1831ZM107.189 66.5932C103.569 65.4321 99.8387 65.6999 96.6659 67.3593C96.2655 67.5695 95.8805 67.8 95.5091 68.0492C95.492 67.6678 95.4988 67.2983 95.5296 66.9373C95.7606 66.8 95.9917 66.6661 96.2295 66.5423C99.4708 64.8456 103.244 64.5015 106.939 65.5473C107.042 65.8897 107.126 66.2372 107.189 66.5932ZM107.209 70.4443C107.158 70.7562 107.093 71.0596 107.016 71.3528C104.263 70.9986 101.543 71.4545 99.1405 72.7105C98.3225 73.1394 97.5627 73.6597 96.8576 74.2513C96.731 73.936 96.6214 73.6343 96.5188 73.3343C97.1982 72.7868 97.9272 72.3054 98.7059 71.8918C101.302 70.5341 104.244 70.0476 107.209 70.4443V70.4443ZM106.773 72.1105C106.655 72.4342 106.515 72.7393 106.347 73.0512C106.027 72.5613 105.652 72.2817 105.282 72.1122C105.775 72.0885 106.275 72.0868 106.773 72.1105V72.1105ZM107.363 68.8221C107.358 69.1374 107.339 69.4493 107.309 69.7578C104.18 69.1052 101.042 69.5002 98.3157 70.9291C97.561 71.3223 96.8576 71.7901 96.2022 72.3224C96.1081 71.9901 96.0259 71.663 95.9541 71.3359C96.5564 70.8782 97.1999 70.4663 97.8793 70.1104C100.761 68.6018 104.067 68.1645 107.363 68.8221ZM104.008 73.1716C101.728 73.5208 99.5102 74.4903 97.6688 76.0395C97.5233 75.7463 97.3847 75.4582 97.2581 75.1785C98.7863 73.9343 100.754 72.88 103.152 72.3833C103.479 72.6139 103.763 72.88 104.008 73.1716ZM104.971 74.9361C102.561 75.2785 100.398 76.2531 98.5878 77.7515C98.4252 77.4685 98.2746 77.1956 98.1291 76.9261C100.022 75.3988 102.245 74.4327 104.601 74.0564C104.747 74.3361 104.87 74.631 104.971 74.9361ZM154.931 86.0571C154.315 85.5385 153.655 85.069 152.953 84.6571C153.208 85.3266 153.446 85.8436 153.614 86.1334C154.031 86.1216 154.473 86.0978 154.931 86.0571V86.0571ZM162.72 72.897C164.953 75.2446 166.497 78.36 167.366 81.806C167.097 81.9162 166.805 82.0128 166.496 82.0993C165.694 78.8702 164.265 75.9378 162.213 73.7139C162.388 73.4478 162.557 73.1749 162.72 72.897V72.897ZM164.499 66.8169C167.402 69.4459 169.312 73.3173 170.597 78.0075C170.45 78.5363 170.265 79.0211 170.03 79.4601C168.911 74.7632 167.162 70.8172 164.486 68.0916C164.528 67.6593 164.54 67.2322 164.499 66.8169V66.8169ZM163.603 71.185C166.016 73.7699 167.588 77.2566 168.624 81.1026C168.379 81.2856 168.109 81.4518 167.811 81.6026C166.87 77.9431 165.396 74.5937 163.17 72.0884C163.324 71.7901 163.469 71.4901 163.603 71.185ZM164.284 69.2306C166.9 71.9206 168.61 75.6683 169.698 79.9923C169.484 80.2957 169.243 80.572 168.964 80.8229C168.001 76.6158 166.408 72.9241 163.976 70.251C164.097 69.9103 164.202 69.5713 164.284 69.2306ZM160.616 64.3269C160.829 64.6964 161.036 65.1897 161.159 65.6151C157.788 63.8201 153.763 63.6608 150.2 64.932C150.372 64.4761 150.559 64.1218 150.78 63.7744C154.146 62.8133 157.579 63.0116 160.616 64.3269ZM169.746 71.2392C170.522 72.9054 171.136 74.9852 170.871 76.7108C170.845 76.8803 170.816 77.0464 170.785 77.2091C169.765 72.6902 167.874 68.7018 165.009 65.9948C166.686 66.3796 168.603 68.7797 169.746 71.2392V71.2392ZM155.638 61.4895C157.13 61.6132 158.325 62.0624 159.23 62.7523C156.716 62.0878 153.999 62.1776 151.338 63.0421C152.443 61.8403 153.971 61.3539 155.638 61.4895V61.4895ZM151.723 75.8734C153.124 76.1209 154.481 76.5752 155.755 77.243C158.428 78.6431 160.57 80.9602 162.035 83.7434C161.789 83.9282 161.53 84.0977 161.262 84.257C159.881 81.5975 157.851 79.3872 155.316 78.0617C154.142 77.4464 152.891 77.0261 151.599 76.7955C151.625 76.482 151.666 76.1752 151.723 75.8734ZM154.103 80.8093V80.8076C156.107 81.8568 157.784 83.3959 159.105 85.2232C158.794 85.3266 158.481 85.4215 158.162 85.5062C156.956 83.9061 155.448 82.5569 153.667 81.628C153.09 81.3246 152.489 81.0687 151.877 80.8602C151.812 80.5212 151.755 80.1771 151.707 79.8296C152.53 80.0788 153.333 80.4042 154.103 80.8093ZM154.926 79.0262C157.308 80.2703 159.256 82.2399 160.676 84.5774C160.401 84.7147 160.118 84.8418 159.829 84.9587C158.496 82.8061 156.691 80.9924 154.49 79.8432C153.566 79.3601 152.595 78.9957 151.594 78.7499C151.57 78.4278 151.56 78.1092 151.558 77.7888C152.726 78.0532 153.857 78.4634 154.926 79.0262V79.0262ZM152.467 83.2231C152.332 82.7637 152.255 82.4993 152.149 82.0738C154.355 82.9518 156.093 84.4384 157.24 85.7215C156.877 85.7978 156.513 85.8605 156.155 85.9131C155.123 84.852 153.802 83.8621 152.467 83.2231V83.2231ZM159.946 76.6531C160.148 76.4345 160.351 76.2006 160.555 75.9548C162.035 77.3735 163.238 79.1194 164.126 81.0721C163.981 81.4517 163.799 81.806 163.582 82.1349C162.723 80.0296 161.496 78.1481 159.946 76.6531V76.6531ZM161.135 75.2327C161.32 74.9937 161.505 74.7445 161.686 74.4903C162.821 75.6497 163.77 77.0142 164.522 78.5329C164.546 79.1601 164.496 79.7415 164.376 80.2754C163.587 78.3685 162.495 76.6464 161.135 75.2327ZM158.618 77.9837C158.83 77.7939 159.057 77.5803 159.294 77.3413C160.916 78.7753 162.234 80.5958 163.202 82.6433C162.992 82.8959 162.761 83.1332 162.511 83.3553C161.571 81.2636 160.257 79.416 158.618 77.9837ZM149.65 67.2051C153.191 66.3203 156.781 66.7033 159.881 68.3255C160.384 68.5882 160.863 68.8814 161.32 69.2001C161.28 69.5527 161.234 69.9001 161.181 70.2442C160.637 69.834 160.059 69.4662 159.442 69.1425C156.461 67.5831 152.987 67.2525 149.572 68.1831C149.584 67.8559 149.611 67.5288 149.65 67.2051V67.2051ZM149.994 65.5473C153.689 64.5015 157.466 64.8456 160.704 66.5423C160.943 66.6661 161.176 66.8 161.404 66.9373C161.434 67.2983 161.443 67.6678 161.424 68.0492C161.053 67.8 160.669 67.5695 160.267 67.3593C157.096 65.6999 153.367 65.4321 149.743 66.5932C149.808 66.2372 149.892 65.8897 149.994 65.5473ZM158.231 71.8918C159.008 72.3054 159.735 72.7868 160.416 73.3343C160.312 73.6343 160.201 73.936 160.076 74.2513C159.371 73.6597 158.611 73.1394 157.794 72.7105C155.39 71.4545 152.671 70.9986 149.917 71.3528C149.84 71.0596 149.777 70.7562 149.724 70.4443C152.691 70.0476 155.633 70.5341 158.231 71.8918V71.8918ZM151.651 72.1122C151.281 72.2817 150.905 72.5613 150.586 73.0512C150.42 72.7393 150.278 72.4342 150.16 72.1105C150.658 72.0868 151.156 72.0885 151.651 72.1122V72.1122ZM159.054 70.1104C159.735 70.4663 160.373 70.8782 160.978 71.3359C160.907 71.663 160.823 71.9901 160.731 72.3224C160.076 71.7901 159.371 71.3223 158.619 70.9291C155.89 69.5002 152.753 69.1052 149.625 69.7578C149.595 69.4493 149.577 69.1374 149.572 68.8221C152.866 68.1645 156.174 68.6018 159.054 70.1104ZM153.781 72.3833C156.179 72.88 158.147 73.9343 159.675 75.1785C159.549 75.4582 159.413 75.7463 159.263 76.0395C157.423 74.4903 155.205 73.5208 152.926 73.1716C153.17 72.88 153.455 72.6139 153.781 72.3833V72.3833ZM152.334 74.0564C154.688 74.4327 156.913 75.3988 158.806 76.9261C158.66 77.1956 158.508 77.4685 158.347 77.7515C156.535 76.2531 154.372 75.2785 151.962 74.9361C152.065 74.631 152.185 74.3361 152.334 74.0564ZM119.44 64.8795C119.428 64.8863 119.415 64.8879 119.401 64.8947C119.397 64.8727 119.396 64.8541 119.394 64.832C119.408 64.8473 119.425 64.8626 119.44 64.8795V64.8795ZM137.558 64.832C137.546 64.8473 137.529 64.8626 137.512 64.8795C137.526 64.8863 137.539 64.8879 137.551 64.8947C137.555 64.8727 137.556 64.8541 137.558 64.832V64.832ZM109.022 65.8881C108.895 65.4541 108.756 65.0354 108.609 64.632C108.921 64.3032 109.241 63.9862 109.569 63.6744C109.869 63.8879 110.17 64.1269 110.469 64.393C109.965 64.871 109.482 65.3711 109.022 65.8881ZM109.121 63.3726C108.883 63.6235 108.65 63.8794 108.421 64.1405C108.262 63.7337 108.092 63.3472 107.914 62.981C107.964 62.9268 108.015 62.8743 108.065 62.8217C108.416 62.9658 108.767 63.1523 109.121 63.3726V63.3726ZM109.501 67.7492C109.403 67.3017 109.296 66.8627 109.179 66.4356C109.742 65.8779 110.334 65.3456 110.95 64.8371C111.212 65.0931 111.476 65.366 111.738 65.6592C110.947 66.3135 110.201 67.0102 109.501 67.7492V67.7492ZM109.865 69.7578C109.795 69.2917 109.718 68.834 109.633 68.3865C110.449 67.6153 111.315 66.8932 112.232 66.227C112.467 66.5101 112.699 66.8051 112.932 67.1136C111.835 67.9153 110.808 68.8001 109.865 69.7578ZM114.058 68.7238C112.627 69.6544 111.306 70.7206 110.11 71.8986C110.072 71.4155 110.021 70.9358 109.963 70.4612C111.034 69.4866 112.193 68.5916 113.427 67.7933C113.639 68.0916 113.849 68.4034 114.058 68.7238V68.7238ZM119.551 66.0084C119.488 65.6236 119.447 65.3066 119.401 64.8947C119.415 64.8879 119.428 64.8863 119.44 64.8795C119.7 65.1643 119.998 65.4541 120.325 65.7474C120.067 65.8304 119.808 65.9169 119.551 66.0084ZM119.776 67.1559C120.325 66.9762 120.883 66.8101 121.446 66.6661C121.821 66.9474 122.218 67.2288 122.639 67.5068C121.749 67.7068 120.879 67.9492 120.029 68.2339C119.966 67.9949 119.906 67.7576 119.854 67.5186C119.825 67.3898 119.8 67.2695 119.776 67.1559V67.1559ZM115.119 70.4578C113.326 71.507 111.679 72.758 110.223 74.1784C110.214 73.6699 110.196 73.1665 110.165 72.6665C111.501 71.4732 112.97 70.4104 114.546 69.4934C114.738 69.8069 114.928 70.129 115.119 70.4578ZM128.476 89.6285C129.973 89.6285 131.438 89.7472 132.862 89.9692C132.831 90.3354 132.802 90.7015 132.775 91.0608C131.378 90.8388 129.944 90.7168 128.476 90.7168C127.009 90.7168 125.575 90.8388 124.179 91.0608C124.152 90.7015 124.122 90.3354 124.092 89.9692C125.515 89.7472 126.979 89.6285 128.476 89.6285ZM122.471 91.3931C119.189 92.1457 116.161 93.5017 113.517 95.3272C113.372 94.9865 113.218 94.6374 113.054 94.2831C115.781 92.4457 118.889 91.0812 122.25 90.3201C122.326 90.6744 122.399 91.0338 122.471 91.3931ZM134.704 90.3201C138.065 91.0812 141.171 92.4457 143.9 94.2831C143.736 94.6374 143.58 94.9865 143.436 95.3272C140.791 93.5017 137.765 92.1457 134.481 91.3931C134.553 91.0338 134.627 90.6744 134.704 90.3201ZM132.686 92.3355C132.66 92.705 132.636 93.0695 132.617 93.4288C131.271 93.2203 129.89 93.1118 128.476 93.1118C127.066 93.1118 125.683 93.2203 124.338 93.4288C124.316 93.0695 124.294 92.705 124.27 92.3355C125.637 92.1304 127.044 92.0236 128.476 92.0236C129.91 92.0236 131.315 92.1304 132.686 92.3355V92.3355ZM122.705 92.6169C122.772 92.9728 122.836 93.3322 122.897 93.6949C119.755 94.3594 116.839 95.5747 114.258 97.2308C114.139 96.885 114.003 96.5256 113.856 96.1561C116.512 94.5018 119.497 93.2864 122.705 92.6169ZM134.247 92.6169C137.457 93.2864 140.442 94.5018 143.096 96.1561C142.95 96.5256 142.813 96.885 142.695 97.2308C140.113 95.5747 137.199 94.3594 134.055 93.6949C134.117 93.3322 134.18 92.9728 134.247 92.6169V92.6169ZM148.343 64.632C148.196 65.0354 148.059 65.4541 147.929 65.8881C147.47 65.3711 146.989 64.871 146.484 64.393C146.784 64.1269 147.085 63.8879 147.384 63.6744C147.715 63.9862 148.033 64.3032 148.343 64.632ZM148.529 64.1405C148.303 63.8794 148.071 63.6235 147.833 63.3726C148.187 63.1523 148.538 62.9658 148.887 62.8217C148.937 62.8743 148.99 62.9268 149.038 62.981C148.86 63.3472 148.69 63.7337 148.529 64.1405V64.1405ZM147.773 66.4356C147.657 66.8627 147.549 67.3017 147.451 67.7492C146.753 67.0102 146.003 66.3135 145.213 65.6592C145.476 65.366 145.74 65.0931 146.003 64.8371C146.62 65.3456 147.212 65.8779 147.773 66.4356V66.4356ZM144.72 66.227C145.637 66.8932 146.507 67.6153 147.319 68.3865C147.234 68.834 147.155 69.2917 147.088 69.7578C146.144 68.8001 145.119 67.9153 144.02 67.1136C144.253 66.8051 144.487 66.5101 144.72 66.227ZM137.401 66.0084C137.147 65.9169 136.887 65.8304 136.627 65.7474C136.954 65.4541 137.252 65.1643 137.512 64.8795C137.526 64.8863 137.539 64.8879 137.551 64.8947C137.505 65.3066 137.467 65.6236 137.401 66.0084ZM143.527 67.7933C144.759 68.5916 145.92 69.4866 146.993 70.4612C146.931 70.9358 146.883 71.4155 146.842 71.8986C145.647 70.7206 144.323 69.6544 142.894 68.7238C143.103 68.4034 143.315 68.0916 143.527 67.7933V67.7933ZM142.408 69.4934C143.984 70.4104 145.452 71.4732 146.787 72.6665C146.758 73.1665 146.739 73.6699 146.732 74.1784C145.273 72.758 143.63 71.507 141.833 70.4578C142.023 70.129 142.216 69.8069 142.408 69.4934V69.4934ZM136.925 68.2339C136.074 67.9492 135.203 67.7068 134.315 67.5068C134.734 67.2288 135.131 66.9474 135.506 66.6661C136.071 66.8101 136.629 66.9762 137.176 67.1559C137.154 67.2695 137.128 67.3898 137.099 67.5186C137.046 67.7576 136.988 67.9949 136.925 68.2339V68.2339ZM131.009 69.3679C131.596 69.0865 132.166 68.7899 132.713 68.4797C134.045 68.6831 135.34 68.9815 136.596 69.3628C136.49 69.7103 136.381 70.0578 136.271 70.4104C134.587 69.8951 132.826 69.5425 131.009 69.3679ZM141.361 71.307C143.315 72.3258 145.117 73.5733 146.729 75.0022C146.732 75.5378 146.751 76.0751 146.78 76.6108C145.043 74.9124 143.045 73.4512 140.84 72.2901C141.013 71.9545 141.188 71.6274 141.361 71.307V71.307ZM110.173 76.6108C110.204 76.0751 110.22 75.5378 110.225 75.0022C111.835 73.5733 113.637 72.3258 115.592 71.307C115.766 71.6274 115.939 71.9545 116.112 72.2901C113.909 73.4512 111.909 74.9124 110.173 76.6108V76.6108ZM120.356 69.3628C121.612 68.9815 122.909 68.6831 124.239 68.4797C124.788 68.7899 125.358 69.0865 125.943 69.3679C124.126 69.5425 122.367 69.8951 120.683 70.4104C120.573 70.0578 120.462 69.7103 120.356 69.3628ZM109.915 79.2448C109.999 78.6617 110.064 78.0719 110.112 77.482C112.017 75.7667 114.185 74.3157 116.564 73.1885C116.723 73.519 116.88 73.853 117.039 74.192C114.354 75.4734 111.948 77.1904 109.915 79.2448V79.2448ZM128.476 70.5392C131.072 70.5392 133.574 70.8884 135.941 71.5392C135.919 71.6087 135.9 71.6799 135.881 71.7511C135.806 72.0359 135.734 72.319 135.662 72.6021C133.388 71.9715 130.976 71.6274 128.476 71.6274C125.978 71.6274 123.568 71.9715 121.29 72.6021C121.218 72.319 121.148 72.0359 121.071 71.7511C121.052 71.6799 121.034 71.6087 121.013 71.5392C123.378 70.8884 125.882 70.5392 128.476 70.5392ZM140.389 73.1885C142.767 74.3157 144.937 75.7667 146.84 77.482C146.89 78.0719 146.955 78.6617 147.037 79.2448C145.006 77.1904 142.598 75.4734 139.915 74.192C140.072 73.853 140.229 73.519 140.389 73.1885V73.1885ZM109.333 82.2399C109.506 81.5636 109.651 80.8755 109.771 80.1771C111.994 78.1058 114.597 76.4006 117.479 75.1632C117.626 75.4971 117.77 75.8361 117.915 76.1785C114.611 77.6074 111.69 79.6855 109.333 82.2399ZM128.476 72.9258C130.867 72.9258 133.179 73.2224 135.376 73.7784C135.292 74.1344 135.21 74.4903 135.13 74.8462C133.013 74.3038 130.781 74.014 128.476 74.014C126.171 74.014 123.943 74.3038 121.821 74.8462C121.744 74.4903 121.662 74.1344 121.576 73.7784C123.775 73.2224 126.087 72.9258 128.476 72.9258ZM139.475 75.1632C142.357 76.4006 144.961 78.1058 147.181 80.1771C147.302 80.8755 147.448 81.5636 147.619 82.2399C145.262 79.6855 142.341 77.6074 139.038 76.1785C139.182 75.8361 139.326 75.4971 139.475 75.1632V75.1632ZM128.476 75.3107C130.684 75.3107 132.825 75.5649 134.87 76.0412C134.794 76.4006 134.722 76.7565 134.649 77.1142C132.677 76.6498 130.608 76.4006 128.476 76.4006C126.345 76.4006 124.278 76.6498 122.303 77.1142C122.233 76.7565 122.16 76.4006 122.083 76.0412C124.129 75.5649 126.27 75.3107 128.476 75.3107V75.3107ZM147.9 83.2621C148.213 84.3079 148.593 85.3198 149.043 86.2724C149.038 86.2775 149.032 86.2843 149.026 86.2911C146.293 82.7485 142.565 79.9347 138.219 78.2278C138.35 77.8821 138.486 77.5396 138.621 77.2006C142.165 78.5804 145.321 80.6619 147.9 83.2621V83.2621ZM107.926 86.2911C107.921 86.2843 107.916 86.2775 107.909 86.2724C108.361 85.3198 108.739 84.3079 109.053 83.2621C111.631 80.6619 114.787 78.5804 118.333 77.2006C118.467 77.5396 118.603 77.8821 118.733 78.2278C114.388 79.9347 110.659 82.7485 107.926 86.2911V86.2911ZM148.769 86.5673C148.514 86.847 148.259 87.1402 148.011 87.4504C145.226 84.2892 141.604 81.8111 137.457 80.3314C137.579 79.9788 137.7 79.6347 137.825 79.2923C142.108 80.8077 145.86 83.3383 148.769 86.5673ZM108.941 87.4504C108.693 87.1402 108.438 86.847 108.185 86.5673C111.094 83.3383 114.845 80.8077 119.131 79.2923C119.254 79.6347 119.375 79.9788 119.497 80.3314C115.348 81.8111 111.726 84.2892 108.941 87.4504ZM128.476 77.6973C130.521 77.6973 132.508 77.9159 134.416 78.3244C134.348 78.6855 134.283 79.0448 134.218 79.4008C132.376 79.0007 130.454 78.7872 128.476 78.7872C126.499 78.7872 124.578 79.0007 122.733 79.4008C122.669 79.0448 122.605 78.6855 122.539 78.3244C124.446 77.9159 126.433 77.6973 128.476 77.6973ZM137.086 81.4297C141.166 82.7433 144.788 84.9673 147.704 87.842C147.472 88.1454 147.244 88.4556 147.02 88.7777C144.22 85.9521 140.709 83.7655 136.749 82.4755C136.862 82.1247 136.973 81.7738 137.086 81.4297ZM128.476 80.0856C130.377 80.0856 132.229 80.2754 134.012 80.628C133.952 80.9907 133.892 81.3518 133.839 81.7111C132.111 81.3619 130.319 81.1738 128.476 81.1738C126.635 81.1738 124.839 81.3619 123.114 81.7111C123.058 81.3518 123 80.9907 122.943 80.628C124.727 80.2754 126.576 80.0856 128.476 80.0856ZM109.934 88.7777C109.708 88.4556 109.48 88.1454 109.249 87.842C112.165 84.9673 115.788 82.7433 119.866 81.4297C119.981 81.7738 120.092 82.1247 120.203 82.4755C116.243 83.7655 112.734 85.9521 109.934 88.7777V88.7777ZM136.408 83.6027C140.291 84.7469 143.789 86.7097 146.683 89.2726C146.471 89.5913 146.262 89.9133 146.06 90.2439C143.272 87.7149 139.88 85.7792 136.098 84.6571C136.201 84.3011 136.304 83.9519 136.408 83.6027ZM128.476 82.4671C130.252 82.4671 131.981 82.6332 133.656 82.9451C133.603 83.3078 133.554 83.6689 133.506 84.0282C131.882 83.7214 130.201 83.557 128.476 83.557C126.754 83.557 125.072 83.7214 123.446 84.0282C123.399 83.6689 123.349 83.3078 123.298 82.9451C124.971 82.6332 126.701 82.4671 128.476 82.4671V82.4671ZM120.854 84.6571C117.073 85.7792 113.682 87.7149 110.892 90.2439C110.69 89.9133 110.483 89.5913 110.273 89.2726C113.165 86.7097 116.661 84.7469 120.547 83.6027C120.652 83.9519 120.753 84.3011 120.854 84.6571V84.6571ZM128.476 84.8553C130.143 84.8553 131.769 85.0028 133.346 85.2774C133.302 85.6436 133.259 86.0063 133.218 86.3656C131.683 86.0911 130.1 85.9453 128.476 85.9453C126.854 85.9453 125.269 86.0911 123.736 86.3656C123.695 86.0063 123.652 85.6436 123.606 85.2774C125.183 85.0028 126.809 84.8553 128.476 84.8553ZM121.449 86.8775C117.842 87.8573 114.572 89.5709 111.818 91.8355C111.633 91.5016 111.443 91.1676 111.25 90.8388C114.103 88.5437 117.467 86.8097 121.172 85.813C121.266 86.1656 121.359 86.5199 121.449 86.8775ZM135.782 85.813C139.485 86.8097 142.851 88.5437 145.704 90.8388C145.509 91.1676 145.321 91.5016 145.134 91.8355C142.381 89.5709 139.11 87.8573 135.503 86.8775C135.595 86.5199 135.686 86.1656 135.782 85.813ZM135.213 88.0539C138.742 88.9251 141.98 90.4591 144.775 92.5084C144.595 92.8508 144.422 93.1932 144.258 93.5339C141.552 91.5016 138.405 89.9794 134.964 89.1217C135.044 88.7641 135.128 88.4082 135.213 88.0539ZM128.476 87.242C130.05 87.242 131.589 87.3725 133.081 87.6166C133.044 87.9844 133.009 88.3488 132.975 88.7082C131.517 88.4641 130.013 88.3319 128.476 88.3319C126.939 88.3319 125.437 88.4641 123.979 88.7082C123.944 88.3488 123.909 87.9844 123.871 87.6166C125.365 87.3725 126.903 87.242 128.476 87.242V87.242ZM121.987 89.1217C118.549 89.9794 115.4 91.5016 112.696 93.5339C112.53 93.1932 112.357 92.8508 112.177 92.5084C114.972 90.4591 118.21 88.9251 121.74 88.0539C121.824 88.4082 121.908 88.7641 121.987 89.1217V89.1217ZM117.816 59.1283C117.803 59.0893 117.792 59.0537 117.78 59.0164C117.748 59.0401 117.717 59.0656 117.684 59.0893C117.729 59.1012 117.775 59.1164 117.816 59.1283V59.1283ZM116.605 42.8849C116.353 43.0916 116.105 43.3069 115.86 43.5273C116.084 43.3171 116.332 43.0984 116.605 42.8849ZM117.503 58.0062C117.563 58.3214 117.648 58.6435 117.78 59.0164C117.748 59.0401 117.717 59.0656 117.684 59.0893C117.364 58.9944 116.985 58.8791 116.579 58.7266C116.884 58.4774 117.19 58.2384 117.503 58.0062ZM121.449 41C119.659 41.8068 117.996 42.9086 116.505 44.2561C115.894 44.329 115.253 44.546 114.654 44.8494C114.898 44.546 115.301 44.0578 115.86 43.5273C116.105 43.3069 116.353 43.0916 116.605 42.8849C117.77 41.9662 119.387 41.1 121.449 41ZM117.397 57.0604C116.87 57.4892 116.356 57.9435 115.867 58.4265C115.573 58.2876 115.275 58.1232 114.984 57.9316C115.734 57.1722 116.536 56.4739 117.382 55.8467C117.382 55.8501 117.38 55.8518 117.38 55.8552C117.38 56.3298 117.383 56.7163 117.397 57.0604ZM114.536 57.6044C114.287 57.4061 114.051 57.1773 113.832 56.9231C115.253 55.2518 116.889 53.8195 118.686 52.6889C118.206 53.2838 117.821 53.9669 117.597 54.6449C116.49 55.5094 115.465 56.5027 114.536 57.6044ZM112.679 51.0786C113.35 47.2513 116.018 45.4918 118.057 45.1697C115.968 46.6986 114.147 48.6988 112.679 51.0786ZM139.055 59.1283C139.069 59.0893 139.083 59.0537 139.095 59.0164C139.126 59.0401 139.156 59.0656 139.187 59.0893C139.143 59.1012 139.097 59.1164 139.055 59.1283V59.1283ZM141.011 43.5273C140.767 43.3069 140.52 43.0916 140.267 42.8849C140.541 43.0984 140.787 43.3171 141.011 43.5273ZM140.293 58.7266C139.887 58.8791 139.509 58.9944 139.187 59.0893C139.156 59.0656 139.126 59.0401 139.095 59.0164C139.223 58.6435 139.312 58.3214 139.37 58.0062C139.683 58.2384 139.992 58.4774 140.293 58.7266ZM140.267 42.8849C140.52 43.0916 140.767 43.3069 141.011 43.5273C141.571 44.0578 141.975 44.546 142.221 44.8494C141.619 44.546 140.979 44.329 140.366 44.2561C138.877 42.9086 137.214 41.8068 135.424 41C137.484 41.1 139.103 41.9662 140.267 42.8849ZM139.492 55.8552V55.8467C140.335 56.4739 141.136 57.1722 141.891 57.9316C141.598 58.1232 141.301 58.2876 141.008 58.4265C140.515 57.9435 140.005 57.4892 139.475 57.0604C139.49 56.7163 139.492 56.3298 139.492 55.8552V55.8552ZM139.276 54.6449C139.054 53.9669 138.665 53.2838 138.188 52.6889C139.985 53.8195 141.619 55.2518 143.039 56.9231C142.822 57.1773 142.584 57.4061 142.336 57.6044C141.407 56.5027 140.382 55.5094 139.276 54.6449V54.6449ZM138.816 45.1697C140.854 45.4918 143.525 47.2513 144.196 51.0786C142.728 48.6988 140.905 46.6986 138.816 45.1697ZM128.077 53.0465C124.99 53.1143 121.971 54.0788 119.416 55.6416C119.43 55.2128 119.469 54.8161 119.524 54.4517C122.052 53.0313 125.014 52.1533 128.011 52.0787C128.035 52.4126 128.052 52.716 128.077 53.0465V53.0465ZM128.437 63.3709C129.831 63.3709 131.17 63.537 132.465 63.8438C132.125 64.1201 131.787 64.3778 131.457 64.6219C130.482 64.4388 129.477 64.3439 128.437 64.3439C127.396 64.3439 126.392 64.4388 125.414 64.6219C125.086 64.3778 124.747 64.1201 124.408 63.8438C125.704 63.537 127.04 63.3709 128.437 63.3709V63.3709ZM128.437 56.5858C131.454 56.5858 134.286 57.34 136.848 58.6876C136.714 58.9808 136.564 59.269 136.398 59.5503C133.973 58.2706 131.293 57.5587 128.437 57.5587C125.58 57.5587 122.901 58.2706 120.476 59.5503C120.308 59.269 120.157 58.9808 120.025 58.6876C122.584 57.34 125.42 56.5858 128.437 56.5858V56.5858ZM128.437 58.8503C131.053 58.8503 133.528 59.4147 135.807 60.4487C135.611 60.7165 135.403 60.9793 135.184 61.2386C133.09 60.3216 130.827 59.8233 128.437 59.8233C126.044 59.8233 123.784 60.3216 121.687 61.2386C121.47 60.9793 121.261 60.7165 121.064 60.4487C123.347 59.4147 125.818 58.8503 128.437 58.8503V58.8503ZM128.26 55.3009C125.225 55.3077 122.166 56.2552 119.67 57.7367C119.572 57.4061 119.5 57.0722 119.457 56.7332C122.048 55.2569 125.062 54.3686 128.17 54.3381C128.199 54.6653 128.228 55.0229 128.26 55.3009ZM128.437 65.6304C128.938 65.6304 129.433 65.6575 129.919 65.6982C129.27 66.1305 128.743 66.4525 128.437 66.6525C128.123 66.4457 127.598 66.1237 126.956 65.6982C127.442 65.6575 127.935 65.6304 128.437 65.6304ZM128.437 61.1098C130.518 61.1098 132.494 61.4691 134.365 62.1335C134.108 62.3963 133.843 62.6488 133.574 62.8946C131.945 62.3658 130.234 62.0827 128.437 62.0827C126.641 62.0827 124.928 62.3658 123.298 62.8946C123.029 62.6488 122.765 62.3963 122.507 62.1335C124.379 61.4691 126.356 61.1098 128.437 61.1098ZM127.656 48.5395C122.026 48.792 116.943 51.9329 113.56 56.579C113.363 56.3027 113.185 55.9959 113.035 55.6535C116.56 51.004 121.761 47.8682 127.507 47.5767C127.564 47.8954 127.614 48.2157 127.656 48.5395V48.5395ZM120.518 51.6685C122.719 50.5955 125.291 49.9091 127.821 49.8209C127.853 50.1481 127.887 50.4718 127.913 50.7922C125.064 50.882 122.24 51.7482 119.837 53.1313C120.032 52.5482 120.274 52.0702 120.518 51.6685ZM118.549 44.824C118.302 44.5782 118.006 44.4138 117.678 44.3239C119.567 42.9662 121.662 41.956 123.895 41.3627C124.336 41.5407 124.706 41.7848 125.053 42.0729C122.702 42.5391 120.524 43.4747 118.549 44.824V44.824ZM112.891 55.2958C112.752 54.911 112.651 54.4839 112.588 54.011C116.018 49.1649 121.208 45.8138 126.991 45.3511C127.09 45.663 127.167 45.9766 127.246 46.3037C121.42 46.7054 116.17 50.2565 112.891 55.2958V55.2958ZM112.545 53.5889C112.53 53.3906 112.52 53.1821 112.52 52.9669C112.52 52.5431 112.544 52.138 112.586 51.7515C115.841 47.1512 120.626 43.9425 126.024 43.2035C126.215 43.4866 126.368 43.7781 126.52 44.1171C120.773 44.7697 115.691 48.4344 112.545 53.5889ZM137.349 54.4517C137.404 54.8161 137.443 55.2128 137.459 55.6416C134.899 54.0788 131.882 53.1143 128.796 53.0465C128.82 52.716 128.839 52.4126 128.863 52.0787C131.858 52.1533 134.822 53.0313 137.349 54.4517V54.4517ZM128.702 54.3381C131.811 54.3686 134.822 55.2569 137.414 56.7332C137.37 57.0722 137.3 57.4061 137.202 57.7367C134.707 56.2552 131.649 55.3077 128.613 55.3009C128.645 55.0229 128.675 54.6653 128.702 54.3381ZM143.839 55.6535C143.688 55.9959 143.512 56.3027 143.312 56.579C139.93 51.9329 134.844 48.792 129.217 48.5395C129.26 48.2157 129.309 47.8954 129.366 47.5767C135.113 47.8682 140.313 51.004 143.839 55.6535ZM137.034 53.1313C134.635 51.7482 131.81 50.882 128.96 50.7922C128.986 50.4718 129.02 50.1481 129.051 49.8209C131.582 49.9091 134.153 50.5955 136.355 51.6685C136.596 52.0702 136.839 52.5482 137.034 53.1313V53.1313ZM138.325 44.824C136.352 43.4747 134.171 42.5391 131.82 42.0729C132.167 41.7848 132.537 41.5407 132.977 41.3627C135.212 41.956 137.306 42.9662 139.197 44.3239C138.867 44.4138 138.569 44.5782 138.325 44.824V44.824ZM144.284 54.011C144.222 54.4839 144.118 54.911 143.981 55.2958C140.702 50.2565 135.453 46.7054 129.624 46.3037C129.706 45.9766 129.782 45.663 129.883 45.3511C135.665 45.8138 140.854 49.1649 144.284 54.011V54.011ZM144.354 52.9669C144.354 53.1821 144.343 53.3906 144.328 53.5889C141.181 48.4344 136.098 44.7697 130.35 44.1171C130.507 43.7781 130.656 43.4866 130.85 43.2035C136.247 43.9425 141.034 47.1512 144.289 51.7515C144.331 52.138 144.354 52.5431 144.354 52.9669Z" fill="#111111"/>
<path d="M127.766 115.027H129.186L128.296 117.881H127.001L127.766 115.027Z" fill="#111111"/>
<path d="M89.0643 115.027H92.3979C94.9564 115.027 95.4869 116.81 95.4869 118.013C95.4869 119.205 94.816 120.991 92.2593 120.976H90.6199V124.781H89.0643V115.027V115.027ZM90.6199 119.624H92.3466C93.0517 119.624 93.9176 119.218 93.9176 118.005C93.9176 116.734 93.2039 116.379 92.374 116.379H90.6199V119.624" fill="#111111"/>
<path d="M96.7292 117.596H98.1136V118.913H98.141C98.3104 118.15 99.1849 117.522 100.092 117.522C100.429 117.522 100.405 117.527 100.533 117.542V119.005C100.326 118.972 100.222 118.956 100.017 118.956C99.0069 118.956 98.206 119.52 98.206 121.105V124.803H96.7292V117.596" fill="#111111"/>
<path d="M144.8 117.596H146.185V118.913H146.212C146.376 118.15 147.259 117.522 148.163 117.522C148.498 117.522 148.478 117.527 148.605 117.542V119.005C148.399 118.972 148.29 118.956 148.083 118.956C147.076 118.956 146.277 119.52 146.277 121.105V124.803H144.8V117.596" fill="#111111"/>
<path d="M101.92 114.998H103.39V116.505H101.92V114.998ZM101.92 117.574H103.39V124.781H101.92V117.574Z" fill="#111111"/>
<path d="M105.452 117.596H106.847V118.559L106.874 118.584C107.314 117.793 108.077 117.474 108.951 117.474C110.401 117.474 111.318 118.313 111.318 119.925V124.803H109.848V120.295C109.821 119.171 109.403 118.679 108.539 118.679C107.557 118.679 106.924 119.42 106.924 120.479V124.803H105.452V117.596" fill="#111111"/>
<path d="M155.881 124.805H154.481V123.844L154.457 123.816C154.016 124.609 153.254 124.927 152.378 124.927C150.93 124.927 150.008 124.094 150.008 122.475V117.602H151.483V122.102C151.51 123.232 151.925 123.724 152.792 123.724C153.771 123.724 154.404 122.983 154.404 121.924V117.602H155.881V124.805" fill="#111111"/>
<path d="M117.597 120.04C117.479 119.105 116.884 118.608 116.071 118.608C115.307 118.608 114.234 118.961 114.234 121.279C114.234 122.605 114.729 123.791 116.006 123.791C116.86 123.791 117.453 123.254 117.529 122.469H119.002C118.879 123.973 117.724 125 116.006 125C113.914 125 112.764 123.524 112.764 121.279C112.764 118.974 113.861 117.401 116.057 117.401C117.609 117.401 118.925 118.215 119.067 120.04H117.597" fill="#111111"/>
<path d="M121.72 121.615C121.72 122.869 122.291 123.791 123.515 123.791C124.367 123.791 124.858 123.425 125.12 122.632H126.515C126.248 124.097 124.976 125 123.515 125C121.42 125 120.246 123.554 120.246 121.207C120.246 119.03 121.487 117.401 123.476 117.401C125.572 117.401 126.891 119.327 126.631 121.615H121.72V121.615ZM125.159 120.571C125.1 119.432 124.482 118.608 123.476 118.608C122.452 118.608 121.766 119.364 121.72 120.571H125.159Z" fill="#111111"/>
<path d="M130.287 122.517C130.309 123.471 130.934 123.791 131.676 123.791C132.2 123.791 133.139 123.622 133.148 122.798C133.153 122.193 132.635 121.94 131.132 121.554C130.116 121.298 129.126 120.829 129.167 119.432C129.209 117.855 130.834 117.401 131.854 117.401C133.139 117.401 134.43 118.006 134.411 119.62H133.066C133.032 118.903 132.354 118.559 131.748 118.559C131.156 118.559 130.555 118.83 130.555 119.396C130.555 119.939 130.889 120.151 132.268 120.512C133.805 120.908 134.548 121.471 134.541 122.703C134.531 124.358 132.961 125 131.664 125C130.083 125 128.868 124.295 128.926 122.517H130.287" fill="#111111"/>
<path d="M158.773 122.491C158.795 123.442 159.418 123.791 160.163 123.791C160.686 123.791 161.626 123.622 161.633 122.798C161.641 122.193 161.119 121.94 159.617 121.554C158.602 121.298 157.613 120.829 157.654 119.432C157.697 117.855 159.321 117.401 160.339 117.401C161.626 117.401 162.915 118.006 162.896 119.62H161.549C161.518 118.903 160.84 118.559 160.233 118.559C159.641 118.559 159.04 118.83 159.04 119.396C159.04 119.939 159.376 120.151 160.755 120.512C162.29 120.908 163.031 121.471 163.028 122.703C163.019 124.358 161.451 125 160.149 125C158.57 125 157.353 124.269 157.413 122.491H158.773" fill="#111111"/>
<path d="M137.7 115.027H144.475V116.488H141.867V124.781H140.296V116.488H137.7V115.027Z" fill="#111111"/>
<path d="M163.948 117.574H165.063V115.415H166.538V117.574H167.869V118.71H166.538V122.656C166.538 123.315 166.591 123.648 167.246 123.648C167.458 123.648 167.659 123.647 167.869 123.592V124.77C167.547 124.798 167.238 124.853 166.911 124.853C165.372 124.853 165.09 124.214 165.063 123.014V118.71H163.948V117.574" fill="#111111"/>
</svg>
