<svg width="118" height="88" viewBox="0 0 118 88" fill="none" xmlns="http://www.w3.org/2000/svg">
<path d="M80.6499 84.8964C76.8938 83.0088 68.8433 78.7485 58.7676 78.7583C48.6934 78.7653 41.2611 83.0214 37.5021 84.9035C37.5021 84.9035 45.4488 77.0612 58.7649 77.0612C72.0823 77.0612 80.6499 84.8964 80.6499 84.8964ZM58.7649 80.9866C45.4488 80.9866 37.5021 87.3713 37.5021 87.3713C41.2625 85.4907 48.6948 82.6991 58.7676 82.6893C68.8433 82.6795 76.8952 85.4766 80.6499 87.3657C80.6499 87.3657 72.0823 80.9866 58.7649 80.9866ZM23.9955 63.1202C24.2253 62.7152 24.5547 61.9921 24.9051 61.0545C23.9338 61.6305 23.0228 62.2878 22.1665 63.0123C22.8042 63.0711 23.4138 63.1048 23.9955 63.1202ZM12.0796 45.7527C9.24008 48.8638 7.25969 52.9643 6.14547 57.4796C5.718 57.3591 5.31575 57.2231 4.94154 57.069C6.14826 52.251 8.28704 47.8927 11.3802 44.6092C11.6059 44.9988 11.8371 45.3799 12.0796 45.7527ZM8.93033 37.8895C5.22466 41.7013 2.80138 47.2186 1.24988 53.7883C0.924721 53.1745 0.668243 52.4962 0.46502 51.7577C2.24638 45.1977 4.88831 39.7828 8.91493 36.1069C8.86027 36.6871 8.87006 37.2855 8.93033 37.8895ZM10.7565 43.4797C7.66896 46.9831 5.62829 51.668 4.32486 56.7859C3.91701 56.5757 3.54001 56.3431 3.19804 56.0866C4.63462 50.7067 6.81403 45.8312 10.1539 42.217C10.3417 42.643 10.5435 43.062 10.7565 43.4797ZM9.63952 40.9095C6.26882 44.6484 4.0614 49.8125 2.72293 55.6956C2.33751 55.3438 2.00534 54.9585 1.70822 54.5339C3.21627 48.4868 5.58486 43.2442 9.20924 39.4843C9.32417 39.9593 9.47134 40.433 9.63952 40.9095ZM27.9212 31.8523C28.2267 32.3386 28.486 32.8333 28.7201 33.4709C23.7866 31.6925 18.2099 31.9154 13.5372 34.4267C13.711 33.8311 13.9969 33.1416 14.2912 32.6245C18.5001 30.7844 23.2555 30.507 27.9212 31.8523ZM8.20856 34.9578C4.238 38.743 1.61712 44.3219 0.20437 50.6408C0.162323 50.4137 0.121658 50.1811 0.0866194 49.9443C-0.280584 47.5297 0.572943 44.6218 1.64372 42.2913C3.22886 38.8523 5.8806 35.4945 8.20856 34.9578ZM27.1433 30.8265C23.4615 29.6185 19.6942 29.4924 16.2113 30.4215C17.4671 29.4573 19.1209 28.8281 21.1854 28.6557C23.498 28.4665 25.617 29.1462 27.1433 30.8265ZM26.7887 50.062C24.992 50.3843 23.2583 50.9715 21.6339 51.8334C18.1258 53.6874 15.3116 56.7775 13.3985 60.4968C13.0243 60.2754 12.6654 60.0371 12.3263 59.7793C14.3557 55.8876 17.3256 52.6462 21.027 50.6898C22.793 49.7551 24.671 49.1203 26.6121 48.7741C26.6934 49.1945 26.7495 49.6234 26.7887 50.062ZM26.6332 54.3054C26.5673 54.7917 26.4888 55.2724 26.3963 55.7461C25.5484 56.0375 24.7229 56.3963 23.9184 56.8209C21.4503 58.12 19.3634 60.0049 17.6899 62.2429C17.2499 62.1238 16.8154 61.9921 16.3851 61.8477C18.2127 59.293 20.5393 57.1404 23.3129 55.6732V55.676C24.3837 55.1084 25.4937 54.653 26.6332 54.3054ZM26.8406 51.4508C26.8378 51.8992 26.8238 52.3449 26.7902 52.7947C25.4026 53.1395 24.0571 53.6482 22.7761 54.325C19.7292 55.931 17.2289 58.4676 15.3844 61.4777C14.9836 61.3138 14.5911 61.1358 14.2085 60.9438C16.1763 57.6758 18.8714 54.9206 22.1721 53.1815C23.6563 52.3953 25.2232 51.8221 26.8406 51.4508ZM20.4748 62.8133C19.9745 62.739 19.4713 62.6521 18.9668 62.5456C20.5575 60.7518 22.9681 58.6722 26.0249 57.4445C25.8735 58.0401 25.7684 58.4087 25.582 59.052C23.732 59.9446 21.9016 61.3278 20.4748 62.8133ZM10.1861 57.53C9.88477 57.069 9.63391 56.5729 9.42648 56.0417C10.6612 53.3118 12.3263 50.8706 14.3739 48.8862C14.6584 49.2296 14.9401 49.5575 15.2204 49.863C13.0705 51.9525 11.3732 54.5843 10.1861 57.53ZM9.08452 54.929C8.91634 54.1835 8.85044 53.3707 8.88268 52.4934C9.92402 50.3689 11.2387 48.4602 12.8112 46.8388C13.0607 47.1948 13.3143 47.5437 13.575 47.8772C11.6914 49.8532 10.1763 52.2622 9.08452 54.929ZM11.6675 59.2369C11.3242 58.9258 11.0032 58.5937 10.7117 58.2405C12.0516 55.3775 13.8764 52.8312 16.1216 50.8258C16.451 51.1593 16.7663 51.4578 17.0635 51.7241C14.7902 53.7266 12.9682 56.3108 11.6675 59.2369ZM29.5904 38.017C24.8602 36.7151 20.0473 37.1776 15.9184 39.3581C15.0649 39.8108 14.2632 40.3251 13.5092 40.8997C13.4335 40.419 13.3718 39.9341 13.3143 39.4394C13.9492 38.9952 14.6136 38.5846 15.3101 38.2174C19.6059 35.9486 24.5771 35.4118 29.4825 36.6506C29.5386 37.1019 29.5764 37.5602 29.5904 38.017ZM29.3535 35.793C24.3388 34.1702 19.1714 34.543 14.7761 36.8651C14.2211 37.1594 13.6886 37.4817 13.1728 37.8292C13.149 37.2953 13.1588 36.7796 13.2008 36.2751C13.5218 36.0831 13.8413 35.8953 14.1707 35.7215C18.6612 33.349 23.889 32.8683 29.0074 34.33C29.149 34.8092 29.2652 35.2969 29.3535 35.793ZM29.3816 41.18C29.3101 41.6158 29.2204 42.0404 29.1139 42.4496C25.2989 41.9535 21.5316 42.5926 18.2029 44.3485C17.0691 44.9483 16.0165 45.6756 15.0411 46.5024C14.8659 46.0624 14.7145 45.6406 14.5715 45.2202C15.5119 44.455 16.5225 43.7824 17.6017 43.2036C21.198 41.3061 25.2737 40.6236 29.3816 41.18ZM28.7775 43.5091C28.6136 43.9617 28.4201 44.3892 28.1875 44.825C27.7446 44.1397 27.2246 43.7473 26.7131 43.5105C27.3942 43.4797 28.0866 43.4769 28.7775 43.5091ZM29.5947 38.9111C29.5876 39.3511 29.5624 39.7884 29.5189 40.22C25.1854 39.3077 20.8378 39.8598 17.0606 41.8582C16.0151 42.409 15.041 43.0621 14.1328 43.8076C14.0025 43.3423 13.889 42.8855 13.7895 42.4286C14.6234 41.7882 15.5148 41.2122 16.4566 40.7147C20.4482 38.6028 25.0284 37.9918 29.5947 38.9111ZM24.9457 44.9946C21.7881 45.4836 18.7145 46.8374 16.1637 49.0053C15.9619 48.5947 15.7698 48.1925 15.5947 47.8015C17.7124 46.061 20.4384 44.5868 23.76 43.8917C24.2127 44.214 24.6065 44.5868 24.9457 44.9946ZM26.28 47.461C22.9415 47.9403 19.945 49.3025 17.4363 51.3989C17.2106 51.0037 17.0018 50.6212 16.8014 50.2456C19.4236 48.1099 22.5028 46.7589 25.767 46.232C25.9702 46.623 26.1412 47.035 26.28 47.461ZM95.4936 63.0137C94.6415 62.2878 93.7249 61.6319 92.7522 61.0559C93.1068 61.9935 93.4361 62.7166 93.6688 63.1216C94.2476 63.1048 94.8587 63.0711 95.4936 63.0137ZM106.283 44.6092C109.376 47.8927 111.515 52.2496 112.72 57.069C112.347 57.2231 111.942 57.3591 111.516 57.4796C110.403 52.9629 108.424 48.8638 105.583 45.7527C105.823 45.3799 106.058 44.9988 106.283 44.6092ZM108.749 36.1069C112.77 39.7828 115.415 45.1977 117.196 51.7577C116.992 52.4962 116.735 53.1745 116.41 53.7883C114.86 47.2186 112.437 41.7013 108.73 37.8895C108.79 37.2855 108.805 36.6871 108.749 36.1069ZM107.506 42.2156C110.849 45.8298 113.027 50.7066 114.462 56.0852C114.123 56.3416 113.749 56.5743 113.337 56.7845C112.03 51.6666 109.99 46.9817 106.906 43.4782C107.121 43.062 107.323 42.643 107.506 42.2156ZM108.451 39.4829C112.075 43.2442 114.442 48.4854 115.952 54.5324C115.656 54.9571 115.321 55.3425 114.934 55.6942C113.6 49.8112 111.393 44.647 108.023 40.9081C108.192 40.433 108.336 39.9593 108.451 39.4829ZM103.37 32.6245C103.663 33.1416 103.95 33.8311 104.12 34.4267C99.4501 31.9154 93.8734 31.6939 88.9386 33.4709C89.1769 32.8333 89.4361 32.3372 89.7417 31.8523C94.406 30.507 99.1614 30.7844 103.37 32.6245ZM116.018 42.2913C117.093 44.6218 117.943 47.5297 117.575 49.9443C117.54 50.1811 117.499 50.4137 117.457 50.6408C116.044 44.3205 113.425 38.743 109.456 34.9578C111.779 35.4945 114.435 38.8523 116.018 42.2913ZM96.4719 28.6557C98.5405 28.8281 100.194 29.4559 101.449 30.4215C97.9673 29.4924 94.2014 29.6185 90.5153 30.8265C92.0458 29.1462 94.1649 28.4665 96.4719 28.6557ZM91.0479 48.7727C92.9905 49.1189 94.8713 49.7537 96.6331 50.6884C100.337 52.6448 103.304 55.8862 105.335 59.7779C104.993 60.0357 104.634 60.274 104.262 60.4954C102.349 56.7775 99.537 53.6874 96.0262 51.832C94.399 50.9715 92.6667 50.3843 90.8755 50.0606C90.9134 49.6233 90.9708 49.1946 91.0479 48.7727ZM94.3457 55.676V55.6732C97.1222 57.1404 99.4459 59.293 101.276 61.8477C100.843 61.9935 100.412 62.1238 99.9701 62.2429C98.2981 60.0049 96.2084 58.12 93.7417 56.8209C92.9442 56.3963 92.1103 56.0375 91.261 55.7461C91.1713 55.2724 91.0928 54.7903 91.0269 54.3054C92.1677 54.653 93.2792 55.1084 94.3457 55.676ZM95.4866 53.1815C98.7858 54.9206 101.484 57.6758 103.453 60.9438C103.072 61.1358 102.679 61.3138 102.278 61.4777C100.433 58.4676 97.9309 55.931 94.8825 54.325C93.6029 53.6496 92.2574 53.1395 90.8727 52.7947C90.8391 52.3449 90.8237 51.8992 90.8223 51.4508C92.4383 51.8221 94.0066 52.3953 95.4866 53.1815ZM92.0795 59.052C91.8931 58.4087 91.7865 58.0387 91.6394 57.4445C94.6975 58.6722 97.104 60.7504 98.6933 62.5456C98.1902 62.6521 97.6856 62.7404 97.1909 62.8133C95.7599 61.3278 93.9295 59.9446 92.0795 59.052ZM102.44 49.863C102.719 49.5561 103.002 49.2296 103.285 48.8862C105.337 50.8706 107.002 53.3118 108.232 56.0417C108.029 56.5729 107.78 57.0676 107.478 57.53C106.288 54.5843 104.588 51.9525 102.44 49.863ZM104.088 47.8758C104.344 47.5423 104.599 47.1933 104.852 46.8374C106.423 48.4588 107.74 50.3689 108.78 52.492C108.812 53.3693 108.745 54.1821 108.578 54.9277C107.485 52.2622 105.973 49.8532 104.088 47.8758ZM100.601 51.7226C100.895 51.4578 101.212 51.1593 101.537 50.8244C103.785 52.8298 105.61 55.3761 106.951 58.2391C106.661 58.5923 106.34 58.9244 105.994 59.2355C104.693 56.3108 102.873 53.7266 100.601 51.7226ZM88.1776 36.6506C93.0829 35.4118 98.057 35.9486 102.349 38.2174C103.047 38.5846 103.709 38.9952 104.343 39.4394C104.29 39.9341 104.224 40.419 104.151 40.8997C103.397 40.3265 102.595 39.8122 101.742 39.3581C97.6127 37.1776 92.7998 36.7151 88.0668 38.017C88.0851 37.5602 88.1229 37.1019 88.1776 36.6506ZM88.6541 34.33C93.7725 32.8683 99.0045 33.349 103.491 35.7215C103.822 35.8953 104.145 36.0831 104.459 36.2751C104.503 36.7796 104.514 37.2967 104.489 37.8292C103.974 37.4817 103.443 37.158 102.885 36.8651C98.4915 34.5444 93.3268 34.1702 88.3051 35.793C88.3962 35.2969 88.5125 34.8092 88.6541 34.33ZM100.064 43.2036C101.142 43.7824 102.148 44.4564 103.091 45.2202C102.947 45.6406 102.793 46.0624 102.62 46.5024C101.644 45.6756 100.591 44.9483 99.46 44.3485C96.1285 42.5912 92.3626 41.9535 88.5476 42.4496C88.4411 42.0404 88.3527 41.6144 88.2799 41.18C92.3906 40.6236 96.4663 41.3061 100.064 43.2036ZM90.9484 43.5119C90.4369 43.7487 89.9155 44.1397 89.474 44.8264C89.2441 44.3892 89.0479 43.9631 88.8839 43.5105C89.5749 43.4769 90.2645 43.4796 90.9484 43.5119ZM101.205 40.7133C102.148 41.2094 103.034 41.7868 103.869 42.4272C103.772 42.8841 103.656 43.3409 103.529 43.8062C102.62 43.062 101.642 42.4076 100.602 41.8568C96.8209 39.8584 92.4747 39.3063 88.1411 40.2186C88.1005 39.787 88.0739 39.3511 88.0668 38.9097C92.6317 37.9918 97.2147 38.6028 101.205 40.7133ZM93.9001 43.8917C97.2217 44.5868 99.9477 46.061 102.064 47.8015C101.889 48.1925 101.702 48.5947 101.494 49.0053C98.9456 46.8374 95.872 45.4822 92.7143 44.9946C93.0535 44.5868 93.4474 44.214 93.9001 43.8917ZM91.8958 46.2306C95.1572 46.7575 98.2392 48.1085 100.86 50.2442C100.66 50.6212 100.448 51.0023 100.225 51.3975C97.715 49.3024 94.7171 47.9389 91.3801 47.4596C91.523 47.035 91.6884 46.623 91.8958 46.2306ZM46.3262 33.3966C46.3094 33.4064 46.2912 33.4092 46.2715 33.419C46.2673 33.3882 46.2646 33.3616 46.2617 33.3322C46.28 33.3518 46.3038 33.3742 46.3262 33.3966ZM71.425 33.3308C71.4081 33.3518 71.3843 33.3728 71.3619 33.3966C71.3801 33.4064 71.3983 33.4092 71.4152 33.419C71.4194 33.3868 71.4221 33.3616 71.425 33.3308ZM31.8917 34.8078C31.7165 34.1996 31.5246 33.6138 31.3199 33.0505C31.7516 32.5908 32.1959 32.1466 32.65 31.7121C33.0648 32.0106 33.4825 32.3442 33.8973 32.717C33.198 33.384 32.5294 34.0847 31.8917 34.8078ZM32.0291 31.2889C31.6998 31.6407 31.3774 31.998 31.0592 32.3638C30.8392 31.7948 30.6037 31.2539 30.3585 30.7424C30.4271 30.6667 30.4986 30.5938 30.5673 30.5195C31.0537 30.7199 31.5386 30.982 32.0291 31.2889ZM32.5561 37.4116C32.4215 36.7852 32.2716 36.1714 32.1104 35.573C32.891 34.7924 33.711 34.0483 34.5645 33.3378C34.9275 33.6951 35.2919 34.0763 35.6549 34.4869C34.5603 35.402 33.5259 36.376 32.5561 37.4116ZM33.0606 40.2186C32.9639 39.567 32.856 38.9265 32.7383 38.3015C33.8693 37.2224 35.069 36.2134 36.3388 35.2815C36.664 35.6767 36.9864 36.0901 37.3087 36.5217C35.7909 37.6429 34.3669 38.8803 33.0606 40.2186ZM38.87 38.7738C36.8882 40.0757 35.0578 41.5653 33.4012 43.2134C33.3479 42.5379 33.2779 41.8667 33.1966 41.2024C34.6808 39.8388 36.2856 38.5874 37.994 37.4719C38.2884 37.8895 38.5799 38.3253 38.87 38.7738ZM46.4804 34.976C46.3935 34.4365 46.336 33.995 46.273 33.419C46.2912 33.4092 46.3108 33.4064 46.3276 33.3966C46.6878 33.7946 47.0999 34.1996 47.554 34.6102C47.1938 34.7265 46.8349 34.8471 46.4804 34.976ZM46.7901 36.5806C47.5511 36.3297 48.3248 36.0971 49.104 35.8967C49.624 36.2891 50.1734 36.6843 50.7565 37.0725C49.5245 37.3514 48.3192 37.6905 47.1405 38.0899C47.0536 37.7564 46.9695 37.4228 46.8994 37.0893C46.8588 36.9071 46.8237 36.7389 46.7901 36.5806ZM40.3402 41.1996C37.8553 42.6668 35.575 44.4158 33.5568 46.403C33.5456 45.6911 33.5189 44.9876 33.4755 44.2883C35.3269 42.6192 37.3605 41.1323 39.5455 39.8501C39.8104 40.2873 40.0739 40.7399 40.3402 41.1996ZM58.8434 68.0097C60.9176 68.0097 62.947 68.175 64.919 68.4861C64.877 68.9976 64.8349 69.5091 64.7971 70.0136C62.8629 69.7011 60.877 69.5316 58.8419 69.5316C56.8097 69.5316 54.8237 69.7011 52.8882 70.0136C52.8504 69.5105 52.8097 68.9976 52.7677 68.4861C54.7425 68.175 56.7691 68.0097 58.8434 68.0097ZM50.5252 70.4761C45.9772 71.5286 41.7838 73.4247 38.1202 75.978C37.9184 75.5015 37.7054 75.0138 37.4783 74.5177C41.2569 71.9476 45.5637 70.0403 50.2197 68.9752C50.3234 69.4699 50.4243 69.9744 50.5252 70.4761ZM67.4712 68.9752C72.1272 70.0403 76.4299 71.9476 80.2126 74.5177C79.9842 75.0138 79.7697 75.5015 79.5693 75.978C75.9043 73.4261 71.7137 71.5286 67.1629 70.4761C67.2624 69.9744 67.3647 69.4699 67.4712 68.9752ZM64.6752 71.7948C64.6401 72.3119 64.6065 72.8206 64.5827 73.3237C62.7158 73.0322 60.8027 72.8809 58.8448 72.8809C56.891 72.8809 54.9751 73.0322 53.1125 73.3237C53.0816 72.822 53.0508 72.3119 53.0185 71.7948C54.9134 71.5075 56.8616 71.3576 58.8461 71.3576C60.8307 71.3576 62.7761 71.5075 64.6752 71.7948ZM50.849 72.1886C50.9415 72.6847 51.0283 73.1878 51.1138 73.6951C46.7621 74.6243 42.7214 76.3241 39.1461 78.6392C38.9807 78.1557 38.7929 77.6541 38.5897 77.1369C42.2702 74.8246 46.4033 73.1247 50.849 72.1886ZM66.8377 72.1886C71.2862 73.1247 75.4193 74.8246 79.0984 77.1369C78.8952 77.6541 78.7074 78.1571 78.5434 78.6392C74.9653 76.3241 70.9274 74.6243 66.5728 73.6951C66.6569 73.1878 66.7452 72.6847 66.8377 72.1886ZM86.3654 33.0505C86.1621 33.6138 85.9715 34.1996 85.7921 34.8078C85.1572 34.0833 84.4901 33.384 83.7908 32.717C84.2056 32.3442 84.6233 32.0106 85.0381 31.7121C85.495 32.148 85.9365 32.5908 86.3654 33.0505ZM86.6246 32.3638C86.3107 31.998 85.9898 31.6407 85.6604 31.2889C86.1509 30.9806 86.6373 30.72 87.1208 30.5182C87.1895 30.5924 87.2638 30.6653 87.3296 30.741C87.083 31.2539 86.8475 31.7948 86.6246 32.3638ZM85.5777 35.573C85.4165 36.1714 85.2652 36.7838 85.132 37.4116C84.165 36.3774 83.125 35.402 82.0304 34.4883C82.3962 34.0777 82.7606 33.6965 83.125 33.3392C83.9786 34.0483 84.7985 34.7924 85.5777 35.573ZM81.3465 35.2815C82.6177 36.2134 83.823 37.2238 84.947 38.3015C84.8293 38.9265 84.72 39.567 84.6261 40.2186C83.317 38.8803 81.8987 37.6414 80.3752 36.5203C80.7003 36.0901 81.0255 35.6767 81.3465 35.2815ZM71.2063 34.976C70.8559 34.8471 70.4957 34.7265 70.1355 34.6102C70.5868 34.1996 71.0003 33.7946 71.3619 33.3966C71.3801 33.4064 71.3983 33.4092 71.4152 33.419C71.3521 33.995 71.2988 34.4365 71.2063 34.976ZM79.6954 37.4719C81.4025 38.5874 83.0101 39.8388 84.4971 41.2024C84.4102 41.8667 84.3444 42.5365 84.2883 43.2134C82.6331 41.5653 80.7999 40.0757 78.8195 38.7738C79.1068 38.3253 79.4011 37.8895 79.6954 37.4719ZM78.1439 39.8501C80.3275 41.1323 82.3612 42.6192 84.2112 44.2883C84.1706 44.9876 84.1439 45.6911 84.1341 46.403C82.1117 44.4158 79.837 42.6668 77.3465 41.1996C77.61 40.7399 77.8791 40.2873 78.1439 39.8501ZM70.5476 38.0885C69.3689 37.6905 68.1622 37.3514 66.933 37.0711C67.5133 36.6829 68.0641 36.2877 68.5827 35.8953C69.3661 36.0971 70.1383 36.3297 70.8966 36.5792C70.8657 36.7375 70.8307 36.9057 70.7901 37.0865C70.7158 37.4214 70.6359 37.7549 70.5476 38.0885ZM62.3528 39.6749C63.1657 39.2811 63.9562 38.8662 64.7144 38.4318C66.5588 38.7163 68.3542 39.1339 70.0935 39.6679C69.9477 40.1541 69.795 40.639 69.645 41.1323C67.3101 40.412 64.87 39.9187 62.3528 39.6749ZM76.6933 42.3852C79.4011 43.8104 81.8973 45.5551 84.1313 47.5535C84.1355 48.3018 84.1608 49.053 84.2014 49.8013C81.795 47.4274 79.0283 45.3842 75.973 43.7585C76.2126 43.2919 76.4537 42.835 76.6933 42.3852ZM33.4881 49.8027C33.5302 49.0544 33.5512 48.3032 33.5596 47.5549C35.7908 45.5551 38.287 43.8104 40.9947 42.3866C41.2358 42.835 41.4755 43.2919 41.7151 43.7613C38.6626 45.3855 35.8917 47.4288 33.4881 49.8027ZM47.5946 39.6679C49.3339 39.1339 51.1307 38.7163 52.9737 38.4318C53.7348 38.8662 54.5238 39.2797 55.3353 39.6749C52.8181 39.9187 50.3795 40.412 48.0473 41.1323C47.8959 40.639 47.7404 40.1541 47.5946 39.6679ZM33.1307 53.487C33.247 52.6714 33.3367 51.8474 33.4026 51.0219C36.0417 48.6228 39.0452 46.5935 42.3402 45.017C42.5603 45.4794 42.7789 45.9461 42.999 46.4212C39.2793 48.2136 35.9464 50.6141 33.1307 53.487ZM58.8434 41.3131C62.4397 41.3131 65.9071 41.8022 69.1839 42.7117C69.1531 42.8084 69.1278 42.9079 69.0998 43.0074C68.9961 43.4054 68.8966 43.802 68.7971 44.1986C65.6464 43.3157 62.3051 42.835 58.8419 42.835C55.3801 42.835 52.0417 43.3157 48.8868 44.1986C48.7873 43.8034 48.6906 43.4068 48.5841 43.0074C48.5574 42.9079 48.5308 42.8084 48.5028 42.7117C51.781 41.8008 55.2498 41.3131 58.8434 41.3131ZM75.3465 45.017C78.6429 46.5935 81.6478 48.6228 84.2855 51.0219C84.3542 51.8474 84.4439 52.6714 84.556 53.487C81.7417 50.6141 78.4074 48.2122 74.6892 46.4212C74.9078 45.9461 75.1264 45.4794 75.3465 45.017ZM32.3234 57.6758C32.5631 56.7298 32.7635 55.7685 32.9303 54.7903C36.0095 51.8936 39.6156 49.5084 43.6086 47.7777C43.8133 48.2444 44.0123 48.7195 44.2127 49.1987C39.6353 51.1971 35.589 54.105 32.3234 57.6758ZM58.8434 44.6512C62.1566 44.6512 65.3591 45.066 68.4032 45.8438C68.2855 46.3413 68.1734 46.8388 68.0613 47.3363C65.1292 46.5781 62.0361 46.1731 58.8434 46.1731C55.6492 46.1731 52.563 46.5781 49.6226 47.3363C49.5161 46.8388 49.4026 46.3413 49.2834 45.8438C52.3304 45.0646 55.5343 44.6512 58.8434 44.6512ZM74.0809 47.7791C78.0739 49.5098 81.6828 51.895 84.7564 54.7917C84.9246 55.7685 85.1264 56.7312 85.3647 57.6772C82.0991 54.105 78.0528 51.1985 73.4768 49.2002C73.6758 48.7209 73.8749 48.2458 74.0809 47.7791ZM58.8434 47.9851C61.9015 47.9851 64.8672 48.3411 67.7011 49.0068C67.596 49.5099 67.4964 50.0073 67.3955 50.5076C64.6639 49.8574 61.7978 49.5099 58.8434 49.5099C55.8917 49.5099 53.0284 49.8574 50.2912 50.5076C50.1945 50.0073 50.0921 49.5099 49.9856 49.0068C52.8209 48.3411 55.788 47.9851 58.8434 47.9851ZM85.7529 59.1052C86.186 60.5669 86.713 61.9823 87.3352 63.315C87.3296 63.322 87.3212 63.3318 87.3128 63.3416C83.5259 58.3891 78.3612 54.4526 72.3388 52.066C72.5224 51.5825 72.7102 51.1032 72.8966 50.6296C77.8076 52.5579 82.179 55.4686 85.7529 59.1052ZM30.3753 63.3402C30.3683 63.3304 30.3613 63.3206 30.3514 63.3136C30.9765 61.9808 31.5007 60.5654 31.9352 59.1038C35.5077 55.4672 39.8791 52.5565 44.7915 50.6268C44.9765 51.1019 45.1657 51.5811 45.3465 52.0632C39.3269 54.4526 34.1608 58.3877 30.3753 63.3402ZM86.9568 63.7284C86.6036 64.118 86.2504 64.5286 85.9057 64.963C82.0486 60.543 77.0297 57.0774 71.2848 55.0075C71.453 54.5142 71.6212 54.035 71.7936 53.5557C77.7291 55.6732 82.926 59.2117 86.9568 63.7284ZM31.781 64.963C31.4377 64.5286 31.0845 64.118 30.7327 63.7284C34.7635 59.2117 39.959 55.6732 45.8959 53.5543C46.0669 54.0336 46.2351 54.5142 46.4033 55.0061C40.657 57.0774 35.6381 60.5416 31.781 64.963ZM58.8434 51.3232C61.6773 51.3232 64.4285 51.6288 67.0732 52.2005C66.9779 52.705 66.8868 53.2081 66.7985 53.7042C64.2477 53.1465 61.5848 52.8466 58.8448 52.8466C56.1062 52.8466 53.4432 53.1465 50.8882 53.7042C50.8013 53.2081 50.7116 52.705 50.6205 52.2005C53.2596 51.6288 56.0122 51.3232 58.8434 51.3232ZM70.7719 56.5434C76.4243 58.3807 81.4418 61.489 85.4824 65.5096C85.1601 65.9342 84.8447 66.3672 84.5336 66.8185C80.6555 62.8665 75.7908 59.8087 70.3037 58.0065C70.4607 57.5146 70.6149 57.0255 70.7719 56.5434ZM58.8434 54.6628C61.4768 54.6628 64.0416 54.9277 66.5126 55.4223C66.4285 55.9282 66.3472 56.4341 66.2729 56.9372C63.8777 56.4482 61.397 56.1847 58.8434 56.1847C56.2925 56.1847 53.8048 56.4482 51.4152 56.9372C51.3367 56.4341 51.2568 55.9282 51.1783 55.4223C53.6493 54.9291 56.2113 54.6628 58.8434 54.6628ZM33.1559 66.8185C32.842 66.3686 32.528 65.9342 32.2071 65.5096C36.2463 61.489 41.2652 58.3793 46.9162 56.5434C47.0746 57.0255 47.2288 57.5146 47.383 58.0065C41.8973 59.8087 37.034 62.8665 33.1559 66.8185ZM69.8328 59.5817C75.2119 61.1821 80.0584 63.9274 84.0668 67.5107C83.7725 67.9564 83.4838 68.4063 83.2049 68.8687C79.3423 65.333 74.6429 62.6255 69.4025 61.0559C69.5455 60.5584 69.6871 60.0694 69.8328 59.5817ZM58.8434 57.9939C61.3045 57.9939 63.6983 58.2265 66.0206 58.6623C65.9464 59.1696 65.8777 59.6756 65.8118 60.1759C63.5623 59.747 61.2344 59.5172 58.8448 59.5172C56.4593 59.5172 54.1286 59.747 51.8763 60.1759C51.8104 59.6756 51.7417 59.1696 51.6703 58.6623C53.9884 58.2265 56.3851 57.9939 58.8434 57.9939ZM48.2842 61.0559C43.0466 62.6255 38.3486 65.333 34.4832 68.8687C34.2029 68.4063 33.917 67.9578 33.6254 67.5107C37.631 63.926 42.4748 61.1807 47.8595 59.5817C48.0038 60.0694 48.144 60.5584 48.2842 61.0559ZM58.8434 61.3334C61.1517 61.3334 63.404 61.538 65.5904 61.9234C65.5287 62.4363 65.4698 62.9436 65.4137 63.4453C63.2862 63.0613 61.0942 62.8581 58.8434 62.8581C56.5953 62.8581 54.4005 63.0613 52.2757 63.4453C52.2183 62.9436 52.1594 62.4363 52.0949 61.9234C54.2827 61.538 56.535 61.3334 58.8434 61.3334ZM49.1082 64.16C44.1104 65.532 39.5806 67.927 35.7656 71.0941C35.5091 70.6274 35.2456 70.1594 34.9779 69.6997C38.9303 66.4905 43.5918 64.0647 48.7242 62.6704C48.856 63.165 48.9835 63.6611 49.1082 64.16ZM68.9639 62.6718C74.0935 64.0662 78.7578 66.492 82.7102 69.7011C82.4411 70.1608 82.179 70.6289 81.9211 71.0955C78.1075 67.9284 73.5763 65.532 68.5784 64.1614C68.706 63.6611 68.8321 63.1651 68.9639 62.6718ZM68.1776 65.8053C73.0648 67.0245 77.5511 69.1686 81.4221 72.0345C81.1741 72.5138 80.9344 72.993 80.7074 73.4681C76.9582 70.6274 72.5994 68.4973 67.83 67.2991C67.9435 66.7988 68.0585 66.3014 68.1776 65.8053ZM58.8434 64.6715C61.0241 64.6715 63.1559 64.8537 65.2217 65.1957C65.1699 65.71 65.1236 66.2187 65.076 66.7218C63.0564 66.3812 60.9709 66.1948 58.8419 66.1948C56.713 66.1948 54.6317 66.3812 52.6121 66.7218C52.5644 66.2201 52.5154 65.71 52.4621 65.1957C54.5336 64.8537 56.6654 64.6715 58.8434 64.6715ZM49.8539 67.3005C45.0914 68.4987 40.7285 70.6289 36.9822 73.4695C36.7523 72.993 36.5126 72.5137 36.2632 72.0359C40.1356 69.17 44.6205 67.0259 49.5119 65.8067C49.6282 66.3014 49.7446 66.7988 49.8539 67.3005ZM44.0767 25.354C44.0571 25.2993 44.0431 25.2503 44.0263 25.197C43.9814 25.2307 43.9394 25.2672 43.8931 25.2994C43.9548 25.3162 44.0193 25.3372 44.0767 25.354ZM42.3977 2.636C42.0487 2.92609 41.7053 3.22738 41.3662 3.53569C41.6773 3.2414 42.0207 2.93589 42.3977 2.636ZM43.6423 23.7844C43.7263 24.2245 43.8441 24.6757 44.0263 25.197C43.9814 25.2307 43.9394 25.2672 43.8931 25.2994C43.4503 25.1663 42.9233 25.0051 42.3612 24.7921C42.7845 24.4445 43.2078 24.1082 43.6423 23.7844ZM49.1082 0C46.6289 1.12952 44.3234 2.66966 42.2589 4.55453C41.4124 4.65543 40.5238 4.95951 39.6941 5.38413C40.0333 4.95951 40.5897 4.27703 41.3647 3.53569C41.7039 3.22738 42.0473 2.92609 42.3963 2.636C44.0122 1.35232 46.2519 0.140139 49.1082 0ZM43.4951 22.4629C42.7649 23.0627 42.0529 23.6976 41.376 24.373C40.9681 24.1783 40.5561 23.9484 40.1524 23.6807C41.191 22.6185 42.3024 21.6417 43.4741 20.7644C43.4741 20.77 43.4712 20.7729 43.4712 20.7771C43.4712 21.4399 43.4755 21.9809 43.4951 22.4629ZM39.5301 23.2239C39.1868 22.9464 38.8588 22.6255 38.5561 22.2695C40.5238 19.932 42.7901 17.9294 45.2792 16.3473C44.6149 17.1797 44.0823 18.134 43.7712 19.0828C42.2393 20.2936 40.8182 21.6824 39.5301 23.2239ZM36.9597 14.0966C37.8889 8.74469 41.5848 6.28243 44.4103 5.83258C41.5161 7.97111 38.9933 10.7683 36.9597 14.0966ZM73.5006 25.354C73.5203 25.2993 73.5385 25.2503 73.5553 25.197C73.5959 25.2307 73.6408 25.2672 73.6828 25.2994C73.6212 25.3162 73.5581 25.3372 73.5006 25.354ZM76.2098 3.53569C75.8706 3.22738 75.5287 2.92609 75.1783 2.636C75.5581 2.93589 75.8987 3.2414 76.2098 3.53569ZM75.2133 24.7921C74.6527 25.0051 74.1271 25.1677 73.6814 25.2994C73.6394 25.2672 73.5946 25.2307 73.5539 25.197C73.7319 24.6757 73.8552 24.2259 73.9337 23.7844C74.371 24.1082 74.7971 24.4445 75.2133 24.7921ZM75.1783 2.636C75.5287 2.92609 75.8706 3.22738 76.2098 3.53569C76.9849 4.27703 77.5441 4.96091 77.8847 5.38413C77.0493 4.95951 76.1622 4.65543 75.3142 4.55453C73.2526 2.66966 70.9485 1.12952 68.4677 0C71.3241 0.140139 73.5665 1.35232 75.1783 2.636ZM74.1047 20.7756V20.7631C75.2736 21.6403 76.3822 22.6171 77.4278 23.6794C77.0227 23.947 76.6093 24.1768 76.2042 24.3716C75.5231 23.6962 74.8153 23.0599 74.0795 22.4615C74.1019 21.9808 74.1047 21.4399 74.1047 20.7756ZM73.8062 19.0828C73.4978 18.134 72.9596 17.1797 72.2995 16.3473C74.7873 17.9294 77.0521 19.932 79.0199 22.2695C78.7186 22.6255 78.3906 22.945 78.0458 23.2239C76.7578 21.6824 75.3367 20.2936 73.8062 19.0828ZM73.1671 5.83117C75.9912 6.28102 79.6912 8.74328 80.6205 14.0952C78.5882 10.7683 76.0627 7.9711 73.1671 5.83117ZM58.2911 16.8489C54.0136 16.9428 49.8314 18.2924 46.2925 20.4786C46.3108 19.8774 46.3654 19.3238 46.4411 18.8137C49.9436 16.8265 54.0459 15.5989 58.1987 15.4952C58.2323 15.9619 58.2561 16.3865 58.2911 16.8489ZM58.7887 31.2861C60.7214 31.2861 62.5756 31.5188 64.3696 31.949C63.8973 32.3344 63.4306 32.6945 62.9737 33.0365C61.6226 32.78 60.2295 32.6483 58.7887 32.6483C57.3479 32.6483 55.9562 32.7814 54.6023 33.0365C54.1468 32.6945 53.6773 32.3344 53.2078 31.949C55.0031 31.5188 56.8546 31.2861 58.7887 31.2861ZM58.7887 21.7987C62.9695 21.7987 66.8924 22.8525 70.4411 24.7374C70.2561 25.148 70.0487 25.5516 69.8188 25.944C66.4593 24.1544 62.7452 23.1594 58.7887 23.1594C54.8321 23.1594 51.1195 24.1544 47.76 25.944C47.5273 25.5516 47.3199 25.148 47.1363 24.7374C50.6808 22.8525 54.6093 21.7987 58.7887 21.7987ZM58.7887 24.9658C62.4131 24.9658 65.8427 25.7548 69.0003 27.2011C68.7284 27.5766 68.4411 27.9424 68.1383 28.3054C65.2372 27.0231 62.1019 26.3266 58.7901 26.3266C55.4755 26.3266 52.3444 27.0231 49.4404 28.3054C49.1391 27.9424 48.8504 27.5752 48.5771 27.2011C51.7375 25.7548 55.1615 24.9658 58.7887 24.9658ZM58.5448 20.0021C54.3402 20.0119 50.1033 21.3362 46.6429 23.4089C46.5084 22.9464 46.4089 22.4798 46.35 22.0047C49.9394 19.9404 54.1146 18.6988 58.4201 18.6553C58.4593 19.1122 58.5 19.6125 58.5448 20.0021ZM58.7887 34.4463C59.4839 34.4463 60.1692 34.4841 60.8419 34.5415C59.9422 35.1455 59.212 35.5954 58.7887 35.8757C58.3542 35.587 57.6268 35.1357 56.7382 34.5415C57.411 34.4855 58.0949 34.4463 58.7887 34.4463ZM58.7887 28.126C61.6717 28.126 64.4088 28.6277 67.0017 29.5568C66.6457 29.924 66.2785 30.2771 65.9071 30.6218C63.6492 29.8819 61.2778 29.4853 58.7887 29.4853C56.3024 29.4853 53.9282 29.8805 51.6689 30.6218C51.2961 30.2771 50.9317 29.924 50.5729 29.5568C53.1671 28.6277 55.9071 28.126 58.7887 28.126ZM57.7081 10.5455C49.9085 10.8986 42.8672 15.292 38.1804 21.7889C37.9071 21.4021 37.6605 20.9733 37.4517 20.494C42.336 13.9901 49.5399 9.60514 57.5021 9.19733C57.5792 9.64438 57.6492 10.0914 57.7081 10.5455ZM47.8203 14.922C50.8686 13.4211 54.4327 12.4612 57.9366 12.3365C57.9814 12.7947 58.0291 13.2474 58.0641 13.6958C54.1174 13.8219 50.2057 15.0327 46.877 16.9667C47.1461 16.1525 47.4797 15.4826 47.8203 14.922ZM45.0901 5.3491C44.7481 5.00576 44.3388 4.77594 43.8833 4.64982C46.5014 2.75233 49.4026 1.33834 52.4972 0.508715C53.1096 0.758164 53.6212 1.09868 54.102 1.50228C50.8448 2.15253 47.8259 3.46142 45.0901 5.3491ZM37.2526 19.9937C37.0606 19.4556 36.9205 18.8585 36.8336 18.1971C41.5848 11.4199 48.7761 6.73368 56.7859 6.08624C56.9232 6.52207 57.0298 6.96072 57.1391 7.41758C49.069 7.98094 41.795 12.9461 37.2526 19.9937ZM36.7733 17.6071C36.7523 17.3296 36.7383 17.0381 36.7383 16.7368C36.7383 16.1441 36.7719 15.5779 36.8308 15.0369C41.3409 8.60313 47.9688 4.11587 55.446 3.08304C55.7109 3.47823 55.9225 3.88607 56.1342 4.36114C48.1734 5.27345 41.1321 10.3983 36.7733 17.6071ZM71.1362 18.8137C71.2119 19.3224 71.2666 19.8774 71.2876 20.4786C67.7403 18.2924 63.5595 16.9442 59.2863 16.8489C59.3185 16.3865 59.3451 15.9619 59.3787 15.4952C63.5287 15.5989 67.6338 16.8265 71.1362 18.8137ZM59.1559 18.6553C63.4642 18.6974 67.6338 19.9404 71.2245 22.0047C71.1643 22.4798 71.0662 22.9464 70.9316 23.4089C67.474 21.3362 63.2386 20.0119 59.0326 20.0021C59.0788 19.6125 59.1194 19.1122 59.1559 18.6553ZM80.1257 20.494C79.9169 20.9733 79.673 21.4007 79.3955 21.7889C74.7102 15.2906 67.6646 10.8986 59.8693 10.5455C59.9281 10.0928 59.9968 9.64439 60.0739 9.19875C68.0374 9.60655 75.2428 13.9915 80.1257 20.494ZM70.7004 16.9667C67.3773 15.0327 63.4628 13.8219 59.5147 13.6958C59.5497 13.2488 59.5974 12.7947 59.6408 12.3365C63.1475 12.4612 66.7074 13.4197 69.7585 14.922C70.0921 15.4826 70.4285 16.1525 70.7004 16.9667ZM72.4873 5.3491C69.7543 3.46142 66.734 2.15393 63.4754 1.50228C63.9576 1.09868 64.4691 0.758164 65.0788 0.508715C68.1748 1.33834 71.0774 2.75233 73.6969 4.64982C73.2385 4.77454 72.8265 5.00576 72.4873 5.3491ZM80.7438 18.1971C80.6569 18.8599 80.514 19.4556 80.3233 19.9937C75.781 12.9475 68.5098 7.98094 60.4355 7.41758C60.549 6.96072 60.6527 6.52067 60.7929 6.08624C68.8027 6.73368 75.9912 11.4199 80.7438 18.1971ZM80.8391 16.7368C80.8391 17.0381 80.8251 17.3296 80.8041 17.6071C76.4453 10.3983 69.4025 5.27345 61.4404 4.36114C61.659 3.88607 61.865 3.47823 62.1327 3.08304C69.61 4.11587 76.2407 8.60313 80.7494 15.0369C80.8097 15.5765 80.8391 16.1441 80.8391 16.7368Z" fill="#111111"/>
</svg>
