<svg width="191" height="104" viewBox="0 0 191 104" fill="none" xmlns="http://www.w3.org/2000/svg">
<path fill-rule="evenodd" clip-rule="evenodd" d="M172.941 24.4459C173.838 22.5036 174.781 20.9503 175.726 19.7851L177.834 17.6972C178.585 17.0902 179.335 16.7265 180.135 16.6541C182.096 16.6297 182.387 18.9348 181.128 23.5476C180.377 26.5085 179.044 29.1547 177.204 31.4362C175.873 33.0872 174.782 34.1067 173.839 34.5428C172.99 34.8829 172.409 34.9309 171.949 34.7373C171.198 34.3248 170.883 33.184 170.98 31.2417C171.052 29.227 171.73 26.9699 172.941 24.4459ZM170.374 38.7919C178.123 37.966 184.177 33.8878 188.536 26.6551L189.385 25.0041C189.385 25.0041 191.323 20.6346 190.378 17.3091C189.579 14.615 187.739 13.5946 187.739 13.5946C186.068 12.4538 183.694 12.2602 180.69 12.9152C173.425 14.3717 168.05 18.4743 164.706 25.2221C163.931 26.2661 163.253 27.6258 162.795 29.3003C162.358 30.9513 162.188 32.5526 162.479 33.9846C163.011 37.748 165.675 39.3745 170.374 38.7919Z" fill="#111111"/>
<path fill-rule="evenodd" clip-rule="evenodd" d="M153.615 20.5609L153.469 20.4397V20.39C152.112 18.0116 150.007 16.9676 147.173 17.1132C146.253 17.1856 145.188 17.5266 144.025 18.1816C143.104 18.7398 142.522 19.128 142.329 19.4925C142.088 19.9539 142.208 20.2452 142.67 20.39C144.026 20.6577 144.945 20.8514 145.382 21.0947C146.738 21.8465 147.343 23.1094 147.32 24.8564C147.343 28.9103 146.592 33.6688 145.042 39.1548C144.171 41.0483 144.752 41.9458 146.738 41.9222L152.26 41.2184C154.391 40.6837 155.505 39.9799 155.602 39.0571L155.651 37.4314C155.699 32.5769 155.457 28.571 154.974 25.4155L154.997 25.1477C156.91 21.3372 159.43 19.0556 162.577 18.1816C163.836 17.8415 164.952 18.2305 166.017 19.3713C166.38 19.6626 166.598 19.7838 166.792 19.6626C167.614 19.4437 168.366 18.5942 169.117 17.2353C169.771 16.3614 170.037 15.293 169.939 14.0789C169.843 12.4279 168.68 11.6037 166.477 11.7005C162.117 12.0398 157.855 14.9773 153.714 20.4397L153.615 20.5609Z" fill="#111111"/>
<path fill-rule="evenodd" clip-rule="evenodd" d="M121.404 2.35544C120.582 0.48548 118.934 -0.290761 116.463 0.0973597C112.565 0.632007 109.852 1.43267 108.29 2.42783C107.963 2.67117 108.047 2.93805 108.641 3.08371C110.057 3.54509 111.099 4.97721 111.862 7.38007C115.203 16.872 117.14 28.5235 117.721 42.2385C117.721 43.7683 118.158 44.7879 118.933 45.1272C120.677 46.1712 123.293 45.5642 126.756 43.3793C129.734 41.5103 132.737 38.9129 135.886 35.4905C139.033 32.1395 140.923 28.9116 141.625 25.975C142.521 22.5037 141.311 20.1732 138.162 19.056C135.837 18.3041 133.174 18.4489 130.219 19.4929C128.378 20.1244 126.586 21.1675 124.794 22.5028L124.553 22.3083C123.754 14.7343 123.148 10.0978 122.76 8.37436L122.178 5.29207C121.937 4.0056 121.72 3.08371 121.404 2.35544ZM126.32 39.301L124.94 25.9985C128.257 23.4256 130.509 23.2067 131.698 25.2214C132.738 26.9693 132.618 29.4201 131.382 32.5774C130.123 35.7574 128.476 38.0146 126.32 39.301Z" fill="#111111"/>
<path fill-rule="evenodd" clip-rule="evenodd" d="M137.534 45.4921C133.126 51.0504 128.258 55.7845 122.954 59.5462C116.222 64.3038 108.193 67.9687 98.9784 70.518C84.4711 74.4742 71.4902 74.4742 60.0468 70.518L59.5386 70.4212C59.3332 70.5433 59.2967 70.8582 59.3802 71.3675C60.4462 85.8848 70.8959 95.8606 90.852 101.395C98.13 103.386 105.263 103.823 112.249 102.78C119.515 101.687 125.715 99.017 130.872 94.8175C136.37 90.2779 140.099 84.3785 141.915 76.9991C143.999 68.8679 143.683 59.4982 140.996 48.7932L140.632 47.676C140.486 47.4344 140.341 47.3847 140.098 47.4344C139.517 47.5068 139.373 47.8225 139.517 48.4295C140.341 51.7307 140.776 55.3231 140.922 59.1101C141.067 63.7945 140.728 68.2138 139.808 72.3635C137.386 83.263 131.477 90.6904 122.08 94.623C112.926 98.3123 103.541 98.8216 93.8662 96.1275C88.5991 94.5497 83.9377 92.3658 79.7227 89.4275C76.2604 87.0971 73.7169 84.7195 71.9975 82.3158C71.029 80.9326 70.4112 79.743 70.1449 78.6745L70.278 78.6022C73.8013 78.9659 77.858 78.9903 82.4228 78.6501C91.0695 78.044 99.0854 76.3441 106.339 73.4799C114.5 70.2276 121.863 65.4944 128.523 59.2304C133.947 54.0602 137.411 49.4482 139.032 45.3952C139.323 44.8126 139.323 44.4245 138.985 44.278C138.621 44.1332 138.307 44.278 138.161 44.7394L137.534 45.4921Z" fill="#111111"/>
<path fill-rule="evenodd" clip-rule="evenodd" d="M3.13524 44.0585C5.86056 44.2765 9.81977 43.5727 14.8693 42.0194L24.7856 39.4709L27.1593 54.9572C27.7041 57.4577 28.2375 58.9378 28.8431 59.3268L30.0291 59.9338L33.2017 59.7149C37.2462 59.3268 39.2562 58.6229 39.2562 57.5789L39.1109 56.3902L35.8905 36.6058L46.8605 33.8148L49.0768 48.7927L50.1427 53.9141C50.7362 55.6619 51.7282 56.4634 53.0725 56.3169C56.1364 56.0753 58.183 55.4927 59.2367 54.6659C59.5996 54.351 59.6848 53.962 59.4777 53.4038L58.9931 52.2386C57.1892 46.9951 55.7839 40.3448 54.7311 32.2859L67.3492 30.4168C61.4887 36.509 59.4778 41.7769 61.3912 46.2189C62.0813 47.8699 63.1472 49.1075 64.5394 49.7634C65.9073 50.3696 67.4336 50.4908 69.1408 50.1515C72.8947 49.4468 76.2978 47.0919 79.4095 43.0634C81.1655 48.1359 84.761 49.8602 90.2595 48.1124C90.5266 48.0391 90.6954 47.9423 90.6954 47.7478C90.7076 47.5053 90.5623 47.214 90.1629 46.9951C88.3103 46.1456 87.2444 44.1318 87.1113 41.0242C86.9538 39.0819 87.22 36.4357 87.7778 32.9889L88.601 28.2311C88.601 26.7982 87.8613 26.3132 86.3612 26.6534C85.2831 26.895 84.0718 27.4052 82.8127 28.1099C81.6745 28.7893 80.9236 29.2987 80.4998 29.6144C80.1735 30.0278 79.7497 30.7796 79.4104 31.9449C77.7153 37.723 75.245 41.9461 72.0846 44.8112C69.8317 46.8983 68.6092 47.0919 68.3907 45.3205C68.2585 43.9128 68.6335 42.165 69.6864 40.0038C71.6121 35.5374 74.7838 31.5323 79.3016 28.0131C80.6582 27.0171 82.0139 26.2653 83.3339 25.6827C83.6611 25.5606 83.8064 25.3669 83.8064 25.0756C83.8064 24.7119 83.4914 24.4442 82.898 24.3238L79.0719 24.1773C72.9565 24.4206 64.7091 25.6103 54.2229 27.7698L53.7382 19.444C53.5807 12.914 53.7382 8.27754 54.2229 5.63137C54.3682 4.7339 54.1863 4.12687 53.6181 3.78672C53.1456 3.35063 52.165 3.18056 50.8206 3.35063C48.0352 3.64194 45.5649 4.39375 43.4095 5.63137C42.9492 5.89912 42.8039 6.09275 42.9492 6.28724L43.3129 6.57855L43.8576 7.30681C44.2692 7.74377 44.572 9.44277 44.7295 12.307L46.328 29.59L35.2596 32.4542C34.5339 27.4052 34.0614 22.842 33.7099 18.7384L33.0076 9.10175C33.1042 6.94137 32.4029 5.89738 30.9367 5.89738C29.6532 5.89738 27.8372 6.33434 25.5 7.18384C22.6659 8.20428 20.3904 9.41748 18.597 10.8731C18.0288 11.311 17.9192 11.6747 18.2342 11.9171L18.6823 12.1352L18.9851 12.2573C19.8335 12.5242 20.4261 13.2036 20.7054 14.3932C21.8444 20.1217 22.7999 25.2195 23.4786 29.8316L23.2732 29.8804C13.8756 32.3827 6.87603 35.0045 2.22679 37.7474C2.22679 37.7474 -0.267069 39.2275 0.0235631 41.7045C0.325507 44.1797 3.13524 44.0585 3.13524 44.0585ZM24.253 35.2958C17.1813 37.1404 12.6765 38.2568 10.6307 38.5001C9.06882 38.8638 8.2326 38.767 8.16038 38.1844C8.10034 37.8207 8.76601 37.2616 10.1226 36.5334C13.973 34.4942 18.4778 32.892 23.6483 31.63L23.7327 31.5568L24.253 35.2958Z" fill="#111111"/>
<path fill-rule="evenodd" clip-rule="evenodd" d="M113.002 21.9942C110.809 22.3579 108.884 22.8184 107.237 23.4263C102.091 25.5623 99.3429 27.7959 98.9791 30.272C98.8208 31.0247 98.8826 31.7774 99.1236 32.4568C99.4873 33.3551 100.092 33.9377 100.94 34.277C102.188 34.7384 105.129 35.539 109.914 36.7042C112.832 37.4334 114.502 38.5018 114.745 40.0054C116.102 43.4531 114.576 47.507 110.204 52.0213C107.286 55.2736 104.694 57.5797 102.393 59.0362C100.528 60.1779 98.4327 61.0753 95.9754 61.6579C93.0925 62.3373 90.4769 60.9305 88.1518 57.386L87.3895 56.2452C86.9536 55.6626 86.7717 55.2021 86.8083 54.8611C86.8805 54.5218 87.0859 54.3517 87.4618 54.3029L88.1518 54.425C88.3702 54.6195 88.673 54.8131 89.1203 54.9579C91.3731 55.9051 93.5763 55.6373 95.7926 54.0604C97.888 52.5071 99.8728 50.686 101.798 48.5501L104.088 45.5646L105.092 43.5743C105.577 42.239 105.577 41.1227 105.092 40.3464C104.352 39.2048 102.488 38.4765 99.6318 38.1852L99.8493 38.1608C98.1908 37.8939 96.3243 37.5546 94.1698 36.972C92.426 36.535 91.3235 35.71 90.8519 34.5448C89.35 30.3461 91.2757 26.1213 96.6289 21.8486C100.6 18.5238 104.088 16.5083 107.199 15.8288C110.384 15.1738 112.346 16.5815 113 20.0536L113.217 21.8494L113.002 21.9942Z" fill="#111111"/>
</svg>
