<svg xmlns="http://www.w3.org/2000/svg" fill="none" viewBox="0 0 256 166">
  <path fill="#95BCD1" d="M0 0h256v166H0z" opacity=".1"/>
  <path fill="#111" d="M195.85 57H61v52h134.85V57z"/>
  <path fill="#fff" d="M183.64 89.7l-.6 1.46-.59-1.47h-.42v1.9h.26v-1.63l.64 1.63h.17l.63-1.63v1.63h.3v-1.92l-.39.02zm-3.43 0v.24h.63v1.65h.26v-1.67h.61v-.25l-1.5.02zm-6.28-10.52a4.08 4.08 0 00-3.7 1.88c-.61-1.2-1.85-1.9-3.55-1.9-1.3 0-2.86.67-3.47 1.76v-1.38h-3.5v12.07h3.66v-6.94a1.96 1.96 0 011.98-2.1c1.33 0 1.93.9 1.93 2.04v6.98h3.62v-6.96a1.98 1.98 0 012-2.06c1.3 0 1.91.9 1.91 2.04v6.98h3.55v-7.82c.02-3.26-2.13-4.6-4.43-4.6zm-16.63.38h-3.66v6.85c.05.55-.16 1.09-.54 1.5-.38.38-.92.6-1.46.58-1.3 0-1.93-.92-1.93-2.08v-6.85h-3.67v7.62c0 2.58 1.65 4.73 4.57 4.73 1.21 0 2.58-.43 3.23-1.5 0 .41.05.82.1 1.23h3.52c-.09-.73-.11-1.45-.11-2.17l-.05-9.9zm-17.19 1.6v-1.62h-3.55V91.6h3.66v-5.27c0-2.4 1.33-3.27 2.81-3.27.38 0 .79.04 1.15.13v-3.64a3.58 3.58 0 00-.99-.11c-.92 0-2.45.38-3.08 1.74zm-9.55 1.86c0-3.46-2.16-5-4.79-5h-2.22V88h2.22c2.65 0 4.79-1.54 4.79-4.98zm4 0c0 5.32-3.46 8.6-8.6 8.6h-6.21V74.38h6.2c5.15 0 8.6 3.3 8.6 8.63zm-25.08 1.11c-.05-.93-.68-2.03-2.43-2.03a2.28 2.28 0 00-2.38 2.03h4.8zm3.55 1.24c0 .39-.02.77-.07 1.13h-8.36a2.6 2.6 0 002.74 2.33 2.27 2.27 0 002.4-1.58l3.06.88c-.58 2.08-2.5 3.85-5.52 3.85-3.3 0-6.25-2.38-6.25-6.45 0-3.89 2.87-6.37 6-6.37 3.7.02 6 2.33 6 6.21zm-18.25-6.15a4.4 4.4 0 00-3.08 1.09v-6.29h-3.66v17.6h3.66v-7.1a1.98 1.98 0 011.98-1.97c1.32 0 1.95.9 1.95 2.1v6.94h3.67v-7.57c.02-2.65-1.37-4.8-4.52-4.8zM72.24 74.4H86.6v3.66h-5.28V91.6H77.5V78.05h-5.26v-3.66z"/>
</svg>
