<svg fill="none" viewBox="0 0 256 166" xmlns="http://www.w3.org/2000/svg">
<path opacity=".1" fill="#95bcd1" d="M0 0h256v166H0Z"/>
<g fill="#111111">
<path d="M47.317 62.98v29.353h4.361V79.459h11.656v-4.11H51.678v-8.26h12.62V62.98z"/>
<path d="M71.97 92.332h-4.115V72.959h4.115V92.33zm-2.057-23.48a3.006 3.006 0 0 1-3.017-3.02 3.004 3.004 0 0 1 3.017-3.018 3.024 3.024 0 0 1 2.136 5.153 3.003 3.003 0 0 1-2.136.884z"/>
<path d="M86.225 66.377c-1.972 0-3.522.964-3.522 3.773v2.81h3.815v3.475h-3.815v15.897h-4.11V76.439h-3.06v-3.475h3.06v-2.688c0-4.78 2.684-7.715 7.463-7.715h.797v3.816z"/>
<path d="M99.388 76.44H95.45v10.148c0 1.384.587 2.012 2.013 2.012h1.006v3.775h-1.889c-3.396 0-5.242-1.804-5.242-4.99V76.44H87.9v-3.476h3.438v-7.762h4.112v7.758h3.94z"/>
<path d="M115.823 72.96h4.528l-12.076 27.757h-4.365l4.654-10.147-8.13-17.61h4.907l5.324 12.702z"/>
<path d="M131.207 88.223h12.62v4.11h-16.981V62.98h16.772v4.109h-12.411v6.961h11.447v4.11h-11.447z"/>
<path d="M151.918 92.332h-4.114V72.959h4.114V92.33zm-2.056-23.48a3.006 3.006 0 0 1-3.017-3.02 3.004 3.004 0 0 1 3.017-3.018 3.024 3.024 0 0 1 2.136 5.153 3.003 3.003 0 0 1-2.136.884z"/>
<path d="M181.6 62.98v12.914h.085a6.842 6.842 0 0 1 6.331-3.566c4.108 0 7.295 2.222 7.295 8.093v11.907h-4.108V81.136c0-3.312-1.678-4.697-4.445-4.697-3.02 0-5.153 1.804-5.153 6.626v9.267h-4.115V62.98Z"/>
<path d="M208.683 76.44h-3.94v10.148c0 1.384.588 2.012 2.014 2.012h1.005v3.775h-1.889c-3.396 0-5.241-1.804-5.241-4.99V76.44h-3.439v-3.476h3.439v-7.762h4.111v7.758h3.94z"/>
<path d="M164.972 103.428a10.472 10.472 0 0 1-7.036-2.285 7.943 7.943 0 0 1-2.603-6.182 7.91 7.91 0 0 1 1.388-4.637l3.75 1.333a5.257 5.257 0 0 0-.824 2.968c0 3.277 1.94 5.153 5.323 5.153 3.381 0 5.323-1.879 5.323-5.153 0-3.35-2.559-4.416-5.323-5.07-2.696-.638-6.272-2.05-7.996-5.162a6.018 6.018 0 0 1-.845-3.053 6.848 6.848 0 0 1 2.425-5.412 9.79 9.79 0 0 1 6.418-2.048 9.791 9.791 0 0 1 6.42 2.048 6.848 6.848 0 0 1 2.425 5.412 6.377 6.377 0 0 1-4.401 6.245v.082a7.19 7.19 0 0 1 5.198 7.294 7.942 7.942 0 0 1-2.604 6.182 10.475 10.475 0 0 1-7.038 2.285zm0-25.903c-2.792 0-4.526 1.59-4.526 4.15a3.972 3.972 0 0 0 1.226 3.033 4.794 4.794 0 0 0 3.3 1.116 4.794 4.794 0 0 0 3.304-1.116 3.972 3.972 0 0 0 1.222-3.033c0-2.56-1.734-4.15-4.526-4.15z"/>
</g>
</svg>
