<svg width="256" height="166" fill="none" xmlns="http://www.w3.org/2000/svg"><path opacity=".1" fill="#95BCD1" d="M0 0h256v166H0z"/><path d="M144.2 101.7c-2.7-1.3-8.5-4.4-15.8-4.4-7.3 0-12.6 3-15.3 4.4 0 0 5.7-5.6 15.3-5.6 9.6 0 15.8 5.6 15.8 5.6zm-15.8-2.8c-9.6 0-15.3 4.6-15.3 4.6a37.2 37.2 0 0131.1 0s-6.2-4.6-15.8-4.6zm-25-12.8c0-.3.3-.8.6-1.4-.7.4-1.4.8-2 1.4h1.3zm-8.7-12.4c-2 2.2-3.5 5.2-4.3 8.4-.3 0-.6-.2-.8-.3a20 20 0 014.6-8.9l.5.8zm-2.3-5.6A24 24 0 0087 79.5l-.6-1.5c1.3-4.7 3.2-8.6 6.1-11.2v1.3zm1.4 4a22.8 22.8 0 00-4.7 9.5l-.8-.5c1-3.8 2.6-7.3 5-10l.5 1zm-.8-1.8c-2.5 2.6-4 6.3-5 10.5a5 5 0 01-.8-.8c1.1-4.3 2.8-8 5.4-10.8l.4 1zm13.2-6.5l.5 1.1a13.7 13.7 0 00-11 .7l.6-1.3c3-1.3 6.5-1.5 9.9-.5zM91.9 66a21.9 21.9 0 00-5.8 11.2v-.5c-.3-1.7.3-3.8 1-5.5 1.2-2.4 3.1-4.8 4.8-5.2zm13.7-3a14 14 0 00-7.9-.2c1-.7 2.1-1.2 3.6-1.3a5 5 0 014.3 1.5zm-.3 13.8c-1.3.2-2.5.6-3.7 1.3a14.3 14.3 0 00-6 6.2l-.7-.6c1.5-2.7 3.6-5 6.3-6.5 1.3-.6 2.6-1 4-1.3l.1.9zm0 3l-.2 1a12.6 12.6 0 00-6.3 4.7l-1-.3a13.7 13.7 0 017.4-5.4zm0-2v1a12.9 12.9 0 00-8.2 6.2 12 12 0 01-.8-.4 13.8 13.8 0 019.1-6.8zm-4.5 8.1l-1.1-.2a14 14 0 015-3.6l-.2 1.1c-1.4.7-2.7 1.7-3.7 2.7zm-7.4-3.8c-.3-.3-.4-.6-.6-1 .9-2 2.1-3.7 3.6-5.1l.6.7a16 16 0 00-3.6 5.4zm-.8-1.8c-.2-.6-.2-1.1-.2-1.8.8-1.5 1.7-2.9 2.8-4l.6.7a16.1 16.1 0 00-3.2 5zm1.8 3l-.7-.7c1-2 2.3-3.8 4-5.3l.6.7c-1.6 1.4-3 3.3-3.9 5.4zm13-15.1a13.5 13.5 0 00-11.6 2l-.2-1 1.5-.9c3-1.6 6.6-2 10.2-1v.9zm-.2-1.6A13.6 13.6 0 0095.5 68v-1l.7-.5c3.3-1.7 7-2 10.7-1l.3 1zm0 3.8l-.2 1A13.2 13.2 0 0097 74.3l-.4-1a13.8 13.8 0 0110.7-2.9zm-.4 1.7a7 7 0 01-.5 1c-.3-.5-.6-.8-1-1h1.5zm.6-3.3v1a13.4 13.4 0 00-11.2 2.5l-.2-1 1.9-1.2c2.9-1.5 6.2-2 9.5-1.3zm-3.4 4.4c-2.3.3-4.5 1.3-6.3 2.8a27 27 0 01-.4-.8c1.5-1.3 3.5-2.3 5.9-2.8l.8.8zm1 1.7c-2.4.4-4.6 1.4-6.4 2.9l-.5-.9c2-1.5 4.1-2.5 6.5-2.8l.4.8zm50 11.2l-2-1.4.6 1.4h1.3zm7.7-13.2a20 20 0 014.7 9 8 8 0 01-.9.2c-.8-3.2-2.2-6.2-4.3-8.4l.5-.8zm1.8-6c2.9 2.5 4.8 6.4 6.1 11.1a7 7 0 01-.6 1.5 23.9 23.9 0 00-5.5-11.4v-1.3zm-.9 4.3c2.4 2.6 4 6 5 9.9l-.8.5c-1-3.7-2.4-7-4.6-9.5l.4-1zm.7-2c2.6 2.7 4.3 6.5 5.4 10.8a5 5 0 01-.7.8c-1-4.2-2.6-7.9-5-10.5l.3-1zm-3.7-4.9l.6 1.3c-3.4-1.8-7.4-2-11-.7l.6-1.1c3.3-1 6.8-.8 9.8.5zm9.1 7a10.3 10.3 0 011 6c-1-4.6-2.8-8.6-5.7-11.3 1.7.4 3.6 2.8 4.7 5.2zm-14-9.8c1.4.1 2.6.6 3.5 1.3a14 14 0 00-7.9.2 5 5 0 014.3-1.5zm-4 14.4c1.4.2 2.8.7 4 1.3 2.7 1.4 4.9 3.8 6.3 6.5l-.7.6a14.3 14.3 0 00-6-6.2c-1.2-.7-2.4-1-3.7-1.3l.1-1zm2.4 5c2 1 3.7 2.5 5 4.3l-1 .3A13.5 13.5 0 00152 81l-.2-1c.8.2 1.6.5 2.4 1zm.8-1.9a15 15 0 015.8 5.6l-.9.4a12.9 12.9 0 00-8.2-6.2v-1c1.1.3 2.3.7 3.3 1.2zm-2.4 4.2a25 25 0 01-.4-1.1c2.3.9 4 2.3 5.1 3.6l-1 .2c-1-1-2.4-2-3.7-2.7zm7.4-6.5l.7-.7c1.4 1.4 2.6 3.1 3.5 5-.1.5-.3.8-.5 1.1-.9-2-2.1-4-3.7-5.4zm1.2-1.5l.6-.7c1.1 1.1 2 2.5 2.8 4l-.1 1.8c-.8-2-2-3.7-3.3-5zm-2.5 2.8l.7-.7c1.6 1.5 3 3.3 3.9 5.3l-.7.8c-1-2.1-2.2-4-3.9-5.4zm-9-10.8a14.4 14.4 0 0111.7 2l-.1 1-1.8-1c-3-1.6-6.4-2-9.8-1v-1zm.4-1.7a14.4 14.4 0 0111.4 1.4V68l-1.1-.6c-3.2-1.7-7-2-10.6-.8l.3-1zm8.2 6.4l2.2 1.4-.3 1a12.8 12.8 0 00-10.2-3l-.2-.9c3-.4 6 .1 8.5 1.5zm-6.5.2c-.4.2-.8.5-1.1 1l-.4-1h1.5zm7.4-2l1.9 1.2c0 .4-.2.7-.3 1l-2-1.4a13.4 13.4 0 00-9-1.1l-.1-1c3.3-.6 6.6-.2 9.5 1.3zm-5.3 2.3c2.4.5 4.3 1.5 5.9 2.8l-.4.8c-1.9-1.5-4-2.5-6.4-2.8l.9-.8zm-1.5 1.7c2.4.3 4.6 1.3 6.5 2.8l-.5.9c-1.8-1.5-4-2.5-6.3-2.9 0-.3.2-.6.3-.8zm-32.9-9.2zm18.2 0zm-28.6 1l-.4-1.3 1-1 .9.8-1.5 1.5zm.1-2.5l-.7.7-.5-1.1.2-.2 1 .6zm.4 4.3l-.3-1.3 1.8-1.6.7.9-2.2 2zm.4 2l-.3-1.3 2.6-2.2.7 1a25 25 0 00-3 2.6zm4.2-1c-1.5 1-2.8 2-4 3.2l-.1-1.4c1-1 2.2-2 3.4-2.7l.7 1zm5.5-2.7l-.2-1.1 1 .8-.8.3zm.2 1.2l1.6-.5 1.2.8-2.6.7-.1-.7-.1-.3zm-4.7 3.3c-1.8 1-3.4 2.3-4.9 3.7v-1.5c1.3-1.2 2.8-2.3 4.3-3.2l.6 1zm13.4 19.1c1.5 0 3 .1 4.4.4l-.1 1a27.4 27.4 0 00-8.6 0l-.1-1c1.4-.3 2.9-.4 4.4-.4zm-6 1.8a26 26 0 00-9 4l-.4-1.1c2.7-1.9 5.8-3.2 9.2-4l.2 1zm12.2-1c3.4.7 6.5 2 9.2 3.9l-.5 1a26 26 0 00-9-4c.2-.3.2-.6.3-1zm-2 2v1a27 27 0 00-8.4 0v-1a28.4 28.4 0 018.4 0zm-10 .2l.2 1a26 26 0 00-8.6 3.6l-.4-1c2.6-1.7 5.6-3 8.8-3.6zm11.5 0c3.3.7 6.2 1.9 8.9 3.6l-.4 1a25.9 25.9 0 00-8.6-3.5l.1-1zm14.1-28L148 66l-1.4-1.5.9-.7 1 1zm.2-.5l-.7-.7 1-.6.2.2-.5 1.1zm-.7 2.3l-.3 1.3a25 25 0 00-2.3-2l.8-.9 1.8 1.6zm-3-.2l2.5 2.2-.2 1.4-3-2.7.6-.9zm-7.4-.2c-.3 0-.5-.2-.8-.3l1-.8-.2 1.1zm6.1 1.8a27 27 0 013.5 2.7l-.2 1.4a25.3 25.3 0 00-4-3.2l.7-1zm-1 1.7c1.5 1 3 2 4.3 3.2v1.5a25.3 25.3 0 00-5-3.7l.6-1zm-5.6-1.3l-2.6-.7 1.2-.8 1.7.5a12.4 12.4 0 01-.3 1zm-5.9 1.2a28 28 0 001.7-1l3.9 1-.3 1c-1.7-.5-3.5-.9-5.3-1zm10.4 2c2 1 3.7 2.2 5.3 3.6v1.6a25.5 25.5 0 00-5.9-4.3l.6-1zm-31.2 5.2V75c1.6-1.4 3.4-2.7 5.4-3.7l.5 1a25.5 25.5 0 00-6 4.3zm10.2-7.2l3.8-1 1.7 1c-1.8.1-3.5.5-5.2 1l-.3-1zm-10.5 9.8l.2-1.7c2-1.7 4-3.2 6.5-4.3l.4 1c-2.6 1.3-5 3-7 5zm18.6-8.7c2.6 0 5 .4 7.4 1v.3l-.2.8a26.9 26.9 0 00-14.4 0l-.2-.8v-.3c2.3-.6 4.8-1 7.4-1zm11.9 2.7c2.4 1.1 4.5 2.6 6.4 4.3l.2 1.7c-2-2-4.4-3.7-7-5 0-.3.2-.7.4-1zm-31 9l.4-2c2.2-2 4.8-3.8 7.7-5l.4 1a25.4 25.4 0 00-8.6 6zm19-9.3c2.5 0 4.8.3 7 .9l-.3 1a26.8 26.8 0 00-13.3 0l-.2-1c2.2-.6 4.5-.9 6.9-.9zm11 2.3c3 1.2 5.6 3 7.8 5l.4 2a25.4 25.4 0 00-8.6-6l.5-1zm-11 .1c2.3 0 4.4.3 6.5.7l-.3 1.1a27 27 0 00-12.3 0l-.2-1c2-.5 4.2-.8 6.4-.8zm19.5 8l1.1 3a25.3 25.3 0 00-10.8-8l.4-1.1c3.6 1.4 6.7 3.5 9.3 6zm-40 3l1.2-3c2.5-2.6 5.7-4.7 9.2-6.1l.4 1c-4.3 1.7-8 4.5-10.8 8zm40.9.3l-.8.9a25.5 25.5 0 00-10.5-7.2l.3-1c4.3 1.5 8 4 11 7.3zm-39.9.9a19 19 0 00-.7-1c2.9-3.2 6.6-5.7 11-7.2l.3 1c-4.2 1.5-7.8 4-10.6 7.2zm19.6-9.8c2 0 4 .2 6 .6l-.3 1.1a27 27 0 00-11.5 0c0-.4 0-.7-.2-1 2-.5 4-.7 6-.7zm8.6 3.7c4 1.3 7.7 3.6 10.6 6.4l-.7 1c-2.8-2.8-6.3-5-10.3-6.3l.4-1zm-8.6-1.3c1.9 0 3.7.2 5.5.5l-.2 1.1a27 27 0 00-10.7 0l-.2-1c1.8-.4 3.7-.6 5.6-.6zm-18.6 8.7l-.7-1c3-2.8 6.6-5 10.7-6.4 0 .4.2.7.3 1-4 1.4-7.5 3.6-10.3 6.4zm26.5-5.2a27 27 0 0110.3 5.7l-.6 1a25.7 25.7 0 00-10-5.6l.3-1.1zm-8-1.1c1.9 0 3.6.1 5.3.4l-.2 1.1a27 27 0 00-10 0l-.2-1c1.7-.4 3.4-.5 5.2-.5zm-7.5 2.2c-3.8 1-7.2 3-10 5.5l-.6-1a27 27 0 0110.2-5.6l.4 1zm7.6.2c1.6 0 3.3.1 4.8.4v1a27 27 0 00-9.6 0v-1c1.5-.3 3.1-.4 4.8-.4zm-7 2c-3.7 1-7 2.7-9.7 5l-.5-1a27 27 0 019.9-5l.2 1zm14.3-1c3.7 1 7 2.6 9.9 5l-.6 1c-2.7-2.3-6-4-9.6-5 0-.4.2-.7.3-1zm-.6 2.2c3.5.8 6.8 2.4 9.6 4.4l-.5 1c-2.7-2-5.9-3.5-9.3-4.4l.2-1zm-6.7-.9c1.6 0 3 .2 4.6.4l-.1 1.1a27.2 27.2 0 00-9 0l-.1-1c1.5-.3 3-.5 4.6-.5zm-6.5 2c-3.5.8-6.6 2.3-9.3 4.3l-.5-1c2.8-2 6-3.6 9.5-4.4l.3 1zm-4.2-30V59h-.1l.1.1zm-1.2-16.3zm.9 15.1l.3 1h-.1l-1.1-.3.9-.7zm4-17a19 19 0 00-5 3.3c-.6 0-1.2.2-1.8.5a13 13 0 012-2c1-.8 2.7-1.7 4.7-1.8zm-4.1 16l-1.5 1.4-1-.5 2.5-2V57zm-2.9.6l-.7-.7c1.5-1.6 3-3 4.9-4.2-.5.6-.9 1.3-1.1 2-1.1.8-2.1 1.8-3 2.9zm-1.8-6.5c.6-3.8 3.3-5.6 5.4-6-2.1 1.6-4 3.6-5.4 6zm26.4 8zm2-15.6zm-.8 15.2l-1.1.4h-.1l.3-1 .9.6zm0-15.8a19.8 19.8 0 012 2c-.7-.4-1.3-.6-2-.6a19 19 0 00-4.9-3.3c2 .1 3.7 1 4.9 1.9zm-.8 13l2.4 2-.9.5c-.5-.5-1-1-1.5-1.3v-1.2zm-.2-1.3c-.2-.6-.6-1.3-1.1-2 1.8 1.2 3.4 2.7 4.8 4.3l-.7.7c-.9-1.1-2-2-3-3zm-.5-9.4c2 .3 4.7 2 5.4 5.9a20.8 20.8 0 00-5.4-6zM128.1 53c-3.1.1-6.1 1-8.7 2.6l.1-1.1c2.6-1.5 5.5-2.3 8.5-2.4v1zm.3 10.4c1.4 0 2.8.1 4 .4l-1 .8a16.3 16.3 0 00-6 0l-1-.8c1.3-.3 2.6-.4 4-.4zm0-6.8c3 0 5.9.7 8.4 2 0 .4-.2.7-.4 1a17 17 0 00-16 0c0-.3-.2-.6-.4-1a18 18 0 018.4-2zm0 2.3c2.7 0 5.1.5 7.4 1.5l-.6.8a16.7 16.7 0 00-13.5 0 16 16 0 01-.6-.8c2.2-1 4.7-1.5 7.3-1.5zm-.1-3.6c-3 0-6.1 1-8.6 2.4l-.2-1a18 18 0 018.7-2.4v1zm.1 10.3l1.5.1-1.5 1-1.4-1h1.4zm0-4.5c2.1 0 4 .4 6 1l-.8.8a16.5 16.5 0 00-10.3 0l-.8-.8c1.9-.6 3.9-1 6-1zm-.7-12.6c-5.7.3-10.8 3.4-14.1 8l-.6-.8c3.6-4.7 8.8-7.8 14.5-8.1l.2 1zm-7.2 3.2c2.2-1.1 4.8-1.8 7.3-1.9l.1 1c-2.8 0-5.7 1-8 2.3.1-.6.4-1 .6-1.4zm-2-6.9a2 2 0 00-.8-.5 19 19 0 016.2-3l1.2.8c-2.4.4-4.6 1.4-6.6 2.7zM113 55.3l-.3-1.3c3.4-4.8 8.6-8.2 14.4-8.6l.2.9c-5.8.4-11 4-14.3 9zm-.4-1.7a8.2 8.2 0 010-1.8 20 20 0 0113.5-8.6l.5 1c-5.7.6-10.8 4.2-14 9.4zm24.8.9l.2 1.1a17.5 17.5 0 00-8.7-2.6v-1c3 .2 6 1 8.5 2.5zm-8.6-.2c3.1 0 6.1 1 8.7 2.4l-.2 1a17.3 17.3 0 00-8.6-2.4l.1-1zm15.1 1.4a5 5 0 01-.5.9 18.7 18.7 0 00-14-8v-1c5.8.3 11 3.4 14.5 8zM137 53a17.5 17.5 0 00-8-2.3v-1c2.6.1 5.2.8 7.4 1.9l.6 1.4zm1.3-8.3c-2-1.3-4.1-2.3-6.5-2.7.4-.3.7-.6 1.2-.7a19 19 0 016.2 3 2 2 0 00-.9.4zm6 9.2c0 .5-.2 1-.3 1.3a19 19 0 00-14.4-9l.3-1c5.8.5 11 3.9 14.4 8.7zm0-1v.6a19.3 19.3 0 00-14-9.5l.5-.9a20 20 0 0113.5 8.6V53zM127.8 115h1.4l-.9 2.9H127l.8-2.9zM89 115h3.4c2.6 0 3 1.8 3 3s-.6 3-3.1 3h-1.7v3.8h-1.5V115zm1.6 4.6h1.7c.8 0 1.6-.4 1.6-1.6 0-1.3-.7-1.6-1.5-1.6h-1.8v3.2M96.7 117.6h1.4v1.3c.2-.8 1-1.4 2-1.4h.4v1.5h-.5c-1 0-1.8.5-1.8 2.1v3.7h-1.5v-7.2M144.8 117.6h1.4v1.3c.2-.8 1-1.4 2-1.4h.4v1.5h-.5c-1 0-1.8.5-1.8 2.1v3.7h-1.5v-7.2M102 115h1.4v1.5h-1.5V115zm0 2.6h1.4v7.2h-1.5v-7.2zM105.5 117.6h1.3v1c.5-.8 1.3-1.1 2.2-1.1 1.4 0 2.3.8 2.3 2.4v4.9h-1.5v-4.5c0-1.1-.4-1.6-1.3-1.6-1 0-1.6.7-1.6 1.8v4.3h-1.4v-7.2M155.9 124.8h-1.4v-1c-.5.8-1.2 1.1-2.1 1.1-1.5 0-2.4-.8-2.4-2.4v-4.9h1.5v4.5c0 1.1.4 1.6 1.3 1.6 1 0 1.6-.7 1.6-1.8v-4.3h1.5v7.2M117.6 120c-.1-.9-.7-1.4-1.5-1.4s-1.9.4-1.9 2.7c0 1.3.5 2.5 1.8 2.5.9 0 1.5-.5 1.5-1.3h1.5c-.1 1.5-1.3 2.5-3 2.5-2 0-3.2-1.5-3.2-3.7 0-2.3 1-3.9 3.3-3.9 1.5 0 2.8.8 3 2.6h-1.5M121.7 121.6c0 1.3.6 2.2 1.8 2.2.9 0 1.4-.4 1.6-1.2h1.4c-.3 1.5-1.5 2.4-3 2.4-2 0-3.3-1.4-3.3-3.8 0-2.2 1.3-3.8 3.3-3.8 2 0 3.4 2 3.1 4.2h-4.9zm3.5-1c-.1-1.2-.7-2-1.7-2s-1.7.8-1.8 2h3.5zM130.3 122.5c0 1 .6 1.3 1.4 1.3.5 0 1.4-.2 1.4-1 0-.6-.5-.9-2-1.2-1-.3-2-.8-2-2.2.1-1.5 1.7-2 2.8-2 1.2 0 2.5.6 2.5 2.2h-1.3c0-.7-.7-1-1.4-1-.5 0-1.1.2-1.1.8 0 .5.3.8 1.7 1.1 1.5.4 2.2 1 2.2 2.2 0 1.7-1.5 2.3-2.8 2.3-1.6 0-2.8-.7-2.8-2.5h1.4M158.8 122.5c0 1 .6 1.3 1.4 1.3.5 0 1.4-.2 1.4-1 0-.6-.5-.9-2-1.2-1-.3-2-.8-2-2.2.1-1.5 1.7-2 2.7-2 1.3 0 2.6.6 2.6 2.2h-1.4c0-.7-.7-1-1.3-1-.6 0-1.2.2-1.2.8 0 .5.4.8 1.8 1.1 1.5.4 2.2 1 2.2 2.2 0 1.7-1.5 2.3-2.9 2.3-1.5 0-2.7-.7-2.7-2.5h1.4M137.7 115h6.8v1.5h-2.6v8.3h-1.6v-8.3h-2.6V115zM164 117.6h1v-2.2h1.5v2.2h1.4v1.1h-1.4v4c0 .6 0 1 .7 1l.7-.1v1.2h-1c-1.5 0-1.8-.6-1.8-1.8v-4.3h-1.2v-1.1" fill="#111"/></svg>
