<svg width="160" height="26" viewBox="0 0 160 26" fill="none" xmlns="http://www.w3.org/2000/svg">
<path d="M6.30502 10.4572C5.10178 10.5347 3.57766 12.0065 3.17658 13.1684C3.17658 12.4712 3.01614 11.0769 3.73809 9.99247C3.01614 9.91501 3.01614 9.06294 2.29419 8.67563C2.85571 8.44325 3.81831 8.83055 3.89853 8.98548C4.86113 9.91501 5.74351 10.3798 7.10719 9.68262C6.94676 10.0699 6.70611 10.2249 6.30502 10.4572ZM5.34242 7.20387C5.82372 6.42926 5.98416 5.88704 5.50286 5.18989C4.86113 5.57719 4.29961 6.27434 4.13918 7.12641C4.13918 6.66165 4.13918 6.50672 3.81831 6.42926C3.41723 7.28133 3.49744 8.28833 4.21939 8.83055C3.89853 8.1334 3.97874 7.51372 4.78091 6.89403C4.05896 7.82356 4.21939 9.21786 5.10178 9.60516C4.05896 8.05594 6.62589 7.90102 6.78632 6.66165C5.90394 6.81657 5.58307 6.97149 5.34242 7.20387ZM1.89311 11.6191C1.65246 11.929 1.73268 12.2388 1.97333 12.4712C2.05354 12.1614 2.21398 12.0065 2.45463 11.7741C2.21398 11.7741 2.05354 11.6966 1.89311 11.6191ZM2.61506 9.83755C1.97333 10.1474 1.65246 10.3023 1.57225 10.5347C1.8129 9.83755 1.8129 9.37278 1.25138 8.83055C0.850296 9.29532 0.52943 10.0699 0.52943 10.7671C0.449213 10.3798 0.368996 10.3023 0.04813 10.2249C-0.112303 10.9995 0.128347 11.3093 0.770079 11.7741C0.609646 11.3868 0.609646 11.0769 0.850296 10.4572C0.689863 11.3093 0.850296 12.1614 1.81289 12.5487C0.689863 11.5417 2.77549 10.8445 2.61506 9.83755ZM5.42264 24.7875C5.58307 24.7101 5.74351 24.6326 5.82372 24.4002C5.50286 24.2453 5.18199 23.9354 4.86113 23.6256C4.94134 24.0129 5.18199 24.4002 5.42264 24.7875ZM5.10178 23.2383C4.62048 23.1608 4.21939 22.851 3.97874 22.3862C4.05896 22.851 4.21939 23.1608 4.37983 23.3932C4.05896 23.5481 3.65788 23.4707 3.33701 23.2383C3.73809 24.0129 4.37983 24.3228 5.18199 24.7875C4.86113 24.4002 4.78091 24.0129 4.70069 23.6256C4.86113 23.5481 5.02156 23.3932 5.10178 23.2383ZM15.7706 23.7031C15.5299 24.0129 15.2091 24.2453 14.8882 24.4777C14.9684 24.7101 15.1288 24.7875 15.2893 24.865C15.5299 24.4002 15.7706 24.0129 15.7706 23.7031ZM16.0112 23.6256C15.931 24.0129 15.7706 24.3228 15.4497 24.7875C16.2519 24.3228 16.8936 24.0129 17.3749 23.3158C17.054 23.5481 16.653 23.6256 16.2519 23.4707C16.4925 23.1608 16.5727 22.851 16.653 22.4637C16.4123 22.9285 16.0112 23.2383 15.5299 23.3158C15.6904 23.3932 15.8508 23.5481 16.0112 23.6256ZM11.5191 24.7101V24.865H11.5993C11.6795 24.865 11.6795 24.865 11.6795 24.7875C11.5993 24.7101 11.5993 24.6326 11.5191 24.7101ZM15.0486 22.4637C13.8454 23.5481 12.2411 24.2453 10.3961 24.2453C8.55109 24.2453 6.94676 23.5481 5.74351 22.4637C5.66329 22.851 5.42264 23.3932 5.10178 23.5481C6.46546 24.7875 8.31044 25.5621 10.4763 25.5621C12.5619 25.5621 14.4871 24.865 15.8508 23.5481C15.4497 23.3932 15.0486 22.851 15.0486 22.4637ZM7.26762 24.7101L7.10719 24.6326L7.18741 24.3228L6.94676 24.5551L6.78632 24.4777L6.86654 23.858L7.02697 23.9354L6.94676 24.2453L7.26762 24.0129L7.42806 24.0904L7.34784 24.4002L7.58849 24.1678L7.74892 24.2453L7.26762 24.7101ZM8.47087 24.5551L8.23022 24.4777V24.5551L8.47087 24.6326V24.7875L8.23022 24.7101V24.7875L8.47087 24.865V25.0199L8.06979 24.865L8.23022 24.3228L8.63131 24.4777L8.47087 24.5551ZM9.75434 24.865C9.83455 24.9424 9.91477 24.9424 9.91477 25.0974C9.91477 25.1748 9.83455 25.2523 9.67412 25.2523C9.5939 25.2523 9.5939 25.2523 9.51369 25.1748V25.0199C9.5939 25.0974 9.5939 25.0974 9.67412 25.0974C9.75434 25.0974 9.75434 25.0974 9.75434 25.0974C9.75434 25.0974 9.75434 25.0199 9.67412 25.0199C9.5939 24.9424 9.51369 24.9424 9.5939 24.865C9.5939 24.7875 9.67412 24.7101 9.83455 24.7101C9.91477 24.7101 9.99499 24.7101 9.99499 24.7875V24.9424C9.83455 24.7875 9.83455 24.7875 9.75434 24.865C9.67412 24.7875 9.75434 24.7875 9.75434 24.865C9.75434 24.865 9.67412 24.865 9.75434 24.865ZM10.3961 25.2523V24.6326H10.7972V24.7875H10.5565V24.865H10.7972V25.0199H10.5565V25.0974H10.7972V25.2523H10.3961V25.2523ZM11.7598 25.0974L11.6795 24.9424C11.5993 24.865 11.5993 24.865 11.5191 24.865V25.0974H11.2785L11.1982 24.4777H11.4389C11.5993 24.4777 11.6795 24.4777 11.7598 24.6326C11.7598 24.7101 11.7598 24.7101 11.6795 24.7875L11.7598 24.865V25.0974ZM12.7224 24.9424L12.5619 25.0199L12.1608 24.5551L12.4015 24.4777L12.6421 24.7875V24.4002L12.8026 24.3228L12.7224 24.9424ZM13.3641 24.7101L13.1234 24.1678L13.5245 24.0129L13.6047 24.0904L13.3641 24.1678L13.4443 24.2453L13.685 24.1678L13.7652 24.2453L13.5245 24.3228L13.6047 24.4002L13.8454 24.3228L13.9256 24.4002L13.3641 24.7101ZM5.66329 19.2103C5.50286 20.1399 4.78091 20.5272 3.89853 20.7595C5.02156 20.2173 5.74351 19.1329 5.34242 17.971C5.58307 19.83 3.17658 18.823 2.45463 19.83C3.25679 20.0624 3.65788 20.1399 3.97874 20.0624C3.17658 20.5272 2.77549 20.9145 2.85571 21.7665C3.65788 21.6891 4.46004 21.3018 5.02156 20.6046C4.78091 21.0694 4.78091 21.1469 5.02156 21.3792C5.66329 20.9145 5.98416 20.2173 5.66329 19.2103ZM4.37983 16.6541C4.86113 16.8865 5.10178 16.8865 5.58307 16.7316C5.26221 16.0344 4.94134 15.802 4.29961 15.6471C4.94134 15.5697 5.18199 15.2598 5.18199 14.7176C4.05896 14.95 2.21398 14.3303 3.25679 10.6896C1.73268 12.5487 2.61506 15.4922 3.73809 17.1189C2.53484 15.802 2.05354 14.0204 2.21398 12.4712C1.81289 13.4008 1.73268 14.3303 1.89311 15.0274C2.05354 15.957 1.97333 16.6541 1.41181 17.1963C1.8129 17.2738 2.21398 17.1189 2.61506 16.809C2.37441 17.3513 2.37441 18.0484 2.69528 18.5132C3.09636 18.3583 3.33701 18.0484 3.41723 17.6611C3.57766 17.7386 4.62048 18.3583 4.46004 18.9779C5.10178 18.6681 5.10178 18.1259 4.94134 17.6611C4.78091 17.1189 4.54026 16.809 4.37983 16.6541ZM15.7706 21.4567C16.0112 21.2243 15.931 21.0694 15.6904 20.6821C16.2519 21.3792 17.1343 21.7665 17.8562 21.844C17.9364 20.9919 17.5353 20.6046 16.7332 20.1399C17.054 20.2173 17.3749 20.1399 18.2573 19.9075C17.5353 18.9005 15.1288 19.9075 15.3695 18.0484C14.9684 19.2103 15.6904 20.2948 16.8134 20.837C15.8508 20.6046 15.2091 20.2173 15.0486 19.2878C14.7278 20.2173 14.9684 20.9145 15.7706 21.4567ZM9.5939 9.99247C9.27304 10.2249 9.11261 10.7671 9.43347 11.0769C9.75434 10.8445 9.83455 10.3798 9.5939 9.99247ZM9.43347 9.91501C9.11261 9.68262 8.55109 9.76009 8.31044 10.0699C8.71152 10.3023 9.19282 10.2249 9.43347 9.91501ZM10.7972 10.0699C10.5565 9.68262 9.99499 9.68262 9.67412 9.91501C9.91477 10.2249 10.3961 10.3023 10.7972 10.0699ZM11.9202 7.97848C11.9202 7.59118 11.84 7.28133 11.5993 6.97149H10.8774C11.1982 7.28133 11.2785 7.59118 11.2785 7.97848H11.9202ZM11.9202 8.36579H11.2785C11.1982 8.90801 10.9576 9.60516 11.118 10.4572C11.3587 10.3798 11.5191 10.3798 11.7598 10.3798C11.6795 9.60516 11.84 8.90801 11.9202 8.36579ZM18.8188 12.6261C19.7814 12.1614 19.9418 11.3093 19.7814 10.5347C20.0221 11.0769 20.1023 11.3868 19.8616 11.8515C20.4231 11.3868 20.6638 11.0769 20.5836 10.3023C20.3429 10.3023 20.2627 10.4572 20.1825 10.8445C20.1825 10.0699 19.9418 9.37278 19.4605 8.90801C18.899 9.45024 18.9792 9.91501 19.1397 10.6122C18.9792 10.3798 18.7386 10.2249 18.0969 9.91501C17.9364 10.8445 20.0221 11.5417 18.8188 12.6261ZM19.2199 17.1963C18.6584 16.6541 18.4979 15.957 18.7386 15.0274C18.899 14.4852 18.9792 13.7106 18.6584 12.7811C18.4177 12.8585 18.0166 12.936 17.6958 12.936C17.5353 14.5627 16.3321 14.95 15.4497 14.7951C15.4497 15.2598 15.7706 15.6471 16.3321 15.7246C15.7706 15.8795 15.3695 16.1119 15.0486 16.809C15.5299 16.964 15.7706 16.964 16.2519 16.7316C16.0914 16.8865 15.8508 17.1963 15.5299 17.6611C15.3695 18.1259 15.3695 18.6681 16.0112 18.9779C15.931 18.3583 16.9738 17.7386 17.054 17.6611C17.1343 18.0484 17.3749 18.3583 17.776 18.5132C18.1771 18.0484 18.0969 17.3513 17.8562 16.809C18.4979 17.1189 18.899 17.1963 19.2199 17.1963ZM16.9738 16.7316C17.9364 16.0344 18.1771 15.0274 18.3375 13.4008C18.5782 15.4922 18.0166 16.1893 16.9738 16.7316ZM17.6958 11.3868C17.9364 11.3868 18.0969 11.3868 18.3375 11.3868C18.0969 10.9995 17.776 10.6122 17.4551 10.5347C17.5353 10.8445 17.6156 11.0769 17.6958 11.3868ZM7.90936 6.3518C7.82914 6.3518 7.74892 6.42926 7.74892 6.50672C7.74892 6.58418 7.82914 6.66165 7.90936 6.66165H12.8828C12.963 6.66165 13.0432 6.58418 13.0432 6.50672C13.0432 6.42926 12.963 6.3518 12.8828 6.3518H7.90936ZM13.9256 6.66165C14.086 7.90102 16.7332 8.05594 15.6101 9.60516C16.4925 9.21786 16.653 7.82356 15.931 6.89403C16.7332 7.43626 16.7332 8.1334 16.4925 8.83055C17.2145 8.28833 17.2947 7.20387 16.8936 6.42926C16.5727 6.50672 16.5727 6.66165 16.5727 7.12641C16.4123 6.27434 15.8508 5.57719 15.1288 5.11243C14.6475 5.88704 14.808 6.3518 15.2893 7.12641C15.1288 6.97149 14.7278 6.81657 13.9256 6.66165ZM12.0806 8.28833C12.4015 9.91501 14.2465 10.0699 15.3695 9.76009C15.6101 9.45024 15.6904 9.1404 15.5299 8.75309C14.7278 9.21786 13.3641 8.90801 13.2037 7.97848C13.1234 7.35879 13.2037 7.12641 12.963 6.73911L11.6795 6.81657C12.1608 7.04895 12.0004 7.90102 12.0806 8.28833ZM12.5619 7.51372C12.8026 8.59817 13.1234 8.90801 14.1663 9.21786C12.8828 9.21786 12.5619 8.67563 12.5619 7.51372ZM12.8828 5.73211H12.8026C12.8828 5.80957 13.0432 5.88704 13.1234 6.04196C12.8828 5.88704 12.7224 5.73211 12.4817 5.73211H11.9202C12.0004 5.80957 12.1608 5.88704 12.2411 6.04196C12.0004 5.88704 11.84 5.73211 11.5993 5.73211H11.0378C11.118 5.80957 11.2785 5.88704 11.3587 6.04196C11.118 5.88704 10.9576 5.73211 10.7169 5.73211H10.1554C10.2356 5.80957 10.3961 5.88704 10.4763 6.04196C10.2356 5.88704 10.0752 5.73211 9.83455 5.73211H9.27304C9.35326 5.80957 9.51369 5.88704 9.5939 6.04196C9.35325 5.88704 9.19282 5.73211 8.95217 5.73211H8.39066C8.47087 5.80957 8.63131 5.88704 8.71152 6.04196C8.47087 5.88704 8.31044 5.73211 8.06979 5.73211H7.82914C7.66871 5.73211 7.50827 5.88704 7.50827 6.04196C7.50827 6.19688 7.66871 6.3518 7.82914 6.3518H12.8828C13.0432 6.3518 13.2037 6.19688 13.2037 6.04196C13.2037 5.88704 13.0432 5.73211 12.8828 5.73211ZM9.27304 3.87305C9.27304 3.95051 9.27304 4.02797 9.27304 4.10543C9.19282 5.34481 7.58849 5.42227 7.58849 4.18289C7.26762 6.04196 9.91477 6.19688 9.91477 4.41528C9.91477 4.26035 9.91477 4.02797 9.83455 3.87305H9.27304ZM10.4763 3.71813H12.1608L12.4015 3.40828H11.4389C11.5993 2.47875 12.1608 1.70414 12.8828 1.08445L10.5565 1.85906V2.7886L11.5993 2.01399C11.2785 2.40129 11.0378 2.86606 10.8774 3.33082H10.4763V1.47176L10.7169 1.62668L10.3159 0L9.99499 1.62668L10.2356 1.47176V3.48574H9.83455C9.67412 2.94352 9.43347 2.55621 9.11261 2.16891L10.1554 2.94352V2.01399L7.82914 1.23938C8.55109 1.85906 9.11261 2.71113 9.27304 3.56321H8.31044L8.55109 3.87305H10.2356V4.64766L10.0752 4.80258V5.65465L10.2356 5.49973V5.65465H10.4763V5.49973L10.6367 5.65465V4.80258L10.4763 4.64766V3.71813ZM13.1234 4.18289C13.1234 5.34481 11.4389 5.26735 11.3587 4.02797V3.87305H10.7972C10.7972 4.02797 10.7169 4.18289 10.7169 4.41528C10.7169 6.19688 13.4443 6.04196 13.1234 4.18289ZM12.8026 9.76009C12.5619 9.60516 12.4015 9.45024 12.2411 9.21786C12.1608 9.76009 12.1608 10.2249 12.2411 10.6896C11.6795 10.6896 11.118 10.8445 10.4763 11.0769C9.51369 11.4642 8.87196 11.4642 8.31044 11.1544C9.03239 9.83755 7.98957 8.05594 8.79174 6.81657L8.15001 6.73911C7.34784 7.90102 8.31044 9.5277 7.82914 10.7671C7.74892 10.6896 7.66871 10.6122 7.58849 10.6122L7.18741 11.0769C7.82914 11.6966 9.03239 12.3938 10.3961 11.7741C11.4389 11.3093 12.3213 11.0769 13.2839 11.5417L13.5245 10.922C13.3641 10.8445 13.2037 10.7671 12.963 10.7671C12.8026 10.3798 12.8026 10.0699 12.8026 9.76009ZM7.50827 7.82356C6.70611 8.59817 5.66329 8.90801 5.18199 8.67563C4.94134 8.90801 4.94134 9.37278 5.34242 9.68262C5.90394 9.99247 6.62589 9.91501 7.66871 9.37278C7.58849 8.90802 7.50827 8.36579 7.50827 7.82356ZM6.94676 11.3093C6.86654 11.2318 6.78632 11.1544 6.70611 11.0769L7.42806 10.3023C7.50827 10.3798 7.50827 10.3023 7.58849 10.3798C7.66871 10.1474 7.66871 9.83755 7.66871 9.5277C6.70611 10.6122 5.82372 11.0769 5.10178 11.3093H6.94676V11.3093ZM5.02156 11.3868C4.37983 11.929 4.05896 12.3938 3.73809 13.0134C4.05896 13.0134 4.29961 12.936 4.62048 12.8585C4.21939 13.1684 4.05896 13.7106 3.65788 14.0204C4.21939 14.1754 4.62048 14.0979 4.94134 14.0204L5.02156 11.3868ZM17.4551 13.2458C17.4551 13.1684 17.4551 13.0909 17.4551 12.936C17.3749 12.936 17.3749 12.936 17.2947 12.936C17.3749 13.0134 17.4551 13.0909 17.4551 13.2458ZM16.8936 10.0699C17.6156 9.99247 17.6156 9.1404 18.3375 8.75309C17.776 8.52071 16.8134 8.90801 16.7332 9.06294C15.931 9.83755 15.2091 10.2249 14.3267 10.0699C14.086 10.0699 13.9256 9.99247 13.7652 9.99247C14.0058 10.2249 14.2465 10.3798 14.4871 10.4572C14.9684 10.4572 15.4497 10.7671 15.931 11.0769C16.4123 11.2318 16.8936 11.3093 17.4551 11.3093C17.2947 10.922 17.1343 10.4572 16.8936 10.0699ZM18.899 11.6191C16.4925 11.8515 14.4871 11.0769 13.3641 9.91501C13.2839 9.91501 13.2037 9.83755 13.1234 9.83755C13.1234 10.0699 13.2037 10.3023 13.2839 10.5347C13.5245 10.6122 13.7652 10.6896 14.0058 10.7671L13.7652 11.3093H15.8508V13.6331C16.2519 13.7881 16.5727 13.943 16.8134 14.1754C16.9738 13.6331 16.8936 13.0909 16.4925 12.5487C17.2145 12.7811 17.776 12.8585 18.6584 12.4712C18.7386 12.4712 19.2199 12.1614 18.899 11.6191ZM8.06979 13.4008C8.06979 12.936 7.66871 12.5487 7.26762 12.5487C6.78632 12.5487 6.38524 12.936 6.38524 13.4008C6.38524 13.8655 6.78632 14.1754 7.26762 14.1754C7.66871 14.2528 8.06979 13.8655 8.06979 13.4008ZM11.2785 13.4008C11.2785 13.3233 11.2785 13.2458 11.2785 13.1684C10.8774 13.5557 9.99499 13.5557 9.5939 13.1684C9.5939 13.2458 9.5939 13.3233 9.5939 13.4008C9.5939 13.8655 9.99499 14.2528 10.4763 14.2528C10.8774 14.2528 11.2785 13.8655 11.2785 13.4008ZM9.5939 6.50672C9.19282 6.97149 9.27304 7.7461 9.35326 8.59817L9.43347 9.60516C9.43347 9.68262 9.51369 9.76009 9.5939 9.76009C9.67412 9.76009 9.75434 9.68262 9.75434 9.60516L9.67412 8.59817C9.5939 7.82356 9.51369 7.04895 9.83455 6.66165C9.91477 6.58419 9.83455 6.50672 9.83455 6.50672C9.75434 6.50672 9.67412 6.50672 9.5939 6.50672ZM7.26762 12.6261C6.78632 12.6261 6.38524 13.0134 6.38524 13.4782C6.38524 13.943 6.78632 14.2528 7.26762 14.2528C7.74892 14.2528 8.06979 13.8655 8.06979 13.4782C8.06979 13.0134 7.66871 12.6261 7.26762 12.6261ZM13.6047 12.6261C13.1234 12.6261 12.7224 13.0134 12.7224 13.4782C12.7224 13.943 13.1234 14.2528 13.6047 14.2528C14.086 14.2528 14.4069 13.8655 14.4069 13.4782C14.4069 13.0134 14.086 12.6261 13.6047 12.6261ZM15.6101 14.6401V11.5417H13.5245L13.4443 11.6966C13.2037 11.6192 13.0432 11.6191 12.8828 11.5417C12.4015 11.3868 11.9202 11.3868 11.4389 11.5417H11.5191C11.1982 11.6191 10.7169 11.8515 10.3961 11.929C9.35325 12.3938 8.15001 12.0839 7.42806 11.5417H5.18199V14.6401C5.26221 14.6401 5.34242 14.6401 5.34242 14.6401C5.34242 14.95 5.26221 15.2598 5.18199 15.4922V15.957C5.42264 16.1119 5.58307 16.4217 5.74351 16.809V16.4217H5.82372C6.14459 16.4217 6.38524 16.4992 6.54567 16.5767C6.78632 16.6541 6.94676 16.809 7.34784 16.809C7.74892 16.809 7.98957 16.7316 8.15001 16.5767C8.31044 16.4992 8.47087 16.4217 8.87196 16.4217H9.19282L9.43347 17.0414C9.35325 17.0414 9.35326 17.0414 9.27304 17.1189C9.11261 17.1963 8.87196 17.2738 8.71152 17.1963L8.55109 17.1189V17.5836H8.47087V17.816L6.86654 17.1189L7.26762 17.4287L8.31044 18.6681L8.06979 18.7456C7.90936 18.823 7.74892 18.9005 7.42806 18.9005C7.10719 18.9005 6.94676 18.823 6.78632 18.7456C6.62589 18.6681 6.46546 18.5906 6.06437 18.5906H5.98416C5.82372 18.0484 5.74351 17.5062 5.74351 16.964V16.8865C5.50286 16.964 5.34243 17.0414 5.18199 17.0414C5.18199 17.1963 5.18199 17.3513 5.18199 17.5836C5.18199 17.6611 5.26221 17.6611 5.26221 17.7386C5.82372 18.5906 6.06437 19.3652 5.98416 19.9849C6.94676 21.7665 8.55109 23.2383 10.3961 23.858C12.1608 23.2383 13.7652 21.844 14.7278 20.1399C14.6475 19.4427 14.808 18.6681 15.4497 17.6611C15.5299 17.5836 15.5299 17.5062 15.6101 17.3513C15.6101 17.1963 15.6101 17.1189 15.6101 16.964C15.4497 16.964 15.2893 16.964 15.0486 16.809V16.8865C15.0486 17.4287 14.9684 17.971 14.808 18.5132H14.7278C14.3267 18.5132 14.1662 18.5906 14.0058 18.6681C13.8454 18.7456 13.685 18.823 13.3641 18.823C13.0432 18.823 12.8828 18.7456 12.7224 18.6681C12.6421 18.6681 12.5619 18.5906 12.4817 18.5906L13.8454 17.0414L13.3641 17.2738L12.1608 17.816V17.5062H12.0806V17.1189L11.9202 17.1963C11.7598 17.2738 11.5993 17.1963 11.3587 17.1189H11.2785L11.5993 16.4992C11.6795 16.4992 11.84 16.4217 12.0004 16.4217C12.3213 16.4217 12.5619 16.4992 12.7224 16.5767C12.8828 16.6541 13.1234 16.809 13.5245 16.809C13.9256 16.809 14.1662 16.7316 14.3267 16.5767C14.4871 16.4992 14.6475 16.4217 15.0486 16.4217V16.7316C15.2091 16.3443 15.3695 16.0344 15.6101 15.8795V15.4922C15.4497 15.2598 15.3695 14.95 15.3695 14.5627C15.4497 14.5627 15.5299 14.6401 15.6101 14.6401ZM13.6047 12.2388C14.2465 12.2388 14.808 12.7811 14.808 13.4008C14.808 14.0204 14.2465 14.5627 13.6047 14.5627C12.963 14.5627 12.4015 14.0204 12.4015 13.4008C12.4015 12.7811 12.963 12.2388 13.6047 12.2388ZM9.51369 12.6261C9.67412 12.936 9.99499 13.1684 10.4763 13.1684C10.8774 13.1684 11.1982 12.936 11.3587 12.6261C11.5993 12.8585 11.6795 13.0909 11.6795 13.4008C11.6795 14.0204 11.118 14.5627 10.4763 14.5627C9.75434 14.5627 9.19282 14.0204 9.19282 13.4008C9.19282 13.0909 9.27304 12.8585 9.51369 12.6261ZM7.26762 12.2388C7.90936 12.2388 8.47087 12.7811 8.47087 13.4008C8.47087 14.0204 7.90936 14.5627 7.26762 14.5627C6.62589 14.5627 6.06437 14.0204 6.06437 13.4008C6.06437 12.7811 6.54567 12.2388 7.26762 12.2388ZM8.87196 16.1119C8.47087 16.1119 8.23022 16.1893 8.06979 16.3443C7.90936 16.4217 7.74892 16.4992 7.34784 16.4992C7.02697 16.4992 6.78632 16.4217 6.62589 16.3443C6.38524 16.2668 6.22481 16.1119 5.82372 16.1119H5.74351V15.2598H8.71152L8.95217 15.7246L9.11261 16.1119H8.87196ZM9.35326 16.2668C9.59391 16.4217 9.83455 16.6541 9.83455 16.6541L10.3159 17.1189C10.0752 16.964 9.83455 16.964 9.67412 16.964L9.35326 16.2668ZM8.79174 17.6611V17.4287C8.95217 17.4287 9.19282 17.4287 9.35326 17.3513C9.59391 17.2738 9.91477 17.1963 10.2356 17.3513V19.2103C9.91477 19.0554 9.5939 19.1329 9.27304 19.2103C9.11261 19.2878 8.95217 19.2878 8.79174 19.2878V17.6611ZM7.82914 17.7386C8.06979 17.8935 8.39066 17.971 8.55109 18.0484V18.5132C8.39066 18.3583 8.06979 17.971 7.82914 17.7386ZM8.47087 19.0554V19.5202C8.31044 19.5976 8.06979 19.7526 7.74892 19.83C7.98957 19.5976 8.31044 19.2103 8.47087 19.0554ZM6.06437 18.823C6.38524 18.823 6.54567 18.9005 6.70611 18.9779C6.86654 19.0554 7.10719 19.1329 7.42806 19.1329C7.82914 19.1329 7.98957 19.0554 8.15001 18.9779H8.23022L6.86654 20.5272L8.47087 19.83V20.0624H9.67412L9.27304 20.9919H9.19282C8.87196 20.9919 8.71152 21.0694 8.55109 21.2243C8.39066 21.3018 8.31044 21.3792 7.98957 21.3792C7.74892 21.3792 7.58849 21.3018 7.42806 21.2243H7.34784C6.78632 20.4497 6.30502 19.6751 6.06437 18.823ZM10.3159 20.4497L10.2356 20.5272L9.51369 21.1469C9.51369 21.1469 9.35326 21.3018 9.27304 21.3792C9.35326 21.3018 9.35326 21.1469 9.35326 21.1469L9.83455 19.9849H9.99499C10.0752 20.0624 10.1554 20.1399 10.2356 20.1399C10.3961 20.1399 10.4763 20.0624 10.5565 19.9849H10.7169L11.1982 21.1469C11.1982 21.1469 11.2785 21.3018 11.2785 21.3792C11.118 21.3018 11.0378 21.1469 11.0378 21.1469L10.3159 20.4497ZM10.8774 21.2243C10.7169 21.3018 10.6367 21.3792 10.3961 21.3792C10.1554 21.3792 9.99499 21.3018 9.91477 21.2243C10.0752 21.0694 10.3159 20.9145 10.3961 20.837C10.4763 20.837 10.7169 21.0694 10.8774 21.2243ZM10.3159 23.1608C9.35326 22.851 8.47087 22.3088 7.74892 21.5342C7.82914 21.5342 7.82914 21.5342 7.90936 21.5342C8.23022 21.5342 8.39066 21.4567 8.55109 21.3018C8.71152 21.2243 8.79174 21.1469 9.03239 21.1469L8.87196 21.7665L8.63131 22.3088L9.67412 21.3792H9.75434C9.91477 21.4567 10.0752 21.6116 10.3961 21.6116C10.7169 21.6116 10.8774 21.5342 11.0378 21.3792L12.0806 22.3088L11.5993 21.2243C11.84 21.2243 11.9202 21.3018 12.0806 21.3792C12.2411 21.4567 12.4015 21.6116 12.7224 21.6116C12.8026 21.6116 12.8026 21.6116 12.8828 21.6116C12.1608 22.3088 11.2785 22.851 10.3159 23.1608ZM12.1608 18.0484C12.3213 17.971 12.6421 17.816 12.8828 17.7386C12.6421 18.0484 12.3213 18.4357 12.1608 18.5906H12.0806V18.0484H12.1608V18.0484ZM12.1608 18.9779C12.3213 19.2103 12.6421 19.5976 12.8828 19.9075C12.5619 19.7526 12.3213 19.5976 12.1608 19.5202V18.9779ZM12.1608 19.9849V19.7526L13.8454 20.5272C13.8454 20.5272 12.7224 19.2103 12.4015 18.9005C12.4817 18.9005 12.5619 18.9779 12.5619 18.9779C12.7224 19.0554 12.963 19.1329 13.2839 19.1329C13.685 19.1329 13.8454 19.0554 14.0058 18.9779C14.1662 18.9005 14.3267 18.823 14.6475 18.823C14.3267 19.6751 13.8454 20.5272 13.2839 21.1469C13.2839 21.1469 13.2839 21.1469 13.2037 21.1469C13.0432 21.2243 12.963 21.3018 12.6421 21.3018C12.4015 21.3018 12.2411 21.2243 12.0806 21.1469C11.9202 21.0694 11.7598 20.9145 11.4389 20.9145H11.3587L10.9576 19.9849H12.1608ZM11.9202 19.7526H10.4763V19.83C10.4763 19.9075 10.3961 19.9075 10.3961 19.9075C10.3159 19.9075 10.3159 19.9075 10.3159 19.83V19.7526H8.87196V19.5202C9.11261 19.5976 9.27304 19.5202 9.51369 19.4427C9.83455 19.3652 10.0752 19.2103 10.3961 19.4427C10.4763 19.4427 10.4763 19.4427 10.5565 19.4427C10.8774 19.2103 11.1982 19.2878 11.4389 19.4427C11.5993 19.5202 11.84 19.5976 12.0806 19.5202V19.7526H11.9202ZM11.2785 17.3513C11.4389 17.4287 11.5993 17.5062 11.84 17.4287V17.6611V19.2878C11.6795 19.2878 11.5191 19.2878 11.3587 19.2103C11.118 19.1329 10.7972 18.9779 10.3961 19.2103V17.3513C10.7972 17.1189 11.0378 17.1963 11.2785 17.3513ZM11.3587 16.2668L11.0378 17.0414C10.8774 17.0414 10.6367 17.0414 10.3961 17.1189L10.8774 16.7316C10.8774 16.6541 11.118 16.4217 11.3587 16.2668C11.3587 16.2668 11.4389 16.1893 11.3587 16.2668ZM11.5191 16.2668H11.5993H11.5191ZM10.7169 16.4992C10.7169 16.4992 10.4763 16.6541 10.3961 16.809C10.3159 16.7316 10.0752 16.4992 10.0752 16.4992L8.71152 15.3373H12.0806L11.6795 15.7246L10.7169 16.4992ZM14.9684 16.1119C14.5673 16.1119 14.3267 16.1893 14.1663 16.3443C14.0058 16.4217 13.8454 16.4992 13.4443 16.4992C13.1234 16.4992 12.8828 16.4217 12.7224 16.3443C12.5619 16.2668 12.3213 16.1119 11.9202 16.1119C11.84 16.1119 11.7598 16.1119 11.6795 16.1119L12.0806 15.2598H14.9684V16.1119Z" fill="black"/>
<path d="M31.0117 8.75317H28.6854V24.5552H31.0117V8.75317Z" fill="black"/>
<path d="M44.809 12.1612C43.4453 10.9219 42.0816 10.5346 40.9586 10.5346C39.4345 10.5346 38.3917 11.3092 38.3917 12.3936C38.3917 15.4146 45.4507 15.3371 45.4507 20.3721C45.4507 22.8509 43.5255 24.6325 40.8784 24.6325C39.1136 24.6325 37.6697 24.1677 36.306 23.1607V20.2947C37.5093 21.7664 39.0334 22.6185 40.6377 22.6185C42.4827 22.6185 43.2849 21.534 43.2849 20.6045C43.2849 17.3511 36.2258 16.9638 36.2258 12.626C36.2258 10.0698 38.151 8.44312 41.1993 8.44312C42.4827 8.44312 43.686 8.83042 44.809 9.52757V12.1612V12.1612Z" fill="black"/>
<path d="M52.7505 22.4638H60.1304V24.4778H50.344V8.75317H52.7505V22.4638Z" fill="black"/>
<path d="M65.6653 8.75317H63.339V24.5552H65.6653V8.75317Z" fill="black"/>
<path d="M86.2009 24.4778H84.1955L73.286 12.3164V24.4778H71.0399V8.75317H72.9651L84.035 20.9145V8.75317H86.2009V24.4778Z" fill="black"/>
<path d="M105.292 23.3931C103.126 24.3226 101.362 24.7099 99.1156 24.7099C94.1422 24.7099 90.4522 21.3016 90.4522 16.654C90.4522 12.0063 94.2224 8.44312 99.1958 8.44312C101.121 8.44312 102.405 8.75296 104.971 9.75995V12.0838C103.046 11.0768 101.041 10.5346 99.1156 10.5346C95.5861 10.5346 92.8587 13.1682 92.8587 16.5765C92.8587 20.1397 95.5861 22.6185 99.4365 22.6185C100.72 22.6185 101.843 22.3086 102.966 21.9988V18.7454H99.8376V16.7314H105.292V23.3931Z" fill="black"/>
<path d="M122.138 10.7672H116.442V24.4778H114.116V10.7672H108.501V8.75317H122.138V10.7672Z" fill="black"/>
<path d="M125.667 16.5765C125.667 13.0908 128.395 10.5346 132.004 10.5346C135.694 10.5346 138.341 13.0908 138.341 16.5765C138.341 20.0623 135.614 22.6185 132.004 22.6185C128.395 22.6185 125.667 20.0623 125.667 16.5765ZM123.261 16.5765C123.261 20.8369 126.63 24.7099 132.004 24.7099C137.539 24.7099 140.828 20.8369 140.828 16.5765C140.828 12.1612 137.459 8.44312 132.004 8.44312C126.71 8.52058 123.261 12.2387 123.261 16.5765Z" fill="black"/>
<path d="M160 24.4778H157.914L147.005 12.3164V24.4778H144.839V8.75317H146.684L157.754 20.9145V8.75317H160V24.4778Z" fill="black"/>
</svg>
