<svg xmlns="http://www.w3.org/2000/svg" fill="none" viewBox="0 0 256 166">
  <path fill="#95BCD1" d="M0 0h256v166H0z" opacity=".1"/>
  <path fill="#000" d="M72.5 107.8l-.3-2.2c-.6-5.2-2-9.6-4.2-13a19 19 0 00-9-7.2l1.4-14.5a52.8 52.8 0 002.2 11.6l.8-.1.7-.3.3-1.4a97.7 97.7 0 002.2-15l.2 1.4a165.4 165.4 0 001.8 14h.9l.7-.1.2-.8A192.3 192.3 0 0072.6 61l.3 2.4A241.6 241.6 0 0075 81l.9.1h.8l.2-1.6a124.4 124.4 0 001.7-13.8l.1.2a167.3 167.3 0 002 14.8l.4 1.4.7.3c.4 0 .7.2.8.1l.5-1.8c.6-2.2 1-5.3 1.3-7.7.1-1.8.3-2.5.4-2l1.4 14.4-1 .4c-2.1.9-4 2.3-6 4.2-3.4 3.7-5.5 9-6.3 15.8-.2 2-.3 2.6-.4 2zm37.7-3c-1.1-.5-1.7-1.3-1.7-2.5l.2-1.2c.3-.5.9-1 1.3-1.2.5-.2 1.5-.2 2 0 .5 0 .5 0 .5.6v.6l-.5-.2c-.5-.3-1.5-.2-1.9.1-.7.7-.6 2.1.2 2.6.4.3 1.2.3 1.4 0 .3-.2 0-1-.3-1-.6-.3-.4-.4.6-.4h.9v1.1c0 1 0 1.1-.3 1.3-.5.2-2 .2-2.4.1zm40.7-1.4l-1.4-1.4V104.4c.4.2.2.3-.6.3h-.9l.2-.4c.2-.1.2-.6.2-2.4l.1-2.1 1.6 1.4 1.5 1.4v-1c0-.8-.1-1.2-.2-1.4l-.2-.3h.8c.7 0 .9 0 .8.2a8 8 0 00-.2 2.4l-.1 2.3-1.6-1.4zm5.4 1.3c-2-.6-2.2-3.7-.4-4.7a4 4 0 012.4-.2c.3.1.4.2.4.7v.6l-.6-.2c-.6-.3-1.5-.2-1.9.2-1 1.2-.1 3 1.2 2.7.4 0 .5 0 .5-.6 0-.4 0-.5-.4-.7-.5-.2-.3-.3.6-.3h1v1c0 1.1 0 1.2-.4 1.3-.4.3-1.9.3-2.4.2zm-68.1-.1l.1-.2.1-1.8v-1.8H88l-.6.2c-.1.1-.2 0-.1-.2v-.6c.1-.3.2-.3 1.8-.3h1.7v.6c0 .5 0 .6-.2.5l-.5-.2h-.5v1.7c0 1.2 0 1.7.2 1.9l.2.3h-.9l-1-.1zm4.8-.2c.1-.2.2-.7.2-2.1 0-1.4 0-1.9-.2-2.1l-.2-.3h.9c.8 0 1 0 .8.2l-.2.8-.1.7H96v-.6c0-.4-.1-.7-.3-.9-.2-.2-.1-.2.8-.2.7 0 1 0 .8.2-.2.2-.2 4.1 0 4.3.3.2 0 .3-.8.3h-1l.3-.3.2-1v-.7h-2l.2.8.2 1h.1c0 .1-.4.2-1 .2h-.8l.2-.3zm6.6.2l.1-.2c.2-.2.2-4.1 0-4.3-.1-.2.2-.2 1.5-.2h1.6v1.2l-.4-.2-.8-.2c-.5 0-.5 0-.5.5v.6h.5l.8-.2c.2-.1.2 0 .2.5 0 .7-.1 1-.3.6l-.7-.1h-.5v1.2h.6c.5 0 .8-.1 1-.3.2-.2.2-.2.2.3 0 .9 0 .9-1.7.9l-1.6-.1zm14.9 0l1.2-2.5 1.3-2.5s2 4.1 2.3 5l-.8.1c-.7 0-.8 0-.7-.2v-.5c0-.2-.2-.2-.9-.2-.8 0-.8 0-1 .3v.5l-.6.1-.8-.1zm2.8-2.2l-.4-.7-.3.7-.3.6h1.2l-.2-.6zm4.1 2.2l.2-.2c.1 0 .2-.6.2-1.8v-1.8h-.4l-.6.2c-.2.2-.3 0-.2-.6v-.5H124l.1.6c.1.6 0 .7-.2.5l-.6-.2h-.4v1.7c0 1.3 0 1.7.2 1.8l.2.3-1 .1-.9-.1zm4.6 0l.2-.2c.3 0 .2-4 0-4.3-.2-.2-.1-.2.8-.2h.9l-.2.3-.2.9v.5h1.8v-.5c0-.2 0-.6-.2-.8l-.1-.4h1.8l-.2.3c-.2.3-.2.7-.2 2.2 0 1.4.1 2 .2 2 .5.1 0 .3-.7.3l-1-.1.2-.2s.2-.4.2-.9v-.8h-1.9v.7c0 .4.2.8.3 1l.2.3h-1l-.9-.1zm7-.2c.3-.4.2-4 0-4.3-.3-.2-.2-.2 1.4-.2h1.6v1.2l-.3-.2a2 2 0 00-1-.2c-.4 0-.4 0-.4.5s0 .5.5.5h.7c.3-.2.3-.2.3.5 0 .6 0 .6-.3.5l-.7-.1c-.6 0-.7.2-.5.8 0 .3.1.4.7.4.5 0 .8-.1 1-.3.2-.2.2-.2.1.3v.7c0 .2-.5.2-1.7.2h-1.7l.2-.3zm5.3.2l.1-.2c.3 0 .3-4 0-4.3-.2-.2 0-.2 1.4-.2h1.5l.4.5c.5.6.5 1.3 0 1.8l-.3.4.4.6.6 1 .4.5h-.6c-.4 0-.7 0-.9-.3a9.7 9.7 0 01-1.3-2.3h.3c.4 0 .6-.3.6-.7 0-.3-.4-.7-.9-.7-.3 0-.3 0-.3 1.7 0 1.3 0 1.8.2 2l.2.3h-.9l-1-.1zm6.2 0l.1-.2c.3 0 .3-3.6 0-4.1l-.1-.4h1.9l-.3.3c-.2.3-.2.7-.2 2.2 0 1.4.1 2 .2 2 .5.1.1.3-.7.3l-1-.1zm17.9-5.3c-.5-1.7-1.6-3-3-3.6-1-.5-1.5-.5-3.2-.3-3 .4-4.6.4-6.7-.1-1.1-.3-3-1.3-4-2a8.8 8.8 0 01-1.8-12c1.4-2 3.8-3.6 6.5-4.2 1.3-.3 11-.4 11-.2 0 .3-2.6 6-2.8 6l-.4-.7c-.8-2.1-2.8-3.4-4.6-3-2.6.5-4 3.4-3.9 7.7.1 2.4.6 4 1.6 5.1 1 1.2 2.5 1.7 3.9 1.3a4 4 0 001-.4c.2-.1.2-.6.1-2.4 0-2.7-.1-3-1.3-3.7l-.9-.5c-.1-.1 1.4-.1 4.3-.2h4.4v6.7a159.2 159.2 0 01-.2 6.5zM101.1 94a11144.6 11144.6 0 01-4.3-9.9c-.2 0-3.4 7.3-3.4 7.8 0 1 .4 1.5 2.3 3.1l.4.4h-9.4l.9-1 1.4-1.8a103.3 103.3 0 006-13.3c-.2-.6-1-1.4-2.1-1.9-1.6-.7-1.4-.7 3.2-.7h4.2l2 4.3 1.7 4.1a45 45 0 002.7-6.1c0-.5-.6-1.3-1.4-1.8l-.4-.4 4.8-.1 4.8.1-.6.5c-.6.4-.9 1-.8 1.7 0 .7 5.2 13 5.8 14l1.3 1.5.7.9h-5.2l-5.2-.1s.2-.3.5-.4c.6-.5 1-1.4 1-2.2-.1-.7-3.4-8.7-3.6-8.6l-3 6.3-3 6.3-1.3-2.7zm23.7 1.7c-1.5-1-3.5-3.4-4.2-4.8l-.2-.5 2.6-5.9 2.7-5.8-.2-.5-.8-.8-.5-.5c0-.2 1.3-.2 6.2-.2h6.2l-.5.7c-1 .8-1 .8 2.2 8.3l3.2 7.2 1.2 1.5.7 1a85.8 85.8 0 01-10.4-.1l.6-.6c.7-.6 1-1.2.8-2 0-.6-5.1-12.8-5.3-12.9 0 0-.9 1.6-1.8 3.7-1.2 2.7-1.6 3.7-1.5 3.8h5.6l-1.1.6c-2.7 1.4-4.3 3.9-4.5 7.2 0 .7-.1 1.2-.2 1.2l-.8-.6zm61.1-.2c-4.4-.6-8-3.5-9-7.2-.2-1.1-.2-3.1 0-4.2 1-3.3 3.8-6 7.5-7 1.3-.3 1.4-.3 6.2-.4h5a29.5 29.5 0 01-2.6 6l-.3-.5c-.3-.9-1.2-2-2-2.5-1.6-1.1-3.6-.8-5 .7-1.1 1.3-1.6 3-1.6 5.8 0 3.6 1 5.7 3 6.7 1.3.7 3.2.5 5.6-.7 1-.5 2.7-1.5 3.9-2.5.5-.4.5-.1 0 .8a11.9 11.9 0 01-6.6 4.8c-1.1.3-3 .4-4 .2zm-20.4-.2l.5-.5 1-1.3.3-.7V79.4l-.4-.7-.9-1.2-.5-.6a54.6 54.6 0 019.6 0l-.6.8c-.6.5-.8.9-1 1.6-.2.9-.2 1.2-.2 7.2v6.2l.4.8.9 1.3.5.6a70.5 70.5 0 01-9.6 0z"/>
</svg>
