<svg width="174" height="49" viewBox="0 0 174 49" fill="none" xmlns="http://www.w3.org/2000/svg">
<path fill-rule="evenodd" clip-rule="evenodd" d="M20.9103 28.6865H7.02316V4.48877H0V35.434H20.9103V28.6865Z" fill="#111111"/>
<path fill-rule="evenodd" clip-rule="evenodd" d="M35.9799 29.2241C34.4302 29.2241 33.0124 28.6381 31.987 27.5752C30.9299 26.4777 30.3478 24.9185 30.3484 23.1836C30.3478 21.4079 30.9544 19.823 32.0556 18.721C33.0704 17.7056 34.4592 17.1465 35.9696 17.1465C35.9766 17.1465 35.9841 17.1465 35.9922 17.1465C37.4984 17.1465 38.8862 17.705 39.8995 18.7185C41.0029 19.8219 41.6104 21.4079 41.6109 23.1853C41.6098 26.7409 39.2954 29.2241 35.9824 29.2241H35.9799ZM48.6993 23.1853C48.6971 16.0137 43.1102 10.3952 35.9799 10.394C28.8475 10.3946 23.2603 16.0118 23.2603 23.1819C23.2603 30.4711 28.729 35.969 35.9819 35.9704C43.2298 35.969 48.6971 30.4731 48.6993 23.1853Z" fill="#111111"/>
<mask id="mask0" mask-type="alpha" maskUnits="userSpaceOnUse" x="0" y="10" width="174" height="39">
<path d="M0 10.3926H173.581V48.7999H0V10.3926Z" fill="#111111"/>
</mask>
<g mask="url(#mask0)">
<path fill-rule="evenodd" clip-rule="evenodd" d="M58.6825 23.1825C58.682 21.3933 59.2872 19.8019 60.3875 18.7016C61.39 17.6979 62.766 17.1452 64.2641 17.1452C64.2711 17.1452 64.2786 17.1452 64.2867 17.1452C65.7812 17.1452 67.1555 17.6973 68.1582 18.6999C69.2588 19.8008 69.866 21.3938 69.866 23.1841C69.8654 26.7399 67.567 29.2237 64.2758 29.2237C62.7289 29.2237 61.318 28.6383 60.3025 27.5753C59.2426 26.4652 58.682 24.9459 58.6825 23.1825ZM69.8607 32.9786V35.4345H76.8838V10.9282H69.8607V13.4704C68.0939 11.4761 65.6454 10.3936 62.8415 10.3931C56.4292 10.3936 51.5942 15.8916 51.5942 23.1813C51.5942 30.5904 56.3395 35.9688 62.8775 35.9702C65.6711 35.9693 68.1058 34.9167 69.8607 32.9786Z" fill="#111111"/>
<path fill-rule="evenodd" clip-rule="evenodd" d="M164.956 27.38C163.942 28.4326 162.527 29.0124 160.974 29.0124H160.971C159.429 29.0124 158.018 28.4315 156.998 27.3761C155.954 26.2952 155.379 24.7687 155.38 23.0774C155.379 21.348 155.976 19.7978 157.061 18.7116C158.071 17.701 159.455 17.1449 160.961 17.1449C160.968 17.1449 160.975 17.1449 160.984 17.1449C162.486 17.1449 163.869 17.7004 164.878 18.71C165.964 19.7972 166.563 21.3486 166.563 23.0791C166.563 24.7768 165.992 26.3042 164.956 27.38ZM166.558 10.928V13.4649C164.789 11.4742 162.34 10.3929 159.538 10.3926L159.539 10.3929C153.126 10.3934 148.291 15.8461 148.291 23.0757C148.291 30.305 153.142 35.7583 159.575 35.7594C162.367 35.7583 164.802 34.7073 166.558 32.7726V42.1258H133.524V48.8175H173.581V10.928H166.558Z" fill="#111111"/>
<path fill-rule="evenodd" clip-rule="evenodd" d="M0 48.7996H6.67608V42.125H0V48.7996Z" fill="#111111"/>
<path fill-rule="evenodd" clip-rule="evenodd" d="M13.3525 48.7996H26.7047V42.125H13.3525V48.7996Z" fill="#111111"/>
<path fill-rule="evenodd" clip-rule="evenodd" d="M33.3809 48.7996H53.4094V42.125H33.3809V48.7996Z" fill="#111111"/>
<path fill-rule="evenodd" clip-rule="evenodd" d="M93.4668 48.7996H126.847V42.125H93.4668V48.7996Z" fill="#111111"/>
<path fill-rule="evenodd" clip-rule="evenodd" d="M60.0859 48.7996H86.7906V42.125H60.0859V48.7996Z" fill="#111111"/>
</g>
<path fill-rule="evenodd" clip-rule="evenodd" d="M93.1606 29.2228C91.6137 29.2228 90.2028 28.6374 89.1873 27.5745C88.1274 26.4643 87.5668 24.9451 87.5673 23.1817C87.5668 21.3931 88.1723 19.8018 89.2717 18.7014C90.2748 17.6977 91.6508 17.145 93.147 17.145C93.1506 17.145 93.1548 17.145 93.1587 17.145L93.1598 17.1445C93.164 17.1445 93.1676 17.1445 93.1676 17.1445C94.6663 17.1445 96.0403 17.6966 97.0431 18.6992C98.1437 19.8007 98.7508 21.3931 98.7508 23.1833C98.7503 26.739 96.4518 29.2228 93.1606 29.2228ZM98.6513 32.9777V35.4335H105.675V1.4834H98.6513V13.4689C96.8845 11.4755 94.4366 10.3931 91.6324 10.3925C85.22 10.3931 80.385 15.891 80.385 23.1806C80.385 30.5894 85.13 35.9678 91.6683 35.9692C94.4616 35.9683 96.8967 34.9157 98.6513 32.9777Z" fill="#111111"/>
<path fill-rule="evenodd" clip-rule="evenodd" d="M137.643 35.4351H144.666V10.9287H121.973V35.4351H128.997V17.6892H137.643V35.4351Z" fill="#111111"/>
<path fill-rule="evenodd" clip-rule="evenodd" d="M110.348 35.4351H117.372V10.9287H110.348V35.4351Z" fill="#111111"/>
<path fill-rule="evenodd" clip-rule="evenodd" d="M113.953 8.6982C116.35 8.6982 118.293 6.75095 118.293 4.3491C118.293 1.94725 116.35 0 113.953 0C111.557 0 109.615 1.94725 109.615 4.3491C109.615 6.75095 111.557 8.6982 113.953 8.6982Z" fill="#111111"/>
</svg>
