<svg xmlns="http://www.w3.org/2000/svg" viewBox="0 0 256 166">
  <path fill="#95bcd1" d="M0 0h256v166H0z" opacity=".1"/>
  <path d="M56.6 62.8c-6.1 0-9.2 3.2-9.2 8.4v1.9c0 4.1 1.2 7.2 4.5 10.2l4.5 4.1c1.9 1.7 2.1 2.8 2.1 5v1c0 1.6-.3 2.3-1.4 2.3-1.2 0-1.5-.7-1.5-2.1v-5.5H47v6.3c0 5.8 3.1 8.7 9.1 8.7H58c6.7 0 9.8-4.1 9.8-10.3V91c0-4.3-1.2-6.9-5.2-10.6l-4.4-4.1c-1.6-1.4-1.9-2.3-1.9-4v-1c0-1.1.3-1.7 1.4-1.7s1.2.6 1.2 1.7v4.3h8.5v-4.7c-.1-4.9-2.4-8-8.8-8h-2zm21.3 24.1l3.9 15.8H91l-5.7-21.8 5.4-17.6H82l-4.1 14v-14h-8.7v39.4h8.7V86.9zm22.6-23.6h-8.7v39.4h8.7V63.3zm1.9 0v39.4h7.6V82.1l5.3 20.6h7.6V63.3h-7.6v19l-4.4-19h-8.5zm28.1 39.4h12.6c5.1 0 7.8-2.9 7.8-9.1V71.9c0-6.3-3-8.7-7.9-8.7h-12.5v39.5zm8.7-32.1h1.3c1.2 0 1.5.7 1.5 2.3v19.9c0 1.6-.3 2.3-1.7 2.3h-1.2l.1-24.5zm13.6-7.3v39.4h16.6v-8.3h-8v-8h6.2v-8.3h-6.2v-6.7h7.8v-8.2l-16.4.1zm18.1 0v39.4h16.6v-8.3h-8v-8h6.2v-8.3h-6.2v-6.7h7.8v-8.2l-16.4.1zm30.9 24.2c4.5 0 7.2-3 7.2-8.1v-8.1c0-5.3-2.2-8-7.4-8H189v39.4h8.7V87.5h4.1zm-4.1-17.4h1c1.3 0 1.5.8 1.5 2v6.2c0 1.2-.3 1.9-1.5 1.9h-1.1l.1-10.1z"/>
</svg>
