<svg xmlns="http://www.w3.org/2000/svg" fill="none" viewBox="0 0 256 166">
   <path fill="#95BCD1" d="M0 0h256v166H0z" opacity=".1" />
   <path fill="#000" d="M66.94 78.24v15.52c0 .12-.1.22-.23.22H33.46a.22.22 0 0 1-.23-.22v-1.51a.2.2 0 0 1 .13-.2l9.56-4.8a.22.22 0 0 1 .1-.02h1.22c.13 0 .23.1.23.23v4.28c0 .17.17.28.32.2l10.63-5.31c.07-.04.05-.15-.03-.15H33.46a.22.22 0 0 1-.23-.22v-1.51a.2.2 0 0 1 .13-.2l9.56-4.8a.23.23 0 0 1 .1-.02h1.22c.13 0 .23.1.23.23v4.28c0 .17.17.28.32.2l10.63-5.31c.07-.04.05-.15-.03-.15H33.46a.22.22 0 0 1-.23-.22v-1.51c0-.09.05-.16.13-.2l10.78-5.4.26-.13c.03-.02.07 0 .07.04v5.19c0 .16.17.27.32.2l10.81-5.41a.22.22 0 0 1 .2 0l11.02 5.5c.07.05.12.12.12.2v1m5.69 8.59h5.71c-.28 1.48 1.29 3.01 5.74 3.08 4.23.06 7.59-.5 7.96-2.45.85-4.33-19.28.72-17.46-8.8.84-4.52 6.2-7.25 13.32-7.13 6.9.13 11.04 3.1 10.29 7.65h-5.71c.31-1.47-1-3-5.3-3.07-3.89-.06-6.8.47-7.15 2.35-.75 4.17 19.25-.47 17.44 8.88-.88 4.54-6.53 7.27-14.11 7.14-7.34-.12-11.6-3.13-10.73-7.65m29.03-14.79h21.39l-.82 4.57h-15.99l-.72 4.08h13.51l-.72 4.3h-13.54l-.79 4.42h16l-.82 4.57H97.78l3.88-21.94m99.72 0h21.39l-.82 4.57h-15.99l-.72 4.08h13.51l-.72 4.3H204.5l-.79 4.42h16l-.82 4.57H197.5l3.88-21.94m-67.25 4.57h-10.19l.82-4.57h25.8l-.81 4.57h-10.22l-3.08 17.37h-5.39l3.07-17.37m27.52 0h-10.19l.82-4.57h25.8l-.81 4.57h-10.23l-3.07 17.37h-5.4l3.08-17.37m18.23-4.57h5.4L182.2 89.4h14.58l-.82 4.57H176l3.89-21.94" />
</svg>
