<svg width="118" height="64" viewBox="0 0 118 64" fill="none" xmlns="http://www.w3.org/2000/svg">
<path fill-rule="evenodd" clip-rule="evenodd" d="M106.222 15.0162C106.773 13.8231 107.352 12.8689 107.932 12.1532L109.227 10.8706C109.688 10.4977 110.149 10.2743 110.64 10.2299C111.845 10.2149 112.024 11.6308 111.25 14.4643C110.789 16.2832 109.97 17.9086 108.84 19.3101C108.023 20.3243 107.353 20.9505 106.773 21.2184C106.252 21.4273 105.895 21.4568 105.612 21.3379C105.151 21.0845 104.958 20.3837 105.017 19.1906C105.062 17.9531 105.478 16.5666 106.222 15.0162ZM104.645 23.8285C109.405 23.3212 113.123 20.8161 115.801 16.3732L116.322 15.359C116.322 15.359 117.512 12.675 116.932 10.6322C116.441 8.97731 115.311 8.35049 115.311 8.35049C114.284 7.64975 112.826 7.53081 110.981 7.93315C106.519 8.82784 103.217 11.348 101.164 15.493C100.688 16.1342 100.272 16.9695 99.9898 17.9981C99.7216 19.0122 99.6173 19.9959 99.7958 20.8755C100.123 23.1872 101.759 24.1864 104.645 23.8285Z" fill="#111111"/>
<path fill-rule="evenodd" clip-rule="evenodd" d="M94.3518 12.63L94.262 12.5556V12.525C93.4288 11.064 92.1354 10.4227 90.3947 10.5122C89.8298 10.5567 89.1756 10.7661 88.4616 11.1685C87.8956 11.5114 87.5386 11.7498 87.4199 11.9737C87.2719 12.2571 87.3456 12.4361 87.6289 12.525C88.4621 12.6895 89.0265 12.8084 89.2948 12.9579C90.128 13.4197 90.4994 14.1955 90.485 15.2686C90.4994 17.7588 90.0382 20.6818 89.0863 24.0517C88.5508 25.2149 88.9078 25.7661 90.128 25.7517L93.5196 25.3193C94.8285 24.9909 95.5126 24.5586 95.572 23.9917L95.6024 22.9931C95.6318 20.0111 95.4832 17.5504 95.1861 15.612L95.2005 15.4475C96.3758 13.1068 97.923 11.7053 99.8562 11.1685C100.63 10.9595 101.315 11.1985 101.969 11.8993C102.192 12.0782 102.326 12.1527 102.445 12.0782C102.95 11.9437 103.412 11.4219 103.873 10.5872C104.275 10.0504 104.438 9.39408 104.378 8.64831C104.319 7.63413 103.605 7.12785 102.252 7.18731C99.574 7.39572 96.9562 9.20014 94.4122 12.5556L94.3518 12.63Z" fill="#111111"/>
<path fill-rule="evenodd" clip-rule="evenodd" d="M74.5673 1.44688C74.0622 0.298216 73.0505 -0.178606 71.5327 0.0598052C69.1383 0.388223 67.4719 0.880046 66.5125 1.49134C66.3121 1.64082 66.3634 1.80476 66.7284 1.89423C67.598 2.17765 68.2377 3.05736 68.7065 4.53336C70.7588 10.364 71.9485 17.5211 72.3055 25.9459C72.3055 26.8856 72.5738 27.5119 73.05 27.7203C74.121 28.3616 75.7276 27.9887 77.8547 26.6467C79.6837 25.4985 81.5281 23.9031 83.4623 21.8007C85.3954 19.7424 86.5562 17.7595 86.9875 15.9557C87.5375 13.8234 86.7946 12.3918 84.8604 11.7055C83.4323 11.2437 81.7969 11.3326 79.9813 11.9739C78.851 12.3618 77.7505 13.0026 76.6495 13.8228L76.5015 13.7033C76.0109 9.05085 75.6384 6.20277 75.4 5.14412L75.043 3.25076C74.8949 2.46052 74.7613 1.89423 74.5673 1.44688ZM77.587 24.1415L76.7393 15.9701C78.7767 14.3896 80.1599 14.2552 80.8899 15.4928C81.5286 16.5664 81.4548 18.0719 80.6959 20.0113C79.9226 21.9647 78.9108 23.3512 77.587 24.1415Z" fill="#111111"/>
<path fill-rule="evenodd" clip-rule="evenodd" d="M84.4745 27.9444C81.7669 31.3587 78.7772 34.2667 75.5191 36.5774C71.3846 39.4999 66.4532 41.7511 60.7933 43.3171C51.8828 45.7473 43.9098 45.7473 36.8812 43.3171L36.5691 43.2577C36.4429 43.3327 36.4205 43.5261 36.4718 43.839C37.1265 52.7565 43.5448 58.8844 55.802 62.2842C60.2722 63.5068 64.6531 63.7752 68.9443 63.1344C73.407 62.4632 77.215 60.8232 80.3827 58.2436C83.7594 55.455 86.0501 51.8312 87.1655 47.2983C88.4455 42.3035 88.2509 36.548 86.6006 29.9722L86.3771 29.2859C86.2874 29.1375 86.1986 29.107 86.0495 29.1375C85.6925 29.182 85.6038 29.3759 85.6925 29.7488C86.1986 31.7766 86.4659 33.9833 86.5557 36.3096C86.6444 39.1871 86.4365 41.9017 85.871 44.4508C84.3836 51.146 80.7541 55.7084 74.9826 58.1241C69.3601 60.3903 63.596 60.7032 57.6534 59.0483C54.4183 58.0791 51.5552 56.7376 48.9663 54.9327C46.8397 53.5012 45.2775 52.0407 44.2214 50.5642C43.6266 49.7145 43.2471 48.9837 43.0835 48.3274L43.1653 48.283C45.3293 48.5064 47.821 48.5214 50.6247 48.3124C55.9356 47.9401 60.859 46.8959 65.3142 45.1365C70.3269 43.1387 74.8489 40.2312 78.9397 36.3835C82.2715 33.2076 84.3991 30.3745 85.3948 27.8849C85.5733 27.527 85.5733 27.2886 85.3654 27.1986C85.142 27.1097 84.9491 27.1986 84.8593 27.482L84.4745 27.9444Z" fill="#111111"/>
<path fill-rule="evenodd" clip-rule="evenodd" d="M1.92569 27.0637C3.5996 27.1976 6.03138 26.7653 9.13283 25.8111L15.2235 24.2456L16.6815 33.7584C17.0161 35.2944 17.3437 36.2036 17.7157 36.4425L18.4441 36.8154L20.3927 36.681C22.8769 36.4425 24.1115 36.0102 24.1115 35.3689L24.0222 34.6387L22.0442 22.4857L28.7821 20.7713L30.1434 29.9717L30.7981 33.1177C31.1626 34.1913 31.7719 34.6837 32.5976 34.5937C34.4794 34.4453 35.7365 34.0874 36.3837 33.5795C36.6065 33.3861 36.6589 33.1471 36.5317 32.8043L36.234 32.0885C35.1261 28.8675 34.263 24.7824 33.6163 19.8321L41.3664 18.684C37.7668 22.4262 36.5317 25.6621 37.707 28.3907C38.1308 29.4049 38.7855 30.1651 39.6406 30.568C40.4808 30.9404 41.4182 31.0148 42.4669 30.8064C44.7725 30.3735 46.8628 28.927 48.774 26.4524C49.8525 29.5683 52.0609 30.6275 55.4381 29.5538C55.6022 29.5088 55.7059 29.4494 55.7059 29.3299C55.7133 29.181 55.6241 29.002 55.3788 28.8675C54.2409 28.3457 53.5862 27.1087 53.5044 25.1998C53.4077 24.0067 53.5712 22.3812 53.9138 20.2639L54.4194 17.3414C54.4194 16.4611 53.9651 16.1633 53.0437 16.3722C52.3815 16.5206 51.6376 16.834 50.8642 17.2669C50.1652 17.6843 49.7039 17.9971 49.4436 18.1911C49.2432 18.445 48.9829 18.9068 48.7745 19.6226C47.7334 23.172 46.2161 25.7661 44.2749 27.526C42.8912 28.8081 42.1403 28.927 42.0061 27.8389C41.9249 26.9742 42.1553 25.9006 42.802 24.573C43.9847 21.8294 45.9328 19.3692 48.7077 17.2074C49.5409 16.5956 50.3736 16.1338 51.1844 15.7759C51.3853 15.7009 51.4746 15.582 51.4746 15.403C51.4746 15.1796 51.2811 15.0151 50.9166 14.9412L48.5666 14.8512C44.8104 15.0007 39.7449 15.7314 33.3041 17.058L33.0064 11.9437C32.9097 7.93251 33.0064 5.08445 33.3041 3.45898C33.3934 2.90769 33.2817 2.5348 32.9327 2.32586C32.6425 2.05799 32.0401 1.95351 31.2144 2.05799C29.5036 2.23693 27.9863 2.69874 26.6625 3.45898C26.3797 3.62345 26.2905 3.74239 26.3797 3.86186L26.6031 4.0408L26.9377 4.48816C27.1905 4.75657 27.3765 5.80021 27.4732 7.55962L28.455 18.1761L21.6567 19.9355C21.211 16.834 20.9208 14.031 20.7049 11.5103L20.2736 5.59073C20.3329 4.26368 19.9021 3.62238 19.0016 3.62238C18.2132 3.62238 17.0978 3.89079 15.6623 4.41262C13.9216 5.03945 12.524 5.78468 11.4224 6.67885C11.0734 6.94779 11.0061 7.1712 11.1996 7.32014L11.4748 7.45408L11.6608 7.52908C12.1819 7.69302 12.5459 8.11038 12.7174 8.84114C13.417 12.36 14.0039 15.4914 14.4207 18.3245L14.2946 18.3545C8.52248 19.8916 4.22331 21.502 1.36772 23.187C1.36772 23.187 -0.164036 24.0961 0.0144727 25.6177C0.199929 27.1381 1.92569 27.0637 1.92569 27.0637ZM14.8964 21.681C10.5529 22.8141 7.786 23.4998 6.52949 23.6493C5.57014 23.8727 5.05653 23.8133 5.01217 23.4554C4.97529 23.232 5.38415 22.8886 6.21737 22.4412C8.58234 21.1886 11.3492 20.2044 14.525 19.4292L14.5768 19.3842L14.8964 21.681Z" fill="#111111"/>
<path fill-rule="evenodd" clip-rule="evenodd" d="M69.4066 13.51C68.0598 13.7334 66.8776 14.0163 65.8658 14.3897C62.7051 15.7017 61.0173 17.0738 60.7939 18.5948C60.6966 19.0571 60.7345 19.5195 60.8826 19.9368C61.106 20.4887 61.4774 20.8465 61.9985 21.0549C62.7649 21.3384 64.5714 21.8302 67.5098 22.5459C69.3024 22.9938 70.328 23.6501 70.4777 24.5738C71.3109 26.6916 70.3734 29.1817 67.6883 31.9548C65.8958 33.9526 64.3042 35.3691 62.8905 36.2638C61.7452 36.9651 60.4582 37.5164 58.9489 37.8743C57.1783 38.2916 55.5717 37.4275 54.1436 35.2502L53.6754 34.5494C53.4077 34.1915 53.296 33.9087 53.3184 33.6992C53.3628 33.4908 53.4889 33.3863 53.7198 33.3563L54.1436 33.4313C54.2778 33.5508 54.4638 33.6697 54.7385 33.7586C56.1222 34.3405 57.4754 34.176 58.8367 33.2074C60.1236 32.2532 61.3427 31.1345 62.5255 29.8225L63.9316 27.9886L64.5484 26.766C64.8461 25.9458 64.8461 25.26 64.5484 24.7832C64.0941 24.0819 62.9493 23.6346 61.1947 23.4556L61.3283 23.4406C60.3096 23.2767 59.1632 23.0683 57.8399 22.7104C56.7689 22.442 56.0917 21.9352 55.802 21.2194C54.8796 18.6403 56.0623 16.0452 59.3503 13.4205C61.7895 11.3782 63.9316 10.1401 65.8429 9.72277C67.799 9.32042 69.0036 10.1851 69.4056 12.3179L69.5392 13.4211L69.4066 13.51Z" fill="#111111"/>
</svg>
