<svg xmlns="http://www.w3.org/2000/svg" fill="none" viewBox="0 0 256 166">
  <path fill="#95BCD1" d="M0 0h256v166H0z" opacity=".1"/>
  <path fill="#000" d="M83 68.7c.8-2.9 3.5-4.2 6.7-4.2 4.7 0 7 1.9 7 5.7v10.3h-4.3v-1.9h-.1c-.9 1.4-2.5 2.3-4.9 2.3-3.4 0-5-1.8-5-4.4 0-2.7 1.5-4.2 5-4.8l3-.4c1.4-.3 1.8-.5 1.8-1.3 0-1.3-.7-2.3-2.4-2.3s-2.6.9-2.7 2.3l-4-1.3zm7.2 5.1l-1.5.3c-1.4.2-2 .9-2 1.8 0 1.2.8 1.8 2.1 1.8 1.6 0 3.4-1 3.4-3.4v-.9l-2 .4zM101.5 68.3h-3V65h3V60h4.8v4.7h3.7v3.5h-3.7v6.2c0 1.6.4 2.3 2.2 2.3h1.5v3.7h-2.6c-4.5 0-5.9-1.4-5.9-5.8v-6.4zM155.8 64.5c5 0 8.5 3 8.5 8.2 0 5.2-3.6 8.2-8.5 8.2-5.1 0-8.6-3-8.6-8.2 0-5.2 3.7-8.2 8.6-8.2zm0 13c2.2 0 3.6-1.9 3.6-4.8 0-3-1.4-4.7-3.6-4.7-2.3 0-3.7 1.8-3.7 4.7 0 3 1.4 4.7 3.7 4.7zM166.4 64.9h4.6V67h.1a4.3 4.3 0 014.1-2.6c.6 0 1.4 0 2.2.6l-.8 4c-.7-.3-1.4-.4-2-.4-2.3 0-3.4 2-3.4 4.6v7.2h-4.7V65zM178.5 57h4.7v13.9l5.4-6h5.4L188 71l6.4 9.4h-5.4l-4.1-6-1.8 1.9v4.1h-4.7V57zM70.2 87.9H76l8.2 22H79l-1.6-4.4h-8.8l-1.5 4.5H62l8.2-22.1zm-.3 13.6h6.2l-3-9H73l-3 9zM86.2 94.3h4.6v2.3a4.3 4.3 0 014.2-2.7c.6 0 1.4.1 2.2.6l-.9 4.1c-.7-.3-1.3-.5-1.9-.5-2.3 0-3.4 2-3.4 4.7v7.2h-4.8V94.3zM101.5 97.8h-3v-3.5h3v-4.8h4.8v4.8h3.7v3.5h-3.7v6.1c0 1.7.4 2.3 2.2 2.3h1.5v3.8h-2.6c-4.5 0-5.9-1.4-5.9-5.8v-6.4zM143.4 109h-20.3v1h20.3v-1zM64.6 58.4H80v4.1H69.6v4.8H79v3.9h-9.4v5.3H80v4H64.6v-22zM117.8 58.4h5.4l3 15.7h.2l4.2-15.7h4.9l4.3 15.7h.2l2.9-15.7h5.2l-5 22.2h-6L133 65h-.2l-4 15.6h-6l-5-22.2z"/>
</svg>
