<svg xmlns="http://www.w3.org/2000/svg" fill="none" viewBox="0 0 256 166">
  <path fill="#95BCD1" d="M0 0h256v166H0z" opacity=".1"/>
  <path fill="#1D1D1B" d="M79.52 78.12l-.05.85 5.18.3.05-.84 1.14.06-.17 2.87c-.1 1.7-.9 2.87-2.43 2.78a2.17 2.17 0 01-1.95-1.51l-2.1 1.01-.05.85-1.14-.07.1-1.7 2.93-1.33v-.45l.04-.6-1.68-.1-.05.92-1.15-.07.18-3.03 1.15.06zm3.76 4.7c.78.05 1.2-.57 1.25-1.6l.04-.68-2.4-.14a7.4 7.4 0 00-.06.72c-.05.96.39 1.66 1.17 1.7zM79.22 86.03l.08.84 5.16-.51-.08-.84 1.15-.12.53 5.5-2.13.22-.12-1.21 1-.1-.21-2.19-2 .2.22 2.23-1.09.1-.22-2.22-2.1.2.21 2.2 1-.1.12 1.21-2.14.21-.54-5.51 1.16-.11zM80.06 93.36l.2.82 5.04-1.28-.2-.82 1.11-.28 1.32 5.3-2.07.52-.3-1.18.97-.24-.5-2.07-2.08.53.52 2.12-1.07.27-.52-2.12-1.9.48.24.95-1.12.29-.75-3 1.11-.29zM83.55 100.15l3.32-1.43-.32-.74 1.06-.46 1.16 2.74-1.06.45-.35-.82-3.25 1.4c-1.06.46-1.4 1.24-1.03 2.1.37.89 1.1 1.2 2.17.73l3.3-1.42-.35-.82 1.06-.45 1.15 2.7-1.06.45-.32-.74-3.3 1.42c-1.8.78-3.1.1-3.73-1.4-.65-1.52-.23-2.94 1.55-3.7zM87.62 106.89a3.76 3.76 0 015.39 1.06c.94 1.43.82 2.9.07 3.4-.46.3-.96.22-1.22-.16-.27-.42-.2-.9.2-1.17a.99.99 0 01.37-.15c.03-.27-.07-.72-.44-1.29-.79-1.2-2.3-1.5-3.64-.6-1.37.92-1.6 2.5-.92 3.53.43.65.86 1 1.38 1.23l1.07-.72-1.01-1.54.91-.6 1.7 2.57-3.23 2.17-.67-1.01.47-.31c-.63-.2-1.23-.6-1.69-1.3-1-1.5-.74-3.77 1.26-5.11zM90.64 115.76l.58.61 3.77-3.59-.57-.61.83-.8 3.76 4.03-1.56 1.48-.82-.89.72-.69-1.49-1.6-1.45 1.39 1.52 1.63-.8.75-1.52-1.63-1.54 1.47 1.5 1.6.73-.69.82.89-1.55 1.48-3.77-4.03.84-.8zM95.76 121.05l.65.52 3.2-4.12-.65-.52.7-.91 4.32 3.4-1.33 1.7-.94-.74.62-.8-1.71-1.35-1.24 1.59 1.75 1.38-.68.86-1.74-1.38-1.31 1.68 1.72 1.37.62-.8.95.75-1.33 1.7-4.31-3.42.7-.91zM104.07 127.07l.76.36 2.2-4.74-.75-.36.48-1.05 2.52 1.19c2.4 1.14 3.23 3.1 2.27 5.17-.97 2.09-2.97 2.85-5.57 1.61l-2.4-1.13.5-1.05zm2.56 1.21c1.71.81 3.05.28 3.73-1.19.7-1.5.05-2.8-1.61-3.59l-.58-.27-2.2 4.74.66.31zM113.08 128.3c.54-2.15 2.46-3.42 4.63-2.87 2.15.55 3.2 2.58 2.67 4.72-.53 2.16-2.46 3.42-4.62 2.87-2.16-.55-3.21-2.58-2.68-4.72zm6.03 1.53c.39-1.52-.35-2.88-1.72-3.23-1.38-.35-2.66.48-3.04 2.02-.38 1.53.35 2.88 1.73 3.24 1.37.35 2.65-.49 3.03-2.03zM122.02 130.37a3.81 3.81 0 014.08-3.68c1.7.1 2.79 1.08 2.73 1.99-.03.55-.4.9-.85.88-.5-.03-.83-.37-.8-.86 0-.15.05-.3.1-.39-.2-.18-.61-.38-1.28-.42-1.43-.08-2.59.98-2.68 2.55-.08 1.51.87 2.78 2.42 2.87.86.05 1.58-.3 2.16-.88l.79.95a3.9 3.9 0 01-3.02 1.13 3.72 3.72 0 01-3.65-4.14zM131.83 133.15l.9-.1-.56-5.24-1.35.14.13 1.2-1.19.12-.25-2.3 6.33-.7.25 2.3-1.18.14-.13-1.2-1.35.16.56 5.24.91-.1.13 1.16-3.07.33-.13-1.15zM137.36 129.85c-.61-2.13.41-4.2 2.55-4.84 2.13-.63 4.07.59 4.68 2.7.61 2.13-.41 4.2-2.55 4.84-2.13.63-4.06-.58-4.68-2.7zm5.98-1.76c-.44-1.51-1.75-2.31-3.11-1.91-1.37.4-2.05 1.78-1.61 3.3.44 1.51 1.75 2.31 3.12 1.9 1.35-.4 2.04-1.77 1.6-3.3zM147.15 129.44l.75-.38-2.33-4.69-.75.38-.51-1.03 2.54-1.3c1.5-.76 2.91-.63 3.6.74.44.87.25 1.8-.32 2.47l1.91 1.33.75-.38.52 1.03-1.52.77-2.59-1.9c-.13.08-.26.16-.39.22l-.54.26.75 1.53.82-.42.52 1.04-2.7 1.36-.5-1.03zm2.15-5.64c-.35-.72-1.09-.77-2-.3l-.6.3 1.08 2.17c.12-.05.28-.12.64-.3.85-.43 1.24-1.17.88-1.88zM156.42 124.17l.65-.53-3.25-4.08-.65.53-.72-.9 2.3-1.88c1.23-.99 2.74-1.03 3.7.17 1.08 1.36.67 2.77-.67 3.87l-.57.44.84 1.06.72-.58.72.9-2.35 1.9-.72-.9zm1.01-5.86c-.49-.62-1.3-.62-2.01-.05l-.62.5 1.7 2.13.65-.5c.74-.6.84-1.38.28-2.08zM162.1 119.4l.57-.62-3.84-3.53-.56.62-.85-.78 1.91-2.12c1.14-1.26 2.5-1.65 3.62-.62.72.66.87 1.6.58 2.42l2.26.54.56-.62.85.78-1.14 1.26-3.1-.83-.28.35-.41.44 1.24 1.14.62-.68.85.78-2.03 2.25-.84-.78zm0-6.04c-.57-.53-1.28-.32-1.96.44l-.46.5 1.78 1.64.5-.52c.63-.7.73-1.53.15-2.06zM165.26 111.9a3.77 3.77 0 01-1.29-5.32c1.18-1.9 3.42-2.29 5.27-1.12a3.78 3.78 0 011.3 5.32c-1.19 1.9-3.43 2.3-5.28 1.12zm3.3-5.32c-1.33-.84-2.84-.55-3.59.66-.75 1.23-.36 2.7.98 3.55 1.32.83 2.83.54 3.58-.68.75-1.21.35-2.7-.98-3.53zM171.6 104.98c-.54-.22-.77-.7-.58-1.15.15-.39.6-.57.99-.41.23.1.38.3.43.45.25-.04.5-.26.71-.76.11-.28.14-.56.04-.8-.14-.32-.46-.56-.97-.77l-3.58-1.48-.41 1.03-1.07-.44 1.19-2.93 1.06.44-.3.75 3.58 1.48c.8.33 1.35.82 1.58 1.37.24.56.2 1.18-.05 1.8-.47 1.18-1.63 1.83-2.61 1.42zM174.71 98.64l.2-.82-5.03-1.27-.2.82-1.12-.27 1.32-5.37 2.07.52-.29 1.18-.97-.24-.52 2.13 1.94.48.54-2.17 1.06.26-.53 2.18 2.05.52.53-2.15-.98-.24.3-1.18 2.07.52-1.32 5.38-1.12-.28zM173.8 91.29a3.82 3.82 0 01-3.55-4.22c.15-1.71 1.15-2.78 2.04-2.7.55.04.9.42.85.88-.04.5-.38.83-.87.79a.95.95 0 01-.38-.11c-.19.2-.4.6-.45 1.28-.12 1.44.9 2.63 2.45 2.76 1.5.13 2.77-.8 2.9-2.36.08-.86-.25-1.6-.8-2.2l.95-.77c.75.79 1.14 1.9 1.05 3.08-.2 2.27-1.87 3.77-4.2 3.57zM176.8 81.46l-.08-.92-5.2.44.11 1.36 1.18-.1.1 1.2-2.3.2-.52-6.41 2.3-.2.1 1.2-1.19.1.12 1.38 5.2-.44-.07-.92 1.14-.1.26 3.12-1.15.1zM87.42 65.12l.45-.82-4.99-2.76-.45.83-1.1-.6 1.64-3.04 1.1.6-.52.97 5 2.76 1.08-2-1.01-.56.65-1.2 2.11 1.16-2.85 5.28-1.11-.62zM91.45 58.2l.6-.8-4.52-3.47-.6.8-1-.77 2.05-2.74 1 .77-.6.8 4.53 3.48.6-.8 1 .77-2.06 2.73-1-.77zM93.44 48.96l2.98 3.27.75-.7.85.93-2.45 2.28-.85-.94.69-.63-3.85-4.23-.69.64-.85-.94 1.57-1.45 6.46 1.06-2.63-2.89-.76.7-.85-.94 2.42-2.24.85.93-.66.61 4.71 5.17-.54.54-7.15-1.17zM101.2 44.37a4.26 4.26 0 011.65-5.88c1.66-.95 3.26-.71 3.75.15.3.53.16 1.08-.28 1.34-.5.27-1 .16-1.26-.3-.08-.15-.13-.31-.14-.43-.3-.04-.8.03-1.45.4-1.39.8-1.85 2.48-1 3.98.8 1.45 2.45 2.02 3.96 1.16a3.17 3.17 0 001.51-2.13l1.3.39a4.45 4.45 0 01-2.16 2.89c-2.2 1.26-4.61.67-5.88-1.57zM110.22 39.49a4.16 4.16 0 012.84-5.34c2.38-.72 4.53.59 5.22 2.9a4.16 4.16 0 01-2.84 5.34c-2.37.72-4.53-.59-5.22-2.9zm6.67-2.02c-.5-1.65-1.96-2.5-3.47-2.05-1.53.46-2.3 1.98-1.8 3.64.5 1.65 1.96 2.51 3.48 2.05 1.52-.46 2.28-1.98 1.79-3.64zM121.23 39.53l.93-.08-.46-5.71-.94.07-.1-1.27 3.42-.28.1 1.27-1.08.09.47 5.73 2.25-.18-.1-1.17 1.36-.11.2 2.42-5.95.5-.1-1.28zM131.97 34.83l-.53 4.4 1.01.13-.15 1.27-3.3-.41.15-1.26.92.1.7-5.69-.94-.11L130 32l2.12.26 3.38 5.65.47-3.9-1.01-.12.15-1.26 3.27.4-.16 1.26-.89-.11-.84 6.97-.76-.07-3.75-6.25zM139.57 40.1c.19-.57.64-.82 1.13-.65.52.18.72.68.59 1.06-.07.2-.15.33-.27.44.21.3.6.58 1.11.76.85.3 1.52.1 1.75-.58.22-.64-.32-1.17-1.01-1.72-1.26-1.02-2.12-1.83-1.63-3.29.42-1.25 1.76-1.88 3.32-1.34 1.46.5 2.32 1.64 2 2.58-.19.56-.64.77-1.09.61a.86.86 0 01-.37-1.43c-.16-.2-.46-.43-.94-.6-.77-.26-1.35-.02-1.54.55-.22.64.33 1.15 1.01 1.7 1.23.99 2.11 1.84 1.62 3.3-.5 1.48-1.94 1.93-3.53 1.38-1.53-.53-2.47-1.83-2.15-2.78zM146.95 43.26l.8.49 2.92-4.93-.8-.48.64-1.1 2.9 1.75-.65 1.1-.88-.54-1.11 1.88 3.25 1.97 1.11-1.89-.88-.53.65-1.09 2.9 1.75-.65 1.09-.8-.49-2.92 4.93.8.48-.65 1.1L150.7 47l.65-1.09.88.53 1.17-1.98-3.26-1.96-1.17 1.98.88.53-.65 1.09-2.89-1.74.65-1.1zM155.74 49.04l.75.66 3.73-4.32-.75-.66.83-.96 2.57 2.26-.83.95-.75-.66-3.73 4.33.75.66-.83.96L154.9 50l.83-.96zM159.83 52.68l.6.73 4.37-3.67-.6-.72.97-.82 2.03 2.47c1.2 1.46 1.45 3.03.16 4.1-.82.7-1.85.71-2.7.25l-.91 2.42.6.72-.97.82-1.22-1.47 1.35-3.3-.34-.36-.42-.53-1.42 1.19.65.79-.96.81-2.16-2.61.97-.82zm6.56 1c.66-.56.52-1.37-.2-2.26l-.49-.59-2.02 1.7c.08.13.2.3.5.64.67.82 1.55 1.06 2.2.5zM165.3 59.68l.46.83 4.98-2.76-.45-.83 1.1-.6 2.95 5.41-2.06 1.14-.64-1.19.96-.53-1.17-2.15-1.92 1.06 1.19 2.2-1.05.58-1.2-2.2-2.03 1.13 1.18 2.16.96-.53.65 1.19-2.06 1.14-2.94-5.44 1.1-.6zM174.56 70.34c0 .92-.74 1.66-1.64 1.66-.9 0-1.64-.74-1.64-1.66 0-.91.73-1.65 1.64-1.65.9 0 1.64.74 1.64 1.66zM84.02 70.9c0 .91-.74 1.65-1.64 1.65-.91 0-1.64-.74-1.64-1.65 0-.92.73-1.66 1.64-1.66.9 0 1.64.74 1.64 1.66z"/>
  <path fill="#000" d="M113.2 85.97c-7.58-.68-13.13.07-16.52 2.22-2.72 1.73-3.3 3.95-3.42 5.13v.64h21.88c.01-2.8.04-5.66.07-7.74-.75-.1-1.41-.2-2.02-.25zM115.86 118.83h16.05a7.1 7.1 0 007.07-7.14V96.54c-16.46 3.29-21.14 13.9-23.12 22.29zM140.15 46.55H124.1c-3.9 0-7.07 3.2-7.07 7.13v15.15c16.46-3.28 21.13-13.9 23.12-22.28zM140.94 71.42v7.8l.43.04 1.44.14c17.13 1.7 19.65-4.43 19.93-7.17v-.81h-21.8z"/>
  <path fill="#000" d="M142.76 79.97l-1.44-.15-.94-.1s-.04-24.3-.13-31.33l-.02.1c-4.02 14.1-13.72 19.2-23.2 21-.1 0-.2.03-.28.05l-.29.05a48.27 48.27 0 01-5.57.66c-1.22.09-2.41.14-3.56.16a593.59 593.59 0 01-14.07.13v20.6c1.2-2.7 4.74-5.98 14.84-5.98 1.55 0 3.26.08 5.14.25.68.06 1.43.16 2.3.3l.23.03v.25c-.02 1.16-.11 23.97-.02 31l.03-.1c4.02-14.1 13.72-19.19 23.2-21 .1 0 .19-.03.28-.05l.28-.05a51.08 51.08 0 015.57-.66c1.22-.09 2.42-.14 3.57-.16a569.26 569.26 0 0114.06-.13V74.38c-1.39 3.1-5.88 7-19.98 5.59zm-15.73-4.1c.42-.52.88-1.03 1.35-1.56 1.12.92 1.97 1.75 2.47 2.88.42.95.45 1.89-.06 2.83-.3.58-.64 1.16-.86 1.78-.3.85-.56 1.73-.76 2.62-.09.37-.26.49-.55.42-.25-.05-.66-.18-.68-.31a10.06 10.06 0 00-1.48-4.06c-.99-1.72-.57-3.19.57-4.6zM132 85.2c.37 0 .62.07.6.53-.01.43-.25.47-.58.47H125.08c-.34 0-.62-.02-.62-.5 0-.47.26-.5.61-.5H132zm-8.85-.06c-.6-.25-1.1-.38-1.55-.66-1.1-.68-1.13-2.17-.09-2.97a3.17 3.17 0 014.23.39 4.04 4.04 0 011.15 2.86c-.53.17-.91.19-1.2-.47-.31-.76-1.26-1.03-2-.69-.5.23-.66.6-.54 1.54zm1.57 3.65c-.63-.06-1.13-.48-1.14-1-.02-.68.47-.87 1.11-1.04-.02.57.24.77.7.78.47.02.81-.11.98-.6.07-.18.25-.31.43-.42.15 1.43-.8 2.41-2.08 2.28zm5.02-.58c-.18.67-.69 1.25-1.1 1.95-1.09-1.1-1.64-1.83-1.13-3.2.12-.32.24-.48.57-.45.44.04 1.1-.1 1.27.13.3.41.5 1.1.39 1.57zm2.57.58c-1.23.12-2.08-.73-2.19-2.42.27.24.5.35.54.5.17.53.52.76 1.01.64.3-.07.56-.33.84-.5v-.22c.51.14 1 .34.97 1.03-.02.5-.53.91-1.17.97zm2.63-4.02c-.29.12-.6.18-.97.3.05-.95-.15-1.33-.73-1.52-.73-.23-1.6.06-1.9.78-.27.65-.67.56-1.22.45.11-1.43.64-2.59 1.84-3.36 1.02-.65 2.08-.78 3.18-.16.75.42 1.2 1 1.16 1.9-.05.88-.64 1.31-1.36 1.61z"/>
</svg>
