<svg xmlns="http://www.w3.org/2000/svg" fill="none" viewBox="0 0 256 166">
  <path fill="#95BCD1" d="M0 0h256v166H0z" opacity=".1"/>
  <path fill="#111" d="M58.72 80.69v8.07c0 .64.04 1.12.17 1.34.05.12.22.21.52.25.26.13.82.22 1.69.26.82.05 1.99.13 3.45.13v.35H49v-.35c1.21 0 2.25-.04 3.02-.13a6.62 6.62 0 001.6-.26c.26-.08.44-.21.52-.25.13-.18.17-.6.17-1.34V70.29c0-.65-.04-1.08-.17-1.3-.04-.13-.17-.17-.43-.26-.65-.26-2.29-.38-4.67-.38V68H63c2.85 0 5.1.65 6.74 1.94a5.85 5.85 0 012.33 4.84 5.2 5.2 0 01-1.77 3.75c-1.51 1.38-3.5 2.07-6 2.07h-5.58v.09zm0-.35h3.63c1.99 0 3.41-.52 4.2-1.55.68-.9.99-2.29.99-4.23 0-2.07-.44-3.58-1.34-4.62-.91-1.08-2.25-1.55-4.15-1.55h-1.73c-.52 0-.9.04-1.12.13a.55.55 0 00-.44.43c0 .22-.04.65-.04 1.38v10.01zM76.13 83.75c0 2.55.26 4.45.91 5.57a2.97 2.97 0 002.81 1.72 4.9 4.9 0 003.46-1.33 5.63 5.63 0 001.85-4.4h.26c0 1.76-.56 3.27-1.72 4.4a6.16 6.16 0 01-4.58 1.72c-1.6 0-3.07-.6-4.37-1.85a7.29 7.29 0 01-2.33-5.61c0-2.5.78-4.58 2.29-6.13a6.34 6.34 0 014.53-2.07 5.5 5.5 0 013.85 1.34c1.51 1.33 2.29 3.5 2.29 6.56h-9.2v.08h-.05zm6.14-.39c0-2.33-.22-4.05-.6-5.3-.4-1.21-1.09-1.86-2-1.86-1.29 0-2.24.56-2.72 1.73-.56 1.16-.77 2.93-.77 5.39h6.09v.04zM93.03 82.37v7.08c0 .52.04.77.13.95.04.04.17.17.34.21.18.05.52.13.95.18.44.04.91.04 1.21.04v.34H86.5v-.34c.52 0 1.08 0 1.56-.04.52-.05.95-.18 1.38-.26.17-.13.22-.43.22-1.08V78.53v-.65c0-.21-.05-.39-.17-.52l-.22-.34c-.22-.17-1.17-.26-2.72-.26v-.34l6.48-.57v4.58c.17-1 .43-1.94.95-2.72.65-1.12 1.38-1.68 2.12-1.77.73-.04 1.2-.13 1.46-.13 1.52 0 2.68.43 3.6 1.38a3.85 3.85 0 011.11 2.72v9.54c0 .52.05.77.13.95.05.04.18.17.35.21.17.05.56.13 1.08.18.52.04 1 .04 1.47.04v.34h-9.2v-.34c.38 0 .82 0 1.34-.04.51-.05.95-.18 1.33-.26.18-.13.22-.43.22-1.08V80.3c0-1.17-.13-1.99-.26-2.63-.34-1-.9-1.51-1.73-1.51-1.12 0-1.98.64-2.68 2.07a9.97 9.97 0 00-1.3 4.14zM116.06 83.54v1.68c0 .56 0 1.08.04 1.55 0 1.69-.17 2.85-.56 3.45-.52.82-1.56 1.3-3.07 1.3-1.47 0-2.5-.35-3.2-1.08-.64-.69-.99-1.68-.99-2.93V77.32h-2.85v-.34a6.82 6.82 0 004.45-3.41 10.15 10.15 0 001.2-4.84h.61v7.6h4.15v1.08h-4.15v9.75c0 1.3.05 2.12.18 2.5.21.91.77 1.34 1.55 1.34.95 0 1.6-.52 1.9-1.55.22-.74.35-2.07.35-4.06v-1.72h.34v-.13h.05zM126.25 80.73v-2.11c0-.95-.17-1.6-.43-1.95-.26-.34-.95-.51-1.94-.51-.82 0-1.56.17-2.16.51-.6.35-1 .74-1.21 1.3.13 0 .21-.04.34-.04.44 0 .82.17 1.13.56.26.34.43.77.43 1.2 0 .52-.17.95-.56 1.3-.35.34-.78.52-1.3.52-.34 0-.6-.13-.82-.22-.73-.43-1.08-1-1.08-1.72 0-.35.04-.74.22-1.17.34-.95 1.16-1.6 2.5-2.07a8.42 8.42 0 012.9-.43c1.77 0 3.1.34 4.02.99.82.6 1.2 1.34 1.2 2.24v7.9c0 1.47.05 2.33.13 2.68.18.82.6 1.2 1.3 1.2.6 0 1.08-.34 1.3-.94.21-.65.34-1.56.34-2.8v-1V84.74h.44v1.56c0 .52 0 .99.04 1.47 0 1.38-.17 2.33-.52 2.8-.43.6-1.34.9-2.64.9-1.08 0-1.77-.17-2.29-.55-.6-.44-.99-1.17-1.16-2.16a4.18 4.18 0 01-2.3 2.33 7.2 7.2 0 01-2.41.34c-1 0-1.9-.21-2.64-.73-1-.65-1.55-1.6-1.55-2.94 0-1.29.52-2.41 1.5-3.27 1-.82 2.25-1.34 3.64-1.47 1.47-.13 2.42-.35 2.9-.56.43-.22.68-.82.68-1.73zm-.08 6.52v-4.8c-.26.4-.74.61-1.3.74s-1.12.17-1.6.22c-.64.17-1.2.56-1.68 1.16a5.13 5.13 0 00-.74 3.02c0 1.38.13 2.33.4 2.85.25.52.73.73 1.29.73.9 0 1.73-.38 2.46-1.12a3.92 3.92 0 001.17-2.8zM137.01 85.09a4.72 4.72 0 01-1.77-1.51 3.87 3.87 0 01-.65-2.29c0-1.5.65-2.85 2.08-3.88a6.7 6.7 0 015.66-1.3c.52.13.95.26 1.38.43v-.82c0-1.12.22-1.85.6-2.24.4-.34 1-.52 1.78-.52.34 0 .64.13.95.4.26.2.39.55.39.94 0 .82-.4 1.3-1.17 1.3-.82 0-1.21-.4-1.21-1.17 0-.17 0-.26.04-.39.05-.13.13-.21.17-.39-.51.05-.77.26-.94.6a3.2 3.2 0 00-.22 1.39c0 .52.04.9.04 1.12a6.21 6.21 0 012.25 1.77c.56.73.78 1.6.78 2.55 0 1.46-.65 2.67-2.08 3.58a7.41 7.41 0 01-4.19 1.3 8.29 8.29 0 01-3.1-.57c-.83 0-1.52.13-2 .39-.65.34-1 .95-1 1.77 0 .34.27.6.92.82.56.21 1.68.34 3.32.34h2.08c2.12 0 3.76.26 4.84.82 1.38.74 2.07 1.9 2.07 3.59 0 1.77-.6 3.1-1.9 4.05a8.05 8.05 0 01-4.93 1.47c-2.42 0-4.36-.39-5.79-1.2-1.47-.79-2.16-1.73-2.16-2.73 0-.64.4-1.2 1.17-1.68.56-.35 1.38-.6 2.55-.95a7.18 7.18 0 01-2.33-1.2 3.14 3.14 0 01-1.08-2.34c0-1 .26-1.85.9-2.46.6-.73 1.43-1 2.55-1zm4.28 13.25c1.6 0 2.85-.35 3.76-1a2.95 2.95 0 001.34-2.45c0-1.17-.39-1.95-1.13-2.33-.73-.4-2.07-.6-4.01-.6-2.25 0-3.8.25-4.63.77-.64.43-1.08 1.16-1.08 2.24 0 1 .26 1.77.83 2.29.99.69 2.59 1.08 4.92 1.08zm2.6-17.4c0-1.5-.22-2.67-.61-3.4-.43-.9-1.3-1.34-2.47-1.34-1.07 0-1.85.43-2.33 1.3-.52.81-.73 1.98-.73 3.45 0 1.68.21 2.89.6 3.62.4.74 1.21 1.08 2.47 1.08 1.12 0 1.85-.39 2.33-1.12.52-.78.73-1.94.73-3.58zM152.74 78.23c0-.52-.04-.78-.17-.9a1.92 1.92 0 00-.44-.44c-.43-.13-1.38-.17-2.93-.17v-.35l6.91-.56v4.58c.13-1 .43-1.9 1-2.81.77-1.16 1.77-1.77 2.93-1.77.43 0 .95.17 1.47.43s.9.65 1.08 1.12c.17.44.26.82.26 1.21 0 .95-.39 1.6-1.17 1.94-.17.13-.43.18-.77.18-.52 0-.91-.18-1.21-.52-.35-.35-.52-.82-.52-1.51 0-.43.17-.82.52-1.3.34-.43.73-.6 1.12-.51-.17-.52-.56-.78-1.3-.78-.64 0-1.38.52-2.07 1.51-.9 1.3-1.34 2.93-1.34 5v6.7c0 .51.04.77.13.94.04.05.17.18.35.22.51.17 1.55.26 3.1.26v.34h-10.5v-.34c.66 0 1.35 0 1.9-.04.57-.05 1.09-.18 1.48-.26.17-.13.21-.43.21-1.08v-11.1h-.04zM172.62 80.73v-2.11c0-.95-.18-1.6-.44-1.95-.26-.34-.95-.51-1.94-.51-.82 0-1.56.17-2.16.51-.6.35-1 .74-1.21 1.3.13 0 .22-.04.34-.04.44 0 .83.17 1.13.56.26.34.43.77.43 1.2 0 .52-.17.95-.56 1.3-.35.34-.78.52-1.3.52-.34 0-.6-.13-.82-.22-.73-.43-1.08-1-1.08-1.72 0-.35.04-.74.22-1.17.34-.95 1.16-1.6 2.5-2.07a8.42 8.42 0 012.9-.43c1.77 0 3.1.34 4.02.99.82.6 1.2 1.34 1.2 2.24v7.9c0 1.47.05 2.33.14 2.68.17.82.6 1.2 1.3 1.2.6 0 1.07-.34 1.29-.94.21-.65.34-1.56.34-2.8v-1V84.74h.44v1.56c0 .52 0 .99.04 1.47 0 1.38-.17 2.33-.52 2.8-.43.6-1.34.9-2.63.9-1.09 0-1.78-.17-2.3-.55-.6-.44-.99-1.17-1.16-2.16a4.18 4.18 0 01-2.3 2.33 7.2 7.2 0 01-2.41.34c-1 0-1.9-.21-2.64-.73-1-.65-1.55-1.6-1.55-2.94 0-1.29.52-2.41 1.51-3.27 1-.82 2.25-1.34 3.63-1.47 1.47-.13 2.42-.35 2.9-.56.47-.22.69-.82.69-1.73zm-.13 6.52v-4.8c-.26.4-.74.61-1.3.74s-1.12.17-1.6.22c-.65.17-1.2.56-1.68 1.16a5.13 5.13 0 00-.74 3.02c0 1.38.13 2.33.39 2.85s.73.73 1.3.73c.9 0 1.72-.38 2.46-1.12a3.6 3.6 0 001.17-2.8zM195.21 80.17c.18-1.12.44-1.94.82-2.63.6-1 1.39-1.6 2.47-1.73.17 0 .34 0 .56-.04.21 0 .34-.05.43-.05 1.47 0 2.68.44 3.5 1.39a3.85 3.85 0 011.12 2.71v9.54c0 .43.05.78.13.9.05.14.18.18.35.27.17.04.52.13.95.17.43.04.82.04 1.17.04v.35h-8.47v-.35c.56 0 1 0 1.34-.04.34-.04.64-.17.99-.35.17-.13.22-.43.22-.99v-9.1c0-1.13-.13-1.99-.26-2.64-.35-.99-.91-1.5-1.69-1.5-.82 0-1.55.38-2.12 1.16-.6.9-1.12 2.5-1.46 4.83v7.2c0 .53.04.79.13.96.04.04.17.13.34.21.17.05.43.13.9.18.44.04.83.13 1.22.13v.34h-8.56v-.34c.91 0 1.6-.05 2.12-.26l.26-.13c.17-.13.22-.43.22-1.08v-9.1c0-1.17-.13-2-.26-2.64-.35-1-.91-1.51-1.73-1.51-1.08 0-1.9.65-2.5 2.07a16.4 16.4 0 00-.96 4.14v7.08c0 .52.05.78.13.95.05.04.17.17.35.22.17.04.52.13.95.17.43.04.82.04 1.16.04v.35h-9.16v-.35c.52 0 1 0 1.52-.04s.95-.17 1.38-.26c.17-.13.22-.43.22-1.08V78.5v-.65c0-.22-.05-.39-.18-.52a1.92 1.92 0 00-.43-.43 9.58 9.58 0 00-2.46-.17v-.26l6.48-.6v4.57c.17-1.17.43-2.07.78-2.72.56-1.12 1.38-1.73 2.46-1.86.22 0 .43-.04.6-.04h.4c1.55 0 2.67.43 3.5 1.3.68.77 1.07 1.8 1.07 3.06z"/>
</svg>
