<svg xmlns="http://www.w3.org/2000/svg" width="245.6" height="115.6" viewBox="0 0 65 30.6"><path d="M45.8 30.5c-.9-.2-2.4-1.8-2.8-2.9-.4-1-.4-1-.7-.4-.2.3-.2 1-.2 1.5.2 1.1-.2 1-1-.2-.5-.7-.6-1.2-.6-2.6 0-1.9 0-1.8-3.4-4.8-1-.9-1.4-1.4-1.4-2 0-.3-.4-1-1-1.8-1-1.2-1.3-2-.5-1.3.2.2.8.4 1.4.6.9.2 1.1.4 1.2 1 .2.7.4.8 1.2 1 .8 0 1.7.7 3.4 2 2.7 2.2 3.5 2.4 4.3 1l.6-.9.4 1c.4 1 .4 1.2 0 2.1l-.4 1h1c1.3-.2 1.8-.6 2.2-1.5.2-.7-.3-2-.9-2.3-.2 0-.2-.1.1-.1.9 0 2.2.7 3 1.5.5.7.7 1.1.7 2.2 0 1.8-1.2 3-3.2 3.5-1.4.4-1.5.4-.7.7l1.4.3h.7l-.6.5c-.4.3-1.2.6-1.8.8a4 4 0 01-2.4 0zm-16.5-.7a8 8 0 01-3.8-2c-.8-1-1.2-1-1.2-.4 0 .7-.8-.1-1.4-1.4-.7-1.7-.8-4-.3-5.8.3-1.5.3-1.5-.2-1.4-.4.1-.4 0-.3-.6.2-.8 1.2-2.3 2.1-3.2l.7-.6-.2 2-.2 2 1.5-1.5 1.7-1.3c.1 0 .2.4.1.9-.1 1 0 1.1 1 .4.3-.3.8-.5 1.1-.5.4 0 .4.1-.3 1.2-1 1.6-1.4 3-1.2 4.5.3 1.9 1.8 3.2 3.7 3.2 1 0 3-1.2 3.8-2.3l.8-.8 1.4 1 1.1 1-.7 1.2a11 11 0 01-4.2 4c-1.5.5-3.7.8-5 .4zM1 26.8l1.5-1A5 5 0 004 24.8c.1-.3.2-4 .2-8.5v-8L2.8 7A9.4 9.4 0 01.7 4.4c-1-2-1-2.2.4-1.5 1 .6 1.6.6 8.2.8 6.3.2 7.2.3 8.6.8 3 1.1 5.5 3.3 6.5 5.8l.4 1-1.2.8c-.7.4-1.6 1.2-2 1.6-.6.6-1 .8-1.8.8-.7 0-1-.1-1-.3a6 6 0 00-1.4-3.3c-1-1.1-3-1.8-5.2-1.6h-1.5v12h1.8c1.3 0 2.3 0 3-.3 2-.8 3.3-2.8 3.3-5 0-.9 0-.9 1.4-1l2.2-.4 1-.2-1 1.2c-.4.6-1 1.7-1.1 2.4-.5 1.6-.6 4-.2 3.8.2-.1.3.3.3 1.1 0 1.3 0 1.4-1 2-.6.4-1.7 1-2.5 1.3a112.6 112.6 0 01-16.9.6zm52-.8c.6-1.2.5-2-.2-3.4l-.6-1.2h1.2c2.8-.3 4.3-1.9 4.8-4.7.6-3.5-1-6.5-3.7-7.2a11 11 0 00-4.4-.1c0 .1-.5.2-1 .1-.5 0-1.5.1-2.2.3l-1.3.2c.2-.4 0-.3-.9.1l-.7.4-.2-1.1c-.2-1-.5-1.4-1.7-2.6-1.3-1.2-2.9-3.8-2.6-4.2a26.7 26.7 0 009.1 1c7.9.3 9.2.6 11.9 2.5 5.4 4 6 12.5 1.2 17.3-2 2-5.5 3.5-8.3 3.5h-.7zM48 22.7c0-1 0-1 .4-.8.2.2.4.5.4.8 0 .3-.2.6-.4.8-.4.3-.4.2-.4-.8zm-4-1.4v-2.5c0-2 0-2.3.7-3 1-1.1 2.2-1.4 3.4-1 .7.4 1.1.4 1.3.2l.6-.2c.3 0 .3.6.3 2.7v2.7l-1.9-.2a6.2 6.2 0 01-3-.7l-1-.7.3.8c.3 1.3.3 2-.2 2.2-.3 0-.5 0-.5-.3zm-12-2c.5-.5.4-.8 0-.6-.4 0-.5 0-.2-.4.8-1.5 0-2.7-1.6-2.7-1.2 0-1.3-.3-.2-1.2l.8-.7-.6-.2c-.6-.2-.5-.3.6-.7l1.2-.4-1.3.1c-1.4.2-2.6.7-2.6 1.2 0 .2.2.3.5.3s0 .2-.5.5c-.5.2-1.2.6-1.6 1l-.8.4v-1c0-1-.3-1.4-1.5-1.5h-1l1.7-1c.9-.5 1.6-1 1.6-1.3 0-.2-.2-.7-.6-1l-.6-.7 1 .1 1 .1-.1-1-.2-1.1.6.7 2 1.4 1.8 1.2c.2.2.4.2.4 0 0 0-.3-.5-.8-.9-.6-.5-.8-.8-.8-1.8 0-2 .3-2.3.8-1 .3.5 1.4 1.8 2.5 2.9l1.8 1.5c-.1-.3-.8-1.1-1.5-1.8-1.4-1.3-1.8-2-1.5-3 .2-.5.2-.5.4.3.1.4 1 1.6 2.2 2.7 2 2.2 2.5 2.8 2.5 3.8 0 .8.9 1.7 1.2 1.3 0-.2.2-.3.4-.3.3 0-.3 1.9-.8 2.5-.4.4-.4.4-.7-.2-.3-.5-.7-.7-1.3-.9-.7-.1-.8-.2-.7-.8 0-.6 0-.6-1.7-.6-1 0-1.7.1-1.7.3l.4.2c.3 0 .4.2.3.8-.2.6-.1.9.2 1 .2 0 .4.3.4.4 0 .7 0 1 .5 1 .3.1.2.3-.5.7-1 .7-2 .9-1.4.3zm3.2-6.2c-.5-.7-1-.9-1-.4s.5 1 1 1c.3 0 .3 0 0-.6zm5.1 5.4l-.9-.8 1.3-1.3c1.4-1.6 3.4-2.9 5-3.4.7-.2.9-.3.5-.3-1 0-3.4 1-4.5 2-1.3 1-1.4 1-.5-.4.9-1.4 2.3-2.7 2.3-2.1 0 .6.2.6 1.5-.5 1.2-1 2-1.2 1.4-.5-.4.5 0 .7.9.4 1.2-.4 2.8-.3 4.3.4 1.7.8 2 1.2.8 1.2-.5 0-1.5.2-2.2.5-1 .3-1.6.4-2.2.2-2-.6-3.7.5-5.4 3.4L41.3 19c-.1 0-.6-.2-1-.6zm9.3-8l.3-.3c.3-.1.4 0 .4 0 0 .2-.1.3-.4.3h-.3zM35 8.7c-1-1-1.1-1.3-.9-1.9 1-2.5-1-5-3.2-3.8-.3.2-.7.6-.9 1-.3.7-.8 3.4-.7 3.9 0 0-.2.2-.4.1-.3 0-.8-.7-1.1-1.5l-.9-1.4-.5 1.6-.4 1.5-.3-1.1c-1.1-4 2.6-7.7 7.1-7.1 3.5.4 5.5 2.8 5.2 6C38 7.6 37 10 36.4 10c-.1 0-.8-.5-1.4-1.2z" fill="#111"/></svg>
