<svg width="121" height="72" viewBox="0 0 121 72" fill="none" xmlns="http://www.w3.org/2000/svg">
<path d="M32.4769 63.3595C29.471 56.1925 26.5092 49.1244 23.5099 41.975C26.3354 40.7984 29.1014 39.6087 31.8982 38.4959C33.2779 37.9461 34.6862 37.392 36.1319 37.0995C39.6769 36.3847 42.7619 37.9505 44.2561 41.4362C45.649 44.6887 45.1055 47.5454 42.5617 50.1888C45.3475 51.9943 48.0761 53.7602 50.9499 55.6207C49.1323 56.3772 47.4424 57.0985 45.7326 57.767C45.5345 57.844 45.1869 57.6681 44.9646 57.5251C42.85 56.1661 40.7551 54.774 38.6338 53.4259C38.3368 53.2368 37.8681 53.0653 37.5798 53.1686C36.4906 53.5557 35.4431 54.0615 34.3033 54.5563C35.2539 56.8346 36.1847 59.0667 37.1529 61.389C35.6192 62.0334 34.0855 62.6799 32.4769 63.3595ZM29.9486 44.2005C30.8684 46.3887 31.7067 48.3833 32.5539 50.3977C33.0776 50.1866 33.5155 50.0304 33.938 49.8369C35.518 49.109 37.1793 48.5064 38.647 47.596C40.1104 46.6877 40.3414 45.0142 39.5338 43.4308C38.8891 42.1641 37.3642 41.412 35.9163 41.8914C33.927 42.5511 31.9994 43.3978 29.9486 44.2005Z" fill="black"/>
<path d="M50.5846 31.7754C52.312 31.4697 53.8831 31.1904 55.5863 30.8892C55.8459 32.3252 56.0902 33.6733 56.3322 35.0191C56.9308 38.3531 57.4787 41.698 58.141 45.0187C58.5481 47.0573 60.0819 48.4098 62.0249 48.6824C64.1219 48.9771 66.406 48.0403 67.2356 46.4173C67.8011 45.3134 68.0894 44.1456 67.8474 42.8349C67.042 38.463 66.3268 34.0757 65.5809 29.6928C65.5633 29.5895 65.5875 29.4817 65.6007 29.2376C67.2092 28.9385 68.831 28.6372 70.4923 28.3271C71.0821 31.7116 71.6784 34.9312 72.1911 38.1661C72.4992 40.1058 72.8226 42.063 72.8909 44.0203C73.0207 47.8116 71.3439 50.6199 67.8408 52.2077C64.9185 53.5316 61.851 53.9516 58.7726 52.9422C55.7073 51.9372 53.9359 49.5423 53.2758 46.5185C52.3208 42.1444 51.6452 37.7087 50.8509 33.2972C50.7694 32.842 50.6902 32.3802 50.5846 31.7754Z" fill="black"/>
<path d="M42.9886 4.27063C45.2067 3.79122 47.328 3.27442 49.4691 2.88517C51.1832 2.57509 52.9216 2.25182 54.6534 2.23642C56.7218 2.21883 58.3832 3.27662 59.336 5.1261C60.96 8.27748 60.7377 11.2793 57.5404 13.7885C59.3426 15.7348 61.1536 17.6898 62.9866 19.6713C61.6839 19.9747 60.2778 20.3376 58.8541 20.6059C58.5878 20.6565 58.1962 20.3794 57.9563 20.1529C56.735 19.0027 55.5028 17.8614 54.3607 16.6342C53.6016 15.8184 52.8776 15.3411 51.7289 15.8294C51.2096 16.0493 50.5979 16.0471 49.8893 16.168C50.1446 17.4325 50.3955 18.6245 50.6221 19.823C50.7695 20.6037 51.1854 21.5361 50.9038 22.1277C50.6991 22.5609 49.5571 22.5587 48.8287 22.7281C48.3006 22.8512 47.7615 22.937 47.0265 23.0777C45.6842 16.8278 44.3441 10.5888 42.9886 4.27063ZM49.062 12.5548C49.9224 12.3767 50.6287 12.2293 51.3351 12.0842C52.0832 11.9303 52.838 11.7939 53.5818 11.6224C55.1705 11.2573 56.2553 9.83448 56.0133 8.46441C55.7074 6.73588 54.5214 5.85402 52.6774 6.13551C51.104 6.37522 49.5549 6.76007 47.9485 7.08774C48.3402 9.0076 48.6989 10.7779 49.062 12.5548Z" fill="black"/>
<path d="M98.6387 28.868C100.252 29.1737 101.715 29.4508 103.178 29.7257C104.023 29.8841 104.525 30.2733 104.809 31.1991C105.72 34.1834 106.772 37.1258 107.709 39.9034C109.168 38.5575 110.647 37.2006 112.117 35.8349C112.464 35.5117 112.777 35.1532 113.109 34.8145C113.899 34.0075 114.572 32.7913 115.519 32.5164C116.463 32.2437 117.677 32.9255 118.778 33.1718C119.442 33.3191 120.115 33.4335 121 33.8645C119.739 35.0476 118.452 36.2022 117.222 37.4161C114.63 39.9781 111.998 42.5028 109.547 45.1945C108.946 45.8565 108.961 47.0924 108.735 48.0754C108.257 50.1536 107.806 52.2384 107.333 54.3694C105.623 54.0065 104.03 53.67 102.364 53.3182C102.993 50.4725 103.605 47.7807 104.173 45.0802C104.257 44.6865 104.228 44.2159 104.094 43.8376C102.787 40.1717 101.447 36.5189 100.113 32.8617C99.6333 31.562 99.1536 30.2645 98.6387 28.868Z" fill="black"/>
<path d="M18.8427 72C15.3814 66.887 11.975 61.8598 8.48725 56.7072C6.78628 57.8529 5.08971 58.9591 3.43935 60.1268C2.82322 60.5645 2.52175 60.6062 2.10366 59.8607C1.50513 58.7941 0.726158 57.8287 0 56.7841C2.37872 55.1656 4.69582 53.591 7.01073 52.0142C9.59849 50.2549 12.1907 48.4999 14.7696 46.7296C15.8875 45.9621 15.9095 45.9599 16.6642 47.1145C17.243 47.9963 17.8503 48.8584 18.5412 49.8656C16.6422 51.1675 14.7366 52.4738 12.721 53.8549C13.9466 55.6758 15.1349 57.4527 16.3342 59.223C18.4378 62.3282 20.5547 65.4246 22.6363 68.543C22.7838 68.7629 22.819 69.3237 22.6869 69.4182C21.4503 70.3067 20.1674 71.1248 18.8427 72Z" fill="black"/>
<path d="M80.8742 28.204C82.606 28.204 84.2409 28.204 85.7791 28.204C85.7791 29.7214 85.8341 31.1332 85.7681 32.5407C85.559 37.0006 85.3214 41.4582 85.0529 45.9159C84.9979 46.8198 85.4974 46.822 86.1355 46.8505C89.5727 47.0133 93.0098 47.198 96.4558 47.3761C96.4558 48.8496 96.4558 50.3472 96.4558 51.9614C90.7874 51.6865 85.2862 51.4182 79.8004 51.1521C80.1634 43.3759 80.5177 35.8218 80.8742 28.204Z" fill="black"/>
<path d="M80.0996 2.46072C79.3273 3.5471 78.6143 4.54991 77.9123 5.53952C76.7813 5.02052 75.7713 4.40476 74.6732 4.09908C73.7556 3.84398 72.7302 3.85058 71.7686 3.93415C70.9544 4.00452 70.3779 4.5719 70.3251 5.46475C70.2701 6.3708 70.8246 6.91839 71.5926 7.18888C72.827 7.62432 74.1297 7.88162 75.3378 8.37203C76.6647 8.90862 78.0598 9.44301 79.1732 10.3051C80.8896 11.6356 80.8302 13.6588 80.4077 15.5522C79.917 17.7536 78.3326 19.1083 76.2004 19.5481C72.1977 20.375 68.5185 19.5943 65.3454 16.8145C66.1706 15.8227 66.9782 14.8529 67.7593 13.9139C68.6571 14.4329 69.5087 14.9079 70.3449 15.4115C71.6784 16.212 73.1373 16.1746 74.605 16.0624C75.4874 15.9965 76.1586 15.594 76.3412 14.6748C76.5414 13.6522 76.0661 12.9726 75.1001 12.6538C73.3067 12.06 71.4869 11.5388 69.709 10.9032C67.2576 10.028 66.0672 8.33024 66.0804 5.89359C66.0936 3.39096 67.6317 1.34355 70.0038 0.534265C73.7094 -0.723647 76.9397 0.369329 80.0996 2.46072Z" fill="black"/>
<path d="M18.605 15.0992C19.9209 14.4197 21.0784 13.7314 22.3128 13.2321C22.7441 13.0584 23.4549 13.1882 23.8774 13.4455C26.0207 14.7496 28.1111 16.1438 30.2236 17.4985C30.305 17.5513 30.4282 17.5425 30.6329 17.5799C30.7627 16.0712 30.9035 14.5912 31.0157 13.109C31.1104 11.8687 31.1302 10.6218 31.2754 9.38804C31.3172 9.04277 31.6055 8.60294 31.9091 8.43141C33.0402 7.78926 34.224 7.24167 35.5817 6.56213C35.4607 7.77166 35.3485 8.84045 35.2451 9.90924C34.9392 13.0364 34.6773 16.168 34.3165 19.2864C34.1184 20.9885 35.2891 22.1321 35.859 23.5154C36.3541 24.7205 37.0165 25.8574 37.6458 27.1066C36.3937 27.7421 35.1835 28.3557 33.8896 29.0132C33.0556 27.3749 32.0742 25.8157 31.447 24.1223C30.7979 22.3674 29.4358 21.5581 27.9857 20.707C24.8764 18.8862 21.8001 17.0147 18.605 15.0992Z" fill="black"/>
</svg>
