<svg width="256" height="166" viewBox="0 0 256 166" fill="none" xmlns="http://www.w3.org/2000/svg">
<rect opacity="0.1" width="256" height="166" fill="#95BCD1"/>
<path fill-rule="evenodd" clip-rule="evenodd" d="M170.222 73.0162C170.773 71.8231 171.352 70.8689 171.932 70.1532L173.227 68.8706C173.688 68.4977 174.149 68.2743 174.64 68.2299C175.845 68.2149 176.024 69.6308 175.25 72.4643C174.789 74.2832 173.97 75.9086 172.84 77.3101C172.023 78.3243 171.353 78.9505 170.773 79.2184C170.252 79.4273 169.895 79.4568 169.612 79.3379C169.151 79.0845 168.958 78.3837 169.017 77.1906C169.062 75.9531 169.478 74.5666 170.222 73.0162ZM168.645 81.8285C173.405 81.3212 177.123 78.8161 179.801 74.3732L180.322 73.359C180.322 73.359 181.512 70.675 180.932 68.6322C180.441 66.9773 179.311 66.3505 179.311 66.3505C178.284 65.6497 176.826 65.5308 174.981 65.9332C170.519 66.8278 167.217 69.348 165.164 73.493C164.688 74.1342 164.272 74.9695 163.99 75.9981C163.722 77.0122 163.617 77.9959 163.796 78.8755C164.123 81.1872 165.759 82.1864 168.645 81.8285Z" fill="#111111"/>
<path fill-rule="evenodd" clip-rule="evenodd" d="M158.352 70.63L158.262 70.5556V70.525C157.429 69.064 156.135 68.4227 154.395 68.5122C153.83 68.5567 153.176 68.7661 152.462 69.1685C151.896 69.5114 151.539 69.7498 151.42 69.9737C151.272 70.2571 151.346 70.4361 151.629 70.525C152.462 70.6895 153.026 70.8084 153.295 70.9579C154.128 71.4197 154.499 72.1955 154.485 73.2686C154.499 75.7588 154.038 78.6818 153.086 82.0517C152.551 83.2149 152.908 83.7661 154.128 83.7517L157.52 83.3193C158.829 82.9909 159.513 82.5586 159.572 81.9917L159.602 80.9931C159.632 78.0111 159.483 75.5504 159.186 73.612L159.201 73.4475C160.376 71.1068 161.923 69.7053 163.856 69.1685C164.63 68.9595 165.315 69.1985 165.969 69.8993C166.192 70.0782 166.326 70.1527 166.445 70.0782C166.95 69.9437 167.412 69.4219 167.873 68.5872C168.275 68.0504 168.438 67.3941 168.378 66.6483C168.319 65.6341 167.605 65.1278 166.252 65.1873C163.574 65.3957 160.956 67.2001 158.412 70.5556L158.352 70.63Z" fill="#111111"/>
<path fill-rule="evenodd" clip-rule="evenodd" d="M138.567 59.4469C138.062 58.2982 137.051 57.8214 135.533 58.0598C133.138 58.3882 131.472 58.88 130.513 59.4913C130.312 59.6408 130.363 59.8048 130.728 59.8942C131.598 60.1776 132.238 61.0574 132.706 62.5334C134.759 68.364 135.948 75.5211 136.305 83.9459C136.305 84.8856 136.574 85.5119 137.05 85.7203C138.121 86.3616 139.728 85.9887 141.855 84.6467C143.684 83.4985 145.528 81.9031 147.462 79.8007C149.395 77.7424 150.556 75.7595 150.988 73.9557C151.537 71.8234 150.795 70.3918 148.86 69.7055C147.432 69.2437 145.797 69.3326 143.981 69.9739C142.851 70.3618 141.751 71.0026 140.65 71.8228L140.502 71.7033C140.011 67.0508 139.638 64.2028 139.4 63.1441L139.043 61.2508C138.895 60.4605 138.761 59.8942 138.567 59.4469ZM141.587 82.1415L140.739 73.9701C142.777 72.3896 144.16 72.2552 144.89 73.4928C145.529 74.5664 145.455 76.0719 144.696 78.0113C143.923 79.9647 142.911 81.3512 141.587 82.1415Z" fill="#111111"/>
<path fill-rule="evenodd" clip-rule="evenodd" d="M148.474 85.9444C145.767 89.3587 142.777 92.2667 139.519 94.5774C135.385 97.4999 130.453 99.7511 124.793 101.317C115.883 103.747 107.91 103.747 100.881 101.317L100.569 101.258C100.443 101.333 100.42 101.526 100.472 101.839C101.127 110.756 107.545 116.884 119.802 120.284C124.272 121.507 128.653 121.775 132.944 121.134C137.407 120.463 141.215 118.823 144.383 116.244C147.759 113.455 150.05 109.831 151.165 105.298C152.445 100.303 152.251 94.548 150.601 87.9722L150.377 87.2859C150.287 87.1375 150.199 87.107 150.05 87.1375C149.693 87.182 149.604 87.3759 149.693 87.7488C150.199 89.7766 150.466 91.9833 150.556 94.3096C150.644 97.1871 150.436 99.9017 149.871 102.451C148.384 109.146 144.754 113.708 138.983 116.124C133.36 118.39 127.596 118.703 121.653 117.048C118.418 116.079 115.555 114.738 112.966 112.933C110.84 111.501 109.277 110.041 108.221 108.564C107.627 107.714 107.247 106.984 107.084 106.327L107.165 106.283C109.329 106.506 111.821 106.521 114.625 106.312C119.936 105.94 124.859 104.896 129.314 103.137C134.327 101.139 138.849 98.2312 142.94 94.3835C146.271 91.2076 148.399 88.3745 149.395 85.8849C149.573 85.527 149.573 85.2886 149.365 85.1986C149.142 85.1097 148.949 85.1986 148.859 85.482L148.474 85.9444Z" fill="#111111"/>
<path fill-rule="evenodd" clip-rule="evenodd" d="M65.9257 85.0637C67.5996 85.1976 70.0314 84.7653 73.1328 83.8111L79.2235 82.2456L80.6815 91.7584C81.0161 93.2944 81.3437 94.2036 81.7157 94.4425L82.4441 94.8154L84.3927 94.681C86.8769 94.4425 88.1115 94.0102 88.1115 93.3689L88.0222 92.6387L86.0442 80.4857L92.7821 78.7713L94.1434 87.9717L94.7981 91.1177C95.1626 92.1913 95.7719 92.6837 96.5976 92.5937C98.4794 92.4453 99.7365 92.0874 100.384 91.5795C100.607 91.3861 100.659 91.1471 100.532 90.8043L100.234 90.0885C99.1261 86.8675 98.263 82.7824 97.6163 77.8321L105.366 76.684C101.767 80.4262 100.532 83.6621 101.707 86.3907C102.131 87.4049 102.786 88.1651 103.641 88.568C104.481 88.9404 105.418 89.0148 106.467 88.8064C108.772 88.3735 110.863 86.927 112.774 84.4524C113.853 87.5683 116.061 88.6275 119.438 87.5538C119.602 87.5088 119.706 87.4494 119.706 87.3299C119.713 87.181 119.624 87.002 119.379 86.8675C118.241 86.3457 117.586 85.1087 117.504 83.1998C117.408 82.0067 117.571 80.3812 117.914 78.2639L118.419 75.3414C118.419 74.4611 117.965 74.1633 117.044 74.3722C116.382 74.5206 115.638 74.834 114.864 75.2669C114.165 75.6843 113.704 75.9971 113.444 76.1911C113.243 76.445 112.983 76.9068 112.775 77.6226C111.733 81.172 110.216 83.7661 108.275 85.526C106.891 86.8081 106.14 86.927 106.006 85.8389C105.925 84.9742 106.155 83.9006 106.802 82.573C107.985 79.8294 109.933 77.3692 112.708 75.2074C113.541 74.5956 114.374 74.1338 115.184 73.7759C115.385 73.7009 115.475 73.582 115.475 73.403C115.475 73.1796 115.281 73.0151 114.917 72.9412L112.567 72.8512C108.81 73.0007 103.745 73.7314 97.3041 75.058L97.0064 69.9437C96.9097 65.9325 97.0064 63.0844 97.3041 61.459C97.3934 60.9077 97.2817 60.5348 96.9327 60.3259C96.6425 60.058 96.0401 59.9535 95.2144 60.058C93.5036 60.2369 91.9863 60.6987 90.6625 61.459C90.3797 61.6235 90.2905 61.7424 90.3797 61.8619L90.6031 62.0408L90.9377 62.4882C91.1905 62.7566 91.3765 63.8002 91.4732 65.5596L92.455 76.1761L85.6567 77.9355C85.211 74.834 84.9208 72.031 84.7049 69.5103L84.2736 63.5907C84.3329 62.2637 83.9021 61.6224 83.0016 61.6224C82.2132 61.6224 81.0978 61.8908 79.6623 62.4126C77.9216 63.0394 76.524 63.7847 75.4224 64.6788C75.0734 64.9478 75.0061 65.1712 75.1996 65.3201L75.4748 65.4541L75.6608 65.5291C76.1819 65.693 76.5459 66.1104 76.7174 66.8411C77.417 70.36 78.0039 73.4914 78.4207 76.3245L78.2946 76.3545C72.5225 77.8916 68.2233 79.502 65.3677 81.187C65.3677 81.187 63.836 82.0961 64.0145 83.6177C64.1999 85.1381 65.9257 85.0637 65.9257 85.0637ZM78.8964 79.681C74.5529 80.8141 71.786 81.4998 70.5295 81.6493C69.5701 81.8727 69.0565 81.8133 69.0122 81.4554C68.9753 81.232 69.3842 80.8886 70.2174 80.4412C72.5823 79.1886 75.3492 78.2044 78.525 77.4292L78.5768 77.3842L78.8964 79.681Z" fill="#111111"/>
<path fill-rule="evenodd" clip-rule="evenodd" d="M133.407 71.51C132.06 71.7334 130.878 72.0163 129.866 72.3897C126.705 73.7017 125.017 75.0738 124.794 76.5948C124.697 77.0571 124.735 77.5195 124.883 77.9368C125.106 78.4887 125.477 78.8465 125.999 79.0549C126.765 79.3384 128.571 79.8302 131.51 80.5459C133.302 80.9938 134.328 81.6501 134.478 82.5738C135.311 84.6916 134.373 87.1817 131.688 89.9548C129.896 91.9526 128.304 93.3691 126.891 94.2638C125.745 94.9651 124.458 95.5164 122.949 95.8743C121.178 96.2916 119.572 95.4275 118.144 93.2502L117.675 92.5494C117.408 92.1915 117.296 91.9087 117.318 91.6992C117.363 91.4908 117.489 91.3863 117.72 91.3563L118.144 91.4313C118.278 91.5508 118.464 91.6697 118.738 91.7586C120.122 92.3405 121.475 92.176 122.837 91.2074C124.124 90.2532 125.343 89.1345 126.525 87.8225L127.932 85.9886L128.548 84.766C128.846 83.9458 128.846 83.26 128.548 82.7832C128.094 82.0819 126.949 81.6346 125.195 81.4556L125.328 81.4406C124.31 81.2767 123.163 81.0683 121.84 80.7104C120.769 80.442 120.092 79.9352 119.802 79.2194C118.88 76.6403 120.062 74.0452 123.35 71.4205C125.79 69.3782 127.932 68.1401 129.843 67.7228C131.799 67.3204 133.004 68.1851 133.406 70.3179L133.539 71.4211L133.407 71.51Z" fill="#111111"/>
</svg>
