<svg width="256" height="166" viewBox="0 0 256 166" fill="none" xmlns="http://www.w3.org/2000/svg">
<rect opacity="0.1" width="256" height="166" fill="#95BCD1"/>
<path d="M185.579 72.9231L185.58 72.9231C185.636 72.923 185.692 72.9256 185.747 72.9309C185.724 73.0208 185.71 73.1131 185.705 73.2063C185.696 73.3918 185.725 73.5774 185.791 73.7511C185.858 73.9248 185.959 74.0831 186.09 74.2154C186.22 74.3478 186.377 74.4513 186.551 74.5188C186.724 74.5863 186.91 74.6162 187.096 74.6062C187.183 74.6016 187.268 74.5884 187.351 74.5671C187.357 74.625 187.359 74.6832 187.359 74.7415C187.359 75.2261 187.17 75.6892 186.835 76.0295C186.5 76.3696 186.048 76.5591 185.579 76.5591C185.109 76.5591 184.657 76.3696 184.322 76.0295C183.987 75.6891 183.798 75.2258 183.798 74.7411C183.798 74.2564 183.987 73.7931 184.322 73.4527C184.657 73.1126 185.109 72.9231 185.579 72.9231Z" fill="#111111" stroke="#111111"/>
<path d="M115.368 89.9517L115.376 89.946L115.384 89.9401C115.901 89.5653 116.286 89.0351 116.487 88.4265C116.584 88.1583 116.643 87.7808 116.681 87.3349C116.72 86.8715 116.739 86.292 116.739 85.6024V79.0078H119.31V84.641V84.6415C119.312 87.1743 119.112 88.8094 118.762 89.6372L118.762 89.6372L118.758 89.6469C118.37 90.6211 117.699 91.45 116.836 92.0231C115.845 92.6158 114.707 92.9056 113.559 92.8586L113.55 92.8582L113.54 92.8582C112.054 92.8558 110.905 92.5189 110.049 91.8923C109.156 91.2243 108.503 90.2746 108.194 89.1894L108.192 89.182L108.19 89.1747C107.937 88.381 107.794 86.856 107.794 84.5346V79.0078H110.418V85.4575C110.371 86.4525 110.468 87.4493 110.705 88.4159L110.709 88.433L110.715 88.4498C110.906 89.0448 111.279 89.5639 111.782 89.9314L111.788 89.9358L111.794 89.9401C112.318 90.2993 112.939 90.4845 113.572 90.4688C114.209 90.4864 114.836 90.3057 115.368 89.9517Z" fill="#111111" stroke="#111111"/>
<path d="M123.182 79.009H123.682V78.509V73.6738H126.257V78.509V79.009H126.757H128.377V81.1364H126.757H126.257V81.6364V92.487H123.682V81.6364V81.1364H123.182H121.85V79.009H123.182Z" fill="#111111" stroke="#111111"/>
<path d="M130.896 73.4165H133.467V92.4805H130.896V73.4165Z" fill="#111111" stroke="#111111"/>
<path d="M146.585 80.4485L147.457 81.3683L147.448 80.1011L147.441 79.0086H150.012V92.4752H147.437V91.4552V90.2365L146.581 91.104C146.021 91.6714 145.363 92.1283 144.641 92.4517C143.981 92.728 143.273 92.8664 142.56 92.859L142.56 92.859L142.555 92.859C141.727 92.8591 140.908 92.6806 140.153 92.335C139.397 91.9894 138.722 91.4845 138.172 90.8531L138.172 90.853L138.163 90.8431C136.906 89.477 136.23 87.6606 136.283 85.7883L136.283 85.7883V85.7742C136.283 83.643 136.898 81.9377 138.098 80.6153L138.098 80.6154L138.105 80.6066C138.65 79.9781 139.32 79.477 140.072 79.1371C140.823 78.7973 141.637 78.6265 142.459 78.6361L142.459 78.6362L142.468 78.6362C143.223 78.6321 143.972 78.7857 144.667 79.0877C145.387 79.4099 146.039 79.872 146.585 80.4485ZM146.367 89.1825L146.498 89.0392V89.0269C146.861 88.5897 147.146 88.0909 147.338 87.5531C147.55 86.9596 147.646 86.3299 147.621 85.6994C147.639 85.0846 147.539 84.4718 147.326 83.8953C147.111 83.3128 146.785 82.7786 146.366 82.3234L146.366 82.3233L146.36 82.3167C145.948 81.8849 145.45 81.5452 144.9 81.3201C144.354 81.0969 143.769 80.9914 143.18 81.0104C142.597 80.9977 142.018 81.1111 141.481 81.3429C140.94 81.5768 140.455 81.9256 140.059 82.3653L140.058 82.367C139.234 83.2892 138.797 84.4986 138.835 85.7399C138.796 87.0003 139.243 88.2279 140.085 89.1595C140.479 89.6011 140.962 89.9526 141.501 90.1899C142.038 90.4258 142.618 90.5432 143.203 90.5341C143.793 90.5486 144.38 90.4362 144.924 90.2045C145.471 89.9714 145.963 89.6228 146.367 89.1825Z" fill="#111111" stroke="#111111"/>
<path d="M155.655 87.1859V92.4869H153.08V79.0089H155.655V80.0023V81.1355L156.492 80.3717C157.108 79.8098 157.804 79.3477 158.558 79.0013C159.136 78.7617 159.754 78.6379 160.378 78.6365L160.376 78.1365L160.385 78.6364C160.984 78.6257 161.579 78.7401 162.134 78.9727C162.688 79.2054 163.19 79.5516 163.608 79.9901L163.608 79.9902L163.611 79.9931C164.317 80.7217 164.711 81.8354 164.711 83.4223V92.4793H162.178L162.178 86.6416C162.178 86.6414 162.178 86.6412 162.178 86.641C162.178 86.641 162.178 86.6409 162.178 86.6409C162.18 84.9308 162.108 83.7191 161.934 83.0759C161.791 82.4647 161.454 81.9167 160.972 81.5174L160.962 81.5088L160.951 81.5007C160.461 81.1371 159.865 80.9484 159.256 80.9652C158.85 80.9575 158.446 81.0304 158.068 81.1796C157.685 81.3305 157.336 81.5564 157.04 81.844L157.04 81.844L157.035 81.8489C156.41 82.4741 155.987 83.2766 155.821 84.1498L155.819 84.1606L155.817 84.1714C155.673 85.1691 155.618 86.1781 155.655 87.1859Z" fill="#111111" stroke="#111111"/>
<path d="M177.779 80.4481L178.642 81.3584V80.1041V73.4221H181.216V92.4747H178.642V91.4547V90.236L177.786 91.1036C177.226 91.671 176.568 92.1278 175.845 92.4513C175.187 92.7272 174.48 92.8656 173.768 92.8585L173.768 92.8585L173.761 92.8585C172.932 92.8619 172.111 92.6851 171.353 92.3395C170.596 91.9938 169.92 91.4874 169.37 90.8535L169.365 90.8475L169.359 90.8418C168.099 89.4783 167.421 87.6612 167.476 85.7884L167.477 85.7884L167.477 85.7743C167.479 83.643 168.095 81.9374 169.295 80.6149L169.295 80.615L169.303 80.6059C169.846 79.9774 170.516 79.4762 171.267 79.1364C172.018 78.7965 172.831 78.6258 173.652 78.6357L173.652 78.6358L173.661 78.6357C174.417 78.6316 175.166 78.7852 175.861 79.0872C176.581 79.4094 177.232 79.8715 177.779 80.4481ZM177.56 89.1821L177.692 89.0387V89.0263C178.457 88.1044 178.856 86.9252 178.81 85.7189C178.83 85.1036 178.73 84.4903 178.517 83.9135C178.302 83.3306 177.976 82.7962 177.556 82.3414L177.556 82.3414L177.552 82.3376C177.143 81.9036 176.649 81.5609 176.101 81.3321C175.557 81.105 174.972 80.9953 174.383 81.01C173.799 80.9969 173.219 81.1102 172.681 81.3423C172.139 81.5761 171.654 81.9248 171.257 82.3645L171.255 82.3665C170.432 83.2887 169.994 84.4982 170.032 85.7395C169.993 86.9997 170.441 88.2269 171.282 89.1587C171.675 89.6005 172.157 89.9522 172.696 90.1895C173.232 90.4256 173.812 90.543 174.397 90.5336C174.987 90.5481 175.573 90.4358 176.117 90.2041C176.665 89.9709 177.157 89.6224 177.56 89.1821Z" fill="#111111" stroke="#111111"/>
<path d="M195.344 84.6504L195.344 84.6504L195.346 84.6515C196.698 85.3287 197.558 85.9856 198.002 86.6005C198.529 87.3732 198.764 88.3143 198.663 89.2506C198.561 90.1883 198.13 91.0556 197.45 91.6932C196.633 92.4494 195.519 92.851 194.052 92.851H194.044L194.037 92.8512C193.155 92.878 192.28 92.686 191.487 92.2916C190.812 91.9561 190.215 91.4827 189.73 90.9019L191.284 89.1807C191.647 89.534 192.057 89.8367 192.502 90.0802C193.025 90.3916 193.613 90.5718 194.219 90.605L194.219 90.6051L194.223 90.6053C194.744 90.6295 195.256 90.4745 195.678 90.1668C195.869 90.0323 196.027 89.8544 196.137 89.648C196.249 89.4396 196.31 89.2077 196.317 88.9712L196.317 88.9712V88.9582C196.317 88.5118 196.107 88.119 195.79 87.7863C195.477 87.4571 195.032 87.1578 194.485 86.8788L194.484 86.8784L193.281 86.2674C193.281 86.2673 193.281 86.2672 193.281 86.2671C191.059 85.128 190.098 83.7868 190.098 82.2816L190.098 82.2783C190.095 81.795 190.195 81.3169 190.391 80.877C190.586 80.4371 190.873 80.0461 191.231 79.7305L191.231 79.7305L191.236 79.7259C192.054 78.9832 193.122 78.5932 194.216 78.6354L194.227 78.6359L194.237 78.6358C195.069 78.6318 195.89 78.8278 196.633 79.2082C197.253 79.5252 197.804 79.9629 198.256 80.4955L196.698 82.0763C195.901 81.3549 195.091 80.9276 194.271 80.9228C193.835 80.9016 193.405 81.021 193.041 81.2632C192.883 81.3652 192.751 81.5015 192.653 81.6614C192.555 81.8227 192.493 82.004 192.474 82.1919C192.454 82.3797 192.477 82.5698 192.54 82.7478C192.603 82.926 192.705 83.088 192.839 83.2214L192.851 83.2332L192.864 83.2442C193.218 83.552 193.616 83.8041 194.044 83.9919L195.344 84.6504Z" fill="#111111" stroke="#111111"/>
<path d="M211.986 79.9664L211.988 79.9685C212.703 80.7108 213.1 81.8335 213.1 83.4215V92.4975H210.57V86.6612C210.616 85.4832 210.534 84.3037 210.327 83.1437L210.326 83.1346L210.324 83.1255C210.186 82.4935 209.842 81.9258 209.345 81.5159L209.336 81.5077L209.325 81.5C208.83 81.1326 208.227 80.9436 207.613 80.9644C206.792 80.9519 206 81.2637 205.403 81.832L205.403 81.8319L205.395 81.8397C204.779 82.4528 204.358 83.2377 204.185 84.0936L204.182 84.1078L204.18 84.1222C204.035 85.1349 203.981 86.1587 204.018 87.1812V92.4861H201.469V73.4221H204.018V79.9635V81.0843L204.852 80.3356C205.443 79.8049 206.11 79.3696 206.83 79.0445C207.445 78.7735 208.107 78.6319 208.776 78.6281V78.6282L208.784 78.628C209.379 78.615 209.97 78.7269 210.521 78.9571C211.072 79.1872 211.57 79.5306 211.986 79.9664L211.986 79.9664Z" fill="#111111" stroke="#111111"/>
<path d="M184.399 79.0078H186.974V92.482H184.399V79.0078Z" fill="#111111" stroke="#111111"/>
<path d="M92.6448 89.2655C93.4374 89.6476 94.2925 89.8744 95.1652 89.9356V89.9552L95.6642 89.9563C96.8327 89.9586 97.9828 89.6635 99.0094 89.0984C100.036 88.5333 100.906 87.7164 101.541 86.723C102.175 85.7297 102.555 84.5913 102.645 83.4116C102.735 82.232 102.533 81.048 102.057 79.9675L101.732 79.2308L101.216 79.8482C101.051 80.0453 100.848 80.205 100.62 80.3177C100.393 80.4304 100.145 80.4938 99.8927 80.5042C99.6404 80.5145 99.3885 80.4717 99.1528 80.3781C98.9172 80.2845 98.7025 80.1421 98.5227 79.9594C98.3429 79.7766 98.2018 79.5575 98.1088 79.3156C98.0158 79.0737 97.973 78.8146 97.9834 78.5546C97.9937 78.2947 98.0569 78.04 98.1687 77.8067C98.2806 77.5734 98.4385 77.3668 98.632 77.1996L99.2223 76.6896L98.5124 76.3662C97.5589 75.932 96.5216 75.7199 95.4765 75.7458C94.4314 75.7717 93.4055 76.0349 92.4742 76.5158C91.5429 76.9967 90.73 77.6829 90.0946 78.5235C89.4592 79.3641 89.0174 80.338 88.8009 81.3737C88.5845 82.4093 88.5988 83.481 88.8428 84.5104C89.0869 85.5397 89.5546 86.5011 90.2122 87.324C90.8699 88.1469 91.7009 88.8104 92.6448 89.2655ZM90.1024 74.5766C91.711 73.4844 93.6013 72.9019 95.5344 72.9019C98.1263 72.9019 100.614 73.9482 102.449 75.8133C104.285 77.6787 105.317 80.2104 105.317 82.8519C105.317 84.8216 104.742 86.7464 103.666 88.3829C102.591 90.0193 101.062 91.2935 99.2754 92.0456C97.4888 92.7976 95.5234 92.9943 93.6273 92.611C91.7312 92.2277 89.9884 91.2814 88.6197 89.8904C87.2509 88.4994 86.3179 86.7262 85.9398 84.7945C85.5617 82.8628 85.7558 80.8607 86.4973 79.0415C87.2387 77.2225 88.4937 75.669 90.1024 74.5766Z" fill="#111111" stroke="#111111"/>
<mask id="path-13-inside-1" fill="white">
<path d="M216.999 71.2201C217.008 71.5642 216.916 71.9032 216.734 72.1936C216.552 72.484 216.29 72.7127 215.979 72.8504C215.669 72.9881 215.325 73.0284 214.992 72.9663C214.659 72.9043 214.351 72.7425 214.109 72.5019C213.867 72.2612 213.701 71.9526 213.633 71.6155C213.564 71.2784 213.596 70.9282 213.725 70.6097C213.853 70.2913 214.072 70.019 214.354 69.8279C214.635 69.6367 214.967 69.5353 215.306 69.5367C215.526 69.5322 215.745 69.5723 215.95 69.6549C216.155 69.7374 216.342 69.8606 216.5 70.0173C216.658 70.174 216.783 70.3611 216.869 70.5676C216.955 70.7742 216.999 70.996 216.999 71.2201V71.2201ZM214.008 71.2201C214.003 71.3954 214.033 71.57 214.096 71.7333C214.159 71.8966 214.253 72.0453 214.374 72.1705C214.495 72.2958 214.639 72.395 214.799 72.4622C214.958 72.5293 215.129 72.5631 215.302 72.5615C215.474 72.5647 215.645 72.5323 215.804 72.4661C215.964 72.3999 216.108 72.3014 216.229 72.1765C216.35 72.0517 216.444 71.9032 216.507 71.7401C216.569 71.577 216.598 71.4026 216.592 71.2277C216.601 71.0514 216.575 70.875 216.515 70.7092C216.455 70.5435 216.363 70.3919 216.243 70.2637C216.124 70.1355 215.98 70.0334 215.82 69.9636C215.661 69.8939 215.489 69.8579 215.315 69.8579C215.141 69.8579 214.969 69.8939 214.81 69.9636C214.65 70.0334 214.506 70.1355 214.387 70.2637C214.267 70.3919 214.174 70.5435 214.115 70.7092C214.055 70.875 214.029 71.0514 214.038 71.2277L214.008 71.2201ZM215.029 72.1017H214.655V70.4183C214.865 70.3818 215.078 70.3652 215.291 70.3689C215.49 70.3514 215.69 70.3937 215.866 70.4905C215.92 70.5373 215.962 70.5958 215.99 70.6616C216.018 70.7275 216.031 70.7989 216.027 70.8705C216.019 70.9629 215.981 71.05 215.92 71.1186C215.858 71.1872 215.777 71.2335 215.687 71.2505V71.2619C215.769 71.2963 215.841 71.3526 215.894 71.4248C215.947 71.497 215.98 71.5825 215.99 71.6723C216.004 71.8191 216.045 71.962 216.109 72.0941H215.694C215.633 71.964 215.589 71.8259 215.564 71.6837C215.534 71.4975 215.433 71.4177 215.223 71.4177H215.04L215.029 72.1017ZM215.029 71.1479H215.208C215.421 71.1479 215.582 71.0757 215.582 70.9009C215.582 70.7261 215.47 70.6425 215.227 70.6425C215.157 70.6406 215.086 70.6482 215.018 70.6653L215.029 71.1479Z"/>
</mask>
<path d="M216.999 71.2201C217.008 71.5642 216.916 71.9032 216.734 72.1936C216.552 72.484 216.29 72.7127 215.979 72.8504C215.669 72.9881 215.325 73.0284 214.992 72.9663C214.659 72.9043 214.351 72.7425 214.109 72.5019C213.867 72.2612 213.701 71.9526 213.633 71.6155C213.564 71.2784 213.596 70.9282 213.725 70.6097C213.853 70.2913 214.072 70.019 214.354 69.8279C214.635 69.6367 214.967 69.5353 215.306 69.5367C215.526 69.5322 215.745 69.5723 215.95 69.6549C216.155 69.7374 216.342 69.8606 216.5 70.0173C216.658 70.174 216.783 70.3611 216.869 70.5676C216.955 70.7742 216.999 70.996 216.999 71.2201V71.2201ZM214.008 71.2201C214.003 71.3954 214.033 71.57 214.096 71.7333C214.159 71.8966 214.253 72.0453 214.374 72.1705C214.495 72.2958 214.639 72.395 214.799 72.4622C214.958 72.5293 215.129 72.5631 215.302 72.5615C215.474 72.5647 215.645 72.5323 215.804 72.4661C215.964 72.3999 216.108 72.3014 216.229 72.1765C216.35 72.0517 216.444 71.9032 216.507 71.7401C216.569 71.577 216.598 71.4026 216.592 71.2277C216.601 71.0514 216.575 70.875 216.515 70.7092C216.455 70.5435 216.363 70.3919 216.243 70.2637C216.124 70.1355 215.98 70.0334 215.82 69.9636C215.661 69.8939 215.489 69.8579 215.315 69.8579C215.141 69.8579 214.969 69.8939 214.81 69.9636C214.65 70.0334 214.506 70.1355 214.387 70.2637C214.267 70.3919 214.174 70.5435 214.115 70.7092C214.055 70.875 214.029 71.0514 214.038 71.2277L214.008 71.2201ZM215.029 72.1017H214.655V70.4183C214.865 70.3818 215.078 70.3652 215.291 70.3689C215.49 70.3514 215.69 70.3937 215.866 70.4905C215.92 70.5373 215.962 70.5958 215.99 70.6616C216.018 70.7275 216.031 70.7989 216.027 70.8705C216.019 70.9629 215.981 71.05 215.92 71.1186C215.858 71.1872 215.777 71.2335 215.687 71.2505V71.2619C215.769 71.2963 215.841 71.3526 215.894 71.4248C215.947 71.497 215.98 71.5825 215.99 71.6723C216.004 71.8191 216.045 71.962 216.109 72.0941H215.694C215.633 71.964 215.589 71.8259 215.564 71.6837C215.534 71.4975 215.433 71.4177 215.223 71.4177H215.04L215.029 72.1017ZM215.029 71.1479H215.208C215.421 71.1479 215.582 71.0757 215.582 70.9009C215.582 70.7261 215.47 70.6425 215.227 70.6425C215.157 70.6406 215.086 70.6482 215.018 70.6653L215.029 71.1479Z" fill="#111111"/>
<path d="M215.306 69.5367L215.301 70.5367L215.314 70.5368L215.326 70.5365L215.306 69.5367ZM214.008 71.2201L214.254 70.2509L213.044 69.9436L213.008 71.1914L214.008 71.2201ZM215.302 72.5615L215.32 71.5617L215.306 71.5614L215.292 71.5616L215.302 72.5615ZM216.592 71.2277L215.593 71.1745L215.591 71.2186L215.592 71.2627L216.592 71.2277ZM214.038 71.2277L213.792 72.1969L215.109 72.5315L215.037 71.1745L214.038 71.2277ZM215.029 72.1017V73.1017H216.013L216.029 72.1181L215.029 72.1017ZM214.655 72.1017H213.655V73.1017H214.655V72.1017ZM214.655 70.4183L214.483 69.4331L213.655 69.5773V70.4183H214.655ZM215.291 70.3689L215.273 71.3688L215.326 71.3697L215.378 71.3651L215.291 70.3689ZM215.866 70.4905L216.525 69.7376L216.443 69.6664L216.348 69.6143L215.866 70.4905ZM216.027 70.8705L217.023 70.9593L217.025 70.9387L217.026 70.918L216.027 70.8705ZM215.687 71.2505L215.501 70.268L214.687 70.4223V71.2505H215.687ZM215.687 71.2619H214.687V71.9275L215.301 72.1844L215.687 71.2619ZM215.99 71.6723L216.985 71.5743L216.984 71.5675L215.99 71.6723ZM216.109 72.0941V73.0941H217.712L217.008 71.6545L216.109 72.0941ZM215.694 72.0941L214.791 72.5234L215.062 73.0941H215.694V72.0941ZM215.564 71.6837L214.576 71.8423L214.577 71.8496L214.579 71.8569L215.564 71.6837ZM215.04 71.4177V70.4177H214.056L214.04 71.4013L215.04 71.4177ZM215.029 71.1479L214.029 71.1712L214.052 72.1479H215.029V71.1479ZM215.227 70.6425L215.199 71.6421L215.213 71.6425H215.227V70.6425ZM215.018 70.6653L214.776 69.695L213.999 69.8886L214.018 70.6886L215.018 70.6653ZM216 71.2461C216.004 71.3947 215.964 71.54 215.887 71.6631L217.582 72.7241C217.868 72.2663 218.013 71.7337 217.999 71.1942L216 71.2461ZM215.887 71.6631C215.81 71.786 215.7 71.8802 215.574 71.9363L216.385 73.7645C216.879 73.5452 217.295 73.1821 217.582 72.7241L215.887 71.6631ZM215.574 71.9363C215.448 71.9922 215.309 72.0083 215.175 71.9833L214.809 73.9494C215.341 74.0486 215.89 73.9839 216.385 73.7645L215.574 71.9363ZM215.175 71.9833C215.041 71.9583 214.915 71.8928 214.814 71.7926L213.404 73.2112C213.788 73.5923 214.276 73.8502 214.809 73.9494L215.175 71.9833ZM214.814 71.7926C214.713 71.6922 214.642 71.5615 214.612 71.4163L212.653 71.8147C212.76 72.3437 213.021 72.8302 213.404 73.2112L214.814 71.7926ZM214.612 71.4163C214.583 71.271 214.597 71.1202 214.652 70.9839L212.797 70.2356C212.595 70.7362 212.545 71.2858 212.653 71.8147L214.612 71.4163ZM214.652 70.9839C214.707 70.8478 214.799 70.734 214.915 70.6553L213.792 69.0004C213.345 69.3041 212.999 69.7348 212.797 70.2356L214.652 70.9839ZM214.915 70.6553C215.031 70.5768 215.165 70.5362 215.301 70.5367L215.31 68.5367C214.768 68.5345 214.24 68.6966 213.792 69.0004L214.915 70.6553ZM215.326 70.5365C215.412 70.5348 215.497 70.5503 215.577 70.5826L216.324 68.7271C215.994 68.5944 215.641 68.5296 215.285 68.5369L215.326 70.5365ZM215.577 70.5826C215.657 70.6149 215.732 70.6636 215.795 70.7266L217.205 69.308C216.953 69.0576 216.653 68.8598 216.324 68.7271L215.577 70.5826ZM215.795 70.7266C215.859 70.7897 215.91 70.8658 215.945 70.9511L217.792 70.1842C217.656 69.8564 217.457 69.5584 217.205 69.308L215.795 70.7266ZM215.945 70.9511C215.981 71.0364 215.999 71.1286 215.999 71.2221L217.999 71.2181C217.999 70.8633 217.928 70.5119 217.792 70.1842L215.945 70.9511ZM213.008 71.1914C213 71.4989 213.052 71.8054 213.163 72.0927L215.029 71.3738C215.014 71.3345 215.006 71.2919 215.008 71.2489L213.008 71.1914ZM213.163 72.0927C213.273 72.38 213.44 72.6428 213.654 72.8648L215.094 71.4763C215.066 71.4479 215.044 71.4131 215.029 71.3738L213.163 72.0927ZM213.654 72.8648C213.869 73.0868 214.125 73.2636 214.41 73.3837L215.187 71.5406C215.153 71.5263 215.121 71.5048 215.094 71.4763L213.654 72.8648ZM214.41 73.3837C214.695 73.5037 215.002 73.5644 215.311 73.5615L215.292 71.5616C215.257 71.5619 215.221 71.5549 215.187 71.5406L214.41 73.3837ZM215.283 73.5613C215.594 73.5671 215.901 73.5086 216.188 73.3896L215.421 71.5425C215.389 71.5559 215.354 71.5623 215.32 71.5617L215.283 73.5613ZM216.188 73.3896C216.474 73.2707 216.733 73.0942 216.948 72.8718L215.51 71.4813C215.484 71.5085 215.453 71.529 215.421 71.5425L216.188 73.3896ZM216.948 72.8718C217.163 72.6494 217.33 72.3857 217.441 72.0972L215.573 71.383C215.558 71.4208 215.537 71.4541 215.51 71.4813L216.948 72.8718ZM217.441 72.0972C217.551 71.8088 217.602 71.5011 217.591 71.1927L215.592 71.2627C215.594 71.3042 215.587 71.3451 215.573 71.383L217.441 72.0972ZM217.59 71.2809C217.607 70.9712 217.561 70.661 217.456 70.3692L215.575 71.0493C215.589 71.0889 215.596 71.1316 215.593 71.1745L217.59 71.2809ZM217.456 70.3692C217.35 70.0773 217.187 69.8093 216.975 69.5818L215.512 70.9456C215.539 70.9745 215.56 71.0096 215.575 71.0493L217.456 70.3692ZM216.975 69.5818C216.763 69.3543 216.506 69.1722 216.221 69.0474L215.42 70.8799C215.453 70.8946 215.485 70.9167 215.512 70.9456L216.975 69.5818ZM216.221 69.0474C215.935 68.9225 215.627 68.8579 215.315 68.8579V70.8579C215.35 70.8579 215.386 70.8652 215.42 70.8799L216.221 69.0474ZM215.315 68.8579C215.003 68.8579 214.695 68.9225 214.409 69.0474L215.21 70.8799C215.244 70.8652 215.279 70.8579 215.315 70.8579V68.8579ZM214.409 69.0474C214.123 69.1722 213.867 69.3544 213.655 69.5818L215.118 70.9456C215.145 70.9167 215.176 70.8946 215.21 70.8799L214.409 69.0474ZM213.655 69.5818C213.443 69.8093 213.28 70.0773 213.174 70.3692L215.055 71.0493C215.069 71.0097 215.091 70.9745 215.118 70.9456L213.655 69.5818ZM213.174 70.3692C213.069 70.6611 213.023 70.9712 213.039 71.2809L215.037 71.1745C215.034 71.1316 215.041 71.0889 215.055 71.0493L213.174 70.3692ZM214.284 70.2585L214.254 70.2509L213.762 72.1893L213.792 72.1969L214.284 70.2585ZM215.029 71.1017H214.655V73.1017H215.029V71.1017ZM215.655 72.1017V70.4183H213.655V72.1017H215.655ZM214.826 71.4035C214.974 71.3778 215.124 71.3662 215.273 71.3688L215.308 69.3691C215.032 69.3643 214.756 69.3858 214.483 69.4331L214.826 71.4035ZM215.378 71.3651C215.379 71.365 215.381 71.3651 215.385 71.3668L216.348 69.6143C215.999 69.4223 215.601 69.3378 215.203 69.3728L215.378 71.3651ZM215.208 71.2435C215.147 71.1899 215.1 71.1239 215.069 71.0513L216.911 70.272C216.825 70.0677 216.693 69.8846 216.525 69.7376L215.208 71.2435ZM215.069 71.0513C215.038 70.9787 215.025 70.9007 215.028 70.823L217.026 70.918C217.037 70.6971 216.997 70.4762 216.911 70.272L215.069 71.0513ZM215.031 70.7818C215.042 70.661 215.091 70.5448 215.175 70.4515L216.665 71.7857C216.871 71.5552 216.996 71.2648 217.023 70.9593L215.031 70.7818ZM215.175 70.4515C215.259 70.3579 215.373 70.2923 215.501 70.268L215.873 72.233C216.181 72.1747 216.458 72.0164 216.665 71.7857L215.175 70.4515ZM214.687 71.2505V71.2619H216.687V71.2505H214.687ZM215.301 72.1844C215.215 72.1485 215.142 72.0905 215.089 72.0186L216.699 70.831C216.539 70.6146 216.323 70.4441 216.073 70.3394L215.301 72.1844ZM215.089 72.0186C215.036 71.9468 215.004 71.8634 214.995 71.7772L216.984 71.5675C216.956 71.3017 216.858 71.0472 216.699 70.831L215.089 72.0186ZM214.995 71.7703C215.021 72.0355 215.094 72.2941 215.211 72.5338L217.008 71.6545C216.996 71.6299 216.988 71.6028 216.985 71.5743L214.995 71.7703ZM216.109 71.0941H215.694V73.0941H216.109V71.0941ZM216.598 71.6649C216.575 71.6163 216.558 71.5643 216.548 71.5105L214.579 71.8569C214.619 72.0876 214.691 72.3118 214.791 72.5234L216.598 71.6649ZM216.551 71.5251C216.512 71.2851 216.399 70.946 216.078 70.6938C215.773 70.455 215.436 70.4177 215.223 70.4177V72.4177C215.22 72.4177 215.038 72.4204 214.844 72.268C214.632 72.1022 214.585 71.8961 214.576 71.8423L216.551 71.5251ZM215.223 70.4177H215.04V72.4177H215.223V70.4177ZM214.04 71.4013L214.029 72.0853L216.029 72.1181L216.04 71.4341L214.04 71.4013ZM215.029 72.1479H215.208V70.1479H215.029V72.1479ZM215.208 72.1479C215.401 72.1479 215.701 72.1196 215.988 71.9486C216.338 71.7398 216.582 71.3624 216.582 70.9009H214.582C214.582 70.7858 214.61 70.6449 214.691 70.507C214.771 70.3715 214.875 70.2835 214.963 70.2313C215.046 70.1816 215.116 70.1628 215.15 70.1554C215.187 70.1478 215.207 70.1479 215.208 70.1479V72.1479ZM216.582 70.9009C216.582 70.5792 216.464 70.1752 216.086 69.8992C215.774 69.6707 215.429 69.6425 215.227 69.6425V71.6425C215.268 71.6425 215.101 71.6562 214.905 71.5132C214.795 71.4324 214.704 71.321 214.646 71.1907C214.592 71.068 214.582 70.9622 214.582 70.9009H216.582ZM215.255 69.6429C215.093 69.6385 214.932 69.656 214.776 69.695L215.26 71.6356C215.24 71.6405 215.22 71.6427 215.199 71.6421L215.255 69.6429ZM214.018 70.6886L214.029 71.1712L216.029 71.1247L216.017 70.6421L214.018 70.6886Z" fill="#111111" mask="url(#path-13-inside-1)"/>
<path d="M39.7435 82.9994V83C39.7435 86.404 40.7368 89.7322 42.5985 92.5638C44.4603 95.3955 47.1074 97.6038 50.206 98.9081C53.3046 100.212 56.7148 100.554 60.0048 99.8888C63.2949 99.2237 66.3158 97.5824 68.6861 95.1735C71.0564 92.7647 72.6696 89.6968 73.3231 86.3579C73.9766 83.0192 73.6413 79.5584 72.3592 76.4128C71.0771 73.2672 68.9054 70.5773 66.1175 68.6842C63.3294 66.791 60.0508 65.78 56.6961 65.78V66.28L56.6955 65.78C52.1985 65.7852 47.8888 67.603 44.7114 70.832C41.5343 74.0608 39.7486 78.4367 39.7435 82.9994ZM46.59 67.6157C49.5821 65.5839 53.099 64.5 56.6961 64.5C59.0845 64.5 61.4497 64.9781 63.6567 65.9071C65.8638 66.8362 67.8697 68.1982 69.5598 69.9157C71.2498 71.6332 72.5909 73.6726 73.5059 75.9177C74.421 78.1629 74.8921 80.5694 74.8921 83C74.8921 86.6607 73.8239 90.2386 71.8235 93.2811C69.8231 96.3236 66.9807 98.6936 63.6567 100.093C60.3328 101.492 56.6758 101.858 53.1477 101.145C49.6196 100.432 46.3776 98.671 43.8323 96.0843C41.287 93.4976 39.5526 90.2009 38.8499 86.6107C38.1472 83.0204 38.5079 79.2992 39.8862 75.9177C41.2644 72.5364 43.5977 69.6476 46.59 67.6157Z" fill="#111111" stroke="#111111"/>
<path d="M55.3411 78.7921C56.1545 78.5544 57.0137 78.5597 57.8179 78.8013C57.696 79.0786 57.6315 79.3807 57.6312 79.6888C57.6306 79.9781 57.6862 80.2649 57.795 80.5328C57.9039 80.8008 58.064 81.0448 58.2665 81.2506C58.4691 81.4564 58.71 81.62 58.9758 81.7315C59.2415 81.843 59.5265 81.9002 59.8144 81.8996C60.1458 81.8996 60.469 81.8231 60.7614 81.6802C61.0313 82.4906 61.0706 83.3671 60.8679 84.2064C60.6185 85.2391 60.0193 86.1477 59.1776 86.7734C58.336 87.3989 57.3057 87.7021 56.2675 87.6312C55.2294 87.5603 54.2476 87.1197 53.4954 86.3848C52.743 85.6497 52.2685 84.6672 52.1573 83.6096C52.046 82.5519 52.3055 81.4888 52.8887 80.6077C53.4718 79.7267 54.3406 79.0846 55.3411 78.7921Z" fill="#111111" stroke="#111111"/>
<mask id="path-17-inside-2" fill="white">
<path d="M66.581 83.1105C66.2519 83.1136 65.9284 83.0242 65.6462 82.8521C65.1872 82.5544 64.8148 82.1374 64.5676 81.6443C64.3204 81.1513 64.2074 80.6 64.2403 80.0477V77.2015C64.2403 76.7056 64.0465 76.2301 63.7014 75.8795C63.3564 75.5288 62.8885 75.3319 62.4006 75.3319H59.6037C57.9921 75.3319 57.1993 74.4883 56.8441 73.9031C56.672 73.6173 56.5825 73.2881 56.5861 72.9531C56.5914 73.2943 56.502 73.6301 56.3281 73.9221C55.9542 74.5073 55.1802 75.3509 53.5686 75.3509H50.7716C50.2834 75.3509 49.8151 75.5477 49.4695 75.8982C49.1239 76.2487 48.9292 76.7243 48.9282 77.2205V77.2205V80.0667C48.9282 81.7045 48.0981 82.5101 47.5223 82.8711C47.2403 83.0436 46.9166 83.133 46.5875 83.1295C46.9181 83.1271 47.243 83.2179 47.526 83.3917C48.0981 83.7527 48.9282 84.5583 48.9282 86.1961V89.0385C48.9282 89.2845 48.9759 89.5281 49.0685 89.7554C49.1612 89.9827 49.297 90.1892 49.4681 90.3632C49.6393 90.5371 49.8425 90.6751 50.0662 90.7693C50.2899 90.8634 50.5296 90.9119 50.7716 90.9119H53.5611C55.1727 90.9119 55.9654 91.7555 56.3206 92.3407C56.491 92.6258 56.5803 92.9533 56.5786 93.2869C56.5751 92.9518 56.6645 92.6226 56.8366 92.3369C57.2106 91.7555 57.9846 90.9119 59.5962 90.9119H62.3931C62.8814 90.9109 63.3493 90.713 63.6942 90.3618C64.0391 90.0106 64.2328 89.5347 64.2328 89.0385V89.0385V86.1771C64.1996 85.6246 64.3124 85.0732 64.5596 84.5801C64.8069 84.087 65.1795 83.6701 65.6387 83.3727C65.9228 83.198 66.2491 83.1072 66.581 83.1105V83.1105ZM68.8246 83.1105V83.5741C68.8246 84.1821 68.5179 84.4025 68.0206 84.6951C67.5233 84.9877 66.8129 85.5919 66.8129 86.9751V89.3311C66.8129 92.8309 64.1954 93.5111 63.1933 93.5111H62.7222H60.4039C59.039 93.5111 58.4408 94.2103 58.1603 94.7385C57.8799 95.2667 57.6593 95.5593 57.061 95.5593H56.1262C55.5317 95.5593 55.3148 95.2439 55.0269 94.7385C54.7389 94.2331 54.1444 93.5111 52.7833 93.5111H50.465C47.0175 93.5111 46.3519 90.8511 46.3519 89.8327V89.3539V86.9979C46.3519 85.6109 45.6639 85.0029 45.1441 84.7179C44.6244 84.4329 44.3552 84.1821 44.3552 83.5741V82.6621C44.3552 82.0541 44.6655 81.8375 45.1628 81.5449C45.6601 81.2523 46.3706 80.6443 46.3706 79.2649V76.8861C46.3706 73.3863 48.9693 72.7251 49.9902 72.7251H52.7796C54.1444 72.7251 54.7427 72.0297 55.0231 71.4977C55.3036 70.9657 55.5279 70.6807 56.1225 70.6807H57.0386C57.6368 70.6807 57.8537 70.9923 58.1379 71.4977C58.4221 72.0031 59.0241 72.7251 60.3814 72.7251H62.6997C66.1435 72.7251 66.8129 75.3851 66.8129 76.4035V76.8823V79.2421C66.8129 80.6253 67.5009 81.2333 68.0206 81.5221C68.5404 81.8109 68.8246 82.0313 68.8246 82.6393V83.1029"/>
</mask>
<path d="M66.581 83.1105C66.2519 83.1136 65.9284 83.0242 65.6462 82.8521C65.1872 82.5544 64.8148 82.1374 64.5676 81.6443C64.3204 81.1513 64.2074 80.6 64.2403 80.0477V77.2015C64.2403 76.7056 64.0465 76.2301 63.7014 75.8795C63.3564 75.5288 62.8885 75.3319 62.4006 75.3319H59.6037C57.9921 75.3319 57.1993 74.4883 56.8441 73.9031C56.672 73.6173 56.5825 73.2881 56.5861 72.9531C56.5914 73.2943 56.502 73.6301 56.3281 73.9221C55.9542 74.5073 55.1802 75.3509 53.5686 75.3509H50.7716C50.2834 75.3509 49.8151 75.5477 49.4695 75.8982C49.1239 76.2487 48.9292 76.7243 48.9282 77.2205V77.2205V80.0667C48.9282 81.7045 48.0981 82.5101 47.5223 82.8711C47.2403 83.0436 46.9166 83.133 46.5875 83.1295C46.9181 83.1271 47.243 83.2179 47.526 83.3917C48.0981 83.7527 48.9282 84.5583 48.9282 86.1961V89.0385C48.9282 89.2845 48.9759 89.5281 49.0685 89.7554C49.1612 89.9827 49.297 90.1892 49.4681 90.3632C49.6393 90.5371 49.8425 90.6751 50.0662 90.7693C50.2899 90.8634 50.5296 90.9119 50.7716 90.9119H53.5611C55.1727 90.9119 55.9654 91.7555 56.3206 92.3407C56.491 92.6258 56.5803 92.9533 56.5786 93.2869C56.5751 92.9518 56.6645 92.6226 56.8366 92.3369C57.2106 91.7555 57.9846 90.9119 59.5962 90.9119H62.3931C62.8814 90.9109 63.3493 90.713 63.6942 90.3618C64.0391 90.0106 64.2328 89.5347 64.2328 89.0385V89.0385V86.1771C64.1996 85.6246 64.3124 85.0732 64.5596 84.5801C64.8069 84.087 65.1795 83.6701 65.6387 83.3727C65.9228 83.198 66.2491 83.1072 66.581 83.1105V83.1105ZM68.8246 83.1105V83.5741C68.8246 84.1821 68.5179 84.4025 68.0206 84.6951C67.5233 84.9877 66.8129 85.5919 66.8129 86.9751V89.3311C66.8129 92.8309 64.1954 93.5111 63.1933 93.5111H62.7222H60.4039C59.039 93.5111 58.4408 94.2103 58.1603 94.7385C57.8799 95.2667 57.6593 95.5593 57.061 95.5593H56.1262C55.5317 95.5593 55.3148 95.2439 55.0269 94.7385C54.7389 94.2331 54.1444 93.5111 52.7833 93.5111H50.465C47.0175 93.5111 46.3519 90.8511 46.3519 89.8327V89.3539V86.9979C46.3519 85.6109 45.6639 85.0029 45.1441 84.7179C44.6244 84.4329 44.3552 84.1821 44.3552 83.5741V82.6621C44.3552 82.0541 44.6655 81.8375 45.1628 81.5449C45.6601 81.2523 46.3706 80.6443 46.3706 79.2649V76.8861C46.3706 73.3863 48.9693 72.7251 49.9902 72.7251H52.7796C54.1444 72.7251 54.7427 72.0297 55.0231 71.4977C55.3036 70.9657 55.5279 70.6807 56.1225 70.6807H57.0386C57.6368 70.6807 57.8537 70.9923 58.1379 71.4977C58.4221 72.0031 59.0241 72.7251 60.3814 72.7251H62.6997C66.1435 72.7251 66.8129 75.3851 66.8129 76.4035V76.8823V79.2421C66.8129 80.6253 67.5009 81.2333 68.0206 81.5221C68.5404 81.8109 68.8246 82.0313 68.8246 82.6393V83.1029" fill="#111111"/>
<path d="M65.6462 82.8521L65.1021 83.6911L65.1137 83.6986L65.1255 83.7058L65.6462 82.8521ZM64.2403 80.0477L65.2385 80.107L65.2403 80.0774V80.0477H64.2403ZM64.2403 77.2015H65.2403H64.2403ZM62.4006 75.3319V74.3319V75.3319ZM56.8441 73.9031L55.9876 74.4192L55.9893 74.422L56.8441 73.9031ZM56.5861 72.9531L57.586 72.9376L55.5862 72.9424L56.5861 72.9531ZM56.3281 73.9221L57.1708 74.4605L57.1793 74.4472L57.1873 74.4337L56.3281 73.9221ZM50.7716 75.3509L50.7716 76.3509H50.7716V75.3509ZM47.5223 82.8711L48.0441 83.7242L48.0534 83.7183L47.5223 82.8711ZM46.5875 83.1295L46.5804 82.1295L46.5767 84.1294L46.5875 83.1295ZM47.526 83.3917L48.0597 82.5459L48.0492 82.5395L47.526 83.3917ZM48.9282 89.0385L47.9282 89.0385L48.9282 89.0385ZM50.7716 90.9119V91.9119V90.9119ZM56.3206 92.3407L57.1791 91.8277L57.1755 91.8218L56.3206 92.3407ZM56.5786 93.2869L55.5787 93.2975L57.5786 93.2919L56.5786 93.2869ZM56.8366 92.3369L55.9956 91.7959L55.9877 91.8082L55.9801 91.8208L56.8366 92.3369ZM62.3931 90.9119L62.3931 91.9119L62.3952 91.9119L62.3931 90.9119ZM64.2328 86.1771H65.2328V86.147L65.231 86.117L64.2328 86.1771ZM65.6387 83.3727L65.115 82.5208L65.105 82.5269L65.0952 82.5333L65.6387 83.3727ZM66.5714 82.1105C66.4302 82.1119 66.2903 82.0736 66.167 81.9984L65.1255 83.7058C65.5665 83.9748 66.0737 84.1154 66.5906 84.1104L66.5714 82.1105ZM66.1904 82.0131C65.8819 81.813 65.6297 81.5315 65.4616 81.1962L63.6737 82.0925C63.9999 82.7433 64.4925 83.2957 65.1021 83.6911L66.1904 82.0131ZM65.4616 81.1962C65.2934 80.8607 65.2161 80.4846 65.2385 80.107L63.242 79.9883C63.1988 80.7155 63.3475 81.4418 63.6737 82.0925L65.4616 81.1962ZM65.2403 80.0477V77.2015H63.2403V80.0477H65.2403ZM65.2403 77.2015C65.2403 76.4456 64.945 75.7174 64.4142 75.1781L62.9887 76.5808C63.148 76.7427 63.2403 76.9657 63.2403 77.2015H65.2403ZM64.4142 75.1781C63.883 74.6382 63.159 74.3319 62.4006 74.3319L62.4006 76.3319C62.618 76.3319 62.8299 76.4195 62.9887 76.5808L64.4142 75.1781ZM62.4006 74.3319H59.6037V76.3319H62.4006V74.3319ZM59.6037 74.3319C58.4235 74.3319 57.9199 73.7482 57.699 73.3842L55.9893 74.422C56.4788 75.2283 57.5606 76.3319 59.6037 76.3319V74.3319ZM57.7007 73.387C57.6247 73.2609 57.5845 73.1141 57.5861 72.9637L55.5862 72.9424C55.5806 73.462 55.7193 73.9738 55.9876 74.4192L57.7007 73.387ZM55.5862 72.9685C55.5887 73.1252 55.5475 73.2784 55.4689 73.4104L57.1873 74.4337C57.4564 73.9818 57.5941 73.4633 57.586 72.9376L55.5862 72.9685ZM55.4854 73.3836C55.234 73.7772 54.7389 74.3509 53.5686 74.3509V76.3509C55.6215 76.3509 56.6744 75.2374 57.1708 74.4605L55.4854 73.3836ZM53.5686 74.3509H50.7716V76.3509H53.5686V74.3509ZM50.7716 74.3509C50.0133 74.3509 49.2892 74.6568 48.7574 75.1961L50.1815 76.6003C50.3409 76.4387 50.5535 76.3509 50.7716 76.3509L50.7716 74.3509ZM48.7574 75.1961C48.2261 75.7349 47.9297 76.4626 47.9282 77.2185L49.9282 77.2225C49.9287 76.986 50.0216 76.7625 50.1815 76.6003L48.7574 75.1961ZM47.9282 77.2205V80.0667H49.9282V77.2205H47.9282ZM47.9282 80.0667C47.9282 81.2886 47.3415 81.8041 46.9911 82.0238L48.0534 83.7183C48.8547 83.216 49.9282 82.1203 49.9282 80.0667H47.9282ZM47.0005 82.018C46.8779 82.0929 46.7388 82.131 46.5983 82.1295L46.5767 84.1294C47.0945 84.135 47.6026 83.9942 48.0441 83.7241L47.0005 82.018ZM46.5945 84.1294C46.7372 84.1284 46.8785 84.1675 47.0028 84.2439L48.0492 82.5395C47.6075 82.2683 47.0991 82.1258 46.5804 82.1295L46.5945 84.1294ZM46.9924 84.2374C47.3413 84.4575 47.9282 84.974 47.9282 86.1961H49.9282C49.9282 84.1425 48.855 83.0478 48.0597 82.546L46.9924 84.2374ZM47.9282 86.1961V89.0385H49.9282V86.1961H47.9282ZM47.9282 89.0385C47.9282 89.4136 48.0009 89.7854 48.1425 90.1328L49.9946 89.3779C49.9509 89.2708 49.9282 89.1554 49.9282 89.0385L47.9282 89.0385ZM48.1425 90.1328C48.2841 90.4803 48.4921 90.797 48.7554 91.0645L50.1809 89.6618C50.1018 89.5814 50.0382 89.4851 49.9946 89.3779L48.1425 90.1328ZM48.7554 91.0645C49.0186 91.3321 49.3321 91.5452 49.6782 91.6909L50.4542 89.8476C50.353 89.805 50.26 89.7421 50.1809 89.6618L48.7554 91.0645ZM49.6782 91.6909C50.0244 91.8366 50.396 91.9119 50.7716 91.9119L50.7716 89.9119C50.6631 89.9119 50.5553 89.8902 50.4542 89.8476L49.6782 91.6909ZM50.7716 91.9119H53.5611V89.9119H50.7716V91.9119ZM53.5611 91.9119C54.7412 91.9119 55.2448 92.4955 55.4658 92.8596L57.1755 91.8218C56.686 91.0154 55.6042 89.9119 53.5611 89.9119V91.9119ZM55.4622 92.8536C55.5386 92.9815 55.5794 93.1298 55.5787 93.2818L57.5786 93.2919C57.5812 92.7768 57.4434 92.27 57.179 91.8277L55.4622 92.8536ZM57.5786 93.2762C57.577 93.1258 57.6172 92.9791 57.6932 92.853L55.9801 91.8208C55.7118 92.2661 55.5732 92.7779 55.5787 93.2975L57.5786 93.2762ZM57.6777 92.8778C57.9298 92.4858 58.4257 91.9119 59.5962 91.9119V89.9119C57.5435 89.9119 56.4913 91.0251 55.9956 91.7959L57.6777 92.8778ZM59.5962 91.9119H62.3931V89.9119H59.5962V91.9119ZM62.3952 91.9119C63.1535 91.9103 63.877 91.6029 64.4077 91.0625L62.9807 89.6612C62.8216 89.8232 62.6092 89.9114 62.391 89.9119L62.3952 91.9119ZM64.4077 91.0625C64.9379 90.5226 65.2328 89.7944 65.2328 89.0385L63.2328 89.0385C63.2328 89.2749 63.1403 89.4986 62.9807 89.6612L64.4077 91.0625ZM65.2328 89.0385V86.1771H63.2328V89.0385H65.2328ZM65.231 86.117C65.2083 85.7396 65.2855 85.3636 65.4536 85.0283L63.6657 84.1319C63.3393 84.7829 63.1908 85.5097 63.2346 86.2371L65.231 86.117ZM65.4536 85.0283C65.6216 84.6931 65.8738 84.4118 66.1823 84.2121L65.0952 82.5333C64.4851 82.9284 63.9921 83.4809 63.6657 84.1319L65.4536 85.0283ZM66.1625 84.2245C66.2869 84.148 66.4284 84.109 66.5713 84.1104L66.5907 82.1105C66.0697 82.1054 65.5586 82.248 65.115 82.5208L66.1625 84.2245ZM67.8246 83.1105V83.5741H69.8246V83.1105H67.8246ZM67.8246 83.5741C67.8246 83.6421 67.816 83.661 67.8192 83.6514C67.8238 83.6374 67.8331 83.622 67.8388 83.6151C67.8402 83.6134 67.8258 83.6314 67.7703 83.6714C67.7123 83.7134 67.6343 83.7621 67.5135 83.8332L68.5277 85.5569C68.7623 85.4189 69.1133 85.2119 69.3794 84.8906C69.6903 84.5149 69.8246 84.0709 69.8246 83.5741H67.8246ZM67.5135 83.8332C67.1847 84.0266 66.7484 84.3448 66.3976 84.8723C66.0408 85.4088 65.8129 86.1012 65.8129 86.9751H67.8129C67.8129 86.4657 67.9402 86.1644 68.0629 85.9799C68.1916 85.7863 68.3592 85.6561 68.5277 85.5569L67.5135 83.8332ZM65.8129 86.9751V89.3311H67.8129V86.9751H65.8129ZM65.8129 89.3311C65.8129 90.7959 65.2829 91.5405 64.7642 91.9447C64.1956 92.3878 63.5211 92.5111 63.1933 92.5111V94.5111C63.8676 94.5111 65.0029 94.2943 65.9935 93.5223C67.0341 92.7114 67.8129 91.366 67.8129 89.3311H65.8129ZM63.1933 92.5111H62.7222V94.5111H63.1933V92.5111ZM62.7222 92.5111H60.4039V94.5111H62.7222V92.5111ZM60.4039 92.5111C59.5405 92.5111 58.8503 92.7356 58.3143 93.099C57.7866 93.4567 57.4694 93.9074 57.2771 94.2695L59.0436 95.2074C59.1317 95.0413 59.2538 94.8783 59.4366 94.7544C59.6111 94.6361 59.9024 94.5111 60.4039 94.5111V92.5111ZM57.2771 94.2695C57.2121 94.392 57.1663 94.4703 57.1286 94.5255C57.0925 94.5784 57.078 94.5885 57.0851 94.5826C57.0974 94.5721 57.1177 94.5604 57.1351 94.5548C57.1473 94.5508 57.1298 94.5593 57.061 94.5593V96.5593C57.5448 96.5593 57.9936 96.4327 58.3746 96.1113C58.7029 95.8344 58.9047 95.4689 59.0436 95.2074L57.2771 94.2695ZM57.061 94.5593H56.1262V96.5593H57.061V94.5593ZM56.1262 94.5593C56.0663 94.5593 56.0547 94.5514 56.0707 94.5569C56.0906 94.5638 56.1082 94.5756 56.115 94.5814C56.1163 94.5826 56.0977 94.5668 56.057 94.5083C56.0147 94.4476 55.9661 94.3669 55.8958 94.2435L54.158 95.2335C54.2926 95.4697 54.4947 95.8248 54.8081 96.0954C55.1786 96.4152 55.6233 96.5593 56.1262 96.5593V94.5593ZM55.8958 94.2435C55.7071 93.9123 55.3948 93.4689 54.8737 93.111C54.342 92.7457 53.6531 92.5111 52.7833 92.5111V94.5111C53.2747 94.5111 53.5636 94.6374 53.7414 94.7595C53.9298 94.8889 54.0587 95.0592 54.158 95.2335L55.8958 94.2435ZM52.7833 92.5111H50.465V94.5111H52.7833V92.5111ZM50.465 92.5111C49.0386 92.5111 48.3128 91.9805 47.9141 91.4518C47.4757 90.8702 47.3519 90.1765 47.3519 89.8327H45.3519C45.3519 90.5072 45.5609 91.6527 46.3171 92.6558C47.1132 93.7116 48.4439 94.5111 50.465 94.5111V92.5111ZM47.3519 89.8327V89.3539H45.3519V89.8327H47.3519ZM47.3519 89.3539V86.9979H45.3519V89.3539H47.3519ZM47.3519 86.9979C47.3519 86.1301 47.1337 85.4364 46.7789 84.8959C46.4285 84.362 45.9849 84.0384 45.6249 83.841L44.6633 85.5947C44.8231 85.6823 44.9834 85.8052 45.1069 85.9934C45.2261 86.1749 45.3519 86.4786 45.3519 86.9979H47.3519ZM45.6249 83.841C45.5137 83.78 45.4441 83.736 45.3982 83.7018C45.3547 83.6696 45.3467 83.6565 45.3514 83.6626C45.3538 83.6658 45.3573 83.6711 45.3606 83.6777C45.3639 83.6842 45.365 83.688 45.3647 83.6871C45.364 83.6848 45.3552 83.6533 45.3552 83.5741H43.3552C43.3552 84.039 43.463 84.4826 43.7581 84.8716C44.0248 85.2231 44.3814 85.4401 44.6633 85.5947L45.6249 83.841ZM45.3552 83.5741V82.6621H43.3552V83.5741H45.3552ZM45.3552 82.6621C45.3552 82.5951 45.3637 82.5777 45.3599 82.5889C45.3547 82.6046 45.3447 82.6206 45.3389 82.6276C45.3376 82.6291 45.3525 82.6109 45.4092 82.5703C45.4687 82.5276 45.5476 82.4787 45.6699 82.4067L44.6557 80.683C44.425 80.8188 44.0729 81.0246 43.8061 81.3428C43.4922 81.7173 43.3552 82.162 43.3552 82.6621H45.3552ZM45.6699 82.4067C46.0002 82.2124 46.436 81.893 46.7862 81.3657C47.1424 80.8294 47.3706 80.1373 47.3706 79.2649H45.3706C45.3706 79.7718 45.2436 80.0734 45.1202 80.2591C44.9909 80.4538 44.8228 80.5847 44.6557 80.683L45.6699 82.4067ZM47.3706 79.2649V76.8861H45.3706V79.2649H47.3706ZM47.3706 76.8861C47.3706 75.4188 47.8975 74.6811 48.4104 74.2834C48.9732 73.8469 49.6465 73.7251 49.9902 73.7251V71.7251C49.313 71.7251 48.1765 71.9338 47.1848 72.7029C46.143 73.5107 45.3706 74.8535 45.3706 76.8861H47.3706ZM49.9902 73.7251H52.7796V71.7251H49.9902V73.7251ZM52.7796 73.7251C53.6418 73.7251 54.3319 73.5021 54.8684 73.1391C55.3969 72.7815 55.7149 72.3299 55.9077 71.964L54.1385 71.0313C54.0509 71.1975 53.9296 71.3595 53.7476 71.4826C53.5737 71.6003 53.2823 71.7251 52.7796 71.7251V73.7251ZM55.9077 71.964C55.9717 71.8426 56.0171 71.7654 56.0538 71.7119C56.089 71.6607 56.1027 71.6516 56.0948 71.6582C56.0818 71.6691 56.0616 71.6803 56.0452 71.6856C56.0342 71.6891 56.0528 71.6807 56.1225 71.6807V69.6807C55.6453 69.6807 55.1978 69.8026 54.8152 70.1211C54.4832 70.3975 54.2799 70.7631 54.1385 71.0313L55.9077 71.964ZM56.1225 71.6807H57.0386V69.6807H56.1225V71.6807ZM57.0386 71.6807C57.1013 71.6807 57.1148 71.6888 57.1002 71.6838C57.0813 71.6774 57.0632 71.6658 57.0551 71.6588C57.0523 71.6564 57.0697 71.6706 57.109 71.7272C57.1499 71.7862 57.1975 71.8655 57.2662 71.9878L59.0095 71.0075C58.8753 70.7688 58.6738 70.4122 58.3569 70.1405C57.9841 69.8208 57.5382 69.6807 57.0386 69.6807V71.6807ZM57.2662 71.9878C57.4558 72.3249 57.7704 72.7685 58.2921 73.1259C58.824 73.4903 59.5133 73.7251 60.3814 73.7251V71.7251C59.8922 71.7251 59.6018 71.5988 59.4224 71.4759C59.2327 71.346 59.1041 71.1758 59.0095 71.0075L57.2662 71.9878ZM60.3814 73.7251H62.6997V71.7251H60.3814V73.7251ZM62.6997 73.7251C64.1239 73.7251 64.8501 74.2554 65.2495 74.7847C65.6886 75.3667 65.8129 76.0605 65.8129 76.4035H67.8129C67.8129 75.728 67.6025 74.5827 66.846 73.5801C66.0497 72.5248 64.7193 71.7251 62.6997 71.7251V73.7251ZM65.8129 76.4035V76.8823H67.8129V76.4035H65.8129ZM65.8129 76.8823V79.2421H67.8129V76.8823H65.8129ZM65.8129 79.2421C65.8129 80.1087 66.0314 80.8013 66.3859 81.3412C66.7358 81.8743 67.178 82.1979 67.5349 82.3962L68.5063 80.6479C68.3434 80.5574 68.1819 80.4327 68.0578 80.2437C67.9383 80.0617 67.8129 79.7587 67.8129 79.2421H65.8129ZM67.5349 82.3962C67.6562 82.4636 67.7329 82.5102 67.7868 82.5485C67.8381 82.5849 67.8475 82.5991 67.8418 82.592C67.8318 82.5797 67.822 82.5614 67.818 82.5485C67.8157 82.5411 67.8246 82.5642 67.8246 82.6393H69.8246C69.8246 82.1606 69.7057 81.714 69.3932 81.3299C69.1225 80.9971 68.7623 80.7902 68.5063 80.6479L67.5349 82.3962ZM67.8246 82.6393V83.1029H69.8246V82.6393H67.8246Z" fill="#111111" mask="url(#path-17-inside-2)"/>
</svg>
