<svg xmlns="http://www.w3.org/2000/svg" width="681.9" height="683" viewBox="0 0 180.4 180.7"><path d="M81.7 180.3c-.8-.4-1.9-2.6-2.2-4.2a8 8 0 011.5-5.6c1.8-2.3 5.5-3.1 8.4-1.8 1.7.7 2.4 1.7 2.2 3.1 0 .9-.3 1-1.3 1s-1.3-.2-1.4-1c-.1-1-1-1.7-2.5-1.7-4.2 0-6 5.3-3 8.4 1 1 1.4 1.2 2.9 1.2 1 0 2-.3 2.8-.7l1.2-.7.5.8c.3.5.5 1 .3 1.2-.2.5-8.6.5-9.4 0zm15.6-.1c0-.4.3-.7.7-.8.8-.2.8.2 0-7l-.2-2h-1.2c-1.1 0-1.2 0-1.2 1 0 .8-.2 1-1 1.1-.9.1-1 0-1.2-1.8v-2.1c.2-.2 10.9-1.3 11-1.2.1.1.3 1 .4 2.2l.2 2h-1c-1 0-1.2-.2-1.2-1.2s0-1-1.1-.8c-.6 0-1.2.2-1.3.3 0 .1 0 2.1.3 4.5.5 3.9.6 4.4 1.2 4.5.8.1 1.2.7 1.3 1.4 0 .3-.8.4-2.9.4-2.3 0-2.8 0-2.8-.5zm-29-1a6.6 6.6 0 01-5.1-7.2c.4-3.5 2.7-6 5.9-6.4 4.8-.4 8.5 3.6 7.4 8.3-.9 4-4.4 6.3-8.3 5.4zm4.1-2.8c1.8-1.4 2.5-4.3 1.5-6.3-.2-.4-1-1.2-1.6-1.6-3.2-2.2-6.7.3-6.7 4.6 0 1.4.1 1.9 1.2 2.9 1 1 1.4 1.2 3 1.2 1.2 0 2-.2 2.6-.8zm38.1 1.6c-4.8-3-4.8-10.3 0-12.5 1.7-.8 4.8-.9 6.1-.2a8 8 0 013.9 6c.3 2.1-1 5-3 6.2-1.7 1.2-5.4 1.4-7 .5zm5.5-2c.5-.3 1.2-1 1.6-1.8 1.5-3.3-.7-7.2-4-7.2-2.6 0-4.3 1.8-4.3 4.6 0 3.7 3.6 6 6.7 4.4zm9.2-2.2c-.3-.7-.2-.9.3-1.2.7-.3.6-.6-1.4-4.6-2-3.7-2.2-4.2-2.8-3.9-.5.3-.8.2-1-.3a3 3 0 01-.4-1c0-.6 6.1-3.3 7.5-3.3 2 0 3.4 1.5 3.7 3.6 0 1 0 1.8-.4 2.3-.5.6-.4.7 1.1 1.8 1.1.8 2 1.1 2.5 1 1.1-.3 1.8 1.1.9 1.8-1.4 1-2.1 1-4.4-.7a19 19 0 00-2.4-1.6l-.9.4c-.6.5-.6.5 0 1.7.8 1.6.7 1.5 1.5 1 .7-.3.8-.2 1.2.6.2.4.3 1 .2 1a62 62 0 01-4.6 2.3l-.6-.9zm2.1-7.8c1.4-.8 1.9-2 1.3-3.1-.2-.5-.7-1-1.1-1-.8-.3-3.4.6-3.4 1s1.8 3.7 2 3.7l1.2-.6zm-75.7 7c-1-.4-2.6-1-3.6-1.6-1.7-.9-1.8-1-1.4-1.8.3-.7.6-.8 1.1-.7.7.2 1-.1 2.1-2.5 2.4-5 2.5-5.4 2-5.9-.7-.5-.3-2 .4-2 .9 0 6.7 3.3 7.5 4.3.5.5 1.1 1.7 1.3 2.4.9 2.9-.9 6.5-3.7 7.8-1.8.8-3.4.8-5.7 0zm4.8-2a5 5 0 001.8-2c1-1.9.9-3.5-.3-4.9-.8-1-2.5-2-3.2-2-.3 0-4 7.4-4 8 0 .4 2.5 1.4 3.7 1.4a5 5 0 002-.5zm-18.7-6l-3.6-2.9a27.9 27.9 0 01-3.1-2.6l.5-.9c.4-.5.6-.6 1.2-.2.6.3 1 0 3.4-3.2 2.5-3.1 2.7-3.6 2.3-4.2-.3-.6-.3-.8.2-1.4.7-.6.8-.5 4.5 2.4 4.1 3.3 4 3 2.2 5-.8 1-.9 1-1.7.3-.6-.4-.6-.6-.2-1.3.3-.7.3-1-.8-1.8a5 5 0 00-1.6-1c-.2 0-.8.6-1.4 1.2l-1 1.3 1 .8 1.6 1.1c.4.3.4.6 0 1.2-.2.4-.4.7-.6.7l-1.7-1c-.9-.7-1.6-1.1-1.7-1-2 2.5-2.1 2.8-1.4 3.3 2 1.6 2.2 1.7 3 1 .5-.5.6-.5 1.4.2l.8.6-1.2 1.5c-1.2 1.6-1.5 1.7-2 1zm104.4-.7c-.4-.5-.4-.7 0-1.3.4-.6.1-1-2.3-4.1l-2.8-3.5c-.1-.1-.4 0-.7.3-.5.4-.7.3-1.3-.3-.4-.4-.7-.8-.6-.9l1.9-1.5c2.8-2.3 4-3 5.7-3 2.6 0 4.7 2.7 4.2 5.4-.2.6-1 1.7-1.7 2.4-1.3 1.4-1.4 1.5-.8 2.3.6 1 1 1 1.5.4.4-.3.6-.2 1.2.4.4.4.7.8.6.9l-2 1.6c-2 1.6-2.2 1.7-3 .9zm.8-7.7c1.2-1.1 1.3-2.7.2-3.7-1-1-2-1-3.4 0l-1 .9 1.3 1.8a8 8 0 001.7 1.8c.2 0 .7-.4 1.2-.8zm-118.2-3.1l-3.3-3.5.7-.8c.6-.6.8-.6 1.3-.3.5.4 1 0 3.9-2.6 3-2.7 3.3-3.1 3-3.7-.4-.5-.4-.8 0-1.2.2-.3.6-.5.9-.5.5.2 6.5 6.5 6.5 6.9 0 .2-.6.9-1.2 1.5l-1.3 1.2-.8-.7c-.7-.8-.7-.8 0-1.5.6-.8.6-.8-.8-2.2l-1.3-1.4L31 146a6 6 0 00-1.2 1.3l1.3 1.7 1.2 1.4-.8.6c-.7.7-.7.7-2-.8l-1.3-1.5-1.3 1.1c-.7.6-1.3 1.3-1.3 1.5 0 .3.6 1 1.2 1.6 1.2 1.2 1.3 1.2 2 .6.5-.5.6-.5 1.3.3l.8.8-1.4 1.3L28 157l-3.4-3.5zm127.9 2.2c-.6-.6-.6-.8-.2-1.3.2-.3.3-.7 0-.8 0-.2-1.6-1.6-3.4-3.2-2.8-2.6-3.2-2.8-3.7-2.3s-.7.4-1.2-.2c-.6-.7-.6-.7 1.3-3 3-3.4 4.6-4.1 6.7-3.2 1.6.6 2.4 1.8 2.4 3.6v1.4l1.9.5c1.5.3 2 .3 2.6 0 .6-.4.8-.4 1.3 0 .5.6.5.7-.2 1.7-1 1.3-1.2 1.3-4.3.4-2.3-.6-2.4-.6-3 0-.5.7-.5.8.4 1.8 1 1 1 1 1.7.4.6-.5.7-.5 1.3.2.8.7.8.7-1.1 2.7l-1.9 2-.6-.7zm-1-8c1.4-1.7.7-4-1.2-4-.4 0-1.3.5-2 1l-1 1.2 1.5 1.3c.8.8 1.6 1.4 1.7 1.4.2 0 .6-.4 1-1zm-84.8 5c.4-2.5 2.3-7.8 4-11.5a46.6 46.6 0 0126.3-24.1c2.2-1 9.8-3 10.7-3 .6 0 .6 26 0 29a13 13 0 01-7.3 9.7l-2 1h-16l-16 .1zm-.7-13v-27.5l.3-17.5-2.1-.2c-3.9-.5-12-.8-16.7-.5-8.7.5-15.2 2.7-19 6.5a25 25 0 00-2.4 2.8c-.4.5-.5-3.2-.5-17.4V68l13-.2c14.3-.3 22.2-.7 27.2-1.5 22-3.5 36.2-14.6 43.2-34l1.1-3.3.3 18.1.2 27.5V84l1 .2 7.3.6c15.5 1 26.6-2 30.9-8.4l1-1.6v36h-1.8c-10.6.2-31.9.8-34.5 1.1a64.8 64.8 0 00-28 9.3 53.6 53.6 0 00-11.7 11.2c-2.6 3.4-6 10-7.5 14.4l-1 3-.3-10zm25-39.8c.6-1.2.6-1.4 0-2.6-.4-1.1-.6-1.3-1.9-1.3-1.6 0-2.1.7-2.1 2.5 0 1.3.4 2.3 1.5 3.5l.7.8.7-.8 1.2-2.1zm-6.3-.4c.5-.5 1-1.3 1.2-2 .4-1.2 0-1.5-.7-.4-.5.9-2.8 1-2.8.2 0-.7-1.1-.7-1.7-.1-.6.6-.5 1.7.2 2.4.8 1 2.7.9 3.8-.1zm12.7.3c.7-.5.6-2.3-.3-2.8-.4-.3-.7-.2-1.2.2-1 1-2.4.8-2.9-.3-.4-.8-1-1.2-1-.5 0 .9 1 2.8 1.7 3.3 1 .7 2.8.8 3.7.1zm-1-5l.2-.9h-7.3c-7.2 0-8 .1-7.5 1.3.2.4 1.3.5 7.4.4 7 0 7.1 0 7.2-.9zm-17-2.2c.2-2.1 2.5-2.5 4.3-.6 1.1 1.2 2.6 1.7 2.6.8 0-2.1-2-5-4-6.1-2.9-1.5-7.3.5-7.3 3.3 0 1 1.3 2.5 2.6 3 1.6.8 1.8.7 1.9-.4zm21.7.3c2.1-1.1 2.6-2.6 1.6-4.6-1.2-2.4-5.4-2.8-7.9-.8a8.1 8.1 0 00-2.7 4.6c-.2 1-.2 1.1.5 1.1.5 0 1.3-.5 2-1.2.7-.8 1.4-1.2 2-1.2 1.1 0 2.4 1 2.4 2s.4 1 2.1 0zm-10.6-1.2l.6-2.2 1.6-3.8c1.5-3.3 1.6-4.4.4-6.7-.6-1.2-3.6-4.5-4-4.5-.5 0-3 2.8-3.8 4.3-1.2 2.3-1 4.3.6 7.6a27 27 0 011.8 4.5c.5 1.9.8 2.3 1.8 2.3.4 0 .8-.4 1-1.5zM18 145.4c-.2-.3-.3-.8-.2-1 0-.1-.5-.8-1.3-1.4-2.4-2.1-3-4.7-1.5-7.5 2.1-4.2 7.5-5.4 11-2.4 2.2 2 3.1 5.5 1.7 7-1.3 1.5-3.5.3-2.6-1.4.2-.4.5-.7.7-.7.7 0 .3-1.4-.7-2.6-2-2.3-5-2.3-7.2.1-1 1.2-1.3 1.7-1.3 3 0 1.6 1 3.4 2.3 4 .7.5 1 .4 1.7 0 1-.7 1-.8-.2-2.5-.7-1-.7-1 0-1.5 1-.7.8-1 3.4 3.1l.6 1-2.6 1.8a18 18 0 01-3 1.7c-.2 0-.6-.3-.8-.7zm140.8-3.2a6.9 6.9 0 01-.3-12.8c1.8-.8 3.4-.7 5.5.3 3 1.5 4.7 4.6 4 7.7-.5 2-2.2 4-3.8 4.7-1.3.6-4.1.6-5.4.1zm4.6-2.2a4.2 4.2 0 002.5-4c0-1.3-.3-1.8-1.4-3-1.1-1.2-1.6-1.4-3-1.6-2.2-.2-3.8.6-4.6 2.3-.7 1.4-.7 2.3 0 3.6 1.3 2.6 4.2 3.8 6.5 2.7zM9.4 129.7c-2-1-3.2-4.5-2.3-6.4.8-1.5 2-2.3 5.6-3.8 2.8-1.2 3.1-1.5 3-2.2-.2-.6 0-.8.8-1 1-.4 1-.4 2 2 .8 2.1.8 2.3.3 2.7-.9.6-1.1.6-1.6-.2-.3-.7-.5-.7-3.6.7-1.8.8-3.5 1.7-3.9 2-.9.8-.8 2.7.3 3.8 1.1 1 1.5 1 5.9-.8 2.8-1.2 3-1.4 2.9-2.2-.2-.6 0-.8.4-1 1.2-.3 1.3-.2 2.3 2.2l1 2.2-1 .4c-.8.3-1 .2-1.3-.3-.3-.6-.6-.5-3.8.9-3.8 1.6-5.4 1.9-7 1zm159.5-.6c-1.2-.6-1.2-2.5 0-2.7.4 0 1 .1 1.3.4.5.4.6.3 1-.2.3-.4.5-1.1.5-1.7 0-1.1-.3-1.3-5-3.2l-3-1.3-.5.8-.4.9s-.5 0-1-.3l-1-.3 1.1-2.6c1.1-2.6 1.2-2.7 2-2.3.8.2 1 .5.9 1-.1.8.1 1 2.4 1.9 5.6 2.2 6.7 3 6.7 5.4 0 1.9-1 3.5-2.7 4.2-1.4.6-1.2.6-2.3 0zm6.3-11c-.4-.2-.6-.5-.6-1 .1-.6-.3-.8-4.3-1.8-4.3-1.1-4.5-1.1-4.7-.5-.2.8-1.5.9-1.8.1-.2-.4 1.7-8.8 2-9.2.2-.1 3.5.5 3.8.8l-.3 1c-.3.8-.6 1-1.2.8-.8-.1-1 0-1.3 1.6l-.3 1.8c0 .2 2.4 1 3 1 .2 0 .6-.9.8-1.8.4-1.8.8-2 2-1.6.4.2.4.4 0 2l-.5 1.9 3.4.8c.2 0 .4-.4.5-1l.5-2c.2-.7 0-.8-.5-.8-1 0-1-.3-.9-1.3.2-.9.3-1 1.8-.7 1 .1 1.8.4 2 .5.4.4-2 9.6-2.4 9.5a9 9 0 01-1-.2zm-161.8-2.6l-.3-.9c-.1-.4.1-.7.7-.9.9-.3.9-.4.5-2-.3-1-.6-1.7-.8-1.7l-1.9.3c-1.7.3-1.6 0-.9 3.3.2 1 .1 1-.7 1.2-.8.2-1 0-1.3-1.3l-.5-1.8c0-.3-.5-.3-1.7 0-1.4.3-1.6.4-1.6 1.3 0 .7-.2 1-.9 1.1-.8.2-1 0-1.3-1.3a743.4 743.4 0 00-.9-3.9l1-.3c.8-.2 1 0 1 .3 0 1 .5 1 7.9-.9 1-.3 1.3-.5 1.3-1.2 0-.6.2-.8 1-1 .4 0 .9 0 1 .3a145.8 145.8 0 012 8.4c.2.4 0 .6-1 1-1.7.4-2.6.4-2.6 0zm12.3-7c0-2.1 1.4-5 3.3-7 3-3 7.1-4.8 13.8-6 4.6-.8 16-.8 21.3 0l1.1.2v13.8H25.7v-1zM.9 103a567 567 0 01-.5-5l-.2-2.7h1.1c.9 0 1.1.2 1.1.8 0 .7.1.7 1.9.5l4.6-.4c2.5-.2 2.7-.3 2.7-1 0-.8.2-1 1-1 .9 0 1.1.2 1.1.9l.5 4.8c.3 2.7.3 4 0 4-.2.2-1 .3-1.8.4-1.4.1-1.5 0-1.7-.7-.3-1 0-1.6 1-1.6.6 0 .7 0 .4-1.8a11 11 0 00-.3-2l-1.8.2-1.7.2.3 1.8c.2 1.8 0 2.3-1.3 2.3-.5 0-.6-.3-.7-1.8L6.5 99H4.7C3 99 3 99 2.8 100.2l.1 2c.2.8.4.9 1.1.7.8-.2.9-.1.9 1v1.3H1zm171 1.5a6.9 6.9 0 01-4.8-9.6c.9-2 2.6-3 3.8-2.2 1.4.9.9 2.6-.8 2.6-1.5 0-2 2.4-1 4.5 1.3 2.7 5.5 3.4 7.6 1.3 1.7-1.6 2-3.7.7-6.1-.4-.7-.4-1 .4-1.5.8-.7.8-.7 1.4.1a8 8 0 011.2 5.2c-.6 3-2.2 5-5 5.7-1.5.4-2 .4-3.5 0zM.1 91.7l.2-1.6c0-.6.5-1 2.6-2 2.3-1 2.7-1.3 2.7-2 0-1-.1-1-1.6-1-1.3 0-1.6.1-1.6.7s-.2.7-1 .7c-1 0-1.2 0-1-.8l.2-2.6c0-1.8 0-1.9 1.1-1.9.8 0 1 .2 1 .7 0 .7 1.2 1 6.9 1.2 2 0 2.3 0 2.3-.5 0-.8.3-1 1.3-.7.8.1.9.3.9 2.4 0 5.2-1.4 7.5-4.5 7.5-1.3 0-1.7-.2-2.7-1.2l-1.1-1.2-1.9.8c-1.4.7-1.8 1-1.8 1.6 0 .6-.3.7-1.1.7-1 0-1.1 0-1-.8zm10.8-2.6c.4-.4.8-1.2 1-2.2l.1-1.5-2.2.1-2.3.1V87c.1 1 .4 1.6 1 2 .9.9 1.4.9 2.4 0zm156.1.5a92.9 92.9 0 01-.7-9l-.2-1.1h4.2v1c0 1-.1 1-.8 1-.8 0-1 .2-1 1.3v1.3l2.6-.3c6.8-.6 6.8-.6 6.7-1.4 0-.7 0-.8 1-.8.8 0 1 .2 1.2 1l.2 2.7c0 1.2-.1 1.6-.7 1.7-.9.3-1.4 0-1.4-.9 0-.6-.2-.7-1.1-.5l-4.6.4-3.5.3v1.1c0 1.1.1 1.2 1 1.2s1.1.2 1.2 1l.2 1-2 .3-2 .2zm-49.8-6c-6.1-.4-5.4.5-5.4-7.5v-6.9H151l-.2 1.8c-.5 4.4-3.9 8.1-9.4 10.4-5.2 2.1-15 3-24.2 2.3zM6.8 71c-1-.4-1.5-1.1-1.8-2.4-.2-1 0-1.3.9-2.2 1.3-1.3 2.9-1.4 4.1-.2 1.2 1.2 1.2 2.8-.1 4.1-1.1 1-1.8 1.2-3 .7zm162.6-1.5a2.8 2.8 0 010-4.4c1.1-1 2-1 3.4-.3 1.8 1 2 3.2.3 4.6-1.3 1.1-2.4 1.1-3.7 0zm-101-19.7c.2-14.5.2-15 1-16.9 1.1-2.8 3.5-5.4 6.3-6.8l2.4-1.1 16-.1c15.1-.1 16-.1 16 .5-.1 1-2.8 8.8-4.3 12-4 8.7-11.1 16.4-19 20.8a64 64 0 01-17.1 6.2l-1.4.3zM18 58.6c-.6-.3-.8-.6-.6-1.3.2-.9 0-1-4.1-3.3-4.2-2.3-4.4-2.4-4.8-1.7-.4.6-.6.6-1.4.3-.4-.2-.8-.6-.8-.8 0-.3 2.3-4.7 2.6-5 .3-.4 2 .8 1.8 1.2l-.4.9A59.9 59.9 0 0019 54a6 6 0 001.3-1.8c.5-1 .8-1.8.6-1.8l-.9-.4c-.5-.4-.5-.6-.2-1.4.6-1.2.8-1.2 2.9 0l1.6 1-2.5 4.6A46 46 0 0119 59a6 6 0 01-1-.4zM158.2 54l-2.6-4.8.9-.5c.8-.4 1-.4 1.4.2.5.7.7.7 5.8-2.2 3.2-1.8 3.4-2 3.3-2.8-.2-.7 0-1 .7-1.3l1-.2a207.1 207.1 0 015 9.2c.2.2-3 2-3.5 2l-.7-1c-.5-1-.5-1 .3-1.4l1-.4-.8-1.3c-1.3-2.6-1.4-2.7-3.1-1.7-.8.5-1.5 1.1-1.5 1.3l1 2c.9 1.5.9 1.6.2 2-1 .8-1.4.6-2.3-1.3-.4-1-1-1.7-1-1.7a19 19 0 00-3.5 1.6c-.1.1.3 1 .8 2 1 1.8 1.1 2 2 1.6.6-.4.8-.3 1.3.2.8 1.1.5 1.6-1.3 2.5l-1.7.9zm-133-7.8c-.9-.7-1-.8-.3-1.4l.4-.8a3535.7 3535.7 0 01-8-6c-.2 0-.5.4-.7.7-.3.5-.4.5-1.3 0-.5-.4-.8-.8-.7-1 .7-1.2 3.4-4.5 3.7-4.5l.9.7c.5.5.5.8.2 1l-.4.8 4 3.3c3.8 3 4 3 4.5 2.4.5-.7.6-.7 1.3-.2l.8.8c0 .2-.8 1.4-1.7 2.6L26 47zm127.7-.7c-.5-.6-1-1.2-1-1.4l1.2-2.8c1-2.3 1-2.7.6-3.4-.5-1-1-1-2.2 0-.8.8-.9 1-.5 1.6.3.7.2 1-.4 1.5l-.8.8-.8-1-2-2.4-1-1.3.8-.7c.8-.7.9-.7 1.3-.3l.7.6c.2 0 7-5.4 7.7-6.2.1-.1 0-.5-.4-.8-.6-.7-.6-.8.3-1.4l1-.6 1 1.2c4.1 4.8 5 6.8 4 9-.8 1.7-2.3 2.4-4.4 2.2l-1.7-.1-.8 2c-.7 2-.7 2.2-.2 2.8.5.5.5.6 0 1.2-1 .8-1.3.7-2.4-.5zm6.8-8.2c.8-.6.5-2.6-.6-3.8l-1-1-1.6 1.3c-.9.7-1.7 1.5-1.7 1.7 0 .4 1.7 2 2.5 2.3.6.3 1.7 0 2.4-.5zm-128.9 1c-.4-.6-.4-.8 0-1.3.5-.5.3-1-2.8-4.3-3.4-3.7-3.5-3.8-4.1-3.2-.7.6-.8.6-1.4-.2l-.7-.8 1.3-1.4c.9-1 1.5-1.3 2-1.2 2.2.5 10.2 1.6 10.5 1.5.1 0-.7-1.1-2-2.5-2-2.2-2.1-2.3-2.7-1.7-.6.5-.6.5-1.4-.2l-.9-.8 2-2c1.1-1 2.2-1.9 2.4-1.9.7 0 1.3 1.4.8 2-.5.6-.2 1 4.7 6.2 1.7 1.9 3 3.5 3 3.7 0 .8-1.2.8-6.6 0l-6.1-1c-.4-.2-.5 0-.4.3.4.6 4.7 5 5 5l.8-.5c.5-.5.6-.4 1.2.4l.6 1-2 1.9c-1.2 1-2.2 1.8-2.4 1.8-.1 0-.5-.3-.8-.7zM141.1 33l-2.3-2 .7-.9c.8-.7.9-.7 1.5-.2.6.6.8.4 3.6-2.8 3.7-4.2 3.7-4.2 3-5-.5-.6-.5-.7.2-1.4l.8-.7 2.2 1.8 2.2 2-.7 1c-.6.8-.7.9-1.3.3-.7-.6-.8-.5-4 3.2-3.4 3.8-3.4 3.8-2.7 4.5.6.8.6.8-.2 1.5l-.7.8zm-7.4-5.7l-2.5-1.7.7-1c.5-.8.7-.9 1-.5l.8.4c.4 0 2.1-2.8 2-3.3-.1-.2-1.4-1.1-2.7-2-2.8-1.6-3-1.6-4.1.6-.7 1.3-.7 1.3 0 1.8.5.4.6.6.2 1.3-.2.5-.5 1-.7 1-.4 0-4.6-2.5-4.8-3l.2-1c.4-.5.7-.6 1.4-.5.8.2 1-.1 3.3-3.8 1.3-2.2 2.3-4.2 2.3-4.4 0-.2-.2-.5-.6-.7-.5-.3-.5-.4 0-1.3l.7-1 1.6 1c3.8 2.3 3.6 2 3 3-.5 1.1-.8 1.2-1.4.6-.3-.3-.5-.3-.9 0-.5.5-1.8 2.9-1.6 3l2.8 1.8c3 1.7 2.9 1.7 4-.5.6-1.2.6-1.2-.1-1.7-.7-.4-.7-.5-.2-1.3.3-.5.7-.9.9-.9a26 26 0 014.7 2.9c.1.2 0 .6-.2 1-.4.6-.7.7-1.4.6-.8-.2-1 0-3.4 4s-2.5 4-1.8 4.7c.6.5.6.6 0 1.5-.2.5-.5.9-.6.9l-2.6-1.5zM45.2 24a8.3 8.3 0 01-4.3-6.7c0-4.2 3.7-8 7.8-8 2.2 0 3.7 1.7 2.9 3.1-.6.9-2.2 1-2.7 0-.6-.9-1-.9-2.8 0-1.7 1-3 3.3-2.6 5.1a6.7 6.7 0 002.7 4.1c2.4 1.5 6.3.2 7.4-2.4.4-1.1 1.4-1.4 2.4-.8.6.4-.2 2.4-1.8 3.9a8 8 0 01-9 1.7zm68.7-6.3c-3-1.6-4-5.6-1.2-5.6 1 0 1.7.8 1.4 2-.2.8 0 1 .8 1.6 1.2.7 2.9.8 3.5.2 1-1 .5-2.3-1.7-4.2-2.3-2-3-3.3-2.7-5 .7-3.5 5.5-4.4 8.6-1.5 1.4 1.4 1.7 3.4.4 4-1.1.7-2.5-.4-2.2-1.7.2-.8 0-1-.9-1.4-2-.8-3.5 0-3 1.8 0 .5 1 1.5 2 2.2 3 2.6 3.5 5.2 1.3 7.3-.8.9-1.2 1-2.8 1-1.3 0-2.5-.2-3.5-.7zm-51-.4c-4.1-1.4-6.2-7-4.1-11.1 1.4-2.8 5.6-4.5 8.7-3.7 5.3 1.4 7.3 8.6 3.6 12.7-1.8 2-5.8 3-8.3 2.1zm5.2-2.8c1.4-1 2.4-2.8 2.4-4.4a7 7 0 00-.8-2.6c-2.5-4.8-9-3.1-9 2.3 0 4.2 4 6.8 7.4 4.7zm36.6.5c-.4 0-2-2.4-3.7-5.2a69 69 0 00-3.3-5.3c-.3-.2-.5 1-1 5-.2 2-.1 2.2.7 2.3.7 0 .8.3.7 1.2l-.2 1.1c-.2.1-5.7-.6-5.8-.8v-1c.2-.7.5-1 1.1-1 .8 0 .8-.1 1.3-3.7l.6-5.1c.2-1.2.1-1.4-.6-1.4-.4 0-.7-.2-.7-.5 0-.4.5-.5 2.2-.5h2.2l2.6 4.4c1.5 2.4 2.8 4.4 3 4.4 0 0 .3-1.4.4-3l.3-3.3c0-.1-.3-.3-.7-.3-.7-.1-.8-.4-.8-1.2V0l2.9.3c1.6 0 3 .3 3 .3l-.1 1.3c-.2.8-.4 1-1 1-.8-.3-.8-.3-1.5 6.2-.3 2.9-.7 5.4-.8 5.6-.2.3-.5.4-.8.3zm-26.4-1.4l-.1-1c0-.2.3-.4.7-.5.8 0 .9-.1.6-2.4a914 914 0 01-.4-5.1c-.2-2.6-.3-2.7-1-2.7s-.9-.2-.9-1 0-.8 3-.8c2.8 0 3 0 3 .7 0 .5-.2.7-1 .7s-.9 0-.6 2l.4 5.2.2 3h2c1.9-.1 2-.2 2-1 0-1 .4-1.4 1.5-1.4.6 0 .8.2 1 1.1.1.7.2 1.7 0 2.2v1l-3.4.3-5.2.4c-1.8.2-1.8.2-1.8-.7z" fill="#111"/></svg>
