<svg xmlns="http://www.w3.org/2000/svg" width="256" height="166" fill="none"><path opacity=".1" fill="#95bcd1" d="M0 0h256v166H0z"/><g fill-rule="evenodd" fill="#000"><path d="M147.72 111.08h3.18v11.25h-3.18v-11.25m-39.77 11.25h12.2v-11.25h-3.19v9.6h-5.83v-9.6h-3.18v11.25m-26.83-11.25h12l-1.64 1.65h-7.17v3.14h8.08v1.66h-8.08v3.14h7.17l1.64 1.66h-12v-11.25m-15.46 8.29l3.18 3.32v-9.96h6.8c.1 0 .18.08.18.18v4.22h-5.76l8.99 9.3v-3.9l-3.28-3.43h3.28v-6.7c0-.41-.03-.76-.1-.9a.71.72 0 00-.66-.42H65.66v8.29m51.4 19.68h3.17v-6.45l3.27 2.24 3.28-2.24v6.45h3.18v-11.2c-2.18 1.46-4.31 3-6.46 4.52-2.14-1.51-4.28-3.06-6.45-4.53v11.21m-28.55 0h12.47v-6.23h-3.19v4.57h-6.1v-7.89h7.6l1.64-1.66H88.5v11.21m9.48-26.32h5.06c.1 0 .18.08.18.18V117h-5.24zm-3.2 9.6h3.2v-3.68h8.47v-6.59c0-.56-.25-.98-.8-.98H94.78v11.25m37.83-6.73h.8v6.73h-11.72v-11.25h10.17c.47 0 .75.4.75.9zm-7.73 1.66h5.34v3.41h-5.34zm.17-4.53h5.13c.1 0 .17.08.17.18v2.7h-5.47v-2.88h.17m10.16-1.65h3.19v9.6h8.09-.02l-1.63 1.65h-9.63v-11.25m17.46 0h12.11l-1.62 1.64-.02.01h-7.29v7.94h8.93l-1.62 1.64-.02.02h-10.47v-11.25m20.97-.05h7.62a.67.68 0 01.67.67v10.67h-8.3l-3.85-3.91v-7.43zm2.13 1.84h2.98v7.85h-2.98l-2.81-2.85v-5h2.8m8.07-1.8h11.93l-1.63 1.65-.01.01H187v2.3h8.38l-1.62 1.67-.02.02H187v5.6h-3.18v-11.24m-69.39 16.76c.4 0 .71.33.71.72v10.5h-3.18v-4.76h-5.61v4.75h-3.18v-11.2zm-8.08 1.66h5.44c.1 0 .17.08.17.18v2.96h-5.61v-3.14m27.47-1.66h9.9l-1.63 1.65-.01.01h-7.14v3.1h8.04v1.66h-8.04v3.13h7.14l.01.02 1.63 1.64h-11.96v-11.2h2.06m11.37 0h11.6a.78.79 0 01.78.78v5.45h-2.88l4.4 4.97h-4.04l-4.39-4.97-1.57-1.8.18-.18h5.12v-2.43c0-.1-.08-.17-.17-.17h-5.84v9.55h-3.19v-11.2m15.24 0h11.28l-1.63 1.64-.01.01h-7.33v3.14h8.8v6.41h-10.56l-.01-.01-1.63-1.65h9.01v-3.09h-8.8v-6.46h.88M127.81 70.29a425.33 431.52 0 0120.2-12.24 442.33 448.77 0 0125.72-13.54c9.16-4.43 16.17-7.38 17.76-7.9V36.9c-.03 2.84-1.5 6.24-4.54 7.65-15.64 7.26-53.63 28.04-68.22 39.35 2.36 1 11.99 4.06 23.23 4.76 5.2.33 8.1-.8 10.04-1.79 2.73-1.4 5.85-4.23 8.82-8.95 3.95-6.25 6.56-13.8 6.56-13.8l-40.52 17.55s35.33-22.19 58.84-33.1c-.37 2.45-3.44 10.95-7.44 19.65a126.89 126.89 0 01-8.42 14.96c-6.48 10.1-12.29 12.46-13.37 12.77-1.65.46-10.1.13-16.58-.82-13.51-1.98-28.66-6.7-33.62-9.82 1.28-1.24 10.32-7.78 21.54-15.03zm53.32-41.5h-.32c-17.3 0-32.6 5.76-33.57 6.27-2.42 1.28-8.03 6.08-9.39 7.42-1.41 1.4-8.32 8.66-15.75 15.99-6.78 6.68-14 13.42-17.66 16.06-2.7 1.34-13.55-7.45-18.68-7.73 1.61.6 2.86 3.67 5.63 9.04 2.1 4.05 5.14 9.76 8.83 14.22 3.83 4.64 9.63 9 14.55 11.02-3.87-3.92-10.7-12.86-10.62-14.94.17-4.85 11.23-12.4 22.93-21.8 6.47-5.18 36.57-28.93 62.58-35.03a70.96 72 0 00-8.53-.53zM84.16 79.41c-4.07-2.25-7.51-4.8-8.3-5.93a28.09 28.09 0 01-2.9-6.5c-1.6-4.94-3.03-11.12-3.03-11.12s6.54 8.54 12.3 15.4a294.76 299.05 0 0011.15 12.56s-4.93-2.04-9.22-4.41"/></g></svg>
