<svg width="116" height="33" viewBox="0 0 116 33" fill="none" xmlns="http://www.w3.org/2000/svg">
<path fill-rule="evenodd" clip-rule="evenodd" d="M13.9413 19.1278H4.68249V2.99304H0V23.6269H13.9413V19.1278Z" fill="#111111"/>
<path fill-rule="evenodd" clip-rule="evenodd" d="M23.9886 19.4863C22.9554 19.4863 22.01 19.0956 21.3264 18.3869C20.6216 17.655 20.2336 16.6154 20.2339 15.4586C20.2336 14.2746 20.638 13.2178 21.3722 12.483C22.0487 11.8059 22.9747 11.4331 23.9817 11.4331C23.9863 11.4331 23.9914 11.4331 23.9968 11.4331C25.001 11.4331 25.9262 11.8055 26.6018 12.4813C27.3375 13.2171 27.7425 14.2746 27.7429 15.4597C27.7421 17.8305 26.1991 19.4863 23.9903 19.4863H23.9886ZM32.4688 15.4597C32.4674 10.6778 28.7424 6.93141 23.9886 6.93066C19.2332 6.93104 15.5081 10.6765 15.5081 15.4575C15.5081 20.3178 19.1542 23.9837 23.9899 23.9846C28.8222 23.9837 32.4674 20.3191 32.4688 15.4597Z" fill="#111111"/>
<mask id="mask0" mask-type="alpha" maskUnits="userSpaceOnUse" x="0" y="6" width="116" height="27">
<path d="M0 6.92993H115.73V32.5395H0V6.92993Z" fill="#111111"/>
</mask>
<g mask="url(#mask0)">
<path fill-rule="evenodd" clip-rule="evenodd" d="M39.1247 15.458C39.1244 14.265 39.5279 13.2039 40.2615 12.4702C40.9298 11.8009 41.8472 11.4324 42.8461 11.4324C42.8507 11.4324 42.8557 11.4324 42.8611 11.4324C43.8575 11.4324 44.7738 11.8005 45.4424 12.4691C46.1762 13.2032 46.581 14.2654 46.581 15.4591C46.5806 17.83 45.0482 19.4862 42.8539 19.4862C41.8225 19.4862 40.8819 19.0959 40.2048 18.3871C39.4981 17.6469 39.1244 16.6338 39.1247 15.458ZM46.5774 21.9899V23.6275H51.2599V7.28698H46.5774V8.9821C45.3994 7.65235 43.767 6.93055 41.8976 6.93018C37.6224 6.93055 34.3988 10.5966 34.3988 15.4572C34.3988 20.3975 37.5626 23.9837 41.9216 23.9847C43.7841 23.9841 45.4074 23.2822 46.5774 21.9899Z" fill="#111111"/>
<path fill-rule="evenodd" clip-rule="evenodd" d="M109.979 18.2567C109.303 18.9585 108.36 19.3451 107.324 19.3451H107.323C106.294 19.3451 105.354 18.9578 104.673 18.2541C103.977 17.5334 103.594 16.5155 103.595 15.3878C103.594 14.2346 103.992 13.201 104.716 12.4767C105.389 11.8028 106.312 11.4321 107.316 11.4321C107.32 11.4321 107.325 11.4321 107.331 11.4321C108.332 11.4321 109.254 11.8025 109.927 12.4756C110.651 13.2006 111.051 14.235 111.051 15.3889C111.051 16.5209 110.67 17.5394 109.979 18.2567ZM111.047 7.28667V8.97825C109.868 7.65092 108.235 6.92987 106.367 6.92969L106.367 6.92987C102.092 6.93025 98.8684 10.566 98.8684 15.3866C98.8684 20.2071 102.103 23.8432 106.391 23.844C108.253 23.8432 109.877 23.1425 111.047 21.8524V28.089H89.0228V32.551H115.73V7.28667H111.047Z" fill="#111111"/>
<path fill-rule="evenodd" clip-rule="evenodd" d="M0 32.5389H4.4511V28.0884H0V32.5389Z" fill="#111111"/>
<path fill-rule="evenodd" clip-rule="evenodd" d="M8.90231 32.5393H17.8046V28.0887H8.90231V32.5393Z" fill="#111111"/>
<path fill-rule="evenodd" clip-rule="evenodd" d="M22.2557 32.5393H35.609V28.0887H22.2557V32.5393Z" fill="#111111"/>
<path fill-rule="evenodd" clip-rule="evenodd" d="M62.3161 32.5393H84.5717V28.0887H62.3161V32.5393Z" fill="#111111"/>
<path fill-rule="evenodd" clip-rule="evenodd" d="M40.0604 32.5393H57.8648V28.0887H40.0604V32.5393Z" fill="#111111"/>
</g>
<path fill-rule="evenodd" clip-rule="evenodd" d="M62.1119 19.4858C61.0806 19.4858 60.1399 19.0954 59.4628 18.3867C58.7562 17.6465 58.3824 16.6335 58.3828 15.4576C58.3824 14.265 58.7861 13.204 59.5191 12.4702C60.1879 11.801 61.1053 11.4325 62.1028 11.4325C62.1052 11.4325 62.108 11.4325 62.1106 11.4325L62.1114 11.4321C62.1142 11.4321 62.1166 11.4321 62.1166 11.4321C63.1158 11.4321 64.0319 11.8003 64.7005 12.4688C65.4343 13.2032 65.8391 14.265 65.8391 15.4587C65.8387 17.8296 64.3062 19.4858 62.1119 19.4858ZM65.7727 21.9895V23.627H70.4558V0.989502H65.7727V8.98131C64.5947 7.65213 62.9626 6.93035 61.093 6.92998C56.8178 6.93035 53.5942 10.5963 53.5942 15.4569C53.5942 20.397 56.7577 23.9832 61.117 23.9842C62.9794 23.9836 64.6029 23.2817 65.7727 21.9895Z" fill="#111111"/>
<path fill-rule="evenodd" clip-rule="evenodd" d="M91.769 23.6274H96.4519V7.28687H81.3221V23.6274H86.0049V11.7947H91.769V23.6274Z" fill="#111111"/>
<path fill-rule="evenodd" clip-rule="evenodd" d="M73.571 23.6274H78.2538V7.28687H73.571V23.6274Z" fill="#111111"/>
<path fill-rule="evenodd" clip-rule="evenodd" d="M75.9749 5.79982C77.5728 5.79982 78.868 4.50143 78.868 2.89991C78.868 1.29839 77.5728 0 75.9749 0C74.3772 0 73.0821 1.29839 73.0821 2.89991C73.0821 4.50143 74.3772 5.79982 75.9749 5.79982Z" fill="#111111"/>
</svg>
