<svg xmlns="http://www.w3.org/2000/svg" viewBox="0 0 256 166">
   <path fill="#95bcd1" d="M0 0h256v166H0z" opacity=".1"/>
   <path d="M155.3 111l-4.7-8.7a11.4 11.4 0 001.3-.7A9.8 9.8 0 00155 98a11.6 11.6 0 001.3-5.5 10.4 10.4 0 00-3.6-8.3Q149 81 142.5 81h-.5v-6.1h-4.7v-7h3.7a36 36 0 006.4-.5 12.4 12.4 0 004.6-1.8 9.8 9.8 0 003-3.6 11.6 11.6 0 001.3-5.4 10.4 10.4 0 00-3.5-8.6q-3.8-3-10.3-3h-19.1v6h4.6v24h-4.6v6.4a22.7 22.7 0 00-4.4-.4h-.4v-6.1H114V51h4.6v-6H100v6h4.6v24H100v12h4.6v24H100v6h18.7v-6H114v-7h3.4a36 36 0 006.4-.5 12.6 12.6 0 004-1.5v9h-4.5v6H142v-6h-4.6v-7h4.7l6.9 13h11v-6zm-17.9-60h3.6a12.5 12.5 0 012.4.3 4 4 0 012.2 1.7 5.7 5.7 0 011 3.4 5.6 5.6 0 01-1.4 3.8q-1.5 1.8-6.4 1.8h-1.4zm-15.7 45.3q-1.4 1.7-6.2 1.7H114V87h1.7a18.2 18.2 0 014.1.4 4 4 0 012.2 1.7 5.7 5.7 0 011 3.3 5.6 5.6 0 01-1.4 4m23.4 0q-1.4 1.5-6.3 1.5h-1.4V87h1.8a18.2 18.2 0 014 .4 4 4 0 012.3 1.7 5.7 5.7 0 011 3.3 5.6 5.6 0 01-1.4 4"/>
 </svg>
