<svg width="256" height="166" fill="none" xmlns="http://www.w3.org/2000/svg"><path opacity=".1" fill="#95BCD1" d="M0 0h256v166H0z"/><path d="M79.5 78.1v.9l5.1.3.1-.9h1.1l-.1 3c-.1 1.7-1 2.8-2.5 2.7-1 0-1.6-.6-2-1.5l-2 1v.9H78l.1-1.8 3-1.3v-.5-.6h-1.7v.9l-1.2-.1.2-3h1.1zm3.8 4.7c.8 0 1.2-.6 1.2-1.6v-.7l-2.3-.1v.7c-.1 1 .3 1.7 1 1.7zM79.2 86l.1.9 5.2-.5-.1-.9 1.1-.1.6 5.5-2.2.2V90h1l-.3-2.3-2 .2.2 2.2-1 .2-.3-2.3-2 .2.1 2.2h1l.1 1.1-2.1.3-.5-5.6h1.1zM80 93.4l.3.8 5-1.3-.2-.8 1.1-.3 1.3 5.3-2 .5-.3-1.2 1-.2-.6-2-2 .5.5 2-1.1.3-.5-2-2 .4.3 1-1.1.2-.7-3 1-.2zM83.5 100.2l3.4-1.5-.4-.7 1.1-.5 1.2 2.8-1 .4-.4-.8-3.3 1.4c-1 .5-1.4 1.2-1 2.1.4.9 1 1.2 2.2.7l3.3-1.4-.4-.8 1-.5 1.2 2.7-1 .5-.4-.8-3.3 1.5c-1.8.7-3 0-3.7-1.4-.6-1.6-.2-3 1.5-3.7zM87.6 106.9c2-1.3 4.2-.8 5.4 1 1 1.5.8 3 0 3.4-.4.4-.9.3-1.1-.1-.3-.4-.2-.9.2-1.2l.3-.1c0-.3 0-.8-.4-1.3-.8-1.2-2.3-1.5-3.6-.6-1.4.9-1.7 2.5-1 3.5.5.7.9 1 1.4 1.2l1-.7-1-1.5 1-.6 1.7 2.5-3.3 2.2-.6-1 .4-.3c-.6-.2-1.2-.6-1.6-1.3-1-1.5-.8-3.8 1.2-5.1zM90.6 115.8l.6.6 3.8-3.6-.6-.6.9-.8 3.7 4-1.5 1.5-.9-1 .8-.6-1.5-1.6-1.5 1.4 1.5 1.6-.8.8-1.5-1.7-1.5 1.5 1.5 1.6.7-.7.8 1-1.5 1.4-3.8-4 .8-.8zM95.8 121l.6.6 3.2-4.2-.6-.5.7-.9 4.3 3.4-1.3 1.7-1-.7.6-.8-1.7-1.4-1.2 1.6 1.7 1.4-.6.9-1.8-1.4-1.3 1.7 1.7 1.3.6-.8 1 .8-1.3 1.7L95 122l.8-1zM104 127l.8.4 2.2-4.7-.7-.4.5-1 2.5 1.2c2.4 1.1 3.2 3 2.2 5.1-1 2.1-3 2.9-5.5 1.7l-2.4-1.2.5-1zm2.6 1.3c1.7.8 3 .3 3.8-1.2.7-1.5 0-2.8-1.7-3.6l-.5-.3-2.2 4.8.6.3zM113 128.3c.6-2.2 2.5-3.4 4.7-2.9 2.2.6 3.2 2.6 2.7 4.8-.6 2.1-2.5 3.4-4.6 2.8-2.2-.5-3.3-2.6-2.7-4.7zm6.1 1.5c.4-1.5-.3-2.9-1.7-3.2-1.4-.4-2.7.5-3 2-.4 1.5.3 2.9 1.7 3.3 1.4.3 2.6-.5 3-2zM122 130.4c.1-2.3 2-3.8 4.1-3.7 1.7 0 2.8 1 2.7 2 0 .5-.4.9-.8.9-.5 0-.8-.4-.8-.9v-.4c-.1-.2-.5-.4-1.2-.4-1.4 0-2.6 1-2.7 2.5 0 1.6.9 2.8 2.4 3 .9 0 1.6-.4 2.2-1l.8 1c-.8.8-1.9 1.2-3 1.1a3.7 3.7 0 01-3.7-4.1zM131.8 133.2l1-.1-.6-5.3-1.4.2.1 1.1-1.1.2-.3-2.3 6.3-.7.3 2.3-1.2.1-.1-1.2-1.4.2.6 5.2h.9l.1 1-3 .4-.2-1.2zM137.4 129.9c-.7-2.2.4-4.3 2.5-4.9 2.1-.6 4 .6 4.7 2.7.6 2.1-.4 4.2-2.6 4.9-2 .6-4-.6-4.6-2.7zm6-1.8c-.5-1.5-1.8-2.3-3.2-2-1.3.5-2 1.9-1.6 3.4.5 1.5 1.8 2.3 3.1 1.9 1.4-.4 2-1.8 1.6-3.3zM147.2 129.4l.7-.3-2.3-4.7-.8.4-.5-1 2.6-1.4c1.5-.7 2.9-.6 3.6.8.4.8.2 1.8-.4 2.4l2 1.4.7-.4.5 1-1.5.8-2.6-2c-.1.2-.3.2-.4.3l-.5.3.7 1.5.8-.4.6 1-2.7 1.4-.5-1zm2.1-5.6c-.4-.7-1-.8-2-.3l-.6.3 1 2.2.7-.3c.9-.5 1.3-1.2.9-2zM156.4 124.2l.7-.6-3.3-4-.6.5-.8-1 2.4-1.8c1.2-1 2.7-1 3.6.2 1.1 1.3.7 2.8-.6 3.8l-.6.5.9 1 .7-.5.7.9-2.4 1.9-.7-1zm1-5.9c-.5-.6-1.3-.6-2 0l-.6.5 1.7 2c.1 0 .3 0 .7-.4.7-.6.8-1.4.2-2zM162.1 119.4l.6-.6-3.9-3.6-.5.7-.9-.8 2-2.1c1-1.3 2.4-1.7 3.6-.6.7.6.8 1.5.5 2.4l2.3.5.6-.6.8.8-1.1 1.2-3.1-.8-.3.3-.4.5 1.2 1.1.6-.6.9.7-2 2.3-.9-.8zm0-6c-.6-.6-1.3-.4-2 .4l-.4.5 1.8 1.6.5-.5c.6-.7.7-1.5.1-2zM165.3 111.9a3.8 3.8 0 01-1.3-5.3c1.1-2 3.4-2.3 5.2-1.1a3.8 3.8 0 011.3 5.3c-1.1 1.9-3.4 2.3-5.2 1.1zm3.3-5.3c-1.4-.9-2.9-.6-3.6.6-.8 1.3-.4 2.7 1 3.6 1.3.8 2.8.5 3.5-.7.8-1.2.4-2.7-1-3.5zM171.6 105c-.5-.2-.8-.7-.6-1.2.2-.4.6-.5 1-.4.2.1.4.3.4.5.3 0 .5-.3.8-.8v-.8c-.1-.3-.5-.6-1-.8l-3.6-1.4-.4 1-1-.4 1.1-3 1.1.5-.3.7 3.6 1.5c.8.3 1.3.8 1.6 1.4.2.5.2 1.1 0 1.8-.6 1.1-1.7 1.8-2.7 1.4zM174.7 98.6l.2-.8-5-1.2-.2.8-1.1-.3 1.3-5.4 2 .5-.2 1.2-1-.2-.5 2.1 2 .5.4-2.2 1.1.3-.5 2.2 2 .5.6-2.2-1-.2.3-1.2 2 .5-1.3 5.4-1-.3zM173.8 91.3c-2.3-.2-3.7-2-3.5-4.2 0-1.7 1.1-2.8 2-2.7.5 0 .9.4.8.9 0 .5-.3.8-.8.7a1 1 0 01-.4 0c-.2.1-.4.5-.5 1.2 0 1.4 1 2.6 2.5 2.8 1.5.1 2.8-.8 2.9-2.4 0-.9-.3-1.6-.8-2.2l1-.8a4 4 0 011 3.1c-.2 2.3-1.9 3.8-4.2 3.6zM176.8 81.5v-1l-5.3.5.1 1.3h1.2l.1 1.1-2.3.2-.5-6.4 2.3-.2v1.2l-1.1.1.1 1.4 5.2-.4v-1h1l.3 3-1.1.2zM87.4 65.1l.5-.8-5-2.8-.5.9-1-.6 1.6-3 1 .5-.4 1 5 2.8 1-2-1-.6.7-1.2 2 1.2-2.8 5.2-1-.6zM91.4 58.2l.7-.8-4.6-3.5-.6.8-1-.7 2-2.8 1 .8-.5.8 4.5 3.5.6-.8 1 .7-2 2.8-1-.8zM93.4 49l3 3.2.8-.7.8 1-2.4 2.2-.9-.9.7-.6-3.8-4.3-.7.7-.9-1 1.6-1.4 6.4 1-2.6-2.8-.7.7-.9-1 2.4-2.2.9 1-.7.5 4.7 5.2-.5.5-7.2-1.1zM101.2 44.4a4.3 4.3 0 011.7-6c1.6-.9 3.2-.6 3.7.2.3.6.2 1.1-.3 1.4-.5.3-1 .1-1.2-.3a1 1 0 01-.2-.4c-.3 0-.8 0-1.4.4-1.4.7-1.9 2.4-1 4 .8 1.4 2.4 2 4 1 .8-.4 1.2-1.2 1.4-2l1.3.3c-.2 1.2-1 2.3-2.1 3-2.2 1.2-4.6.6-5.9-1.6zM110.2 39.5c-.7-2.3.5-4.6 2.9-5.3 2.3-.8 4.5.5 5.2 2.9.7 2.3-.5 4.6-2.9 5.3-2.3.7-4.5-.6-5.2-3zm6.7-2c-.5-1.7-2-2.5-3.5-2-1.5.4-2.3 1.9-1.8 3.6.5 1.6 2 2.5 3.5 2 1.5-.4 2.3-2 1.8-3.6zM121.2 39.5h1l-.5-5.8-1 .1v-1.3l3.4-.2v1.2l-1 .1.5 5.8 2.2-.2V38l1.3-.1.2 2.4-6 .5v-1.3zM132 34.8l-.6 4.4 1 .2-.1 1.2-3.3-.4.1-1.2h1l.7-5.6-1-.1.2-1.3 2.1.3 3.4 5.6.5-3.9-1-.1.1-1.3 3.3.4-.2 1.3-.9-.1-.8 7-.8-.1-3.7-6.3zM139.6 40c.2-.5.6-.7 1.1-.6.5.2.7.7.6 1.1 0 .2-.2.3-.3.5.2.3.6.5 1.1.7.9.3 1.6.1 1.8-.6.2-.6-.3-1.1-1-1.7-1.3-1-2.2-1.8-1.7-3.3.5-1.2 1.8-1.9 3.4-1.3 1.4.5 2.3 1.6 2 2.6-.2.5-.7.7-1.1.6a.9.9 0 01-.4-1.5 2 2 0 00-1-.6c-.7-.2-1.3 0-1.5.6-.2.6.4 1.1 1 1.7 1.3 1 2.1 1.8 1.6 3.3-.5 1.5-1.9 2-3.5 1.4-1.5-.6-2.5-1.9-2.1-2.8zM147 43.3l.8.4 2.9-4.9-.8-.5.6-1 2.9 1.7-.6 1-1-.4-1 1.8 3.2 2 1.1-1.9-.8-.5.6-1.1 2.9 1.7-.7 1.1-.8-.5-2.9 5 .8.5-.6 1-3-1.7.7-1 1 .4 1-2-3.2-1.9-1.1 2 .8.5-.6 1.1-2.9-1.7.7-1.1zM155.7 49l.8.7 3.7-4.3-.7-.7.8-1 2.6 2.3-.9 1-.7-.7-3.7 4.3.7.7-.8 1-2.6-2.3.8-1zM159.8 52.7l.6.7 4.4-3.7-.6-.7 1-.8 2 2.5c1.2 1.4 1.4 3 .2 4-.9.8-1.9.8-2.7.3l-1 2.4.6.8-1 .8-1.1-1.5 1.3-3.3-.3-.4-.5-.5-1.4 1.2.7.8-1 .8-2.1-2.6 1-.8zm6.6 1c.6-.6.5-1.4-.2-2.3l-.5-.6-2 1.7c0 .2.2.3.5.7.6.8 1.5 1 2.2.5zM165.3 59.7l.5.8 5-2.7-.5-.9 1.1-.6 3 5.4-2.1 1.2-.7-1.2 1-.6-1.2-2.1-1.9 1 1.2 2.3-1 .5-1.2-2.2-2 1.2 1.1 2.1 1-.5.6 1.2-2 1.1-3-5.4 1.1-.6zM174.6 70.3c0 1-.8 1.7-1.7 1.7-.9 0-1.6-.7-1.6-1.7 0-.9.7-1.6 1.6-1.6 1 0 1.7.7 1.7 1.6zM84 70.9c0 1-.7 1.7-1.6 1.7-1 0-1.7-.8-1.7-1.7 0-1 .8-1.7 1.7-1.7.9 0 1.6.8 1.6 1.7z" fill="#1D1D1B"/><path d="M113.2 86c-7.6-.7-13.1 0-16.5 2.2a6.8 6.8 0 00-3.4 5.1v.7H115l.1-7.8-2-.2zM115.9 118.8h16c4 0 7-3.2 7-7.1V96.5a27.1 27.1 0 00-23 22.3zM140.2 46.5H124c-3.9 0-7 3.2-7 7.2v15.1a27.1 27.1 0 0023-22.3zM141 71.4v7.8h.4l1.4.2c17.1 1.7 19.7-4.4 20-7.2v-.8h-21.9z" fill="#000"/><path d="M142.8 80l-1.5-.2h-1V48.3a27.7 27.7 0 01-23.3 21l-.3.1h-.2a48.3 48.3 0 01-9.2 1 593.6 593.6 0 01-14 0v20.6c1.2-2.7 4.7-6 14.8-6a56.8 56.8 0 017.4.6h.3V117a27.7 27.7 0 0123.2-21h.3l.2-.1a51 51 0 019.2-.8 569.3 569.3 0 0114-.2V74.4c-1.3 3-5.8 7-20 5.6zM127 75.9l1.4-1.6c1.1 1 2 1.8 2.4 2.9a3 3 0 010 2.8l-.9 1.8-.7 2.6c-.1.4-.3.5-.6.4-.2 0-.6-.1-.7-.3a10 10 0 00-1.4-4c-1-1.8-.6-3.2.5-4.6zm5 9.3c.4 0 .6 0 .6.5s-.3.5-.6.5h-6.9c-.4 0-.6 0-.6-.5s.2-.5.6-.5h6.9zm-8.9 0l-1.5-.7c-1.1-.7-1.1-2.2 0-3 1.2-1 3-.8 4.1.4a4 4 0 011.2 2.9c-.5.1-1 .1-1.2-.5-.3-.8-1.3-1-2-.7-.5.2-.7.6-.6 1.5zm1.6 3.6c-.6 0-1.1-.5-1.1-1 0-.7.4-.9 1-1 0 .5.3.7.8.7s.8 0 1-.6c0-.2.2-.3.4-.4.1 1.4-.8 2.4-2 2.3zm5-.6c-.1.7-.6 1.3-1 2-1.1-1.1-1.7-1.9-1.2-3.2.1-.4.2-.5.6-.5l1.2.1c.3.5.6 1.1.4 1.6zm2.6.6c-1.2.1-2-.7-2.2-2.4l.6.5c.1.5.5.7 1 .6.3 0 .5-.3.8-.5v-.2c.5.1 1 .3 1 1 0 .5-.6 1-1.2 1zm2.6-4l-1 .3c.1-1 0-1.4-.7-1.6-.7-.2-1.6.1-1.9.8-.2.7-.6.6-1.2.5.1-1.5.7-2.6 1.9-3.4 1-.6 2-.8 3.1-.1.8.4 1.2 1 1.2 1.9 0 .8-.6 1.3-1.4 1.6z" fill="#000"/></svg>
