<svg xmlns="http://www.w3.org/2000/svg" xml:space="preserve" fill="none" viewBox="0 0 256 166">
  <path fill="#95BCD1" d="M0 0h256v166H0z" opacity=".1" />
  <path fill="#111" d="M38.83 76.122h2.693C41.447 73.156 38.83 71 35.06 71c-3.713 0-6.56 2.118-6.56 5.324 0 2.58 1.847 4.091 4.81 4.89l2.192.607c1.982.52 3.511 1.174 3.511 2.82 0 1.81-1.731 3.004-4.107 3.004-2.145 0-3.943-.963-4.107-2.984H28c.183 3.37 2.78 5.439 6.925 5.439 4.348 0 6.858-2.291 6.858-5.43 0-3.34-2.982-4.64-5.328-5.218l-1.809-.471c-1.442-.366-3.366-1.05-3.366-2.821 0-1.579 1.443-2.744 3.722-2.744 2.116 0 3.636.992 3.828 2.706zM50.632 90.07c3.03 0 5.175-1.492 5.79-3.755l-2.558-.462c-.481 1.31-1.664 1.984-3.203 1.984-2.309 0-3.867-1.502-3.944-4.188h9.878v-.963c0-5.016-3-6.98-6.155-6.98-3.867 0-6.416 2.946-6.416 7.22 0 4.323 2.52 7.144 6.608 7.144zm-3.905-8.443c.115-1.973 1.539-3.687 3.741-3.687 2.097 0 3.463 1.56 3.482 3.687h-7.213zM63.386 90.1c2.299 0 3.588-1.165 4.107-2.214h.096v1.906h2.645V80.55c0-4.043-3.174-4.842-5.386-4.842-2.51 0-4.829 1.01-5.733 3.542l2.54.578c.404-.982 1.413-1.925 3.231-1.925 1.741 0 2.636.904 2.636 2.483v.068c0 .982-1.01.962-3.501 1.251-2.636.308-5.329 1.001-5.329 4.159 0 2.734 2.049 4.236 4.694 4.236zm.577-2.176c-1.52 0-2.626-.683-2.626-2.021 0-1.445 1.289-1.964 2.847-2.176.885-.116 2.963-.356 3.347-.741v1.79c0 1.646-1.308 3.148-3.558 3.148zM76.284 71.25h-2.693v18.542h2.693zm9.378 18.821c3.03 0 5.165-1.492 5.78-3.755l-2.558-.462c-.48 1.31-1.664 1.984-3.203 1.984-2.308 0-3.866-1.502-3.943-4.188h9.878v-.963c0-5.016-3.001-6.98-6.156-6.98-3.857 0-6.415 2.946-6.415 7.22 0 4.323 2.52 7.144 6.617 7.144zm-3.915-8.443c.116-1.973 1.54-3.687 3.742-3.687 2.097 0 3.462 1.56 3.482 3.687h-7.214zm17.813 8.433a4.232 4.236 0 0 0 4.02-2.435h.222v2.166h2.645V71.25h-2.703v6.893h-.163c-.49-.866-1.414-2.435-4.001-2.435-3.357 0-5.82 2.647-5.82 7.162 0 4.496 2.434 7.191 5.8 7.191zm.597-2.31c-2.405 0-3.665-2.118-3.665-4.91 0-2.763 1.231-4.833 3.665-4.833 2.366 0 3.626 1.926 3.626 4.833 0 2.917-1.289 4.91-3.626 4.91zm16.514 2.031h10.917v-1.511h-9.233v-6.999h8.483v-1.521h-8.483v-6.98h9.06v-1.52h-10.744v18.54zm16.14-8.683c0-2.426 1.587-3.918 3.78-3.918 2.135 0 3.5 1.434 3.5 3.706v8.905h1.617V80.78c0-3.292-1.905-5.073-4.713-5.073-2.03 0-3.434.943-4.088 2.358h-.144V75.89h-1.568v13.892h1.616V81.09zm23.132-5.209h-1.741l-4.126 11.774h-.125l-4.127-11.774h-1.74l5.068 13.902h1.722zm8.012 14.19c2.79 0 4.665-1.51 5.29-3.263l-1.52-.49c-.538 1.25-1.798 2.28-3.77 2.28-2.837 0-4.636-2.079-4.713-5.294h10.35v-.79c0-4.64-2.867-6.825-5.877-6.825-3.598 0-6.089 3.013-6.089 7.22 0 4.217 2.443 7.163 6.329 7.163zm-4.694-8.182c.164-2.59 1.914-4.737 4.454-4.737 2.49 0 4.232 2.06 4.232 4.737zm15.226-10.648h-1.606v18.542h1.616V71.25Zm9.416 18.83c3.598 0 6.108-2.945 6.108-7.181 0-4.255-2.51-7.201-6.108-7.201-3.606 0-6.117 2.946-6.117 7.2 0 4.237 2.51 7.183 6.117 7.183zm0-1.472c-2.885 0-4.501-2.6-4.501-5.71 0-3.109 1.616-5.737 4.501-5.737 2.886 0 4.492 2.628 4.492 5.738 0 3.12-1.606 5.709-4.492 5.709zM193.262 95h1.625v-7.798h.145a4.424 4.428 0 0 0 4.26 2.879c3.406 0 5.714-2.888 5.714-7.201 0-4.294-2.308-7.182-5.742-7.182-2.549 0-3.674 1.588-4.232 2.84h-.202V75.89h-1.568Zm1.597-12.15c0-3.33 1.529-5.68 4.232-5.68 2.799 0 4.3 2.475 4.3 5.68 0 3.235-1.53 5.758-4.29 5.758-2.694 0-4.242-2.407-4.242-5.757zm19.034 7.23c2.79 0 4.665-1.51 5.29-3.263l-1.529-.49c-.529 1.25-1.789 2.28-3.751 2.28-2.847 0-4.646-2.079-4.713-5.294h10.34v-.79c0-4.64-2.867-6.825-5.877-6.825-3.597 0-6.089 3.013-6.089 7.22 0 4.217 2.443 7.163 6.33 7.163zm-4.703-8.182c.173-2.59 1.924-4.737 4.463-4.737 2.491 0 4.232 2.06 4.232 4.737H209.2zm15.755-4.005a3.054 3.057 0 1 0 0-6.113 3.054 3.057 0 0 0 0 6.113zm0-.578a2.482 2.484 0 1 1 0-4.958 2.482 2.484 0 0 1 0 4.968zm-1.04-1.107h.491v-1.01h.77l.539 1.01h.548l-.606-1.117a.895.895 0 0 0 .48-.818.866.866 0 0 0-.865-.886h-1.346v2.821zm.491-1.396v-1.03h.712c.24 0 .49.135.49.491 0 .347-.24.54-.5.54z" />
</svg>
