<svg xmlns="http://www.w3.org/2000/svg" fill="none" viewBox="0 0 256 166">
  <path fill="#95BCD1" d="M0 0h256v166H0z" opacity=".1"/>
  <path fill="#111" fill-rule="evenodd" d="M84 83.1h-9.3V67H70v20.6h14v-4.5zM94 83.5c-1 0-2-.4-2.7-1.1-.7-.7-1-1.8-1-3 0-1.1.3-2.2 1-3 .7-.6 1.7-1 2.7-1 1 0 2 .4 2.6 1 .7.8 1.1 1.9 1.1 3 0 2.4-1.5 4-3.7 4zm8.5-4c0-4.8-3.8-8.6-8.5-8.6a8.4 8.4 0 00-8.5 8.6c0 4.8 3.7 8.5 8.5 8.5s8.5-3.7 8.5-8.5zM109.1 79.5c0-1.2.4-2.3 1.2-3 .6-.7 1.5-1 2.5-1s2 .3 2.6 1c.8.7 1.2 1.8 1.2 3 0 2.3-1.6 4-3.7 4-1 0-2-.4-2.7-1.1-.7-.8-1-1.8-1-3zm7.5 6.5v1.6h4.7V71.3h-4.7V73a6.1 6.1 0 00-4.7-2c-4.3 0-7.5 3.6-7.5 8.5s3.2 8.5 7.5 8.5c1.9 0 3.5-.7 4.7-2zM180 82.3c-.7.7-1.6 1-2.7 1-1 0-2-.3-2.6-1a4 4 0 01-1.1-3 4 4 0 011.1-2.8c.7-.7 1.6-1 2.6-1s2 .3 2.6 1a4 4 0 011.2 2.9 4 4 0 01-1.1 2.9zm1-11V73a6.1 6.1 0 00-4.6-2c-4.3 0-7.5 3.6-7.5 8.4 0 4.8 3.2 8.4 7.5 8.4 1.9 0 3.5-.7 4.6-2v6.3h-22v4.5h26.7V71.3H181zM70 96.5h4.5v-4.4H70v4.4zM78.9 96.5h8.9v-4.4h-8.9v4.4zM92.3 96.5h13.3v-4.4H92.3v4.4zM132.3 96.5h22.3v-4.4h-22.3v4.4zM110 96.5H128v-4.4H110v4.4zM132.1 83.5c-1 0-2-.4-2.6-1.1-.7-.8-1.1-1.8-1.1-3 0-1.1.4-2.2 1.1-3 .7-.6 1.6-1 2.6-1s2 .4 2.6 1c.7.8 1.1 1.9 1.1 3 0 2.4-1.5 4-3.7 4zm3.7 2.5v1.6h4.7V65h-4.7v8a6.1 6.1 0 00-4.7-2c-4.3 0-7.5 3.6-7.5 8.5s3.2 8.5 7.5 8.5c1.9 0 3.5-.7 4.7-2z" clip-rule="evenodd"/>
  <path fill="#111" fill-rule="evenodd" d="M161.8 87.6h4.7V71.3h-15.2v16.3h4.7V75.8h5.8v11.8zM143.6 87.6h4.7V71.3h-4.7v16.3zM146 69.8a2.9 2.9 0 100-5.8 2.9 2.9 0 000 5.8z" clip-rule="evenodd"/>
</svg>
