<svg width="543" height="380" fill="none" xmlns="http://www.w3.org/2000/svg"><path fill="#FBE072" d="M0 0h543v380H0z"/><path fill="#41E0A1" d="M191 45h161.9v289H191z"/><path d="M206.3 87.5h9V62.8h-9v24.7zM226.3 87.5h8.2V61.8h-8.2v25.7zM251 88c8.6 0 14.2-3.7 14.2-9.4S259.6 69 251 69c-8.6 0-14.2 3.8-14.2 9.5s5.6 9.4 14.2 9.4zm0-4.7c-3.8 0-6.2-1.9-6.2-4.7 0-2.8 2.4-4.7 6.1-4.7 3.7 0 6.2 1.9 6.2 4.7 0 2.8-2.5 4.7-6.2 4.7zM274 87.5h10.4l9.8-17.8h-8.7l-6.2 12.8-6.2-12.8h-8.7l9.6 17.8zM308.8 88c4.7 0 9.3-1 11.7-2.6l-2.3-3.9c-1.8 1-5.3 1.8-8.9 1.8-3.3 0-6.4-.8-7.3-2.9h18.6l.2-1.8c0-5.7-5.3-9.5-13.4-9.5-8.2 0-14 4-14 9.5 0 5.7 6.2 9.4 15.4 9.4zm-7-11c.4-2 2.6-3.4 5.5-3.4s5.2 1.3 5.3 3.4h-10.8zM216.2 121.5c9.8 0 16.3-4.4 16.3-11.2V96h-8.2v7.4c0 3.4-2.2 5.5-5.5 5.5-2.8 0-4.7-2-4.7-5v-8h-8.2v8.9c0 5.2 3.8 9 9.6 9 4.3 0 7.7-2 8.8-5.1v1.3c0 3.4-3.4 5.7-8.7 5.7-3.2 0-7-1.2-9.6-2.6l-2.5 5.3c2.8 1.7 7.9 3.1 12.7 3.1zM248.9 114.3c8.6 0 14.3-3.7 14.3-9.5 0-5.7-5.7-9.4-14.3-9.4-8.6 0-14.3 3.7-14.3 9.4 0 5.8 5.7 9.5 14.3 9.5zm0-4.8c-3.7 0-6.2-1.8-6.2-4.7 0-2.8 2.5-4.6 6.2-4.6s6.1 1.8 6.1 4.6c0 2.9-2.4 4.7-6.1 4.7zM274.2 114.3c4.4 0 7.8-2 9.5-4.9l.9 4.3h7V96h-8.1v8.3c0 3.4-2.1 5.4-5.6 5.4-3 0-4.8-1.7-4.8-4.6V96h-8l-.1 10c0 5.1 3.5 8.3 9.2 8.3zM221.7 148.8c9.2 0 15.8-5.3 15.8-13 0-7.6-6.6-13-15.8-13-9.3 0-15.9 5.4-15.9 13 0 7.7 6.6 13 15.9 13zm0-6.3c-4.1 0-6.9-2.6-6.9-6.7 0-4 2.8-6.7 6.9-6.7 4 0 6.8 2.7 6.8 6.7s-2.8 6.7-6.8 6.7zM255.8 148.8c9.2 0 15.8-5.3 15.8-13 0-7.6-6.6-13-15.8-13-9.3 0-15.9 5.4-15.9 13 0 7.7 6.6 13 15.9 13zm0-6.3c-4 0-6.9-2.6-6.9-6.7 0-4 2.8-6.7 6.9-6.7 4 0 6.8 2.7 6.8 6.7s-2.8 6.7-6.8 6.7zM290 148.8c9.2 0 15.8-5.3 15.8-13 0-7.6-6.6-13-15.9-13-9.2 0-15.8 5.4-15.8 13 0 7.7 6.6 13 15.8 13zm0-6.3c-4.1 0-7-2.6-7-6.7 0-4 2.9-6.7 7-6.7 4 0 6.8 2.7 6.8 6.7s-2.8 6.7-6.9 6.7zM221.7 183.2c9.2 0 15.8-5.3 15.8-13 0-7.6-6.6-12.9-15.8-12.9-9.3 0-15.9 5.3-15.9 13 0 7.6 6.6 13 15.9 13zm0-6.3c-4.1 0-6.9-2.6-6.9-6.6 0-4 2.8-6.7 6.9-6.7 4 0 6.8 2.6 6.8 6.7 0 4-2.8 6.6-6.8 6.6zM239.8 182.6h27.6V177h-18.6c0-2 1.3-2.9 4.9-3.4l4.3-.6c6.3-.8 9-3 9-7.3 0-5.6-5-8.4-11.9-8.4-5.2 0-11.2 1.6-14.7 4.3l3 5.4c3-2.1 7.3-3.6 10.5-3.6 2.6 0 4.4 1 4.4 2.5 0 1.3-1.1 2-3.7 2.3l-3.8.6c-7.9 1-11 4-11 10.5v3.3zM284 183.2c7.8 0 13.5-3 13.6-7.7 0-2.5-1.9-4.7-5.1-5.7 2.4-1 3.9-3 3.9-5.3 0-4.3-5.1-7.1-12.3-7.1-7.4 0-13.4 3-14.3 7.6l8.6 1.4c.3-2.2 2.5-3.7 5.3-3.7 2.4 0 4.1 1.1 4.1 2.7 0 1.5-1.4 2.6-3.8 2.7h-3v3.4l3.5.1c2.3 0 4 1 4 2.9 0 1.8-2 3.1-4.7 3.1-3.4 0-5.9-1.9-6.3-4.6l-8.6 2c1 4.9 6.8 8.2 15.1 8.2zM222.2 217h8.8v-4.7h2.7V207H231v-14.6h-12.2l-14 15.6v4.3h17.4v4.7zm-8-10l8-8.9v8.9h-8zM249.8 217.6c8.6 0 14-3.4 14-8.8 0-5.2-4.3-8.5-11.3-8.5a13 13 0 00-6.2 1.5l.2-4.1h14v-5.3H239l-.9 13.1 7.5 1.2c.9-1 2.5-1.6 4.3-1.6 3 0 5 1.4 5 3.6 0 2-2 3.3-5 3.3-3.1 0-5.3-1.6-5.8-4l-8.8 1.7c.8 4.9 6.4 8 14.5 8zM280.7 191.7c-9.9 0-14.8 5.3-14.8 14.3 0 8.2 5.7 11.6 14.5 11.6 9 0 15-3.5 15-8.8 0-5.1-5-8.5-13-8.5-3.8 0-6 .9-8 2.5 0-3.3 3-5.6 7.3-5.6 4.2 0 6.9 1.1 10 3.6l3.2-4.6a22.3 22.3 0 00-14.2-4.5zm0 13.1c3.4 0 5.8 1.5 5.8 3.7s-2.4 3.8-5.8 3.8-5.8-1.5-5.8-3.8c0-2.2 2.4-3.7 5.8-3.7zM219.6 252c8.7 0 14.1-3.4 14.1-8.8 0-5.2-4.4-8.4-11.4-8.4a13 13 0 00-6.2 1.4l.3-4.1h13.9v-5.3h-21.5l-.8 13.1 7.4 1.2c1-1 2.6-1.5 4.4-1.5 3 0 5 1.3 5 3.5 0 2-2 3.4-5 3.4-3.2 0-5.4-1.6-5.9-4.1l-8.8 1.7c.8 5 6.4 8 14.5 8zM251.5 252c9.3 0 15.9-5.2 15.9-12.9 0-7.6-6.6-13-15.9-13-9.2 0-15.8 5.4-15.8 13 0 7.7 6.6 13 15.8 13zm0-6.2c-4 0-6.8-2.6-6.8-6.7 0-4 2.8-6.7 6.8-6.7 4.1 0 6.9 2.7 6.9 6.7s-2.8 6.7-6.9 6.7zM284.6 226.2c-9.8 0-14.8 5.2-14.8 14.2 0 8.2 5.8 11.7 14.5 11.7 9 0 15-3.6 15-9 0-5-4.8-8.4-12.9-8.4-3.9 0-6 1-8 2.6 0-3.4 3-5.6 7.3-5.6 4.1 0 6.9 1 10 3.5l3.2-4.6a22.3 22.3 0 00-14.3-4.4zm0 13c3.5 0 5.8 1.5 5.8 3.7s-2.3 3.8-5.7 3.8c-3.5 0-5.8-1.5-5.8-3.8 0-2.2 2.3-3.6 5.7-3.6zM345.1 320.7c0-1.1-.6-1.8-1.5-1.8-.7 0-1.1.4-1.3 1.4l-.2.7c-.2.7-.4 1-.8 1-.5 0-.9-.5-.9-1.2 0-.6.4-1 1-1.1l-.1-.6c-.8.2-1.4.9-1.4 1.7 0 1 .6 1.7 1.5 1.7.6 0 1-.4 1.2-1.3l.2-.8c.2-.7.4-1 .9-1s.9.5.9 1.3-.5 1.4-1.3 1.5l.1.6c1-.2 1.7-1 1.7-2.1zM345 318.2v-.5h-2c-.7 0-1.2-.5-1.2-1.2 0-.6.3-1 1-1h2.1v-.4h-2.2c-.9 0-1.4.4-1.4 1.2 0 .6.2 1 .7 1.4h-2.1v.5h5zM345 313.1c0-.6-.2-1.1-.6-1.4h.5v-.5h-2.3c-.8 0-1.3.6-1.3 1.5 0 1 .6 1.6 1.1 1.7l.2-.5c-.4 0-.8-.5-.8-1.2 0-.6.3-1 .7-1 .2 0 .3.1.3.3v.9c.2 1.1.7 1.5 1.2 1.5.6 0 1-.5 1-1.3zm-.4 0c0 .4-.2.8-.6.8-.3 0-.6-.2-.7-1l-.1-1.2h.2c.7 0 1.2.6 1.2 1.3zM341.3 308.9c0 .4.3.8.7 1h-.5v.5h3.4v-.5H343c-.7 0-1.2-.4-1.2-1 0-.3.3-.6.7-.6l-.1-.5c-.7 0-1 .5-1 1zM345 305.5c0-.8-.3-1.5-.9-1.7l-.2.4c.4.2.7.7.7 1.2 0 .8-.5 1.4-1.2 1.4V304h-.2c-1.1 0-1.9.7-1.9 1.7s.8 1.8 1.9 1.8c1 0 1.9-.8 1.9-2zm-2.1 1.3c-.7 0-1.1-.6-1.1-1.2s.4-1 1.1-1.1v2.3zM345 82v-.6l-1.2-.4v-2.4l1.1-.4v-.6l-4.8 1.9v.7l4.8 1.8zm-1.7-1.2l-2.7-1 2.7-1v2zM345 75.2c0-1-.7-1.8-1.8-1.8-1 0-1.9.7-1.9 1.7 0 .6.3 1 .7 1.4H340v.5h5v-.4h-.6c.5-.4.8-.9.8-1.4zm-.4 0c0 .8-.6 1.3-1.4 1.3-.8 0-1.4-.5-1.4-1.3 0-.7.6-1.3 1.4-1.3.8 0 1.4.6 1.4 1.3zM345 71c0-1.2-.7-2-1.8-2s-1.9.8-1.9 2c0 1 .8 1.8 1.9 1.8 1.1 0 1.9-.7 1.9-1.9zm-.4 0c0 .8-.6 1.3-1.4 1.3-.9 0-1.4-.5-1.4-1.4 0-.8.5-1.3 1.4-1.3.8 0 1.4.5 1.4 1.3zM345 67.1c0-.6-.2-1-.6-1.3h.5v-.5h-3.4v.5h2c.6 0 1.1.5 1.1 1.2 0 .5-.4.9-1 .9h-2.1v.5h2.2c.9 0 1.4-.5 1.4-1.3zM345 62.9c0-.6-.3-1.1-1-1.2v.4c.4 0 .6.4.6.7 0 .4-.3.7-.7.7h-2v-1.6h-.4v1.6h-1.2l.1.5h1v.8h.5V64h2c.7 0 1.2-.5 1.2-1.1z" fill="#000"/><path fill-rule="evenodd" clip-rule="evenodd" d="M215 302.2a10.3 10.3 0 100 20.7 10.3 10.3 0 000-20.7zm0 .7a9.6 9.6 0 110 19.3 9.6 9.6 0 010-19.3zm1.7 15.2h.6v-11h-.6v11zm-3.5-.7V308h-.7v9.3h.7zm-2-6.9v4.1h-.7v-4.1h.7zm-2.1.7v3h-.7v-3h.7zm9.6 3.4h.7v-4.1h-.7v4.1zm-3.4 1.8v-7.6h-.7v7.6h.7zm6.2-5.2v3h-.7v-3h.7z" fill="#000"/><path d="M233.5 310.6c1.1 0 1.8-.7 1.8-1.5 0-.7-.4-1.2-1.4-1.4l-.8-.1c-.6-.2-.8-.4-.8-.8 0-.5.4-.9 1-.9.7 0 1.1.4 1.2 1l.6-.1c-.2-.9-.9-1.4-1.8-1.4-1 0-1.6.6-1.6 1.5 0 .6.4 1 1.3 1.2l.8.2c.7.2 1 .4 1 .8 0 .6-.5 1-1.3 1s-1.5-.6-1.5-1.3h-.6c.1 1 1 1.8 2.1 1.8zM237.7 310.6c1.1 0 1.9-.8 1.9-2 0-1-.8-1.8-1.9-1.8-1.1 0-1.8.7-1.8 1.9 0 1.1.7 1.9 1.8 1.9zm0-.5c-.8 0-1.3-.6-1.3-1.4 0-.9.5-1.4 1.3-1.4s1.3.5 1.3 1.4c0 .8-.5 1.4-1.3 1.4zM241.5 310.6c.6 0 1-.3 1.4-.7v.5h.5V307h-.5v2c0 .7-.5 1.2-1.2 1.2-.6 0-1-.4-1-1V307h-.5v2.3c0 .8.5 1.4 1.3 1.4zM246.1 306.8c-.6 0-1 .2-1.3.7v-.6h-.6v3.5h.6v-2c0-.7.5-1.1 1.2-1.1.5 0 .9.3.9 1v2.1h.5v-2.2c0-.9-.5-1.4-1.3-1.4zM249.8 310.6c.6 0 1.1-.3 1.4-.8v.6h.5v-5h-.5v2.1c-.3-.4-.8-.7-1.4-.7-1 0-1.7.8-1.7 1.9 0 1 .7 1.9 1.7 1.9zm.1-.5c-.7 0-1.3-.6-1.3-1.4 0-.8.6-1.4 1.3-1.4.8 0 1.3.6 1.3 1.4 0 .8-.5 1.4-1.3 1.4zM234.1 318.3c1.6 0 2.7-1 2.7-2.6 0-1.5-1-2.6-2.7-2.6-1.5 0-2.6 1-2.6 2.6s1 2.6 2.6 2.6zm0-.5c-1.2 0-2-.8-2-2 0-1.3.8-2.2 2-2.2 1.3 0 2 .9 2 2.1 0 1.3-.7 2.1-2 2.1zM239.4 314.5c-.6 0-1 .3-1.4.7v-.5h-.5v3.5h.5v-2c0-.7.5-1.2 1.2-1.2.6 0 1 .4 1 1v2.2h.5v-2.3c0-.8-.5-1.4-1.3-1.4z" fill="#000"/></svg>
